<?xml version="1.0" encoding="UTF-8" standalone="no"?>
<svg
   xmlns:dc="http://purl.org/dc/elements/1.1/"
   xmlns:cc="http://creativecommons.org/ns#"
   xmlns:rdf="http://www.w3.org/1999/02/22-rdf-syntax-ns#"
   xmlns:svg="http://www.w3.org/2000/svg"
   xmlns="http://www.w3.org/2000/svg"
   xmlns:sodipodi="http://sodipodi.sourceforge.net/DTD/sodipodi-0.dtd"
   xmlns:inkscape="http://www.inkscape.org/namespaces/inkscape"
   width="600"
   height="300"
   version="1.1"
   id="svg157"
   sodipodi:docname="ic_flag_ki.svg"
   inkscape:version="0.92.1 r15371">
  <metadata
     id="metadata161">
    <rdf:RDF>
      <cc:Work
         rdf:about="">
        <dc:format>image/svg+xml</dc:format>
        <dc:type
           rdf:resource="http://purl.org/dc/dcmitype/StillImage" />
        <dc:title>Flag of Kiribati</dc:title>
      </cc:Work>
    </rdf:RDF>
  </metadata>
  <sodipodi:namedview
     pagecolor="#ffffff"
     bordercolor="#666666"
     borderopacity="1"
     objecttolerance="10"
     gridtolerance="10"
     guidetolerance="10"
     inkscape:pageopacity="0"
     inkscape:pageshadow="2"
     inkscape:window-width="1844"
     inkscape:window-height="1081"
     id="namedview159"
     showgrid="false"
     inkscape:zoom="1.0566667"
     inkscape:cx="352.078"
     inkscape:cy="282.03632"
     inkscape:window-x="0"
     inkscape:window-y="0"
     inkscape:window-maximized="0"
     inkscape:current-layer="svg157" />
  <title
     id="title2">Flag of Kiribati</title>
  <defs
     id="defs6">
    <style
       type="text/css"
       id="style4"><![CDATA[
    .str0 {stroke:black;stroke-width:0.15;stroke-miterlimit:22.9256}
    .str1 {stroke:black;stroke-width:0.46;stroke-miterlimit:22.9256}
    .fil1 {fill:#f8d000}
    .fil3 {fill:none}
    .fil4 {fill:black}
    .fil5 {fill:none;fill-rule:nonzero}
   ]]></style>
  </defs>
  <rect
     width="600"
     height="162"
     fill="#c81010"
     id="rect8" />
  <g
     id="bird">
    <path
       id="bird_outline"
       class="fil1 str1"
       d="M 305.75,27.34 C 286.67,19.45 274.99,18 261.94,17.87 243.04,18 234.02,26.12 216,26.87 223.14,34.56 249.02,36.44 259.93,26.34 276.15,28.03 279.83,32.41 284.18,37.86 277.41,36.79 269.61,34.84 263.14,42 257.68,43.1 255.15,42 245.81,42 241.45,42 239.94,44.14 240,48 242.82,44.1 262.31,46.4 267.09,48 270.76,49.23 274.66,54.32 279.31,55.15 291.5,57.32 308.99,50.95 325.12,46.61 L 360,42 H 336.07 L 366,36 C 352.07,36 342.89,36 333.46,36 332.77,35.21 331.12,34.19 329.8,33.32 338.17,27.93 345.57,18.13 347.46,13.4 362.55,13.25 372.29,11.85 384,9.11 306.82,0.57 324.39,9.78 305.75,27.34 Z"
       inkscape:connector-curvature="0"
       style="fill:#f8d000;stroke:#000000;stroke-width:0.46000001;stroke-miterlimit:22.92560005" />
    <g
       id="g13">
      <path
         id="eye"
         class="fil4"
         d="M 270.06,39.89 C 270.89,39.89 271.56,40.56 271.56,41.39 271.56,42.22 270.89,42.89 270.06,42.89 269.24,42.89 268.56,42.22 268.56,41.39 268.56,40.56 269.24,39.89 270.06,39.89 Z"
         inkscape:connector-curvature="0"
         style="fill:#000000" />
      <path
         id="eye_outline"
         class="fil5 str0"
         d="M 270.06,39.89 C 270.89,39.89 271.56,40.56 271.56,41.39 271.56,42.22 270.89,42.89 270.06,42.89 269.24,42.89 268.56,42.22 268.56,41.39 268.56,40.56 269.24,39.89 270.06,39.89 Z"
         inkscape:connector-curvature="0"
         style="fill:none;fill-rule:nonzero;stroke:#000000;stroke-width:0.15000001;stroke-miterlimit:22.92560005" />
    </g>
    <path
       id="path129"
       style="fill:none;stroke:#000000;stroke-width:0.46000001;stroke-miterlimit:22.92560005"
       d="M 284.18,37.86 C 286.29,38.19 288.3,38.44 290.13,38.29 297.29,34.38 302.18,30.71 305.75,27.34 M 296.04,28.42 C 296.04,28.42 299.1,28.05 302.9,29.86 M 262.41,20.78 C 262.41,20.78 267.51,18.68 276.55,18.85 M 290.11,25.29 C 290.11,25.29 296.9,24.98 304.71,26.92 M 266.28,20.94 C 266.28,20.94 275.18,18.95 283.38,20.07 M 258.07,20.89 C 258.07,20.89 264.56,18.12 272.5,18.38 M 247.41,21.31 C 247.41,21.31 252.1,19.1 259.02,18 M 241.03,22.6 C 241.03,22.6 247.45,19.49 253.17,18.54 M 233.95,25.66 C 233.95,25.66 241.61,23.99 259.93,26.34 M 251.19,31.24 C 251.19,31.24 254.72,28.07 255.5,25.85 M 247.23,32.31 C 247.23,32.31 251.52,28.15 252.77,25.57 M 243.24,32.96 C 243.24,32.96 248.57,29.45 250.78,25.41 M 240,33.23 C 240,33.23 246.09,29.01 248.28,25.25 M 232.9,33.08 C 232.9,33.08 241.98,30.48 245.42,25.13 M 222.46,30.81 C 222.46,30.81 233.7,34.43 242.54,25.09 M 217.46,28.23 C 217.46,28.23 232.38,31.91 239.2,25.08 M 216,26.87 C 216,26.87 227.49,30.01 236.83,25.52 M 292.52,26.69 C 292.52,26.69 300.71,26.8 304.78,28.38 M 284.25,24.24 C 284.25,24.24 292.29,22.89 300,25.07 M 273.11,21.9 C 273.11,21.9 282.8,20.27 291.75,22.26 M 253.13,21.12 C 253.13,21.12 260.52,17.93 268.75,18.09 M 233.82,24.6 C 233.82,24.6 238.48,22.16 240.68,21.51 M 332.38,6.24 C 332.38,6.24 338.03,9.12 345.67,6 M 329.16,7.21 C 329.16,7.21 332.33,9.14 335.23,9.06 M 327.39,8.54 C 327.39,8.54 331.57,10.89 334.4,10.29 M 326.45,9.64 C 326.45,9.64 328.78,12.19 333.12,12.1 M 325.11,12.07 C 325.11,12.07 328.79,14.13 331.96,13.67 M 323.91,14.1 C 323.91,14.1 326.65,15.92 330.17,15.96 M 322.28,16.24 C 322.28,16.24 324.59,17.86 328.69,17.76 M 320.47,18.38 C 320.47,18.38 323.82,19.56 326.89,19.85 M 318.9,20.13 C 318.9,20.13 321.38,21.72 324.89,22.02 M 317.17,21.63 C 317.17,21.63 319.73,23.9 322.99,23.98 M 315.53,23.71 C 315.53,23.71 317.71,25.6 321.16,25.78 M 313.69,25.6 C 313.69,25.6 316.63,27.6 319.26,27.54 M 312.03,27.26 C 312.03,27.26 314.49,29.56 317.44,29.14 M 310.28,28.98 C 310.28,28.98 312.45,30.83 315.43,30.82 M 308.84,30.38 C 308.84,30.38 311.34,32.27 313.68,32.19 M 335.48,8.69 C 335.48,8.69 341.68,12.55 347.46,13.4 M 334.06,10.85 C 334.06,10.85 341.86,15.53 346.51,15.38 M 332.89,12.55 C 332.89,12.55 338.79,17 345.62,16.91 M 331.52,14.42 C 331.52,14.42 334.87,18.1 344.3,18.9 M 329.76,16.69 C 329.76,16.69 332.77,20.17 342.7,21.08 M 328.03,18.79 C 328.03,18.79 332.94,23.01 340.66,23.59 M 326.27,20.8 C 326.27,20.8 330.46,24.71 338.77,25.68 M 323.91,23.32 C 323.91,23.32 329.89,27.31 336.7,27.77 M 321.98,25.25 C 321.98,25.25 325.89,28.61 334.4,29.86 M 320.04,27.06 C 320.04,27.06 323.89,30.91 331.91,31.85 M 318.46,28.47 C 318.46,28.47 320.84,31.46 329.8,33.32 M 325.12,46.61 C 325.12,46.61 330.85,42 336.07,42 M 290.13,38.29 C 290.13,38.29 283.86,42 279.7,42 M 357.64,9.78 C 357.64,9.78 365.16,11.59 374.48,11.1 M 349.47,9.08 C 349.47,9.08 356.85,12.29 364.65,12.49 M 343.95,9.04 C 343.95,9.04 349.21,12.03 357.51,13.07 M 338.67,8.57 C 338.67,8.57 342.03,11.48 351.39,13.33 M 351.37,9.02 C 351.37,9.02 363.29,11.42 384,9.11 M 346.15,8.97 C 346.15,8.97 354,9.79 362.78,7.01 M 337.19,8.29 C 337.19,8.29 348.61,10.91 353.56,6.33 M 278.5,22.56 C 278.5,22.56 288.23,22.04 294.9,23.27"
       inkscape:connector-curvature="0" />
  </g>
  <g
     stroke-miterlimit="22.9256"
     id="g146"
     style="fill:#f8d000;stroke:#000000;stroke-width:0.46000001;stroke-miterlimit:22.92560005">
    <g
       id="rays_6">
      <g
         id="rays_2"
         transform="rotate(-84.706,300,156)" />
      <g
         transform="rotate(-63.526,300,156)"
         id="use135" />
      <g
         transform="rotate(-42.356,300,156)"
         id="use137" />
    </g>
    <g
       id="use140"
       transform="rotate(63.53,300,156)">
      <g
         transform="rotate(-84.706,300,156)"
         id="g4656" />
      <g
         transform="rotate(-63.526,300,156)"
         id="use4658" />
      <g
         transform="rotate(-42.356,300,156)"
         id="use4660" />
    </g>
    <g
       id="use142"
       transform="rotate(127.06,300,156)">
      <g
         transform="rotate(-84.706,300,156)"
         id="g4680" />
      <g
         id="g4686"
         transform="rotate(-63.526,300,156)">
        <path
           id="path4682"
           transform="rotate(13.4,300,156)"
           d="M 290.63,105.87 A 50,50 0 0 1 300,66 50,50 0 0 0 309.37,105.87 M 273.15102,112.64166 A 50,50 0 0 1 267.48308,72.079502 50,50 0 0 0 290.62513,105.87091 M 259.29934,125.27103 A 50,50 0 0 1 239.3592,89.496668 50,50 0 0 0 273.14681,112.64426 M 250.94875,142.04332 A 50,50 0 0 1 219.43489,115.88438 50,50 0 0 0 259.30172,125.26787 M 249.21963,160.70827 A 50,50 0 0 1 210.38333,147.70229 50,50 0 0 0 250.9474,142.04808 M 254.35094,178.73712 A 50,50 0 0 1 213.43898,180.64122 50,50 0 0 0 249.22009,160.7132 M 265.64286,193.6882 A 50,50 0 0 1 228.17956,210.23859 50,50 0 0 0 254.34918,178.73359 M 281.5804,203.55557 A 50,50 0 0 1 252.62739,232.52343 50,50 0 0 0 265.64652,193.69154"
           inkscape:connector-curvature="0" />
      </g>
      <g
         id="g4692"
         transform="rotate(-42.356,300,156)">
        <path
           id="path4688"
           d="M 290.63,105.87 A 50,50 0 0 1 300,66 50,50 0 0 0 309.37,105.87"
           transform="rotate(13.4,300,156)"
           inkscape:connector-curvature="0" />
        <path
           id="path4690"
           d="M 290.63,105.87 300,63 309.37,105.87 M 273.15859,112.63697 266.41432,69.276289 290.63388,105.86927 M 259.3047,125.26392 237.34983,87.268955 273.15438,112.63958 M 250.94875,142.04332 216.74939,114.54719 259.30172,125.26787 M 249.21881,160.6994 207.3976,147.40954 250.94983,142.03952 M 254.34697,178.72916 210.54917,181.44698 249.21927,160.70433 M 265.64286,193.6882 225.78555,212.04655 254.34918,178.73359 M 281.5721,203.55235 251.0345,235.06567 265.63994,193.68554 M 299.99752,206.99817 282.90848,247.41597 281.57671,203.55414"
           inkscape:connector-curvature="0" />
      </g>
    </g>
    <circle
       cx="300"
       cy="156"
       r="51"
       id="circle144" />
  </g>
  <rect
     x="0"
     y="162"
     width="600"
     height="138"
     fill="#183070"
     id="rect148" />
  <g
     id="wave" />
  <g
     id="use153"
     transform="translate(0,48)" />
  <g
     id="use155"
     transform="translate(0,96)">
    <path
       id="path4642"
       style="color:#000000;font-style:normal;font-variant:normal;font-weight:normal;font-stretch:normal;font-size:medium;line-height:normal;font-family:sans-serif;font-variant-ligatures:normal;font-variant-position:normal;font-variant-caps:normal;font-variant-numeric:normal;font-variant-alternates:normal;font-feature-settings:normal;text-indent:0;text-align:start;text-decoration:none;text-decoration-line:none;text-decoration-style:solid;text-decoration-color:#000000;letter-spacing:normal;word-spacing:normal;text-transform:none;writing-mode:lr-tb;direction:ltr;text-orientation:mixed;dominant-baseline:auto;baseline-shift:baseline;text-anchor:start;white-space:normal;shape-padding:0;clip-rule:nonzero;display:inline;overflow:visible;visibility:visible;opacity:1;isolation:auto;mix-blend-mode:normal;color-interpolation:sRGB;color-interpolation-filters:linearRGB;solid-color:#000000;solid-opacity:1;vector-effect:none;fill:#ffffff;fill-opacity:1;fill-rule:nonzero;stroke:none;stroke-width:24;stroke-linecap:butt;stroke-linejoin:miter;stroke-miterlimit:4;stroke-dasharray:none;stroke-dashoffset:0;stroke-opacity:1;color-rendering:auto;image-rendering:auto;shape-rendering:auto;text-rendering:auto;enable-background:accumulate"
       d="M 234.7168,150.07227 C 222.70168,150.07651 210.88766,152.31955 199.54297,156.85742 182.10428,163.8329 165.89572,163.8329 148.45703,156.85742 125.89572,147.8329 102.10428,147.8329 79.542969,156.85742 62.104284,163.8329 45.895716,163.8329 28.457031,156.85742 5.8957162,147.8329 -17.895716,147.8329 -40.457031,156.85742 L -31.542969,179.14258 C -14.104284,172.1671 2.1042838,172.1671 19.542969,179.14258 42.104284,188.1671 65.895716,188.1671 88.457031,179.14258 105.89572,172.1671 122.10428,172.1671 139.54297,179.14258 162.10428,188.1671 185.89572,188.1671 208.45703,179.14258 225.76765,172.21833 243.20333,172.11549 262.89844,179.27734 287.31309,188.1554 312.68691,188.1554 337.10156,179.27734 356.79667,172.11549 374.23235,172.21833 391.54297,179.14258 414.10428,188.1671 437.89572,188.1671 460.45703,179.14258 477.89572,172.1671 494.10428,172.1671 511.54297,179.14258 534.10428,188.1671 557.89572,188.1671 580.45703,179.14258 597.89572,172.1671 614.10428,172.1671 631.54297,179.14258 L 640.45703,156.85742 C 617.89572,147.8329 594.10428,147.8329 571.54297,156.85742 554.10428,163.8329 537.89572,163.8329 520.45703,156.85742 497.89572,147.8329 474.10428,147.8329 451.54297,156.85742 434.10428,163.8329 417.89572,163.8329 400.45703,156.85742 377.76765,147.78167 353.20333,147.88451 328.89844,156.72266 309.31309,163.8446 290.68691,163.8446 271.10156,156.72266 258.94912,152.30358 246.73191,150.06802 234.7168,150.07227 Z M 234.7168,102.07227 C 222.70168,102.07651 210.88766,104.31955 199.54297,108.85742 182.10428,115.8329 165.89572,115.8329 148.45703,108.85742 125.89572,99.8329 102.10428,99.8329 79.542969,108.85742 62.104284,115.8329 45.895716,115.8329 28.457031,108.85742 5.8957162,99.8329 -17.895716,99.8329 -40.457031,108.85742 L -31.542969,131.14258 C -14.104284,124.1671 2.1042838,124.1671 19.542969,131.14258 42.104284,140.1671 65.895716,140.1671 88.457031,131.14258 105.89572,124.1671 122.10428,124.1671 139.54297,131.14258 162.10428,140.1671 185.89572,140.1671 208.45703,131.14258 225.76765,124.21833 243.20333,124.11549 262.89844,131.27734 287.31309,140.1554 312.68691,140.1554 337.10156,131.27734 356.79667,124.11549 374.23235,124.21833 391.54297,131.14258 414.10428,140.1671 437.89572,140.1671 460.45703,131.14258 477.89572,124.1671 494.10428,124.1671 511.54297,131.14258 534.10428,140.1671 557.89572,140.1671 580.45703,131.14258 597.89572,124.1671 614.10428,124.1671 631.54297,131.14258 L 640.45703,108.85742 C 617.89572,99.8329 594.10428,99.8329 571.54297,108.85742 554.10428,115.8329 537.89572,115.8329 520.45703,108.85742 497.89572,99.8329 474.10428,99.8329 451.54297,108.85742 434.10428,115.8329 417.89572,115.8329 400.45703,108.85742 377.76765,99.78167 353.20333,99.88451 328.89844,108.72266 309.31309,115.8446 290.68691,115.8446 271.10156,108.72266 258.94912,104.30358 246.73191,102.06802 234.7168,102.07227 Z M 234.7168,54.07227 C 222.70168,54.07651 210.88766,56.31955 199.54297,60.85742 182.10428,67.8329 165.89572,67.8329 148.45703,60.85742 125.89572,51.8329 102.10428,51.8329 79.542969,60.85742 62.104284,67.8329 45.895716,67.8329 28.457031,60.85742 5.8957162,51.8329 -17.895716,51.8329 -40.457031,60.85742 L -31.542969,83.14258 C -14.104284,76.1671 2.1042838,76.1671 19.542969,83.14258 42.104284,92.1671 65.895716,92.1671 88.457031,83.14258 105.89572,76.1671 122.10428,76.1671 139.54297,83.14258 162.10428,92.1671 185.89572,92.1671 208.45703,83.14258 225.76765,76.21833 243.20333,76.11549 262.89844,83.27734 287.31309,92.1554 312.68691,92.1554 337.10156,83.27734 356.79667,76.11549 374.23235,76.21833 391.54297,83.14258 414.10428,92.1671 437.89572,92.1671 460.45703,83.14258 477.89572,76.1671 494.10428,76.1671 511.54297,83.14258 534.10428,92.1671 557.89572,92.1671 580.45703,83.14258 597.89572,76.1671 614.10428,76.1671 631.54297,83.14258 L 640.45703,60.85742 C 617.89572,51.8329 594.10428,51.8329 571.54297,60.85742 554.10428,67.8329 537.89572,67.8329 520.45703,60.85742 497.89572,51.8329 474.10428,51.8329 451.54297,60.85742 434.10428,67.8329 417.89572,67.8329 400.45703,60.85742 377.76765,51.78167 353.20333,51.88451 328.89844,60.72266 309.31309,67.8446 290.68691,67.8446 271.10156,60.72266 258.94912,56.30358 246.73191,54.06802 234.7168,54.07227 Z"
       inkscape:connector-curvature="0" />
  </g>
</svg>
