<?xml version="1.0" encoding="UTF-8" standalone="no"?>
<svg
   xmlns:dc="http://purl.org/dc/elements/1.1/"
   xmlns:cc="http://creativecommons.org/ns#"
   xmlns:rdf="http://www.w3.org/1999/02/22-rdf-syntax-ns#"
   xmlns:svg="http://www.w3.org/2000/svg"
   xmlns="http://www.w3.org/2000/svg"
   xmlns:sodipodi="http://sodipodi.sourceforge.net/DTD/sodipodi-0.dtd"
   xmlns:inkscape="http://www.inkscape.org/namespaces/inkscape"
   inkscape:label="fur"
   inkscape:version="1.0 (4035a4fb49, 2020-05-01)"
   sodipodi:docname="ic_flag_us_ca.svg"
   id="svg98"
   viewBox="0 0 900 600"
   height="600"
   width="900"
   version="1.1">
  <metadata
     id="metadata104">
    <rdf:RDF>
      <cc:Work
         rdf:about="">
        <dc:format>image/svg+xml</dc:format>
        <dc:type
           rdf:resource="http://purl.org/dc/dcmitype/StillImage" />
        <dc:title></dc:title>
      </cc:Work>
    </rdf:RDF>
  </metadata>
  <defs
     id="defs102" />
  <sodipodi:namedview
     inkscape:pagecheckerboard="true"
     inkscape:document-rotation="0"
     inkscape:current-layer="svg98"
     inkscape:window-maximized="0"
     inkscape:window-y="12"
     inkscape:window-x="731"
     inkscape:cy="265.35737"
     inkscape:cx="559.60774"
     inkscape:zoom="0.99623488"
     showgrid="false"
     id="namedview100"
     inkscape:window-height="1214"
     inkscape:window-width="1682"
     inkscape:pageshadow="2"
     inkscape:pageopacity="0"
     guidetolerance="10"
     gridtolerance="10"
     objecttolerance="10"
     borderopacity="1"
     bordercolor="#666666"
     pagecolor="#ffffff" />
  <rect
     inkscape:label="white"
     style="display:inline"
     y="0"
     x="0"
     id="rect2"
     fill="#ffffff"
     height="600"
     width="900" />
  <rect
     inkscape:label="red"
     style="display:inline"
     x="0"
     id="rect4"
     fill="#b71234"
     y="500"
     height="100"
     width="900" />
  <polygon
     inkscape:label="star"
     style="display:inline"
     id="polygon6"
     points="176.45,156.41 150,137.19 123.55,156.41 133.65,125.31 107.2,106.09 139.9,106.09 150,75 160.1,106.09 192.8,106.09 166.35,125.31 "
     fill="#b71234" />
  <path
     inkscape:label="text"
     d="m 162,415 a 12,12 0 0 0 -12,12 v 26 a 12,12 0 0 0 12,12 h 6 a 12,12 0 0 0 12,-12 v -3 h -9 v 3 a 3,3 0 0 1 -3,3 h -6 a 3,3 0 0 1 -3,-3 v -26 a 3,3 0 0 1 3,-3 h 6 a 3,3 0 0 1 3,3 v 3 h 9 v -3 a 12,12 0 0 0 -12,-12 z m 34,0 -13,50 h 9 l 2.33984,-9 h 13.32032 L 210,465 h 9 l -13,-50 z m 26,0 v 50 h 27 v -9 h -18 v -41 z m 30,0 v 50 h 9 v -50 z m 15,0 v 50 h 9 v -21 h 18 v -9 h -18 v -11 h 18 v -9 z m 45,0 a 12,12 0 0 0 -12,12 v 26 a 12,12 0 0 0 12,12 h 6 a 12,12 0 0 0 12,-12 v -26 a 12,12 0 0 0 -12,-12 z m 24,0 v 50 h 9 v -21 h 9 a 3,3 0 0 1 3,3 v 18 h 9 V 447 A 11.9,11.9 0 0 0 363.33984,439.5 11.9,11.9 0 0 0 366,432 v -5 a 12,12 0 0 0 -12,-12 z m 36,0 v 50 h 9 V 436.43945 L 393,465 h 9 v -50 h -9 v 28.56055 L 381,415 Z m 36,0 v 50 h 9 v -50 z m 25,0 -13,50 h 9 l 2.33984,-9 h 13.32032 L 447,465 h 9 l -13,-50 z m 65,0 v 50 h 9 v -21 h 9 a 3,3 0 0 1 3,3 v 18 h 9 V 447 A 11.9,11.9 0 0 0 525.33984,439.5 11.9,11.9 0 0 0 528,432 v -5 a 12,12 0 0 0 -12,-12 z m 36,0 v 50 h 27 v -9 h -18 v -12 h 18 v -9 h -18 v -11 h 18 v -9 h -18 z m 33,0 v 50 h 9 v -21 h 9 a 12,12 0 0 0 12,-12 v -5 a 12,12 0 0 0 -12,-12 z m 36,0 v 38 a 12,12 0 0 0 12,12 h 6 a 12,12 0 0 0 12,-12 v -38 h -9 v 38 a 3,3 0 0 1 -3,3 h -6 a 3,3 0 0 1 -3,-3 v -38 z m 36,0 v 50 h 18 a 12,12 0 0 0 12,-12 v -6 A 11.9,11.9 0 0 0 666.33984,439.5 11.9,11.9 0 0 0 669,432 v -5 a 12,12 0 0 0 -12,-12 z m 36,0 v 50 h 27 v -9 h -18 v -41 z m 30,0 v 50 h 9 v -50 z m 27,0 a 12,12 0 0 0 -12,12 v 26 a 12,12 0 0 0 12,12 h 6 a 12,12 0 0 0 12,-12 v -3 h -9 v 3 a 3,3 0 0 1 -3,3 h -6 a 3,3 0 0 1 -3,-3 v -26 a 3,3 0 0 1 3,-3 h 6 a 3,3 0 0 1 3,3 v 3 h 9 v -3 a 12,12 0 0 0 -12,-12 z m -420,9 h 6 a 3,3 0 0 1 3,3 v 26 a 3,3 0 0 1 -3,3 h -6 a 3,3 0 0 1 -3,-3 v -26 a 3,3 0 0 1 3,-3 z m 33,0 h 9 a 3,3 0 0 1 3,3 v 5 a 3,3 0 0 1 -3,3 h -9 z m 162,0 h 9 a 3,3 0 0 1 3,3 v 5 a 3,3 0 0 1 -3,3 h -9 z m 69,0 h 9 a 3,3 0 0 1 3,3 v 5 a 3,3 0 0 1 -3,3 h -9 z m 72,0 h 9 a 3,3 0 0 1 3,3 v 5 a 3,3 0 0 1 -3,3 h -9 z M 201,430.38086 205.31055,447 h -8.6211 z m 237,0 L 442.31055,447 h -8.6211 z M 648,444 h 9 a 3,3 0 0 1 3,3 v 6 a 3,3 0 0 1 -3,3 h -9 z"
     id="path8"
     inkscape:connector-curvature="0"
     style="display:inline;fill:#584528" />
  <path
     inkscape:label="grass"
     style="fill:#008542;fill-opacity:1;stroke:#584528;stroke-opacity:1;stroke-width:6;stroke-miterlimit:4;stroke-dasharray:none"
     d="m 705.22,365.22 c -9.69207,-5.78058 -21.18586,-8.02752 -30.86556,-11.2142 -2.27834,0.65171 -4.89547,-0.43326 -6.04444,-2.5058 -5.34248,5.68643 -6.62763,-7.86743 -12.82125,-1.58625 -14.36745,-8.42333 -34.87957,-2.08234 -51.73297,-6.11516 -17.0533,-3.36427 -32.79852,-4.57675 -48.5814,-5.52281 -17.06564,-0.35306 -35.36181,4.8986 -54.08204,4.84 -10.15054,4.89319 -20.54208,-5.67214 -27.00746,-4.19698 -7.81645,3.84739 -16.95507,-0.53777 -25.22113,0.2912 -13.53531,1.71513 -25.99012,-5.22894 -38.25125,-1.83125 -19.98659,0.23508 -40.83398,-0.60898 -60.95036,6.0318 -21.27112,4.53513 -42.93214,12.39484 -64.35214,9.40945 -16.28264,1.2111 -28.87621,9.1408 -45.1075,10.9925 -14.93307,-1.09733 -28.7728,8.70297 -43.45125,12.41375 17.84246,1.44328 35.7865,1.40079 53.63494,2.07595 25.84463,-2.83671 51.75096,-2.79581 77.65385,-0.94548 29.43495,0.88469 58.74149,5.18075 88.1917,1.78871 56.20944,-4.12438 112.55457,-9.61659 168.94512,-5.36918 35.44838,1.85641 70.96345,2.7271 106.35689,-0.52625 8.66644,-1.51839 37.38294,3.27334 16.27484,-5.25687 z"
     id="path38" />
  <path
     id="path48"
     d="m 594.14,357.7 c -5.04071,-9.42276 -29.82196,0.32289 -10.08381,-0.0141 3.36054,0.0895 6.72289,0.0652 10.08381,0.0141 z m -36.42,4.56 c -3.39617,-7.63971 -29.91357,-4.29514 -17.37389,0.99672 5.59362,-1.66531 12.4591,2.04291 17.37389,-0.99672 z m -39.25,-0.51 c -5.66531,-3.48736 -30.75541,2.74129 -12.05008,2.19149 3.96738,-0.21373 8.8498,0.77985 12.05008,-2.19149 z m 166.43,6.1 c -6.83932,-7.60444 -17.10093,4.12102 -4.13009,-0.16222 1.19051,-0.18054 3.70909,2.52219 4.13009,0.16222 z m -370.74,0 c -6.19345,-5.80477 -19.87189,4.13271 -5.98,1.5573 1.99571,-0.15196 4.48195,0.0759 5.98,-1.5573 z m -22.83,-3.06 c -4.85475,-7.71327 -32.29079,1.50143 -12.95784,1.84912 4.28343,-0.34325 8.98969,-0.14866 12.95784,-1.84912 z m -35.99,2.12 c -7.69536,-5.58915 -16.14022,6.824 0,0 z m 217.21,-5.46 c -4.49277,-7.79045 -29.99024,0.01 -13.27263,1.07085 4.35274,-1.33744 9.07046,0.89614 13.27263,-1.07085 z M 654,364.41 c -4.92295,-5.8507 -22.65535,-4.67525 -20.40446,1.15524 C 640.11826,363.44694 648.372,368.27492 654,364.41 Z M 432.6,365 c -8.39656,-6.2672 -18.84903,-6.82059 -25.43011,0.28378 8.09001,1.30893 17.73897,2.68457 25.43011,-0.28378 z m -68.49,-0.12 c -7.14129,-7.85191 -25.75606,5.98601 -6.95367,2.40231 1.15647,-0.45195 9.05857,-0.13461 6.95367,-2.40231 z m 35.38,-11.47 c -6.92066,-5.51705 -27.90312,1.47704 -9.76264,1.59521 3.13592,-0.30644 7.29095,0.68385 9.76264,-1.59521 z"
     inkscape:label="dirt"
     style="fill:#584528" />
  <path
     inkscape:label="bear"
     inkscape:connector-curvature="0"
     id="path54"
     d="m 650,338 c 1.63197,-14.79574 -12.21708,-23.67108 -13.92283,-37.33528 -3.94063,-13.76784 -2.38466,-28.81243 -6.95287,-42.64755 -8.00963,-15.31973 0.0197,-32.31763 -15.1443,-44.47717 -11.36383,-13.91242 -23.53953,-28.40619 -41.20242,-34.26058 -21.94563,-11.66273 -48.15748,-14.88688 -72.42355,-8.9313 -19.31577,3.44616 -42.0312,10.48303 -59.35209,-2.34572 -11.35762,-5.63573 -24.4631,-9.04937 -36.51944,-6.82115 -15.34722,-0.31507 -28.46613,8.51812 -40.49158,16.8103 -14.49412,8.26288 -31.77366,12.2865 -43.62941,24.76089 -5.24681,-0.57217 -14.42439,-7.91027 -17.12024,4.06946 -7.38275,6.77234 -22.02302,-8.20007 -21.32001,10.42014 -4.15921,11.59698 -15.22726,21.81908 -12.30476,34.87144 -2.88962,9.0116 -20.58652,16.925 -17.49,24.4993 3.90005,2.17892 9.02686,6.18852 16.91777,8.04043 1.15192,1.41626 16.83951,-12.98798 9.26358,-1.6181 1.10772,9.91748 -8.98386,-0.92224 -3.97119,11.4516 11.59772,10.03107 25.14165,-11.1939 35.5877,-0.72027 3.8015,9.19709 8.03527,-5.65887 9.42196,-4.18306 3.25736,2.74678 1.84248,-7.72533 4.60643,-3.50442 0.47046,-2.69656 2.34794,1.39468 0.44725,-4.79896 5.32907,5.82401 1.65175,-4.20715 6.28091,1.37283 6.04545,-4.1284 13.46798,-10.41786 22.19892,-10.12626 8.93118,-5.53716 17.57601,-1.08486 10.15621,9.49586 -1.74474,20.11198 -15.19637,34.60979 -26.96373,49.65481 -6.4846,14.07123 -32.58656,8.11799 -35.6519,24.61933 3.69287,-3.75052 9.05109,-2.6925 3.6531,1.57511 7.20524,-4.97465 7.84656,-0.33085 8.58649,0.47832 12.88473,0.16916 29.17141,2.76067 40.41554,-4.73523 8.88936,-4.18551 15.5205,-8.76018 23.66049,-16.51803 9.62014,-8.38986 21.37488,-15.37467 29.54017,-25.62289 4.34378,-5.4331 12.02987,-21.67519 17.08074,-7.3275 6.42445,9.76473 26.8482,16.1653 24.76628,28.06512 -8.82028,-3.47698 -25.81303,12.36458 -18.74354,12.02941 -7.52971,4.05542 6.64726,0.30072 -1.26968,4.35912 8.94804,-2.31991 26.31487,-0.33126 38.29146,-3.44618 6.26293,-8.23534 17.94936,-21.36645 10.6988,-32.65582 -1.75352,-8.24214 -16.80509,-27.52377 0.77049,-21.67133 7.52138,-1.73204 16.89211,2.60453 20.92734,1.52809 3.36233,-1.54084 9.12101,-0.94051 4.77191,7.93524 -2.30684,10.8777 12.38539,39.25679 -7.03254,37.58206 -8.56466,-1.8163 -27.47023,8.58337 -18.90746,13.94794 6.10901,-1.7168 22.39939,6.42062 33.991,1.43305 18.37181,4.32058 22.6935,-8.97361 32.57385,-21.00093 8.12221,-7.13766 12.37227,-11.86036 22.05399,-18.39214 7.25361,-9.06451 13.85586,-9.31078 17.37169,2.20867 9.14368,10.68751 25.20946,10.59787 37.89147,15.08928 3.34854,11.15711 -17.97953,5.02321 -18.20829,12.41592 -6.87035,4.74855 -4.27833,5.21454 -1.17664,4.40048 -5.98528,6.66539 6.60325,-1.38445 0.50892,4.53834 12.15388,-2.15522 27.10809,5.62404 37.08544,-4.77949 C 642.91053,344.10661 650.14822,343.90392 650,338 Z"
     style="display:inline;fill:#584528" />
  <path
     sodipodi:nodetypes="cscccccccc"
     d="m 286.4936,244.73467 c -4.23771,2.81903 -0.59459,6.62437 3.44781,6.3415 2.27458,-0.15917 3.21117,-1.86449 2.76757,-4.07617 -0.0343,-0.41933 -0.68359,-0.32922 -0.75195,0.0508 -1.5206,4.35578 -7.6618,0.57315 -3.64062,-1.59766 -0.34341,-1.02789 -1.04619,-0.97527 -1.82281,-0.71845 z m 2.2617,1.54281 c -1.41396,2.22817 3.11242,1.76202 0.46447,0.54086 0.0932,-0.41403 -0.17373,-0.92089 -0.46447,-0.54086 z"
     inkscape:label="eye"
     style="fill:#ffffff"
     id="path4603" />
  <path
     id="path70"
     d="m 303.35,352.32 c 0.9,0 2.63,-1.18 4.2,-1.31 0.14466,-2.46983 -3.70083,0.59337 -4.2,1.31 z m 4.47,3.36 c 1.48971,-0.85605 3.07805,-1.52765 4.73,-2 -1.11966,-2.51012 -4.06788,0.65073 -4.73,2 z m 171.23,-7.41 c 2.14255,-1.16622 4.47562,-1.94165 6.89,-2.29 -1.72116,-2.62176 -6.35438,0.94852 -6.89,2.29 z m -165.59,8.86 c 2.09,-0.47 4.51,-1.43 7,-1.55 -1.82353,-3.1223 -6.07398,0.54803 -7,1.55 z M 613.12,348 c -1.82,0.17267 -4.55266,1.14713 -5.65,2.45 1.77185,-0.9673 5.72713,-0.31848 5.65,-2.45 z m -10.16,-1.85 c 1.24674,-0.616 2.54089,-1.13099 3.87,-1.54 -1.36136,-1.38012 -3.49349,0.49204 -3.87,1.54 z m 7.37,-0.47 c -2.11,0.55 -4.8,1 -5.89,3 1.46991,-0.66589 7.5955,-1.08678 5.89,-3 z m -132.35,0.49 c 1.75678,-1.04971 3.64259,-1.86656 5.61,-2.43 -1.78232,-2.11255 -4.98747,1.04847 -5.61,2.43 z m -173.4,7.24 c 1.53,-0.41 3.35,-1.26 4.89,-1.25 -0.80476,-1.95359 -4.22487,0.43588 -4.89,1.25 z m 178.18,-3.94 c 1.2,-0.52 3.57,-1.44 5.18,-2 -0.85667,-2.56761 -4.77373,1.12186 -5.18,2 z m 3.63,1.16 c 1.95,0.14 3.82,-0.52 5.85,0.23 0.59887,-3.30119 -5.08005,-0.87431 -5.85,-0.23 z"
     inkscape:connector-curvature="0"
     sodipodi:nodetypes="ccccccccccccccccccccccccccccccccc"
     inkscape:label="claws"
     style="fill:#ffffff" />
  <path
     inkscape:label="tongue"
     sodipodi:nodetypes="cccccc"
     inkscape:connector-curvature="0"
     id="path74"
     d="M 292.24,274.89 C 290.34996,274.82921 285.27323,273.83571 283.55959,276.17134 284.56501,279.95815 280.3604,281.78361 279.19522,284.6468 282.48223,290.63421 288.71361,280.36676 290.56947,279.5481 291.23334,278.52553 292.29379,276.49403 292.39093,275.3322 292.449,275.1726 292.44653,274.93669 292.24,274.89 Z"
     style="fill:#b71234" />
  <path
     sodipodi:nodetypes="ccccccccccccccccccccccccccccccccccccccccccccccccccccccccccccccccccccccccccccccccccccccccccccccccccccccccccccccccccccccccccccccccccccccccccccccccccccccccccccccccccsccccccsccc"
     inkscape:label="fur"
     id="path94"
     d="m 587.71,260.1325 c 0.20262,3.47807 -3.15469,10.09788 -5.14975,9.09517 0.9843,11.35357 -8.82623,-4.67491 -8.64382,0.255 -4.97492,9.18748 -8.08086,6.11705 -11.40239,17.80824 -1.64448,2.49169 -7.49703,1.07616 -8.00437,4.01818 -0.14193,5.58151 -0.61423,11.86335 1.27031,16.69219 3.70945,-7.28984 7.05837,-4.8199 10.51448,-12.64933 8.17105,-10.15939 12.71672,-3.77912 15.66892,-14.51705 3.76448,1.31066 -2.87612,6.65664 2.37131,12.46107 4.73278,-19.29044 5.64646,-5.38943 11.73603,-14.47012 -1.04632,-13.27068 1.16409,-4.14992 1.84304,-6.00211 -0.56492,-17.50244 -3.30853,-7.8911 -10.20376,-12.69124 z m 25.58527,-3.36114 c 3.04675,5.6804 1.39866,-7.77667 2.1165,-14.25828 -5.89255,-20.13739 -12.3044,-2.70778 -15.52449,-2.41676 7.74059,13.14419 1.94963,8.91201 1.80852,11.26325 0.88116,2.75472 2.88214,20.93184 6.2212,23.25288 0.70461,-4.3998 5.60064,-7.02395 5.37827,-17.84109 z m -62.80822,41.59287 C 543.70857,293.60185 534.7528,312.02779 537.18,321.78 c -0.96028,-7.04368 11.61179,-9.0521 13.09902,-15.00748 0.93093,-2.74782 1.20784,-5.60882 0.20803,-8.40829 z m 26.15932,-50.05199 c 5.79364,-0.55427 13.59002,-16.56358 13.54232,-16.7006 2.9124,-2.15417 4.61901,-16.99812 6.5827,-9.55237 2.31963,-6.66503 2.76366,-11.10845 3.95753,-8.33246 5.51899,4.30723 -3.61191,-11.61431 -5.79326,-13.69014 -9.0809,-9.53769 -12.70011,-5.27181 -13.79348,-9.00163 3.92292,11.23956 -11.96851,20.5607 -12.37302,26.37201 -8.64701,-4.80915 -7.01102,-14.22022 -3.22185,-17.3268 -3.03631,-3.10732 -2.83388,-16.88775 -8.06852,-10.36042 0.17782,1.64491 -7.48861,-0.49182 -8.20914,-2.92153 4.09588,15.14223 -3.28386,6.87747 -0.23729,11.47714 2.43918,17.66677 8.34217,19.69655 5.65482,39.88245 4.48436,-3.57652 3.56484,13.5709 0.12006,3.1714 -15.88689,25.99123 -19.68905,8.97589 -14.52847,7.71759 0.35434,-12.06978 8.41629,-15.34507 8.76928,-14.52723 -0.0964,-4.0746 -1.7425,-21.11138 -3.11679,-13.16707 -2.07328,-2.0372 -12.169,20.84153 -13.71671,15.83029 -5.99522,6.8689 -11.74578,22.528 -11.90909,21.73254 -6.01354,8.14148 0.64546,20.38149 4.57525,7.58147 11.6975,-3.37281 6.46882,5.97651 3.27227,14.16171 -15.31656,7.76037 -12.09212,7.74279 -14.91111,14.22463 -11.63791,12.63982 3.88112,41.61776 4.64933,37.21882 -3.12083,-5.84364 0.53082,-7.25493 1.71918,-2.70259 2.56555,-21.7015 15.41777,-10.54469 15.43346,-17.33351 -1.34053,-18.48848 9.73018,-30.91783 11.06217,-27.94521 7.16496,-12.11204 30.79757,-24.89578 30.54036,-35.80849 z M 507.13,241.38 c 3.14726,1.95282 4.34203,-24.94656 7.81392,-11.00205 4.52222,-14.34769 -1.59659,-26.57987 3.79455,-20.12771 3.074,-6.47777 -9.26846,-13.43898 -7.48438,-10.10037 1.24044,2.72376 -14.90362,-16.97642 -12.63687,-10.98796 -2.37571,1.17886 -8.63319,-8.65858 -10.014,-7.33789 -7.38498,5.69538 -23.50368,1.767 -23.64584,6.15298 -3.55516,5.81375 -16.02359,-4.88516 -20.89773,1.12254 -0.3955,-3.37659 2.32408,-16.03298 -4.25362,-11.36016 6.72505,-9.40699 -12.38853,7.29881 -7.01698,-4.08036 -3.88356,-6.1412 -12.41144,2.15678 -17.3304,-2.01942 -12.0028,-6.6953 -22.8466,22.37881 -16.9334,5.0748 -9.60984,8.74307 -15.21268,12.67445 -19.31816,12.16082 4.23401,11.4589 -14.1789,10.3441 -6.63397,22.22236 0.99682,7.62816 3.73572,16.95641 8.5716,13.58281 10.22186,4.73291 10.67604,10.005 14.57741,16.10495 3.01875,28.43475 -18.61475,-3.03387 -9.56228,13.56692 -9.80035,11.51578 -2.07426,13.46931 -9.72866,17.20724 -3.19867,17.52127 -13.21318,11.97841 -12.27596,24.4692 -3.48208,20.37677 -28.22877,32.76861 -18.11478,35.24099 8.10511,-5.14154 19.18268,4.22693 21.88241,-8.30303 4.28607,-1.89361 13.39538,-9.57595 7.0034,-13.2025 -3.36907,0.0698 -3.21418,0.74798 -4.29864,6.16253 -8.52496,3.63872 -2.05929,-0.14818 -1.52493,-7.29272 -1.12546,-9.93373 11.7699,-12.80051 13.60794,-14.83032 17.7957,-24.02261 -0.0502,10.3697 2.09809,14.07392 12.46632,-2.40834 25.18524,-18.5799 27.17794,-28.13576 7.81239,-17.07078 -26.17712,15.29346 -17.02765,-1.0912 9.23804,-6.51355 6.12829,-9.57633 11.87446,-12.63701 7.42213,-1.71206 8.66912,-15.28689 6.27428,-19.30587 8.07644,-8.27374 0.52249,-22.88799 6.67549,-17.17388 20.28476,-0.15882 8.81014,-20.82768 17.70245,-11.68059 5.01343,23.46825 10.4146,-10.60171 15.47463,-0.52701 3.60359,6.57974 -2.81751,18.83396 -5.00953,18.75743 -11.67585,2.4934 -18.98053,0.61095 -17.77017,6.53839 -6.09603,-9.08501 0.0791,11.05649 -2.40065,15.3062 1.51106,7.13729 1.2233,18.64943 4.98955,18.41585 7.12566,8.23034 43.68845,6.87579 52.2507,-4.95255 4.61116,-4.15651 9.87485,-4.75403 10.45122,-6.9077 3.69305,-7.92437 -3.29366,0.11441 -2.5761,-7.24039 -2.82905,0.91127 -8.32674,3.55384 -8.89385,0.63625 -2.21568,12.93077 -3.19366,-17.05214 0.58494,-9.02882 -5.31179,-11.23817 19.9387,-21.14503 22.54357,-7.47091 z M 393.69,214.22 c -2.69768,-6.2357 -12.3528,-10.88583 -6.94183,-16.94972 11.33615,-9.22805 5.35891,14.61462 9.2387,6.10414 4.1655,17.32422 1.14282,4.29795 -2.29687,10.84558 z m 234.36952,87.38314 c 1.04305,-1.55219 -11.75017,-14.69671 -1.94643,-8.27162 5.03051,-0.65744 -2.80164,-7.706 -5.84051,-5.32373 -6.59065,2.41984 -11.13082,-1.9626 -15.8575,13.52602 -5.12533,-12.94201 -5.5557,7.21216 -0.46508,11.09619 -4.90158,-0.14377 22.0388,2.10961 22.0228,6.99582 2.92691,-5.44786 1.26967,7.52114 7.54937,0.31548 1.80629,-4.6446 -9.14283,-15.011 -5.46265,-18.33816 z M 338.71,258.71 c -0.29652,-9.42371 -7.52368,-19.49066 -14.38965,-25.55451 -3.54815,-12.05061 -2.13756,9.20018 -8.43035,1.40451 -12.72236,-2.87241 -5.81888,-12.66529 -0.65959,-8.3196 5.63149,-4.15302 -13.64669,-8.66041 -8.74286,-16.91871 -2.1703,-5.94824 -3.16252,8.14084 -1.56779,10.39741 -5.319,1.59399 -7.30306,-3.21163 -10.93397,-0.23441 -3.31752,8.99613 -11.21711,5.77663 -11.83483,14.24274 2.66624,0.0715 6.57194,4.44685 2.45264,7.24385 4.64519,5.49092 21.09847,-7.26376 18.52204,3.46047 -1.73369,3.78542 14.04864,3.14465 10.64325,11.27226 -1.82899,2.59788 -15.12221,1.33899 -5.10189,11.69115 -3.88295,0.92647 -15.29527,-8.53584 -7.85278,0.79921 3.40948,5.20646 12.37454,2.89653 7.54072,7.95482 3.5345,6.17712 9.59304,2.10728 9.84506,1.22081 7.14931,5.02875 7.14721,-11.32172 14.11524,-7.30231 3.46177,8.7838 -2.46339,-19.18188 2.73154,-5.17724 3.75858,-0.66288 4.00499,-5.56268 3.66322,-6.18045 z m 17.70987,-43.19237 c 10.36842,-3.60835 -9.12451,-8.76788 0.054,-13.68485 5.20445,-5.5922 3.84699,-14.93202 0.63361,-3.59842 -6.58357,-9.0779 -19.46375,9.05845 -20.87428,5.3098 -1.95438,4.88205 -2.62842,13.0495 -3.20411,18.17551 4.74323,5.87441 25.42177,9.49266 23.39078,-6.20204 z m -63.3457,62.0682 c -4.6639,4.55678 -13.60943,16.31488 -3.03118,8.29153 -0.11825,-0.93833 4.99894,-7.90018 3.03118,-8.29153 z M 467.43,318.37 c -11.25663,-3.61769 -1.97332,-20.25238 -10.63688,-18.49227 -8.78117,-1.93795 -11.96468,14.44746 -6.30312,14.67227 2.27875,2.62986 3.59658,5.35172 3.61926,8.28638 8.43263,1.30374 15.93951,7.05154 13.32074,-4.46638 z M 295.09,246.33 c -0.6262,-2.36177 -3.09255,-0.093 -0.58772,0.92652 -0.056,4.89929 -5.86372,5.04202 -9.51099,4.73138 -1.29582,1.59703 -4.22576,-1.7464 -1.75154,-1.72105 -0.1353,-2.76853 -5.38879,-4.23572 -2.9642,-0.5645 -1.54588,8.75162 6.50871,3.07866 10.43245,5.24474 0.97388,1.14825 0.55124,-2.69288 2.25495,-0.90846 2.99916,-1.16764 1.67134,-3.7593 3.12248,-5.80968 -0.26472,-0.67042 -0.965,-1.13587 -0.99543,-1.89895 z m -39.18586,24.32969 c -4.3568,0.53831 -2.82402,8.55048 0.14288,5.37757 6.59655,0.82622 0.82394,-4.99556 -0.14288,-5.37757 z m 29.0778,-51.61907 c 2.99851,-1.14541 14.97075,-5.68589 3.36971,-8.63541 -4.03483,-1.17763 -4.45187,7.67368 -3.36971,8.63541 z m 81.40352,14.64159 c -9.2631,-5.09294 -20.7781,11.38858 -23.411,6.64475 -1.3,2.09912 4.71484,12.04517 5.86418,15.30749 12.01141,-0.74244 9.68864,-4.50522 13.61213,-6.57392 4.33966,5.85068 4.29317,-14.5897 3.93469,-15.37832 z m -60.47934,-26.50625 c 8.6317,-4.54232 7.53799,6.54778 13.24684,5.43021 7.09393,-4.73115 -5.91901,-11.90928 -10.40963,-10.35502 -0.29045,0.2375 -3.5336,4.32451 -2.83721,4.92481 z M 307.76,281.38 c -2.48635,1.04467 1.32274,-5.47329 -1.61803,-2.56103 -2.53564,3.07182 2.33304,7.75693 1.61803,2.56103 z m -12.92,-19.67 c -2.95343,0.39285 -1.55588,-4.87814 -5.03379,-5.4161 -7.48802,0.47067 -11.49895,8.61708 -14.73726,-1.16125 -5.47204,-0.51839 -12.51468,12.74937 -11.89405,15.40178 3.6865,1.67695 7.52255,-5.24165 9.58601,-2.07094 6.093,9.98489 16.72811,0.0887 17.34931,0.25102 -1.25597,-5.63569 6.37648,-5.57212 4.72978,-7.00446 z m 5.28797,13.90162 c -1.69046,1.78129 0.66153,8.19956 2.70203,4.94463 2.47703,3.54302 -1.72059,-7.50039 -2.70203,-4.94463 z"
     inkscape:connector-curvature="0"
     style="fill:#bd8a5e" />
</svg>
