<?xml version="1.0" encoding="UTF-8" standalone="no"?>
<svg
   xmlns:dc="http://purl.org/dc/elements/1.1/"
   xmlns:cc="http://creativecommons.org/ns#"
   xmlns:rdf="http://www.w3.org/1999/02/22-rdf-syntax-ns#"
   xmlns:svg="http://www.w3.org/2000/svg"
   xmlns="http://www.w3.org/2000/svg"
   xmlns:sodipodi="http://sodipodi.sourceforge.net/DTD/sodipodi-0.dtd"
   xmlns:inkscape="http://www.inkscape.org/namespaces/inkscape"
   x="0"
   y="0"
   viewBox="0 0 600 300"
   version="1.1"
   id="svg56"
   sodipodi:docname="ic_flag_im.svg"
   inkscape:version="0.92.1 r15371">
  <metadata
     id="metadata58">
    <rdf:RDF>
      <cc:Work
         rdf:about="">
        <dc:format>image/svg+xml</dc:format>
        <dc:type
           rdf:resource="http://purl.org/dc/dcmitype/StillImage" />
        <dc:title></dc:title>
      </cc:Work>
    </rdf:RDF>
  </metadata>
  <sodipodi:namedview
     id="base"
     showguides="true"
     inkscape:guide-bbox="true"
     inkscape:zoom="0.70710678"
     inkscape:cx="-496.61279"
     inkscape:cy="-11.203464"
     inkscape:window-width="2560"
     inkscape:window-height="1377"
     inkscape:window-x="-8"
     inkscape:window-y="-8"
     inkscape:current-layer="svg56"
     inkscape:showpageshadow="false"
     showgrid="false"
     fit-margin-top="0"
     fit-margin-left="0"
     fit-margin-right="0"
     fit-margin-bottom="0"
     inkscape:window-maximized="1" />
  <defs
     id="defs380" />
  <path
     style="fill:#cf142b;fill-opacity:1;fill-rule:nonzero;stroke:none"
     d="m 0,0 600,0 0,300 -600,0 z"
     id="rect2489"
     inkscape:connector-curvature="0"
     sodipodi:nodetypes="ccccc" />
  <path
     style="fill:#ffffff;fill-opacity:1;fill-rule:nonzero;stroke:#000000;stroke-width:2;stroke-miterlimit:4;stroke-dasharray:none;stroke-opacity:1"
     d="M 330.82031,162.47852 C 335.02653,162.0804 340.92741,162.61052 345.36133,164.08008 349.59947,165.92678 353.92623,165.84535 356.82227,163.63477 360.75569,161.47051 362.1861,157.77845 363.95703,154.48242 364.63325,152.7409 364.6628,150.89081 363.92969,149.35547 362.62363,146.09453 363.40635,145.29974 363.13086,143.45508 367.91475,132.88867 368.90409,120.58308 370.04883,111.47656 369.90474,106.16341 370.46337,102.09856 371.09375,100.45898 373.62985,96.55535 377.33009,94.93113 379.19727,94.2207 386.09574,92.43617 392.99411,90.65172 399.89258,88.86719 405.24908,86.91224 401.75043,83.2696 400.64062,83.5918 397.06185,83.07218 397.20087,79.21585 380.44727,83.23633 375.40733,82.55088 371.33385,82.71554 367.375,80.30273 361.55725,79.23038 360.70139,83.0187 361.04102,85.29297 362.62896,89.81592 360.58775,93.36686 359.87109,97.94531 354.54716,103.92445 346.6227,123.12488 346.11523,126.81445 344.49362,132.57612 344.94596,136.00031 345.50195,139.43945 345.71637,141.07261 343.7215,140.94613 342.57617,140.47461 331.80293,134.01691 321.35538,128.65927 311.90268,123.76742 309.96747,113.11974 306.21565,102.52242 301.72852,92.55469 299.09128,89.25381 296.301,84.02621 295.10156,79.51172 292.64301,69.35107 285.49068,68.42851 276.88477,69.21289 275.05737,69.60116 273.49424,70.58862 272.61133,72.04297 270.59865,74.92196 269.50563,74.70238 268.11328,75.94336 256.65272,77.72937 245.81405,83.64299 237.56836,87.67383 233.06968,90.13039 229.49631,92.46517 227.7793,92.83594 223.92109,93.35262 219.73828,90.64754 218.12109,89.47461 212.84916,84.68084 207.57662,79.88557 202.30469,75.0918 197.73487,71.68142 196.60493,76.60546 197.48242,77.35742 199.31751,79.42077 195.70491,82.63149 208.24609,94.44531 210.71745,98.47501 212.8114,102.55522 212.95508,106.98828 215.2449,112.4429 218.88104,111.08466 220.59766,109.55469 223.64535,106.35968 227.29039,104.4282 231.82422,103.60156 242.55381,103.16807 262.53874,102.30013 269.36328,96.89648 271.55911,95.44296 270.35288,96.60006 274.41016,92.89258 275.65901,91.81856 276.64598,93.5589 276.87891,94.77539 277.10443,106.26883 278.82298,116.00306 279.87372,127.45671 272.36148,133.33533 263.01199,143.53234 257.29102,150.72656 255.57664,154.58813 252.22351,159.47442 248.76953,162.61914 245.08277,165.40837 243.03343,169.2184 243.54102,172.82617 244.16227,177.76287 247.16094,185.56422 252.50391,186.01953 255.98646,186.47922 256.2961,187.5529 258.03906,188.2168 264.69985,201.15864 282.67385,208.90811 291.61523,216.22852 293.77501,220.35228 293.37784,224.37386 293.08203,226.34961 291.25671,233.2374 289.43079,240.12392 287.60547,247.01172 286.68441,252.63893 291.57486,251.37332 291.83789,250.24805 294.04475,247.38318 297.33876,249.39634 302.04492,232.82227 305.11207,228.7641 306.96509,225.13405 311.00781,222.86328 314.79374,218.31764 311.91058,215.71697 309.76172,214.89844 305.0414,214.06514 302.94602,210.54585 299.30664,207.67773 296.70397,200.10671 283.92834,183.94391 280.96094,181.69336 277.9333,178.1638 273.9687,176.33715 270.17969,174.81836 268.65103,174.20488 269.73862,172.52508 270.71094,171.75781 280.82918,166.24993 289.34377,160.06959 299.05273,153.8457 308.93881,158.0131 320.02332,160.77228 330.82031,162.47852 Z"
     id="path4474"
     inkscape:connector-curvature="0"
     sodipodi:nodetypes="ccccccccccccccccccccccccccccccccccccccccccccccccccccccc" />
  <path
     id="path4504"
     style="font-size:12px;fill:#f9dd16;fill-opacity:0.98742095;fill-rule:evenodd;stroke:#000000;stroke-width:1;stroke-miterlimit:4;stroke-dasharray:none"
     d="M 279.48253,125.32878 C 278.68638,124.60574 294.45793,131.04351 296.62776,131.11662 299.59443,130.03153 311.82073,119.68647 311.82073,119.68647 311.94141,120.69915 312.37482,123.32756 313.5561,123.8827 308.83027,127.71724 304.53749,131.40626 299.81131,135.24009 300.14922,141.31721 299.03999,147.75603 302.1263,154.55654 302.1263,154.55654 298.43728,154.62824 298.43728,154.55654 295.18167,151.30093 294.02348,135.60249 294.02348,135.60249 288.83905,133.28714 283.65393,131.04491 278.4695,128.72957 279.21738,128.24684 279.82009,126.75248 279.48253,125.32878 Z M 283.24738,78.862682 C 283.247,78.863428 281.11126,83.133917 281.11126,83.133917 280.17017,85.471809 280.77048,86.407485 281.18116,87.082797 282.03146,88.583837 282.1811,89.395376 282.81058,90.537475 283.04783,91.964527 280.51651,92.444681 280.48321,92.508824 275.21342,94.336879 272.54052,89.280867 272.51214,89.021833 271.79704,86.36854 271.89059,85.92756 273.50578,85.38083 275.35705,84.955721 276.10085,84.934725 277.01722,84.269475 278.75176,82.969431 279.97644,79.040268 280.01013,78.975378 280.04343,78.911238 280.27034,76.74702 280.27034,76.74702 280.4054,75.702641 279.92307,74.745834 280.45604,73.093711 281.14866,71.497019 281.56538,71.060961 283.20649,70.934854 285.34479,70.741145 287.00491,72.25452 286.26514,74.071509 285.52538,75.888498 283.28069,78.798539 283.24738,78.862682 Z M 354.82884,159.8742 C 353.63942,158.05362 352.43449,154.58157 352.39907,154.51857 352.39872,154.51787 349.99588,150.39169 349.99588,150.39169 348.5555,148.32366 347.44386,148.31332 346.65391,148.28698 344.93234,148.17608 344.17142,147.85671 342.8711,147.7577 341.54725,147.17444 342.5322,144.79369 342.49678,144.73069 343.8542,139.32052 349.54832,139.85403 349.78058,139.97218 352.39208,140.8274 352.70976,141.14723 352.28236,142.79801 351.62389,144.57967 351.234,145.21345 351.28857,146.34451 351.42602,148.50781 354.04232,151.68478 354.07815,151.74852 354.11355,151.81152 355.79987,153.18691 355.79987,153.18691 356.59962,153.87201 357.66432,153.99262 358.75454,155.34354 359.71093,156.79767 359.84746,157.38517 359.05397,158.82723 358.04467,160.72226 355.86916,161.2821 354.82884,159.8742 Z M 253.65501,173.43864 C 253.65571,173.43864 258.43007,173.36634 258.43007,173.36634 260.93862,173.12431 261.49244,172.16039 261.90254,171.48471 262.84294,170.03841 263.49423,169.53166 264.2178,168.44672 265.37501,167.57861 266.96754,169.60393 267.03981,169.60393 271.09047,173.43861 267.83482,178.14056 267.618,178.28511 265.59267,180.14236 265.1582,180.26254 263.92871,179.08095 262.69839,177.63381 262.33702,176.98335 261.32436,176.4766 259.37131,175.53621 255.31981,176.25978 255.2467,176.25978 255.1744,176.25978 253.1491,177.05563 253.1491,177.05563 252.15996,177.41699 251.53304,178.28595 249.82117,178.5742 248.08494,178.69522 247.10518,178.19559 246.6378,177.1279 246.05218,175.7901 246.05877,173.14868 248.01224,172.96801 249.96572,172.78734 253.58274,173.43864 253.65501,173.43864 Z M 220.47929,109.58693 C 220.70541,109.81891 223.42578,111.46232 223.47302,111.37132 223.52022,111.28032 230.59201,109.64924 230.54477,109.74023 230.49757,109.83123 226.58257,114.4847 226.76456,114.57918 226.9458,114.67328 230.85577,119.35459 230.94677,119.40184 231.03707,119.44864 223.54277,118.78577 223.54277,118.78577 L 218.58537,122.7825 217.47512,117.59467 C 217.47512,117.59467 211.23903,115.39479 211.14803,115.34755 211.05783,115.30065 216.48492,113.50698 216.48492,113.50698 L 218.10512,109.27563 C 218.10512,109.27563 220.20395,109.67407 220.47929,109.58693 Z M 361.07915,85.175399 C 360.7612,85.237499 357.8961,86.613126 357.94635,86.702494 357.99655,86.791864 355.48728,93.601671 355.43704,93.512304 355.38674,93.422934 353.63825,87.598478 353.45951,87.698973 353.28151,87.799055 347.2232,88.505758 347.13383,88.556003 347.04523,88.605843 351.70514,82.69922 351.70514,82.69922 L 351.07709,76.362409 356.02547,78.275441 C 356.02547,78.275441 361.28204,74.263359 361.37141,74.21311 361.46001,74.16327 359.9877,79.686269 359.9877,79.686269 L 362.64016,83.359672 C 362.64016,83.359672 361.15708,84.89731 361.07915,85.175399 Z M 309.84565,214.98894 C 309.94734,214.68136 310.15239,211.50975 310.04986,211.50975 309.94734,211.50975 305.24118,205.98506 305.34371,205.98506 305.44623,205.98506 311.38019,207.31539 311.38019,207.11033 311.38019,206.90612 313.73327,201.2789 313.73327,201.17638 313.73327,201.07469 316.59814,208.03139 316.59814,208.03139 L 322.42957,210.58952 318.33689,213.96535 C 318.33689,213.96535 319.25796,220.51363 319.25796,220.61615 319.25796,220.71784 315.16528,216.7277 315.16528,216.7277 L 310.66334,217.23949 C 310.66334,217.23949 310.04986,215.19315 309.84565,214.98894 Z" />
  <path
     id="path4444"
     style="font-size:12px;fill:#f9dd16;fill-opacity:1;fill-rule:evenodd;stroke-width:0.34980261pt"
     d="M 386.86231,91.68191 C 386.65918,91.7373 379.03007,83.709949 379.03007,83.709949 L 383.85597,83.199884 391.74377,90.272617 Z M 291.63807,234.27191 C 291.68937,234.0677 302.17263,231.49119 302.17263,231.49119 302.17263,231.49119 300.57421,235.10087 300.5542,235.75712 L 290.18466,239.43119 Z M 212.0941,84.903573 C 212.25172,85.043168 209.48636,95.299539 209.48636,95.299539 209.48636,95.299539 206.47085,91.937853 206.49448,91.892356 L 208.41373,81.404904 Z"
     inkscape:connector-curvature="0"
     sodipodi:nodetypes="ccccccccccccccc" />
  <path
     id="path4518"
     style="fill:none;fill-opacity:1;fill-rule:evenodd;stroke:#000000;stroke-width:1;stroke-miterlimit:4;stroke-dasharray:none;stroke-opacity:1"
     d="M 393.01565,90.562471 C 389.3349,88.930866 386.27089,85.106746 383.70528,82.564756 M 386.69043,92.02566 377.95347,82.981511 M 352.90116,141.36934 C 349.9484,130.12598 353.12951,119.61915 360.40798,111.33994 364.85573,106.45183 363.63093,99.208549 364.02963,92.394286 364.17607,91.51271 365.05511,88.578335 367.18468,89.094231 368.74105,89.476456 370.11057,90.099385 371.30803,91.017994 373.03912,92.465645 374.05502,94.574867 375.10268,96.43827 M 345.65629,128.29316 C 345.89484,128.10698 346.78575,127.81047 347.39125,127.45558 348.11435,127.08181 350.81742,126.76236 352.09143,127.49708 M 368.98798,89.642885 C 372.01873,88.585323 370.47285,84.205867 370.06841,82.171015 M 397.55045,89.128315 C 394.02211,87.634824 391.27365,84.363512 388.71661,81.978147 M 379.84686,93.721208 C 378.0409,90.126605 376.26606,86.112243 374.76605,82.849257 M 353.77129,108.09861 C 356.78702,108.63902 358.27167,110.69311 359.44547,112.87669 M 366.22938,133.2404 C 360.77308,134.07815 354.87187,131.6004 352.11171,128.99408 M 303.88054,132.02842 C 314.71973,141.56558 330.02176,145.69669 342.02923,146.8097 M 294.48801,141.42145 C 280.92583,146.23406 270.33364,157.41893 264.2178,168.44672 M 288.12849,128.02405 C 290.04671,114.94425 286.86445,102.81227 282.01547,91.755228 M 294.63894,78.745257 C 290.65318,83.499072 285.24565,85.117842 282.56223,89.738314 M 346.24083,164.17469 C 342.47518,155.95452 346.23277,154.74407 342.8711,147.7577 M 248.02863,163.27335 C 252.76345,164.14291 257.31005,169.06891 263.56754,168.97458 M 284.87608,69.312023 C 284.96083,70.347204 284.84932,70.274119 285.1355,71.390221 M 359.57686,161.37504 357.73811,160.11876 M 244.03241,176.42777 246.00599,175.44249 M 264.87078,180.32055 C 268.91221,181.39389 272.99735,183.38979 276.80151,186.09904 285.29573,191.80776 285.2543,199.83674 289.97307,206.21112 293.7083,209.1152 297.9842,211.37684 302.10739,214.0225 302.80407,214.58219 304.93108,216.78652 303.43772,218.38997 299.96425,222.20165 296.72121,221.70333 293.15561,221.69269 M 279.81954,180.41383 C 279.77655,182.51822 279.04347,185.32254 277.35974,186.41334 M 254.1979,186.42258 C 260.21547,183.57236 267.2497,179.89052 269.22229,174.19079 M 302.07545,219.69341 C 301.51197,222.85354 306.54506,223.46408 308.517,224.10879 M 288.15093,244.84276 C 291.56151,242.66129 295.60949,241.75304 299.08788,240.64672 M 292.97679,227.19132 305.16555,228.05944 M 293.59009,197.38456 C 291.27467,199.70565 289.4008,200.06771 286.90601,200.02016 M 291.32273,233.95642 303.48814,230.77304 M 289.592,240.09328 C 293.51261,238.41069 297.44255,237.17652 301.03253,235.99099 M 265.42459,195.92229 C 267.36841,190.75561 272.38952,186.75836 276.01409,185.62973 M 363.45078,147.6821 C 363.40338,147.5979 354.45397,142.06489 354.45397,142.06489 351.28958,140.30649 348.88761,139.92039 345.42539,140.58032 M 271.97157,85.645759 C 269.15674,88.738001 266.19277,91.072192 262.03537,93.200065 253.73207,97.619746 245.41091,94.71927 237.42665,95.994434 233.12812,97.971355 229.15062,100.72413 224.90267,103.16444 224.08492,103.52485 221.14846,104.39689 220.41349,102.33267 219.38684,98.090569 220.64043,94.728115 222.22015,91.685334 M 265.00065,98.869996 C 263.13668,97.855075 260.98272,95.877525 260.78734,93.856125 M 271.47381,73.361722 C 271.15422,77.651426 271.65407,82.377894 272.13304,86.29773 272.51214,89.021833 273.65756,90.521436 275.40671,92.332274 M 220.10535,100.61143 C 217.16089,99.050344 214.81053,101.99127 213.04149,103.71223 M 203.93997,76.423132 C 204.62338,80.193136 203.25946,84.770625 202.66466,88.216603 M 217.36265,89.190221 C 215.37754,92.556334 213.11842,96.101982 211.01994,99.410612 M 243.59368,103.27171 C 243.02295,100.53221 243.28197,97.74492 244.54934,95.778911 M 212.18044,84.407706 209.40012,96.67151 M 207.88913,80.116375 C 208.26781,84.353185 206.67903,88.290037 205.90062,92.087787 M 257.86963,78.948258 C 261.55946,83.054135 262.70383,89.463147 262.03537,93.200065"
     inkscape:connector-curvature="0"
     sodipodi:nodetypes="ccccccccccccccccccccccccccccccccccccccccccccccccccccccccccccccccccccccccccccccccccccccccccccc" />
</svg>
