<?xml version="1.0" encoding="UTF-8" standalone="no"?>
<svg
   xmlns:dc="http://purl.org/dc/elements/1.1/"
   xmlns:cc="http://creativecommons.org/ns#"
   xmlns:rdf="http://www.w3.org/1999/02/22-rdf-syntax-ns#"
   xmlns:svg="http://www.w3.org/2000/svg"
   xmlns="http://www.w3.org/2000/svg"
   xmlns:sodipodi="http://sodipodi.sourceforge.net/DTD/sodipodi-0.dtd"
   xmlns:inkscape="http://www.inkscape.org/namespaces/inkscape"
   viewBox="0 0 900 600"
   version="1.1"
   id="svg138"
   sodipodi:docname="ic_flag_eg.svg"
   inkscape:version="0.92.1 r15371">
  <metadata
     id="metadata144">
    <rdf:RDF>
      <cc:Work
         rdf:about="">
        <dc:format>image/svg+xml</dc:format>
        <dc:type
           rdf:resource="http://purl.org/dc/dcmitype/StillImage" />
        <dc:title></dc:title>
      </cc:Work>
    </rdf:RDF>
  </metadata>
  <defs
     id="defs142" />
  <sodipodi:namedview
     pagecolor="#ffffff"
     bordercolor="#666666"
     borderopacity="1"
     objecttolerance="10"
     gridtolerance="10"
     guidetolerance="10"
     inkscape:pageopacity="0"
     inkscape:pageshadow="2"
     inkscape:window-width="1225"
     inkscape:window-height="915"
     id="namedview140"
     showgrid="false"
     inkscape:zoom="0.70444444"
     inkscape:cx="199.21399"
     inkscape:cy="341.74281"
     inkscape:window-x="0"
     inkscape:window-y="0"
     inkscape:window-maximized="0"
     inkscape:current-layer="svg138" />
  <rect
     width="900"
     height="600"
     fill="#000"
     id="rect2" />
  <rect
     width="900"
     height="400"
     fill="#fff"
     id="rect4" />
  <rect
     width="900"
     height="200"
     fill="#ce1126"
     id="rect6" />
  <path
     style="fill:#ffffff;stroke:#c09300;stroke-width:1.27030003;stroke-linejoin:round"
     inkscape:connector-curvature="0"
     id="path8"
     d="M 450.81,302.4 519.298,365.979 514.4221,250.509 C 513.70572,233.009 498.4981,237.024 487.4511,243.3367 476.2601,250.509 463.4931,250.509 450.0051,245.7737 436.5201,250.509 423.7521,250.509 412.5611,243.3367 401.5151,237.0244 386.3091,233.0087 385.5911,250.509 L 380.7122,365.979 450.8102,302.4 Z" />
  <path
     style="fill:#c09300;stroke:none"
     id="path4639"
     d="M 472.2374,321.377 478.6918,327.6899 476.2526,266.4379 C 474.6766,266.43729 470.6589,266.43729 470.29945,266.07865 Z M 481.8463,332.507 488.1595,337.6263 485.0032,263.2823 C 483.4241,263.99868 479.4842,265.73558 478.695,265.73563 Z M 491.3145,340.062 497.7701,346.3712 493.7524,256.9662 C 492.1776,258.5444 488.16,261.6998 488.16,261.6998 Z M 500.9271,348.485 508.9594,356.7054 504.0822,248.2154 C 502.5031,249.7924 496.91005,254.5279 496.91005,254.5279 Z M 511.2642,358.81 519.2989,365.978 514.4205,250.508 C 512.1256,248.9298 507.35447,246.52227 506.56582,246.52182 Z M 427.7626,321.377 421.3082,327.6899 423.7474,266.4379 C 425.3234,266.43729 429.3411,266.43729 429.70055,266.07865 Z M 418.1537,332.507 411.8405,337.6263 414.9968,263.2823 C 416.5759,263.99868 421.31,265.71995 421.31,265.71995 Z M 408.6855,340.062 402.2299,346.3712 406.2476,256.9662 C 407.8224,258.5444 411.84,261.6998 411.84,261.6998 Z M 399.0729,348.485 391.0406,356.7054 395.9178,248.2154 C 397.4969,249.7924 403.08995,254.5279 403.08995,254.5279 Z M 388.7358,358.81 380.7011,365.978 385.5795,250.508 C 387.8744,248.9298 392.82429,246.4909 393.51312,246.49045 Z"
     inkscape:connector-curvature="0"
     sodipodi:nodetypes="cccccccccccccccccccccccccccccccccccccccccccccccccc" />
  <path
     d="M 450,393.81 C 469.943,393.81 489.024,392.2324 500.213,389.076 504.9484,388.2172 504.9484,385.7784 504.9484,382.6207 509.6838,381.0431 507.2433,375.4503 510.5427,375.4503 507.2433,376.31274 506.5269,369.8562 502.5098,370.7187 502.5098,365.1222 496.9143,364.4058 492.1798,365.981 482.7103,369.1386 465.9248,369.8562 449.9998,369.8562 434.0758,369.13862 417.4328,369.13862 407.8208,365.981 403.0866,364.4058 397.4938,365.12219 397.4938,370.7187 393.4755,369.85625 392.7584,376.3128 389.4597,375.4503 392.7585,375.4503 390.31924,381.0431 395.054,382.6207 395.054,385.7783 395.054,388.2172 399.9318,389.076 410.9768,392.2324 430.0598,393.81 449.9998,393.81 Z"
     id="path40"
     inkscape:connector-curvature="0"
     style="fill:#ffffff;stroke:#c09300;stroke-width:2.37770009;stroke-linecap:round;stroke-linejoin:round" />
  <g
     id="g106"
     style="fill:#c09300;stroke:none;stroke-width:1.27049994;stroke-linecap:round;stroke-linejoin:round">
    <path
       d="M 441.19,379.84 C 438.04001,379.84046 442.07758,385.20782 438.6274,384.1525 438.28584,382.23696 436.86608,379.83964 435.6274,382.7463 438.74323,385.57236 435.04792,388.25287 433.00232,388.6131 436.97772,390.82219 438.00855,384.58426 441.9082,386.43445 444.35447,386.45684 446.60176,386.50806 447.61493,388.93712 450.48886,390.43191 450.48932,385.27512 453.54851,386.6746 457.40032,387.97375 456.89795,383.86898 455.9712,381.5901 453.55029,381.25601 452.34174,383.69299 451.16946,384.80049 451.10292,380.29286 445.32244,382.79061 442.30055,381.5919 441.60187,381.11188 442.35333,379.71946 441.19,379.84 Z M 443.19,383.5275 C 445.81912,383.68132 450.62179,382.9415 448.90875,387.02745 447.32382,387.08423 448.59754,383.95246 446.01801,384.96656 444.98711,385.10589 439.08921,384.69204 443.19,383.5275 Z M 454.471,383.7775 C 456.23756,385.73497 451.65772,384.70899 454.471,383.7775 Z M 461.01,388.74 C 460.09138,386.08047 463.61165,388.47312 464.62456,387.18531 466.3414,388.90106 463.60129,389.08413 463.00096,388.40787 462.39972,388.6829 461.62519,389.50691 461.01,388.74 Z M 467.86,388.29 C 470.02542,387.29233 471.54295,383.98079 468.72469,382.31082 470.0564,377.35906 473.10896,384.38583 472.03753,386.53839 471.11193,387.89155 469.51214,388.80667 467.86,388.29 Z M 490.5,370.94 C 488.20401,370.15972 486.67099,373.32622 489.39707,373.18561 492.95075,371.05559 492.38106,376.9532 493.3125,378.94 493.81114,382.42274 489.19684,376.4382 488.31625,380.2658 486.46395,383.30816 485.48619,377.53355 482.9063,378.28375 483.27791,375.8034 480.45276,374.43337 480.52623,377.41761 482.60057,379.12258 477.82695,380.31931 478.875,382.72135 476.69867,383.54299 477.67503,378.08647 474.89593,381.00303 472.44766,382.38932 473.04493,386.28538 476.10638,385.08356 476.87548,386.83479 471.46965,387.71738 475.46865,387.65875 477.92118,386.48832 479.06977,382.71677 482.52598,384.478 484.09239,388.08704 487.15608,385.03711 487.64921,382.88772 491.13428,385.45093 493.39727,380.31729 497.19161,380.68839 499.677,381.00611 500.58544,378.38841 497.8392,378.36182 494.4513,381.08307 494.10197,375.33051 493.76457,373.16482 493.43824,371.66162 492.00291,370.76014 490.5,370.94 Z M 483.6875,380.4088 C 487.28181,382.11593 481.90892,382.60223 483.6875,380.4088 Z M 490.2187,380.75255 C 493.11057,382.17392 487.52182,382.1718 490.2187,380.75255 Z M 481.2812,380.84625 C 484.23044,383.11522 478.49766,382.88301 481.2812,380.84625 Z M 475.7812,382.28375 C 477.41613,383.98743 473.20658,383.16738 475.78115,382.28375 Z M 485.0312,383.47125 C 487.19437,384.89257 482.20215,384.12178 485.0312,383.47125 Z M 431.25,374.66 C 428.05072,375.50694 430.79044,379.01335 429.34422,381.6014 429.56568,383.01022 428.26206,387.62488 427.62495,384.2539 427.7366,383.09564 423.80988,382.24135 426.76749,381.6846 429.79017,381.2851 425.37099,378.33503 425.46624,376.77294 423.484,375.81752 422.17256,378.84297 420.30788,379.42625 419.547,380.94324 424.09134,381.08029 421.18791,382.35515 417.58812,384.03544 419.08668,375.9421 416.59924,379.42625 417.68104,382.02186 416.28887,384.68327 413.46274,384.864 416.44434,387.127 418.60889,382.02108 421.89978,384.06151 422.9693,383.26316 424.0552,382.34316 424.43377,384.38308 426.97048,383.98571 425.716,388.85561 428.84309,387.36523 431.39268,385.44199 430.62147,381.46553 431.2897,378.60716 431.11878,377.52456 432.42288,375.09301 431.25,374.66 Z M 424.4688,378.8162 C 426.49701,380.42726 423.56547,381.25136 423.16717,379.79857 423.66525,379.56495 423.90951,378.9254 424.4688,378.8162 Z M 461.84,375.69 C 458.57988,376.97585 463.10541,379.99687 461.03187,382.05691 458.00773,382.72833 457.90036,388.68094 461.93687,386.34686 464.77836,386.28271 469.42842,386.62886 467.31061,382.39114 468.41255,379.73939 464.571,379.97838 465.18668,381.86875 468.21684,383.99352 462.43058,386.37428 463.1524,382.69015 462.55934,380.641 463.31699,377.03806 461.84,375.69 Z M 461.215,383.94 C 462.7869,385.0537 458.96689,385.03015 461.215,383.94 Z M 432.14,385.49 C 431.77402,382.25711 432.94731,378.43839 433.28088,375.03862 436.73299,376.0747 433.40496,379.09747 433.84844,381.87557 433.58361,382.90319 434.18867,386.68377 432.14,385.49 Z M 410.22,384.51 C 407.87661,382.40888 413.44942,382.7986 410.89708,384.54104 L 410.21998,384.50997 Z M 495.28,383.36 C 494.12077,380.44356 499.41034,382.63369 496.0985,383.58104 L 495.59375,383.5506 495.28,383.36002 Z M 406.17,383.28 C 403.37982,380.46064 410.01561,382.0284 406.17,383.28 Z M 403.12,382.36 C 402.24133,378.47109 407.18585,383.32923 403.12,382.36 Z M 407.75,370.09 C 406.68109,371.48094 401.88013,369.70604 403.75813,372.10525 404.93946,371.80016 407.25847,370.88403 405.95412,373.21462 406.50144,376.56566 399.64413,375.86795 401.80581,379.45773 405.75171,380.50042 409.70276,381.88023 413.75026,382.39231 414.46946,380.93345 416.0694,377.50021 414.875,376.52755 413.01943,377.20231 412.61897,377.75061 413.17475,379.5748 412.14108,381.79894 408.23276,379.61412 410.2812,377.37135 411.86247,374.72785 409.28768,375.04178 408.17832,376.51122 410.46163,379.60676 404.03155,380.20268 406.27475,376.77183 406.45321,374.69282 408.68161,371.84442 407.75,370.09 Z M 404.1562,377.34 C 405.5187,378.26063 402.16115,378.00463 404.1562,377.33995 Z M 458.63,380.98 C 455.87732,377.27223 462.97345,380.23183 458.63,380.98 Z M 458.27,378.5 C 456.24312,374.92166 462.5786,378.14027 458.27,378.5 Z M 403.34,374.58 C 400.71812,372.91203 406.13767,372.05904 404.02045,374.45552 L 403.74287,374.5812 403.34004,374.57998 Z"
       id="path104"
       inkscape:connector-curvature="0" />
  </g>
  <path
     id="path118"
     style="fill:#ffffff;stroke:#c09300;stroke-width:1.21790004"
     d="M 462.31,253.09 461.40822,249.522 C 463.54894,251.51381 469.83792,251.7569 469.83792,251.7569 465.83892,249.9913 461.84002,236.6609 462.30992,226.0359 462.74182,215.3719 460.78152,211.1769 459.21282,209.6079 457.21332,207.6084 450.78302,205.844 446.54882,205.6088 444.15662,205.49119 444.54932,207.4124 444.54932,207.4124 440.11852,206.2754 435.68872,205.844 433.68832,207.1771 431.80632,208.4318 431.41432,214.7049 432.78654,213.6071 436.11914,210.941 439.02064,213.37186 441.02004,216.2732 442.78444,218.8217 442.66674,226.0359 440.11826,234.4652 437.45216,243.3261 430.15946,252.1872 430.15946,252.1872 434.11946,252.1872 439.68706,248.6585 439.68706,248.6585 L 438.35396,254.1868 C 442.54906,252.1872 445.88176,249.0899 445.88176,249.0899 L 449.88096,253.285 C 451.21396,251.5207 453.88006,249.0899 453.88006,249.0899 456.5029,250.55664 458.32554,251.9973 462.30976,253.0891 Z M 490.6,363.545 464.345,367.5627 453.157,316.6387 471.52,295.83985 Z M 409.4,363.545 435.655,367.5627 446.843,316.6387 428.48,295.83985 Z"
     inkscape:connector-curvature="0"
     sodipodi:nodetypes="ccccccccccccccccccccccccccccc" />
  <path
     id="path126"
     style="fill:none;stroke:#c09300;stroke-width:1.27040005"
     d="M 456.74,228.71 C 456.74,228.71 457.64178,244.001 461.4057,249.529 M 452.78,227.81 C 452.78,227.81 452.78,246.002 453.8778,249.099 M 449.65,227.14 C 449.65,227.14 448.78748,243.763 445.8861,249.096 M 446.12,227.57 C 446.12,227.57 443.8851,243.998 439.69,248.664 M 485.01,361.97 479.7103,354.5263 476.2575,365.9833 471.5233,357.951 468.3658,367.5646 M 455.91,332.36 464.6277,345.601 M 461.9088,358.817 464.699,345.619 467.1346,332.196 472.9752,340.1051 475.5365,330.986 483.7112,339.3707 479.5537,354.6217 473.8162,345.1868 470.6605,354.7991 464.7702,345.637 M 461.91,322.95 457.6,337.825 M 469.24,304.92 466.6443,329.266 458.7538,318.938 M 477.83,318.94 475.5345,324.5328 463.1295,312.6848 M 414.99,361.97 420.2897,354.5263 423.7425,365.9833 428.4767,357.951 431.6342,367.5646 M 444.09,332.36 435.3723,345.601 M 438.0912,358.817 435.301,345.619 432.8654,332.196 427.0248,340.1051 424.4635,330.986 416.2888,339.3707 420.4463,354.6217 426.1838,345.1868 429.3395,354.7991 435.2298,345.637 M 438.09,322.95 442.4,337.825 M 430.76,304.92 433.3557,329.266 441.2462,318.938 M 422.17,318.94 424.4655,324.5328 436.8705,312.6848"
     inkscape:connector-curvature="0" />
  <path
     id="path130"
     style="fill:#c09300;stroke:#c09300;stroke-width:0.35420001"
     d="M 432.44,209.26 C 432.71439,208.35822 433.1457,207.5349 433.6946,207.182 435.6942,205.849 440.1246,206.28023 444.5546,207.41724 444.5546,207.41724 444.16255,205.49604 446.5542,205.61364 450.7886,205.84887 457.2192,207.61324 459.2182,209.61284 459.68866,210.12257 460.2376,210.86754 460.7081,212.00444 H 460.6297 C 459.64955,210.63234 456.8657,210.71074 456.1989,210.78904 455.1403,210.9066 454.4738,210.86744 453.0624,211.22024 452.39585,211.37717 451.3764,211.57314 450.8275,212.00446 450.39619,212.35736 450.0434,213.65116 449.3769,213.65116 448.3183,213.65116 448.39671,213.37667 448.1222,213.06302 447.76941,212.63171 447.57332,212.00442 447.22042,212.04362 446.12262,212.2397 444.35832,211.37718 442.12352,209.61282 439.88912,207.84842 439.02642,207.41722 436.12512,207.61322 433.26292,207.84846 432.36122,209.45592 432.36122,209.45592 L 432.43962,209.25994 Z M 442.08,219.61 C 441.88402,218.1592 441.53112,217.0222 441.0214,216.2772 439.0218,213.3759 436.1205,210.9451 432.7879,213.6111 432.7879,213.6111 433.9249,210.0824 436.3557,209.9648 438.2377,209.84713 442.5113,211.3763 446.2753,217.8063 446.2753,217.8063 443.4916,217.17891 442.8251,217.767 441.5705,218.8649 442.08015,219.6098 442.08015,219.6098 Z M 462.7726,358.815 459.6151,361.9702 456.3158,359.5314 450.864,320.5134 453.1595,359.5314 450.0026,363.5472 446.8463,359.5314 449.1425,320.5134 443.6919,359.5314 440.3895,361.9702 437.235,358.815 446.8463,315.06 H 453.16005 Z" />
  <circle
     cx="448.82401"
     cy="210.672"
     r="1.176"
     id="circle132"
     style="fill:#ffffff;stroke:none;stroke-width:1.27040005" />
  <g
     id="g4757">
    <path
       d="M 449.98,327.23 C 482.622,302.124 479.823,265.347 479.823,265.347 478.9617,265.51923 478.1435,265.60535 477.2822,265.60535 470.4351,265.60535 454.1042,261.68825 450.2942,256.71275 446.213,261.21615 429.5242,265.60535 422.7202,265.60535 421.85891,265.60535 420.9977,265.51925 420.1795,265.347 420.1795,265.347 417.3373,302.123 449.9795,327.23 Z"
       id="path110"
       inkscape:connector-curvature="0"
       style="fill:#ffffff;stroke:#c09300;stroke-width:1.15020001" />
    <path
       d="M 477.22,268.04 C 476.93903,268.0576 476.6567,268.0664 476.3723,268.0664 470.1668,268.0664 455.7533,264.8826 450.1973,260.1092 444.3778,264.5187 429.7263,268.0664 423.6213,268.0664 423.33495,268.0664 423.05205,268.0314 422.77165,267.9799 422.75745,269.3707 422.82975,270.8123 422.91613,272.1235 423.23913,277.0243 424.09873,281.9425 425.40373,286.6755 429.51183,301.5705 437.91973,314.2285 449.97573,323.8305 462.04173,314.2205 470.45973,301.5505 474.57673,286.6445 475.88383,281.9126 476.74613,276.9948 477.07223,272.0945 477.15753,270.81 477.22939,269.4027 477.21968,268.04 Z"
       id="path112"
       inkscape:connector-curvature="0"
       style="fill:#ffffff;stroke:#c09300;stroke-width:0.91570002" />
    <path
       sodipodi:nodetypes="ccccsccsccsccs"
       inkscape:connector-curvature="0"
       d="M 460,314.19 C 466.794,306.2687 471.733,296.984 474.594,286.628 475.901,281.8963 476.7367,276.9967 477.0628,272.097 477.1481,270.8126 477.22876,269.3971 477.21905,268.0345 476.9381,268.0521 476.65968,268.0657 476.3753,268.0657 472.6451,268.0657 460.00015,264.94035 460.00015,264.94035 Z M 423.63,268.0612 C 423.34367,268.0612 423.06664,268.0189 422.78625,267.9675 422.77205,269.3582 422.85615,270.8126 422.9425,272.1237 423.26548,277.0243 424.1063,281.9232 425.4113,286.6547 428.1763,296.6797 432.9176,305.6867 439.3803,313.4357 L 439.38015,265.02985 C 439.38015,265.02985 427.151,268.0612 423.63,268.0612 Z"
       style="fill:#c09300;stroke:none"
       id="path116" />
  </g>
  <g
     id="g74"
     style="fill:#ffffff;stroke:#c09300;stroke-width:0.8915;stroke-linecap:round;stroke-linejoin:round">
    <g
       id="g4770">
      <path
         inkscape:connector-curvature="0"
         d="M 455.12,365.98 C 450.3877,365.98 450.857,372.2941 453.1526,375.4499 453.1526,373.1547 457.1684,372.2941 457.1684,370.7183 457.16901,368.2764 453.5422,368.2764 455.12,365.98 Z M 477.83,375.06 C 477.83,371.9072 474.6768,372.2949 474.6768,369.1385 474.6768,367.5615 475.53633,365.1214 477.1148,365.1214 478.692,365.1214 480.2711,366.699 480.2711,368.2766 480.98881,371.4336 477.8301,371.9078 477.8301,375.06 Z M 496.91,360.39 C 501.7877,359.52877 504.0841,365.1216 502.5053,368.2768 501.78711,366.6992 498.4883,366.6992 497.7713,365.1216 496.91006,362.6846 498.48889,362.6846 496.91006,360.39 Z M 444.88,365.98 C 449.6105,365.98 449.1418,372.2941 446.8456,375.4499 446.8456,373.1547 442.8292,372.2941 442.8292,370.7183 442.8292,368.2764 446.4554,368.2764 444.88,365.98 Z M 422.17,375.06 C 422.17,371.9072 425.3245,372.2949 425.3245,369.1385 425.3245,367.5615 424.46557,365.1214 422.8877,365.1214 421.3092,365.1214 419.7302,366.699 419.7302,368.2766 419.0125,371.4336 422.17,371.9078 422.17,375.06 Z M 403.09,360.39 C 398.2129,359.52877 395.9177,365.1216 397.4972,368.2768 398.21357,366.6992 401.5136,366.6992 402.2318,365.1216 403.09,362.6846 401.5136,362.6846 403.09,360.39 Z"
         style="fill:#ffffff;stroke:#c09300;stroke-width:1.27049994;stroke-linecap:round;stroke-linejoin:round"
         id="path56" />
      <path
         inkscape:connector-curvature="0"
         d="M 458.039,364.40123 C 454.7384,364.40123 452.4429,369.85163 458.75611,370.71413 464.35161,371.42928 473.10311,370.71413 477.83411,369.85168 481.85301,369.13409 490.60311,367.55708 496.19811,365.97648 501.79481,363.54008 497.77841,358.80848 494.62091,359.52428 489.74311,361.10128 483.43091,362.68068 477.04701,363.54095 470.6631,364.40123 463.492,365.1176 458.039,364.40123 Z M 442.115,364.40123 C 445.2683,364.40123 447.5644,369.85163 441.25243,370.71413 435.65933,371.42928 426.90743,370.71413 422.17243,369.85168 418.15533,369.13409 409.40443,367.55708 403.80843,365.97648 398.21353,363.54008 402.23243,358.80848 405.38563,359.52428 410.26463,361.10128 416.57763,362.68068 422.96101,363.54095 429.3444,364.40123 436.518,365.1176 442.115,364.40123 Z"
         style="fill:#ffffff;stroke:#c09300;stroke-width:1.27049994;stroke-linecap:round;stroke-linejoin:round"
         id="path44" />
      <path
         sodipodi:nodetypes="cccccccccccccccccccccccc"
         inkscape:connector-curvature="0"
         d="M 473.0953,367.56 467.92766,367.12878 C 468.36002,366.69755 471.5183,366.69755 473.0953,367.56 Z M 464.3453,368.27516 459.53735,367.55758 C 460.3294,367.56 463.4852,367.56 464.3453,368.27516 Z M 481.8547,365.9852 487.02234,364.4076 C 486.58998,364.41 483.4329,365.12639 481.8547,365.9852 Z M 495.34,361.97 C 493.7624,361.97 491.4654,362.68758 490.6047,363.547 Z M 426.9065,367.56 432.06885,367.12878 C 431.6412,366.69755 428.4835,366.69755 426.9065,367.56 Z M 435.6572,368.27516 440.4598,367.55758 C 439.6724,367.56 436.516,367.56 435.6572,368.27516 Z M 418.1459,365.9852 412.97887,364.4076 C 413.41184,364.41 416.5683,365.12639 418.1459,365.9852 Z M 409.4053,363.547 405.45765,361.9685 C 406.25,361.97 408.6877,362.68758 409.4053,363.547 Z"
         id="path72" />
    </g>
  </g>
</svg>
