<?xml version="1.0" encoding="UTF-8" standalone="no"?>
<svg
   xmlns:dc="http://purl.org/dc/elements/1.1/"
   xmlns:cc="http://creativecommons.org/ns#"
   xmlns:rdf="http://www.w3.org/1999/02/22-rdf-syntax-ns#"
   xmlns:svg="http://www.w3.org/2000/svg"
   xmlns="http://www.w3.org/2000/svg"
   xmlns:sodipodi="http://sodipodi.sourceforge.net/DTD/sodipodi-0.dtd"
   xmlns:inkscape="http://www.inkscape.org/namespaces/inkscape"
   viewBox="0 0 750 500"
   version="1.1"
   id="svg6"
   sodipodi:docname="ic_flag_sa.svg"
   inkscape:version="0.92.1 r15371">
  <metadata
     id="metadata12">
    <rdf:RDF>
      <cc:Work
         rdf:about="">
        <dc:format>image/svg+xml</dc:format>
        <dc:type
           rdf:resource="http://purl.org/dc/dcmitype/StillImage" />
        <dc:title></dc:title>
      </cc:Work>
    </rdf:RDF>
  </metadata>
  <defs
     id="defs10" />
  <sodipodi:namedview
     pagecolor="#ffffff"
     bordercolor="#666666"
     borderopacity="1"
     objecttolerance="10"
     gridtolerance="10"
     guidetolerance="10"
     inkscape:pageopacity="0"
     inkscape:pageshadow="2"
     inkscape:window-width="1719"
     inkscape:window-height="787"
     id="namedview8"
     showgrid="false"
     inkscape:zoom="1.1954819"
     inkscape:cx="299.60513"
     inkscape:cy="263.9165"
     inkscape:window-x="0"
     inkscape:window-y="0"
     inkscape:window-maximized="0"
     inkscape:current-layer="svg6" />
  <rect
     width="750"
     fill="#006c35"
     height="500"
     id="rect2" />
  <path
     style="fill:#ffffff;fill-rule:evenodd"
     d="M 323.28,118.09 C 311.00215,119.65817 317.62333,142.86473 323.64415,128.10429 314.3332,129.87769 326.74865,120.00048 323.28,118.09 Z M 357.342,118.2775 C 343.82903,128.71677 366.34535,151.21625 347.47525,158.56784 330.56141,159.05935 348.14167,119.93915 330.29996,131.93543 323.4721,136.26283 320.99021,168.18661 314.48568,149.10673 314.06528,143.77576 310.16605,121.92063 307.62829,138.66325 301.189,151.82387 321.30335,181.68668 327.49801,156.8026 328.14169,147.06533 334.23416,144.61985 332.37548,156.15328 331.02627,174.05314 351.86733,173.42451 359.26256,161.45218 366.01468,171.17589 379.68542,171.55169 384.31411,158.79575 388.88339,157.59663 384.93474,170.40571 392.53505,161.51992 400.98258,150.41692 393.7725,151.22868 385.08788,153.67167 379.79828,146.10724 376.96097,135.50742 384.06038,131.72833 382.22264,115.97049 362.43304,121.36633 368.72534,135.25197 376.56734,141.01214 377.34215,165.49818 364.93682,154.3685 359.70895,143.06686 366.027,127.84321 357.342,118.2775 Z M 346.562,119.1175 C 338.78844,122.52504 342.31925,145.89922 347.68145,129.74078 347.94283,126.88016 350.87739,120.43438 346.562,119.1175 Z M 386.374,119.83625 C 377.97165,131.87219 395.7025,143.25469 400.83168,153.78863 413.04754,165.91752 410.94342,183.64835 412.22805,199.45942 414.44321,210.86008 409.31006,231.14836 414.39719,237.02179 426.48724,226.25421 419.81365,208.2479 420.68394,194.12879 420.17614,186.75155 419.52055,179.52018 424.38763,190.23586 431.01544,199.69934 436.61263,215.3302 442.82579,221.51938 447.69526,203.48316 432.76909,189.00363 425.40862,173.98884 418.60209,167.15794 413.79736,146.89304 419.68715,144.02275 417.91483,128.86757 401.67215,114.24047 401.84125,131.20079 397.51782,126.97561 392.63604,120.92172 386.374,119.83625 Z M 504.374,121.05505 C 494.76635,123.24904 506.717,151.86624 498.06648,136.25922 505.33512,133.95258 480.65571,111.05013 485.20097,129.14515 485.69995,148.73467 512.1752,158.28863 506.60732,180.00991 505.02467,194.10759 514.79857,216.93919 500.79223,225.1934 494.89251,220.0399 487.48646,205.29675 481.19053,219.74264 478.14139,228.61052 468.95636,250.55183 462.35206,231.35192 459.96248,223.51446 462.40412,207.52787 457.25858,223.88892 449.73181,239.84536 477.78357,264.88612 481.02567,238.99645 481.22178,223.25153 491.91187,229.78865 498.95309,236.61003 520.81569,240.49748 517.8344,211.17401 517.25366,197.17126 517.35443,188.61178 514.35963,170.79365 522.27698,186.18304 529.79733,199.18704 525.98776,216.14779 526.99945,230.83635 540.31572,230.03467 531.68564,195.21253 540.80221,214.87485 544.20482,221.08519 551.37484,235.61734 550.2996,219.934 546.81911,201.16012 529.3773,188.04782 531.66702,167.12972 527.76718,155.80522 530.06293,146.81671 530.63847,137.95345 529.33459,129.79486 519.86812,111.97237 516.51478,129.27561 517.6397,142.00333 523.95773,164.9757 522.32552,171.43659 515.85513,165.04047 505.87457,144.20505 515.49409,142.37372 514.20182,135.34413 508.61125,126.83719 504.374,121.05505 Z M 199.844,121.36755 C 192.37094,123.53104 203.52487,135.54152 202.71729,138.73319 206.14243,134.0181 207.18166,122.9222 199.844,121.36755 Z M 546.754,121.40755 C 538.14809,136.30147 547.99686,154.32573 547.77761,170.52689 549.33275,189.66235 552.97219,209.13516 550.81008,228.24357 549.00297,241.53441 528.18179,241.20519 527.43427,252.39133 543.78896,256.05944 560.5233,242.56363 559.5039,225.53255 560.42382,197.61314 558.86355,169.6031 554.0976,142.09535 566.03544,141.10157 548.01332,126.2375 546.754,121.40755 Z M 458.442,121.8763 C 448.67809,136.84274 458.24815,155.17737 459.83331,171.33639 463.48196,191.58462 466.29607,212.12809 465.5983,232.7511 478.57851,223.17289 471.83242,203.92244 471.3943,190.21398 469.93839,174.98457 466.52709,159.63937 465.58502,144.59785 478.16701,146.06045 458.32953,126.59292 458.442,121.8763 Z M 243.412,122.47005 C 240.46942,130.26411 238.91573,119.48913 235.3419,125.75005 224.65158,117.79232 238.58491,144.54778 245.29791,129.00219 245.35485,126.97747 246.69131,122.47498 243.412,122.47005 Z M 298.6,122.53255 C 283.46662,125.47851 304.83983,138.32804 290.58146,142.54641 289.73679,145.96535 268.87947,154.83129 276.47835,156.60683 289.84167,160.13586 296.07251,145.21009 304.35703,137.89918 297.83012,134.547 313.32234,123.10847 298.6,122.53255 Z M 442.85,122.59505 C 433.38646,135.33641 441.66408,151.60813 441.51905,165.92249 442.95663,184.8179 445.48767,203.75795 445.83498,222.66015 440.56528,234.25079 425.7087,240.06936 417.61031,247.21772 431.24293,261.18393 447.83362,238.7447 452.0365,225.9194 455.0359,206.61112 452.67391,186.62102 450.61427,167.23085 449.09316,157.42657 445.67565,147.03669 451.15409,140.1744 449.24777,134.05582 446.74318,127.6421 442.85,122.59505 Z M 219.38,123.44505 C 209.27825,133.98948 226.69093,155.1739 217.8171,164.99329 212.86358,158.55989 219.97476,125.61383 204.97932,143.09222 202.2507,149.1162 199.03989,175.66229 194.29297,156.6177 194.53244,149.80387 188.22909,132.96837 188.57403,149.05316 183.30996,159.92449 197.32233,189.42052 204.57106,167.9697 202.53799,158.66296 210.43135,142.71564 209.2237,159.64831 208.83727,167.8307 208.00114,180.87618 219.98835,179.69015 226.5352,188.62277 220.62267,205.08579 225.14751,213.93122 237.68263,203.85124 228.10351,184.69803 231.38813,171.25328 241.92497,178.82124 262.92417,172.74273 256.17547,155.66395 255.66924,149.21858 249.53804,143.14268 256.4737,143.0076 254.42206,125.77893 234.73606,133.45361 244.38597,147.21637 251.52546,153.23345 251.23973,170.21408 240.7393,158.89226 235.5822,153.6936 241.32588,131.79772 228.91125,134.1634 221.53316,141.52135 236.05238,158.08862 229.14245,159.93853 222.61248,149.40269 230.71741,130.63471 219.38,123.44505 Z M 261.536,123.50755 C 247.19367,133.07602 263.24288,156.99124 261.71729,172.1582 265.50308,178.66937 262.387,193.98224 254.87811,181.74797 238.54582,167.35137 225.66866,210.0058 248.0051,204.1325 262.59954,193.15211 248.18978,218.97071 240.5358,218.7572 223.9663,229.81467 219.17382,210.72987 217.89952,198.90081 208.15867,208.85756 213.00381,233.54711 230.05048,233.7364 247.65155,234.75666 259.48246,217.11636 260.9106,201.1944 268.39415,195.19217 261.60184,219.21621 258.41381,222.81859 250.7657,236.89731 229.86,245.19593 216.29813,234.64675 211.57801,229.17682 211.65229,201.89389 206.06695,221.2262 200.75791,237.76755 214.96526,255.17241 232.4331,250.49977 253.77568,248.06399 274.37046,229.55725 271.45922,206.75281 270.14049,199.07242 269.04042,193.28627 277.73709,199.13187 285.754,190.64124 303.42148,202.73935 303.02927,185.44901 307.8651,174.46477 297.29844,173.37234 296.4726,183.91495 292.62249,180.80275 286.64566,174.21825 284.0663,185.19625 275.21909,192.28551 280.01757,172.96306 270.8163,180.665 272.18401,169.17754 260.05372,147.7028 271.8788,144.44675 268.80021,138.43711 268.20501,126.5696 261.536,123.50755 Z M 425.876,123.60125 C 417.01051,126.36463 431.03326,140.76992 429.22409,144.63553 433.53719,138.47611 433.81668,126.82538 425.876,123.60125 Z M 297.846,128.10125 C 308.04452,133.55067 292.30337,134.98735 297.846,128.10125 Z M 535.346,134.25745 C 527.33345,137.99178 540.11671,152.58603 538.40974,157.06649 542.24655,150.43447 542.44917,138.49353 535.346,134.25745 Z M 404.036,137.50745 C 407.70046,146.84929 402.74537,144.0348 401.24668,137.73503 L 404.03605,137.50745 Z M 434.286,152.38245 C 431.3634,160.20719 429.77886,149.40454 426.22345,155.66355 415.54347,147.79536 429.51664,174.48928 436.20903,158.91708 436.28275,156.89395 437.56645,152.39982 434.286,152.38245 Z M 296.166,153.75745 C 277.64936,162.94947 306.08066,173.53839 301.34604,160.69423 293.03204,167.67482 298.55234,155.5854 296.166,153.75745 Z M 491.416,154.6637 C 484.13808,155.38662 489.05001,169.06584 481.49535,159.98934 465.3935,164.09263 497.57313,191.98712 491.70389,169.81706 489.51313,161.60178 506.09138,166.50838 491.416,154.6637 Z M 329.796,168.1327 C 318.41388,180.25217 337.59228,195.25186 334.57784,209.70867 333.53534,222.97876 321.17274,234.35097 309.2062,238.72449 288.74671,236.26521 315.31246,224.86374 318.90335,216.73609 330.09608,209.54855 319.344,188.54733 322.36916,186.60783 330.40919,180.48432 305.79973,163.16601 308.00058,182.22726 314.24678,191.60737 323.16187,205.2841 307.88356,212.8685 303.67962,216.73284 296.00778,225.19085 299.73752,213.06984 301.26714,202.73717 291.9,222.31511 292.89015,224.7899 282.37854,233.12696 266.19418,237.97359 259.5279,249.11331 273.66212,251.15959 290.4381,229.04682 297.48121,247.72453 311.36311,256.71594 326.01177,243.20139 334.24063,232.65816 342.54385,219.3079 348.7394,246.29965 361.25896,244.09904 374.22177,252.71665 386.53456,238.86103 368.84518,233.96839 363.46198,218.41984 391.20563,224.51989 400.69438,219.01861 405.47324,218.245 409.25603,206.95954 409.44804,203.64134 398.49038,202.191 386.81796,203.35073 375.58752,202.89647 374.5276,203.50614 369.22491,202.35789 372.70355,201.1033 386.69398,201.74907 404.59728,188.28295 394.54426,173.58512 382.03599,160.56314 371.54381,178.27103 372.54775,189.6343 361.87923,190.99226 349.24477,195.269 344.14125,205.0399 340.18225,194.49708 340.3485,180.94333 333.23505,170.8217 332.04199,170.76051 331.31241,168.01576 329.796,168.1327 Z M 363.984,173.5077 C 361.06778,181.33834 359.48699,170.51555 355.9527,176.7889 348.70241,167.69058 352.58355,191.47446 362.81135,183.69797 367.38996,183.61785 367.75433,173.9723 363.984,173.5077 Z M 501.954,179.1639 C 496.1849,184.6566 475.87265,192.22145 483.35385,199.74393 489.4891,194.68723 507.033,189.53735 501.954,179.1639 Z M 381.994,181.1739 C 394.19453,183.78742 380.56817,189.48108 381.08775,181.5176 L 381.994,181.17385 Z M 215.084,184.6114 C 205.25246,184.40036 188.8833,198.91857 192.3169,203.70614 199.01152,198.1534 231.33022,191.49101 215.0838,184.6112 Z M 247.084,189.0489 C 256.83806,197.21361 236.19469,193.71061 247.084,189.0489 Z M 498.244,192.9789 C 491.89907,197.38297 500.02821,211.65206 500.50925,215.58416 505.61169,210.29093 505.1551,196.08302 498.244,192.9789 Z M 284.934,202.6039 C 279.52881,205.57801 289.6884,215.91162 288.63541,219.36183 292.73069,214.66424 291.92256,203.7747 284.934,202.6039 Z M 348.778,211.3227 C 355.71732,211.88991 378.27805,213.71096 361.23849,220.26955 357.5665,224.396 361.79373,237.19818 352.5496,228.06185 348.41869,225.23778 340.05394,213.25407 348.778,211.3227 Z M 192.838,218.1039 C 185.85096,225.32669 180.77419,251.59148 196.21815,248.56158 201.98633,244.06908 199.19632,230.60917 193.0901,239.45291 190.34841,232.7481 192.87687,225.06655 192.838,218.1039 Z M 392.998,230.3939 C 387.40447,231.04082 381.81824,240.2344 390.4734,238.5244 387.32545,255.47542 421.89795,232.36161 399.32419,237.80356 389.27977,244.29028 398.97015,229.66805 392.998,230.3939 Z M 521.158,235.1751 C 509.81948,235.76009 527.12273,244.37247 515.8143,247.51875 516.67019,256.96273 538.04627,242.21331 524.0638,240.98755 527.49531,238.08587 525.06146,234.35771 521.158,235.1751 Z M 467.618,343.5751 C 457.67856,346.96651 470.86124,358.17429 456.63766,353.97452 383.66378,353.3101 310.65318,354.0397 237.7113,351.5438 249.54746,369.23501 273.121,365.02113 291.37422,365.52125 349.23627,365.42635 407.09818,365.24739 464.9603,365.20005 461.21898,371.95217 467.17031,384.04826 474.30967,376.48361 487.67867,374.77396 500.39548,379.48989 511.36525,377.62303 520.41687,363.07222 505.49973,349.34443 490.74728,355.07067 482.75245,352.6514 468.42077,358.76251 471.36635,347.16975 468.40973,348.0452 468.73739,344.6991 467.618,343.5751 Z M 471.868,366.1691 C 478.48298,368.80318 501.73154,361.42216 498.1182,371.32535 488.28436,368.24936 480.25589,373.05272 470.88772,369.64872 470.58017,368.4755 470.63818,366.83538 471.868,366.1691 Z"
     id="path4"
     inkscape:connector-curvature="0" />
</svg>
