<?xml version="1.0" encoding="UTF-8" standalone="no"?>
<svg
   xmlns:dc="http://purl.org/dc/elements/1.1/"
   xmlns:cc="http://creativecommons.org/ns#"
   xmlns:rdf="http://www.w3.org/1999/02/22-rdf-syntax-ns#"
   xmlns:svg="http://www.w3.org/2000/svg"
   xmlns="http://www.w3.org/2000/svg"
   xmlns:sodipodi="http://sodipodi.sourceforge.net/DTD/sodipodi-0.dtd"
   xmlns:inkscape="http://www.inkscape.org/namespaces/inkscape"
   version="1.0"
   width="1000"
   height="600"
   id="svg101"
   sodipodi:docname="ic_flag_li.svg"
   inkscape:version="0.92.1 r15371">
  <metadata
     id="metadata107">
    <rdf:RDF>
      <cc:Work
         rdf:about="">
        <dc:format>image/svg+xml</dc:format>
        <dc:type
           rdf:resource="http://purl.org/dc/dcmitype/StillImage" />
        <dc:title></dc:title>
      </cc:Work>
    </rdf:RDF>
  </metadata>
  <defs
     id="defs105" />
  <sodipodi:namedview
     pagecolor="#ffffff"
     bordercolor="#666666"
     borderopacity="1"
     objecttolerance="10"
     gridtolerance="10"
     guidetolerance="10"
     inkscape:pageopacity="0"
     inkscape:pageshadow="2"
     inkscape:window-width="1748"
     inkscape:window-height="1022"
     id="namedview103"
     showgrid="false"
     inkscape:zoom="0.35355339"
     inkscape:cx="779.9172"
     inkscape:cy="-85.150234"
     inkscape:window-x="0"
     inkscape:window-y="0"
     inkscape:window-maximized="0"
     inkscape:current-layer="use65" />
  <rect
     width="1000"
     height="600"
     fill="#002b7f"
     id="rect2" />
  <rect
     y="300"
     width="1000"
     height="300"
     fill="#ce1126"
     id="rect4" />
  <g
     id="g99"
     style="fill:#ffd83d;stroke:#000000;stroke-width:2;stroke-linecap:round;stroke-linejoin:round">
    <g
       id="use65"
       transform="matrix(-1,0,0,1,443.9375,0)">
      <path
         id="path4638"
         style="stroke:none"
         d="M 216.37706,122.2886 214.53882,184.7886 H 151.1197 C 143.31716,169.62032 136.87338,156.73735 136.87338,139.29228 136.87338,124.69269 148.35647,113.09742 164.90647,113.09742 182.42619,113.09742 201.67512,119.001 216.37706,122.2886 Z M 227.56044,122.2886 229.39868,184.7886 H 292.8178 C 300.62034,169.62032 307.06412,156.73735 307.06412,139.29228 307.06412,124.69269 295.58103,113.09742 279.03103,113.09742 261.51131,113.09742 242.26238,119.001 227.56044,122.2886 Z"
         inkscape:connector-curvature="0" />
      <path
         inkscape:connector-curvature="0"
         d="M 200.48402,120.33044 V 167.21554 M 190.29712,119.87088 V 166.75598 M 180.11024,116.42419 V 163.30929 M 169.92335,115.96463 V 162.84973 M 159.73645,117.77081 V 162.65201 M 149.54956,121.47933 V 169.51333 M 243.45348,120.33044 V 167.21554 M 253.64038,119.87088 V 166.75598 M 263.82726,116.42419 V 163.30929 M 274.01415,115.96463 V 162.84973 M 284.20105,117.77081 V 162.65201 M 294.38794,121.47933 V 169.51333"
         style="stroke-width:3;stroke-miterlimit:4;stroke-dasharray:none"
         id="path4650" />
      <path
         id="path4658"
         d="M 214.99838,119.53125 214.53882,125.96507 C 202.24782,124.08194 184.82391,117.23346 168.58294,117.23346 153.57656,117.23346 141.92853,123.23616 141.92853,138.37316 141.92853,153.29163 148.24631,166.85838 156.63441,180.65257 L 147.90279,184.7886 C 140.10025,169.62032 133.65647,156.73735 133.65647,139.29228 133.65647,124.69269 145.13956,110.34007 164.90647,110.34007 182.42619,110.34007 200.29644,116.24365 214.99838,119.53125 Z M 228.93912,119.53125 229.39868,125.96507 C 241.68968,124.08194 259.11359,117.23346 275.35456,117.23346 290.36094,117.23346 302.00897,123.23616 302.00897,138.37316 302.00897,153.29163 295.69119,166.85838 287.30309,180.65257 L 296.03471,184.7886 C 303.83725,169.62032 310.28103,156.73735 310.28103,139.29228 310.28103,124.69269 298.79794,110.34007 279.03103,110.34007 261.51131,110.34007 243.64106,116.24365 228.93912,119.53125 Z"
         inkscape:connector-curvature="0" />
    </g>
    <path
       style="fill:#000000;stroke-width:1.5"
       d="M 176.39453,117.92188 C 187.158,119.69732 210.80198,130.76038 208.10547,145.72656 204.28413,166.93582 191.89749,158.42384 175.47656,155.37695 L 163.06836,159.51367 C 158.62852,164.04546 152.0913,168.1971 147.67383,162.73047 H 140.32031 V 191.45312 H 221.66211 303.61719 V 162.73047 H 296.26367 C 291.8462,168.1971 285.30898,164.04546 280.86914,159.51367 L 268.46094,155.37695 C 252.04001,158.42384 239.65337,166.93582 235.83203,145.72656 233.13552,130.76038 256.7795,119.69731 267.54297,117.92188 L 221.66211,122.10352 C 221.66211,122.10352 191.48372,119.31576 176.39453,117.92188 Z"
       id="path34"
       inkscape:connector-curvature="0"
       sodipodi:nodetypes="cscccccccccccsccc" />
    <path
       id="path69"
       d="M 203.58731,74.953125 211.71883,80.109375 219.82403,74.953125 211.71883,69.796875 Z M 224.11347,74.953125 232.21867,80.109375 240.35019,74.953125 232.21867,69.796875 Z M 221.96875,53.125 216.8125,62.78125 221.96875,72.40625 227.125,62.78125 Z M 221.96875,77.5 216.8125,87.125 221.96875,96.78125 227.125,87.125 Z"
       inkscape:connector-curvature="0" />
    <path
       id="circle73"
       d="M 232.42371,100 A 10.45496,10.45496 0 0 1 221.96875,110.45496 10.45496,10.45496 0 0 1 211.51379,100 10.45496,10.45496 0 0 1 221.96875,89.54504 10.45496,10.45496 0 0 1 232.42371,100 Z M 225.875,75.068932 A 3.90625,3.90625 0 0 1 221.96875,78.975182 3.90625,3.90625 0 0 1 218.0625,75.068932 3.90625,3.90625 0 0 1 221.96875,71.162682 3.90625,3.90625 0 0 1 225.875,75.068932 Z"
       inkscape:connector-curvature="0" />
    <path
       d="M 219.34375,89.875 C 219.34375,92.989438 219.32163,94.799139 219.3125,96.5 216.79207,96.611865 214.30676,96.876712 211.875,97.28125 M 232.0625,97.28125 C 229.63074,96.876712 227.14543,96.611865 224.625,96.5 224.625,94.801655 224.625,92.997132 224.625,89.875 M 211.84375,102.5625 C 215.13846,102.01215 218.51788,101.71875 221.96875,101.71875 225.41962,101.71875 228.79904,102.01215 232.09375,102.5625"
       id="path75"
       inkscape:connector-curvature="0"
       style="fill:none;stroke-width:1.5" />
    <path
       d="M 211.75,117.6875 C 210.75812,134.76968 208.74143,152.16667 202.09375,164.8125 L 212.90625,160.4375 C 216.68272,146.10873 217.47609,127.59492 218.625,118.84375 Z M 232.1875,117.6875 225.3125,118.84375 C 226.4614,127.59492 227.25478,146.10873 231.03125,160.4375 L 241.84375,164.8125 C 235.19607,152.16667 233.17938,134.76968 232.1875,117.6875 Z"
       id="path77"
       inkscape:connector-curvature="0" />
    <path
       d="M 221.95313,154.6875 C 209.03974,154.6875 199.55398,160.77412 198.98438,176.28125 195.82773,170.72636 182.4742,153.25552 170.01563,155.59375 162.60576,156.98444 156.05854,167.25962 157.17188,179.03125 151.037,161.40135 133.06509,158.51225 119.95313,168.9375 131.59529,178.51001 136.77421,206.77225 146.57813,219.03125 H 221.95313 297.32813 C 307.13204,206.77225 312.34222,178.51001 323.98438,168.9375 310.87241,158.51225 292.90051,161.40135 286.76563,179.03125 287.87896,167.25962 281.3005,156.98444 273.89063,155.59375 261.43205,153.25552 248.10978,170.72636 244.95313,176.28125 244.38354,160.77412 234.86652,154.6875 221.95313,154.6875 Z"
       id="path79"
       inkscape:connector-curvature="0" />
    <path
       style="fill:#000000;stroke-width:1.5"
       inkscape:connector-curvature="0"
       id="path81"
       d="M 297.10662,219.02573 C 297.10662,224.60663 263.44486,230.74447 221.96875,230.74447 180.49265,230.74447 146.83089,224.60663 146.83089,219.02573 146.83089,213.44487 180.49265,210.5239 221.96875,210.5239 263.44486,210.5239 297.10662,213.44487 297.10662,219.02573 Z" />
    <path
       style="stroke-width:1.5"
       inkscape:connector-curvature="0"
       d="M 227.08134,149.37105 A 5.1125898,5.1125898 0 0 1 221.96875,154.48364 5.1125898,5.1125898 0 0 1 216.85616,149.37105 5.1125898,5.1125898 0 0 1 221.96875,144.25846 5.1125898,5.1125898 0 0 1 227.08134,149.37105 Z M 226.62178,139.26076 A 4.6530299,4.6530299 0 0 1 221.96875,143.91379 4.6530299,4.6530299 0 0 1 217.31572,139.26076 4.6530299,4.6530299 0 0 1 221.96875,134.60773 4.6530299,4.6530299 0 0 1 226.62178,139.26076 Z M 226.04734,130.18446 A 4.0785899,4.0785899 0 0 1 221.96875,134.26305 4.0785899,4.0785899 0 0 1 217.89016,130.18446 4.0785899,4.0785899 0 0 1 221.96875,126.10587 4.0785899,4.0785899 0 0 1 226.04734,130.18446 Z M 225.70267,122.02731 A 3.7339201,3.7339201 0 0 1 221.96875,125.76123 3.7339201,3.7339201 0 0 1 218.23483,122.02731 3.7339201,3.7339201 0 0 1 221.96875,118.29339 3.7339201,3.7339201 0 0 1 225.70267,122.02731 Z M 225.47289,114.44459 A 3.5041399,3.5041399 0 0 1 221.96875,117.94873 3.5041399,3.5041399 0 0 1 218.46461,114.44459 3.5041399,3.5041399 0 0 1 221.96875,110.94045 3.5041399,3.5041399 0 0 1 225.47289,114.44459 Z M 308.84488,157.21509 A 4.9402599,4.9402599 0 0 0 313.78514,162.15535 4.9402599,4.9402599 0 0 0 318.7254,157.21509 4.9402599,4.9402599 0 0 0 313.78514,152.27483 4.9402599,4.9402599 0 0 0 308.84488,157.21509 Z M 310.97035,146.30057 A 4.9402599,4.9402599 0 0 0 315.91061,151.24083 4.9402599,4.9402599 0 0 0 320.85087,146.30057 4.9402599,4.9402599 0 0 0 315.91061,141.36031 4.9402599,4.9402599 0 0 0 310.97035,146.30057 Z M 311.08524,135.15627 A 4.9402599,4.9402599 0 0 0 316.0255,140.09653 4.9402599,4.9402599 0 0 0 320.96576,135.15627 4.9402599,4.9402599 0 0 0 316.0255,130.21601 4.9402599,4.9402599 0 0 0 311.08524,135.15627 Z M 308.04067,124.41408 A 4.9402599,4.9402599 0 0 0 312.98093,129.35434 4.9402599,4.9402599 0 0 0 317.92119,124.41408 4.9402599,4.9402599 0 0 0 312.98093,119.47382 4.9402599,4.9402599 0 0 0 308.04067,124.41408 Z M 301.72173,115.28035 A 4.9402599,4.9402599 0 0 0 306.66199,120.22061 4.9402599,4.9402599 0 0 0 311.60225,115.28035 4.9402599,4.9402599 0 0 0 306.66199,110.34009 4.9402599,4.9402599 0 0 0 301.72173,115.28035 Z M 292.81778,108.73163 A 4.9402599,4.9402599 0 0 0 297.75804,113.67189 4.9402599,4.9402599 0 0 0 302.6983,108.73163 4.9402599,4.9402599 0 0 0 297.75804,103.79137 4.9402599,4.9402599 0 0 0 292.81778,108.73163 Z M 282.24793,105.11261 A 4.9402599,4.9402599 0 0 0 287.18819,110.05287 4.9402599,4.9402599 0 0 0 292.12845,105.11261 4.9402599,4.9402599 0 0 0 287.18819,100.17235 4.9402599,4.9402599 0 0 0 282.24793,105.11261 Z M 271.16107,104.48071 A 4.9402599,4.9402599 0 0 0 276.10133,109.42097 4.9402599,4.9402599 0 0 0 281.04159,104.48071 4.9402599,4.9402599 0 0 0 276.10133,99.540453 4.9402599,4.9402599 0 0 0 271.16107,104.48071 Z M 259.8543,105.59596 A 4.9402599,4.9402599 0 0 0 264.79456,110.53622 4.9402599,4.9402599 0 0 0 269.73482,105.59596 4.9402599,4.9402599 0 0 0 264.79456,100.6557 4.9402599,4.9402599 0 0 0 259.8543,105.59596 Z M 248.5475,107.48178 A 4.9402599,4.9402599 0 0 0 253.48776,112.42204 4.9402599,4.9402599 0 0 0 258.42802,107.48178 4.9402599,4.9402599 0 0 0 253.48776,102.54152 4.9402599,4.9402599 0 0 0 248.5475,107.48178 Z M 237.28424,110.31052 A 4.9402599,4.9402599 0 0 0 242.2245,115.25078 4.9402599,4.9402599 0 0 0 247.16476,110.31052 4.9402599,4.9402599 0 0 0 242.2245,105.37026 4.9402599,4.9402599 0 0 0 237.28424,110.31052 Z M 226.18175,112.98255 A 4.9402599,4.9402599 0 0 0 231.12201,117.92281 4.9402599,4.9402599 0 0 0 236.06227,112.98255 4.9402599,4.9402599 0 0 0 231.12201,108.04229 4.9402599,4.9402599 0 0 0 226.18175,112.98255 Z M 135.09262,157.21509 A 4.9402599,4.9402599 0 0 1 130.15236,162.15535 4.9402599,4.9402599 0 0 1 125.2121,157.21509 4.9402599,4.9402599 0 0 1 130.15236,152.27483 4.9402599,4.9402599 0 0 1 135.09262,157.21509 Z M 132.96715,146.30057 A 4.9402599,4.9402599 0 0 1 128.02689,151.24083 4.9402599,4.9402599 0 0 1 123.08663,146.30057 4.9402599,4.9402599 0 0 1 128.02689,141.36031 4.9402599,4.9402599 0 0 1 132.96715,146.30057 Z M 132.85226,135.15627 A 4.9402599,4.9402599 0 0 1 127.912,140.09653 4.9402599,4.9402599 0 0 1 122.97174,135.15627 4.9402599,4.9402599 0 0 1 127.912,130.21601 4.9402599,4.9402599 0 0 1 132.85226,135.15627 Z M 135.89683,124.41408 A 4.9402599,4.9402599 0 0 1 130.95657,129.35434 4.9402599,4.9402599 0 0 1 126.01631,124.41408 4.9402599,4.9402599 0 0 1 130.95657,119.47382 4.9402599,4.9402599 0 0 1 135.89683,124.41408 Z M 142.21577,115.28035 A 4.9402599,4.9402599 0 0 1 137.27551,120.22061 4.9402599,4.9402599 0 0 1 132.33525,115.28035 4.9402599,4.9402599 0 0 1 137.27551,110.34009 4.9402599,4.9402599 0 0 1 142.21577,115.28035 Z M 151.11972,108.73163 A 4.9402599,4.9402599 0 0 1 146.17946,113.67189 4.9402599,4.9402599 0 0 1 141.2392,108.73163 4.9402599,4.9402599 0 0 1 146.17946,103.79137 4.9402599,4.9402599 0 0 1 151.11972,108.73163 Z M 161.68957,105.11261 A 4.9402599,4.9402599 0 0 1 156.74931,110.05287 4.9402599,4.9402599 0 0 1 151.80905,105.11261 4.9402599,4.9402599 0 0 1 156.74931,100.17235 4.9402599,4.9402599 0 0 1 161.68957,105.11261 Z M 172.77643,104.48071 A 4.9402599,4.9402599 0 0 1 167.83617,109.42097 4.9402599,4.9402599 0 0 1 162.89591,104.48071 4.9402599,4.9402599 0 0 1 167.83617,99.540453 4.9402599,4.9402599 0 0 1 172.77643,104.48071 Z M 184.0832,105.59596 A 4.9402599,4.9402599 0 0 1 179.14294,110.53622 4.9402599,4.9402599 0 0 1 174.20268,105.59596 4.9402599,4.9402599 0 0 1 179.14294,100.6557 4.9402599,4.9402599 0 0 1 184.0832,105.59596 Z M 195.39,107.48178 A 4.9402599,4.9402599 0 0 1 190.44974,112.42204 4.9402599,4.9402599 0 0 1 185.50948,107.48178 4.9402599,4.9402599 0 0 1 190.44974,102.54152 4.9402599,4.9402599 0 0 1 195.39,107.48178 Z M 206.65326,110.31052 A 4.9402599,4.9402599 0 0 1 201.713,115.25078 4.9402599,4.9402599 0 0 1 196.77274,110.31052 4.9402599,4.9402599 0 0 1 201.713,105.37026 4.9402599,4.9402599 0 0 1 206.65326,110.31052 Z M 217.75575,112.98255 A 4.9402599,4.9402599 0 0 1 212.81549,117.92281 4.9402599,4.9402599 0 0 1 207.87523,112.98255 4.9402599,4.9402599 0 0 1 212.81549,108.04229 4.9402599,4.9402599 0 0 1 217.75575,112.98255 Z"
       id="circle91" />
    <path
       sodipodi:nodetypes="ccccsccccccccccccscccccccccccccccccccccccccccc"
       style="fill:#000000;fill-opacity:1;stroke:none;stroke-width:1.5"
       inkscape:connector-curvature="0"
       id="path93"
       d="M 221.96876,169.39338 C 218.1244,174.61757 221.15203,182.21232 212.25001,175.54963 210.9227,174.55448 209.91641,175.13633 211.50001,177.39338 216.11747,183.97369 221.12501,189.5982 221.12501,200.33088 221.12502,201.71862 221.36747,202.14338 221.96876,202.14338 222.57005,202.14338 222.84374,201.71862 222.84376,200.33088 222.84376,189.5982 227.82007,183.97369 232.43751,177.39338 234.02111,175.13633 233.01484,174.55448 231.68751,175.54963 222.52643,182.80712 225.18125,173.10814 221.96876,169.39338 Z M 174.8047,171.6034 C 173.76736,175.25357 179.77722,186.17002 171.53126,181.62684 170.70196,181.04592 169.83939,181.74084 171.03126,182.72059 177.08606,187.69729 181.28306,193.38482 182.90626,200.28309 183.238,201.69294 184.12381,201.85878 183.87501,200.28309 182.5027,191.59329 182.23882,184.44969 184.31251,179.97059 185.09182,178.28738 184.30689,176.67095 183.06251,179.40809 178.88247,184.69373 177.57767,174.24168 174.94532,171.56434 174.91861,171.55941 174.89559,171.56583 174.87319,171.57514 174.85078,171.58446 174.82898,171.59669 174.8047,171.6034 Z M 268.90626,171.59559 C 267.44301,173.43973 263.47228,184.8644 260.87501,179.40809 259.63063,176.67095 258.8457,178.28738 259.62501,179.97059 261.6987,184.44969 261.43482,191.59329 260.06251,200.28309 259.81371,201.85878 260.69952,201.69294 261.03126,200.28309 262.65446,193.38482 266.85146,187.69729 272.90626,182.72059 274.09813,181.74084 273.23556,181.04592 272.40626,181.62684 271.57696,182.20736 270.50599,182.80594 269.59376,183.22059 264.97502,182.62105 270.20136,174.08152 269.06251,171.59559 269.01394,171.58217 268.95969,171.58574 268.90626,171.59559 Z M 141.15626,181.83088 C 139.70489,185.28898 150.34716,192.65479 138.87501,189.14338 137.21599,188.75625 136.97522,189.62865 138.15626,190.48713 144.23856,194.91082 150.33501,199.84636 152.78126,204.33088 153.77645,206.15578 155.12181,206.82284 154.37501,205.08088 151.35054,197.10621 153.33868,192.48974 153.12501,186.33088 153.0421,184.7552 152.1484,184.86271 151.78126,186.33088 149.48563,194.04921 145.27873,183.50017 141.15626,181.83088 Z M 302.78126,181.83088 C 299.03704,183.15028 296.08813,194.19605 292.15626,186.33088 291.78912,184.86271 290.89542,184.7552 290.81251,186.33088 290.72958,187.90698 291.40826,189.75001 291.90626,192.48713 292.40385,195.22426 291.84957,199.74371 289.56251,205.08088 288.81571,206.82284 290.16107,206.15578 291.15626,204.33088 293.60251,199.84636 299.69896,194.91082 305.78126,190.48713 306.9623,189.62865 306.72153,188.75625 305.06251,189.14338 292.90586,193.73685 303.83485,185.01404 302.78126,181.83088 Z" />
  </g>
  <path
     id="path4634"
     style="fill:none;stroke:#000000;stroke-width:3;stroke-linecap:round;stroke-linejoin:miter;stroke-miterlimit:4;stroke-dasharray:none;stroke-opacity:1"
     d="M 314.62501,170.86213 311.16797,174.56011 M 303.54918,170.42999 302.04864,174.66579 M 295.21876,174.23713 294.30253,178.6915 M 282.22136,172.75796 278.87499,175.81121 M 278.55071,165.70619 275.69859,169.48657 M 270.68643,161.48667 269.58446,166.94338 M 261.58104,164.10371 261.9878,169.04184 M 238.46876,167.33088 235.89784,171.25933 M 230.78126,162.01838 229.24449,166.80778 M 221.43751,159.45588 221.7738,165.27895 M 211.96876,162.14338 213.34163,167.25957 M 205.34376,168.08088 208.19301,172.3503 M 183.81251,165.22059 183.2859,169.87488 M 174.06251,161.56434 174.89225,166.98074 M 165.84376,165.31434 168.36863,170.42757 M 161.81251,173.65809 165.20535,178.22505 M 147.09376,172.86213 147.82659,177.73474 M 137.81251,170.39338 140.11559,175.77823 M 129.31251,170.86213 133.01518,175.75909 M 150.12687,212.65106 152.07661,218.82525 M 158.46968,210.7684 159.65672,217.1334 M 167.64553,209.45517 168.67848,215.84698 M 178.48383,207.65149 179.28735,214.07616 M 188.39503,207.32654 189.19855,213.75121 M 198.51623,206.81977 198.89973,213.28312 M 208.48353,206.16701 208.75481,212.63605 M 293.81064,212.65106 291.8609,218.82525 M 285.46783,210.7684 284.28079,217.1334 M 276.29198,209.45517 275.25903,215.84698 M 265.45368,207.65149 264.65016,214.07616 M 255.54248,207.32654 254.73896,213.75121 M 245.42128,206.81977 245.03778,213.28312 M 235.45398,206.16701 235.1827,212.63605 M 221.96876,205.58364 V 212.7068" />
</svg>
