<?xml version="1.0" encoding="UTF-8" standalone="no"?>
<svg
   xmlns:dc="http://purl.org/dc/elements/1.1/"
   xmlns:cc="http://creativecommons.org/ns#"
   xmlns:rdf="http://www.w3.org/1999/02/22-rdf-syntax-ns#"
   xmlns:svg="http://www.w3.org/2000/svg"
   xmlns="http://www.w3.org/2000/svg"
   xmlns:sodipodi="http://sodipodi.sourceforge.net/DTD/sodipodi-0.dtd"
   xmlns:inkscape="http://www.inkscape.org/namespaces/inkscape"
   viewBox="0 0 840 600"
   version="1.1"
   id="svg20"
   sodipodi:docname="ic_flag_xk.svg"
   inkscape:version="0.92.1 r15371">
  <metadata
     id="metadata24">
    <rdf:RDF>
      <cc:Work
         rdf:about="">
        <dc:format>image/svg+xml</dc:format>
        <dc:type
           rdf:resource="http://purl.org/dc/dcmitype/StillImage" />
      </cc:Work>
    </rdf:RDF>
  </metadata>
  <sodipodi:namedview
     pagecolor="#ffffff"
     bordercolor="#666666"
     borderopacity="1"
     objecttolerance="10"
     gridtolerance="10"
     guidetolerance="10"
     inkscape:pageopacity="0"
     inkscape:pageshadow="2"
     inkscape:window-width="1612"
     inkscape:window-height="857"
     id="namedview22"
     showgrid="false"
     inkscape:zoom="0.53369726"
     inkscape:cx="214.54972"
     inkscape:cy="575.96075"
     inkscape:window-x="515"
     inkscape:window-y="377"
     inkscape:window-maximized="0"
     inkscape:current-layer="svg20" />
  <title
     id="title2">Flag of Kosovo</title>
  <defs
     id="defs5">
    <path
       id="star"
       d="M0,-36 21.160269,29.124612 -34.238034,-11.124612H34.238034L-21.160269,29.124612z"
       fill="#fff" />
  </defs>
  <rect
     width="840"
     height="600"
     fill="#244aa5"
     id="rect7" />
  <path
     style="fill:#d0a650;stroke-width:0.36469164"
     d="m 332.094,284.595 c 8.0325,-5.31083 15.87596,5.74479 20.634,-5.915 6.59751,-2.83243 16.41812,-5.72125 5.3485,-9.70813 -5.0369,-5.43399 -3.54607,-13.95609 4.8355,-15.91187 5.58541,3.59145 8.14951,-14.79924 17.03825,-8.33875 4.3553,-4.23242 9.86062,-6.22341 8.15338,-13.22125 -8.26465,-2.34065 14.19652,-8.31568 1.11862,-15.69313 -4.18891,-3.52541 -4.16786,-10.15096 -12.97463,-10.43218 3.82967,-5.47233 -7.66192,-9.10588 4.60038,-8.62969 10.39894,5.38055 14.39825,-10.45488 21.679,-8.435 12.20235,5.22841 4.41238,-7.96517 15.295,-4.41 1.84432,3.38471 14.33916,15.14438 6.745,13.265 -7.84526,0.23122 -1.25692,5.48353 -7.106,8.1025 6.54114,0.63581 12.39253,4.9228 18.259,8.0675 3.26634,6.84855 8.68255,2.08524 14.744,0.98 5.7536,4.47578 13.15772,9.98839 14.953,0.9975 6.26606,5.87262 13.42428,5.30589 9.823,15.3825 5.20676,5.29517 1.13501,17.57923 10.108,14.98 -1.45595,-10.10514 10.21837,-0.50044 8.284,5.32 -3.009,7.49745 3.88772,13.61115 6.27,20.65 6.37733,-2.90849 14.9111,-1.44675 16.53,4.97 3.35615,2.8014 19.39408,-1.9319 11.628,6.3175 -0.78057,7.14467 -3.02857,9.93618 -4.788,15.54 1.53935,3.36242 -7.46863,11.1221 3.496,8.1025 6.36156,1.05372 8.93451,-0.0211 14.117,3.255 6.24918,4.30605 11.96122,-3.98523 17.613,3.2025 -4.82475,9.23602 13.55887,1.2129 11.286,12.3025 3.46156,-1.89649 12.79928,-9.22336 19.304,-5.3375 -0.27022,4.56863 11.52104,12.15446 0.551,12.8275 -3.31228,6.33927 -5.2851,9.23219 -2.223,15.47 2.24733,7.44703 -10.92158,3.04947 -10.336,9.8 5.16038,5.09901 -5.71818,7.77699 -9.272,14 -10.00461,4.13332 3.47941,12.44282 -1.938,16.0475 0.70872,10.35239 -11.53183,1.5238 -11.69687,8.9075 -10.62281,-5.63899 -11.19431,11.02632 -4.41513,13.9125 5.26104,-4.77002 11.53784,16.66458 0.114,13.1075 -5.45692,3.27488 -9.08057,-14.22979 -15.82759,-5.80945 -7.8054,-4.46743 2.29674,19.14241 -8.892,6.19937 -5.85873,0.65515 -13.63809,8.37201 -13.99825,13.33008 -4.98193,7.24431 -7.93633,12.3284 -1.94216,19.11 -4.67256,-0.76952 -5.52324,1.0847 -13.49,3.885 -9.53466,-2.63198 -9.04506,-16.98967 -15.314,-24.92 -13.09806,-8.05586 -18.38373,7.92538 -28.728,10.815 -9.3081,3.85573 -17.3597,4.16243 -22.838,12.95 -9.33027,-0.67978 -19.9896,3.53678 -22.82375,11.47125 -6.23508,10.14252 3.22197,25.58331 1.65775,31.12375 -5.37215,9.97724 -13.53634,14.41944 -22.8,10.815 -7.62571,10.98822 -18.93532,-14.86121 -6.194,-15.435 5.27381,-11.63408 -4.31056,-24.63672 -10.488,-34.93 5.23065,-9.34054 -2.06631,-17.27814 -4.788,-26.71375 -3.4645,-9.00158 -10.68188,-18.66977 -21.337,-20.72875 -6.33256,-3.21397 -12.22641,-14.06116 -19.28797,-7.59992 -8.13894,-1.0362 -16.06699,-3.45099 -11.01703,-12.57758 -5.95645,-6.10026 -6.33442,-8.18439 -4.75,-15.225 -7.23032,-4.80843 -5.46187,-15.08331 -13.90325,-19.565 -13.55442,-3.33903 -12.44763,-15.711 -12.16475,-25.76 13.02048,-8.18008 -5.57558,-13.24275 -14.326,-13.965 -6.56846,-4.87086 -2.72437,-9.02417 -1.93503,-15.55914 6.88155,-5.718 15.99592,-8.49319 23.76603,-3.26156 10.77777,5.79965 18.42624,-0.62423 19.6745,-5.90243 3.00471,-10.28457 14.18859,-5.85067 18.9145,-11.36187 2.02016,-0.60645 3.27457,2.16488 5.054,0.14 z"
     id="path9"
     inkscape:connector-curvature="0" />
  <path
     d="m 461.83499,85.825996 21.16027,65.124614 -55.3983,-40.24923 h 68.47607 l -55.39831,40.24923 z"
     id="use11"
     inkscape:connector-curvature="0"
     style="fill:#ffffff" />
  <path
     d="m 544.23297,100.356 21.16027,65.12461 -55.3983,-40.24922 h 68.47607 l -55.39831,40.24922 z"
     id="use13"
     inkscape:connector-curvature="0"
     style="fill:#ffffff" />
  <path
     d="m 622.85699,128.972 21.16027,65.12461 -55.3983,-40.24922 h 68.47607 l -55.3983,40.24922 z"
     id="use15"
     inkscape:connector-curvature="0"
     style="fill:#ffffff" />
  <path
     d="m 378.16501,85.825996 -21.16027,65.124614 55.3983,-40.24923 h -68.47607 l 55.39831,40.24923 z"
     id="use4503"
     inkscape:connector-curvature="0"
     style="fill:#ffffff" />
  <path
     d="m 295.76703,100.356 -21.16027,65.12461 55.3983,-40.24922 h -68.47607 l 55.39831,40.24922 z"
     id="use4505"
     inkscape:connector-curvature="0"
     style="fill:#ffffff" />
  <path
     d="m 217.14301,128.972 -21.16027,65.12461 55.3983,-40.24922 h -68.47607 l 55.3983,40.24922 z"
     id="use4507"
     inkscape:connector-curvature="0"
     style="fill:#ffffff" />
</svg>
