<?xml version="1.0" encoding="UTF-8" standalone="no"?>
<svg
   xmlns:dc="http://purl.org/dc/elements/1.1/"
   xmlns:cc="http://creativecommons.org/ns#"
   xmlns:rdf="http://www.w3.org/1999/02/22-rdf-syntax-ns#"
   xmlns:svg="http://www.w3.org/2000/svg"
   xmlns="http://www.w3.org/2000/svg"
   xmlns:xlink="http://www.w3.org/1999/xlink"
   xmlns:sodipodi="http://sodipodi.sourceforge.net/DTD/sodipodi-0.dtd"
   xmlns:inkscape="http://www.inkscape.org/namespaces/inkscape"
   width="1000"
   height="600"
   version="1.1"
   id="svg190"
   sodipodi:docname="ic_flag_ni.svg"
   inkscape:version="0.92.1 r15371">
  <metadata
     id="metadata194">
    <rdf:RDF>
      <cc:Work
         rdf:about="">
        <dc:format>image/svg+xml</dc:format>
        <dc:type
           rdf:resource="http://purl.org/dc/dcmitype/StillImage" />
      </cc:Work>
    </rdf:RDF>
  </metadata>
  <sodipodi:namedview
     pagecolor="#ffffff"
     bordercolor="#666666"
     borderopacity="1"
     objecttolerance="10"
     gridtolerance="10"
     guidetolerance="10"
     inkscape:pageopacity="0"
     inkscape:pageshadow="2"
     inkscape:window-width="1628"
     inkscape:window-height="1189"
     id="namedview192"
     showgrid="false"
     inkscape:zoom="0.5"
     inkscape:cx="381.6365"
     inkscape:cy="-214.89212"
     inkscape:window-x="0"
     inkscape:window-y="75"
     inkscape:window-maximized="0"
     inkscape:current-layer="svg190" />
  <defs
     id="defs30">
    <linearGradient
       id="linearGradient5676">
      <stop
         id="stop5670"
         offset="0"
         stop-color="#025" />
      <stop
         id="stop5672"
         offset="0.37333664"
         stop-color="#04a" />
      <stop
         id="stop5674"
         offset="1"
         stop-color="#025" />
    </linearGradient>
    <linearGradient
       id="e"
       gradientUnits="userSpaceOnUse"
       x1="498.738"
       y1="289.055"
       x2="500.626"
       y2="283.42">
      <stop
         stop-color="#510000"
         offset="0"
         id="stop2" />
      <stop
         stop-color="#8a0000"
         offset=".3"
         id="stop4" />
      <stop
         stop-color="#a00"
         offset="1"
         id="stop6" />
    </linearGradient>
    <linearGradient
       id="f"
       gradientUnits="userSpaceOnUse"
       x1="501.444"
       y1="291.373"
       x2="502.927"
       y2="287.449">
      <stop
         stop-color="#ff2a2a"
         offset="0"
         id="stop9" />
      <stop
         stop-color="red"
         offset="1"
         id="stop11" />
    </linearGradient>
    <linearGradient
       id="j"
       gradientUnits="userSpaceOnUse"
       x1="484.764"
       y1="311.709"
       x2="484.764"
       y2="317.647">
      <stop
         stop-color="#F5F549"
         offset="0"
         id="stop14" />
      <stop
         stop-color="#97C924"
         offset="1"
         id="stop16" />
    </linearGradient>
    <linearGradient
       id="a">
      <stop
         stop-color="#025"
         offset="0"
         id="stop19" />
      <stop
         stop-color="#04a"
         offset=".5"
         id="stop21" />
      <stop
         stop-color="#025"
         offset="1"
         id="stop23" />
    </linearGradient>
    <linearGradient
       id="g"
       xlink:href="#a"
       gradientUnits="userSpaceOnUse"
       x1="444.509"
       y1="317.486"
       x2="634.411"
       y2="317.486" />
    <clipPath
       id="b">
      <path
         d="M500 226.375l-63.702 110.332H563.7z"
         id="path27" />
    </clipPath>
  </defs>
  <path
     fill="#0067C6"
     d="M0 0h1000v600H0z"
     id="path32" />
  <path
     fill="#fff"
     d="M0 200h1000v200H0z"
     id="path34" />
  <path
     style="fill:#003a90;stroke:none;stroke-width:1px;stroke-linecap:butt;stroke-linejoin:miter;stroke-opacity:1;fill-opacity:1"
     d="M 437.597,335.956 445.304,322.19 554.989,321.685 562.4,335.956 Z"
     id="path4935"
     inkscape:connector-curvature="0" />
  <path
     style="fill:#c8a400"
     d="M 410,299.329 C 413.32633,299.55133 416.65267,299.77367 419.979,299.996 420.2908,296.90236 413.53515,299.99135 416.39247,294.66925 418.61154,292.11498 423.52473,286.3564 417.4452,290.99399 416.19724,291.15999 410.41329,286.29217 410.451,292.791 410.27596,294.96859 410.15407,297.14992 410,299.329 Z M 411.52,297.967 C 409.90537,293.25824 415.79077,286.38491 414.919,295.34 415.00097,298.19457 414.85274,298.70803 411.52,297.967 Z M 411.299,284.006 C 414.545,284.764 417.791,285.522 421.037,286.28 421.77467,283.12067 422.51233,279.96133 423.25,276.802 420.27288,276.28014 421.28728,282.1872 420.0145,284.41041 415.54358,285.13353 417.90553,280.63998 418.4087,277.89954 417.8872,273.47196 416.03762,280.77458 415.83458,282.70725 412.56905,285.35338 413.13071,279.84994 414.29344,277.46143 415.28124,271.99427 411.91782,277.47915 412.16836,280.28352 411.87858,281.52435 411.58879,282.76517 411.299,284.006 Z M 414.807,270.929 C 417.95533,272.024 421.10367,273.119 424.252,274.214 424.7279,271.37621 418.21041,271.96413 422.479,267.258 422.90816,257.53573 415.96902,263.30229 414.807,270.929 Z M 416.632,270.017 C 417.50778,262.35068 423.73374,263.64442 419.78158,270.75629 419.43691,271.46167 417.38131,270.04065 416.632,270.017 Z M 420.024,258.833 C 424.60574,266.43566 436.7098,259.57458 430.49775,253.07125 427.24689,249.8825 421.15558,249.75511 428.29525,253.45327 435.48189,258.75101 424.74105,263.3807 420.757,257.578 420.51267,257.99633 420.26833,258.41467 420.024,258.833 Z M 427.227,247.062 C 429.87433,249.08767 432.52167,251.11333 435.169,253.139 440.57574,248.94717 440.43761,243.21049 435.46238,241.895 431.8489,238.5349 429.30815,244.96647 427.227,247.062 Z M 429.241,246.764 C 430.67681,241.93814 437.59382,241.30259 432.444,246.954 431.30978,249.37155 430.7551,247.69512 429.241,246.764 Z M 432.477,249.24 C 433.97259,244.06375 441.74688,243.12256 436.173,249.497 434.73479,252.37891 434.39844,250.34486 432.477,249.24 Z M 436.231,236.455 C 438.52,238.878 440.809,241.301 443.098,243.724 444.37959,241.51695 449.94836,239.43161 448.005,237.133 445.901,238.13571 443.66542,243.78844 441.69342,240.12075 440.0494,239.30176 437.83892,233.91498 436.231,236.455 Z M 445.035,228.752 C 447.06667,231.39467 449.09833,234.03733 451.13,236.68 453.5708,234.70574 448.27599,231.72117 447.35426,229.30774 446.51571,228.10264 446.22556,227.36653 445.035,228.752 Z M 453.991,222.67 C 443.53548,229.05525 459.91887,238.33163 462.22837,227.217 461.65295,223.07954 456.77614,236.40685 452.614,229.325 448.17208,222.74391 466.42092,222.30764 455.626,221.86575 Z M 465.808,216.773 C 465.459,220.50833 465.11,224.24367 464.761,227.979 467.73365,227.09148 465.42007,222.27613 469.94411,222.54098 471.59227,220.83059 477.70946,226.39734 474.34821,222.16173 472.02047,220.15615 469.69274,218.15058 467.365,216.145 466.84739,216.35406 466.32225,216.5646 465.808,216.773 Z M 467.176,217.922 C 472.08142,219.46565 468.57804,223.40122 466.87014,221.28695 466.97206,220.16601 467.07423,219.0396 467.176,217.922 Z M 487.726,210.591 C 487.934,213.91767 488.142,217.24433 488.35,220.571 495.97275,223.83625 504.03939,212.21297 494.02956,210.27294 491.92493,210.25417 489.8269,210.48763 487.726,210.591 Z M 489.266,211.918 C 495.65267,208.11638 501.1715,218.9906 492.508,218.884 488.0989,220.52571 489.96349,215.05584 489.29846,212.45343 L 489.26665,211.94531 489.265,211.919 Z M 501.664,210 C 501.474,213.328 501.284,216.656 501.094,219.984 504.333,220.169 507.572,220.354 510.811,220.539 510.95375,217.60197 497.60036,219.69586 504.32385,215.6962 507.75919,216.74255 514.33279,214.89391 506.60425,214.41062 499.36069,215.03447 504.1205,208.91767 509,211.84945 514.77903,210.5897 505.70867,210.05999 503.44673,210.10196 502.85248,210.06797 502.25824,210.03399 501.664,210 Z M 527.774,214.166 C 526.56867,217.27367 525.36333,220.38133 524.158,223.489 526.95905,224.40669 526.77785,218.55591 528.311,216.596 529.40798,217.77334 530.40472,222.33956 531.46206,224.81403 532.93448,229.8096 535.19989,224.61116 535.77712,221.98871 538.30067,218.41974 535.99549,215.56011 534.78963,220.70978 533.65103,225.14974 532.55046,225.65222 531.56888,220.88486 530.27481,218.71525 530.73552,214.69147 527.774,214.166 Z M 541.208,219.937 C 539.69267,222.906 538.17733,225.875 536.662,228.844 533.90396,227.34787 538.56358,223.44749 539.02909,220.90652 539.63357,219.56824 539.78446,218.79177 541.208,219.937 Z M 548.751,224.356 C 538.58558,217.51875 536.99093,236.27658 548.05525,233.7395 551.57365,231.49028 537.42978,232.61835 542.128,225.881 546.25527,219.09878 554.26705,235.50117 550.16387,225.50662 Z M 558.272,231.538 C 554.78733,232.928 551.30267,234.318 547.818,235.708 549.96335,237.94896 553.19519,233.69978 555.01945,237.84799 557.29208,238.53738 555.12192,246.51696 557.36296,241.59615 558.08864,238.61043 558.81432,235.62472 559.54,232.639 559.11788,232.27175 558.6928,231.90585 558.272,231.538 Z M 557.872,233.279 C 558.73068,238.34929 553.63162,237.02137 554.73684,234.53844 555.7819,234.11863 556.82695,233.69881 557.872,233.279 Z M 565.825,238.486 C 563.253,240.607 560.681,242.728 558.109,244.849 560.36995,246.55106 563.30305,240.98243 565.153,247.18 563.11251,252.31187 565.9377,255.72838 566.22382,249.15746 569.31986,250.28894 574.03217,245.2291 568.6517,241.91416 567.7093,240.77158 566.76651,239.62932 565.825,238.486 Z M 565.655,240.52 C 570.31032,242.99255 570.27086,251.4043 565.09322,244.89342 562.65706,242.48851 563.08216,242.45394 565.655,240.52 Z M 577.523,254.401 C 573.77533,254.57267 570.02767,254.74433 566.28,254.916 567.57065,257.7382 572.01847,254.77869 572.38243,259.29693 574.30342,260.69268 569.64008,267.52163 573.36868,263.6059 575.03245,261.0226 576.69623,258.4393 578.36,255.856 578.081,255.371 577.802,254.886 577.523,254.401 Z M 576.575,255.915 C 575.72391,260.98693 571.34216,258.06093 573.20007,256.07737 574.32469,256.02291 575.45205,255.97105 576.575,255.915 Z M 583.939,267.638 C 578.93006,255.86204 569.88576,269.8205 575.931,274.917 576.64764,277.48533 583.37912,274.5775 580.05893,271.69102 576.99969,266.24514 580.64488,273.96845 578.09256,274.14028 569.86436,269.26675 580.89189,258.54446 583.166,269.169 581.21235,277.38576 586.27801,271.76857 583.939,267.638 Z M 586.811,275.447 C 582.91049,276.21242 576.0307,276.44781 577.97642,282.40819 578.41109,288.64424 584.86292,286.27322 588.772,285.531 587.88661,281.75232 579.363,288.92055 579.336,282.119 576.75102,275.50585 587.67145,279.4186 586.811,275.447 Z M 589.879,292.467 C 586.42967,290.992 582.98033,289.517 579.531,288.042 579.46581,291.14442 584.75856,290.41328 583.12144,294.6405 584.24471,296.73315 577.07449,300.85335 582.13551,298.94981 584.757,297.34721 587.3785,295.7446 590,294.142 589.95967,293.58367 589.91933,293.02533 589.879,292.467 Z M 588.367,293.418 C 585.39581,297.61538 582.72141,293.07605 585.25711,292.09728 586.29341,292.53702 587.33224,292.98058 588.367,293.418 Z M 417.752,318.335 C 415.31715,318.1906 417.13252,325.81274 419.355,324.428 418.82067,322.397 418.28633,320.366 417.752,318.335 Z M 582.283,318.335 C 584.71615,318.1914 582.90235,325.8143 580.68,324.427 581.21433,322.39633 581.74867,320.36567 582.283,318.335 Z M 433.217,343.989 C 429.49033,344.41767 425.76367,344.84633 422.037,345.275 423.51718,348.00205 427.7523,344.74387 428.42543,349.22653 430.4387,350.48753 426.25266,357.61978 429.70553,353.45824 431.18802,350.76683 432.67051,348.07541 434.153,345.384 433.841,344.919 433.529,344.454 433.217,343.989 Z M 432.375,345.565 C 431.87558,350.68293 427.3021,348.06549 429.01928,345.9592 430.13785,345.8278 431.25643,345.6964 432.375,345.565 Z M 437.497,350.098 C 435.12133,352.31967 432.74567,354.54133 430.37,356.763 432.55154,358.79945 434.98358,353.35526 437.27143,352.21691 436.40583,354.83814 435.18092,358.00336 434.177,360.834 436.19919,363.38027 439.85036,359.85625 442.57553,359.78295 445.21587,359.08277 439.05644,363.45984 437.982,364.903 440.16324,366.93683 442.59534,361.49455 444.88301,360.35653 447.88113,357.13094 441.56538,357.90758 439.73683,359.16715 434.8764,361.73277 436.30657,358.48506 437.88442,355.10088 438.68904,352.98433 439.88847,351.64802 437.497,350.098 Z M 447.878,360.689 C 445.87267,363.35167 443.86733,366.01433 441.862,368.677 444.454,370.62867 447.046,372.58033 449.638,374.532 451.31575,372.01775 445.50448,370.56025 443.98454,368.49722 445.13226,364.11515 448.28563,368.09233 450.58942,369.66006 454.85017,370.9726 448.91832,366.32972 447.23287,365.36269 446.13285,361.30565 450.93857,364.04444 452.65363,366.07293 457.25549,369.18663 453.60013,363.89372 450.93235,362.9891 449.91424,362.2224 448.89612,361.4557 447.878,360.689 Z M 457.662,367.85 C 456.092,370.791 454.522,373.732 452.952,376.673 455.64324,378.22631 455.60558,370.80162 459.28167,375.5927 460.69848,378.66473 463.92718,385.51204 462.19981,378.06275 462.85885,376.91503 469.26701,373.15318 463.078,370.744 461.27499,369.77499 459.46648,368.81626 457.662,367.85 Z M 458.279,369.795 C 463.37141,370.2497 466.8207,377.99835 459.54456,374.11691 456.43672,372.9742 456.47683,372.45781 458.279,369.795 Z M 468.957,373.756 C 467.69733,376.84233 466.43767,379.92867 465.178,383.015 468.11355,384.12652 468.02475,378.05123 469.64575,376.03896 470.26539,374.70709 470.7531,374.08704 468.957,373.756 Z M 477.975,376.871 C 466.384,372.90648 469.71181,391.43651 479.739,386.11325 482.55651,383.02681 469.18626,387.79033 471.975,380.063 474.20044,372.44224 486.1945,386.2017 479.63813,377.61538 Z M 488.029,379.122 C 485.849,382.17533 483.669,385.22867 481.489,388.282 484.50526,389.00986 484.92634,383.68238 488.70399,386.18795 490.98868,385.54017 493.47656,393.42574 492.70183,388.07423 491.69822,385.17016 490.69461,382.26608 489.691,379.362 489.137,379.282 488.583,379.202 488.029,379.122 Z M 488.634,380.802 C 492.09609,384.60395 487.08957,386.24389 486.67684,383.55701 487.32902,382.63861 487.98279,381.72071 488.634,380.802 Z M 511.47,379.193 C 499.42122,381.40893 511.39362,395.93927 517.53188,386.38888 518.47597,382.31938 509.1507,393.01733 507.8,384.913 506.01019,377.17733 523.20511,383.30777 513.28463,379.0285 Z M 518.148,378.01 C 519.096,381.20567 520.044,384.40133 520.992,387.597 524.10233,386.674 527.21267,385.751 530.323,384.828 529.30105,381.98306 524.67191,385.78836 522.10966,385.78312 519.26992,382.25381 524.34304,382.08534 526.97309,381.16544 530.56227,378.52135 523.30142,380.52877 521.52182,381.30835 517.60599,379.78031 522.66649,377.54532 525.3169,377.3729 530.55662,375.52518 524.12556,375.31472 521.81221,376.92246 520.59081,377.28497 519.3694,377.64749 518.148,378.01 Z M 528.966,374.61 C 530.36533,377.63533 531.76467,380.66067 533.164,383.686 535.75448,382.24462 531.36051,378.23892 530.99628,375.71273 533.11554,375.82132 544.39659,383.86564 541.43535,377.0556 540.21762,375.40653 538.78768,368.65745 537.26474,371.33208 538.27678,374.28351 543.31652,381.25512 536.81462,376.72113 534.23216,376.20023 531.52089,372.72864 528.966,374.61 Z M 539.947,369.452 C 541.35962,372.55987 544.93509,365.17711 545.90457,370.43131 546.62256,372.7893 551.54001,377.69757 549.24635,372.86496 548.61179,370.63098 543.48833,367.4714 547.49104,366.19334 551.86111,362.93172 545.57975,364.70365 543.9179,366.83871 542.59427,367.7098 541.27063,368.5809 539.947,369.452 Z M 550.009,362.562 C 552.268,365.01367 554.527,367.46533 556.786,369.917 558.36341,367.56655 552.63946,364.94354 558.727,362.756 563.96409,364.51023 567.21751,361.50302 560.64163,361.57741 561.60311,358.42151 556.28953,353.9979 553.27684,359.55136 552.1877,360.55506 551.09892,361.55915 550.009,362.562 Z M 552.049,362.62 C 554.26502,357.83396 562.6652,357.41497 556.44427,362.94275 554.17687,365.51081 554.12157,365.07834 552.049,362.62 Z M 561.643,350.918 C 563.134,354.36033 564.625,357.80267 566.116,361.245 568.2974,359.03734 563.9496,355.92885 568.04452,353.98459 568.66791,351.69364 576.70678,353.62969 571.72292,351.53316 568.71695,350.89511 565.71097,350.25705 562.705,349.619 562.35147,350.05072 561.99543,350.48937 561.643,350.918 Z M 563.395,351.267 C 568.43877,350.26143 567.2607,355.39539 564.74506,354.36362 564.29504,353.33141 563.84502,352.29921 563.395,351.267 Z M 565.998,345.253 C 568.79467,347.06633 571.59133,348.87967 574.388,350.693 575.11161,348.24638 580.02937,344.90408 577.599,343.131 575.79085,344.60252 574.95368,350.62293 572.17224,347.52415 570.38094,347.11673 566.9615,342.40539 565.998,345.253 Z"
     id="path36"
     inkscape:connector-curvature="0" />
  <path
     style="fill:#ffffff"
     inkscape:connector-curvature="0"
     id="path40"
     d="m 500.001,226.408 -31.479,54.535 -15.42,26.702 H 546.9 l -14.714,-25.484 -32.184,-55.753 z" />
  <path
     style="opacity:0.62000002;fill:#17c0eb;stroke:none;stroke-width:0.12899999"
     d="M 500,227.87695 491.91211,241.63281 500.00195,285.4668 508.08789,241.63867 Z M 500.00195,285.4668 518.23242,258.89648 513.60156,251.01953 Z M 500.00195,285.4668 524.875,270.19727 521.46875,264.4043 Z M 500.00195,285.4668 531.4043,281.30859 527.76172,275.11133 Z M 500.00195,285.4668 540.95898,297.56445 535.12695,287.64258 Z M 500.00195,285.4668 525.83984,307.49805 542.17969,307.4668 Z M 500.00195,285.4668 510.54688,307.5293 517.51172,307.51562 Z M 500.00195,285.4668 494.30664,307.5625 505.69141,307.53906 Z M 500.00195,285.4668 482.43555,307.58594 489.43555,307.57227 Z M 500.00195,285.4668 457.49609,307.63477 474.04297,307.60352 Z M 500.00195,285.4668 464.86133,287.64453 459.02539,297.57031 Z M 500.00195,285.4668 472.23047,275.10938 468.58594,281.30664 Z M 500.00195,285.4668 478.52734,264.39844 475.12109,270.19336 Z M 500.00195,285.4668 486.39844,251.01172 481.76562,258.89062 Z"
     id="path4921"
     inkscape:connector-curvature="0"
     sodipodi:nodetypes="ccccccccccccccccccccccccccccccccccccccccccccccccccccccccc" />
  <circle
     style="opacity:1;fill:#ffffff;fill-opacity:1;fill-rule:nonzero;stroke:none;stroke-width:3;stroke-linecap:round;stroke-linejoin:round;stroke-miterlimit:4;stroke-dasharray:none;stroke-opacity:1;paint-order:normal"
     id="path4833"
     cx="500"
     cy="285.4791"
     r="8.0343056" />
  <path
     style="fill:#ffffff;fill-opacity:1;fill-rule:nonzero"
     d="M 442.59766,325.95698 C 446.05466,325.95698 448.82222,325.47967 452.07422,325.38667 455.32822,325.47867 458.43648,325.95698 461.89648,325.95698 466.68985,326.36082 471.78483,325.16768 476.03711,325.01167 484.12221,326.71438 492.00475,325.36403 499.8457,325.01167 507.92862,326.71713 515.81045,325.36335 523.65234,325.01167 528.82102,325.21597 533.02777,324.15034 537.79297,325.95698 544.22366,324.53131 551.05667,325.90326 557.10938,325.95698 L 556.856,324.882 C 548.74815,324.46438 543.67466,325.12086 535.87109,325.38864 527.76255,323.47011 519.87492,325.10215 512.06641,325.38864 503.95626,323.46958 496.06541,325.10188 488.25977,325.38864 472.35407,324.49703 458.80878,324.20727 442.59766,325.95698 Z M 445.51448,327.72997 C 453.93761,326.51589 458.688,327.64858 466.37109,327.81836 473.07841,326.21577 479.43342,326.14581 485.50142,326.19964 493.45437,325.3984 502.2339,327.69287 509.49414,327.81836 517.46368,327.01898 525.66841,327.50525 532.94727,327.63086 534.44227,327.64886 535.31397,326.84486 536.79297,326.88086 543.48882,325.27841 551.05667,327.76464 557.10938,327.81836 577.97814,324.84026 407.25627,327.90183 445.51448,327.72997 Z M 440.66016,330.53711 C 442.9911,330.55874 459.5995,330.92099 466.37109,331.10547 469.82809,331.10547 472.78311,330.25216 476.03711,330.16016 481.20706,330.88018 485.45728,330.406 490.22461,330.51172 493.68161,330.51172 496.5947,330.25216 499.8457,330.16016 505.01274,330.88356 509.22574,331.00098 513.98438,331.10547 517.44236,331.10547 520.33284,329.75216 523.58984,329.66016 531.66937,331.36345 539.41689,330.94994 547.25586,330.59766 550.50886,330.68966 553.65337,331.10547 557.10938,331.10547 560.95282,331.5891 559.66211,330.53714 559.66211,330.53714 542.5611,329.75648 527.29814,329.89053 512.06641,330.53714 495.75995,329.35552 468.75872,329.50994 464.53125,330.50589 458.37075,328.83706 448.63342,330.2442 440.66016,330.53711 Z M 444.01187,334.30609 C 450.70346,332.70409 455.84881,334.34086 461.89648,334.39448 463.39748,334.41348 464.89009,334.35848 466.37109,334.39448 473.07841,332.79189 479.71911,333.71565 485.78711,333.76948 493.74006,332.96824 502.2339,334.26899 509.49414,334.39448 517.46368,333.5951 526.04341,334.26887 533.32227,334.39448 543.23025,333.80954 552.53307,334.19393 561.58203,334.39448 558.71003,333.51736 553.32761,332.91026 550.01172,332.88083 542.13804,334.07491 534.35745,334.93163 526.73541,333.23438 525.23941,333.21438 523.21242,332.91083 521.73242,332.88083 515.03153,334.48324 508.58106,333.62207 502.52539,333.56833 492.61475,334.17861 483.18053,333.04624 474.13477,332.88083 467.43289,334.48369 460.92192,333.30956 454.86523,333.25583 451.26011,333.52427 429.41357,333.82677 444.01187,334.30609 Z M 440.66016,335.69336 C 438.97731,335.77786 437.50041,334.69705 436.63477,336.19727 437.12077,336.22927 437.61005,336.26177 438.12305,336.26177 439.62505,336.27977 441.11366,336.22577 442.59766,336.26177 446.05466,336.26177 448.97847,335.40946 452.23047,335.31646 455.48447,335.40846 458.43648,336.26177 461.89648,336.26177 463.39748,336.28077 464.89009,336.22577 466.37109,336.26177 469.82809,336.26177 472.78311,335.40846 476.03711,335.31646 479.29311,335.40846 482.26761,336.26177 485.72461,336.26177 493.90756,334.93879 502.15964,336.19669 509.49414,336.26177 511.00614,336.28077 512.49338,336.22577 513.98438,336.26177 517.44236,336.26177 520.39534,335.40846 523.65234,335.31646 526.90934,335.40846 529.86227,336.26177 533.32227,336.26177 534.81727,336.27977 536.31397,336.22577 537.79297,336.26177 541.24897,336.26177 544.19236,335.40846 547.44336,335.31646 550.69636,335.40846 553.65337,336.26177 557.10938,336.26177 558.60938,336.27977 560.10403,336.22577 561.58203,336.26177 562.18703,336.26177 562.77933,336.22667 563.36133,336.18367 L 562.89844,335.3868 C 561.83444,335.5308 560.76411,335.66344 559.66211,335.69344 551.98781,334.42446 543.67896,335.41337 535.87109,335.69344 527.76255,333.77491 519.87492,335.40695 512.06641,335.69344 505.83126,335.05563 496.06541,335.71918 488.25977,336.00594 471.94459,334.79202 455.76337,335.04281 440.66016,335.69336 Z"
     id="m"
     inkscape:connector-curvature="0"
     sodipodi:nodetypes="cccccccccccccccccccccccccccccccccccccccccccccccccccccccccccccccccccccccc" />
  <g
     id="g5623">
    <path
       style="fill:#ff0000"
       inkscape:connector-curvature="0"
       id="path72"
       d="M 500.06971,266.29709 C 489.43512,266.28177 478.95062,270.42405 470.90039,277.37305 L 456.375,302 C 455.87033,304.72088 455.61925,307.48272 455.625,310.25 L 460.656,310.84148 C 460.656,289.11548 478.274,271.49748 500,271.49748 521.727,271.49748 539.344,289.11548 539.344,310.84148 L 544.375,310.25 C 544.375,307.437 544.125,304.668 543.625,302 L 528.83839,277.37305 C 520.78756,270.42507 510.70409,266.28293 500.06971,266.29709 Z"
       sodipodi:nodetypes="cccccsccccc" />
    <path
       style="fill:#00ff00"
       inkscape:connector-curvature="0"
       id="path78"
       d="M 500,268.25 C 485.45,268.25 472.628,275.664 465.094,286.906 L 462.281,291.781 A 41.818,41.818 0 0 0 457.999,310.251 H 460.656 C 460.656,288.524 478.273,270.906 499.999,270.906 521.726,270.906 539.343,288.524 539.343,310.25 H 542 A 41.824,41.824 0 0 0 537.72,291.813 L 534.875,286.876 C 527.339,275.649 514.538,268.251 500,268.251 Z" />
    <path
       style="fill:#0000ff"
       inkscape:connector-curvature="0"
       id="path82"
       d="M 500,269.844 C 477.694,269.844 459.625,287.944 459.625,310.25 H 460.969 C 460.969,288.69 478.47585,271.53268 500.03485,271.53268 521.59385,271.53268 539.031,288.691 539.031,310.25 H 540.406 C 540.406,287.944 522.306,269.844 500,269.844 Z"
       sodipodi:nodetypes="sccsccs" />
  </g>
  <g
     id="g5633">
    <path
       style="fill:#510000"
       inkscape:connector-curvature="0"
       id="path88"
       d="M 500.395,288.134 C 499.751,288.01 499.169,287.65 498.62,287.524 497.864,288.249 497.785,288.981 497.889,289.604 498.151,289.744 498.199,289.957 498.767,290.464 499.335,290.971 499.263,291.237 499.229,292.429 499.214,292.932 499.299,294.01 499.808,294.111 500.356,294.221 500.74,293.765 500.898,292.951 501.05,292.161 501.315,291.735 501.596,291.249 501.902,289.397 501.403,288.741 500.395,288.134 Z" />
    <path
       style="fill:#ff0000"
       inkscape:connector-curvature="0"
       id="path90"
       d="M 497.168,283.524 C 496.573,283.539 495.64,284.536 495.225,283.999 494.986,283.691 494.946,283.097 495.188,282.599 495.747,281.448 496.312,280.883 497.355,280.269 499.733,278.868 501.245,279.319 502.429,281.332 503.527,283.104 504.581,285.062 504.675,286.703 504.705,287.204 504.958,288.111 504.519,288.563 503.171,289.953 499.923,287.128 498.022,287.575 497.382,287.725 496.645,288.192 496.042,287.793 495.572,287.483 495.964,286.796 496.314,286.499 496.926,285.979 497.815,284.134 497.694,283.334 497.627,282.888 497.614,283.513 497.168,283.524 Z" />
    <path
       inkscape:connector-curvature="0"
       style="fill:#6f0000;fill-opacity:1"
       id="path92"
       d="M 496.927,282.548 C 495.844,282.993 495.961,283.624 495.417,284.138 495.571,284.196 496.183,284.448 496.781,283.837 497.039,283.623 497.329,283.544 497.458,283.475 497.153,283.696 496.935,284.029 496.774,284.159 496.37,284.488 495.74,285.242 495.434,286.005 495.127,286.769 495.004,287.678 495.058,287.787 495.114,287.897 495.484,288.567 496.624,289.019 498.654,289.826 499.041,291.458 501.101,291.458 502.715,291.458 502.456,290.402 503.747,290.626 504.867,290.82 505.461,289.93 504.383,289.394 503.012,288.926 500.291,289.202 499.011,289.427 498.597,285.344 498.955,286.777 498.859,285.022 498.762,283.267 498.236,283.162 498.931,281.741 498.353,282.613 497.654,282.475 496.927,282.548 Z" />
    <path
       inkscape:connector-curvature="0"
       style="fill:#ff2a2a;fill-opacity:1"
       id="path96"
       d="M 501.249,287.398 C 500.531,287.21 499.823,286.855 499.212,286.673 498.012,286.314 496.732,285.539 495.846,285.859 495.529,285.999 495.557,286.315 495.456,286.769 495.414,287.302 494.86,288.089 495.32,287.831 496.005,287.448 497.81,288.564 498.415,288.937 498.702,289.114 499.307,289.461 499.497,289.959 499.687,290.457 499.589,291.715 499.538,292.255 499.485,292.821 499.657,294.09 500.224,294.242 500.835,294.405 501.302,293.919 501.54,293.012 501.77,292.131 501.945,291.625 502.297,291.097 502.649,290.569 503.053,290.341 503.617,290.234 504.181,290.128 504.999,290.696 504.999,290.031 504.999,289.594 504.615,289.176 504.779,288.577 504.907,288.105 504.377,288.199 503.937,288.005 502.901,287.686 501.967,287.585 501.249,287.398 Z" />
    <path
       style="fill:#910000"
       inkscape:connector-curvature="0"
       id="path98"
       d="M 498.363,288.902 C 498.036,288.724 496.048,287.424 495.32,287.831 495.09,287.959 495.003,287.815 495,287.574 494.996,287.333 495.109,286.98 495.184,286.708 495.258,286.435 495.379,285.916 495.7,285.646 496.387,285.066 497.969,286.221 498.808,286.532 498.736,286.968 498.338,288.888 498.363,288.902 Z" />
  </g>
  <path
     d="M 453.103,307.645 445.304,322.19 554.989,321.685 546.9,307.645 Z"
     id="path104"
     inkscape:connector-curvature="0"
     style="fill:#ffffff"
     sodipodi:nodetypes="ccccc" />
  <path
     style="fill:#003a90;fill-opacity:1"
     d="M 453.23047,307.45703 453.10742,307.67383 C 520.20803,312.86085 518.90582,308.70721 546.89648,307.67383 L 546.77344,307.45703 Z M 452.81055,308.18164 452.51708,308.97905 C 480.71764,311.95151 518.01147,310.59056 547.79619,308.97905 L 547.19336,308.18164 Z M 452.09375,309.42383 451.84375,309.85742 C 483.08037,312.8984 513.26606,312.15908 548.16016,309.85742 L 547.91016,309.42383 Z M 451.29688,310.80664 451.04688,311.23633 C 483.6836,313.39966 518.99734,314.25066 549.04542,312.03183 L 548.70703,310.80664 Z M 451.64844,312.93359 C 454.94144,313.01359 457.93255,313.76367 461.43555,313.76367 L 550.9344,315.01072 C 550.9344,315.01072 550.14188,312.82258 550.62109,312.44336 549.09209,312.42336 547.58522,312.47336 546.07422,312.44336 L 454.37695,312.00586 C 451.71746,311.64049 448.03489,313.19806 451.64844,312.93359 Z M 450.01758,314.05162 C 447.42612,314.42178 446.81953,316.42494 451.64844,316.2793 L 548.08008,316.7168 C 553.39744,317.22198 550.62109,315.78906 550.62109,315.78906 549.09209,315.76906 547.11647,315.16281 545.60547,315.13281 L 453.66984,313.8534 C 452.09345,313.22708 451.52158,314.08262 450.01758,314.05162 Z M 449.79347,316.24334 C 445.40292,316.76137 446.64275,318.16084 451.47166,318.0152 483.68283,318.93858 549.08008,318.33398 549.08008,318.33398 558.78453,318.17955 548.96089,316.9581 546.07422,316.90625 H 454.25195 C 452.73195,316.88625 451.29747,316.27434 449.79347,316.24334 Z M 449.17475,318.29508 C 442.61769,319.10874 446.9764,320.00182 451.64844,319.62305 456.68484,319.51603 451.21099,318.37672 449.17475,318.29508 Z M 449.66089,319.63323 C 440.83077,320.48939 445.38277,321.39057 451.64844,320.74023 Z"
     id="use107"
     inkscape:connector-curvature="0"
     sodipodi:nodetypes="cccccccccccccccccccccccccccccccccccccccccccccc" />
  <path
     style="fill:#97c924;stroke:#97c924;stroke-opacity:1"
     inkscape:connector-curvature="0"
     id="path122"
     d="M 528.754,298.124 C 527.354,303.447 524.402,308.793 520.42,312.831 516.408,316.901 511.35,319.661 505.815,319.661 H 498.141 L 498.69866,323.30938 C 517.46211,322.76792 536.22555,324.55397 554.989,321.685 L 553.316,319.525 C 548.629,318.913 544.343,316.362 540.858,312.831 536.872,308.793 533.926,303.447 532.524,298.124 531.42233,297.18567 529.79847,297.25468 528.754,298.124 Z"
     sodipodi:nodetypes="ccsccccccc" />
  <path
     style="fill:#ede71f"
     inkscape:connector-curvature="0"
     id="path124"
     d="M 531.036,297.499 C 531.06,300.516 531.036,305.609 531.036,308.3 530.48963,318.86307 520.33996,320.9049 510.649,318.95 520.15341,315.54988 526.14635,307.37032 528.755,298.124 529.49455,297.46793 530.3112,297.53457 531.036,297.499 Z"
     sodipodi:nodetypes="ccccc" />
  <path
     style="fill:#c6cb24"
     inkscape:connector-curvature="0"
     id="path126"
     d="m 529.938,298.902 c -0.412,6.034 -2.277,13.192 -6.644,17.81 -1.607,1.337 -3.66,2.55 -5.646,2.255 6.77,-5.51 10.885,-13.947 12.29,-20.065 z" />
  <path
     d="M 513.413,298.124 C 512.013,303.447 509.061,308.793 505.079,312.831 501.067,316.901 496.009,319.661 490.474,319.661 H 482.8 C 486.44738,330.21044 517.28809,322.64775 531.76793,322.89114 L 537.975,319.525 C 533.288,318.913 529.002,316.362 525.517,312.831 521.531,308.793 518.585,303.447 517.183,298.124 515.77003,297.40622 514.4205,297.43959 513.413,298.124 Z"
     id="path5068"
     inkscape:connector-curvature="0"
     style="fill:#97c924;stroke:#97c924;stroke-opacity:1"
     sodipodi:nodetypes="ccscccccc" />
  <path
     d="M 515.695,297.499 C 515.719,300.516 515.695,305.609 515.695,308.3 515.14863,318.86307 504.99896,320.9049 495.308,318.95 504.81241,315.54988 510.80535,307.37032 513.414,298.124 514.02606,297.53228 514.80377,297.45828 515.695,297.499 Z"
     id="path5070"
     inkscape:connector-curvature="0"
     style="fill:#ede71f"
     sodipodi:nodetypes="ccccc" />
  <path
     d="m 514.597,298.902 c -0.412,6.034 -2.277,13.192 -6.644,17.81 -1.607,1.337 -3.66,2.55 -5.646,2.255 6.77,-5.51 10.885,-13.947 12.29,-20.065 z"
     id="path5072"
     inkscape:connector-curvature="0"
     style="fill:#c6cb24" />
  <path
     style="fill:#97c924;stroke:#97c924;stroke-opacity:1"
     inkscape:connector-curvature="0"
     id="path135"
     d="M 501.869,298.124 C 503.27,303.447 506.217,308.793 510.202,312.831 514.219,316.901 519.289,319.661 524.825,319.661 H 532.465 L 531.76793,322.89114 468.10773,322.84148 467.485,319.66 H 475.16 C 480.695,319.66 485.753,316.9 489.765,312.83 493.747,308.793 496.699,303.447 498.099,298.124 499.35059,297.32342 500.67171,297.32891 501.869,298.124 Z"
     sodipodi:nodetypes="ccsccccsccc" />
  <path
     style="fill:#ede71f"
     inkscape:connector-curvature="0"
     id="path137"
     d="M 499.263,297.53 C 498.78515,297.57131 498.34604,297.69337 498.093,298.124 495.60975,307.19446 489.00646,316.19102 479.988,318.949 493.61763,321.17831 499.17287,310.43146 499.263,297.53 Z"
     sodipodi:nodetypes="cccc" />
  <path
     style="fill:#c6cb24"
     inkscape:connector-curvature="0"
     id="path139"
     d="M 499.275,298.902 C 498.863,304.936 497.373,311.9065 493.006,316.5245 491.4,317.8615 488.971,319.262 486.985,318.967 493.755,313.457 497.87,305.02 499.275,298.902 Z"
     sodipodi:nodetypes="cccc" />
  <path
     style="fill:#ede71f"
     inkscape:connector-curvature="0"
     id="path143"
     d="M 500.951,297.584 C 501.36114,297.62518 501.6754,297.90991 501.879,298.124 504.38406,307.06833 511.06632,316.58083 519.983,319.343 505.59736,320.50028 500.40747,310.5256 500.951,297.584 Z"
     sodipodi:nodetypes="cccc" />
  <path
     style="fill:#c6cb24"
     inkscape:connector-curvature="0"
     id="path145"
     d="m 501.476,298.902 c 0.412,6.034 2.22,12.006 6.587,16.625 1.607,1.337 3.66,2.55 5.646,2.255 -7.335,-5.002 -10.829,-12.762 -12.233,-18.88 z" />
  <path
     style="fill:#97c924;stroke:#97c924;stroke-opacity:1"
     inkscape:connector-curvature="0"
     id="path151"
     d="M 482.856,298.124 C 481.454,303.447 478.178,308.829 474.776,313.114 471.374,317.397 465.056,321.731 460.734,322.19 L 458.57503,323.60341 504.30288,323.93674 504.512,318.89 C 500.958,317.799 497.712,315.623 494.96,312.83 490.978,308.793 488.026,303.447 486.626,298.124 485.57662,297.26607 484.07909,297.23118 482.856,298.124 Z"
     sodipodi:nodetypes="ccccccccc" />
  <path
     style="fill:#93bc30"
     inkscape:connector-curvature="0"
     id="path153"
     d="m 483.445,298.903 c -0.617,9.043 -5.653,20.454 -11.34,22.42 -1.855,0.64 -5.099,0.864 -6.227,1.008 9.948,-4.731 15.828,-15.853 17.567,-23.428 z" />
  <path
     style="fill:#ede71f"
     inkscape:connector-curvature="0"
     id="path155"
     d="M 484.34,297.499 C 483.56274,311.78623 486.18444,323.21906 503.645,321.925 502.505,321.027 501.287,320.21 500.214,319.458 501.925,319.402 503.564,319.208 504.727,318.95 495.36474,315.60522 489.22425,307.33556 486.622,298.124 485.8654,297.38474 485.06375,297.53533 484.34,297.499 Z"
     sodipodi:nodetypes="cccccc" />
  <path
     style="fill:#ccd11e"
     inkscape:connector-curvature="0"
     id="path157"
     d="m 485.446,298.902 c 0.412,6.034 2.277,13.192 6.644,17.81 1.606,1.337 3.66,2.55 5.646,2.255 -6.77,-5.51 -10.886,-13.947 -12.29,-20.065 z" />
  <path
     d="M 467.426,298.124 C 466.024,303.447 462.748,308.829 459.346,313.114 455.944,317.397 449.626,321.731 445.304,322.19 L 454.03462,323.76675 C 465.9641,324.60871 477.87398,325.31342 489.47632,323.86535 L 489.082,318.89 C 485.528,317.799 482.282,315.623 479.53,312.83 475.548,308.793 472.596,303.447 471.196,298.124 469.85792,297.20812 468.51478,297.28169 467.426,298.124 Z"
     id="path5082"
     inkscape:connector-curvature="0"
     style="fill:#97c924;stroke:#97c924;stroke-opacity:1"
     sodipodi:nodetypes="ccccccccc" />
  <path
     d="m 468.015,298.903 c -0.617,9.043 -5.653,20.454 -11.34,22.42 -1.855,0.64 -5.099,0.864 -6.227,1.008 9.948,-4.731 15.828,-15.853 17.567,-23.428 z"
     id="path5084"
     inkscape:connector-curvature="0"
     style="fill:#93bc30" />
  <path
     d="M 468.91,297.499 C 468.13274,311.78623 470.75444,323.21906 488.215,321.925 487.075,321.027 485.857,320.21 484.784,319.458 486.495,319.402 488.134,319.208 489.297,318.95 479.93474,315.60522 473.79425,307.33556 471.192,298.124 470.58556,297.52392 469.80684,297.47862 468.91,297.499 Z"
     id="path5086"
     inkscape:connector-curvature="0"
     style="fill:#ede71f"
     sodipodi:nodetypes="cccccc" />
  <path
     style="fill:#ccd11e"
     d="m 470.016,298.902 c 0.412,6.034 2.277,13.192 6.644,17.81 1.606,1.337 3.66,2.55 5.646,2.255 -6.77,-5.51 -10.886,-13.947 -12.29,-20.065 z"
     id="path5088"
     inkscape:connector-curvature="0" />
  <path
     fill="#c8a400"
     d="M500 224.874l-32.142 55.686L435 337.459l64.298-.007 65.702.007-32.153-55.683L500 224.874zm0 3.002l31.55 54.652 30.85 53.428-63.102-.004-61.701.004 31.56-54.645z"
     id="path188" />
</svg>
