<?xml version="1.0" encoding="UTF-8"?>
<svg width="520" height="320" version="1.1" viewBox="0 0 26 16" xmlns="http://www.w3.org/2000/svg">
 <path d="m26 3-26-3v16l26-3-6-5z" fill="#fff"/>
 <path d="m0 0v16l26-3-2.1216-1.768-21.878 2.5238v-4.7559h19.2l-1.2-1 1.2-1h-19.2v-4.7559l21.878 2.5238 2.1216-1.768z" fill="#c1133d"/>
 <path d="m0 0v16l16-8z" fill="#001c5a"/>
 <path d="m13.082 7.4056v1.1888l-0.69877-0.96178 1.1306 0.36737-1.1306 0.36737zm-1.9872 1.0372-0.19928 1.172-0.52766-1.0653 1.0531 0.5517-1.1762 0.17264zm-0.19929-2.0577 0.19929 1.172-0.85011-0.83103 1.1762 0.17264-1.0531 0.5517zm-1.8135 1.0204v1.1888l-0.69877-0.96178 1.1306 0.36737-1.1306 0.36737zm-2.271 3.5057 0.17705 1.1756-0.83422-0.84698 1.1727 0.19488-1.0633 0.53166zm-2.3879 0.50733 0.9294 0.7413-1.1876-0.05343 0.99221-0.65484-0.41781 1.113zm-1.8622 1.4836 0.6288 1.0089-1.1017-0.44663 1.1538-0.28625-0.76523 0.90979zm0.26342-2.1703 0.45077 1.1-1.0113-0.625 1.1855-0.08878-0.90691 0.76864zm-1.7497 1.1069 0.25999 1.16-0.89219-0.78568 1.1836 0.11121-1.0229 0.60574zm-0.033122-2.3432 1.0787 0.49976-1.1664 0.22971 0.80863-0.87144-0.14197 1.1803zm-0.23425-2.09 0.69877 0.96178-1.1306-0.36737 1.1306-0.36737-0.69877 0.96178zm0.81316-1.9395 0.14197 1.1803-0.80863-0.87144 1.1664 0.22971-1.0787 0.49976zm5.3677-1.5529-0.17705 1.1756-0.54774-1.0551 1.0633 0.53166-1.1727 0.19488zm-2.2488-0.47777 0.41781 1.113-0.99221-0.65483 1.1876-0.053435-0.9294 0.7413zm-2.1968 0.6778 0.28191 1.1549 0.45077-1.1-1.0113 0.625 1.1855 0.088775zm-1.9394-1.0433 0.47152 1.0913 0.25999-1.16-0.89219 0.78568 1.1836-0.11121zm1.8735-1.1579 0.08432 1.1858 0.6288-1.0089-1.1017 0.44663 1.1538 0.28625z" fill="#fff"/>
 <circle cx="4.9443" cy="8" r="3" fill="#fff"/>
 <circle cx="4.9443" cy="8" r="2" fill="#c1133d"/>
</svg>
