<?xml version="1.0" encoding="UTF-8" standalone="no"?>
<svg
   xmlns:dc="http://purl.org/dc/elements/1.1/"
   xmlns:cc="http://creativecommons.org/ns#"
   xmlns:rdf="http://www.w3.org/1999/02/22-rdf-syntax-ns#"
   xmlns:svg="http://www.w3.org/2000/svg"
   xmlns="http://www.w3.org/2000/svg"
   xmlns:sodipodi="http://sodipodi.sourceforge.net/DTD/sodipodi-0.dtd"
   xmlns:inkscape="http://www.inkscape.org/namespaces/inkscape"
   version="1.1"
   width="900"
   height="600"
   viewBox="0 0 900 600"
   id="svg98"
   sodipodi:docname="ic_flag_us_ca.svg"
   inkscape:version="0.92.1 r15371">
  <metadata
     id="metadata104">
    <rdf:RDF>
      <cc:Work
         rdf:about="">
        <dc:format>image/svg+xml</dc:format>
        <dc:type
           rdf:resource="http://purl.org/dc/dcmitype/StillImage" />
      </cc:Work>
    </rdf:RDF>
  </metadata>
  <defs
     id="defs102" />
  <sodipodi:namedview
     pagecolor="#ffffff"
     bordercolor="#666666"
     borderopacity="1"
     objecttolerance="10"
     gridtolerance="10"
     guidetolerance="10"
     inkscape:pageopacity="0"
     inkscape:pageshadow="2"
     inkscape:window-width="1819"
     inkscape:window-height="995"
     id="namedview100"
     showgrid="false"
     inkscape:zoom="0.35222222"
     inkscape:cx="-272.23474"
     inkscape:cy="317.74266"
     inkscape:window-x="0"
     inkscape:window-y="0"
     inkscape:window-maximized="0"
     inkscape:current-layer="svg98" />
  <rect
     width="900"
     height="600"
     fill="#fff"
     id="rect2" />
  <rect
     width="900"
     height="100"
     y="500"
     fill="#b71234"
     id="rect4" />
  <polygon
     fill="#b71234"
     points="150 75 160.1 106.09 192.8 106.09 166.35 125.31 176.45 156.41 150 137.19 123.55 156.41 133.65 125.31 107.2 106.09 139.9 106.09 150 75"
     id="polygon6" />
  <g
     id="g34"
     style="fill:#584528">
    <path
       d="M 162,415 A 12,12 0 0 0 150,427 V 453 A 12,12 0 0 0 162,465 H 168 A 12,12 0 0 0 180,453 V 450 H 171 V 453 A 3,3 0 0 1 168,456 H 162 A 3,3 0 0 1 159,453 V 427 A 3,3 0 0 1 162,424 H 168 A 3,3 0 0 1 171,427 V 430 H 180 V 427 A 12,12 0 0 0 168,415 Z M 196,415 183,465 H 192 L 194.33984,456 H 207.66016 L 210,465 H 219 L 206,415 Z M 222,415 V 465 H 249 V 456 H 231 V 415 Z M 252,415 V 465 H 261 V 415 Z M 267,415 V 465 H 276 V 444 H 294 V 435 H 276 V 424 H 294 V 415 Z M 312,415 A 12,12 0 0 0 300,427 V 453 A 12,12 0 0 0 312,465 H 318 A 12,12 0 0 0 330,453 V 427 A 12,12 0 0 0 318,415 Z M 336,415 V 465 H 345 V 444 H 354 A 3,3 0 0 1 357,447 V 465 H 366 V 447 A 11.9,11.9 0 0 0 363.33984,439.5 11.9,11.9 0 0 0 366,432 V 427 A 12,12 0 0 0 354,415 Z M 372,415 V 465 H 381 V 436.43945 L 393,465 H 402 V 415 H 393 V 443.56055 L 381,415 Z M 408,415 V 465 H 417 V 415 Z M 433,415 420,465 H 429 L 431.33984,456 H 444.66016 L 447,465 H 456 L 443,415 Z M 498,415 V 465 H 507 V 444 H 516 A 3,3 0 0 1 519,447 V 465 H 528 V 447 A 11.9,11.9 0 0 0 525.33984,439.5 11.9,11.9 0 0 0 528,432 V 427 A 12,12 0 0 0 516,415 Z M 534,415 V 465 H 561 V 456 H 543 V 444 H 561 V 435 H 543 V 424 H 561 V 415 H 543 Z M 567,415 V 465 H 576 V 444 H 585 A 12,12 0 0 0 597,432 V 427 A 12,12 0 0 0 585,415 Z M 603,415 V 453 A 12,12 0 0 0 615,465 H 621 A 12,12 0 0 0 633,453 V 415 H 624 V 453 A 3,3 0 0 1 621,456 H 615 A 3,3 0 0 1 612,453 V 415 Z M 639,415 V 465 H 657 A 12,12 0 0 0 669,453 V 447 A 11.9,11.9 0 0 0 666.33984,439.5 11.9,11.9 0 0 0 669,432 V 427 A 12,12 0 0 0 657,415 Z M 675,415 V 465 H 702 V 456 H 684 V 415 Z M 705,415 V 465 H 714 V 415 Z M 732,415 A 12,12 0 0 0 720,427 V 453 A 12,12 0 0 0 732,465 H 738 A 12,12 0 0 0 750,453 V 450 H 741 V 453 A 3,3 0 0 1 738,456 H 732 A 3,3 0 0 1 729,453 V 427 A 3,3 0 0 1 732,424 H 738 A 3,3 0 0 1 741,427 V 430 H 750 V 427 A 12,12 0 0 0 738,415 Z M 312,424 H 318 A 3,3 0 0 1 321,427 V 453 A 3,3 0 0 1 318,456 H 312 A 3,3 0 0 1 309,453 V 427 A 3,3 0 0 1 312,424 Z M 345,424 H 354 A 3,3 0 0 1 357,427 V 432 A 3,3 0 0 1 354,435 H 345 Z M 507,424 H 516 A 3,3 0 0 1 519,427 V 432 A 3,3 0 0 1 516,435 H 507 Z M 576,424 H 585 A 3,3 0 0 1 588,427 V 432 A 3,3 0 0 1 585,435 H 576 Z M 648,424 H 657 A 3,3 0 0 1 660,427 V 432 A 3,3 0 0 1 657,435 H 648 Z M 201,430.38086 205.31055,447 H 196.68945 Z M 438,430.38086 442.31055,447 H 433.68945 Z M 648,444 H 657 A 3,3 0 0 1 660,447 V 453 A 3,3 0 0 1 657,456 H 648 Z"
       id="path8"
       inkscape:connector-curvature="0" />
  </g>
  <path
     style="fill:#584528"
     d="M 725,373.63 C 722.43084,370.50438 717.09116,369.2904 713.98914,366.10704 709.56905,366.32229 708.54873,361.13374 704.62496,360.19556 703.41022,355.23211 697.53293,361.04542 695.59,355.99 693.81466,353.76445 691.5337,354.35009 689.71013,353.11108 687.06165,351.10419 685.38455,355.76392 683.06,353.25 680.83667,352.23812 680.79306,347.18526 677.82138,348.39196 675.98628,349.0597 670.84439,351.84021 672.81,346.48 670.70225,344.14355 668.08879,347.6249 665.78,348.55 664.12857,343.86667 663.44944,339.46085 659.56,341.37 656.84255,337.52259 659.10204,349.82376 655.69,344.81 653.19067,343.91092 652.63842,342.24114 652.95242,339.93791 651.37323,340.52032 648.8338,342.96604 647.20375,340.04875 645.336,344.69791 637.18427,341.46808 632.95273,341.91518 621.28127,340.87247 608.67981,340.57765 597.41,339.13 593.72579,337.00196 590.78117,337.32118 586.97,337.21 584.16272,334.54496 579.5756,337.32281 575.75,334.17 571.62247,333.76748 567.33155,337.92294 563.90208,334.09106 560.42621,330.92108 557.77256,332.97508 553.32995,334.86565 552.3387,329.59766 548.10602,335.09505 545.59,333.29 537.2223,335.32351 523.13241,338.19717 512.3879,338.35592 502.78074,337.1099 483.36652,345.17848 479.79677,332.96316 475.37343,331.062 471.62179,337.70616 467.07652,336.13943 455.78202,334.4395 442.77113,336.90914 432.41,333.48 427.66478,333.02293 419.42487,333.07935 416.06516,331.16844 410.35658,331.51877 403.95067,336.50577 396.04437,333.46531 395.5026,328.16809 388.33402,334.06773 382.07555,333.56503 361.04995,335.0477 340.70933,342.358 319.94067,346.03019 310.02288,349.16359 299.13825,350.98588 290.23,348.06 283.66365,350.17791 282.76685,345.24271 278.45,349.21 274.0317,347.27267 270.55287,353.44106 265.89,353.56 263.7253,353.61589 254.71001,348.61698 256.7,354.74 253.49643,357.81155 247.23195,360.18985 242.95,358.79 238.96736,358.59075 235.33469,360.68075 233,357.3 229.3678,359.22064 229.22541,356.91678 226.53,360.34 225.05093,358.78838 219.0462,366.16097 217.14267,363.91589 212.57505,365.5966 211.01825,365.91172 205.32262,368.90367 200.68575,370.60206 195.53013,372.87499 190.19,372.9 186.05606,374.5365 171.70729,376.27221 177.6025,380.225 191.66114,380.55156 205.75788,380.84312 219.8552,381.38603 236.91447,382.16336 254.07514,383.30975 271.24801,380.73027 301.13636,378.31095 331.08043,382.19026 360.96,383.06 397.4357,387.47823 434.03251,380.45048 470.59469,379.33703 505.07822,376.23773 539.6476,375.39328 574.24547,377.16928 611.57443,379.03509 649.06194,381.22997 686.35807,377.3767 698.16992,374.00137 717.49129,383.0228 725,373.63 Z"
     id="path36"
     inkscape:connector-curvature="0" />
  <path
     fill="#008542"
     d="M705.22 365.22c-2.73-.27-3.4-3.74-6.31-2.63-4.22-.36-5.69-5.4-10.07-5.12-2-.33-4.65 1.34-6.9-.28-3-.45-3.61-5.4-6.85-3.44a5.37 5.37 0 0 1-6.78-2.25c-1.21 3.05-3.3 2.26-5.22.31-1.77-1.38-1.62-6.32-3.43-2.62-2.77 2.86-5.79-.17-7.69-2.28-3.4-3.42-8.47 1-12.75-.5-15.58-1.86-31.87-1-47-4.57-4.07-.21-7.92-1.5-12.06-1.62-3-1.29-6.45-3-9-.06-5.15 2.81-8.56-4.51-13.54-2.54-3.28 1.28-6.5.59-9.46 2.1-2.62.36-3.7-4.44-5.88-1.28-18 3.76-36.63 4.93-55 4.9-4.32-.14-9.77-2.39-11-6.15a11.1 11.1 0 0 1-10.53 3c-11.26-.42-22.51-1.82-33.78-1.12-.4-2.77-4.9-1.45-7.22-2-3.22 1.53-6.39-.27-9.28-1.87l-.16.09c-3.46.57-5.87 4-9.59 3-3.18-.79-6.13 1.31-9.47-.4-3.32-2.13-7-1.56-10.66-.6-21.62 1.39-42.42 8.3-63.65 12.5-8.05 1.43-16.28 4.29-24.35 4.22-3.92-1.69-8.25-2.91-12.28-1.19-5.64-1-10.83.84-15.37 4-3.11 2.63-7.61-1.33-10.19.46-3.8 4.56-10.53 5.88-16.19 5.94-2.31-1-4.31 2.33-7 .75-3.82-2.2-7.53.36-11.18 1.53-4 4.52-10.92 2.75-16 5.94-3.15 1.83-6 3.26-9.54 3.41-4.78 1.42-3.77 1.71.94 1.62 12.47 1.91 25.19-.28 37.59 1.92 21.39.75 42.61-4.1 64-2.27 24.87 1.53 49.84 1.62 74.6 4.44 38.13 0 76.05-4.93 114.12-6.59 37.11-3.47 74.37-1 111.5.59 21 .29 42 2.12 62.94.3 17.3-1.2 34.71-2.61 52-1.45-3.61-3.72-9.53-3.41-12.31-8.19z"
     id="path38" />
  <g
     id="g52"
     style="fill:#584528">
    <polygon
       points=""
       id="polygon42" />
    <polygon
       points=""
       id="polygon46" />
    <path
       d="M 594.14,357.7 C 589.28801,354.19802 582.68041,351.34547 577.94115,354.7713 567.97302,358.10326 588.83779,357.77745 594.14,357.7 Z M 557.72,362.26 C 552.79288,360.48775 550.39621,356.7902 543.9135,357.62129 537.16367,356.78765 528.95954,364.97475 545.41051,362.93292 549.16495,362.38294 555.77823,365.07638 557.72,362.26 Z M 518.47,361.75 C 513.44279,359.0878 488.95701,363.17142 502.2759,364.1391 507.03718,363.44966 515.66127,365.06766 518.47,361.75 Z M 684.9,367.85 C 680.3499,361.50468 664.49799,369.46359 679.43443,368.59852 680.75823,365.72129 684.35252,370.83698 684.9,367.85 Z M 314.16,367.85 C 308.38479,364.46443 303.35098,365.90429 300.75396,369.73364 304.56149,368.86221 312.28051,370.36272 314.16,367.85 Z M 291.33,364.79 C 283.18802,360.08297 275.75941,361.71433 270.69911,364.44871 268.0239,368.60863 292.54562,365.79326 291.33,364.79 Z M 255.34,366.91 C 250.40343,362.08626 238.95366,371.0051 251.89512,368.3368 252.27044,368.73406 256.0893,367.97789 255.34,366.91 Z M 472.55,361.45 C 466.07335,360.00131 466.31385,356.1778 459.26837,358.48876 452.93037,357.01127 448.37707,364.53211 459.27757,362.52085 463.12545,361.28673 470.32299,363.30857 472.55,361.45 Z M 654,364.41 C 645.8653,360.986 644.44716,359.21141 638.07185,360.51477 637.12622,362.17386 625.28335,366.79135 636.92869,365.26212 641.54374,364.4259 653.11905,367.66719 654,364.41 Z M 432.6,365 C 428.30347,359.00092 422.49152,364.52936 418.76616,359.01491 418.97895,357.23556 411.59682,362.76062 411.6,363.51 393.5431,366.11315 431.93437,368.14851 432.6,365 Z M 364.11,364.88 C 358.61533,360.60017 354.82553,362.45422 349.2157,365.26865 340.22227,368.98152 368.94832,367.39631 364.11,364.88 Z M 399.49,353.41 C 392.61986,352.05913 385.01256,348.59585 380.99552,354.21226 379.54424,354.85728 399.56688,355.9492 399.49,353.41 Z"
       id="path48"
       inkscape:connector-curvature="0" />
    <polygon
       points=""
       id="polygon50" />
  </g>
  <path
     style="fill:#584528"
     d="M 650,338 C 651.63197,323.20426 637.78292,314.32892 636.07717,300.66472 632.13654,286.89688 633.69251,271.85229 629.1243,258.01717 621.11467,242.69744 629.14399,225.69954 613.98,213.54 602.61617,199.62758 590.44047,185.13381 572.77758,179.27942 550.83195,167.61669 524.6201,164.39254 500.35403,170.34812 481.03826,173.79428 458.32283,180.83115 441.00194,168.0024 429.64432,162.36667 416.53884,158.95303 404.4825,161.18125 389.13528,160.86618 376.01637,169.69937 363.99092,177.99155 349.4968,186.25443 332.21726,190.27805 320.36151,202.75244 315.1147,202.18027 305.93712,194.84217 303.24127,206.8219 295.85852,213.59424 281.21825,198.62183 281.92126,217.24204 277.76205,228.83902 266.694,239.06112 269.6165,252.11348 266.72688,261.12508 249.02998,269.03848 252.1265,276.61278 256.02655,278.7917 261.15336,282.8013 269.04427,284.65321 270.19619,286.06947 285.88378,271.66523 278.30785,283.03511 279.41557,292.95259 269.32399,282.11287 274.33666,294.48671 285.93438,304.51778 299.47831,283.29281 309.92436,293.76644 313.72586,302.96353 317.95963,288.10757 319.34632,289.58338 322.60368,292.33016 321.1888,281.85805 323.95275,286.07896 324.42321,283.3824 326.30069,287.47364 324.4,281.28 329.72907,287.10401 326.05175,277.07285 330.68091,282.65283 336.72636,278.52443 344.14889,272.23497 352.87983,272.52657 361.81101,266.98941 370.45584,271.44171 363.03604,282.02243 361.2913,302.13441 347.83967,316.63222 336.07231,331.67724 329.58771,345.74847 303.48575,339.79523 300.42041,356.29657 304.11328,352.54605 309.4715,353.60407 304.07351,357.87168 311.27875,352.89703 311.92007,357.54083 312.66,358.35 325.54473,358.51916 341.83141,361.11067 353.07554,353.61477 361.9649,349.42926 368.59604,344.85459 376.73603,337.09674 386.35617,328.70688 398.11091,321.72207 406.2762,311.47385 410.61998,306.04075 418.30607,289.79866 423.35694,304.14635 429.78139,313.91108 450.20514,320.31165 448.12322,332.21147 439.30294,328.73449 422.31019,344.57605 429.37968,344.24088 421.84997,348.2963 436.02694,344.5416 428.11,348.6 437.05804,346.28009 454.42487,348.26874 466.40146,345.15382 472.66439,336.91848 484.35082,323.78737 477.10026,312.498 475.34674,304.25586 460.29517,284.97423 477.87075,290.82667 485.39213,289.09463 494.76286,293.4312 498.79809,292.35476 502.16042,290.81392 507.9191,291.41425 503.57,300.29 501.26316,311.1677 515.95539,339.54679 496.53746,337.87206 487.9728,336.05576 469.06723,346.45543 477.63,351.82 483.73901,350.1032 500.02939,358.24062 511.621,353.25305 529.99281,357.57363 534.3145,344.27944 544.19485,332.25212 552.31706,325.11446 556.56712,320.39176 566.24884,313.85998 573.50245,304.79547 580.1047,304.5492 583.62053,316.06865 592.76421,326.75616 608.82999,326.66652 621.512,331.15793 624.86054,342.31504 603.53247,336.18114 603.30371,343.57385 596.43336,348.3224 599.02538,348.78839 602.12707,347.97433 596.14179,354.63972 608.73032,346.58988 602.63599,352.51267 614.78987,350.35745 629.74408,358.13671 639.72143,347.73318 642.91053,344.10661 650.14822,343.90392 650,338 Z"
     id="path54"
     inkscape:connector-curvature="0" />
  <g
     id="g72"
     style="fill:#ffffff">
    <polygon
       points=""
       id="polygon60" />
    <polygon
       points=""
       id="polygon64" />
    <polygon
       points=""
       id="polygon68" />
    <path
       d="M 288.31651,245.45251 C 287.98418,244.16212 287.5231,244.74066 286.75984,244.91247 283.64279,247.5873 285.04764,249.90158 288.5437,250.38013 288.90767,250.10199 288.97414,249.40984 288.65096,249.09769 286.92122,248.28807 287.18824,246.31092 288.31651,245.45251 Z M 288.71,246.21 C 287.19844,246.71725 287.72411,249.1849 288.74681,247.99722 288.56938,247.56904 288.70353,247.14768 288.88692,246.75268 288.9433,246.55927 288.92248,246.29928 288.71,246.21 Z M 292.49533,247.78392 C 292.30277,247.49425 292.40238,247.10834 292.70944,247.00026 292.67518,246.58093 292.02603,246.67166 291.95767,247.05168 291.95817,248.7767 289.9712,249.57605 289.06612,250.97138 289.24477,251.26997 289.65912,251.08523 289.94146,251.0763 290.81676,250.91428 291.62486,250.39429 292.11839,249.65308 293.21155,248.93274 292.80559,248.34749 292.49533,247.78392 Z"
       id="path4603"
       inkscape:connector-curvature="0"
       sodipodi:nodetypes="cccccccccccccccc" />
    <path
       id="path70"
       d="M 307.51,350 A 5.24,5.24 0 0 0 303.35,352.32 C 304.25,352.32 305.98,351.14 307.55,351.01 A 3.86,3.86 0 0 0 307.51,350 Z M 307.82,355.68 A 21.18,21.18 0 0 1 312.55,353.68 C 312.19,353.31 311.99,352.68 311.62,352.39 310.23,353.16 308.49,354.22 307.82,355.68 Z M 485.05,344.83 C 482.7,345.21 479.9,345.9 479.05,348.27 A 20.55,20.55 0 0 1 485.94,345.98 Z M 313.46,357.13 C 315.55,356.66 317.97,355.7 320.46,355.58 L 319.46,354.17 C 317.14,354.36 315.78,354.57 313.46,357.13 Z M 613.12,348 C 613.12,347.87 613.12,347.86 612.99,347.94 610.57,348.28 608.69,348.94 607.47,350.45 A 31.52,31.52 0 0 1 613.05,349.09 C 613.24,348.89 613.08,348.1 613.12,348 Z M 606.24,344.08 A 0.75,0.75 0 0 0 605.46,343.96 C 604.46,344.62 603.35,344.96 602.96,346.15 A 26,26 0 0 1 606.83,344.61 C 606.65,344.46 606.46,344.24 606.24,344.08 Z M 610.81,346.16 V 345.58 L 610.33,345.68 C 608.22,346.23 605.53,346.68 604.44,348.68 606.19,348.27 608.44,347.2 610.44,347.13 610.81,347 610.81,346.91 610.81,346.16 Z M 482.71,342.87 A 5.43,5.43 0 0 0 477.98,346.17 23.61,23.61 0 0 1 483.59,343.74 Z M 309,351.41 A 5.26,5.26 0 0 0 304.58,353.41 C 306.11,353 307.93,352.15 309.47,352.16 309.57,351.83 309.19,351.51 309,351.41 Z M 487.34,346.3 C 485.67,347.09 483.54,347.63 482.76,349.47 483.96,348.95 486.33,348.03 487.94,347.47 Z M 486.39,350.63 C 488.34,350.77 490.21,350.11 492.24,350.86 V 350.11 C 492.24,349.62 492.24,349.35 492.14,349.33 490.11,349.35 488,349.21 486.39,350.63 Z"
       inkscape:connector-curvature="0" />
  </g>
  <path
     style="fill:#b71234"
     d="M 292.24,274.89 C 290.34996,274.82921 285.27323,273.83571 283.55959,276.17134 284.56501,279.95815 280.3604,281.78361 279.19522,284.6468 282.48223,290.63421 288.71361,280.36676 290.56947,279.5481 291.23334,278.52553 292.29379,276.49403 292.39093,275.3322 292.449,275.1726 292.44653,274.93669 292.24,274.89 Z"
     id="path74"
     inkscape:connector-curvature="0"
     sodipodi:nodetypes="cccccc" />
  <g
     id="g96"
     style="fill:#bd8a5e">
    <polygon
       points=""
       id="polygon80" />
    <polygon
       points=""
       id="polygon90" />
    <path
       id="path94"
       d="M 597.66,264.09 C 595.65211,261.50324 598.63011,253.51802 596.33367,253.71243 595.57669,254.98952 595.567,246.44142 594.66342,251.26006 593.93034,254.63727 596.4291,261.70044 594.66297,262.86537 594.69704,261.17871 593.658,255.20683 593.48966,259.95383 593.68315,261.7506 592.38776,265.98531 592.3386,261.72439 592.31786,259.62662 590.28629,253.76757 590.7946,259.0831 590.4851,261.90147 590.5525,267.84174 589.29958,268.75782 588.1716,266.24669 590.00192,261.23633 587.71,260.1325 587.45978,263.85167 587.71541,270.60035 587.51837,272.4371 587.15428,270.01081 587.56737,265.22356 585.88799,264.41377 584.5014,266.82899 586.72862,270.82946 584.42125,272.45625 583.68806,270.57224 585.466,264.8284 583.44866,265.58287 582.86633,267.29514 583.23331,274.13676 582.56025,269.22767 581.63864,265.35664 582.69345,273.26131 581.30318,274.40909 579.75065,276.00991 582.53601,266.61218 579.49383,268.28561 578.95636,271.21196 578.60438,277.14929 578.09167,278.17298 576.95987,274.53337 579.23553,268.0069 576.89858,266.04534 575.80183,267.75079 576.71388,273.49883 575.38947,272.52531 576.06108,270.50508 573.21605,264.10634 573.91643,269.48267 574.04872,271.55945 575.17062,274.36396 573.19567,273.96491 572.72827,275.81053 572.93322,281.26879 572.0126,276.21676 572.00062,273.86645 569.13742,268.2542 569.96141,273.37903 569.30656,276.72373 569.33308,279.94971 568.95304,283.26461 568.07654,281.43648 568.96466,276.65776 567.4063,276.40168 567.74216,277.70925 567.34489,284.54669 566.66,280.03 565.0992,275.97266 566.03465,284.17812 565.92657,284.25078 564.63753,283.06894 564.11917,278.79063 564.38899,282.98945 564.33019,286.71745 563.14429,279.19626 562.43944,282.96232 562.74503,284.31478 564.58671,291.11393 562.51406,287.29088 562.82572,285.62475 560.86528,280.25976 561.14955,284.61645 562.55687,286.30035 560.67618,291.42564 560.13671,287.51931 558.166,283.05696 559.38082,294.04561 557.64615,288.47243 555.92288,289.10483 557.80322,296.03533 555.83065,295.03516 557.0401,293.48903 555.26405,286.29479 554.50969,291.30906 554.36776,296.89057 554.4278,302.55135 555.78,308.00125 557.40401,305.43117 555.56025,297.60203 557.63534,298.0578 557.80775,300.06015 559.27157,305.41071 559.36733,300.42353 559.56801,298.37203 559.04765,292.19758 560.30012,292.99006 560.37962,294.96619 560.18379,298.90922 561.66689,295.34515 562.92768,294.57021 562.04649,290.55838 563.91,293.31 565.11435,286.93875 564.56609,300.62681 566.29448,295.35192 566.66581,292.14418 567.09714,294.65738 567.46025,295.47297 569.00456,293.9039 568.58536,287.63778 569.69199,288.0631 568.65862,289.97753 570.30714,297.13653 570.404,291.58901 570.0438,289.84819 571.513,284.86931 571.69,289.44 570.93144,292.72591 574.24234,291.82685 573.25936,289.09629 572.90749,287.42841 574.17707,284.31379 574.53219,287.68484 574.61759,289.43354 575.65932,297.24576 576.32412,291.98122 576.25826,289.44258 577.93293,295.5622 578.17175,291.26327 579.63523,291.29166 579.06318,282.11303 579.47849,282.6982 579.71809,286.07689 578.64788,292.63672 580.12487,294.00359 582.8512,290.10271 580.25163,284.75858 581.9634,280.83487 582.26409,281.5614 582.23725,288.02656 583.60618,284.89057 582.71159,282.54582 585.00433,280.59756 584.87841,284.11261 585.25661,286.8892 583.16043,292.28549 584.33471,293.29594 586.93818,288.16149 586.30467,282.23129 585.97,276.69 586.57911,279.12873 586.49258,285.33859 587.92799,285.23038 588.44014,282.70016 588.65763,280.96944 588.76501,284.51102 589.47464,285.1472 591.45929,283.89657 590.56703,286.00688 594.56066,282.51594 590.60369,275.20978 593.19023,272.10638 592.98325,274.54193 591.97234,283.04883 596.07074,278.82582 597.84709,276.40485 594.19888,269.87253 596.47087,269.69969 596.74601,271.27096 596.40336,277.1293 597.91378,272.82371 598.88506,269.99968 598.59838,266.88137 597.66,264.09 Z M 571,282.16 C 569.69279,280.20078 571.31783,276.36773 571.24493,280.59067 571.24294,281.12212 571.16045,281.65329 571,282.16 Z M 575,279.81 C 574.40882,280.89864 574.48232,285.78519 573.90158,282.01845 573.71932,280.86814 575.35974,276.06579 575,279.81 Z M 576.75,286.97 C 575.96462,283.77706 577.40921,283.66488 576.75,286.97 Z M 589.84,278.63 C 589.09059,277.26796 590.10847,273.6512 589.93205,277.51949 589.91295,277.86722 589.95183,278.33667 589.84,278.63 Z M 591.16,281.91 C 589.30093,280.03113 593.51062,278.86845 591.16,281.91 Z M 594.63,278.44 C 593.4996,276.32346 595.29186,269.12634 595.11155,274.85512 595.13728,276.0635 595.02974,277.29228 594.63,278.44 Z M 599.59,266.94 C 599.16565,265.38086 599.82686,258.57848 600.35875,263.6775 600.73624,266.15479 600.17143,272.82401 601.11134,272.57489 601.72409,268.5335 600.97908,264.40639 601.75,260.38 602.90338,264.30731 601.05321,271.76866 602.88408,273.59282 603.34972,269.79528 605.37589,266.26452 605.36284,262.47883 604.84423,260.78726 605.48315,253.64218 605.95347,258.51632 605.39572,260.59684 606.56527,267.48141 607.61704,262.27215 608.1117,259.79769 608.30566,254.96883 606.5807,255.71523 605.46665,253.79123 607.79456,248.0435 608.0501,253.02567 608.75321,254.4255 608.19694,261.3671 610.09857,258.99757 610.381,256.7803 608.7773,251.45483 609.83757,251.24109 609.96587,254.60555 612.44714,253.75547 611.62765,250.6813 611.72829,247.88215 611.28114,240.9494 612.17305,240.86163 613.16024,245.11142 611.5923,250.0426 614.24715,253.81857 614.68754,250.79226 612.66432,242.74217 615.19273,243.16611 614.98401,244.97383 616.80387,250.72608 616.52555,245.92497 616.1255,243.72814 615.62211,238.37336 614.28655,238.64415 614.24615,241.48902 612.5443,241.15521 613.31778,238.57991 614.50024,236.53922 612.79182,233.08164 612.32436,236.92686 612.23717,238.53238 609.15188,238.07883 610.6137,240.6705 610.82304,242.83187 609.15118,247.89258 609.76551,242.82672 609.37698,238.45178 608.96898,232.06435 608.41178,228.96633 605.85016,231.21389 607.92922,236.29685 608.73812,239.60929 609.15893,241.5229 606.11835,237.38064 607.00125,240.55 602.88536,237.54066 605.98714,245.73671 605.41717,247.81894 605.65639,249.28656 604.78872,254.65941 604.61,250.44375 605.62155,245.65394 602.74807,241.06109 602.6693,236.32731 599.80414,238.31359 602.74967,242.47977 603.38328,245.24387 604.42827,250.57343 602.9224,255.99661 603.68235,261.35372 601.86644,257.20306 602.54988,252.65228 602.886,248.33245 602.93014,245.84699 601.19029,239.50085 599.88728,240.09628 600.40936,245.20308 602.46726,250.50366 600.7777,255.56154 601.23014,254.52771 598.28954,247.72856 598.18257,252.8652 597.21643,258.17239 598.03798,263.58162 599.14179,268.79147 599.35773,270.85727 597.2425,277.0231 599.11975,276.58767 599.80325,273.41888 599.61481,270.15657 599.59,266.94 Z M 607.94,243.56 C 608.89004,246.53104 607.14657,245.94189 607.94,243.56 Z M 606.22,243.63 C 608.29833,245.03355 606.6004,251.52881 606.31459,246.34515 606.35331,245.43418 606.07311,244.53355 606.22,243.63 Z M 604.56,261.78 C 605.42699,264.58388 603.66112,264.94214 604.56,261.78 Z M 603.44,263.88 C 604.14625,266.24639 602.65415,266.51403 603.44,263.88 Z M 553.06,295.88 C 552.1528,290.43225 550.79157,302.79127 550.87903,296.54166 551.38044,294.42612 548.0746,288.07161 548.78327,293.13658 549.50868,294.57624 549.33325,301.0788 548.08579,298.77716 548.22375,297.15331 547.2966,291.72378 547.28,296.25 547.20791,298.30448 545.65188,302.61395 545.80825,303.50312 546.35993,301.36665 544.85473,296.21568 544.42386,301.10173 544.609,302.86123 543.34558,305.71616 543.78054,302.17883 543.11345,298.37686 541.66051,302.62457 542.75946,304.2563 541.32684,306.28064 541.31993,311.40421 537.94278,309.33589 536.33436,313.1155 536.12515,317.75807 537.18,321.78 538.70672,318.93202 536.36962,314.95517 538.64453,312.56719 539.31976,314.20263 537.58374,320.91271 539.96819,318.9761 539.99239,317.41863 538.99135,309.94459 540.9562,314.23119 541.00782,316.54711 542.29097,318.44914 542.27763,314.86759 542.32219,313.19251 542.84285,306.54427 543.80801,310.84164 544.84405,309.80216 544.95687,303.73259 545.63045,308.18529 546.77443,313.63858 547.39417,304.62581 547.86249,303.01457 548.09207,303.20735 547.92128,308.58057 549.89725,305.56313 550.52394,303.90118 550.62902,298.80279 550.67932,303.31761 550.40196,305.65006 552.22769,308.42603 552.67452,304.46574 553.60545,301.71792 554.05981,298.67947 553.06,295.88 Z M 545,247.09 C 545.41522,244.11562 542.71917,247.77645 544.84701,247.25607 Z M 305.91,255.32 C 309.37896,254.46097 302.04611,253.09049 305.91,255.32 Z M 554.75,271 C 557.37045,259.6042 557.00491,270.08584 558.21524,275.35486 559.35821,272.81202 558.42976,260.94941 560.49312,270.24809 561.17416,265.95216 560.54632,252.56711 561.29891,263.92803 564.36892,278.37921 560.08956,246.93619 566.56188,252.93565 567.2294,261.1908 566.16458,248.00577 569.30237,252.04797 570.13681,249.975 572.5674,239.80917 573.2389,247.44965 575.3032,236.98221 577.90213,263.66349 576.64637,248.31224 574.35021,242.42403 581.6088,228.97881 584.9418,240.65124 582.53635,234.69026 585.00667,222.46321 586.65962,235.49369 588.54275,237.95718 584.89306,210.50692 591.69049,225.87267 593.63563,230.74946 597.15297,235.62276 594.20381,227.34558 591.34448,222.0546 593.17656,218.12675 595.14025,225.5725 593.21605,219.67024 596.0612,213.53373 597.76517,222.66117 600.61269,223.61975 593.91943,210.21907 599.14396,218.99034 597.53293,214.44214 596.59436,203.79912 600.72892,213.72681 606.24791,218.03404 597.11701,202.1125 594.93566,200.03667 591.15874,197.80565 584.6561,189.32094 585.56687,193.56338 584.10934,190.99969 582.93688,197.55076 581.14218,191.03504 586.15271,202.31008 574.03168,184.43038 576.60873,193.72809 568.31142,190.26802 573.33263,191.82722 575.84909,196.9764 571.26769,195.63768 575.06956,194.40193 575.53528,201.08245 574.22852,196.10934 565.16045,189.7176 571.27708,198.78227 575.58143,202.70183 566.11872,193.01268 571.08891,201.12452 566.70054,200.68529 579.69391,213.97388 570.44222,208.11157 571.28254,212.75567 572.44051,219.49603 569.22169,211.45488 561.42836,202.10081 569.41071,212.71981 568.76916,217.40705 560.12215,212.5979 561.75814,203.18683 565.54731,200.08025 562.511,196.97293 562.71343,183.1925 557.47879,189.71983 560.08068,197.40818 555.07646,184.05585 555.0858,191.23215 552.32968,184.31887 551.98108,196.43642 549.26965,186.7983 545.42674,182.68927 554.22388,199.20251 550.31191,196.33556 551.7582,200.91655 542.99285,189.21699 549.03236,198.27544 549.37497,206.01368 549.7032,209.60588 550.14087,217.73417 548.23925,210.80049 544.12529,208.51323 547.92486,216.89894 551.90077,222.50456 553.74797,237.31348 554.68718,238.15789 559.17154,234.58137 558.25202,251.72879 554.80724,241.32929 548.34931,236.25328 555.73672,249.95591 550.44491,242.99548 552.9185,255.45725 545.99339,241.75253 544.83908,237.54624 543.30309,240.93274 551.63556,256.78824 546.87876,248.25158 548.78121,253.14046 541.83145,252.52033 543.53598,257.351 538.45843,256.7671 534.50061,236.55824 540.27877,249.04688 540.03392,242.6409 540.03063,239.51391 543.10667,247.20118 543.6873,245.49582 541.81065,236.18387 544.14047,242.83766 541.73041,238.59116 544.54255,228.50429 547.14742,237.6039 544.98626,230.62372 547.68014,225.65701 548.31964,235.5338 551.3666,243.96119 548.55818,226.71302 551.43203,233.76682 549.82995,231.07241 547.30555,213.40827 545.93126,221.35258 543.52434,213.0118 543.04618,234.8724 539.74294,221.9879 541.14393,227.50855 540.40497,234.06353 538.1063,225.01163 539.39308,230.12386 539.23373,237.05309 536.58013,229.04891 536.60627,232.7817 537.36383,239.35394 535.07284,232.18538 533.49707,234.25283 534.72498,244.93292 532.21455,237.18287 531.40324,240.64959 530.06814,251.075 528.19353,242.19302 529.49653,247.23704 528.65007,254.65744 526.2526,245.73049 527.2533,251.26214 527.69376,257.3178 524.89545,248.76733 524.70033,252.44413 525.2072,259.31227 523.39094,251.86281 523.57167,254.95297 522.04495,268.15461 520.30546,258.91541 514.29192,267.05689 526.47171,282.43371 524.88071,266.49688 525.64089,257.38327 530.70764,279.71321 528.52522,265.7228 527.76344,254.53771 535.85686,275.08255 528.99241,277.82965 523.52212,269.82442 526.0015,275.88805 528.15298,280.65859 524.39827,272.7722 527.3623,290.64968 522.09194,283.87545 522.63436,285.41217 523.17275,291.63354 521.32774,285.47846 523.10298,292.35384 517.53959,296.17702 518.10966,286.62246 514.78168,276.37357 518.65645,306.40193 516.16885,292.45982 514.46424,279.58677 516.06577,304.04089 513.24187,294.88322 505.74188,303.53892 508.3128,312.07317 511.01171,322.42217 511.48918,326.82171 508.82563,329.87375 511.61208,324.19128 512.19537,330.83629 512.59827,330.62909 513.7111,323.8063 515.6995,327.53317 515.47722,323.69705 515.14539,329.73126 512.67264,336.40226 516.78189,340.72426 517.8912,332.10204 514.77037,326.2584 518.42202,324.84711 519.61038,329.39945 521.2259,324.75611 515.42817,310.07364 519.68171,311.133 520.57257,312.8122 520.45604,306.24412 523.73996,313.15941 524.80063,313.07495 521.47738,308.1725 524.2054,308.38313 526.52254,318.39073 527.92844,300.37629 528.20196,301.11445 526.27141,293.39666 534.2467,314.0944 528.3524,307.81089 527.87489,310.94795 529.95282,322.32637 530.72625,313.5125 530.79839,322.61581 533.11721,311.10553 532.30968,309.8897 530.68005,304.98043 531.71746,289.13859 533.37967,302.47206 533.34598,307.41852 535.07591,326.58225 535.04387,312.06594 533.53967,304.80957 535.22475,285.75926 541.72199,291.66989 541.61504,288.4765 542.49032,275.49513 546.10604,284.12073 544.42749,273.67554 547.18925,281.51186 548.61763,286.89107 549.07323,283.11649 548.28919,267.92223 551.02261,279.38433 552.73292,277.81261 550.83701,263.95656 554.75,271 Z M 583.34,232.47 C 578.29826,227.54334 582.77755,224.09784 583.34,232.47 Z M 581.5,217.62 C 582.72676,215.22823 582.44212,219.70122 581.5,217.62 Z M 581.91,223.44 C 580.46242,222.95534 583.38989,221.88878 581.91,223.44 Z M 582.31,215.72 C 588.24201,219.7689 583.62564,228.73691 583.29142,218.21513 582.96428,217.38342 582.63714,216.55171 582.31,215.72 Z M 579.5,194.41 C 582.74568,198.7321 580.15301,199.09823 579.5,194.41 Z M 578.25,229.19 C 581.40007,230.34883 576.69436,233.6125 578.25,229.19 Z M 575.44,206.69 C 570.32484,204.94206 574.69122,203.54284 575.44,206.69 Z M 573.37,239.84 C 570.79373,235.58078 574.9527,236.80207 573.37,239.84 Z M 574.09,228.56 C 571.84115,227.40262 576.56947,227.52596 574.09,228.56 Z M 575.09,237.62 C 572.97975,235.22456 577.92072,235.37591 575.09,237.62 Z M 576.97,232.37 C 580.32217,239.78447 574.47378,230.85669 576.97,232.37 Z M 576.84,223.25 C 573.41456,222.62332 579.17426,217.84158 576.84,223.25 Z M 572.5,210.91 C 577.40805,215.89395 573.94653,216.27622 572.57287,211.11284 Z M 572.97,220.75 C 575.33003,222.02464 570.44776,221.77998 572.97,220.75 Z M 571.25,237.16 C 573.38183,239.13862 568.75711,239.84079 571.25,237.16 Z M 569,237.94 C 566.53146,234.52513 571.06324,232.52557 569,237.94 Z M 568.41,225.69 C 572.35038,227.05754 566.3736,229.64549 568.41,225.69 Z M 561.41,198.37 C 564.78031,198.77599 560.95344,200.8418 561.41,198.37 Z M 558.56,260.72 C 557.30792,258.4967 559.95414,256.51926 558.56,260.72 Z M 559.13,248.5 C 556.02163,246.73729 561.73219,244.83259 559.13,248.5 Z M 563.72,240.34 C 559.01375,233.67268 564.08847,226.06867 563.72,240.34 Z M 560.16,218.84 C 563.96094,223.62326 561.1148,226.97843 560.16,218.84 Z M 564.28,224.31 C 559.94979,219.75646 560.56552,208.27237 562.72386,219.90091 563.39706,221.30289 564.17917,222.71814 564.28,224.31 Z M 566.5,239.37 C 565.25042,238.09679 567.55374,237.03585 566.5,239.37 Z M 567.5,242.37 C 568.85879,243.81829 566.02763,244.22753 567.5,242.37 Z M 566.5,228.28 C 569.24795,229.68443 564.30303,231.11735 566.5,228.28 Z M 560.06,207.78 C 565.80451,211.58857 564.69246,224.60545 562.06658,212.0344 561.60161,210.66466 559.31096,209.43814 560.06,207.78 Z M 558.84,211.5 C 562.13922,213.41786 557.81251,213.79217 558.84,211.5 Z M 559.91,233.81 C 556.51755,231.12621 560.97605,231.25048 559.91,233.81 Z M 556.44,214.53 C 560.61756,216.45717 557.94702,220.33947 556.44,214.53 Z M 555.44,217.12 C 560.98434,222.14236 557.88088,228.18962 555.44,217.12 Z M 558,228.47 C 553.39393,224.68881 560.38223,227.21885 558,228.47 Z M 551.81,213.38 C 554.37963,216.45103 549.88621,217.83472 551.81,213.38 Z M 554.28,231.16 C 548.22058,210.17093 559.25737,241.10014 554.28,231.16 Z M 555.81,228.41 C 552.20303,221.98271 554.84962,217.02376 556.76233,226.38798 L 556.66632,227.58027 Z M 556.72,230.75 C 561.36481,233.51205 560.28793,244.24336 557.37881,234.84812 L 556.85301,232.82934 Z M 509.5,311.31 C 505.76388,318.10202 510.54452,307.0089 509.5,311.31 Z M 511.31,311.16 511.1699,309.73823 Z M 512.62,313.91 C 511.47087,308.98416 514.29407,309.65903 512.62,313.91 Z M 516.31,307.41 C 517.61441,308.76705 514.91112,309.35925 516.31,307.41 Z M 514.72,308.19 C 514.60312,299.35737 516.42674,311.04818 514.72,308.19 Z M 516.62,313.91 C 516.38292,324.31572 514.77329,310.40002 516.53623,313.55979 Z M 517,320.56 C 515.61041,318.9222 518.76257,317.47305 517,320.56 Z M 519.31,305.28 C 517.0418,303.1031 522.048,301.06132 519.31,305.28 Z M 524.44,303.66 C 521.59003,300.35749 525.42032,300.08947 524.44,303.66 Z M 529,298.06 C 526.37572,297.13479 530.28438,295.4479 529,298.06 Z M 533.72,247.47 533.98029,248.9565 Z M 532.97,244.72 532.54505,242.95878 Z M 535.69,266.44 C 536.59643,261.54743 531.38768,254.97209 533.83799,263.55363 536.60941,274.30858 527.8735,263.34171 531.29682,260.09373 532.9414,266.14721 530.16286,245.29862 534.91773,256.97096 536.45411,244.92057 539.08391,262.37567 535.69,266.44 Z M 537.22,285.81 C 536.30582,281.02242 539.72854,290.64112 537.22,285.81 Z M 541,284 C 538.38019,284.33883 541.63829,281.40884 541,284 Z M 543.16,262.78 C 541.06166,257.44804 538.60048,269.9644 538.31372,259.43157 536.43331,243.06412 540.77752,257.31018 543.16,262.78 Z M 550,268.78 C 547.79194,266.53821 551.88005,267.20703 550,268.78 Z M 552.47,254 C 549.30823,252.05588 554.55815,252.40035 552.47,254 Z M 554,262.72 C 552.47834,261.42434 556.00516,260.56481 554,262.72 Z M 554.16,249.85 C 553.01088,246.07332 556.89359,245.18915 554.16,249.85 Z M 507.13,241.38 C 506.76403,235.80447 511.47203,216.43344 514.94392,230.37795 516.19239,224.15741 516.80887,223.41426 515.37586,215.86504 523.68686,223.363 509.10507,198.44136 518.73847,210.25024 521.81247,203.77247 509.47001,196.81126 511.25409,200.14987 509.29443,195.85873 505.23499,187.71771 508.44472,197.32057 512.9194,208.52027 507.34832,202.92117 506.49073,195.31124 504.95377,190.27235 500.52918,183.11626 503.34989,192.53976 500.25567,189.28314 494.67015,178.90259 498.61722,189.16191 494.55253,185.54678 495.02441,186.38791 494.48314,188.00465 491.54388,183.20705 489.73165,180.57313 488.60322,181.82402 486.05335,184.0236 479.12481,183.477 479.79527,185.01396 476.34907,190.16855 473.09982,176.43112 471.4936,186.27323 466.56416,187.69851 464.74458,179.56964 464.95738,187.977 461.31269,186.31039 463.22704,191.73938 456.78692,189.39436 456.26873,181.76446 445.71765,185.34526 448.96545,192.37689 447.9972,187.4114 445.13652,187.42173 444.05965,189.09954 443.66415,185.72295 446.38373,173.06656 439.80603,177.73938 446.53108,168.33239 427.4175,185.03819 432.78905,173.65902 428.90549,167.51782 420.37761,175.8158 415.45865,171.6396 410.61507,171.42972 417.55985,165.12795 412.46816,171.7931 406.20395,174.78715 409.23781,166.08069 405.00163,173.43136 401.40935,177.04811 394.5666,187.95229 398.52525,176.7144 399.57529,169.1367 388.77244,193.58968 386.99248,186.63803 386.89865,195.15767 383.14629,179.61201 384.82311,189.32778 382.68894,199.24029 378.43741,187.81506 379.20709,188.87522 383.4411,200.33412 365.02819,199.21932 372.57312,211.09758 373.56994,218.72574 376.30884,228.05399 381.14472,224.68039 379.79976,232.24865 384.66851,219.99332 384.69743,228.74589 383.23445,219.58793 389.01318,233.44609 389.06984,226.35766 390.58527,231.34663 402.36303,243.89033 398.17609,242.60519 395.47205,236.55906 389.29547,231.1346 395.72213,240.78534 399.77151,250.21511 393.33414,250.26448 392.68428,251.13104 393.03841,264.21681 378.6022,240.6154 386.15985,254.35226 386.15634,257.43484 381.24128,272.62626 378.82197,261.52151 376.51392,261.138 379.44393,270.48492 376.43119,271.5595 377.7108,277.76755 372.2119,279.21776 371.50489,280.49201 372.66536,289.84781 368.41948,275.87589 370.62473,283.27287 371.20832,292.72904 363.16875,286.62091 364.15523,296.0287 361.74621,301.94445 360.95423,316.35246 358.09301,317.0077 354.77527,308.35807 355.02935,325.68137 349.95694,319.32923 350.54335,326.51606 336.15886,326.35542 346.04045,331.26969 349.58314,329.16282 352.81176,328.15446 353.16321,330.12512 354.91524,322.93393 358.83712,338.44306 359.30603,330.51232 361.70358,338.72516 358.95086,326.99393 362.77534,328.39791 364.99834,322.73693 366.98214,329.60337 367.92286,322.96666 372.20893,321.07305 381.31824,313.39071 374.92626,309.76416 371.55719,309.83394 371.71208,310.51214 370.62762,315.92669 368.76677,320.07838 367.57559,311.71115 365.50679,317.65587 360.43161,315.84089 366.21641,296.51304 366.5337,310.3818 367.49006,299.75691 369.02778,313.39749 369.10269,308.63397 367.97723,298.70024 380.87259,295.83346 382.71063,293.80365 383.65447,287.50213 388.16853,289.11751 391.12154,281.77163 397.54838,279.69714 396.07491,303.4525 390.95007,289.55452 395.93121,297.28205 379.41651,300.68562 384.80872,307.87757 387.59338,303.19069 392.1144,310.04277 391.05158,301.37986 393.85473,302.00505 396.13958,307.23586 395.24761,299.73209 396.91548,305.47128 398.93704,292.23144 403.95372,295.48453 403.30756,287.82187 407.6324,297.5288 407.34864,288.54415 408.43971,282.23974 410.88044,286.43937 411.98666,279.74181 417.84577,274.33397 411.86205,267.74132 408.00535,276.22722 405.83007,282.05831 399.32619,292.2422 398.20154,284.43548 401.35507,300.08706 389.51492,279.51214 394.95901,278.65061 395.94648,284.73187 397.09631,268.27724 400.41421,278.41403 397.07791,272.48091 398.48102,267.62492 404.12905,272.23694 404.02941,267.18033 401.39039,268.91839 406.83347,266.0136 410.42064,265.13778 411.85562,271.31566 410.27583,263.57077 408.27145,258.63652 410.71635,254.15515 413.41229,260.74222 407.39574,252.42649 418.13511,254.55918 413.10775,246.70773 414.56356,240.03591 422.85557,245.57404 414.90225,239.12668 423.5493,243.1774 407.82088,218.0296 419.78324,229.53385 425.05194,232.43476 422.0173,221.48603 425.2682,230.16855 433.01411,238.25601 420.22999,214.66829 428.63233,224.33096 429.48237,231.39621 426.36294,211.29645 430.98345,221.33623 438.27729,230.52535 426.51574,204.75725 436.73286,215.72023 438.20258,220.01575 437.28542,231.19279 441.48156,221.68687 443.48326,211.27719 450.38883,234.47473 446.56612,220.34769 440.90598,212.35846 449.55972,209.15007 452.96032,217.32625 457.81298,222.05892 454.4141,228.71676 450.60023,220.35188 451.08057,221.32752 454.99663,236.74806 447.95079,236.08368 447.36938,246.32377 445.25387,224.85564 444.69858,238.04832 443.74192,247.05412 440.18374,241.17286 440.6535,236.17202 437.03634,242.88671 438.12097,221.70622 436.76827,234.7725 432.952,236.69327 430.51644,226.54996 433.33834,235.90305 436.8733,244.59888 428.25626,234.3691 430.18062,242.62207 424.08459,233.53706 430.25971,253.67856 427.77997,257.92827 429.29103,265.06556 429.00327,276.5777 432.76952,276.34412 434.62088,279.58206 434.46168,269.50038 435.3999,277.92495 435.75561,282.70035 438.15743,271.25335 439.56447,278.94786 441.55257,272.55403 442.39053,286.94747 443.09566,276.98111 442.69,272.88635 445.75772,287.56745 446.0671,275.94606 447.10967,283.20461 449.38898,271.67413 448.12397,279.47481 448.2094,284.72146 452.70595,271.2692 451.18339,281.17385 454.62175,279.81339 453.8467,275.16908 454.4446,281.68469 457.52647,276.50179 456.18714,278.74698 457.52731,282.26989 459.23758,274.93409 457.98925,276.64631 461.81735,280.86815 466.06246,276.81686 464.34818,276.25946 465.96584,281.12855 467.20693,274.93977 471.54069,277.24998 471.1497,278.32567 472.24849,276.11922 475.27398,267.77716 476.08625,274.9625 474.76994,271.37238 478.11078,267.8202 478.06184,273.77268 481.7562,262.71368 484.5735,282.18883 485.02022,271.39157 486.62661,270.00057 487.26454,273.3087 488.57354,267.95942 490.6755,265.43554 490.30939,272.36005 491.2571,266.00334 494.74453,263.72599 493.0313,274.19976 495.47144,264.48387 499.16449,256.5595 492.17778,264.59828 492.89534,257.24348 490.33928,252.27083 491.49779,266.52097 488.94575,258.13268 485.64024,249.62676 485.47212,266.09803 484.00149,257.87973 481.78581,270.8105 480.80783,240.82759 484.58643,248.85091 485.62343,240.35557 488.95138,254.14286 486.44722,244.23633 485.83912,239.70865 488.76685,231.59045 490.50621,239.87368 489.8373,232.70665 489.75435,231.27114 494.37695,235.6929 494.19356,237.42668 497.75523,226.55285 499.08771,237.34913 501.8138,237.595 499.80049,239.76477 502.118,241.25741 503.09555,234.74852 505.67859,230.15403 505.35411,239.64721 505.11356,240.68202 506.16496,244.61314 507.13,241.38 Z M 514.06,219.81 C 519.335,226.66142 510.11885,218.55224 514.06,219.81 Z M 512,208.34 C 519.88182,211.25636 512.02343,217.53483 512,208.34 Z M 510.87,212.34 C 514.28191,215.42138 509.4732,217.41671 510.87,212.34 Z M 509.44,207.18 C 511.95594,207.74919 507.50761,209.33883 509.44,207.18 Z M 374.34,213.9 C 370.05478,210.14594 377.02828,201.6845 374.34,213.9 Z M 375.84,209.4 C 373.15663,205.28186 378.67893,205.07779 375.84,209.4 Z M 376.66,201.93 C 372.05698,198.57599 379.92937,196.7727 376.66,201.93 Z M 380.75,207.21 C 376.87068,203.58934 382.1781,201.04721 380.75,207.21 Z M 356,321.19 C 353.89764,319.30703 358.84166,317.88463 356,321.19 Z M 361.81,317.03 C 358.56109,313.41595 365.23266,311.66478 361.81,317.03 Z M 362.81,307.91 C 360.51005,311.35715 363.73354,300.06841 362.81,307.91 Z M 380.13,272.75 C 373.93063,270.26691 379.94327,266.9066 380.13,272.75 Z M 394.19,274.53 C 392.79484,269.54159 397.12963,278.11426 394.19,274.53 Z M 419.47,179.28 C 421.92464,181.57079 417.31224,179.93438 419.47,179.28 Z M 418.78,174.91 C 420.9603,178.64347 414.64075,178.07515 418.78,174.91 Z M 416.97,174.91 C 419.29212,176.0177 414.55791,176.01778 416.97,174.91 Z M 415.87,178 C 418.74851,179.54896 412.90763,180.12828 415.87,178 Z M 414.75,174.88 C 417.93763,177.61682 411.50188,178.26681 414.75,174.88 Z M 414.16,181.13 C 416.28777,183.16894 411.61872,183.21297 414.16,181.13 Z M 411.31,176 C 415.44641,173.31894 409.39167,180.48877 411.31,176 Z M 411.31,182.22 C 413.63184,183.59982 408.67562,184.30586 411.31,182.22 Z M 407.81,178.62 C 411.5962,170.0947 408.07039,189.83747 407.81995,179.51106 L 407.81229,178.82478 Z M 410.19,208 C 408.13472,210.46339 409.14518,205.53294 410.19,208 Z M 408.28,186 C 406.75521,185.30013 409.73505,184.49039 408.28,186 Z M 406.19,181.75 C 410.39663,183.16841 402.29267,185.50169 406.19,181.75 Z M 404.91,177.28 C 406.41923,182.79783 400.22379,185.15427 404.91,177.28 Z M 404.28,222.56 C 406.72201,223.86865 402.084,224.91273 404.28,222.56 Z M 401.66,185.37 C 405.29669,189.23205 398.08763,191.11959 401.66,185.37 Z M 401.12,211.22 C 403.67879,214.76872 398.25858,214.84363 401.12,211.22 Z M 399.06,184 C 397.2288,175.73996 404.06909,184.45881 399.06,184 Z M 399.25,217 C 397.77461,222.60654 398.01963,212.27917 399.25,217 Z M 398.31,229 C 394.29945,224.9563 399.86011,225.22729 398.31,229 Z M 398.66,207.59 C 403.35136,209.40604 394.94794,212.6992 398.66,207.59 Z M 397.81,198.44 C 400.99233,202.32283 395.98238,204.51121 397.81,198.44 Z M 396.44,190.88 C 400.53861,189.75543 392.86264,194.62806 396.44,190.88 Z M 395.5,182.72 C 397.90043,187.13338 390.88415,186.11192 395.5,182.72 Z M 394.25,198.84 C 398.38134,191.1795 391.90231,206.76643 394.25,198.84 Z M 391.94,189 C 393.8745,189.28895 390.45464,190.48603 391.94,189 Z M 391.41,191.06 C 394.27043,193.2903 388.8221,193.12986 391.41,191.06 Z M 383.22,206.41 C 380.64567,210.76102 383.7832,201.75965 383.22,206.41 Z M 384.53,206.19 C 385.0894,204.46309 381.94903,197.48373 382.28875,203.83125 377.52496,191.92 389.67267,202.54974 384.53,206.19 Z M 388.53,213.97 C 384.14312,210.93203 390.84278,209.41846 388.53,213.97 Z M 391.28,228 C 389.11617,220.326 395.556,236.17579 391.28,228 Z M 393.69,214.22 C 390.99232,207.9843 381.3372,203.33417 386.74817,197.27028 391.27245,194.73322 390.70313,203.04018 391.78335,195.77629 394.45911,187.30008 391.28831,214.42346 395.98687,203.37442 401.01675,198.5467 395.13453,225.56419 395.76589,211.56386 396.95393,205.34094 394.19686,213.35213 393.69,214.22 Z M 394.62,229.22 C 391.96879,226.02569 397.38259,227.92573 394.62,229.22 Z M 397.87,234.09 C 394.27173,239.1125 396.92244,225.06041 397.87,234.09 Z M 398.5,230.63 C 402.54164,233.09048 398.06248,236.33203 398.5,230.63 Z M 401.16,238.94 C 397.05974,238.47228 401.76011,236.00981 401.16,238.94 Z M 400.75,224.75 C 405.16778,227.23367 400.66969,231.49483 400.75,224.75 Z M 404.37,265.84 C 401.54444,266.178 405.34969,262.53264 404.37,265.84 Z M 404.94,262.72 C 402.24248,262.88648 405.8417,259.85824 404.94,262.72 Z M 404.94,258.97 C 400.63959,254.20683 409.8113,260.64381 404.94,258.97 Z M 406.78,225.91 C 405.9626,216.73747 409.71043,232.88236 406.78,225.91 Z M 409.65,217.5 C 406.00485,228.51654 400.97227,203.03718 407.24237,214.62536 408.53358,213.62585 407.79757,207.56232 410.3873,214.65306 411.46734,215.19641 411.2975,218.03878 409.65,217.5 Z M 411.97,229.06 C 408.0679,224.79161 413.2245,220.97514 411.97,229.06 Z M 413.81,234.44 C 416.74544,233.9088 413.29671,237.87296 413.81,234.44 Z M 414.06,220.59 C 406.51333,225.90007 412.29153,203.3943 413.61012,215.98845 414.06172,217.38236 414.87238,219.12506 414.06,220.59 Z M 414.75,216.41 C 417.17034,212.99892 416.39534,223.70068 414.75,216.41 Z M 419.5,227.09 C 414.19643,228.13312 418.20495,217.53408 418.13884,225.73261 419.6945,222.31656 421.01277,225.52254 419.5,227.09 Z M 421,177.81 C 421.69227,174.64815 422.69247,179.87909 421,177.81 Z M 422.34,183.09 C 420.50687,189.16751 422.03787,179.06481 422.34,183.09 Z M 423.62,175.84 C 419.9545,176.57942 427.53733,171.65123 423.62,175.84 Z M 441.72,179.31 C 445.08081,176.68479 438.41249,184.59732 441.72,179.31 Z M 438.16,180.63 C 439.91993,182.70477 434.85098,181.85317 438.16,180.63 Z M 437.22,178.38 C 440.0292,179.19851 433.94457,180.22723 437.22,178.38 Z M 435.22,181.38 C 438.92258,182.33013 433.45833,183.15927 435.22,181.38 Z M 434.34,195.88 C 441.33291,192.21826 435.4029,210.74745 432.57806,199.38507 440.51455,201.05828 431.34891,195.64005 434.34,195.88 Z M 432.25,194.19 C 434.84892,194.06663 431.06899,197.05219 432.25,194.19 Z M 433.53,192.06 C 429.18458,193.3281 431.45455,187.01569 433.53,192.06 Z M 431,181.69 C 433.95885,180.26155 430.24813,184.84877 431,181.69 Z M 426,179.31 C 420.93253,172.60332 433.19686,170.94028 426,179.31 Z M 427.22,184.31 C 424.33104,182.25635 430.19068,181.73196 427.22,184.31 Z M 429.22,177.31 C 432.12082,180.0966 425.77107,179.97728 429.22,177.31 Z M 430.97,186.31 C 435.86242,187.85923 425.81688,186.74295 430.97,186.31 Z M 429.63,210.31 C 427.68086,205.60777 433.00769,213.66235 429.63,210.31 Z M 438.47,216.53 C 428.74555,212.8614 438.82572,208.28471 438.47,216.53 Z M 438.09,210.97 C 429.20972,214.06668 432.94818,195.21851 437.49809,206.5396 438.17414,207.25804 441.45479,213.54525 438.09,210.97 Z M 441.09,207.75 C 438.37506,208.58351 441.105,204.62593 441.09,207.75 Z M 441,185.22 C 439.19407,183.17944 443.88351,184.19634 441,185.22 Z M 442,190.53 C 439.60578,188.78842 447.10412,190.1102 442,190.53 Z M 443.16,208.75 C 440.58223,207.0948 445.81119,207.11678 443.16,208.75 Z M 454.56,187.41 C 460.01908,191.91931 452.90894,192.81589 454.56,187.41 Z M 450.75,199.06 C 453.2552,199.80945 448.79016,201.42196 450.75,199.06 Z M 448,200.94 C 451.1103,202.37225 445.37418,201.47162 448,200.94 Z M 447.16,198.44 C 447.14331,202.86602 443.93098,198.49904 447.16,198.44 Z M 446.28,194.91 C 448.53451,197.4207 442.83934,194.96268 446.28,194.91 Z M 444.63,202.56 C 442.4462,197.72995 448.45818,206.3319 444.63,202.56 Z M 450.28,209.78 C 442.40372,210.39672 451.99056,199.85272 448.36089,205.94463 448.02933,206.55256 454.02396,210.51582 450.28,209.78 Z M 452.72,213.25 C 448.71019,213.56131 453.10698,208.58129 452.72,213.25 Z M 454.59,198.56 C 450.36621,195.36101 453.94853,191.15659 454.59,198.56 Z M 455.13,207.19 C 453.12381,210.38838 454.10501,203.75064 455.13,207.19 Z M 452.5,209.41 C 456.36357,208.59412 452.29995,212.58404 452.5,209.41 Z M 454.34,216.13 C 450.96594,211.06396 458.7466,219.03108 454.34,216.13 Z M 454.22,192.81 C 448.33967,184.99093 459.2738,196.7909 454.48983,193.08668 Z M 443.72,248.81 C 441.70323,247.51688 446.17948,247.44418 443.72,248.81 Z M 445.19,248.69 C 441.58411,242.95514 447.90212,245.37781 445.19,248.69 Z M 447.56,246.69 C 446.32644,238.9597 451.33052,240.17342 447.56,246.69 Z M 448.84,251.63 C 446.49763,249.80684 451.23994,250.54472 448.84,251.63 Z M 451.13,246.35 C 447.71398,242.04566 451.59994,236.12927 451.28622,244.56506 Z M 452.06,240.88 C 449.90401,233.07214 455.72685,240.20464 452.24949,242.70965 Z M 455,236.28 C 449.01515,228.53014 456.51354,228.47982 455,236.28 Z M 455.47,230.03 C 452.77917,222.74547 459.96215,236.27488 455.47,230.03 Z M 462.22,277.53 C 461.14188,284.54247 460.87498,271.76435 462.22,277.53 Z M 468.38,245.69 C 465.38618,246.59985 470.09238,243.04636 468.38,245.69 Z M 470.5,257.1 C 466.81333,253.34983 474.11433,251.24813 470.5,257.1 Z M 474.59,186.53 C 479.11542,188.35776 475.32635,192.47837 474.59,186.53 Z M 472.78,260 C 469.40273,257.23571 476.01964,255.4822 472.78,260 Z M 473.94,263.91 C 471.66383,262.12045 476.77278,261.76392 473.94,263.91 Z M 477.28,258.47 C 474.81581,269.18773 471.22799,239.54078 477.59009,253.53454 478.05638,255.1304 478.21821,256.98876 477.28,258.47 Z M 481.44,249.85 C 484.50653,254.8053 477.36497,268.38409 478.33259,255.59272 477.96447,253.0684 478.84962,240.57807 481.44,249.85 Z M 483.62,242.75 C 480.88346,241.90111 485.35148,240.00196 483.62,242.75 Z M 486.5,189.69 C 483.64455,189.8182 488.15035,187.40883 486.5,189.69 Z M 492.62,231.38 C 489.45833,225.6922 494.87088,224.47506 492.62,231.38 Z M 494.91,229.53 C 493.82325,236.27686 494.23795,222.5742 494.91,229.53 Z M 499.69,233.19 C 496.35146,228.25304 501.03769,226.39698 499.69,233.19 Z M 503.87,206.13 C 500.42095,204.57294 506.59718,204.91102 503.87,206.13 Z M 509.09,215.56 C 504.65841,213.84409 507.32168,208.86466 509.09,215.56 Z M 508.09,209.72 C 510.70084,216.13202 502.78848,202.6123 508.09,209.72 Z M 505,201.53 C 508.93569,203.20989 503.37992,206.04024 505,201.53 Z M 506.22,232.88 C 502.63406,228.35923 509.98001,227.49418 506.22,232.88 Z M 634.1,318.62 C 628.80347,315.93449 629.20574,310.19476 633.72816,315.69344 629.44746,310.23061 630.1268,310.88557 627.82543,305.78569 633.05002,305.46019 620.66374,305.15265 628.05952,301.60314 631.95227,298.36266 626.44381,298.01688 624.43116,299.81929 625.39521,295.43557 618.90483,288.50167 626.11309,293.33152 631.1436,292.67408 623.31145,285.62552 620.27258,288.00779 611.20362,277.52801 619.94003,300.70175 613.66295,288.97546 609.58998,286.09979 616.76608,299.72397 611.37726,292.4783 606.22127,287.46183 609.31152,292.60331 610.30175,297.20802 605.03411,288.77692 606.05624,296.5328 604.41508,301.53381 599.28975,288.5918 598.85938,308.74597 603.95,312.63 605.29254,318.02797 606.96416,303.23818 606.72348,313.53921 610.36993,316.77975 614.05559,311.53543 615.18493,315.7695 616.34933,308.87166 616.3755,320.21241 619.02543,314.25878 620.15143,325.19537 626.83606,306.08343 625.9728,319.62582 628.89971,314.17796 627.24247,327.14696 633.52217,319.9413 Z M 338.71,258.71 C 338.41348,249.28629 331.18632,239.21934 324.32035,233.15549 320.7722,221.10488 322.18279,242.35567 315.89,234.56 311.00142,232.25994 308.01905,232.89849 309.04,230.09 306.27168,227.16599 310.75596,222.14536 315.23041,226.2404 320.8619,222.08738 301.58372,217.57999 306.48755,209.32169 304.31725,203.37345 303.32503,217.46253 304.91976,219.7191 300.85573,226.33774 302.60526,208.60823 299.26915,219.59396 293.63635,226.52727 299.96011,210.02014 293.00984,216.20196 289.69232,225.19809 282.76868,225.26132 282.15096,233.72743 280.51303,248.00455 292.80818,234.36242 292.48549,227.16296 296.02576,221.92827 293.78214,236.9105 293.13,235.65 291.92967,240.56322 295.66856,242.0248 287.17655,242.56828 291.82174,248.0592 305.70207,233.70752 303.12564,244.43175 301.39195,248.21717 317.17428,247.5764 313.76889,255.70401 310.92164,259.86821 308.0106,250.94848 309.11,258.69 311.87808,264.47184 305.44589,257.3342 307.37504,263.53807 297.36419,256.99143 304.46835,265.74432 308.667,267.39516 304.78405,268.32163 293.37173,258.85932 300.81422,268.19437 304.2237,273.40083 313.18876,271.0909 308.35494,276.14919 309.40889,284.30461 314.39383,283.41137 310.88001,276.32467 314.49508,276.02518 316.04812,285.50843 318.2,277.37 322.13734,282.0129 321.06317,269.21992 324.68,277.8 324.94651,273.53022 326.31552,266.30452 332.31524,270.06769 335.77701,278.85149 329.85185,250.88581 335.04678,264.89045 337.90599,271.72365 335.69918,254.88596 339.94374,260.27066 L 339.12182,259.45439 Z M 306.25,222.12 C 302.42175,218.58769 311.22716,224.64472 306.59118,222.29566 Z M 309.25,271.05 C 304.06201,271.851 310.31825,265.97733 309.25,271.05 Z M 342,225 C 343.82129,215.50796 344.35605,238.54491 346.87181,227.65152 349.91196,235.32332 344.28697,213.79246 350.41221,225.66337 347.36284,219.58728 358.71751,221.85295 356.41987,215.51763 366.78829,211.90928 347.29536,206.74975 356.47387,201.83278 361.67832,196.24058 360.32086,186.90076 357.10748,198.23436 355.59216,199.41408 352.32683,192.64479 350.9724,197.35903 348.08769,202.67108 345.71557,198.71298 343.16,201.98 338.90548,201.39955 341.61757,192.00757 339.7311,201.41735 339.175,208.59401 339.24873,212.35838 336.2332,203.54416 334.27882,208.42621 333.60478,216.59366 333.02909,221.71967 339.0107,213.63113 338.95056,235.30537 342,225 Z M 254.18,275.06 C 250.51344,275.20719 258.1842,277.0695 254.18,275.06 Z M 265.92,261.83 C 271.56491,257.36675 277.84824,241.89163 269.47967,254.88085 268.06601,256.84963 265.66701,259.51407 265.92,261.83 Z M 289.31,281.35 C 284.6461,285.90678 284.60911,294.15165 288.41185,284.74811 288.2936,283.80978 291.27776,281.74135 289.31,281.35 Z M 308,251.63 C 311.2064,253.49466 307.34347,247.97809 308,251.63 Z M 467.43,318.37 C 456.17337,314.75231 465.45668,298.11762 456.79312,299.87773 457.94203,309.79876 450.1814,291.8966 452.97098,303.27455 451.27028,302.26642 445.05878,298.69172 449.21947,305.92294 446.91326,311.32989 446.59933,314.52128 450.49,314.55 452.76875,317.17986 454.08658,319.90172 454.10926,322.83638 459.97146,321.56793 460.50216,332.41529 464.70284,322.18691 466.82703,328.52543 468.42157,322.23509 467.43,318.37 Z M 613.4,285.78 C 610.93941,288.13583 616.35459,287.39214 613.4,285.78 Z M 446.31,308.74 C 442.32867,307.85065 449.12972,314.56524 446.31,308.74 Z M 295.09,246.33 C 294.4638,243.96823 291.99745,246.23696 294.50228,247.25652 294.44623,252.15581 288.63856,252.29854 284.99129,251.9879 283.69547,253.58493 280.76553,250.2415 283.23975,250.26685 283.10445,247.49832 277.85096,246.03113 280.27555,249.70235 278.57326,253.24189 283.65984,255.15759 285.53718,255.24262 282.77605,252.35274 289.99326,254.48211 290.708,254.94709 291.68188,256.09534 291.25924,252.25421 292.96295,254.03863 295.96211,252.87099 294.63429,250.27933 296.08543,248.22895 295.82071,247.55853 295.12043,247.09308 295.09,246.33 Z M 255.15,271.68 C 251.99095,271.10928 251.57184,276.3267 254.53874,273.15379 254.96909,272.9597 256.11682,272.06201 255.15,271.68 Z M 287.2,217 C 290.19851,215.85459 294.62935,212.11262 289.15015,210.67138 286.53488,209.67119 286.11784,216.03827 287.2,217 Z M 359.82,240.78 C 359.09846,237.37788 357.31481,240.30423 356.7065,240.50486 355.9427,238.03794 355.19343,238.01696 354.75198,240.49529 353.46456,238.53455 352.65724,242.7879 350.41147,242.34921 347.94224,241.83501 347.83513,249.48274 345.28124,244.58607 343.98124,246.68519 347.6893,252.37256 348.83864,255.63488 350.37209,260.06865 349.80493,250.9751 351.33296,255.71351 353.85854,258.42658 350.44983,249.95445 353.00625,254.23375 355.22924,252.98873 355.07996,249.3033 357.9375,252.79 359.41277,251.76905 358.81893,249.93546 360.98118,251.78794 360.77284,250.29256 358.84071,242.65107 361.3861,246.93165 362.91721,252.84566 363.50072,244.10119 360.97005,242.80439 360.609,242.11817 359.88298,241.59852 359.82,240.78 Z M 307.6,203.6 C 308.20366,208.26521 314.3727,205.23714 313.75,210.52395 315.48716,211.20238 318.23917,211.66842 319.34117,211.41418 319.68717,209.2999 320.82238,204.94194 317.9031,207.22759 316.00376,204.04323 312.84294,200.6616 308.74333,202.25115 308.45288,202.48865 306.90361,202.9997 307.6,203.6 Z M 328.08,271.54 C 325.44454,273.41187 330.98863,276.26215 328.43473,272.06215 Z M 305.86,277 C 307.20369,274.09441 301.44118,273.22401 304.71581,276.31933 304.76999,276.8263 305.35921,277.7018 305.86,277 Z M 307.76,281.38 C 305.27365,282.42467 309.08274,275.90671 306.14197,278.81897 303.60633,281.89079 308.47501,286.5759 307.76,281.38 Z M 294.84,261.71 C 291.88657,262.10285 293.28412,256.83186 289.80621,256.2939 285.76618,255.17705 283.73708,262.99229 279.2309,259.14593 276.4506,260.74033 274.88405,260.5789 273.87696,257.57936 273.14166,256.75858 270.98667,260.63043 269.59766,261.73027 268.27094,264.66722 262.14885,267.01791 263.1749,270.53443 266.8614,272.21138 270.69745,265.29278 272.76091,268.46349 269.58907,272.71101 275.7116,270.97317 278.1168,272.00346 280.27283,270.69773 282.7148,275.76651 281.81004,271.99642 284.79017,271.67775 286.34261,270.26578 289.12584,272.09171 287.53834,270.55017 286.52683,267.6804 290.11022,268.71446 293.29587,266.5517 287.95306,263.89877 292.62485,263.36135 293.28591,262.66035 296.80053,263.32517 294.84,261.71 Z M 303.93,278.78 C 303.40311,276.91587 300.84323,281.89055 301.06147,277.7935 303.97327,277.36008 301.54832,271.24998 300.12797,275.61162 298.43751,277.39291 300.7895,283.81118 302.83,280.55625 304.23113,283.51173 304.74486,279.83655 303.93,278.78 Z"
       inkscape:connector-curvature="0" />
  </g>
</svg>
