<?xml version="1.0" encoding="UTF-8" standalone="no"?>
<svg
   xmlns:dc="http://purl.org/dc/elements/1.1/"
   xmlns:cc="http://creativecommons.org/ns#"
   xmlns:rdf="http://www.w3.org/1999/02/22-rdf-syntax-ns#"
   xmlns:svg="http://www.w3.org/2000/svg"
   xmlns="http://www.w3.org/2000/svg"
   xmlns:sodipodi="http://sodipodi.sourceforge.net/DTD/sodipodi-0.dtd"
   xmlns:inkscape="http://www.inkscape.org/namespaces/inkscape"
   width="900"
   height="600"
   version="1.1"
   id="svg148"
   sodipodi:docname="ic_flag_de_ni.svg"
   inkscape:version="0.92.1 r15371">
  <metadata
     id="metadata154">
    <rdf:RDF>
      <cc:Work
         rdf:about="">
        <dc:format>image/svg+xml</dc:format>
        <dc:type
           rdf:resource="http://purl.org/dc/dcmitype/StillImage" />
        <dc:title></dc:title>
      </cc:Work>
    </rdf:RDF>
  </metadata>
  <defs
     id="defs152" />
  <sodipodi:namedview
     pagecolor="#ffffff"
     bordercolor="#666666"
     borderopacity="1"
     objecttolerance="10"
     gridtolerance="10"
     guidetolerance="10"
     inkscape:pageopacity="0"
     inkscape:pageshadow="2"
     inkscape:window-width="1658"
     inkscape:window-height="1327"
     id="namedview150"
     showgrid="false"
     inkscape:zoom="0.70444444"
     inkscape:cx="547.09024"
     inkscape:cy="430.49102"
     inkscape:window-x="0"
     inkscape:window-y="0"
     inkscape:window-maximized="0"
     inkscape:current-layer="svg148" />
  <rect
     width="900"
     height="600"
     id="rect2"
     x="0"
     y="0"
     style="display:inline;fill:#ffce00" />
  <rect
     width="900"
     height="400"
     id="rect4"
     x="0"
     y="0"
     style="display:inline;fill:#dd0000" />
  <rect
     width="900"
     height="200"
     fill="#000"
     id="rect6" />
  <path
     d="M 420.25,500.53 C 324.229,500.53 246.37,422.684 246.37,326.66 V 101.34 H 594.12 V 326.66 C 594.12,422.69 516.28,500.53 420.25,500.53"
     id="path8"
     inkscape:connector-curvature="0"
     style="display:inline;fill:#dd0000" />
  <path
     d="M 594.28,325.73 C 594.28,421.976 516.255,500 420,500 323.743,500 245.73,421.975 245.73,325.73 V 100 H 594.29 V 325.73 M 420,491.8 C 511.727,491.8 586.09,416.845 586.09,325.13 V 108.21 H 253.92 V 325.73 C 253.92,417.44 328.28,491.8 420,491.8 Z"
     id="path10"
     inkscape:connector-curvature="0"
     style="display:inline;fill:#000000" />
  <path
     d="M 425.64,233.18 C 428.844,232.33186 429.0301,226.3345 428.284,223.2858 425.5729,218.3165 432.7456,213.9932 429.5028,208.3168 429.35405,204.811 424.892,202.7385 427.284,199.3793 428.8797,192.8362 425.9947,185.7653 420.7842,181.8793 420.7327,176.031 420.49069,167.9013 413.7843,165.7233 409.3071,165.1975 411.1561,160.7627 409.2835,157.9413 407.2936,155.4179 404.3593,154.6612 403.6274,151.2851 400.343,145.417 391.3694,150.2565 388.5334,144.4729 385.8513,139.437 385.8343,133.3849 384.2838,128.2229 378.6761,126.7779 377.1046,133.6869 375.9404,137.5671 373.1459,135.7537 379.5497,129.9106 372.0026,132.4733 373.5898,125.8227 366.6228,128.5382 365.2215,132.2232 364.93032,137.0281 359.4109,134.4026 356.4715,136.5668 352.6268,138.2399 352.5275,144.1826 355.1279,146.8478 351.6846,149.0561 344.4619,147.8698 344.2839,153.7852 339.8025,157.4378 335.2221,160.5726 330.7839,164.4732 326.5168,164.96629 324.2641,168.894 321.1276,171.317 318.8468,176.0155 322.5536,180.675 321.0339,185.629 320.11717,193.2713 330.9326,189.1772 331.7249,193.8117 333.4182,198.82 339.627,195.8814 343.3469,196.7851 348.8948,196.1622 348.1807,186.6201 354.5659,189.0663 358.0336,190.4477 361.5886,187.9613 364.5659,187.9101 368.7401,193.1224 364.21457,200.3431 360.7535,204.7851 354.9755,211.1811 348.0635,218.2151 348.0665,227.5971 345.7257,231.2789 340.9897,233.2281 339.629,237.8161 337.7197,239.8461 339.5712,248.2211 335.1596,243.9412 329.8317,241.2231 323.4216,240.526 319.9406,235.129 315.0788,233.8029 309.4876,233.8025 304.4716,233.9103 300.2381,234.78701 298.7085,239.0215 297.2218,242.3477 292.2203,248.0617 287.338,255.1837 280.6598,259.5037 278.2051,262.3285 273.5022,263.6332 273.3473,267.9411 270.6179,273.1039 274.31888,278.9211 272.98712,284.5831 272.45861,289.6202 272.31296,295.4551 278.44062,296.7541 281.47532,299.1865 285.39992,303.7052 289.34662,301.5978 292.17692,294.3619 295.54632,286.2088 293.06562,278.5038 290.65872,276.8127 289.56422,274.0614 286.62812,273.1602 285.46952,269.2895 290.14132,266.0107 291.81532,270.8165 298.86252,269.6129 300.18992,260.8757 303.40932,255.4725 305.12632,248.9111 314.70532,248.6396 317.37832,254.5973 320.79732,259.4585 325.16922,264.6573 328.81632,268.9413 322.33712,268.9343 316.27132,266.3387 310.62832,263.7543 305.91322,262.3753 303.42752,266.5227 301.78472,270.0043 297.08352,272.3915 294.87852,278.4079 297.62832,283.0353 298.64882,293.2503 298.99252,303.6053 296.46442,313.5513 294.41642,318.945 299.17932,322.5173 299.01962,327.6033 299.44987,332.2596 303.72172,334.8843 303.84662,339.5043 305.81542,343.7174 311.54922,343.2391 315.37862,345.3479 320.61282,347.6048 325.29892,344.42131 323.33102,338.8324 323.0294,332.8576 323.6507,324.8354 318.59782,320.8474 314.63022,319.85157 307.27482,320.03823 310.09782,313.5974 313.81062,312.0547 317.53582,311.0225 315.03542,306.0036 312.41832,299.3919 308.96082,292.5576 310.97322,285.1456 313.24972,280.013 320.86662,283.2998 323.19122,286.9412 331.14472,295.2809 340.07922,304.0142 352.06522,306.0042 357.96882,306.29355 362.77322,313.7536 368.97122,310.6291 370.36562,306.2517 374.53042,307.0059 378.02752,308.9607 384.78012,311.7858 390.71652,316.4553 398.03352,317.9411 409.81352,321.9949 422.56652,321.1451 434.65852,318.9413 440.89852,318.31847 446.89852,321.9359 449.47052,327.3787 453.04422,332.3349 459.45392,330.3411 464.47052,331.3795 467.66752,337.5325 475.24952,336.4432 481.15852,337.1606 489.60962,341.5371 492.97352,351.4146 496.56452,359.6296 501.09112,369.4096 500.69252,381.8396 493.53332,390.0986 491.53252,394.5649 484.06352,394.1875 484.56492,400.1616 483.36332,405.348 477.61862,410.2086 478.47132,416.2556 484.29942,418.4909 491.49532,417.06977 497.52232,415.65235 503.91142,414.61085 510.91232,409.83105 509.15932,402.41235 506.27942,398.75975 508.18192,394.60935 511.40912,391.91235 512.68352,388.71635 514.45312,386.24395 518.15912,386.66245 522.99542,388.39005 520.89082,380.66235 520.62792,377.88125 519.9417,372.94595 516.03212,369.26415 514.78412,364.31825 513.80959,361.05705 511.06772,351.40625 516.44052,356.97445 522.69182,363.27285 528.07652,370.65545 529.31452,379.81845 531.63622,387.37225 529.98207,395.20445 527.94032,402.53745 525.89442,406.58925 523.05802,410.46155 518.81542,412.25625 517.42062,415.23195 516.45222,418.18455 514.44002,420.97505 513.19982,425.16525 508.51462,429.38475 510.72142,433.66305 520.17862,435.36135 531.16542,433.83369 538.56542,427.44485 541.76082,422.14495 536.03142,414.87985 541.63352,410.48685 543.40252,406.94665 546.57662,405.38705 550.45682,404.91405 555.55242,403.80055 553.67532,396.40255 552.81522,392.63305 549.32832,385.49755 545.32142,378.52905 544.34672,370.41405 542.33922,365.25075 540.41772,359.64605 541.34752,354.13305 539.02312,346.44425 528.87352,346.52245 525.00252,340.07105 521.88012,335.33135 518.70892,330.44905 514.34652,326.54005 514.59632,320.11035 516.96462,313.27605 514.34577,306.75905 512.04777,300.56245 514.61196,293.47105 511.90877,287.16505 511.33636,283.96065 509.57837,281.02105 508.84657,278.04005 515.70637,278.7289 522.69957,275.08305 525.25257,268.69645 529.65167,264.50285 535.03437,271.87085 531.25257,275.88395 528.68767,280.02845 524.21087,283.63605 524.59667,289.19595 523.40367,298.07415 528.79457,305.62995 535.12767,310.94595 538.37867,314.88645 536.73587,322.31995 531.19027,319.75835 531.20147,325.66505 538.85957,322.90235 541.65927,320.78965 544.19497,315.93935 545.45517,312.67365 544.72167,320.88335 544.346,323.82045 537.44707,327.44955 544.09684,326.47715 548.86494,325.20095 549.98594,319.63695 551.00304,315.75815 550.29785,322.67895 554.43934,318.50955 554.50264,314.44575 555.68524,313.71377 555.39778,323.32685 553.69069,326.35175 551.68449,330.58555 543.83649,334.26775 541.22169,329.10165 537.43499,333.57025 546.65769,336.51045 550.31549,334.53925 559.33489,332.19845 565.07749,322.77925 565.37849,313.88325 565.09588,309.81465 562.70829,306.42625 561.12789,302.94625 565.40919,305.94305 571.65889,305.26295 573.43989,300.00895 575.47799,292.77385 568.64489,302.25385 565.75229,297.25895 560.92109,290.06535 568.90079,283.09295 568.18909,275.60295 570.04189,268.83475 566.15779,262.46695 562.28359,257.44695 564.41049,249.08805 564.15889,238.83295 556.84619,233.10295 553.25419,228.75495 546.91889,229.19345 541.87719,228.60295 537.71899,219.58215 524.92019,220.27735 517.00219,223.94635 506.49419,228.06605 500.72719,243.25935 508.18939,252.41335 512.96319,254.72245 515.98299,262.23655 510.34589,265.31935 505.20999,269.44585 498.30889,264.73017 493.75189,261.88195 484.52709,254.27845 472.31089,250.06795 460.15689,251.20795 447.32589,252.63525 434.16489,249.62435 422.87689,243.69605 419.38979,241.69365 420.74159,240.17685 422.97059,237.78985 423.50708,235.88505 424.95439,234.85295 425.63889,233.18395 Z"
     id="path12"
     inkscape:connector-curvature="0"
     style="display:inline;fill:#000000" />
  <path
     inkscape:connector-curvature="0"
     d="M 411.66,229.81 C 411.92474,230.04633 412.22952,230.23277 412.49273,230.4715 413.90075,231.52757 414.47776,232.92046 414.41973,234.51495 414.33387,234.76841 414.32711,235.06176 414.16986,235.28339 414.08908,235.09827 414.07052,234.82966 413.99494,234.61847 413.67992,233.46911 413.15007,232.39361 412.55227,231.36741 412.25513,230.84813 411.94813,230.33429 411.66,229.81 Z M 340.87,187.24 C 340.71175,187.95969 340.1322,188.464 339.7221,189.0434 338.84064,189.95553 337.96035,190.84451 337.0136,191.5278 335.80508,192.21444 334.6735,192.11726 333.6533,191.84404 333.50324,191.71834 333.35318,191.59265 333.20312,191.46696 333.07884,191.1053 333.502,190.90075 333.80536,190.95464 335.01081,191.01823 336.2762,190.78715 337.17754,190.31655 337.87122,189.30949 338.76529,188.33668 339.47341,187.60325 339.88971,187.33764 340.39162,187.23037 340.88121,187.23811 M 368.62,131.5 C 368.89252,131.494 369.23859,131.4345 369.42155,131.69148 370.03094,133.89752 369.48938,135.4985 368.38961,137.11888 368.05471,137.33343 367.64721,137.19068 367.29621,137.10078 366.16831,136.29588 366.47651,135.08576 366.63993,134.00288 366.83847,133.33628 367.2051,132.89384 367.6324,132.43931 M 507.16,381.17 C 504.6422,381.8081 501.423,379.76637 501.40302,377.114 502.37656,373.89476 501.86208,370.40173 501.01262,367.18487 500.56012,364.46152 499.61566,361.8967 498.693,359.30808 497.97398,356.87657 497.12481,354.46165 496.12081,352.12663 493.27692,349.17926 499.34672,348.3801 500.60111,350.69157 503.07943,351.74611 503.20807,355.25815 505.96931,355.66221 506.46476,356.37895 507.11747,360.89656 507.79408,358.3249 507.36883,356.54459 505.3745,352.43025 508.5023,352.43406 510.41762,354.7424 510.349,358.37677 511.05857,361.30552 511.66557,364.31909 512.44262,367.36398 513.85069,370.12386 515.3106,372.5366 517.3149,374.773 517.80591,377.64796 518.60479,379.91123 518.93297,383.32514 516.07891,384.19197 514.14411,386.0446 511.86497,383.39379 510.26317,384.10893 509.02744,385.87412 510.49358,388.35544 508.82168,389.95238 507.98626,392.37189 505.70664,393.91552 505.40944,396.58772 505.60259,398.67718 503.67067,398.07091 502.5323,398.51298 503.79875,399.11574 507.82534,401.71907 505.04032,403.19776 501.64792,401.69492 497.77992,401.26815 494.08451,401.79124 492.91561,401.48112 488.8455,401.15366 491.97277,402.44438 495.0942,402.88011 498.29079,402.04344 501.39343,402.8427 503.61001,403.67929 507.75584,406.08957 505.80217,408.83311 503.91486,411.00556 501.26094,412.08836 498.55115,412.85363 494.19059,414.15898 489.64049,415.01234 485.08181,415.05179 483.39335,414.86521 480.03181,415.54564 481.29615,412.7002 481.87322,408.57494 485.50365,405.69582 486.08766,401.59734 487.45118,399.70172 486.25274,396.2068 489.53262,395.90904 492.43558,394.37696 495.15134,392.42763 496.42315,389.28866 497.89381,386.98207 499.10418,384.47911 500.87107,382.38166 503.09508,380.68178 500.76589,386.1951 503.36747,384.31144 504.51208,383.08006 506.90215,383.14684 507.16617,381.19316 M 277.41,265.2 C 280.72562,262.82283 283.9348,260.25171 287.04296,257.57855 291.63209,253.28527 295.34181,248.16436 299.35696,243.36016 300.93904,240.75621 301.59865,236.7556 305.07855,236.04128 307.92998,235.36348 310.6873,237.42676 313.61242,236.58788 317.34774,234.95821 320.50513,237.22676 322.14959,240.49733 324.51591,242.80382 328.14487,242.97068 330.98662,244.52811 333.64386,246.09402 337.32218,246.55638 338.77339,249.60106 339.69322,253.32176 338.8106,256.89298 336.6117,259.69827 335.14842,262.14768 335.65946,259.03453 335.31,258.44468 333.64689,259.8901 330.66496,261.21595 329.32984,262.00382 331.47355,263.73975 332.09449,267.31265 335.30086,267.70425 337.83329,270.00871 332.45338,269.31569 331.82769,267.44794 329.92721,265.88641 327.85543,264.42898 326.69375,262.19558 324.39953,260.21875 322.46819,257.86836 320.94581,255.26157 319.3868,252.74515 317.76902,249.96077 314.73715,249.01617 311.75513,247.79478 308.12257,246.93873 305.27532,248.96942 302.80546,249.87044 301.66646,252.2869 300.681,254.54449 298.97278,258.2167 297.85203,262.31652 295.06494,265.33863 293.45586,269.7589 290.22609,263.87069 287.46024,265.98905 284.27035,268.02561 282.99397,272.51112 284.36852,275.98897 287.16332,275.94041 289.62483,277.7308 290.84137,280.41699 292.02201,283.42117 290.9589,286.62558 290.71767,289.69095 289.90518,292.82404 289.22958,296.12199 287.59148,298.9181 284.36904,299.44043 281.5932,296.31486 279.06396,294.63558 274.84591,292.96877 280.99029,291.77619 281.32175,289.41929 283.0193,285.95403 283.68923,281.53804 287.26916,279.42608 284.47754,278.54842 282.73133,282.81975 281.82445,285.09893 281.28279,288.07809 279.01862,289.91546 277.38763,292.15433 275.51438,293.61213 274.20903,290.85172 276.11566,289.94849 274.86776,286.72327 275.78728,283.32414 275.75253,279.93656 276.80151,276.44135 272.94811,272.87933 275.24225,269.80508 275.62289,268.03333 276.0471,266.31611 277.52425,265.15005 M 425.02,233.98 C 421.6077,231.0899 425.0423,227.3754 423.6864,224.004 419.4226,219.6526 418.8622,220.0092 422.4052,224.9103 419.646,226.5413 416.0432,220.7798 414.6864,219.2853 415.63271,224.229 421.7982,225.5357 422.03,231.0043 421.483,236.4143 419.6754,237.3525 419.53,231.53555 419.09934,227.06705 412.9181,226.83245 412.9988,222.06675 411.5467,224.77995 415.4112,227.87005 417.5926,229.53535 419.5273,232.20395 419.1263,238.94815 414.8739,238.34785 417.7054,234.08615 414.9548,230.22115 411.4051,227.97285 408.4773,224.08995 410.64904,232.50825 411.56135,235.94165 409.21615,231.16775 411.48395,244.74615 414.70495,240.47045 425.24095,249.38405 439.69795,253.60545 453.40495,253.19145 462.04785,253.47543 471.07195,252.65682 479.24895,256.25305 489.23715,259.28235 496.15795,268.58405 506.98695,269.19705 512.84995,269.28615 518.04895,263.09085 515.00885,257.49505 513.87035,252.54165 507.23045,250.69445 507.12355,245.16105 505.59935,237.99065 509.78985,230.30205 516.12355,226.94205 521.79505,223.23345 530.31455,222.55325 536.47355,225.57895 539.78175,226.54507 539.37945,231.75125 543.15525,231.37935 549.32005,231.02935 555.45425,233.17715 558.56125,238.78515 563.02425,244.57895 559.94945,252.21415 560.59225,258.72315 563.54345,263.25415 567.05945,267.87735 566.27965,273.81715 566.1752,279.11745 564.47095,284.55415 562.12385,289.00515 562.17525,282.92895 565.43245,276.69615 562.56135,270.81815 564.84235,278.71335 558.49685,286.43515 561.74855,294.19315 562.6161,297.68355 565.26855,300.95105 568.31095,301.88055 560.76925,302.251 555.37495,293.74185 557.32695,286.60955 557.47236,280.72495 560.09035,273.41755 554.96815,268.88055 555.26994,272.52575 556.73115,278.46015 555.5621,283.03655 553.1339,290.32285 553.7363,298.88255 558.8435,304.72455 563.9043,312.30245 562.7898,324.87355 554.7806,329.72455 555.13604,327.43575 557.5021,324.00565 557.1237,320.84975 560.0083,312.49175 553.2038,305.80075 548.7177,299.94375 543.5737,293.21805 549.8201,284.95375 547.0305,277.91275 547.18499,280.43175 547.37324,284.57535 546.24945,287.69405 544.06975,294.51165 547.13986,301.15705 551.37005,306.22405 554.69785,315.12355 551.52242,311.76565 548.48025,307.25945 545.37065,301.96415 538.83845,298.26795 539.03065,291.31845 537.58235,295.21515 540.76855,300.42765 543.96795,303.22445 547.26885,307.69055 550.55095,313.91245 547.74905,319.47445 546.19955,314.52305 545.11015,307.72245 539.68685,304.94345 535.42155,301.22645 532.18245,296.22685 532.46825,290.25545 530.72005,294.64855 533.94555,300.73545 536.99935,304.47445 539.82815,307.65785 542.95975,314.30025 539.15545,317.41145 539.47282,311.76685 535.82965,307.56685 531.78045,304.28645 526.53835,299.04945 525.69565,290.55645 527.65545,283.69245 531.69905,279.53735 537.30625,273.46645 532.81165,267.47345 531.63845,265.43395 524.63215,265.45745 529.49915,263.59885 532.82975,260.83665 538.58205,271.18855 537.18675,266.06725 534.92195,260.65365 526.30575,259.96945 524.12475,265.6921 522.43845,274.0792 512.23275,278.3341 504.71875,274.5672 498.82705,274.92572 508.31395,279.4534 507.84375,282.9734 510.41615,289.6192 511.22115,297.1274 510.24975,304.2864 512.77045,311.1158 513.80415,319.0444 510.55544,325.7364 514.33604,328.396 517.99524,332.5964 520.40624,336.9744 523.12324,341.6182 526.38914,346.3156 531.71824,348.3184 534.25974,350.2776 538.49004,352.2234 538.24944,355.7558 538.14613,363.5996 541.45834,371.2668 543.68614,378.7868 545.14014,386.5897 552.13464,392.6608 550.46714,401.2248 547.91294,404.1135 541.89524,400.49105 541.99634,404.3398 541.09422,408.8764 536.21274,411.4087 534.99844,415.7558 527.48214,414.6666 541.01944,420.6212 535.70027,420.9012 532.02847,418.093 525.59927,418.5807 522.21727,418.2247 526.93167,420.627 534.90727,418.68666 536.87527,424.8434 531.32977,430.8746 521.94227,431.8944 514.12327,431.5367 511.01107,429.5504 515.47057,425.6093 516.15557,422.9438 517.42327,419.5204 520.82937,417.3873 520.57407,413.5333 525.97607,411.4256 528.82557,405.7336 531.81207,401.1003 533.00207,405.982 534.31237,401.69055 538.62197,400.58122 538.66707,398.41862 530.69507,399.46682 532.18717,395.28772 534.65207,388.73112 531.79894,381.49672 530.66397,374.88172 529.31417,368.81312 526.29377,363.84072 522.43787,359.19372 518.67217,353.48542 512.48057,350.69392 506.12587,348.84972 498.25847,346.82032 490.98987,342.82672 485.84387,336.94372 482.47787,334.16752 479.16827,331.24872 474.62487,330.53752 468.49047,329.76701 464.75317,324.56752 463.03087,319.03752 459.37747,312.33422 450.91787,309.65002 443.81187,309.35052 440.31207,310.02185 449.31767,310.28407 451.40557,311.50652 455.74937,312.98682 461.12987,315.75752 462.03057,320.53752 458.41717,321.42222 453.18597,321.68812 451.40557,317.35002 447.47037,313.68072 456.49617,314.60552 447.15637,313.53072 433.80937,315.57382 420.23137,319.76122 406.64837,316.70572 396.71877,315.45662 387.79037,310.80252 379.21837,306.06872 373.28277,305.12773 374.48647,301.71752 379.78087,303.88112 383.27827,305.90752 383.35427,305.06472 381.06207,301.63112 379.27967,299.35732 382.91807,289.58512 382.22907,296.84912 382.48561,309.91112 384.75327,297.79293 384.46837,291.94362 379.63877,293.30022 377.12187,297.71152 373.87437,301.06852 369.97747,301.84522 368.88107,305.78582 367.15567,308.63102 360.96227,308.83562 357.16987,302.37142 350.74967,302.81902 342.14087,300.16352 334.52467,295.22062 328.28067,288.69402 323.92127,283.91762 317.91967,276.57202 310.62467,280.31872 307.62477,283.01762 306.05347,288.42772 307.15607,292.03772 308.49997,285.31752 308.28667,295.83392 309.28087,298.00642 309.55937,301.94412 314.85767,305.79112 312.15557,309.41242 305.87517,310.04199 306.20907,318.75412 310.34357,321.78742 309.63934,326.49772 316.58257,319.37842 318.93737,324.06862 321.31287,330.01372 322.03857,337.25062 320.46857,343.31862 316.01277,343.18972 311.22607,341.14762 307.09357,340.00622 303.51547,338.97052 306.84511,335.22262 303.81237,333.50622 300.65217,329.78782 300.93977,324.58872 300.06237,320.03722 304.63617,322.06892 305.21297,310.44102 301.74977,317.94352 297.67317,322.25132 298.06147,314.14892 299.18707,311.16232 301.14997,301.58512 300.42777,291.55132 299.74927,281.97432 297.34247,277.57272 299.86704,273.37802 303.49917,270.97432 305.32107,267.65292 308.81517,263.63982 312.84297,266.84932 320.42407,271.30192 329.25497,270.45482 337.43697,272.88032 343.00347,274.94412 348.04797,278.01122 351.74897,282.50522 352.64507,280.48642 343.24477,274.33442 350.31157,276.31782 353.31927,277.44692 355.84217,281.60302 359.43657,280.25522 357.01827,278.64932 353.45487,277.38962 350.90597,275.31822 346.24897,274.47531 344.95107,271.84592 347.37457,267.44342 350.34327,261.44562 346.98434,254.33142 350.61557,248.38942 352.21157,243.32462 357.11377,240.53762 361.19557,237.94642 364.11947,234.44612 368.51157,233.31972 372.53057,231.66212 368.14357,231.31106 362.29357,234.30702 358.99957,238.13072 352.58957,239.87912 348.74057,246.37782 347.28057,252.66172 346.89224,257.87222 347.90597,263.21272 344.72477,267.74572 344.20441,271.13072 343.68377,275.63102 339.71857,272.06792 336.27207,269.15462 338.38847,262.87262 339.84302,258.97392 342.72022,252.28242 338.43442,244.52992 342.40672,238.00492 345.19672,232.41252 346.06312,235.12212 344.36232,239.90652 343.13902,242.04142 345.59932,250.42252 345.90672,245.19232 343.94812,237.82822 351.09192,232.48432 350.99812,225.39232 351.71762,216.55102 359.54372,211.43232 364.25012,204.87932 367.19192,200.34512 369.69802,194.70532 368.43752,189.00432 370.33842,190.05692 376.31712,187.88342 375.71872,188.06687 370.68552,192.43707 374.71532,191.54457 377.49992,187.34812 378.81002,183.67542 384.09492,182.67532 384.25012,178.22332 386.50552,168.85212 384.01178,166.60632 382.83152,176.08082 382.18344,183.25742 373.02762,187.30082 366.81252,183.72352 361.88552,183.76032 357.45872,187.83712 352.25052,185.78582 351.30653,180.45662 349.79762,188.69972 346.78182,189.09822 344.61002,198.41232 341.49402,189.88064 337.34422,193.94202 331.03022,194.21178 341.13982,192.44782 341.28172,188.94202 345.32142,186.45752 345.88732,182.72432 339.87552,184.25452 335.65882,185.45522 333.32692,191.35852 328.12552,189.09812 323.59832,190.15402 320.74952,184.41672 323.96922,181.47332 324.07362,177.95382 320.77742,172.99142 325.31302,170.97332 327.02462,167.37392 330.88782,167.49522 333.75052,165.66092 336.55822,159.86062 344.36852,159.28622 347.39852,153.97292 347.76335,148.47672 355.33062,151.26632 358.03252,147.53562 361.19692,143.97962 364.88942,147.01025 368.59452,146.75432 369.21177,144.53962 362.82032,144.85062 361.87552,141.50502 356.98802,142.98962 352.66902,142.33034 358.43932,137.95452 362.28572,136.35012 366.79382,138.76907 369.37532,140.87992 369.67502,132.89742 374.12342,136.43042 375.65652,141.66122 374.85428,145.10992 374.78945,149.34092 377.18782,152.13022 377.13942,149.64362 375.63052,145.77432 377.15642,142.44282 378.83072,138.59982 377.76046,133.04602 381.87502,130.63082 383.39712,134.22662 383.60872,139.51562 385.45752,143.56882 386.95092,147.36902 389.03102,153.81382 383.90582,155.78682 381.26882,156.67082 389.32672,157.18982 388.31202,158.53672 390.63582,160.66662 390.07682,164.24322 389.93782,167.06802 391.12262,162.63162 390.34777,155.25602 392.93762,163.41182 394.70622,165.59082 390.82322,173.87282 394.15622,169.09942 393.06792,161.66282 395.32842,162.77952 397.60132,168.24135 399.07242,173.17495 401.17552,178.53635 399.68692,183.59935 402.91902,181.64385 399.87433,174.46205 399.06177,170.88035 398.16646,165.49535 402.02287,171.80861 401.96777,173.94285 402.97667,176.66235 402.21754,169.30565 404.46777,176.03665 407.49347,183.88505 409.76207,191.98065 409.86447,200.46865 410.64821,209.93945 407.79717,219.21465 404.25067,227.91165 405.55957,227.84355 408.31157,219.50545 406.59447,226.34915 406.26827,227.55255 403.77027,233.69475 405.34467,231.19295 410.93097,218.65995 412.35197,204.40595 410.00427,190.85495 407.81427,179.92495 403.66567,169.57695 396.90527,160.94295 395.23627,157.55645 392.07587,155.27015 389.37427,152.94285 387.77707,148.25405 395.17607,151.13145 398.43677,151.19255 403.55377,151.68803 402.49677,157.16605 397.56177,155.19235 392.25907,154.24341 400.63907,157.42705 402.53857,156.47515 405.67437,156.76773 410.29037,160.65445 407.00007,163.56785 402.12457,159.28705 404.86027,163.90803 407.62502,166.16165 410.29552,167.40805 415.21982,167.21855 415.62502,171.00515 411.24042,169.55825 405.09202,170.39097 412.71882,171.2239 416.37492,171.56485 419.36292,177.8617 414.03142,174.5989 410.15582,173.2689 404.83112,173.3482 411.93762,174.8178 414.91942,174.99017 420.42182,180.7767 414.87502,180.9114 411.11462,179.0662 408.50822,177.3616 413.46882,181.22395 416.98542,182.99245 422.32622,183.96215 422.93762,188.72395 420.25382,189.36376 411.05262,183.44875 415.81262,187.66145 419.74572,188.99915 425.31112,190.43445 424.93762,195.88025 426.19652,201.69125 421.61162,202.49645 422.65632,196.099 421.76453,191.5001 416.26642,192.8179 413.65632,190.0678 415.52242,193.7384 423.14282,193.4363 421.28142,199.099 420.02032,204.4492 412.47062,192.1447 417.18762,200.1306 420.72212,202.3917 425.29942,203.2093 427.09382,207.5365 430.64602,209.8842 424.32582,220.7675 425.34382,216.3177 427.61032,212.1784 424.67375,206.1207 420.00022,205.6927 421.95662,207.3994 425.80032,210.2865 424.34392,213.0363 421.85892,210.4671 417.47852,210.5892 416.65642,206.4431 414.82162,205.229 418.59162,212.6729 421.84392,212.4427 426.80912,218.2057 415.68742,217.3719 416.06372,211.88901 413.85702,210.75071 417.58872,217.69661 420.15642,217.66151 426.55402,219.16571 427.20232,227.13991 425.08302,232.18551 424.81918,233.01899 426.72232,233.25751 425.02132,233.98161 Z M 463.42783,325.97391 C 464.35887,330.41198 455.96111,328.2171 453.99327,327.5796 453.68464,327.47359 453.44881,327.23717 453.17895,327.06196 453.00329,326.56997 453.07736,326.06146 453.3909,325.65416 454.54586,324.12158 456.62579,324.38244 458.1822,323.94579 458.64734,323.7607 459.1402,323.57886 460.34095,323.70107 461.54171,323.82328 462.5716,324.48825 463.42783,325.97391 Z"
     style="display:inline;fill:#ffffff"
     id="path26" />
  <path
     style="display:inline;fill:#000000"
     d="M 381.31055 138.0293 C 378.44812 141.24216 379.37721 156.19561 381.79492 147.67188 C 381.52108 158.26434 385.45203 144.93562 381.19922 141.00781 L 381.27148 139.14648 L 381.31055 138.0293 z M 359.68945 152.75 C 353.80882 152.91112 350.06846 160.37702 356.85156 154.00781 C 361.3036 151.21983 369.99759 161.03068 362.99609 153.25 C 362.06393 152.40481 360.633 153.36959 359.68945 152.75 z M 372.33984 153.25 C 369.16014 157.43405 367.17779 163.81498 372.06055 156.68164 C 371.82388 155.53118 373.23426 154.22034 372.33984 153.25 z M 357.4707 155.31055 C 351.62572 156.7409 351.71684 164.72236 356.54492 157.02539 C 358.18128 158.29078 356.65538 161.46278 361.2793 159.93164 C 373.72327 165.35085 359.50512 155.86462 357.4707 155.31055 z M 355.41016 161 C 358.55395 164.41131 363.94956 161.48425 355.41016 161 z M 345.5293 162.66016 C 337.11108 164.77491 336.01319 175.62234 331.90625 179.4375 C 340.43585 175.9803 335.92955 166.24658 345.5293 162.66016 z M 332.5293 170.08984 C 327.41932 171.55649 324.05774 176.89166 329.72266 176.14062 C 322.63687 183.70995 340.61083 171.81251 332.5293 170.08984 z M 332.70117 171.72461 C 332.80102 171.70613 332.90641 171.72363 332.99023 171.78711 C 333.32898 171.98431 333.46461 172.39746 333.45117 172.77148 C 333.24789 173.93681 332.10272 174.66831 331.23438 175.22461 C 331.07549 175.27717 330.90786 175.30789 330.74023 175.30859 C 330.73657 175.3123 330.73416 175.31661 330.73047 175.32031 L 330.73242 175.31055 C 330.73511 175.31055 330.73755 175.3086 330.74023 175.30859 C 331.69749 174.34001 331.96769 173.13407 332.44922 171.88477 C 332.50693 171.79842 332.60132 171.74309 332.70117 171.72461 z M 361.7793 171.9707 C 362.57178 177.03651 361.81681 182.85651 356.64844 184.61523 C 363.26696 184.95613 365.87604 176.48983 361.7793 171.9707 z M 377.5293 172.41016 C 375.13105 175.51761 374.32499 183.19188 378.14062 175.0918 C 378.64634 174.5513 378.77842 172.41187 377.5293 172.41016 z M 380.88086 172.5293 C 381.96921 177.13522 370.24892 184.83348 378.78711 181.0918 C 380.28711 178.91875 382.08941 175.01123 380.88086 172.5293 z M 402.33984 185.33984 C 400.85299 189.02676 394.54453 201.27855 401.49609 191.05859 C 402.16057 189.71688 403.84985 186.65363 402.33984 185.33984 z M 377.83984 191.08984 C 372.83632 193.09031 367.62039 202.39307 375.68359 194.80469 C 375.95367 194.151 379.4793 191.60539 377.83984 191.08984 z M 403.4707 191.7207 C 401.09764 197.18101 398.15996 205.96167 403.60742 196.06836 C 403.96689 195.00745 405.02717 192.54169 403.4707 191.7207 z M 375.4707 197.2793 C 367.49682 200.93578 376.25406 202.61167 375.4707 197.2793 z M 404.61914 199.41016 C 399.68939 204.11007 400.93465 213.10118 404.33789 202.17578 L 404.90039 200.12891 L 404.61914 199.41016 z M 405.7793 205.43945 C 403.15099 208.5748 398.3872 222.59106 404.3418 211.64453 C 404.60587 210.27908 407.62174 206.43584 405.7793 205.43945 z M 363.61914 219.61914 C 354.32239 221.8251 358.4008 227.54094 363.61914 219.61914 z M 364.24414 222.10547 C 357.64783 221.85608 350.32708 240.31389 357.72461 228.9707 C 359.1935 226.47122 364.39865 224.56356 364.88086 222.18945 C 364.6701 222.14085 364.45692 222.11351 364.24414 222.10547 z M 527.2207 229.7793 C 524.41348 233.60904 540.63236 233.84079 530.12891 230.42188 L 528.93945 229.9668 L 527.2207 229.7793 z M 526.25 233.83984 C 525.88035 233.84331 525.51584 233.85352 525.16016 233.86914 C 515.21051 235.26517 535.02356 237.53453 533.34766 236.33789 C 531.66807 234.18641 528.83754 233.81557 526.25 233.83984 z M 542.06055 235.0293 C 543.46698 238.60401 554.80855 242.30128 545.56055 236.12305 L 543.24805 235.3418 L 542.06055 235.0293 z M 541.31055 238.5293 C 538.5338 240.08821 553.96593 246.78151 546.1543 240.62305 C 544.66395 239.85495 543.09503 238.57404 541.31055 238.5293 z M 314.62891 239.74414 C 311.9875 240.81963 309.10031 240.06933 306.41992 240.74023 C 296.45851 245.56441 324.67964 244.11576 314.62891 239.74414 z M 538.81055 241.2793 C 537.24651 244.29294 552.42897 247.40537 542.5293 242.24805 L 540.58594 241.53516 L 538.81055 241.2793 z M 362.46484 241.42773 C 356.632 241.51819 351.3737 257.34711 357.49805 247.0332 C 357.50319 245.56863 366.54088 242.00871 363.0293 241.4707 C 362.8403 241.43946 362.653 241.42482 362.46484 241.42773 z M 408.2207 243.43945 C 405.8235 247.9044 412.50012 258.04935 410.25195 247.18945 C 409.83297 246.28529 409.79823 243.66286 408.2207 243.43945 z M 413.2207 245.5293 C 412.3027 248.61684 413.8788 262.04843 414.93945 251.43555 C 414.84122 249.69498 416.00818 245.83959 413.2207 245.5293 z M 417.81055 248.5293 C 414.70757 253.21687 419.83668 259.04233 419.25781 250.44141 L 418.87305 249.1543 L 417.81055 248.5293 z M 360.38086 248.75 C 354.22825 249.53655 350.04056 262.53338 357.06836 252.3125 C 357.19624 251.5021 363.42925 249.24098 360.38086 248.75 z M 332.08398 250.22266 C 330.34162 250.38297 325.49311 252.28871 329.32031 252.55078 C 333.05713 250.65917 333.1294 250.12647 332.08398 250.22266 z M 421.7207 250.88086 C 418.09097 254.96859 423.42496 260.43085 421.7207 250.88086 z M 335.85156 253.27734 C 333.63499 253.17566 326.12513 254.88589 330.42969 255.94922 C 336.60549 254.05053 337.18151 253.33835 335.85156 253.27734 z M 410.2793 253.36914 C 409.17209 256.03465 411.12618 254.19567 410.2793 253.36914 z M 395.43945 255.18945 C 393.08566 260.5208 383.80859 271.21779 384.2832 273.0332 C 389.7396 269.10474 395.86454 262.04242 395.43945 255.18945 z M 395.5 263.5 C 394.32898 269.39788 379.69124 278.69413 382.67773 278.28711 C 387.78294 275.67577 396.64206 269.74737 395.5 263.5 z M 280.5293 270.08398 L 280.07422 270.79883 L 279.36719 271.63281 C 271.34361 274.95333 281.53436 274.34117 280.5293 270.08398 z M 395.18945 270.81055 C 391.81027 274.34888 382.97738 286.91428 392.23047 277.57031 C 393.52092 275.76566 396.30025 273.1885 395.18945 270.81055 z M 309.0293 271.58984 C 299.43758 278.94955 315.67104 276.85925 309.0293 273.55859 L 309.11328 272.30273 L 309.0293 271.58984 z M 496.43945 277.61914 C 499.71167 282.79458 501.21389 292.32332 502.6582 297.21289 C 504.74056 290.79933 501.66489 281.73448 496.43945 277.61914 z M 385.66016 281.9707 C 380.32655 283.58102 386.71878 284.87379 385.66016 281.9707 z M 494.4707 289.68945 C 492.30262 293.09748 490.78013 307.76116 494.69336 295.94531 C 494.85566 294.33136 496.88118 290.56245 494.4707 289.68945 z M 338.43945 291.58984 C 343.97578 299.65774 357.54665 301.22243 366.30664 303.62695 C 368.77459 299.57491 377.79218 293.07653 368.24609 298.53906 C 362.24508 305.41581 353.1362 296.68355 345.01758 296.25391 C 342.60072 295.04199 340.86554 292.77984 338.43945 291.58984 z M 388.18945 293.61914 C 383.65865 297.6158 389.20975 311.63177 388.67969 299.06836 C 388.10135 297.486 389.29853 295.01299 388.18945 293.61914 z M 496.93945 295.08984 C 495.3754 299.94514 488.78751 312.87757 495.75195 302.27734 C 496.83561 300.19238 498.4981 297.35859 496.93945 295.08984 z M 392.5 295.18945 C 387.02239 299.82207 395.23784 311.35112 392.8125 299.50195 C 392.00986 298.68631 393.78038 296.02424 392.5 295.18945 z M 396.81055 296.56055 C 391.31461 301.60408 400.14547 310.53891 396.5918 299.3418 L 396.99805 296.7168 L 396.81055 296.56055 z M 400.68945 300 C 397.92308 304.41554 405.65128 310.12376 400.68945 300 z M 499.31055 301.41016 C 494.32235 304.32135 500.70094 307.98803 499.31055 301.41016 z M 503.18945 301.43945 C 506.62301 307.39501 500.26082 318.8717 500.81445 321.4082 C 504.83612 316.05082 508.35096 307.07331 503.18945 301.43945 z M 497.16016 306.75 C 489.73507 314.32172 496.52727 313.09251 497.16016 306.75 z M 500.93945 307.86914 C 497.94895 311.24347 489.81112 323.46357 497.9707 314.43164 C 499.07839 312.34051 500.51423 310.23016 500.93945 307.86914 z M 492.56055 312.66016 C 489.14237 314.28487 495.10346 314.72957 492.56055 312.66016 z M 505.7207 316.68945 C 503.66288 321.1497 499.12871 331.0583 505.4082 321.3457 C 505.53116 320.49882 508.07626 316.9509 505.7207 316.68945 z M 489.5 320.83984 C 484.00512 325.62356 469.67449 318.97101 468.625 322.33984 C 474.28919 325.17184 488.23428 326.81043 489.5 320.83984 z M 313.75 324.68945 C 311.84995 329.22002 310.79386 336.5803 308.68359 339.50781 C 313.55575 336.77855 313.63594 328.40519 313.75 324.68945 z M 492.31055 324.7793 C 487.70232 326.6971 474.63077 327.15403 487.12305 328.0293 C 488.51251 327.45999 493.91508 326.94594 492.31055 324.7793 z M 509.88086 328.91016 C 506.68006 331.96741 519.93342 337.63801 511.75391 329.85742 L 510.56836 328.97266 L 509.88086 328.91016 z "
     id="path142" />
</svg>
