<?xml version="1.0" encoding="UTF-8" standalone="no"?>
<svg
   xmlns:dc="http://purl.org/dc/elements/1.1/"
   xmlns:cc="http://creativecommons.org/ns#"
   xmlns:rdf="http://www.w3.org/1999/02/22-rdf-syntax-ns#"
   xmlns:svg="http://www.w3.org/2000/svg"
   xmlns="http://www.w3.org/2000/svg"
   xmlns:sodipodi="http://sodipodi.sourceforge.net/DTD/sodipodi-0.dtd"
   xmlns:inkscape="http://www.inkscape.org/namespaces/inkscape"
   width="900"
   height="600"
   version="1.1"
   id="svg234"
   sodipodi:docname="ic_flag_do.svg"
   inkscape:version="0.92.1 r15371">
  <metadata
     id="metadata240">
    <rdf:RDF>
      <cc:Work
         rdf:about="">
        <dc:format>image/svg+xml</dc:format>
        <dc:type
           rdf:resource="http://purl.org/dc/dcmitype/StillImage" />
      </cc:Work>
    </rdf:RDF>
  </metadata>
  <defs
     id="defs238" />
  <sodipodi:namedview
     pagecolor="#ffffff"
     bordercolor="#666666"
     borderopacity="1"
     objecttolerance="10"
     gridtolerance="10"
     guidetolerance="10"
     inkscape:pageopacity="0"
     inkscape:pageshadow="2"
     inkscape:window-width="2154"
     inkscape:window-height="1202"
     id="namedview236"
     showgrid="false"
     inkscape:zoom="7.9698791"
     inkscape:cx="410.40462"
     inkscape:cy="272.20119"
     inkscape:window-x="0"
     inkscape:window-y="0"
     inkscape:window-maximized="0"
     inkscape:current-layer="svg234" />
  <path
     d="M0 0h900v600H0z"
     fill="#fff"
     id="path2" />
  <path
     d="M0 0h390v240H0z"
     fill="#002d62"
     id="path4" />
  <path
     d="M0 360h390v240H0z"
     fill="#ce1126"
     id="path6" />
  <path
     d="M510 360h390v240H510z"
     fill="#002d62"
     id="path8" />
  <path
     d="M510 0h390v240H510z"
     fill="#ce1126"
     id="path10" />
  <g
     transform="matrix(1.06534,0,0,1.06534,-82.674,-25.678)"
     id="g95">
    <path
       d="M 474.5,281.05 C 474.565,281.483 474.533,317.828 474.533,321.589 474.533,325.184 474.575,327.465 476.284,329.741 477.691,331.711 480.051,333.333 482.359,333.871 483.989,334.204 489.99,334.071 492.077,334.071 496.712,333.854 497.265,334.885 499.02,337.178 501.014,333.958 503.207,333.911 507.307,334.071 509.394,334.071 513.861,334.237 515.72,333.838 517.937,333.308 519.668,332.249 521.1,330.476 523.449,327.78 523.318,324.418 523.318,320.89 V 282.578 C 523.318,280.848 523.123,281.28 524.003,280.381 L 529.775,274.323 468.107,274.357 474.499,281.047 Z"
       id="path12"
       inkscape:connector-curvature="0"
       style="fill:#ffffff" />
    <path
       d="M 493.76,299.09 V 274.322 H 468.251 L 474.584,281.012 474.644,299.09 Z"
       id="path14"
       inkscape:connector-curvature="0"
       style="fill:#002d62" />
    <path
       d="M 503.98,299.09 V 274.322 H 529.966 L 523.335,281.43 V 299.09 Z M 493.76,309.32 H 474.461 L 474.404,324.922 C 475.278,331.736 480.317,334.057 484.837,334.034 487.896,334.067 488.937,334.014 493.76,333.979 Z"
       id="path16"
       inkscape:connector-curvature="0"
       style="fill:#ce1126" />
    <path
       d="M 503.98,309.32 H 523.398 L 523.335,324.922 C 522.879,331.676 517.422,334.057 512.902,334.034 L 503.98,333.979 Z"
       id="path18"
       inkscape:connector-curvature="0"
       style="fill:#002d62" />
    <path
       d="M 474.61,281.05 C 474.675,281.483 474.643,317.828 474.643,321.589 474.643,325.184 474.643,327.38 476.436,329.91 477.844,331.88 479.866,333.46 482.469,333.871 484.099,334.204 490.1,334.071 492.187,334.071 494.861,334.071 496.1,333.938 497.894,335.735 498.448,336.268 498.579,336.534 499.003,337.2 499.231,337.033 499.231,337 499.362,336.767 A 5.27,5.27 0 0 1 502.036,334.437 C 503.438,333.871 505.786,334.071 507.416,334.071 509.504,334.071 513.971,334.237 515.83,333.838 518.047,333.308 520.01,331.89 521.21,330.476 523.559,327.78 523.428,324.418 523.428,320.89 V 282.578 C 523.428,280.848 523.233,281.28 524.113,280.381 L 529.885,274.323 468.217,274.356 474.609,281.046 Z"
       id="path20"
       inkscape:connector-curvature="0"
       style="fill:none;stroke:#000000;stroke-width:0.93866748;stroke-miterlimit:4;stroke-dasharray:none" />
    <path
       d="M 497.92,280.41 V 283.183 H 495.122 V 285.529 H 497.92 V 295.455 H 500.223 V 285.529 H 503.056 V 283.183 H 500.223 V 280.41 Z"
       id="path22"
       inkscape:connector-curvature="0"
       style="fill:#eac102;stroke:#000000;stroke-width:0.273" />
    <g
       id="a">
      <path
         d="M 481.88,284.06 481.91,288.59 480,286.66 480.28,318.59 C 480.28,323.35 483.71,327.19 487.94,327.19 492.13,327.19 495.54,323.4 495.59,318.69 L 495.28,302.25 493.22,300.12 493.19,298.44 Z"
         id="path24"
         inkscape:connector-curvature="0"
         style="fill:#ffffff" />
      <path
         d="M 481.88,284.22 481.91,288.78 480,286.84 480.16,305.03 488.41,312.88 488.47,295.47 488.16,295.12 V 292.19 Z"
         id="path26"
         inkscape:connector-curvature="0"
         style="fill:#002d62" />
      <path
         d="M 490.77,295.51 493.194,298.589 493.21,299.634 490.764,297.124 Z M 495.3,302.42 495.518,313.862 C 494.341,316.072 491.949,314.874 491.949,314.874 L 492.025,299.084 Z"
         id="path28"
         inkscape:connector-curvature="0"
         style="fill:#ce1126" />
      <path
         d="M 495.55,319.64 C 492.422,321.979 491.553,318.512 491.553,318.512 493.894,318.285 495.007,316.916 495.53,315.534 Z"
         id="path30"
         inkscape:connector-curvature="0"
         style="fill:#002d62" />
      <path
         d="M 480.21,309.72 C 484.503,314.592 488.175,317.222 488.175,317.222 489.14,324.89 493.675,322.342 495.309,321.147 494.386,324.743 491.441,327.37 487.95,327.37 483.72,327.37 480.29,323.51 480.29,318.749 Z"
         id="path32"
         inkscape:connector-curvature="0"
         style="fill:#ce1126" />
      <path
         d="M 493.2,299.63 493.182,298.471 481.862,284.089 481.891,288.052 Z"
         id="path34"
         inkscape:connector-curvature="0"
         style="fill:none;stroke:#000000;stroke-width:0.26199999" />
      <path
         d="M 480,286.66 480.294,318.582 C 480.294,323.342 483.722,327.202 487.95,327.202 492.146,327.202 495.553,323.401 495.604,318.69 L 495.294,302.245 Z"
         id="path36"
         inkscape:connector-curvature="0"
         style="fill:none;stroke:#000000;stroke-width:0.317" />
      <g
         id="g52"
         style="fill:#eac102;stroke:#000000;stroke-width:0.064" />
    </g>
    <g
       id="use55"
       transform="matrix(-1,0,0,1,998.257,0)">
      <path
         style="fill:#ffffff"
         inkscape:connector-curvature="0"
         id="path4738"
         d="M 481.88,284.06 481.91,288.59 480,286.66 480.28,318.59 C 480.28,323.35 483.71,327.19 487.94,327.19 492.13,327.19 495.54,323.4 495.59,318.69 L 495.28,302.25 493.22,300.12 493.19,298.44 Z" />
      <path
         style="fill:#002d62"
         inkscape:connector-curvature="0"
         id="path4740"
         d="M 481.88,284.22 481.91,288.78 480,286.84 480.16,305.03 488.41,312.88 488.47,295.47 488.16,295.12 V 292.19 Z" />
      <path
         style="fill:#ce1126"
         inkscape:connector-curvature="0"
         id="path4742"
         d="M 490.77,295.51 493.194,298.589 493.21,299.634 490.764,297.124 Z M 495.3,302.42 495.518,313.862 C 494.341,316.072 491.949,314.874 491.949,314.874 L 492.025,299.084 Z" />
      <path
         style="fill:#002d62"
         inkscape:connector-curvature="0"
         id="path4744"
         d="M 495.55,319.64 C 492.422,321.979 491.553,318.512 491.553,318.512 493.894,318.285 495.007,316.916 495.53,315.534 Z" />
      <path
         style="fill:#ce1126"
         inkscape:connector-curvature="0"
         id="path4746"
         d="M 480.21,309.72 C 484.503,314.592 488.175,317.222 488.175,317.222 489.14,324.89 493.675,322.342 495.309,321.147 494.386,324.743 491.441,327.37 487.95,327.37 483.72,327.37 480.29,323.51 480.29,318.749 Z" />
      <path
         style="fill:none;stroke:#000000;stroke-width:0.26199999"
         inkscape:connector-curvature="0"
         id="path4748"
         d="M 493.2,299.63 493.182,298.471 481.862,284.089 481.891,288.052 Z" />
      <path
         style="fill:none;stroke:#000000;stroke-width:0.317"
         inkscape:connector-curvature="0"
         id="path4750"
         d="M 480,286.66 480.294,318.582 C 480.294,323.342 483.722,327.202 487.95,327.202 492.146,327.202 495.553,323.401 495.604,318.69 L 495.294,302.245 Z" />
      <g
         style="fill:#eac102;stroke:#000000;stroke-width:0.064"
         id="g4754">
        <path
           id="path4752"
           transform="matrix(0.93866747,0,0,0.93866747,77.603394,24.103103)"
           style="stroke-width:0.06818176"
           d="M 432.05078,267.91211 432.91992,272.38672 C 433.43921,272.25566 433.86832,272.28693 434.29688,272.62891 L 447.12891,295.02344 447.93945,294.71289 434.70898,272.39648 C 434.6493,271.83761 434.83919,271.4592 435.17578,271.11328 Z M 425.83398,269.43945 V 269.44336 L 425.83594,269.44727 427.25977,273.76172 C 427.76021,273.56279 428.19101,273.53645 428.66211,273.82422 L 444.20117,294.34961 444.9668,293.93555 429.03711,273.54492 C 428.90394,272.99423 429.04264,272.59263 429.33398,272.20312 Z M 424.34766,274.33789 426.24609,278.46875 C 426.72115,278.21352 427.14508,278.14021 427.64453,278.37109 L 445.37305,296.9707 446.08789,296.46875 427.98633,278.04688 C 427.79395,277.51583 427.88868,277.10198 428.13477,276.68164 Z M 466.08433,267.91211 465.21519,272.38672 C 464.6959,272.25566 464.26679,272.28693 463.83823,272.62891 L 451.0062,295.02344 450.19566,294.71289 463.42613,272.39648 C 463.48581,271.83761 463.29592,271.4592 462.95933,271.11328 Z M 472.30113,269.43945 V 269.44336 L 472.29917,269.44727 470.87534,273.76172 C 470.3749,273.56279 469.9441,273.53645 469.473,273.82422 L 453.93394,294.34961 453.16831,293.93555 469.098,273.54492 C 469.23117,272.99423 469.09247,272.59263 468.80113,272.20312 Z M 473.78745,274.33789 471.88902,278.46875 C 471.41396,278.21352 470.99003,278.14021 470.49058,278.37109 L 452.76206,296.9707 452.04722,296.46875 470.14878,278.04688 C 470.34116,277.51583 470.24643,277.10198 470.00034,276.68164 Z"
           inkscape:connector-curvature="0"
           sodipodi:nodetypes="cccccccccccccccccccccccccccccccccccccccccccccccccccc" />
      </g>
    </g>
    <g
       id="g71"
       style="stroke:#000000;stroke-width:0.236">
      <path
         d="M 496.73,314.54 496.096,324.644 C 495.456,324.587 494.219,324.484 494.126,323.663 494.074,323.199 495.389,314.931 495.439,314.127 495.876,314.247 496.332,314.45 496.73,314.54 Z"
         id="path57"
         inkscape:connector-curvature="0"
         style="fill:#ce1126" />
      <path
         d="M 495.77,314.12 C 495.707,314.516 495.487,316.926 495.55,317.214 495.739,318.185 496.933,318.041 497.593,318.077 L 497.719,312.897 C 497.499,313.112 496.021,314.012 495.77,314.12 Z"
         id="path59"
         inkscape:connector-curvature="0"
         style="fill:#002d62" />
      <path
         d="M 495.88,327.04 C 497.544,324.955 500.664,326.504 500.664,326.504 504.079,327.27 503.229,323.368 503.229,323.368 502.536,315.564 501.709,310.224 501.709,310.224 L 496.72,313.555 Z"
         id="path61"
         inkscape:connector-curvature="0"
         style="fill:#002d62" />
      <path
         d="M 495.86,327.17 C 495.5,329.487 497.818,329.147 497.818,329.147 500.575,329.107 499.786,326.191 499.786,326.191 496.829,325.342 495.86,327.17 495.86,327.17 Z"
         id="path63"
         inkscape:connector-curvature="0"
         style="fill:#002d62;stroke-width:0.18799999" />
      <path
         d="M 497.83,312.74 C 497.657,320.812 497.584,321.635 497.584,321.635 497.699,323.847 500.116,322.651 500.116,322.651 500.691,322.411 501.324,322.591 501.324,322.591 L 501.209,319.841 C 505.231,319.543 504.296,317.201 504.296,317.201 502.656,309.578 502.549,309.911 502.549,309.911 Z"
         id="path65"
         inkscape:connector-curvature="0"
         style="fill:#ce1126" />
      <path
         d="M 501.31,319.81 C 498.773,319.77 497.742,320.77 497.742,320.77 L 497.639,320.99"
         id="path67"
         inkscape:connector-curvature="0"
         style="fill:none;stroke-width:0.22499999" />
      <path
         d="M 500.99,326.45 500.115,311.257 501.865,310.085 503.382,324.301 V 324.447 C 503.382,327.085 500.99,326.45 500.99,326.45 Z"
         id="path69"
         inkscape:connector-curvature="0"
         style="fill:#ffffff;stroke-width:0.20900001" />
    </g>
    <g
       id="g93"
       style="fill:#ffffff;stroke:#000000">
      <path
         d="M 488.23,302.2 495.018,314.65 509.648,304.938 502.028,293.689 Z"
         id="path73"
         inkscape:connector-curvature="0"
         style="fill:#000000;stroke-width:0.042" />
      <path
         d="M 488.49,302.1 502.243,294.086 509.763,304.909 495.233,314.256 Z"
         id="path75"
         inkscape:connector-curvature="0"
         style="stroke-width:0.27200001" />
      <path
         d="M 495.43,313.53 509.127,304.71 508.074,303.024 501.212,293.701 496.25,297.709 489.915,301.219 488.799,300.523 489.022,302.011 Z"
         id="path77"
         inkscape:connector-curvature="0"
         style="fill:#000000;stroke-width:0.039" />
      <path
         id="path81"
         style="stroke-width:0.148"
         d="M 496.36,297.88 C 496.366,295.502 499.312,294.745 500.098,294.323 500.885,293.901 501.131,292.417 501.131,292.417 L 508.058,302.98 C 507.932,305.061 505.467,305.268 504.508,305.806 502.75,306.793 502.511,308.315 502.511,308.315 Z M 496.18,297.77 C 494.154,296.81 491.8,299.837 491.123,300.438 490.445,301.039 489.082,300.678 489.082,300.678 L 495.261,311.764 C 497.084,312.484 498.26,310.149 499.107,309.426 500.66,308.101 502.483,308.203 502.483,308.203 Z"
         inkscape:connector-curvature="0" />
      <path
         d="M 495.02,311.82 C 491.067,304.584 488.893,300.803 488.893,300.803 488.8,302.129 488.873,302.045 488.873,302.045 493.484,309.475 495.362,313.458 495.362,313.458 495.259,312.91 495.138,312.365 495.02,311.82 Z"
         id="path83"
         inkscape:connector-curvature="0"
         style="stroke-width:0.105" />
      <g
         id="g91"
         style="fill:#000000;stroke:none" />
    </g>
  </g>
  <g
     id="g107"
     style="fill:#002d62">
    <path
       id="path105"
       d="M 479.975,258.608 C 481.84562,257.9842 483.34319,263.38122 486.887,261.69 486.68279,258.908 482.21492,257.66268 480.561,256.632 480.33006,256.8352 480.08992,258.32266 479.975,258.608 Z M 417.941,258.673 C 418.147,259.573 418.546,259.653 416.889,261.027 413.019,264.22 406.505,264.379 402.429,266.132 400.359,267.033 399.211,267.776 397.379,268.882 397.555,268.345 399.928,264.915 400.517,264.014 398.701,263.982 396.327,264.157 394.464,264.267 394.56,264.203 394.609,264.109 394.72,264.014 397.46,261.612 404.59184,258.97485 408.09584,257.82185 409.16952,259.07239 410.16612,260.37207 411.27894,261.59716 412.13975,263.16281 413.87189,261.60198 415.168,260.395 415.806,259.825 417.096,258.751 417.941,258.672 Z M 479.975,258.608 C 479.768,259.509 479.37,259.588 481.027,260.963 484.897,264.156 491.41,264.314 495.487,266.068 497.557,266.968 498.705,267.711 500.536,268.818 500.36,268.28 497.988,264.851 497.399,263.95 499.214,263.918 501.588,264.092 503.451,264.203 503.356,264.14 503.307,264.045 503.196,263.95 500.456,261.548 493.48,259.35 489.976,258.197 488.966,259.379 487.999,260.527 486.887,261.69 484.0047,263.52967 481.42596,257.97305 479.975,258.608 Z M 455.27,250.767 C 457.75565,250.99114 461.70799,254.82263 463.20863,251.22468 462.06564,248.62023 458.28085,248.7419 455.748,248.365 Z M 442.83668,251.40463 442.21126,247.89943 C 440.90526,247.75743 434.38274,249.47552 434.82874,251.33952 436.72609,254.80888 439.46143,250.82958 442.83668,251.40463 Z M 411.27894,261.59716 C 412.15494,263.16116 413.84436,261.71753 415.168,260.395 416.45915,259.16676 417.066,259.035 417.941,258.673 L 417.17719,256.77285 C 416.42819,256.93085 414.503,258.026 413.803,258.406 412.45627,259.28191 411.02528,260.36203 411.27894,261.59716 Z M 411.27894,261.59716 C 411.16253,261.09116 411.222,259.844 413.803,258.406 417.052,256.588 421.607,254.913 425.333,254.17 428.566,253.538 431.895,253.554 435.271,253.807 436.768,253.918 438.744,254.155 440.224,253.918 440.224,253.918 441.822,253.544 442.271,253.148 442.858,252.63 442.83668,251.40463 442.83668,251.40463 438.91664,250.77372 436.77599,254.908 434.82874,251.33952 434.23842,249.80088 433.61014,248.29641 433.424,246.394 428.296,245.731 419.504,247.786 414.758,249.904 412.608,250.852 409.072,252.638 407.751,254.013 406.571,255.214 407.42684,256.93785 408.09584,257.82185 409.28102,259.1536 409.95893,260.18096 411.27894,261.59716 Z M 455.27,250.767 C 454.7286,253.91369 456.20107,253.71792 457.802,253.913 461.098,254.373 466.036,252.871 472.582,254.15 475.385,254.704 478.124,255.636 480.561,256.632 483.51058,257.75195 487.16157,260.03236 486.887,261.69 487.237,261.5 489.594,258.687 489.976,258.197 490.709,257.264 491.375,255.257 490.259,253.977 489.289,252.855 485.052,250.657 483.173,249.851 480.665,248.775 476.675,247.814 473.582,247.291 470.429,246.759 464.0499,246.26963 464.0499,246.26963 463.12344,256.66386 460.611,251.85035 455.27,250.767 Z M 442.21126,247.89943 C 445.46183,247.67836 445.66348,247.85653 448.975,247.705 451.683,247.72 453.073,248.112 455.748,248.365 458.82677,248.52589 462.79235,249.26094 463.20863,251.22468 463.75267,249.40898 464.17427,246.73626 464.196,244.65447 464.276,242.42647 462.72,241.636 460.744,241.241 457.479,240.561 452.001,240.625 448.482,240.656 446.188,240.671 438.034,240.735 436.377,241.336 434.864,241.873 433.296,244.339 433.424,246.394 433.471,247.421 434.39774,250.69252 434.82874,251.33952 434.9294,248.89228 441.1769,247.99183 442.21126,247.89943 Z"
       inkscape:connector-curvature="0"
       style="fill:#002d62;fill-opacity:1;stroke:#000000;stroke-width:0.80000001;stroke-linejoin:round;stroke-miterlimit:4;stroke-dasharray:none;stroke-opacity:1"
       sodipodi:nodetypes="cccccccccccccccccccccccccccccccccccccccccccccccccccccccccccccccccccccccczcc" />
  </g>
  <path
     style="fill:#eac102"
     d="M 418.857,249.755 C 415.33665,249.66991 418.5164,252.58672 418.424,254.42988 420.1429,254.67393 421.69019,252.42758 420.44888,250.869 420.10068,250.32823 419.53881,249.77345 418.857,249.755 Z M 418.591,250.145 C 420.54575,250.09461 420.2644,255.43548 418.91413,253.09587 418.93144,252.35688 417.14878,250.16941 418.591,250.145 Z M 420.774,249.062 C 422.08704,249.98119 421.08888,253.8464 423.0025,253.023 422.20966,252.32653 422.72251,247.62124 420.774,249.062 Z M 424.406,248.05 C 420.78014,248.87782 425.26596,255.23858 426.45738,251.15937 426.64347,249.9241 425.87128,248.03609 424.406,248.05 Z M 424.388,248.332 C 425.94752,248.61836 426.22746,253.93732 424.415,251.513 424.28274,250.67414 423.14996,248.73142 424.388,248.332 Z M 427.316,247.699 C 425.91669,249.60837 428.82199,249.87677 429.28238,251.062 429.17505,252.24642 427.73694,251.45179 427.674,250.679 426.38578,252.47533 431.34597,252.23461 429.70814,249.90884 428.94533,249.32935 426.29992,247.7738 428.54,247.912 429.72306,249.5301 428.81157,246.57535 427.559,247.579 L 427.315,247.699 Z M 441.196,242.266 C 438.5008,241.73222 440.34036,244.50376 440,245.989 439.27456,247.43668 441.92725,246.94655 440.787,245.636 440.95427,244.74172 444.19103,243.72399 441.8801,242.37428 441.66234,242.293 441.42822,242.25595 441.196,242.266 Z M 441.113,242.648 C 443.16521,243.10633 440.28801,246.06 440.658,243.54 440.54018,243.15178 440.47915,242.49055 441.113,242.648 Z M 444.415,242.063 C 443.69478,242.76618 442.96417,246.08768 443.46225,246.49012 444.19814,246.48099 443.3289,244.75359 444.872,245.306 444.36625,247.06418 447.07509,246.54009 445.605,245.087 445.01589,244.39755 445.53663,242.04425 444.415,242.063 Z M 444.219,243.062 C 445.11454,243.86075 444.37638,245.95022 443.91838,244.48812 444.0163,244.01262 444.02227,243.50905 444.219,243.062 Z M 447.844,241.924 C 447.00323,241.92688 445.98284,241.68138 446.16199,242.85801 448.00486,241.0233 447.38686,244.90068 447.33388,246.06912 449.37144,247.29615 447.58812,243.23283 448.4735,242.20912 449.23666,242.93492 449.85929,242.88512 449.148,241.878 448.71229,241.8475 448.27845,241.92119 447.844,241.924 Z M 451.37,241.808 C 448.97857,241.34159 451.19441,245.01027 450.18194,246.20336 452.09642,247.10578 450.59608,244.64862 451.49013,244.43175 451.63176,245.91094 454.14995,247.44544 452.567,245.109 452.01625,244.11234 454.5551,242.85692 452.415,241.967 452.07619,241.87288 451.72562,241.78052 451.37,241.808 Z M 451.674,242.146 C 453.80362,242.52905 450.78,245.63709 451.2,243.005 451.1231,242.69255 451.1502,242.01609 451.674,242.146 Z M 454.429,242.544 C 454.43524,243.81757 453.61442,247.5958 455.144,246.222 454.92131,244.91153 456.05635,241.05109 454.36837,242.33787 L 454.428,242.542 Z M 457.549,242.394 C 457.65326,243.6498 455.51136,246.20189 456.502,246.64512 457.35001,246.83913 456.21018,244.7984 457.942,245.628 457.24777,247.20583 460.03897,247.4053 458.739,245.629 458.29894,244.69698 458.95273,242.35015 457.549,242.394 Z M 457.599,243.337 C 457.97557,244.11269 458.01719,246.08612 457.031,244.985 457.22031,244.43867 457.33866,243.8343 457.599,243.337 Z M 465.529,247.72 C 465.93239,249.02216 465.92918,250.71843 465.68945,252.06661 466.06144,252.39744 467.31401,252.06645 468.018,252.135 468.98781,249.59713 466.60497,253.17557 466.564,251.137 467.39607,250.2943 466.09502,248.68445 466.712,247.657 466.31767,247.678 465.92333,247.699 465.529,247.72 Z M 468.48,252.098 C 470.64269,252.6342 468.93216,249.54954 469.50583,248.25207 469.89734,246.99739 467.77363,247.62425 468.69337,248.93848 468.59115,249.96996 468.92139,251.14007 468.48,252.098 Z M 470.302,247.614 C 471.04983,249.55145 468.55899,253.08009 472.06613,252.25275 474.45367,251.60634 471.32774,249.95959 472.86301,249.4058 473.64937,247.76221 471.34318,247.5797 470.302,247.614 Z M 471.334,248.019 C 473.509,248.06425 470.73829,251.29412 471.213,248.511 470.93969,248.48703 471.50669,248.01809 471.334,248.019 Z M 471.101,249.947 C 473.78363,249.96082 470.42863,253.925 471.06322,250.40535 Z M 473.221,252.417 C 473.96956,253.08026 476.62159,253.04023 475.733,252.242 473.48378,253.73712 474.28053,248.99934 475.597,250.95312 476.63656,249.01575 473.60128,251.01747 474.797,248.762 475.7355,248.52831 476.61384,250.4347 476.1047,248.57781 474.79486,248.2532 473.40097,247.46228 473.85938,249.48112 473.51557,250.35058 473.90938,251.72241 473.221,252.417 Z M 476.961,248.881 C 477.28531,250.12619 475.42679,254.4468 477.123,253.107 477.21719,251.14502 477.85981,251.88619 477.99816,253.31261 479.7209,255.86659 477.36159,251.4332 479.40145,251.34908 480.0902,249.71431 478.2105,249.02106 476.961,248.881 Z M 477.961,249.478 C 479.37567,249.4473 478.78309,252.3317 477.48778,251.27352 477.66871,250.69923 477.57913,249.96355 477.961,249.478 Z M 479.858,250.916 C 481.81463,249.72661 480.55648,252.43457 480.42057,253.42045 479.35757,254.82177 481.43804,255.75246 481.17113,253.73075 481.58744,253.01467 481.00449,251.05128 482.02759,251.06897 482.66255,251.85394 482.82867,252.35493 482.853,251.062 481.95202,251.06005 479.94015,249.03156 479.858,250.916 Z M 484.023,251.748 C 483.37156,252.75274 480.90679,256.01701 482.32912,255.31162 482.32138,253.71182 484.19289,255.38157 483.268,256.201 484.93895,257.58557 484.52075,252.63364 484.24462,251.82075 Z M 483.726,252.674 C 483.94971,253.45648 483.50094,255.53471 482.889,254.051 483.18478,253.60482 483.51435,253.1687 483.726,252.674 Z M 486.452,253.239 C 485.96909,255.37713 482.76347,257.49288 486.45325,258.49425 489.08994,257.9845 488.49938,254.24312 486.452,253.239 Z M 487.188,254.336 C 489.24126,255.55405 485.10469,259.76676 485.643,256.69 486.21369,255.96177 486.44838,254.88891 487.188,254.336 Z"
     id="path109"
     inkscape:connector-curvature="0" />
  <path
     d="M434.315 348.831c.799.274 2.433 1.036 3.094 1.343 0 0 2.288 4.27 2.257 4.208.869.616.73.48 1.702.72l-5.384 2.223c-1.563.582-.938 1.95-.208 2.224.8.239 2.466-.445 3.057-.719 2.674-1.232 5.104-2.497 7.501-4.037.383-.24 2.154-1.47 2.502-1.403l9.517 5.406c.694.308 2.084 1.198 2.848.65.312-.205.8-.685.625-1.232-.139-.581-.521-.684-.972-.854-.73-.309-5.037-2.259-5.176-2.259l1.147-.308c.347-.24-.252-.95.2-.813l2.37-3.875 2.952-1.06c-.02-2.72-22.224-4.412-28.032-.214z"
     fill="#006300"
     id="path111" />
  <path
     d="M435.858 357.972c-.799.24-.589 1.779 1.008 1.266 1.077-.377.244-1.675-1.006-1.265zm23.62.065c-.244.581-.209.854.347 1.094.59.274.938.274 1.32-.137.521-.512.104-.718-.348-.957-.486-.275-.104-.24-.486-.138-.277.103-.486.069-.833.138z"
     fill="#ff0"
     id="path113" />
  <path
     style="fill:#006300;stroke:#808000;stroke-width:0.30000001;stroke-miterlimit:4;stroke-dasharray:none"
     d="M 482.245,269.783 C 482.99158,272.22607 484.95507,274.3531 484.74256,277.04 483.55894,276.2883 482.59188,272.08493 481.45557,273.36097 482.03096,276.54228 484.97663,280.67389 485.76807,282.5241 482.72597,280.38801 482.26809,276.4332 480.424,273.453 480.8388,275.36233 481.64961,280.39519 478.31376,277.63524 476.70147,278.47183 481.48743,280.86988 481.99725,282.46878 482.85474,283.80472 484.99083,287.23152 484.94527,287.2863 483.48979,285.81934 480.34376,282.63508 479.5633,282.56708 482.3586,285.9577 485.6437,289.03769 487.615,293.025 484.86394,289.36398 482.0282,285.44082 477.7794,283.41587 480.58727,286.55948 484.03636,289.12838 486.2969,292.75056 487.37126,293.82491 488.70532,297.31923 486.37282,294.73845 484.78977,293.23771 482.25606,289.55513 481.04643,289.63459 483.19221,293.03003 486.56228,295.50547 488.50865,299.07028 490.04474,302.06542 486.68208,296.81204 485.618,296.00851 484.56277,294.74346 481.04911,291.89082 480.9005,292.62415 482.52394,294.80554 486.88331,298.12615 486.86338,299.79514 484.95752,297.92301 482.60978,296.21346 479.9958,295.64952 485.67719,298.97447 490.21935,304.64541 491.01901,311.30505 489.60288,308.25726 489.5008,304.14811 486.2619,302.30079 482.65861,304.07393 480.83607,308.15095 480.50973,311.9877 481.60944,311.15818 482.50182,306.72641 483.27876,308.04398 482.7976,309.34488 481.90702,314.32417 483.22511,310.69317 483.3075,308.51687 485.60948,306.25723 486.19687,309.54238 487.0522,311.94601 487.52487,316.94944 487.45341,317.95042 486.77555,316.02583 485.54263,310.80123 483.18176,312.2599 482.41425,314.2221 479.76527,311.63005 479.73281,314.60667 479.03394,315.99011 480.94256,319.97085 480.75073,316.68428 480.49316,315.23936 481.4962,313.39531 482.20638,315.76739 484.1947,320.87766 481.51837,326.32819 478.69938,330.55849 478.0001,331.65532 475.21898,335.1233 477.07353,332.13382 478.94269,328.65265 480.22867,324.81471 480.50736,320.85808 478.48683,324.26492 478.11472,328.4228 475.66685,331.62165 475.35316,332.63326 473.15431,335.89812 474.03464,332.84336 474.14827,329.33715 472.39387,336.93362 472.1068,335.54679 473.02267,334.67249 473.01383,329.31259 471.99663,332.86536 471.96293,334.12255 470.04057,336.09645 470.8216,333.68251 469.51365,332.20891 469.38683,337.32318 468.12548,338.08164 464.91923,340.9359 470.22272,341.86419 472.34069,341.89333 476.24316,342.31761 480.20253,341.46336 484.07811,342.24769 487.18246,341.36125 478.35774,340.62613 481.45087,340.09247 483.55133,339.89722 486.38219,340.73324 488.00797,339.52875 486.14349,338.51705 483.2599,339.10938 481.71574,338.4309 484.98309,337.82143 488.37167,338.42671 491.60928,337.63688 490.70671,336.06375 484.80242,336.86452 488.9417,336.30544 490.81997,336.05814 494.70459,337.35527 495.2789,335.74089 494.08125,334.91608 488.82355,335.37213 490.72744,333.32708 493.96829,331.74466 497.51503,330.98499 500.95333,329.96669 498.85464,328.4794 496.33792,331.02639 494.27412,330.12153 497.93315,328.86025 501.25253,326.55645 505.17143,326.19893 506.74532,326.26801 510.06244,324.15366 506.48764,324.87843 504.35964,325.05245 500.08786,326.1937 499.28998,325.68109 500.87038,324.65066 505.39027,324.18108 505.26153,323.00564 503.28575,323.04527 499.69237,324.76864 498.85851,324.52609 502.16961,323.01047 505.82413,322.58847 509.3028,321.61395 507.66162,320.26417 503.66093,322.5805 503.21151,320.62812 504.41093,318.39033 509.35885,319.16839 507.76767,316.75254 508.51144,315.41859 509.18306,313.98523 507.32674,315.70715 506.13603,316.79472 502.31196,318.71001 501.97053,317.11502 503.30068,315.7097 507.59935,314.52732 507.30617,313.43548 505.04228,313.91973 502.8859,314.8098 500.83123,315.86238 502.97251,313.12679 506.26016,311.55702 508.42199,308.87078 505.28747,309.54601 501.35535,313.43081 499.72788,313.99686 502.83558,310.89804 506.2552,308.13812 509.47547,305.16095 505.66076,306.48782 502.85081,309.53981 499.44284,311.57514 500.82068,308.04777 503.94452,305.56919 506.59561,302.99371 507.56706,302.03584 511.44018,299.16222 508.28744,300.90027 504.92161,302.94305 502.15397,305.85537 499.5163,308.73724 497.9401,310.65246 496.54655,312.71131 495.26,314.83 497.19008,307.99229 504.93961,304.83099 506.73343,297.92312 503.78103,299.32381 502.61645,302.8578 500.0859,304.85142 499.51555,305.59203 496.94916,308.75799 498.36302,306.0577 501.05679,300.55936 505.22915,296.00493 509.18818,291.40438 504.76521,292.14954 502.25816,296.25976 499.47335,299.33012 498.48713,298.73411 500.83698,295.01521 501.54484,293.49517 502.77946,291.32963 504.20701,289.28344 505.53089,287.17315 502.00097,289.58127 500.39538,293.70307 498.15734,297.14175 498.85231,293.21521 501.77717,290.00478 503.821,286.635 499.55972,289.44416 497.53938,294.34679 495.45864,298.79204 496.2509,293.11138 499.66405,288.26455 503.17699,283.90332 503.24208,282.80484 500.28819,285.46034 499.72764,286.49385 499.00713,287.54008 496.54893,290.98978 497.96422,287.76732 499.03689,284.87919 501.4087,282.7592 502.87055,280.13289 499.21591,282.4352 496.91074,286.20967 494.633,289.763 495.27061,285.45859 496.95232,281.38861 498.943,277.547 496.93091,277.52143 496.02515,282.09896 495.2349,281.51836 495.71399,279.45588 497.50872,277.6721 497.27584,275.50007 496.22912,276.63838 495.75656,279.16202 494.43346,279.52368 495.24193,278.23737 495.87079,275.54121 494.32126,278.12241 492.89358,280.41886 491.91193,282.95792 491.092,285.525 490.69935,282.10398 492.25346,278.75556 491.82709,275.3606 490.38704,276.86814 491.02292,281.78562 489.05346,281.54787 487.13632,277.46637 486.24762,272.46285 482.245,269.783 Z M 483.832,312.173 C 484.43625,315.14017 486.99651,318.06862 485.78047,321.18217 483.98733,321.28779 485.47482,316.28287 483.34916,315.37766 483.14375,314.36371 482.63419,312.77918 483.832,312.173 Z"
     id="path115"
     inkscape:connector-curvature="0" />
  <g
     id="g141"
     style="fill:#008f4c" />
  <path
     d="M404.997 283.676c.013.992.286 1.25.727 1.877l.112-1.942c-.364-.222-.504-.035-.84.065z"
     fill="#00873f"
     id="path143" />
  <g
     transform="matrix(1.06534,0,0,1.06534,-82.674,-25.678)"
     id="g168"
     style="fill:none;stroke:#006300;stroke-width:0.62699997">
    <g
       transform="matrix(0.1567,0,0,0.1567,442.052,224.217)"
       id="g150">
      <path
         id="b"
         style="fill:#ff0000;stroke-width:2"
         d="M 91.376,425.97 A 5.975,5.975 0 1 1 79.426,425.97 5.975,5.975 0 0 1 91.376,425.97 Z"
         inkscape:connector-curvature="0" />
    </g>
    <path
       inkscape:connector-curvature="0"
       d="M 458.88562,312.57284 A 0.936285,1.0831509 0 1 1 457.01305,312.57284 0.936285,1.0831509 0 0 1 458.88562,312.57284 Z"
       style="fill:#ff0000;stroke-width:0.33708501"
       id="use152" />
    <path
       inkscape:connector-curvature="0"
       d="M 458.00362,315.0695 A 0.936285,0.936285 0 1 1 456.13105,315.0695 0.936285,0.936285 0 0 1 458.00362,315.0695 Z"
       style="fill:#ff0000;stroke-width:0.3134"
       id="use154" />
    <path
       inkscape:connector-curvature="0"
       d="M 455.43363,324.02767 A 1.0097152,1.0097152 0 1 1 453.4142,324.02767 1.0097153,1.0097153 0 0 1 455.43363,324.02767 Z"
       style="fill:#ff0000;stroke-width:0.33798"
       id="use156" />
    <path
       inkscape:connector-curvature="0"
       d="M 454.18563,328.21267 A 1.0097152,1.0097152 0 1 1 452.1662,328.21267 1.0097153,1.0097153 0 0 1 454.18563,328.21267 Z"
       style="fill:#ff0000;stroke-width:0.33798"
       id="use158" />
    <path
       inkscape:connector-curvature="0"
       d="M 455.72763,329.82867 A 1.0097152,1.0097152 0 1 1 453.7082,329.82867 1.0097153,1.0097153 0 0 1 455.72763,329.82867 Z"
       style="fill:#ff0000;stroke-width:0.33798"
       id="use160" />
    <path
       id="path166"
       d="M 458.76,316.61 C 458.54,315.655 457.659,315.362 457.659,315.362 M 454.83,310.99 C 459.713,309.007 459.13,304.702 460.007,302.95 461.328,300.306 462.283,299.535 462.283,299.535 M 459.7,332.37 C 458.039,328.164 460.012,327.386 460.012,327.386 M 459.03,331.02 C 456.9,328.268 454.2,328.477 454.2,328.477 M 458.09,318.2 C 459.388,315.812 458.038,313.42 458.038,313.42 M 458.73,329.72 454.932,324.795 M 457.21,294.36 C 457.724,292.414 456.182,291.533 456.182,291.533 M 455.17,303.94 454.304,303.247 M 456.08,298.62 C 455.387,297.624 455.344,297.624 455.344,297.624 M 453.57,311.08 C 453.31,308.96 452.098,308.353 452.098,308.353 M 463.44,338.34 C 458.04,332.37 456.275,321.57 456.275,321.57 458.04,317.052 460.377,316.013 460.377,316.013 M 456.28,321.52 C 454.515,314.563 454.955,307.292 454.955,307.292 455.578,298.362 458.409,290.47 458.409,290.47 M 454.9,309.78 C 456.332,303.244 461.77,304.034 461.77,304.034"
       inkscape:connector-curvature="0"
       sodipodi:nodetypes="ccccccccccccccccccccccccccccc"
       style="stroke:#808000;stroke-opacity:1" />
  </g>
  <g
     id="g186"
     style="fill:#006300">
    <path
       style="stroke:#808000;stroke-width:0.30000001;stroke-miterlimit:4;stroke-dasharray:none;stroke-opacity:1"
       d="M 406.00586,273.28516 C 403.83376,276.2234 401.9064,280.64882 404.43695,283.9501 405.81124,285.46687 407.3492,280.85538 409.55927,282.28639 412.6471,282.00937 415.48607,277.70365 415.39226,275.79574 413.72046,276.97257 412.47241,275.58984 412.65308,274.15503 410.32678,273.57989 407.08603,279.60684 406.59175,275.098 406.40785,274.49011 406.21251,273.88569 406.00586,273.28516 Z M 399.13867,282.42969 C 397.00613,285.05441 398.91506,288.4768 398.14646,291.1483 397.7487,292.2431 398.48178,295.88106 397.13222,293.0848 395.84427,293.0089 396.33996,295.40857 395.53236,293.32307 394.33626,292.35333 392.63324,289.28714 392.01145,289.57988 390.48877,292.33165 391.03622,296.07785 393.20989,298.10924 392.11134,297.37225 389.36316,296.13417 390.72581,298.69515 391.68852,302.47071 395.45821,304.11058 399.03068,303.32332 401.13146,302.17797 398.22282,296.62135 401.49167,297.63174 403.88389,295.13657 400.50342,292.33108 399.38005,290.53621 401.25604,293.19013 404.14595,290.87103 402.96766,288.11144 402.72206,285.55726 399.6691,284.88963 399.13867,282.42969 Z M 410.23828,283.31641 C 408.3751,285.52395 404.36816,285.35929 403.82018,288.79689 402.79535,293.16007 409.34282,290.78862 409.63656,287.90031 410.082,286.50128 410.72154,284.76388 410.23828,283.31641 Z M 413.58203,284.03125 C 410.21141,285.9487 409.14038,289.69089 409.26932,293.27852 408.63044,295.61229 411.61621,292.20426 413.03604,293.17648 416.03685,293.57413 418.40569,291.158 419.41892,288.59887 418.52263,287.98315 417.19937,288.9513 417.98208,287.04749 418.65138,284.91934 417.82453,283.77112 416.36189,285.9184 414.08666,287.35015 414.20102,285.31179 413.58203,284.03125 Z M 408.66797,289.73828 C 406.85916,291.99192 402.84441,291.91141 402.37484,295.36192 401.50812,299.91148 408.21605,297.02447 408.29775,294.02527 408.71466,292.6717 409.00002,291.11396 408.66797,289.73828 Z M 412.35742,295.22852 C 409.94434,295.19982 406.27601,297.93901 409.36836,299.91993 411.16025,302.72435 415.51725,301.61172 417.27204,299.43435 416.25811,298.85499 414.44611,299.0951 416.09641,297.75097 417.14079,297.05551 418.11839,294.92931 415.91929,295.96501 414.64244,296.24923 413.64273,294.86793 412.35742,295.22852 Z M 402.65234,299.04688 C 400.63383,300.50698 401.43072,306.35748 398.18513,303.83425 396.19504,303.23064 390.30695,304.07287 394.37479,306.26862 396.31715,308.49246 399.88037,307.18282 401.62654,308.42775 401.98425,309.55252 402.96644,311.46411 403.30802,309.14577 405.25532,306.15592 404.89173,302.2914 402.86742,299.45288 Z M 410.62891,301.1582 C 406.90899,302.84139 406.47551,306.96727 407.00307,310.3896 407.18335,311.66169 412.56519,312.45866 408.79725,312.39744 407.42166,312.12969 403.42631,312.23847 406.13389,314.15568 407.76185,314.76036 408.1709,319.34401 406.59043,316.2728 405.96057,313.91168 404.68337,314.29157 404.5138,316.57569 404.06173,318.8967 405.34187,324.0974 408.25454,322.95996 409.41875,324.02015 406.85244,329.21984 409.9647,330.77733 411.1031,331.47033 413.45176,334.16052 410.57617,334.01172 408.85329,332.07541 404.43928,332.78769 403.17565,332.82619 404.04389,335.83925 407.26651,338.8282 410.57322,337.69956 412.70435,337.81772 414.23011,340.66399 411.60366,341.64052 413.26208,343.23581 417.75119,344.22854 419.90989,342.23152 421.14028,338.96181 422.72584,344.4389 424.57149,342.02795 427.52934,341.77211 431.35556,341.27545 430.65092,337.29382 431.09434,335.93471 430.27389,332.3943 428.87725,335.03866 426.99621,337.76357 426.07867,331.38671 423.46084,332.31765 423.52328,334.21556 424.39405,336.97242 422.8498,338.17861 421.15509,335.96397 420.13311,332.34479 416.50555,331.99252 415.42652,331.33624 413.10356,331.73381 415.25206,332.81138 417.74035,334.90804 411.61151,333.52354 413.93192,331.24927 415.562,329.87015 418.54434,329.65437 418.42684,326.61536 418.07131,324.55968 415.23011,327.93114 415.78999,325.12682 415.80248,323.54063 417.40471,319.76359 414.57731,321.95685 413.37677,323.95183 410.91957,325.49189 409.84292,322.75925 412.67996,323.71637 414.40133,321.59245 415.33261,319.20697 416.66833,317.35213 415.75077,316.89955 413.96104,317.68969 412.6514,318.27187 411.45815,317.85137 413.5338,317.58023 417.81254,317.07217 412.74423,313.82031 411.59394,312.68607 414.4206,313.43081 417.96503,309.78444 417.47774,308.07157 415.91572,309.50082 412.91188,308.09241 415.24187,306.25468 416.52736,304.41697 415.07756,303.15415 413.45744,304.52108 410.81399,305.58321 411.74238,302.36414 410.62891,301.1582 Z M 390.77344,306.55273 C 389.87306,308.85801 393.88388,311.53834 392.88494,312.67604 391.75012,312.47421 388.81305,312.11987 391.02282,313.77328 392.97415,316.34186 396.86564,316.26712 399.23237,316.31759 400.2999,318.11001 403.07075,317.95262 403.8457,320.01562 403.53656,316.63184 403.62819,312.39514 400.11297,310.59014 398.13238,309.73596 397.34457,309.47868 395.58305,308.02736 394.0611,307.29519 392.36611,307.07627 390.77344,306.55273 Z M 395.25586,317.52734 C 392.73535,316.62284 392.73251,319.2051 394.47889,320.20672 396.48507,322.88098 400.38126,322.56206 403.17734,322.07995 401.54036,320.48824 400.20495,318.01433 397.72793,317.64519 396.9112,317.51236 396.08074,317.51541 395.25586,317.52734 Z M 402.75977,326.4375 C 401.34056,325.83072 397.71196,328.22019 401.04901,328.05381 402.96334,330.85742 406.29286,331.96977 409.3011,332.47114 408.91877,330.40155 407.56559,327.88196 405.52078,326.89453 404.64296,326.55571 403.69331,326.46223 402.75977,326.4375 Z"
       id="path170"
       inkscape:connector-curvature="0" />
  </g>
  <g
     id="g198"
     style="fill:#00863d" />
  <g
     id="g212"
     style="fill:#ce1126;stroke:#000000">
    <path
       d="M 432.909,352.134 435.275,353.362 433.928,356.017 C 434.911,355.85 438.478,354.623 439.644,354.257 439.353,353.429 439.244,353.329 439.353,352.3 L 438.953,350.408 436.076,351.37 A 23.979,23.979 0 0 1 432.909,352.134 Z M 463.964,351.719 461.596,352.946 462.944,355.602 C 461.96,355.435 458.393,354.208 457.227,353.842 457.518,353.012 457.627,352.914 457.518,351.884 L 457.918,349.994 460.795,350.955 C 461.887,351.288 462.798,351.519 463.964,351.719 Z"
       id="path200"
       inkscape:connector-curvature="0"
       style="stroke-width:0.29518819" />
    <path
       d="M 441.496,355.895 C 444.157,355.519 446.539,354.109 446.539,354.109 446.946,354.548 449.075,354.235 449.075,354.235 450.046,354.045 450.485,353.891 450.485,353.891 453.148,355.581 455.183,355.833 455.183,355.833 457.533,355.707 457.595,353.891 457.595,353.891 457.502,352.293 457.344,352.231 457.344,352.231 458.598,350.257 457.251,348.691 457.251,348.691 456.624,347.971 452.991,349.129 452.991,349.129 450.547,350.289 450.391,349.787 450.391,349.787 449.697,348.699 447.147,348.892 446.037,349.725 443.344,349.129 442.967,348.941 442.967,348.941 440.242,347.908 439.804,348.534 439.804,348.534 438.833,349.694 439.146,350.914 439.146,350.914 439.146,351.604 439.366,352.199 439.366,352.199 438.77,355.706 441.496,355.895 441.496,355.895 Z"
       id="path202"
       inkscape:connector-curvature="0"
       style="stroke-width:0.30073684" />
    <path
       d="M 450.476,352.933 C 456.333,354.251 455.918,355.086 455.918,355.086 455.563,355.699 453.843,354.912 453.843,354.912 449.273,353.312 450.476,352.932 450.476,352.932 Z M 446.843,352.955 C 440.985,354.272 441.4,355.108 441.4,355.108 441.756,355.721 443.476,354.933 443.476,354.933 448.046,353.333 446.843,352.955 446.843,352.955 Z"
       id="path204"
       inkscape:connector-curvature="0"
       style="stroke-width:0.23859195" />
    <path
       d="M 447.089,348.981 C 444.571,349.428 446.559,351.306 446.646,352.469 446.646,353.095 446.028,354.167 446.691,354.437 447.309,354.704 448.633,354.392 449.339,354.392 450.312,354.347 450.973,354.437 450.841,353.184 450.752,352.244 450.444,351.932 450.444,350.724 450.399,349.876 450.577,348.936 449.649,348.847 449.075,348.802 447.663,348.891 447.088,348.98 Z"
       id="path206"
       inkscape:connector-curvature="0"
       style="fill:#aa241e;stroke-width:0.22305574" />
    <path
       d="M 450.561,350.376 C 457.241,350.343 456.749,349.276 456.749,349.276 M 450.678,352.411 C 457.292,353.299 456.4,354.262 456.4,354.262"
       id="path208"
       inkscape:connector-curvature="0"
       style="fill:none;stroke-width:0.24081141" />
    <path
       d="M 446.534,352.22 C 440.374,353.589 440.928,354.565 440.928,354.565 M 445.853,350.238 C 439.558,350.693 440.191,349.625 440.191,349.625"
       id="path210"
       inkscape:connector-curvature="0"
       style="fill:none;stroke-width:0.23415303" />
  </g>
  <g
     id="g232">
    <g
       id="g228"
       style="fill:#ce1126">
      <path
         d="M 492.14675,349.50519 C 492.8558,347.32244 499.67823,348.85449 497.979,342.972 495.13059,343.41346 492.97087,347.00962 492.14675,349.50519 Z M 500.93,336.26 C 502.67175,334.89734 504.74036,334.21577 506.816,333.561 502.64335,337.00463 502.75022,343.01125 499.054,346.802 497.85113,348.20537 494.08347,351.31235 493.0232,348.72085 496.98283,347.77296 500.69295,345.53865 496.24224,340.24368 494.47786,337.17625 499.82669,333.75922 501.31606,331.30608 503.51831,327.88111 500.8246,335.62898 500.93,336.26 Z M 472.346,353.956 C 472.93171,350.18292 476.16605,353.10471 478.28586,353.53477 480.1456,353.75118 482.25206,357.26055 483.4225,356.17297 482.1776,358.22221 481.81602,358.93679 479.17881,357.95514 476.85241,357.2372 474.97577,354.75871 472.346,353.956 Z M 406.00242,349.14948 C 406.58492,349.31799 400.08595,348.51683 399.60169,343.31984 402.05821,343.76354 405.08359,346.68769 406.00242,349.14948 Z M 497.979,342.972 C 493.63984,343.8417 492.78319,349.07281 490.50405,352.18353 488.16562,355.60805 485.19666,359.74198 480.51386,359.45052 477.63541,359.59057 470.9998,356.85623 472.346,353.956 477.18367,355.91682 480.89645,362.15922 483.9951,355.38778 485.42032,352.96744 488.24139,350.59964 485.39791,347.01031 485.58498,344.47654 488.956,341.45829 490.953,339.289 494.05238,336.22076 496.62625,340.4412 497.979,342.972 Z M 397.54,336.144 C 395.79844,334.78017 393.72912,334.09933 391.653,333.445 395.82865,336.88571 395.71731,342.89481 399.415,346.684 400.66206,348.06822 403.90874,351.76774 405.00416,349.09744 401.10171,347.3841 396.68154,343.34171 402.06657,339.44792 404.0373,336.38534 398.54567,333.66806 397.1535,331.18952 394.91001,327.71285 397.6978,335.56531 397.54,336.144 Z M 425.70136,354.40538 C 425.11714,350.6316 423.34046,352.04912 421.42051,352.83274 417.07036,354.01111 415.26258,357.05617 415.26258,357.05617 418.58746,361.15523 423.56141,354.81761 425.70136,354.40538 Z M 399.60169,343.31984 C 403.93945,344.19161 405.67546,348.96592 407.95483,352.07656 410.29306,355.50162 413.26211,359.63607 417.94541,359.34437 420.8231,359.48348 427.04832,357.30564 425.70136,354.40538 421.1648,357.22032 417.25816,360.29735 415.26258,357.05617 413.83688,354.63657 409.24416,349.26888 412.62134,347.21738 412.4326,344.6837 409.50298,341.35052 407.505,339.182 404.34672,336.12298 398.8108,341.60746 399.60169,343.31984 Z M 415.26258,357.05617 C 417.58672,353.10912 423.74031,352.30967 427.72301,350.65032 444.21414,345.99049 462.47878,346.56401 478.28586,353.44067 481.14786,353.51634 482.45592,358.87677 484.25388,354.8065 486.9711,351.83898 488.01471,347.39689 483.17705,346.05946 473.22508,341.21013 461.89627,340.20633 450.98005,339.80317 438.94888,339.77914 425.03844,341.46283 414.02698,346.69755 409.01145,347.83737 412.58998,353.38509 415.26258,357.05617 Z"
         id="path226"
         inkscape:connector-curvature="0"
         style="stroke:#040404;stroke-width:0.80000001;stroke-miterlimit:4;stroke-dasharray:none;stroke-opacity:1"
         sodipodi:nodetypes="ccccccccccccccccccccccccccccccccccccccccccccccccccccc" />
    </g>
    <path
       style="fill:#eac102"
       d="M 421.38,346.232 C 419.4999,346.13679 419.18746,347.61563 420.0864,348.90318 419.7974,349.94874 421.38545,351.8075 421.18821,350.01195 420.53311,347.56445 422.31081,350.60184 423.18852,349.9018 421.92151,349.12046 422.16888,348.0453 422.51149,346.7936 422.27801,346.40973 421.77701,346.32861 421.38,346.232 Z M 421.032,346.599 C 422.84856,346.69721 420.77291,349.83952 420.51798,347.56541 420.27005,347.14505 420.46012,346.507 421.032,346.599 Z M 422.842,345.646 C 423.7506,347.05382 422.99934,350.89565 425.72347,349.0907 426.75416,348.21486 425.84982,348.33203 425.25749,348.97809 423.91477,349.09897 423.92252,346.64233 425.27942,347.35545 425.93366,345.45479 423.55349,347.79048 424.01719,346.0539 424.16041,344.86639 426.41037,346.35583 425.05963,345.09438 424.34005,344.83868 423.64295,345.64794 422.842,345.646 Z M 427.858,344.273 C 425.01006,344.02618 426.6414,347.01368 426.91322,348.56006 428.32468,349.18063 426.60177,346.74341 428.18068,346.51967 429.44111,346.03117 429.37506,344.20146 427.858,344.273 Z M 427.504,344.623 C 429.41402,345.17904 426.97303,347.85904 427.01475,345.37577 426.88559,345.0337 427.05917,344.553 427.504,344.623 Z M 431.566,343.505 C 432.54306,344.39497 432.82531,348.23993 430.90554,346.84795 430.441,346.06537 430.94551,342.82579 429.54241,344.18918 429.28598,345.8212 430.98107,349.42434 432.43959,346.8473 432.4897,346.144 432.95665,342.39005 431.566,343.505 Z M 434.783,342.898 C 431.86596,342.45988 433.73727,345.59807 433.62338,347.15867 435.82825,348.07144 436.83468,345.12777 435.59656,344.55473 436.27572,343.9302 435.74479,342.68892 434.783,342.898 Z M 434.187,343.228 C 436.26795,343.15422 433.54787,346.13077 433.96113,343.53597 L 434.02749,343.36496 Z M 434.517,345.028 C 436.63606,344.85388 434.23837,348.18999 434.233,345.80113 434.21123,345.53498 433.97312,344.93475 434.517,345.028 Z M 436.562,342.525 C 437.46794,343.97973 435.92756,347.68359 439.03018,346.41526 440.04085,345.92952 439.38658,345.01334 438.71556,346.06795 436.21084,346.0635 439.22384,341.37466 436.562,342.525 Z M 439.662,342.184 C 440.63631,343.16112 439.13698,346.9556 441.117,345.958 440.15982,345.05187 442.03259,341.12501 439.662,342.184 Z M 444.584,344.73 C 442.71194,347.31712 441.16561,341.14363 443.63027,342.3694 444.86222,343.54915 443.9051,340.83366 442.72202,341.85812 439.97363,342.95591 442.68123,348.19799 444.49374,345.0707 Z M 446.29,341.62 C 445.11105,342.44685 444.82795,345.16579 445.24836,345.89181 445.21028,345.11752 446.13905,343.89931 446.62988,345.26311 447.06138,346.84321 447.9221,345.07571 447.17999,344.21047 446.94398,343.33004 446.72491,342.42551 446.29,341.62 Z M 445.875,342.575 C 446.82299,343.17848 445.82203,345.44297 445.63179,343.71504 445.70414,343.33353 445.73225,342.94032 445.875,342.575 Z M 451.168,341.47 C 449.05027,341.24997 450.60336,344.29784 450.02496,345.55744 451.98187,347.22321 454.22627,343.30592 452.22057,341.84164 451.93471,341.58829 451.54878,341.45664 451.168,341.47 Z M 451.268,341.793 C 452.88651,342.17439 452.15136,346.44414 450.86798,345.00646 450.69072,344.0191 450.5157,342.56059 451.268,341.793 Z M 454.929,341.598 C 452.84195,341.85423 452.77273,345.76337 454.87255,346.02054 456.87241,345.69494 457.05723,341.88467 454.929,341.598 Z M 454.917,341.858 C 456.39851,342.42052 455.52118,346.89282 454.31306,345.05382 454.17606,344.04203 453.85349,342.42702 454.917,341.858 Z M 456.517,346.126 C 458.16175,346.55402 456.74749,341.83203 457.75446,343.45078 457.58873,344.39805 458.27065,347.59705 458.74819,345.14441 458.86706,343.99717 459.64344,342.45853 459.3145,344.59343 458.82705,345.4967 460.06617,347.55986 460.02676,345.7776 459.90668,344.85569 460.81036,341.20684 459.07969,342.57344 458.74468,343.21127 458.62464,345.55129 458.40463,343.60625 459.01142,342.16173 456.82619,341.18001 457.22756,343.14051 457.04896,344.14508 457.00861,345.20764 456.517,346.126 Z M 460.627,346.573 C 462.77458,347.2085 460.89411,343.69141 461.97195,342.69632 460.18168,341.20373 461.42405,345.92327 460.627,346.573 Z M 462.056,346.883 C 463.65222,347.74472 462.0605,342.89308 463.36462,344.56593 463.48927,345.68537 464.90836,348.46152 464.8952,345.77656 464.93865,344.99713 465.44431,341.75231 464.68659,343.79047 464.85307,344.88329 464.4534,346.25444 464.1403,344.43366 464.06476,343.15732 462.05627,341.79788 462.64302,344.01592 462.51763,344.97655 462.64716,346.04811 462.056,346.883 Z M 465.806,343.292 C 466.56953,344.41606 464.30566,347.87721 466.3528,347.40773 466.4326,346.09382 466.56946,344.60981 466.69846,343.43588 466.42466,343.27624 466.10785,343.28686 465.806,343.292 Z M 467.116,346.232 C 466.41514,347.75061 469.33263,349.171 469.5687,347.24844 467.49098,348.96508 467.30424,343.46281 469.16564,344.32688 469.94305,346.526 469.94879,342.97752 468.32151,344.00903 467.43061,344.29349 466.68069,345.29671 467.116,346.232 Z M 471.421,344.623 C 471.27437,345.89029 469.10525,348.05029 470.21823,348.58207 470.26031,347.26239 471.74576,347.50171 471.25188,348.70091 473.08888,350.19202 471.66539,347.06295 472.11716,346.11425 472.1435,345.56645 472.12749,344.70748 471.421,344.623 Z M 471.334,345.53 C 471.66073,346.25915 471.08158,348.45213 470.74937,346.85501 470.90634,346.39705 471.16339,345.98229 471.334,345.53 Z M 473.263,349.588 C 472.78137,348.60315 473.78275,345.12095 474.11244,347.90494 474.03842,348.78517 475.11434,351.02623 475.13778,348.97354 475.21377,348.05496 476.63421,346.4114 475.324,345.905 475.86825,346.98659 474.61619,349.59935 474.77315,347.06735 474.80911,345.82403 472.77843,344.28886 473.38936,346.56049 473.4434,347.40833 471.69386,349.38915 473.263,349.588 Z M 477.471,346.754 C 477.3667,347.91464 474.7248,349.96857 476.14984,350.46113 476.50093,348.6297 477.15614,350.45261 477.4397,351.26694 478.56213,350.81035 477.78127,348.22447 478.078,346.92 477.8746,346.86848 477.67239,346.81286 477.471,346.754 Z M 477.337,347.631 C 477.66504,348.42828 477.01993,350.41539 476.62338,348.88838 476.81368,348.44444 477.23791,348.11395 477.337,347.631 Z"
       id="path230"
       inkscape:connector-curvature="0" />
  </g>
</svg>
