<?xml version="1.0" encoding="UTF-8" standalone="no"?>
<svg
   xmlns:dc="http://purl.org/dc/elements/1.1/"
   xmlns:cc="http://creativecommons.org/ns#"
   xmlns:rdf="http://www.w3.org/1999/02/22-rdf-syntax-ns#"
   xmlns:svg="http://www.w3.org/2000/svg"
   xmlns="http://www.w3.org/2000/svg"
   xmlns:sodipodi="http://sodipodi.sourceforge.net/DTD/sodipodi-0.dtd"
   xmlns:inkscape="http://www.inkscape.org/namespaces/inkscape"
   width="1200"
   height="600"
   version="1.1"
   id="svg56"
   sodipodi:docname="ic_flag_lk.svg"
   inkscape:version="0.92.1 r15371">
  <metadata
     id="metadata62">
    <rdf:RDF>
      <cc:Work
         rdf:about="">
        <dc:format>image/svg+xml</dc:format>
        <dc:type
           rdf:resource="http://purl.org/dc/dcmitype/StillImage" />
        <dc:title></dc:title>
      </cc:Work>
    </rdf:RDF>
  </metadata>
  <defs
     id="defs60" />
  <sodipodi:namedview
     pagecolor="#ffffff"
     bordercolor="#666666"
     borderopacity="1"
     objecttolerance="10"
     gridtolerance="10"
     guidetolerance="10"
     inkscape:pageopacity="0"
     inkscape:pageshadow="2"
     inkscape:window-width="1699"
     inkscape:window-height="1249"
     id="namedview58"
     showgrid="false"
     inkscape:zoom="0.37358808"
     inkscape:cx="-34.75393"
     inkscape:cy="631.61048"
     inkscape:window-x="0"
     inkscape:window-y="0"
     inkscape:window-maximized="0"
     inkscape:current-layer="svg56" />
  <rect
     width="1200"
     height="600"
     fill="#ffbe29"
     id="rect2" />
  <rect
     width="330"
     height="500"
     x="50"
     y="50"
     fill="#eb7400"
     id="rect4" />
  <rect
     width="165"
     height="500"
     x="50"
     y="50"
     fill="#00534e"
     id="rect6" />
  <rect
     width="725"
     height="500"
     x="430"
     y="50"
     fill="#8d153a"
     id="rect8" />
  <path
     id="use15"
     style="fill:#ffbe29;stroke:#000000;stroke-width:2;stroke-miterlimit:4;stroke-dasharray:none"
     d="M 498.9,133.94 C 498.9,133.94 492.1018,120.099 484.591,114.46 473.463,106.1044 450.646,106.708 440.962,96.96 429.358,85.465 441.8624,70.278 441.7579,68.96 L 441.1216,60.9394 C 441.1216,60.9394 448.9461,60.8451 452.2406,60.33147 457.1944,59.55907 459.1266,55.52827 468.3496,56.12697 491.5386,57.63217 490.6036,78.52397 491.9156,96.37697 493.0802,103.17527 495.775,112.03897 497.3064,118.83497 498.6194,124.66267 498.8997,133.93997 498.8997,133.93997 Z M 498.9,466.06 C 498.9,466.06 492.1018,479.901 484.591,485.54 473.463,493.8956 450.646,493.292 440.962,503.04 429.358,514.535 441.8624,529.722 441.7579,531.04 L 441.1216,539.0606 C 441.1216,539.0606 448.9461,539.1549 452.2406,539.66853 457.1944,540.44093 459.1266,544.47173 468.3496,543.87303 491.5386,542.36783 490.6036,521.47603 491.9156,503.62303 493.0802,496.82473 495.775,487.96103 497.3064,481.16503 498.6194,475.33733 498.8997,466.06003 498.8997,466.06003 Z M 1086.1,466.06 C 1086.1,466.06 1092.8982,479.901 1100.409,485.54 1111.537,493.8956 1134.354,493.292 1144.038,503.04 1155.642,514.535 1143.1376,529.722 1143.2421,531.04 L 1143.8784,539.0606 C 1143.8784,539.0606 1136.0539,539.1549 1132.7594,539.66853 1127.8056,540.44093 1125.8734,544.47173 1116.6504,543.87303 1093.4614,542.36783 1094.3964,521.47603 1093.0844,503.62303 1091.9198,496.82473 1089.225,487.96103 1087.6936,481.16503 1086.3806,475.33733 1086.1003,466.06003 1086.1003,466.06003 Z M 1086.1,133.94 C 1086.1,133.94 1092.8982,120.099 1100.409,114.46 1111.537,106.1044 1134.354,106.708 1144.038,96.96 1155.642,85.465 1143.1376,70.278 1143.2421,68.96 L 1143.8784,60.9394 C 1143.8784,60.9394 1136.0539,60.8451 1132.7594,60.33147 1127.8056,59.55907 1125.8734,55.52827 1116.6504,56.12697 1093.4614,57.63217 1094.3964,78.52397 1093.0844,96.37697 1091.9198,103.17527 1089.225,112.03897 1087.6936,118.83497 1086.3806,124.66267 1086.1003,133.93997 1086.1003,133.93997 Z" />
  <path
     style="fill:#ffbe29;stroke:#000000;stroke-width:2;stroke-miterlimit:4;stroke-dasharray:none;stroke-opacity:1"
     d="M 888.70508,126.53125 C 887.70113,126.53991 886.69273,126.56746 885.68164,126.61328 862.85749,125.8142 835.99195,135.3079 826.23047,157.44922 818.36711,172.28859 834.57661,185.94828 837.31055,196.75195 825.74982,204.21655 841.79917,236.41825 843.79688,213.32422 859.42157,203.26878 877.81826,224.04227 895.94531,220.37891 922.70613,223.20664 948.78482,210.69013 975.38477,215.90625 992.35441,218.58274 995.90851,242.22272 981.8125,251.04102 952.11781,268.92705 916.43854,256.1598 884.39062,264.19922 862.83417,265.69061 841.20589,263.95895 819.62109,263.72852 813.62548,256.37196 804.76919,242.15077 817.96875,240.4707 810.39443,223.57636 822.6311,207.62557 818.70508,188.43945 823.49535,176.58385 803.38418,167.14226 816.72266,159.35156 821.40369,156.35042 828.97908,133.10565 819.92188,144.1875 807.11471,162.32175 788.53645,122.67594 781.07227,141.69922 777.4155,157.02362 769.73437,136.40767 761.13281,136.34961 748.40819,128.42308 756.05462,158.47173 742.41992,144.89062 737.4005,139.03544 716.33048,137.29574 716.83398,144.25 718.826,162.05 694.91862,158.10383 683.88281,162.60742 676.034,162.91007 662.89527,170.33043 666.80078,156.49023 655.72403,137.8298 636.39691,162.08642 648.70117,175.92773 656.81479,187.27734 666.19344,199.09058 678.14844,206.47852 672.82966,186.77725 691.79894,216.7606 691.26562,198.22852 698.23967,199.96144 708.44271,214.47946 710.5625,221.3457 692.82078,219.89598 675.34989,214.78538 661.92969,208.88672 652.26199,204.57762 648.92267,203.58745 647.76367,204.68555 644.80567,207.48695 649.72264,214.13566 657.33594,217.63086 658.80159,218.30373 660.55595,219.33441 662.44141,220.48438 657.25927,219.59813 652.73116,220.1096 649.66797,224.11719 644.54645,235.127 642.07434,244.47542 656.92383,238.91992 669.66008,232.55211 662.21863,243.29068 662.19922,246.57617 670.77481,244.00556 678.15936,239.82759 683.17578,249.8457 687.09009,232.41812 690.72544,253.08442 697.80273,255.6875 702.82379,237.27282 721.27718,255.48405 705.04688,262.58398 682.73334,275.19079 662.47521,294.83626 657.80078,321.04492 649.88907,353.17629 673.85974,383.57286 701.5332,396.92773 720.58392,398.55445 719.66881,421.06955 724.36719,435.87891 728.98905,451.83693 712.64716,464.85433 697.66992,461.19531 685.86193,451.45845 661.43385,489.1069 681.53906,479.56055 688.25738,475.12808 697.6855,487.4202 705.17383,476.88867 716.17422,488.5479 728.76387,473.00267 741.16406,481.9746 759.08433,474.73875 737.86232,445.90453 763.88867,446.33984 773.81191,441.46407 781.12757,428.71094 764.47656,430.46875 747.4512,424.30133 762.48199,395.06477 775.17383,392.18359 808.1143,380.33905 839.76116,358.15299 876.51953,363.82031 900.51367,364.18367 911.80147,388.50697 930.93555,398.79492 944.1723,407.92695 964.5585,415.5448 963.31641,434.95312 969.25961,452.54233 957.75007,463.38254 941.0293,464.63867 928.80933,465.53684 920.62899,491.235 937.21289,477.4375 942.41629,478.13864 951.87044,485.8121 958.125,476.21289 965.13448,486.8412 975.16009,477.13561 981.05859,478.09375 991.10427,486.9416 1004.4588,479.40864 991.34961,468.25391 976.46566,450.19579 1000.5664,440.13504 1006.5742,426.45117 990.02153,421.33192 983.03816,400.43764 987.54883,383.3418 992.29542,357.62607 1007.5386,333.93647 1004.6191,306.95508 1005.689,291.2458 996.57081,277.56085 987.36523,265.70703 1000.9743,256.56783 1012.4178,239.6797 1004.3828,223.00195 996.33168,205.06335 974.82773,199.69331 956.85547,202.22656 934.88869,202.86028 911.83899,211.12648 890.4375,203.6875 882.98471,198.31196 881.96472,183.42518 872.44727,197.16016 861.35956,206.55358 860.75385,174.71513 876.49609,176.11328 871.01609,165.47124 851.83355,177.14127 846.92188,181.62305 825.20242,170.75498 852.35486,138.56271 864.50586,159.44336 872.56171,154.63311 863.99094,134.93555 878.93359,144.66016 894.60806,149.90976 896.2252,169.31887 886.34766,180.58984 899.10899,179.79054 911.60736,168.78292 907.9043,155.06055 896.93285,133.45142 933.89939,159.47234 921.83789,171.50586 907.45578,190.29243 936.64282,177.37642 936.07812,164.79688 940.11921,170.11649 951.29607,183.54125 961.7793,182.29883 953.17066,174.96593 950.70245,154.22497 964.61719,170.37305 977.79344,181.18865 992.84834,199.15267 1011.8867,191.29102 1031.1525,184.80467 1010.8724,153.4229 1000.9746,173.53711 1001.0237,191.21282 978.08282,166.33196 971.31445,162.06836 947.50825,143.58361 919.82733,126.26281 888.70508,126.53125 Z"
     id="path19"
     inkscape:connector-curvature="0"
     sodipodi:nodetypes="sccccccccccccccccccccccccccccccccccccccccccccccccccccccccccccccccccccccccs" />
  <path
     style="fill:#ffbe29;stroke:#000000;stroke-opacity:1;stroke-width:2;stroke-miterlimit:4;stroke-dasharray:none"
     d="M 863.45,479.06 C 866.37072,476.61658 869.07778,475.18679 871.43763,479.12482 875.66502,483.81086 882.49458,481.97376 885.94327,477.40113 890.01884,474.61666 890.36163,482.96623 895.25327,481.82279 900.59436,484.08757 903.51215,478.30336 906.75615,476.51599 911.39762,480.01696 919.05772,485.25119 924.18505,479.83656 928.58408,473.57104 925.21354,465.68563 923.55733,459.07127 921.27767,451.59078 925.96277,444.65647 930.58479,439.23068 933.91868,435.17956 937.5357,431.15988 939.3878,426.16451 936.30516,420.39267 926.98629,426.87834 923.88314,419.92781 919.84266,415.23691 921.27958,408.38461 925.26794,404.19262 927.21784,401.68584 930.84172,398.9716 925.87563,397.54705 917.5143,392.062 910.33911,385.06233 903.47963,377.84966 894.68636,369.49454 882.80314,364.68107 870.68437,364.44717 867.40656,363.77372 864.4438,363.48844 865.55749,367.64034 865.29675,374.39779 866.93333,381.13229 870.52144,386.88574 876.54592,397.80959 886.31764,406.31073 891.43176,417.76466 895.3722,428.77341 893.86542,440.66144 894.58902,452.11495 896.18745,457.4983 891.84221,460.97038 887.57823,463.38829 879.73564,466.09816 870.90609,463.75034 863.1485,467.0595 858.51714,469.84143 852.62188,477.08669 855.54399,481.94018 858.48883,482.49989 860.97452,480.23819 863.45,479.06 Z"
     id="path21"
     inkscape:connector-curvature="0" />
  <path
     id="path41"
     style="fill:#ffbe29;stroke-width:2;stroke-miterlimit:4;stroke-dasharray:none;stroke:#000000;stroke-opacity:1"
     d="M 608.11,299.64 C 608.83529,298.95306 608.52011,297.8975 607.30418,296.9418 604.64148,294.849 604.78348,291.7362 607.70418,288.1729 609.89748,285.497 610.17148,281.4925 610.92648,241.0989 612.22728,171.4879 617.40378,119.1289 624.22648,106.5689 626.94278,101.568 626.56188,101.5481 619.54258,106.32391 610.50078,112.47611 603.61658,120.48691 597.51658,131.95491 586.00058,153.60591 581.99858,182.73491 581.99858,244.91491 581.99858,280.21991 582.23909,284.83891 584.25008,288.15791 586.16038,291.31021 586.26188,292.47441 584.92006,295.84121 584.05025,298.02361 583.65556,300.10941 584.04297,300.47631 586.61407,302.91131 605.34497,302.26531 608.10997,299.64638 Z M 615.9,310.45 C 628.425,304.8745 629.508,290.815 617.6976,287.124 612.7939,285.5913 609.6635,286.41714 607.7864,289.7387 606.3492,292.2821 607.3104,296.9063 609.2763,296.9063 609.94047,296.9063 610.4839,297.76226 610.4839,298.8084 610.4839,303.6903 591.3609,305.9023 583.5189,301.9274 580.7638,300.531 579.5643,296.9063 581.8573,296.9063 583.5707,296.9063 584.7554,293.2128 583.8799,290.6004 582.6871,287.0412 579.1,285.8082 573.8968,287.1687 562.1568,290.2386 562.4868,304.0337 574.43957,309.8877 584.24087,314.6878 605.72657,314.9796 615.89957,310.45061 Z M 596.82,433.98 C 599.46575,431.39255 597.50806,425.60838 602.32956,425.50661 605.03904,425.0171 607.77582,424.697 610.4986,424.29054 607.80464,421.88304 604.13471,420.09905 602.86209,416.53054 603.47284,413.29257 608.341,415.33271 610.46321,413.34907 613.46242,411.77736 617.24392,409.82217 617.82244,406.14346 618.52764,402.07388 612.52383,399.37075 610.02024,402.63292 609.68162,406.39566 605.92261,406.49158 604.0481,403.62438 598.48428,397.98699 599.44827,388.07545 604.84082,382.64314 606.59384,379.46144 601.42684,377.94378 600.64533,375.04789 599.27977,373.02687 597.16944,367.05333 601.66869,368.30883 604.8163,368.64091 608.203,371.35791 611.19995,369.20462 614.97062,366.79194 611.45258,362.29338 607.9708,362.27124 604.81248,361.35377 599.97266,364.1014 598.60551,359.81758 596.13864,357.75334 592.82995,357.08503 589.73505,356.6144 587.17965,357.6576 589.77496,364.58379 584.89011,362.94602 582.11986,361.66636 577.66158,359.00303 575.85021,363.04966 574.15414,366.90136 578.39963,369.61787 581.81101,369.45034 584.70346,369.06436 590.42277,369.34725 587.94306,373.76201 586.54221,376.57586 584.16158,378.70079 582.16262,381.07702 584.60351,384.44127 587.15811,388.01188 587.20801,392.36166 587.61915,396.88186 586.08673,401.56879 582.69215,404.64535 581.92059,405.05227 581.04946,407.47719 580.36903,406.03722 578.68829,403.81428 576.80343,400.69362 573.56644,401.26587 570.4258,402.27237 569.49385,407.13481 572.03582,409.28372 574.87106,412.21885 578.59304,414.72446 582.80356,414.7838 586.6601,416.1012 582.97263,420.39662 580.87605,421.66873 579.74051,422.53661 578.60496,423.40448 577.46942,424.27235 581.11695,425.00778 585.09297,424.92848 588.3639,426.84862 589.14481,430.38341 590.70247,433.99781 593.25768,436.62133 594.79199,436.72026 595.89473,435.004 596.82,433.98 Z M 684.301,389.522 C 684.301,388.80998 681.3141,385.525 677.6636,382.2219 669.9812,375.271 661.6246,363.5649 659.4596,356.7209 658.3307,353.1522 652.8753,347.043 637.5086,332.1399 L 617.0606,312.3079 611.1672,313.8006 C 607.9258,314.62164 603.971,315.3133 602.3787,315.3376 555.86615,311.28763 609.75967,348.73385 617.46169,354.62985 621.09269,357.37215 621.49768,360.67139 621.49768,372.77119 621.49768,382.88319 621.90595,385.49319 623.76378,387.25319 625.84858,389.22859 626.02988,389.23569 626.02988,387.34159 626.02988,385.27259 629.66168,382.74349 632.63268,382.74349 633.50908,382.74349 638.98448,387.38369 644.79968,393.05549 650.65058,398.76129 656.77268,403.61649 658.50668,403.92549 660.22988,404.23282 662.09548,404.5594 662.65248,404.65124 663.20943,404.74324 665.83168,403.96436 669.65589,402.45673 673.4801,400.9491 684.301,391.786 684.301,389.522 Z" />
  <g
     id="g4721">
    <path
       sodipodi:nodetypes="ccccscccc"
       inkscape:connector-curvature="0"
       id="path27"
       d="M 618.48633,343.03125 C 617.51648,342.95965 615.89626,343.37625 613.46127,343.64938 606.76788,344.40012 607.56189,346.10809 604.57557,348.14726 601.55386,347.45414 597.10114,346.13001 590.94242,345.43925 584.44912,344.7109 584.59375,345.67042 584.59375,348.91406 584.59375,351.59906 585.61536,352.65592 590.09766,354.60742 596.34943,357.32925 603.69195,357.4365 605.52344,355.23633 607.31141,355.60386 609.52961,353.87166 614.64062,351.64648 619.17206,351.54902 622.26493,343.38335 618.48633,343.03125 Z"
       style="fill:#ffbe29;stroke:#000000;stroke-width:2;stroke-miterlimit:4;stroke-dasharray:none;stroke-opacity:1" />
    <path
       sodipodi:nodetypes="cccccccc"
       inkscape:connector-curvature="0"
       id="path31"
       d="M 586.51562,335.58789 C 585.27839,335.62584 584.33223,335.84164 583.80273,336.25781 579.90173,339.32401 582.50009,343.44104 588.80469,344.18164 593.81279,344.35269 600.97391,349.95558 605.23404,347.08905 607.67142,347.50538 611.85167,346.5274 615.73828,344.31055 622.11887,339.99208 621.40885,335.11259 614.90234,336.06055 610.50762,336.70632 606.63851,338.67371 604.78906,340.96289 602.18652,338.79806 592.61008,335.50228 586.51562,335.58789 Z"
       style="fill:#ffbe29;stroke:#000000;stroke-width:2;stroke-miterlimit:4;stroke-dasharray:none;stroke-opacity:1" />
    <path
       sodipodi:nodetypes="ssccccccs"
       inkscape:connector-curvature="0"
       id="path33"
       d="M 582.37305,323.9707 C 578.83767,324.13485 577.83641,326.25306 579.87891,330.13281 581.01731,332.29521 582.92604,333.28223 587.21094,333.92383 592.90221,335.19029 599.92765,340.09334 605.07314,338.45192 607.28698,339.64472 611.4252,337.86425 615.40881,335.59207 621.44042,330.96568 620.69701,325.98255 614.23633,326.92383 610.24632,327.51014 606.69238,329.18833 604.68555,331.20508 602.77111,329.95086 598.88676,328.47494 591.36133,325.82617 587.52695,324.47658 584.49428,323.87221 582.37305,323.9707 Z"
       style="fill:#ffbe29;stroke:#000000;stroke-width:2;stroke-miterlimit:4;stroke-dasharray:none;stroke-opacity:1" />
    <path
       sodipodi:nodetypes="ccccccc"
       inkscape:connector-curvature="0"
       id="path37"
       d="M 586.48828,315.87305 C 583.25972,315.8572 581.87893,316.98046 582.24805,319.27148 585.85062,323.36513 599.85393,330.37654 605.33095,328.75399 607.59278,329.85615 611.45682,327.88013 615.35871,325.65457 621.70562,321.61873 620.2493,316.1584 614.35547,316.98828 610.31858,317.58148 606.72759,319.29138 604.73438,321.33984 598.38282,317.99679 593.33225,315.94764 586.48828,315.87305 Z"
       style="fill:#ffbe29;stroke:#000000;stroke-width:2;stroke-miterlimit:4;stroke-dasharray:none;stroke-opacity:1" />
  </g>
  <path
     id="path4665"
     style="fill:none;stroke:#000000;stroke-width:2;stroke-linecap:round;stroke-linejoin:round;stroke-miterlimit:4;stroke-dasharray:none;stroke-opacity:1"
     d="M 710.5625,221.3457 714.31443,233.16695 C 707.68122,231.59542 700.70164,230.71663 692.73733,231.80729 L 696.45557,225.38071 C 688.10685,224.6454 675.11015,222.5157 662.44141,220.48438 M 712.68333,356.70851 C 708.06257,374.95194 711.08857,387.4603 713.35252,400.5402 M 787.2976,336.63292 C 790.53189,353.60694 781.04932,373.306 772.151,392.87986 M 776.92521,168.83447 C 780.7737,170.59468 784.34675,172.51229 785.12274,176.02822 755.95264,178.96489 756.3231,173.30795 750.32506,169.50366 752.37334,172.76374 754.28094,175.74245 757.18422,180.71253 745.12084,181.29895 734.83351,174.27493 724.0595,169.33636 717.58629,167.7541 713.74791,169.52526 712.18145,174.18796 712.06844,179.09729 713.80971,181.53425 716.36386,182.88738 726.26049,184.72753 726.10567,176.04284 722.88842,174.18796 M 810.04993,155.11615 C 804.25361,161.549 791.47377,164.98891 773.19,166.07 M 807.03859,185.39683 816.4072,195.26733 M 728.47003,205.15773 C 731.15722,209.15681 733.79889,213.17612 739.25269,215.9456 741.3367,212.92874 743.42072,210.10719 745.50473,207.40536 748.11713,209.69242 752.94206,213.4545 757.3528,216.94046 758.10011,210.98959 758.53987,206.53635 756.15142,200.89905 759.20991,203.84961 761.76683,207.33073 764.07729,211.07256 765.32454,206.86327 766.76779,202.76599 765.88055,197.337 768.82836,200.67667 771.77617,204.29891 774.72398,210.12618 777.21751,205.24304 778.73048,200.142 778.39117,194.62934 783.35121,197.817 791.46655,205.74889 792.76521,212.90305 796.61377,197.77717 793.62767,193.6627 792.11357,187.17666 806.10974,197.03765 791.87391,205.39521 813.17035,220.06309 M 763.24921,223.1388 C 767.6733,227.86098 772.33424,232.68185 773.08807,235.87475 773.6793,229.0053 778.94593,228.13042 775.90694,220.18139 779.71616,226.00336 783.2146,227.76078 786.43533,232.12934 787.69777,227.39809 789.57447,225.64703 791.40378,221.48265 796.89933,231.43348 802.77848,231.71954 808.20189,237.80757 M 710.25237,264.30599 C 707.67607,270.11563 705.27638,276.01358 701.73502,281.34069 705.94324,280.24897 709.78791,279.5935 715.49219,276.7065 717.11791,282.68765 718.08694,288.44989 718.76972,294.11672 725.23321,291.11684 732.77358,286.05728 733.20189,275.89905 734.64285,280.46308 736.31519,284.79571 737.17049,289.94539 742.97924,286.08582 745.38583,279.59634 748.34385,273.53312 748.27893,278.03856 754.71015,281.49468 755.24685,288.81415 761.64329,280.87951 760.00632,270.78719 764.90536,266.90852 768.62227,275.66246 772.75886,284.41641 774.36909,293.17035 780.30175,289.72322 785.07178,285.81105 787.85489,281.1041 794.14105,284.01715 800.81474,286.81394 810.21294,288.79337 809.02602,283.69867 810.08561,278.60396 810.32574,273.50926 816.71978,274.70233 823.9123,274.48561 829.36074,272.21145 824.96505,267.44327 819.77879,267.85157 816.91416,260.19271 803.52122,260.92182 794.49216,252.29468 787.43419,246.04281 L 785.48896,254.13249 C 779.28747,250.51139 773.16755,246.53681 767.62618,240.05521 766.57239,241.35892 765.75854,241.46293 764.30229,244.77893 760.61565,239.69043 757.1031,234.34079 752.12934,231.18297 750.6155,234.52246 749.55134,238.05467 746.5694,240.76498 740.94378,237.15752 738.00706,232.57229 734.73975,228.10726 M 717.35016,245.61514 720.54417,260.04732 C 723.71519,256.114 727.03412,252.62444 729.29811,245.97003 730.32276,249.83634 731.21898,254.13075 731.30915,261.11199 735.32322,257.89144 739.15379,253.7534 742.8526,248.95654 747.19133,252.28983 750.45621,257.77084 753.5489,263.59621 754.73958,259.42412 755.70867,255.03043 756.26972,250.22871 762.7064,254.11402 768.87465,258.53619 774.36909,264.30599 L 775.7295,248.09936"
     inkscape:connector-curvature="0" />
</svg>
