<?xml version="1.0" encoding="UTF-8" standalone="no"?>
<svg
   xmlns:dc="http://purl.org/dc/elements/1.1/"
   xmlns:cc="http://creativecommons.org/ns#"
   xmlns:rdf="http://www.w3.org/1999/02/22-rdf-syntax-ns#"
   xmlns:svg="http://www.w3.org/2000/svg"
   xmlns="http://www.w3.org/2000/svg"
   xmlns:xlink="http://www.w3.org/1999/xlink"
   xmlns:sodipodi="http://sodipodi.sourceforge.net/DTD/sodipodi-0.dtd"
   xmlns:inkscape="http://www.inkscape.org/namespaces/inkscape"
   height="500"
   width="750"
   version="1.1"
   id="svg719"
   sodipodi:docname="ic_flag_es.svg"
   inkscape:version="0.92.1 r15371">
  <metadata
     id="metadata725">
    <rdf:RDF>
      <cc:Work
         rdf:about="">
        <dc:format>image/svg+xml</dc:format>
        <dc:type
           rdf:resource="http://purl.org/dc/dcmitype/StillImage" />
      </cc:Work>
    </rdf:RDF>
  </metadata>
  <defs
     id="defs723" />
  <sodipodi:namedview
     pagecolor="#ffffff"
     bordercolor="#666666"
     borderopacity="1"
     objecttolerance="10"
     gridtolerance="10"
     guidetolerance="10"
     inkscape:pageopacity="0"
     inkscape:pageshadow="2"
     inkscape:window-width="2048"
     inkscape:window-height="1188"
     id="namedview721"
     showgrid="false"
     inkscape:zoom="0.5"
     inkscape:cx="-255.71694"
     inkscape:cy="176.51795"
     inkscape:window-x="0"
     inkscape:window-y="0"
     inkscape:window-maximized="0"
     inkscape:current-layer="svg719" />
  <rect
     width="750"
     height="500"
     id="rect2"
     fill="#c60b1e" />
  <rect
     width="750"
     height="250"
     y="125"
     fill="#ffc400"
     id="rect4" />
  <g
     style="stroke:#000000;stroke-width:0.38999999"
     id="supporters">
    <g
       style="stroke-width:0.25999999"
       id="crown_left">
      <path
         style="fill:#ad1519;stroke-linejoin:round"
         inkscape:connector-curvature="0"
         id="path6"
         d="M 167.99,222.24 C 167.99,222.24 167.48,222.24 167.2,222.08 166.92,221.92 166.07,221.12 166.07,221.12 L 165.39,220.63 164.77,219.78 C 164.77,219.78 164.04,218.6 164.37,217.69 164.71,216.78 165.28,216.46 165.79,216.19 166.3,215.93 167.37,215.6 167.37,215.6 167.37,215.6 168.22,215.23 168.5,215.18 168.78,215.12 169.8,214.86 169.8,214.86 169.8,214.86 170.08,214.7 170.36,214.59 170.65,214.48 171.04,214.48 171.27,214.43 171.49,214.37 172.06,214.19 172.4,214.17 172.92,214.15 173.76,214.27 174.04,214.27 174.32,214.27 175.28,214.32 175.68,214.32 176.07,214.32 177.48,214.21 177.88,214.21 178.27,214.21 178.56,214.16 179.01,214.21 179.46,214.27 180.25,214.53 180.48,214.64 180.71,214.75 182.06,215.23 182.57,215.39 183.08,215.55 184.32,215.76 184.89,216.03 185.45,216.3 185.8,216.75 186.08,217.13 186.36,217.5 186.42,217.91 186.53,218.18 186.64,218.44 186.64,219.02 186.53,219.29 186.42,219.55 186.02,220.1 186.02,220.1 L 185.4,221.12 184.61,221.76 C 184.61,221.76 184.04,222.3 183.59,222.24 183.14,222.2 178.56,221.38 175.62,221.38 172.68,221.38 167.98,222.24 167.98,222.24 Z" />
      <g
         style="fill:#c8b100"
         id="g22">
        <ellipse
           id="ellipse8"
           ry="2.5"
           rx="1.38"
           cy="215.67999"
           cx="175.66" />
        <path
           style="stroke-width:0.30000001"
           inkscape:connector-curvature="0"
           id="path14"
           d="M 176.96,212.74 V 213.32 H 174.43 V 212.74 H 175.37 V 211.42 H 174.75 V 210.85 H 175.37 V 210.28 H 175.97 V 210.85 H 176.59 V 211.42 H 175.97 V 212.74 H 176.96" />
        <path
           inkscape:connector-curvature="0"
           id="path18"
           d="M 175.68,222.08 H 170.87 L 170.76,220.9 170.53,219.67 170.3,218.14 C 168.97,216.39 167.75,215.24 167.34,215.49 167.44,215.17 167.56,214.93 167.81,214.78 168.99,214.08 171.42,215.76 173.25,218.52 173.41,218.77 173.57,219.02 173.71,219.27 H 177.68 C 177.82,219.02 177.98,218.77 178.14,218.52 179.96,215.76 182.4,214.08 183.57,214.78 183.83,214.93 183.94,215.17 184.04,215.49 183.63,215.25 182.42,216.39 181.08,218.14 L 180.85,219.67 180.62,220.9 180.52,222.08 Z" />
      </g>
      <g
         style="fill:#c8b100"
         id="crown_pt1">
        <path
           inkscape:connector-curvature="0"
           id="path24"
           d="M 168.58,224.25 C 168.38,223.68 168,223.17 168,223.17 169.95,222.6 172.66,222.24 175.67,222.23 178.68,222.24 181.42,222.6 183.36,223.17 183.36,223.17 183.14,223.55 182.84,224.08 182.67,224.38 182.45,224.89 182.46,224.89 180.71,224.35 178.44,224.08 175.66,224.07 172.87,224.08 170.2,224.42 168.8,224.93 168.82,224.93 168.7,224.61 168.57,224.25 H 168.58" />
        <path
           inkscape:connector-curvature="0"
           id="path26"
           d="M 175.67,226.73 C 178.1,226.72 180.78,226.35 181.77,226.1 182.43,225.9 182.82,225.61 182.75,225.26 182.71,225.1 182.57,224.96 182.38,224.88 180.92,224.41 178.31,224.08 175.67,224.08 173.04,224.08 170.4,224.41 168.95,224.88 168.76,224.96 168.62,225.1 168.58,225.26 168.51,225.61 168.9,225.9 169.56,226.1 170.55,226.35 173.24,226.72 175.67,226.73 Z" />
        <path
           inkscape:connector-curvature="0"
           id="path28"
           d="M 183.48,222.08 182.89,221.55 C 182.89,221.55 182.32,221.89 181.61,221.79 180.91,221.68 180.68,220.82 180.68,220.82 180.68,220.82 179.89,221.49 179.24,221.44 178.59,221.38 178.17,220.82 178.17,220.82 178.17,220.82 177.46,221.33 176.84,221.28 176.22,221.22 175.63,220.45 175.63,220.45 175.63,220.45 175,221.25 174.38,221.31 173.76,221.36 173.25,220.77 173.25,220.77 173.25,220.77 172.97,221.36 172.18,221.49 171.39,221.62 170.71,220.87 170.71,220.87 170.71,220.87 170.26,221.6 169.72,221.79 169.18,221.97 168.48,221.52 168.48,221.52 168.48,221.52 168.36,221.79 168.28,221.95 168.2,222.11 167.97,222.14 167.97,222.14 L 168.15,222.61 C 170.08,222.05 172.71,221.7 175.68,221.7 178.65,221.7 181.35,222.05 183.29,222.62 L 183.49,222.08 Z" />
        <path
           style="stroke:#000000;stroke-opacity:1"
           d="M 175.66016,217.15039 174.80078,217.66992 175.34375,218.83008 174.17969,218.61914 173.7793,219.24023 174.17969,219.81055 C 174.89104,219.67193 175.19004,219.61988 175.4043,219.59766 175.43372,219.69913 175.43945,219.80226 175.43945,219.91992 175.43945,220.49992 174.94008,220.9707 174.33008,220.9707 173.83008,220.9707 173.40953,220.66023 173.26953,220.24023 173.24953,220.25023 173.15936,219.85938 173.10938,219.85938 173.07937,219.85938 173.08031,220.26953 173.07031,220.26953 172.99031,220.79953 172.51094,221.16016 171.96094,221.16016 171.34094,221.16016 170.84961,220.68961 170.84961,220.09961 170.84961,220.05961 170.84937,220.02047 170.85938,219.98047 170.84259,219.93754 170.82979,219.91733 170.81445,219.88281 171.12068,219.87349 171.45657,219.91664 172.09961,219.92969 L 172.35938,219.30078 171.83984,218.7793 170.68359,219.38672 170.9707,218.08008 170.08008,217.75977 169.41016,218.40039 170.21875,219.47266 168.91992,219.35938 168.66992,220.03906 169.17969,220.51953 C 169.78405,220.16896 170.11303,220.02667 170.40625,219.95117 170.3801,220.00783 170.35395,220.06471 170.32031,220.07031 170.40031,220.21031 170.41992,220.3593 170.41992,220.5293 170.41992,221.0893 169.94937,221.53906 169.35938,221.53906 168.98937,221.53906 168.67047,221.35984 168.48047,221.08984 L 168.25977,220.80078 V 221.16016 C 168.25977,221.50016 168.10953,221.81914 167.76953,221.86914 167.76953,221.86914 167.37935,221.90023 166.85938,221.49023 166.60839,221.29234 166.41832,221.11343 166.28125,220.97852 L 167.21094,220.88086 167.32031,220.2207 166.69922,219.81055 165.64062,220.67969 165.62695,220.75977 C 165.61155,220.74422 165.57031,220.69922 165.57031,220.69922 165.57031,220.69922 165.63953,220.27047 165.51953,219.98047 165.40953,219.71047 165.16992,219.66016 165.16992,219.66016 L 165.13086,219.85938 C 165.03086,219.72937 164.85969,219.66016 164.67969,219.66016 164.37969,219.66016 164.09961,219.85945 164.09961,219.93945 164.09961,219.93945 164.5793,220.08953 164.7793,220.26953 165.0493,220.51953 165.81445,221.16992 165.81445,221.16992 166.18819,221.35668 166.70147,221.954 167,222.25977 167.25,222.40977 167.63945,222.56977 167.93945,222.50977 168.26945,222.45977 168.49914,222.20039 168.61914,221.90039 168.84914,222.04039 169.12016,222.11914 169.41016,222.11914 170.04016,222.11914 170.61008,221.76977 170.83008,221.25977 171.12008,221.56977 171.52,221.75977 172,221.75977 172.5,221.75977 172.96,221.52969 173.25,221.17969 173.53,221.44969 173.91984,221.60938 174.33984,221.60938 174.89984,221.60938 175.38969,221.32992 175.67969,220.91992 175.95969,221.32992 176.45977,221.60936 177.00977,221.60938 177.42977,221.60937 177.81961,221.44969 178.09961,221.17969 178.38961,221.52969 178.84937,221.75977 179.35938,221.75977 179.82937,221.75977 180.22953,221.56977 180.51953,221.25977 180.73953,221.76977 181.30945,222.11914 181.93945,222.11914 182.22945,222.11914 182.51023,222.04039 182.74023,221.90039 182.86023,222.20039 183.09016,222.45977 183.41016,222.50977 183.72016,222.56977 184.10936,222.40977 184.35938,222.25977 184.62819,222.03049 184.88934,221.72948 185.12109,221.4375 185.24947,221.3322 186.12848,220.50359 186.39062,220.26953 186.58064,220.08953 187.06055,219.93945 187.06055,219.93945 187.06055,219.85945 186.78047,219.66016 186.48047,219.66016 186.30047,219.66016 186.1293,219.72935 186.0293,219.85938 L 185.99023,219.66016 C 185.99023,219.66016 185.75086,219.71047 185.63086,219.98047 185.52686,220.25466 185.59029,220.62927 185.59766,220.67188 L 184.46094,219.81055 183.83984,220.2207 183.94922,220.88086 185.05469,220.99805 C 184.92068,221.13131 184.74195,221.29946 184.5,221.49023 183.97,221.90023 183.58984,221.86914 183.58984,221.86914 183.23984,221.81914 183.09961,221.50016 183.09961,221.16016 V 220.80078 L 182.86914,221.08984 C 182.67914,221.35984 182.36023,221.53906 181.99023,221.53906 181.40023,221.53906 180.92969,221.0893 180.92969,220.5293 180.92969,220.3593 180.9593,220.21031 181.0293,220.07031 181.02897,220.04206 181.02237,220.04657 181.02148,220.02148 181.21021,220.12258 181.47166,220.26492 182.16992,220.51953 L 182.67969,220.03906 182.43945,219.35938 181.13086,219.47266 181.93945,218.40039 181.26953,217.75977 180.38086,218.08008 180.66602,219.38672 179.50977,218.7793 178.99023,219.30078 179.25,219.92969 C 180.14066,219.8747 180.42392,219.85763 180.62695,219.88867 180.57796,219.93893 180.53049,219.98718 180.49023,219.98047 180.50023,220.02047 180.5,220.05961 180.5,220.09961 180.5,220.68961 180.01063,221.16016 179.39062,221.16016 178.84062,221.16016 178.35906,220.79953 178.28906,220.26953 178.26906,220.26953 178.27023,219.85936 178.24023,219.85938 178.20023,219.85938 178.09984,220.25023 178.08984,220.24023 177.93984,220.66023 177.5193,220.9707 177.0293,220.9707 176.4093,220.9707 175.91016,220.49992 175.91016,219.91992 175.91016,219.81361 175.93221,219.7231 175.95703,219.63086 176.16221,219.6765 176.4447,219.73861 177.16016,219.81055 L 177.55078,219.24023 177.16016,218.61914 175.99023,218.81836 176.51953,217.66992 Z"
           id="path30"
           inkscape:connector-curvature="0" />
        <path
           style="stroke-linejoin:round"
           inkscape:connector-curvature="0"
           id="path32"
           d="M 175.67,222.23 C 172.66,222.24 169.95,222.6 168,223.17 167.87,223.21 167.71,223.11 167.67,223 167.63,222.87 167.72,222.72 167.85,222.68 169.8,222.08 172.58,221.7 175.67,221.7 178.76,221.7 181.55,222.08 183.5,222.68 183.63,222.72 183.72,222.87 183.68,223 183.64,223.11 183.48,223.21 183.35,223.17 181.4,222.6 178.68,222.24 175.67,222.23 Z" />
      </g>
      <g
         style="fill:none"
         id="crown_pt2">
        <path
           style="fill:#ad1519;stroke-linejoin:round"
           inkscape:connector-curvature="0"
           id="path93"
           d="M 175.66,226.16 C 173.23,226.16 171.03,225.94 169.36,225.51 171.03,225.08 173.23,224.82 175.66,224.81 178.1,224.81 180.31,225.08 181.99,225.51 180.31,225.94 178.1,226.16 175.66,226.16 Z" />
      </g>
    </g>
    <g
       id="pillar_left">
      <g
         style="fill:#005bbf"
         id="g143">
        <path
           id="path139"
           style="fill:#cccccc"
           d="M 191.26,340.32 C 189.72,340.32 188.37,339.99 187.35,339.45 186.35,338.94 184.99,338.63 183.49,338.63 181.98,338.63 180.59,338.94 179.58,339.46 178.57,339.98 177.18,340.32 175.66,340.32 174.12,340.32 172.74,339.95 171.73,339.42 170.73,338.92 169.4,338.63 167.94,338.63 166.42,338.63 165.08,338.92 164.08,339.44 163.06,339.97 161.66,340.32 160.13,340.32 V 337.92 C 161.66,337.92 163.06,337.56 164.08,337.02 165.08,336.51 166.42,336.22 167.94,336.22 169.39,336.22 170.73,336.52 171.73,337.01 172.74,337.55 174.12,337.9 175.66,337.9 177.18,337.9 178.57,337.58 179.58,337.05 180.59,336.53 181.98,336.22 183.49,336.22 184.99,336.22 186.35,336.53 187.35,337.04 188.37,337.59 189.74,337.9 191.28,337.9 L 191.26,340.32 M 191.28,333.09 C 189.74,333.09 188.37,332.76 187.35,332.22 186.35,331.71 184.99,331.39 183.49,331.39 181.98,331.39 180.59,331.71 179.58,332.23 178.57,332.76 177.18,333.09 175.66,333.09 174.12,333.09 172.74,332.72 171.73,332.19 170.73,331.7 169.4,331.39 167.94,331.39 166.42,331.39 165.08,331.69 164.08,332.21 163.06,332.74 161.66,333.09 160.13,333.09 V 335.5 C 161.66,335.5 163.06,335.15 164.08,334.62 165.08,334.1 166.42,333.8 167.94,333.8 169.39,333.8 170.73,334.11 171.73,334.6 172.74,335.14 174.12,335.5 175.66,335.5 177.18,335.5 178.57,335.16 179.58,334.64 180.59,334.12 181.98,333.8 183.49,333.8 184.99,333.8 186.35,334.12 187.35,334.64 188.37,335.17 189.72,335.5 191.26,335.5 L 191.28,333.09"
           inkscape:connector-curvature="0" />
        <path
           id="path141"
           d="M 191.26,342.73 C 189.72,342.73 188.37,342.4 187.35,341.87 186.35,341.35 184.99,341.03 183.49,341.03 181.98,341.03 180.59,341.35 179.58,341.87 178.57,342.39 177.18,342.73 175.66,342.73 174.12,342.73 172.74,342.36 171.73,341.83 170.73,341.33 169.4,341.03 167.94,341.03 166.42,341.03 165.08,341.33 164.08,341.85 163.06,342.38 161.66,342.73 160.13,342.73 V 340.34 C 161.66,340.34 163.06,339.97 164.08,339.44 165.08,338.92 166.42,338.63 167.94,338.63 169.39,338.63 170.73,338.93 171.73,339.42 172.74,339.95 174.12,340.32 175.66,340.32 177.18,340.32 178.57,339.98 179.58,339.46 180.59,338.94 181.98,338.63 183.49,338.63 184.99,338.63 186.35,338.94 187.35,339.45 188.37,339.99 189.73,340.32 191.28,340.32 Z M 191.28,335.5 C 189.74,335.5 188.37,335.17 187.35,334.64 186.35,334.12 184.99,333.8 183.49,333.8 181.98,333.8 180.59,334.12 179.58,334.64 178.57,335.16 177.18,335.5 175.66,335.5 174.12,335.5 172.74,335.14 171.73,334.6 170.73,334.11 169.4,333.8 167.94,333.8 166.42,333.8 165.08,334.1 164.08,334.62 163.06,335.15 161.66,335.5 160.13,335.5 V 337.9 C 161.66,337.9 163.06,337.56 164.08,337.02 165.08,336.51 166.42,336.22 167.94,336.22 169.39,336.22 170.73,336.52 171.73,337.01 172.74,337.55 174.12,337.9 175.66,337.9 177.18,337.9 178.57,337.58 179.58,337.05 180.59,336.53 181.98,336.22 183.49,336.22 184.99,336.22 186.35,336.53 187.35,337.04 188.37,337.59 189.72,337.9 191.26,337.9 L 191.28,335.5 M 191.28,330.68 C 189.74,330.68 188.37,330.35 187.35,329.81 186.35,329.3 184.99,328.99 183.49,328.99 181.98,328.99 180.59,329.31 179.58,329.82 178.57,330.35 177.18,330.68 175.66,330.68 174.12,330.68 172.74,330.32 171.73,329.78 170.73,329.29 169.4,328.99 167.94,328.99 166.42,328.99 165.08,329.28 164.08,329.8 163.06,330.34 161.66,330.68 160.13,330.68 V 333.09 C 161.66,333.09 163.06,332.74 164.08,332.21 165.08,331.69 166.42,331.39 167.94,331.39 169.39,331.39 170.73,331.7 171.73,332.19 172.74,332.72 174.12,333.09 175.66,333.09 177.18,333.09 178.57,332.76 179.58,332.23 180.59,331.71 181.98,331.39 183.49,331.39 184.99,331.39 186.35,331.71 187.35,332.22 188.37,332.76 189.72,333.09 191.26,333.09 Z"
           inkscape:connector-curvature="0" />
      </g>
      <g
         style="fill:#c8b100"
         id="g151" />
      <path
         style="fill:#cccccc"
         inkscape:connector-curvature="0"
         id="path153"
         d="M 167.55,318.32 H 183.8 V 238.69 H 167.55 Z" />
      <path
         style="fill:none"
         inkscape:connector-curvature="0"
         id="path155"
         d="M 179.13,238.8 V 318.26 M 180.96,238.8 V 318.26" />
      <g
         style="fill:#c8b100"
         id="g165">
        <path
           id="path163"
           d="M 167.33,232.37 H 184.03 C 184.6,232.37 185.06,232.67 185.06,233.03 185.06,233.4 184.6,233.7 184.03,233.7 H 167.33 C 166.77,233.7 166.31,233.4 166.31,233.03 166.31,232.67 166.77,232.37 167.33,232.37 Z M 167.33,236.19 H 184.02 C 184.59,236.19 185.04,236.54 185.04,236.97 185.04,237.41 184.59,237.76 184.02,237.76 H 167.33 C 166.77,237.76 166.31,237.41 166.31,236.97 166.31,236.54 166.77,236.19 167.33,236.19 Z M 166.92,236.26 C 167.06,236.2 167.16,236.19 167.33,236.19 H 184.02 C 184.19,236.19 184.34,236.22 184.48,236.27 183.9,236.08 183.49,235.56 183.49,234.95 183.49,234.34 183.94,233.81 184.52,233.62 184.38,233.66 184.19,233.7 184.03,233.7 H 167.33 C 167.16,233.7 167,233.69 166.86,233.64 L 166.95,233.66 C 167.55,233.84 167.89,234.37 167.89,234.95 167.89,235.51 167.51,236.08 166.92,236.26 Z M 164.58,232.37 H 186.87 V 226.53 H 164.58 Z M 164.27,329.86 H 187.14 V 324.03 H 164.27 Z M 167.33,319.27 H 184.02 C 184.59,319.27 185.04,319.62 185.04,320.05 185.04,320.48 184.59,320.84 184.02,320.84 H 167.33 C 166.77,320.84 166.31,320.48 166.31,320.05 166.31,319.62 166.77,319.27 167.33,319.27 Z M 166.92,320.78 C 166.97,320.99 167.05,321.18 167.05,321.4 167.05,322.86 165.78,324.03 164.24,324.03 H 187.18 C 185.63,324.03 184.37,322.86 184.37,321.4 184.37,321.19 184.41,320.99 184.46,320.78 184.33,320.83 184.17,320.84 184.02,320.84 H 167.33 C 167.2,320.84 167.04,320.82 166.92,320.78 Z"
           inkscape:connector-curvature="0" />
      </g>
    </g>
    <g
       style="fill:#ad1519"
       id="ribbon_left">
      <path
         id="path176"
         style="stroke-linejoin:round"
         d="M 157.42,293.83 C 156.99,292.55 161.39,289.97 167.6,287.69 170.44,286.68 172.78,285.62 175.69,284.34 184.32,280.52 190.69,276.14 189.91,274.55 L 189.82,274.38 C 190.28,274.76 191,282.62 191,282.62 191.78,284.08 185.95,288.4 178,292.2 175.46,293.42 170.09,295.4 167.56,296.29 163.02,297.86 158.52,300.83 158.93,301.93 L 157.42,293.84 Z M 183.83,272.38 C 186.65,272.81 188.76,273.51 189.81,274.37 L 189.91,274.54 C 190.41,275.57 187.94,277.76 183.8,280.21 L 183.83,272.38 M 167.52,278.47 C 163.01,278.15 159.94,276.94 159.58,275.06 159.3,273.56 160.83,271.89 163.55,270.38 164.76,270.52 166.13,270.68 167.55,270.68 L 167.52,278.47 M 200.4,268.47 C 196.86,267.01 190.83,265.92 183.91,265.69 181.52,265.71 178.87,265.94 176.12,266.39 166.4,268.02 158.99,271.9 159.58,275.06 159.59,275.12 159.62,275.26 159.63,275.32 159.63,275.32 155.99,267.11 155.93,266.8 155.28,263.29 163.49,258.98 174.28,257.18 177.67,256.61 180.97,256.39 183.84,256.42 190.74,256.42 196.74,257.31 200.36,258.65 L 200.4,268.47 M 162.48,298.62 C 160.22,299.92 158.68,301.26 158.93,301.93 159.05,302.54 159.77,303 160.8,303.68 162.42,304.81 163.4,306.82 162.63,307.75 163.97,306.67 164.82,305.06 164.82,303.26 164.82,301.39 163.92,299.7 162.48,298.62 Z"
         inkscape:connector-curvature="0" />
    </g>
    <g
       style="stroke-width:0.25999999"
       id="crown_right">
      <path
         style="fill:#ad1519;stroke-width:0.27000001"
         inkscape:connector-curvature="0"
         id="path179"
         d="M 324.85,220.42 C 324.85,220.42 324.11,221.2 323.57,221.31 323.04,221.41 322.36,220.82 322.36,220.82 322.36,220.82 321.88,221.33 321.28,221.46 320.69,221.6 319.87,220.8 319.87,220.8 319.87,220.8 319.3,221.6 318.8,221.79 318.29,221.97 317.67,221.55 317.67,221.55 317.67,221.55 317.44,221.94 317.02,222.16 316.84,222.25 316.54,222.11 316.54,222.11 L 315.94,221.73 315.26,221.01 314.64,220.77 C 314.64,220.77 314.36,219.86 314.33,219.7 314.31,219.54 314.25,219.13 314.25,219.13 314.12,218.48 315.12,217.73 316.55,217.41 317.37,217.22 318.09,217.23 318.61,217.39 319.18,216.91 320.39,216.57 321.81,216.57 323.1,216.57 324.23,216.84 324.85,217.27 325.46,216.84 326.59,216.57 327.88,216.57 329.3,216.57 330.5,216.91 331.07,217.39 331.6,217.23 332.31,217.22 333.14,217.41 334.56,217.73 335.57,218.48 335.44,219.13 335.44,219.13 335.38,219.54 335.36,219.7 335.33,219.86 335.04,220.77 335.04,220.77 L 334.42,221.01 333.74,221.73 333.16,222.11 C 333.16,222.11 332.86,222.25 332.68,222.16 332.25,221.95 332.02,221.55 332.02,221.55 332.02,221.55 331.4,221.97 330.89,221.79 330.38,221.6 329.82,220.8 329.82,220.8 329.82,220.8 329,221.6 328.4,221.46 327.81,221.33 327.33,220.82 327.33,220.82 327.33,220.82 326.65,221.41 326.12,221.31 325.58,221.2 324.85,220.42 324.85,220.42 Z" />
      <g
         style="fill:#c8b100"
         id="g191">
        <ellipse
           id="ellipse181"
           ry="1.96"
           rx="1.38"
           cy="216.2"
           cx="324.82001" />
        <ellipse
           id="ellipse183"
           ry="1.8099999"
           rx="0.63"
           cy="216.2"
           cx="324.85001" />
        <ellipse
           style="stroke:none"
           id="ellipse185"
           ry="0.88"
           rx="0.93000001"
           cy="213.95"
           cx="324.84" />
        <path
           style="stroke-width:0.30000001"
           inkscape:connector-curvature="0"
           id="path187"
           d="M 326.13,213.64 V 214.22 H 323.6 V 213.64 H 324.54 V 212.34 H 323.92 V 211.76 H 324.54 V 211.18 H 325.15 V 211.76 H 325.76 V 212.34 H 325.15 V 213.64 H 326.13" />
        <path
           style="fill:none"
           inkscape:connector-curvature="0"
           id="path189"
           d="M 325.11,213.12 A 0.93,0.88 0 1 1 324.6,213.11" />
      </g>
      <g
         style="fill:none;stroke-width:0.20999999"
         id="g241">
        <path
           style="stroke-width:0.25999999;stroke-linecap:round"
           inkscape:connector-curvature="0"
           id="path193"
           d="M 314.41,219.99 C 314.28,219.66 314.19,219.29 314.19,218.91 314.19,217.32 315.45,216.03 317.02,216.03 317.52,216.03 317.98,216.16 318.39,216.4" />
        <path
           style="stroke-width:0.25999999"
           inkscape:connector-curvature="0"
           id="path195"
           d="M 319.48,217.93 C 319.33,217.67 319.19,217.39 319.19,217.09 319.19,215.94 320.38,215.01 321.83,215.01 322.45,215.01 323.03,215.18 323.48,215.46" />
        <path
           style="stroke-width:0.25999999"
           inkscape:connector-curvature="0"
           id="path197"
           d="M 330.17,217.96 C 330.32,217.7 330.42,217.39 330.42,217.09 330.42,215.94 329.24,215.01 327.78,215.01 327.16,215.01 326.59,215.18 326.14,215.46" />
        <path
           style="stroke-width:0.25999999;stroke-linecap:round"
           inkscape:connector-curvature="0"
           id="path199"
           d="M 335.21,219.99 C 335.34,219.66 335.42,219.29 335.42,218.91 335.42,217.32 334.16,216.03 332.6,216.03 332.1,216.03 331.63,216.16 331.22,216.4" />
        <ellipse
           id="ellipse201"
           ry="0.43000001"
           rx="0.44999999"
           cy="218.67999"
           cx="313.57001" />
        <ellipse
           id="ellipse203"
           ry="0.43000001"
           rx="0.44999999"
           cy="217.10001"
           cx="313.73999" />
        <ellipse
           id="ellipse205"
           ry="0.43000001"
           rx="0.44999999"
           cy="215.89999"
           cx="314.76001" />
        <ellipse
           id="ellipse207"
           ry="0.43000001"
           rx="0.44999999"
           cy="215.25"
           cx="316.10999" />
        <ellipse
           id="ellipse209"
           ry="0.43000001"
           rx="0.44999999"
           cy="215.31"
           cx="317.54999" />
        <ellipse
           style="fill:#ffffff"
           id="ellipse211"
           ry="0.43000001"
           rx="0.44999999"
           cy="217.08"
           cx="318.42999" />
        <ellipse
           id="ellipse213"
           ry="0.43000001"
           rx="0.44999999"
           cy="215.58"
           cx="318.67999" />
        <ellipse
           id="ellipse215"
           ry="0.43000001"
           rx="0.44999999"
           cy="214.64"
           cx="319.81" />
        <ellipse
           id="ellipse217"
           ry="0.43000001"
           rx="0.44999999"
           cy="214.19"
           cx="321.23001" />
        <ellipse
           id="ellipse219"
           ry="0.43000001"
           rx="0.44999999"
           cy="214.24001"
           cx="322.67001" />
        <ellipse
           id="ellipse221"
           ry="0.43000001"
           rx="0.44999999"
           cy="214.24001"
           cx="326.94" />
        <ellipse
           id="ellipse223"
           ry="0.43000001"
           rx="0.44999999"
           cy="214.19"
           cx="328.39001" />
        <ellipse
           id="ellipse225"
           ry="0.43000001"
           rx="0.44999999"
           cy="214.64"
           cx="329.79999" />
        <ellipse
           id="ellipse227"
           ry="0.43000001"
           rx="0.44999999"
           cy="215.58"
           cx="330.92999" />
        <ellipse
           style="fill:#ffffff"
           id="ellipse229"
           ry="0.43000001"
           rx="0.44999999"
           cy="217.08"
           cx="331.17999" />
        <ellipse
           id="ellipse231"
           ry="0.43000001"
           rx="0.44999999"
           cy="215.31"
           cx="332.06" />
        <ellipse
           id="ellipse233"
           ry="0.43000001"
           rx="0.44999999"
           cy="215.25"
           cx="333.51001" />
        <ellipse
           id="ellipse235"
           ry="0.43000001"
           rx="0.44999999"
           cy="215.89999"
           cx="334.85999" />
        <ellipse
           id="ellipse237"
           ry="0.43000001"
           rx="0.44999999"
           cy="217.10001"
           cx="335.88" />
        <ellipse
           id="ellipse239"
           ry="0.43000001"
           rx="0.44999999"
           cy="218.67999"
           cx="336.04999" />
      </g>
      <use
         height="100%"
         width="100%"
         y="0"
         id="use243"
         x="149.17"
         xlink:href="#crown_pt1" />
      <use
         height="100%"
         width="100%"
         y="0"
         id="use245"
         x="149.17"
         xlink:href="#crown_pt2" />
    </g>
    <use
       height="100%"
       width="100%"
       y="0"
       x="149.17"
       xlink:href="#pillar_left"
       id="pillar_right" />
    <use
       height="100%"
       width="100%"
       y="0"
       x="0"
       transform="matrix(-1,0,0,1,500.57,0)"
       xlink:href="#ribbon_left"
       id="ribbon_right" />
    <g
       style="fill:#c8b100;stroke:none"
       id="plus_ultra">
      <path
         id="path266"
         d="M 337.57,267.46 C 337.52,268.15 337.39,268.83 337.26,269.56 337.56,269.7 337.87,269.83 338.16,270 338.46,270.16 338.73,270.34 339.02,270.52 L 339.62,263.29 C 339.48,263.23 339.35,263.17 339.21,263.1 339.08,263.03 338.96,262.95 338.84,262.86 L 332.46,266.91 C 332.63,266.99 332.81,267.07 332.97,267.16 333.14,267.25 333.28,267.35 333.44,267.44 333.98,266.99 334.54,266.62 335.18,266.14 L 337.57,267.45 Z M 335.76,265.8 337.89,264.43 337.64,266.83 335.76,265.8 M 326.01,265.53 C 326.3,265.58 326.6,265.62 326.89,265.68 327.17,265.74 327.46,265.83 327.74,265.91 L 328.46,262.97 328.54,262.98 C 328.7,263.39 328.92,263.88 329.03,264.17 L 329.93,266.39 C 330.29,266.45 330.64,266.5 330.98,266.57 331.34,266.65 331.68,266.75 332.02,266.85 L 331.71,266.18 C 331.23,265.18 330.72,264.17 330.3,263.16 331.42,263.2 332.28,262.8 332.5,261.9 332.65,261.28 332.4,260.79 331.82,260.37 331.38,260.06 330.54,259.9 329.99,259.77 L 327.55,259.24 326.01,265.53 M 329.15,260.11 C 329.86,260.27 330.74,260.38 330.74,261.18 330.73,261.39 330.71,261.53 330.68,261.66 330.45,262.6 329.74,262.92 328.55,262.57 L 329.15,260.11 M 323.52,259.21 C 324.24,259.27 324.93,259.4 325.62,259.52 325.61,259.39 325.59,259.25 325.6,259.11 325.61,258.98 325.66,258.85 325.7,258.72 L 319.63,258.22 C 319.64,258.36 319.66,258.49 319.65,258.62 319.64,258.76 319.59,258.89 319.55,259.02 320.17,259 320.92,259 321.76,259.07 L 321.23,264.84 C 321.52,264.84 321.82,264.84 322.11,264.87 322.41,264.89 322.7,264.94 322.99,264.98 L 323.52,259.21 M 316.48,258.16 C 316.19,258.17 315.89,258.2 315.6,258.19 315.3,258.19 315,258.15 314.71,258.13 L 314.59,264.54 319.08,264.62 C 319.05,264.49 319.02,264.34 319.02,264.21 319.02,264.08 319.06,263.94 319.09,263.81 318.28,263.86 317.41,263.91 316.38,263.89 L 316.48,258.16 M 310.3,264.98 C 310.92,262.65 311.71,260.4 312.49,258.11 312.32,258.16 312.14,258.2 311.96,258.22 311.79,258.25 311.6,258.26 311.42,258.27 311.05,259.91 310.54,261.56 310,263.21 309.04,261.77 308,260.37 307.17,258.91 306.83,258.98 306.49,259.06 306.15,259.11 305.81,259.16 305.46,259.18 305.11,259.22 306.56,261.16 307.96,263.11 309.31,265.13 309.47,265.09 309.63,265.03 309.81,265.01 309.97,264.99 310.14,264.99 310.3,264.98 M 190.72,259.8 C 190.87,259.49 191.03,259.2 191.2,258.91 190.96,258.69 190.24,258.36 189.39,258.28 187.6,258.1 186.58,258.89 186.46,259.97 186.2,262.23 189.77,262.04 189.6,263.54 189.53,264.18 188.85,264.44 188.12,264.37 187.31,264.29 186.71,263.84 186.61,263.18 L 186.39,263.16 C 186.27,263.55 186.1,263.93 185.91,264.31 186.44,264.65 187.12,264.84 187.76,264.9 189.59,265.09 190.98,264.36 191.11,263.16 191.34,261.01 187.74,260.89 187.88,259.62 187.94,259.09 188.35,258.74 189.28,258.83 189.95,258.9 190.36,259.26 190.54,259.78 L 190.72,259.8 M 181.56,264.63 C 182.38,262.35 183.38,260.17 184.37,257.96 184.19,257.99 184.01,258.02 183.83,258.03 183.65,258.04 183.46,258.04 183.29,258.03 182.76,259.64 182.11,261.24 181.42,262.83 180.6,261.32 179.69,259.84 178.99,258.32 178.65,258.36 178.3,258.41 177.96,258.44 177.62,258.46 177.26,258.45 176.92,258.46 178.18,260.52 179.4,262.57 180.56,264.69 180.72,264.66 180.88,264.63 181.06,264.61 181.22,264.6 181.39,264.62 181.56,264.63 M 172.78,259.22 C 172.49,259.3 172.21,259.38 171.92,259.44 171.63,259.49 171.33,259.53 171.04,259.56 L 172.45,265.84 176.83,264.96 C 176.78,264.84 176.71,264.7 176.69,264.58 176.66,264.44 176.66,264.3 176.65,264.17 175.88,264.39 175.04,264.63 174.04,264.83 L 172.78,259.22 M 166.42,264.65 C 168.41,263.93 169.71,263.07 169.08,261.51 168.67,260.51 167.65,260.32 166.11,260.88 L 163.4,261.87 165.84,267.9 C 166.11,267.78 166.38,267.66 166.65,267.56 166.93,267.46 167.22,267.38 167.5,267.3 L 166.42,264.66 Z M 165.24,261.74 165.93,261.49 C 166.5,261.28 167.14,261.59 167.43,262.29 167.64,262.82 167.59,263.42 166.93,263.84 166.72,263.97 166.47,264.07 166.23,264.17 L 165.24,261.74"
         inkscape:connector-curvature="0" />
    </g>
  </g>
  <path
     d="M 249.65,182.72 C 256.29,182.72 262.21,183.71 266.06,185.23 268.26,186.23 271.22,186.96 274.46,187.4 276.93,187.73 279.27,187.79 281.31,187.64 284.04,187.58 287.98,188.38 291.93,190.12 295.19,191.57 297.92,193.33 299.73,195.03 L 298.16,196.43 297.71,200.39 293.41,205.31 291.26,207.14 286.17,211.21 283.57,211.42 282.78,213.67 249.87,209.81 216.85,213.67 216.06,211.42 213.45,211.21 208.37,207.14 206.22,205.31 201.92,200.39 201.48,196.43 199.9,195.03 C 201.72,193.33 204.44,191.57 207.7,190.12 211.65,188.38 215.59,187.58 218.32,187.64 220.36,187.79 222.7,187.73 225.17,187.4 228.41,186.96 231.37,186.23 233.57,185.23 237.43,183.71 243.01,182.72 249.65,182.72 Z"
     id="path270"
     inkscape:connector-curvature="0"
     style="fill:#ad1519;stroke:#000000;stroke-width:0.25999999" />
  <path
     style="fill:#c8b100;stroke:#000000;stroke-width:0.38999999"
     inkscape:connector-curvature="0"
     d="M 295.14,180.48 C 297.05,181.69 298.5,183.17 299.3,184.82 299.88,186.02 300.21,187.36 300.21,188.77 300.21,191.1 299.3,193.24 297.83,194.89 L 299.43,197.48 C 300.96,195.52 301.84,193.22 301.84,190.78 301.84,186.58 299.17,182.91 295.14,180.48 Z M 274.61,191.46 C 277.24,189.49 278.88,186.82 278.88,183.88 278.88,180.5 276.66,177.48 273.3,175.47 275.37,177.14 276.63,179.3 276.81,181.7 276.84,182.01 276.86,182.31 276.86,182.62 276.86,185.38 275.59,187.88 273.59,189.61 L 274.61,191.46 M 204.9,180.48 C 202.99,181.69 201.54,183.17 200.74,184.82 200.16,186.02 199.83,187.36 199.83,188.77 199.83,191.1 200.73,193.24 202.21,194.89 L 200.61,197.48 C 199.08,195.52 198.19,193.22 198.19,190.78 198.19,186.58 200.86,182.91 204.9,180.48 Z M 225.43,191.46 C 222.8,189.49 221.16,186.82 221.16,183.88 221.16,180.5 223.38,177.48 226.74,175.47 224.67,177.14 223.41,179.3 223.23,181.7 223.2,182.01 223.18,182.31 223.18,182.62 223.18,185.38 224.44,187.88 226.44,189.61 L 225.43,191.46"
     id="path290" />
  <ellipse
     style="fill:#005bbf;stroke:#000000;stroke-width:0.25999999"
     id="ellipse292"
     ry="4.1999998"
     rx="4.4299998"
     cy="167.3"
     cx="250.05" />
  <path
     style="fill:#c8b100;stroke:#000000;stroke-width:0.25999999"
     inkscape:connector-curvature="0"
     id="path294"
     d="M 248.89,155.54 V 157.8 H 246.47 V 160.1 H 248.89 V 163.25 166.71 H 245.84 C 245.81,166.92 245.62,167.08 245.62,167.3 245.62,167.88 245.74,168.44 245.97,168.94 245.97,168.96 245.99,168.96 246,168.97 H 254.12 C 254.12,168.96 254.14,168.96 254.15,168.94 254.37,168.44 254.5,167.88 254.5,167.3 254.5,167.08 254.31,166.92 254.28,166.71 H 251.32 V 163.28 160.1 H 253.74 V 157.8 H 251.32 V 155.54 Z" />
  <path
     sodipodi:nodetypes="ccccccccccscsccscscccccccscsccscsccscccccscscsccscscccccccscsccscscc"
     inkscape:connector-curvature="0"
     d="M 250.07,216.09 C 237.66,216.12 226.52,217.67 218.68,220.09 219.33,219.78 219.27,218.97 218.46,216.89 217.48,214.36 215.96,214.47 215.96,214.47 224.62,211.91 236.69,210.31 250.12,210.29 263.56,210.31 275.72,211.91 284.39,214.47 284.39,214.47 282.86,214.36 281.88,216.89 281.07,218.97 281.01,219.78 281.67,220.09 273.83,217.67 262.48,216.12 250.07,216.09 M 297.83,194.89 C 299.3,193.24 300.21,191.1 300.21,188.77 300.21,187.36 299.88,186.02 299.3,184.82 297.16,180.44 290.48,177.25 282.54,177.25 280.38,177.25 278.31,177.48 276.39,177.92 276.82,178.38 277.15,178.89 277.48,179.4 279.06,179.09 280.77,178.92 282.54,178.92 289.81,178.92 295.89,181.75 297.65,185.57 298.12,186.54 298.38,187.63 298.38,188.77 298.38,191.09 297.29,193.17 295.59,194.59 L 298.22,198.89 299.64,197.77 Z M 274.7,191.42 273.31,192.53 271.23,189.13 C 273.49,187.75 275.04,185.35 275.04,182.62 275.04,182.31 275.02,182.01 274.98,181.71 274.77,177.37 269.48,173.79 262.78,173.79 259.29,173.79 256.15,174.74 253.94,176.27 253.88,175.6 253.82,175.02 253.72,174.41 256.16,172.99 259.32,172.13 262.78,172.13 270.49,172.13 276.52,176.52 276.81,181.7 276.84,182.01 276.86,182.31 276.86,182.62 276.86,185.38 275.59,187.88 273.59,189.61 L 274.7,191.42 M 250.04,171.27 C 251.8,171.27 253.32,172.43 253.68,174 254.41096,178.57313 253.74286,183.67706 255.4,188.27 L 250.04,193.41 244.61,188.27 C 246.35969,183.23162 245.51052,179.07107 246.34,174 246.7,172.43 248.28,171.27 250.04,171.27 Z M 202.21,194.89 C 200.73,193.24 199.83,191.1 199.83,188.77 199.83,187.36 200.16,186.02 200.74,184.82 202.87,180.44 209.56,177.25 217.5,177.25 219.66,177.25 221.73,177.48 223.64,177.92 223.22,178.38 222.89,178.89 222.56,179.4 220.97,179.09 219.27,178.92 217.5,178.92 210.23,178.92 204.14,181.75 202.38,185.57 201.91,186.54 201.65,187.63 201.65,188.77 201.65,191.09 202.74,193.17 204.44,194.59 L 201.81,198.89 200.4,197.77 Z M 225.34,191.42 226.72,192.53 228.8,189.13 C 226.55,187.75 225,185.35 225,182.62 225,182.31 225.02,182.01 225.06,181.71 225.27,177.37 230.56,173.79 237.26,173.79 240.74,173.79 243.89,174.74 246.1,176.27 246.16,175.6 246.22,175.02 246.31,174.41 243.88,172.99 240.71,172.13 237.26,172.13 229.55,172.13 223.52,176.52 223.23,181.7 223.2,182.01 223.18,182.31 223.18,182.62 223.18,185.38 224.44,187.88 226.44,189.61 L 225.34,191.42"
     id="path416"
     style="fill:#c8b100;stroke:#000000;stroke-width:0.38999999" />
  <path
     style="fill:#c8b100;stroke:#000000;stroke-width:0.38999999"
     sodipodi:nodetypes="scccccs"
     inkscape:connector-curvature="0"
     id="path282"
     d="M 250.04,172.94 C 250.95,172.94 251.72,173.52 251.91,174.33 252.62322,178.66068 251.96497,183.48535 253.55,187.83 L 250.01,191.18 246.47,187.83 C 248.13668,183.06456 247.28583,179.12044 248.11,174.33 248.29,173.52 249.13,172.94 250.04,172.94 Z" />
  <g
     id="g412"
     style="fill:#ffffff;stroke:#000000;stroke-width:0.38999999">
    <ellipse
       cx="250.03999"
       cy="188.94"
       rx="1.91"
       ry="1.8"
       id="ellipse298" />
  </g>
  <path
     inkscape:connector-curvature="0"
     id="path458"
     d="M 291.97,206.32 C 293.1914,203.42558 295.8485,206.39233 296.70656,203.20969 298.27482,201.44386 303.37098,202.63716 299.82189,199.56254 298.00889,197.80709 295.6567,201.09897 295.20781,199.17641 291.73433,199.19892 294.45687,207.16197 292.66,203.12 291.10133,201.86985 288.44429,199.75702 288.28289,202.06377 286.00799,201.67696 283.67084,202.94593 286.68922,204.47016 288.67763,205.00104 284.56349,206.7057 288.03203,206.38391 289.34021,206.60856 290.67029,206.58924 291.97,206.32 Z M 274.22,201.86 C 274.91004,199.97152 275.08177,198.48114 277.81125,198.68875 279.11625,198.56097 280.84582,198.37012 279.24,199.93 283.3475,200.78287 281.59879,203.39318 278.735,203.225 279.92734,206.06707 274.71306,202.54588 274.22,201.86 Z M 274.67,191.65 C 272.65106,192.52437 272.94087,195.93084 270.56,193.77 271.10258,196.35062 270.66098,199.91757 274.125,198.995 275.33328,200.53341 279.69537,192.90328 275.7,195.24 275.8436,193.97033 275.44309,192.65981 274.67,191.65 Z M 271.38,201.38 C 271.40406,199.389 271.82154,197.94211 269.15625,197.24 267.97524,196.70402 266.41592,195.94882 267.36,197.95 263.24342,197.38544 263.84727,200.43126 266.6425,201.2075 264.49693,203.4925 270.81858,201.80139 271.37,201.39 M 251.76,199.83 C 252.54192,197.94385 251.37778,196.19928 254.34641,195.81891 255.61844,195.62172 258.78964,194.22587 256.95,196.75 259.34466,196.68792 262.30812,199.10038 258.55541,199.91459 256.16919,199.54144 257.87056,201.53382 257.11097,201.77828 255.21648,201.46468 253.3043,201.07079 251.76,199.84 M 250.11,188.36 C 252.15286,189.89157 251.23374,193.24789 254.25,191.49 253.12317,193.94269 253.01891,198.30765 249.64844,196.50391 247.52246,198.60801 245.65404,191.5714 246.79625,191.51531 249.19631,193.54379 248.09776,189.14326 250.11,188.36 Z M 248.5,199.83 C 247.71944,197.94469 248.88223,196.19814 245.91797,195.81891 244.56157,195.5493 241.53549,194.30253 243.31,196.75 240.9103,196.69293 237.9563,199.10155 241.71162,199.91459 244.66757,199.55369 241.31311,202.92892 244.46516,201.53078 245.94116,201.32294 247.29994,200.71379 248.5,199.84 M 228.97,201.38 C 228.93472,199.38887 228.5365,197.94313 231.18875,197.24 232.3666,196.69957 233.94603,195.95193 232.98,197.95 237.10929,197.38194 236.49867,200.43284 233.69875,201.2075 235.89255,203.49146 229.64559,201.86428 228.97,201.39 M 225.68,191.65 C 227.70083,192.52161 227.39722,195.9332 229.78,193.77 229.25381,196.3545 229.67588,199.91915 226.22,198.995 225.01946,200.52815 220.63775,192.90676 224.64,195.24 224.50587,193.96978 224.89868,192.65656 225.68,191.65 Z M 226.12,201.86 C 225.43998,199.96447 225.26781,198.48413 222.5375,198.68875 221.2305,198.56042 219.48497,198.37178 221.11,199.93 216.9912,200.77404 218.76162,203.39961 221.61,203.225 220.40202,206.07034 225.63558,202.54527 226.12,201.86 Z M 208.37,206.32 C 207.14778,203.42744 204.49987,206.38933 203.635,203.20969 202.06868,201.44435 196.98528,202.6368 200.52127,199.56254 202.33306,197.80704 204.69213,201.10083 205.14219,199.17641 208.62518,199.20252 205.87387,207.16422 207.69,203.12 209.25018,201.87434 211.89777,199.75284 212.06383,202.06377 214.34619,201.67987 216.6752,202.94625 213.65094,204.47016 211.65807,205.00265 215.79278,206.70406 212.31781,206.38391 211.00629,206.60885 209.67309,206.58896 208.37,206.32 Z M 250.2,199.78 C 252.57626,200.05474 250.24071,205.05803 253.76804,205.71915 257.22782,208.01154 261.00095,203.83011 261.55625,201.69922 260.87295,206.2209 266.9808,208.87195 270.02125,205.74875 271.91399,204.26451 270.76585,201.5489 272.96,200.37 274.57269,202.37101 272.33725,204.81266 274.13104,206.8259 276.13337,209.76991 280.86918,209.18101 282.46231,206.12526 283.55673,204.95767 282.15353,210.12361 284.53652,210.12516 287.8986,210.81611 290.71804,206.75868 292.66412,205.49704 293.42287,208.0471 290.55772,209.81201 288.87,211.23 286.23023,213.59622 282.52021,211.79726 281.23506,209.83682 277.95023,211.56952 273.26018,210.22825 271.76,206.73 268.80375,210.659 263.13101,208.34229 260.49361,206.8334 257.39776,209.27984 252.36406,208.55524 250.17,205.24 247.85785,208.75641 242.37893,209.31866 239.36,206.42 236.74732,210.32799 230.76057,208.78448 228.38499,207.15567 226.60377,210.48718 221.88989,211.57108 218.72,209.62 217.52476,213.47202 212.64901,212.70831 210.34032,210.40141 208.80673,209.8082 206.32161,205.13531 208.2226,205.84637 210.35019,207.7609 214.10922,212.14243 216.92625,209.1675 217.97499,208.169 216.69686,203.96189 218.37905,206.75829 220.62777,210.39806 227.13924,208.75274 227.01,204.34 226.40183,203.43299 226.68393,199.23835 228.15709,201.13699 229.43241,202.95614 229.18388,206.42692 232.33055,206.90111 236.05903,208.49426 239.12164,203.88746 239.06922,201.66797 239.46655,205.92366 245.29743,207.90887 248.02824,204.58861 250.19273,203.33724 247.68741,199.48799 250.2,199.78 Z M 250.12,210.3 C 238.48259,210.33457 226.76531,211.42948 215.52641,214.53531 212.52235,212.13398 219.29137,211.64645 221.02166,211.03104 238.68033,207.3816 257.03971,207.28068 274.81851,210.15432 278.38121,210.82801 282.00084,211.47485 285.40078,212.73531 286.31263,216.37348 280.61325,212.95044 278.6486,213.04402 269.28119,211.06428 259.68143,210.33585 250.12,210.3 Z M 250.15,226.18 C 239.57398,226.06268 228.81846,225.33371 218.68406,222.15609 217.26113,218.37434 224.40741,219.17439 226.82618,218.08234 242.79785,215.33797 259.30914,215.37396 275.23386,218.42728 277.08398,219.11335 284.11577,219.24776 281.24,222.35 271.16451,225.26685 260.59867,226.10823 250.15,226.18 Z"
     style="fill:#c8b100;stroke:#000000;stroke-width:0.38999999" />
  <path
     style="fill:#ad1519;stroke:#000000;stroke-width:0.38999999;stroke-linejoin:round"
     inkscape:connector-curvature="0"
     id="path464"
     d="M 250.12,224.57 C 239.06,224.56 229.05,223.28 221.44,221.31 229.05,219.34 239.06,218.14 250.12,218.12 261.19,218.14 271.25,219.34 278.86,221.31 271.25,223.28 261.19,224.56 250.12,224.57 Z" />
  <path
     style="fill:none;stroke:#000000;stroke-width:0.05"
     inkscape:connector-curvature="0"
     id="path466"
     d="M 258.04,224.28 V 218.27 M 255.02,224.48 255.06,218.11 M 252.82,224.56 V 218.07" />
  <path
     style="fill:none;stroke:#000000;stroke-width:0.09"
     inkscape:connector-curvature="0"
     id="path468"
     d="M 250.95,224.64 V 218.07" />
  <path
     style="fill:none;stroke:#000000;stroke-width:0.14"
     inkscape:connector-curvature="0"
     id="path470"
     d="M 249.16,224.64 V 218.07" />
  <path
     style="fill:none;stroke:#000000;stroke-width:0.18000001"
     inkscape:connector-curvature="0"
     id="path472"
     d="M 247.48,224.64 V 218.07" />
  <path
     style="fill:none;stroke:#000000;stroke-width:0.23"
     inkscape:connector-curvature="0"
     id="path474"
     d="M 245.81,224.64 V 218.07" />
  <path
     style="fill:none;stroke:#000000;stroke-width:0.28"
     inkscape:connector-curvature="0"
     id="path476"
     d="M 244.32,224.64 V 218.07" />
  <path
     style="fill:none;stroke:#000000;stroke-width:0.33000001"
     inkscape:connector-curvature="0"
     id="path478"
     d="M 241.48,224.28 241.44,218.31 M 242.83,224.36 V 218.11" />
  <path
     style="fill:none;stroke:#000000;stroke-width:0.37"
     inkscape:connector-curvature="0"
     id="path480"
     d="M 238.86,224.01 V 218.51 M 240.19,224.17 240.15,218.31" />
  <path
     style="fill:none;stroke:#000000;stroke-width:0.41999999"
     inkscape:connector-curvature="0"
     id="path482"
     d="M 235.35,223.7 V 218.86 M 236.5,223.78 V 218.7 M 237.69,223.94 V 218.66" />
  <path
     style="fill:none;stroke:#000000;stroke-width:0.46000001"
     inkscape:connector-curvature="0"
     id="path484"
     d="M 234.12,223.66 V 218.98" />
  <path
     style="fill:none;stroke:#000000;stroke-width:0.50999999"
     inkscape:connector-curvature="0"
     id="path486"
     d="M 232.97,223.42 V 219.06" />
  <path
     style="fill:none;stroke:#000000;stroke-width:0.56"
     inkscape:connector-curvature="0"
     id="path488"
     d="M 231.74,223.31 V 219.25" />
  <path
     style="fill:none;stroke:#000000;stroke-width:0.60000002"
     inkscape:connector-curvature="0"
     id="path490"
     d="M 229.22,222.95 229.18,219.73 M 230.51,223.11 V 219.49" />
  <path
     style="fill:none;stroke:#000000;stroke-width:0.63"
     inkscape:connector-curvature="0"
     id="path492"
     d="M 227.93,222.68 V 219.84" />
  <path
     style="fill:none;stroke:#000000;stroke-width:0.68000001"
     inkscape:connector-curvature="0"
     id="path494"
     d="M 226.74,222.45 V 220.09" />
  <path
     style="fill:none;stroke:#000000;stroke-width:0.73000002"
     inkscape:connector-curvature="0"
     id="path496"
     d="M 225.45,222.13 V 220.28" />
  <path
     style="fill:none;stroke:#000000;stroke-width:0.76999998"
     inkscape:connector-curvature="0"
     id="path498"
     d="M 224.12,221.98 V 220.6" />
  <path
     style="fill:none;stroke:#000000;stroke-width:0.91000003"
     inkscape:connector-curvature="0"
     id="path500"
     d="M 222.72,221.66 V 220.99" />
  <path
     inkscape:connector-curvature="0"
     id="path502"
     d="M 220.12,221.66 C 227.87,219.48 238.41,218.14 250.12,218.12 261.84,218.14 272.43,219.48 280.18,221.66"
     style="fill:none;stroke:#000000;stroke-width:0.38999999" />
  <path
     inkscape:connector-curvature="0"
     id="path516"
     d="M 266.66,215.07 C 267.59216,215.13585 268.52518,215.37298 269.45703,215.30906 270.86151,214.97241 270.18096,213.00291 268.89543,213.2422 267.35871,213.07261 265.82507,212.85439 264.28531,212.7252 262.78588,212.79156 263.16608,215.05188 264.57373,214.82761 265.26915,214.90841 265.96458,214.9892 266.66,215.07 Z M 233.64,215.07 C 232.70642,215.13601 231.77208,215.37348 230.83875,215.30906 229.43691,214.96727 230.11437,212.99858 231.40457,213.2422 232.94033,213.07254 234.47306,212.855 236.01182,212.7252 237.51194,212.79034 237.1314,215.04909 235.72627,214.82761 235.03085,214.90841 234.33542,214.9892 233.64,215.07 Z"
     style="fill:#058e6e;stroke:#000000;stroke-width:0.38999999" />
  <path
     inkscape:connector-curvature="0"
     id="path518"
     d="M 274.07,215.28 C 276.77095,211.255 276.83172,219.20779 274.07,215.28 Z M 257.56,213.35 C 260.26283,209.32931 260.32122,217.2743 257.56,213.35 Z M 240.54,213.35 C 243.23794,209.32922 243.29969,217.27385 240.54,213.35 Z M 224.03,215.28 C 226.73095,211.255 226.79172,219.20779 224.03,215.28 Z M 283.96,205.91 C 283.18975,199.39753 279.39878,210.67233 283.96,205.91 Z M 262.58,201.77 C 260.5069,195.48836 259.07856,207.28568 262.58,201.77 Z M 237.76,201.77 C 239.83161,195.49406 241.26843,207.28271 237.76,201.77 Z M 216.39,205.91 C 217.16636,199.39271 220.92385,210.67343 216.39,205.91 Z M 302.20001,198.67 C 302.18262,200.4606 299.1586,199.58552 300.19214,198.08277 300.75632,197.25902 302.20767,197.63636 302.20001,198.67 Z M 303.70001,196.02 C 303.68262,197.8106 300.6586,196.93552 301.69214,195.43277 302.25632,194.60902 303.70767,194.98636 303.70001,196.02 Z M 304.70001,192.94 C 304.68262,194.7306 301.6586,193.85552 302.69214,192.35277 303.25632,191.52902 304.70767,191.90636 304.70001,192.94 Z M 304.82,189.64 C 304.80261,191.4306 301.77859,190.55552 302.81213,189.05277 303.37631,188.22902 304.82766,188.60636 304.82,189.64 Z M 304.01,186.39999 C 303.99261,188.19059 300.96859,187.31551 302.00213,185.81276 302.56631,184.98901 304.01766,185.36635 304.01,186.39999 Z M 302.32,183.45 C 302.30261,185.2406 299.27859,184.36552 300.31213,182.86277 300.87631,182.03902 302.32766,182.41636 302.32,183.45 Z M 300.07,181.02 C 300.05261,182.8106 297.02859,181.93552 298.06213,180.43277 298.62631,179.60902 300.07766,179.98636 300.07,181.02 Z M 297.45999,179.00999 C 297.4426,180.80059 294.41858,179.92551 295.45212,178.42276 296.0163,177.59901 297.46765,177.97635 297.45999,179.00999 Z M 294.33999,177.36 C 294.3226,179.1506 291.29858,178.27552 292.33212,176.77277 292.8963,175.94902 294.34765,176.32636 294.33999,177.36 Z M 291.1,176.19 C 291.08261,177.9806 288.05859,177.10552 289.09213,175.60277 289.65631,174.77902 291.10766,175.15636 291.1,176.19 Z M 287.48,175.53999 C 287.46261,177.33059 284.43859,176.45551 285.47213,174.95276 286.03631,174.12901 287.48766,174.50635 287.48,175.53999 Z M 284.04,175.36 C 284.02261,177.1506 280.99859,176.27552 282.03213,174.77277 282.59631,173.94902 284.04766,174.32636 284.04,175.36 Z M 280.67001,175.48 C 280.65262,177.2706 277.6286,176.39552 278.66214,174.89277 279.22632,174.06902 280.67767,174.44636 280.67001,175.48 Z M 276.92999,190.32001 C 276.9126,192.11061 273.88858,191.23553 274.92212,189.73278 275.4863,188.90903 276.93765,189.28637 276.92999,190.32001 Z M 278.79,187.64999 C 278.77261,189.44059 275.74859,188.56551 276.78213,187.06276 277.34631,186.23901 278.79766,186.61635 278.79,187.64999 Z M 279.79,184.75 C 279.77261,186.5406 276.74859,185.66552 277.78213,184.16277 278.34631,183.33902 279.79766,183.71636 279.79,184.75 Z M 279.67001,181.57001 C 279.65262,183.36061 276.6286,182.48553 277.66214,180.98278 278.22632,180.15903 279.67767,180.53637 279.67001,181.57001 Z M 278.98,178.37 C 278.96261,180.1606 275.93859,179.28552 276.97213,177.78277 277.53631,176.95902 278.98766,177.33636 278.98,178.37 Z M 277.29,175.48 C 277.27261,177.2706 274.24859,176.39552 275.28213,174.89277 275.84631,174.06902 277.29766,174.44636 277.29,175.48 Z M 274.74001,173.47 C 274.72262,175.2606 271.6986,174.38552 272.73214,172.88277 273.29632,172.05902 274.74767,172.43636 274.74001,173.47 Z M 271.74001,171.81 C 271.72262,173.6006 268.6986,172.72552 269.73214,171.22277 270.29632,170.39902 271.74767,170.77636 271.74001,171.81 Z M 268.44,170.82001 C 268.42261,172.61061 265.39859,171.73553 266.43213,170.23278 266.99631,169.40903 268.44766,169.78637 268.44,170.82001 Z M 264.99999,170.23 C 264.9826,172.0206 261.95858,171.14552 262.99212,169.64277 263.5563,168.81902 265.00765,169.19636 264.99999,170.23 Z M 261.64001,170.28 C 261.62262,172.0706 258.5986,171.19552 259.63214,169.69277 260.19632,168.86902 261.64767,169.24636 261.64001,170.28 Z M 258.14001,170.87 C 258.12262,172.6606 255.0986,171.78552 256.13214,170.28277 256.69632,169.45902 258.14767,169.83636 258.14001,170.87 Z M 254.9,171.99001 C 254.88261,173.78061 251.85859,172.90553 252.89213,171.40278 253.45631,170.57903 254.90766,170.95637 254.9,171.99001 Z M 247.33,171.99001 C 247.31261,173.78061 244.28859,172.90553 245.32213,171.40278 245.88631,170.57903 247.33766,170.95637 247.33,171.99001 Z M 244.09001,170.87 C 244.07262,172.6606 241.0486,171.78552 242.08214,170.28277 242.64632,169.45902 244.09767,169.83636 244.09001,170.87 Z M 240.6,170.28 C 240.58261,172.0706 237.55859,171.19552 238.59213,169.69277 239.15631,168.86902 240.60766,169.24636 240.6,170.28 Z M 237.23,170.23 C 237.21261,172.0206 234.18859,171.14552 235.22213,169.64277 235.78631,168.81902 237.23766,169.19636 237.23,170.23 Z M 233.8,170.82001 C 233.78261,172.61061 230.75859,171.73553 231.79213,170.23278 232.35631,169.40903 233.80766,169.78637 233.8,170.82001 Z M 230.49,171.81 C 230.47261,173.6006 227.44859,172.72552 228.48213,171.22277 229.04631,170.39902 230.49766,170.77636 230.49,171.81 Z M 227.49999,173.47 C 227.4826,175.2606 224.45858,174.38552 225.49212,172.88277 226.0563,172.05902 227.50765,172.43636 227.49999,173.47 Z M 224.94,175.48 C 224.92261,177.2706 221.89859,176.39552 222.93213,174.89277 223.49631,174.06902 224.94766,174.44636 224.94,175.48 Z M 223.26,178.37 C 223.24261,180.1606 220.21859,179.28552 221.25213,177.78277 221.81631,176.95902 223.26766,177.33636 223.26,178.37 Z M 222.57,181.57001 C 222.55261,183.36061 219.52859,182.48553 220.56213,180.98278 221.12631,180.15903 222.57766,180.53637 222.57,181.57001 Z M 222.45001,184.75 C 222.43262,186.5406 219.4086,185.66552 220.44214,184.16277 221.00632,183.33902 222.45767,183.71636 222.45001,184.75 Z M 223.44,187.64999 C 223.42261,189.44059 220.39859,188.56551 221.43213,187.06276 221.99631,186.23901 223.44766,186.61635 223.44,187.64999 Z M 225.31001,190.32001 C 225.29262,192.11061 222.2686,191.23553 223.30214,189.73278 223.86632,188.90903 225.31767,189.28637 225.31001,190.32001 Z M 221.57,175.48 C 221.55261,177.2706 218.52859,176.39552 219.56213,174.89277 220.12631,174.06902 221.57766,174.44636 221.57,175.48 Z M 218.20001,175.36 C 218.18262,177.1506 215.1586,176.27552 216.19214,174.77277 216.75632,173.94902 218.20767,174.32636 218.20001,175.36 Z M 214.76,175.53999 C 214.74261,177.33059 211.71859,176.45551 212.75213,174.95276 213.31631,174.12901 214.76766,174.50635 214.76,175.53999 Z M 211.13999,176.19 C 211.1226,177.9806 208.09858,177.10552 209.13212,175.60277 209.6963,174.77902 211.14765,175.15636 211.13999,176.19 Z M 207.9,177.36 C 207.88261,179.1506 204.85859,178.27552 205.89213,176.77277 206.45631,175.94902 207.90766,176.32636 207.9,177.36 Z M 204.77999,179.00999 C 204.7626,180.80059 201.73858,179.92551 202.77212,178.42276 203.3363,177.59901 204.78765,177.97635 204.77999,179.00999 Z M 202.16,181.02 C 202.14261,182.8106 199.11859,181.93552 200.15213,180.43277 200.71631,179.60902 202.16766,179.98636 202.16,181.02 Z M 199.91,183.45 C 199.89261,185.2406 196.86859,184.36552 197.90213,182.86277 198.46631,182.03902 199.91766,182.41636 199.91,183.45 Z M 198.22,186.39999 C 198.20261,188.19059 195.17859,187.31551 196.21213,185.81276 196.77631,184.98901 198.22766,185.36635 198.22,186.39999 Z M 197.41,189.64 C 197.39261,191.4306 194.36859,190.55552 195.40213,189.05277 195.96631,188.22902 197.41766,188.60636 197.41,189.64 Z M 197.54,192.94 C 197.52261,194.7306 194.49859,193.85552 195.53213,192.35277 196.09631,191.52902 197.54766,191.90636 197.54,192.94 Z M 198.54,196.02 C 198.52261,197.8106 195.49859,196.93552 196.53213,195.43277 197.09631,194.60902 198.54766,194.98636 198.54,196.02 Z M 200.04,198.67 C 200.02261,200.4606 196.99859,199.58552 198.03213,198.08277 198.59631,197.25902 200.04766,197.63636 200.04,198.67 Z M 250.91999,175.17999 C 250.91857,176.54424 248.59178,175.99312 249.26772,174.78207 249.6709,174.04599 250.92487,174.31357 250.91999,175.17999 Z M 251.13999,178.17999 C 251.1226,179.97059 248.09858,179.09551 249.13212,177.59276 249.6963,176.76901 251.14765,177.14635 251.13999,178.17999 Z M 251.55999,181.60001 C 251.60506,183.56131 248.28342,183.40948 248.52758,181.45625 248.72241,179.67028 251.5419,179.78702 251.55999,181.60001 Z M 251.94999,185.39999 C 252.0051,187.7401 248.07486,187.73958 248.12999,185.39999 248.17842,183.03138 251.89236,183.02031 251.94999,185.39999 Z"
     style="fill:#ffffff;stroke:#000000;stroke-width:0.38999999" />
  <path
     inkscape:connector-curvature="0"
     id="path520"
     d="M 283.57,217.16 C 282.9194,216.10484 282.22045,215.16512 280.8791,215.75896 279.44943,215.82362 278.43005,215.99365 280.19659,216.87915 281.11212,217.84199 282.10414,218.14041 283.22667,217.30532 L 283.39852,217.23258 Z M 250.15,214.16 C 248.8022,214.03201 247.31622,214.45767 246.08,213.85875 244.90012,211.74915 247.99843,212.05884 249.27598,212.09 250.92797,212.23541 252.73181,211.76575 254.26875,212.3925 255.42339,214.50838 252.3326,214.1869 251.05402,214.16 250.75268,214.16 250.45134,214.16 250.15,214.16 Z M 216.72,217.16 C 217.3767,216.10819 218.07876,215.1653 219.4209,215.75896 220.85057,215.82362 221.86995,215.99365 220.10341,216.87915 219.18809,217.8415 218.19577,218.14062 217.07209,217.30825 216.95473,217.25883 216.83736,217.20942 216.72,217.16 Z M 295.05,205.01 C 292.67562,203.05343 290.28776,208.82265 293.90969,207.59766 294.8081,207.22165 295.81619,205.95293 295.05,205.01 Z M 275.15001,200.45 C 275.2216,202.80486 271.44926,203.26076 270.88909,201.00105 270.16633,198.75944 273.63984,197.37622 274.806,199.33698 275.02761,199.663 275.15085,200.05549 275.15001,200.45 Z M 252.31,198.5 C 252.38159,200.85486 248.60925,201.31076 248.04908,199.05105 247.32632,196.80944 250.79983,195.42622 251.96599,197.38698 252.1876,197.713 252.31084,198.10549 252.31,198.5 Z M 229.54,200.45 C 229.61159,202.80486 225.83925,203.26076 225.27908,201.00105 224.55632,198.75944 228.02983,197.37622 229.19599,199.33698 229.4176,199.663 229.54084,200.05549 229.54,200.45 Z M 205.29,205.01 C 207.68889,203.04412 210.04534,208.82676 206.43031,207.59766 205.5319,207.22165 204.52381,205.95293 205.29,205.01 Z"
     style="fill:#ad1519;stroke:#000000;stroke-width:0.38999999" />
  <g
     style="stroke:#000000;stroke-width:0.51999998"
     id="shield">
    <g
       id="Granada">
      <path
         style="fill:#cccccc"
         inkscape:connector-curvature="0"
         id="path525"
         d="M 250.49,344.33 C 237.41,344.33 224.44,341.13 213.54,335.79 205.51,331.81 200.18,323.79 200.18,314.6 V 281.3 H 300.6 V 314.6 C 300.6,323.79 295.28,331.81 287.24,335.79 276.34,341.13 263.58,344.33 250.49,344.33 Z" />
      <path
         style="fill:#ffd691"
         d="M 252.91,329.55 C 254.3223,329.93919 255.58733,331.02901 255.92905,332.48874 256.28302,333.7784 255.92595,335.23884 254.95208,336.1709 253.45083,337.64789 251.14712,338.01028 249.14951,337.5582 247.55296,337.19694 245.96857,336.15891 245.47896,334.52626 245.13348,333.22352 245.46199,331.75231 246.30346,330.70252 246.81922,330.06836 247.60252,329.66303 248.42,329.62 248.28876,329.12538 247.87027,328.81827 247.54,328.46 248.15691,328.33733 248.84076,328.3675 249.3475,328.7825 249.72281,329.17813 249.82515,328.21643 250.19621,328.07248 250.5485,327.61175 250.99248,327.645 251.27801,328.14439 251.55824,328.40585 251.52753,329.1808 251.95502,328.65744 252.30643,328.42604 252.98819,328.12429 253.24828,328.21547 253.12067,328.65787 252.93426,329.08372 252.91,329.55 Z"
         id="path527"
         inkscape:connector-curvature="0" />
      <path
         style="fill:#ad1519"
         inkscape:connector-curvature="0"
         id="path533"
         d="M 250.69,337.28 C 249.69,336.35 249.07,335.03 249.07,333.56 249.07,332.1 249.69,330.78 250.7,329.85 251.69,330.78 252.31,332.1 252.31,333.56 252.31,335.03 251.69,336.35 250.69,337.28" />
      <path
         id="path535"
         style="fill:#058e6e"
         d="M 249.68,342.71 C 249.68,342.71 250.29,341.19 250.35,339.88 250.41,338.79 250.2,337.71 250.2,337.71 H 250.72 251 C 251,337.71 251.39,338.87 251.39,339.88 251.39,340.9 251.21,342.25 251.21,342.25 251.21,342.25 250.66,342.33 250.48,342.42 250.29,342.51 249.68,342.71 249.68,342.71 M 251.46,340.56 C 251.46,340.56 254,337.9 256.67,337.54 259.82,337.1 261.89,337.8 263.11,338.12 263.14,338.12 262.1,338.61 261.55,338.99 261,339.36 259.58,340.56 257.41,340.58 255.23,340.61 252.83,340.35 252.44,340.41 252.04,340.47 251.46,340.56 251.46,340.56 M 250.32,340.32 C 250.32,340.32 246.34,337.64 244.62,337.28 242.41,336.81 239.93,337.19 238.86,337.13 238.89,337.16 240.15,338.06 240.7,338.61 241.25,339.16 243.09,340.26 244.13,340.52 247.35,341.33 250.32,340.32 250.32,340.32"
         inkscape:connector-curvature="0" />
    </g>
    <g
       style="fill:#c8b100"
       id="Aragon">
      <path
         style="fill:#ad1519"
         inkscape:connector-curvature="0"
         id="path538"
         d="M 250.32,314.57 C 250.32,327.73 239.16,338.39 225.27,338.39 211.38,338.39 200.12,327.73 200.12,314.57 V 281.22 H 250.32 V 314.57" />
      <path
         id="path548"
         d="M 244.81,329.24 C 247.26,327.06 249.56,322.12 250.4,316.48 L 250.54,280.04 H 244.67 Z M 233.32,337 C 235.62,336.54 238.22,335.11 239.35,334.37 V 280.04 H 233.47 Z M 222.28,338.25 C 224.58,338.48 226.29,338.44 228.15,338.25 V 280.04 H 222.28 Z M 211.08,334.23 C 212.65,335.06 214.8,336.45 217.11,337 L 216.96,280.04 H 211.08 Z M 200.03,314.12 C 200.18,321.14 202.98,326.37 205.76,329.79 V 280.32 H 200.1 Z"
         inkscape:connector-curvature="0" />
    </g>
    <g
       id="Navarre">
      <path
         style="fill:#ad1519"
         inkscape:connector-curvature="0"
         id="path551"
         d="M 300.65,281.22 V 314.57 C 300.65,327.73 289.37,338.39 275.48,338.39 261.58,338.39 250.32,327.73 250.32,314.57 V 281.22 H 300.65" />
      <path
         style="fill:#c8b100;stroke:none;stroke-width:0.25999999"
         d="M 258.50977,285.85938 C 256.99977,285.85938 255.7793,287.00945 255.7793,288.43945 255.7793,289.56945 256.53914,290.54062 257.61914,290.89062 V 294.93945 L 255.85938,295.43945 V 299.90039 L 257.61914,300.38086 257.60938,304.42969 C 256.50937,304.75969 255.68945,305.76016 255.68945,306.91016 255.68945,308.07016 256.49961,309.05086 257.59961,309.38086 V 312.00977 L 255.84961,312.58984 256.09961,317.03906 257.85352,317.42773 C 258.08812,318.67108 258.46991,319.86778 258.9707,321 L 258.83008,321.16016 C 257.84008,322.24016 257.98086,323.87078 259.13086,324.80078 259.87086,325.41078 260.86047,325.56078 261.73047,325.30078 262.48048,326.14712 263.3266,326.92392 264.24023,327.62109 L 263.85938,329.39062 C 265.11937,330.24063 266.51047,330.96 267.98047,331.5 L 269.28125,330.2793 C 269.80061,330.46147 271.83073,330.9433 272.66016,331.06055 272.91939,332.17428 273.93385,333.01172 275.17383,333.01172 276.41381,333.01172 277.5103,332.17428 277.76953,331.06055 278.84169,330.91749 280.69297,330.43143 281.15039,330.2793 L 282.44922,331.5 C 283.91922,330.96 285.31031,330.24063 286.57031,329.39062 L 286.18945,327.62305 C 287.10357,326.92563 287.94887,326.14751 288.69922,325.30078 289.56922,325.56078 290.56078,325.41078 291.30078,324.80078 292.45078,323.87078 292.58961,322.24016 291.59961,321.16016 L 291.46094,321 C 291.96173,319.86778 292.34156,318.67108 292.57617,317.42773 L 294.33008,317.03906 294.58008,312.58984 292.83008,312.00977 V 309.38086 C 293.93008,309.05086 294.74023,308.07016 294.74023,306.91016 294.74023,305.76016 293.92031,304.75969 292.82031,304.42969 L 292.81055,300.38086 294.57031,299.90039 V 295.43945 L 292.81055,294.93945 V 290.89062 C 293.89055,290.54062 294.65039,289.56945 294.65039,288.43945 294.65039,287.00945 293.42992,285.85934 291.91992,285.85938 290.69992,285.85938 289.67055,286.60064 289.31055,287.64062 H 286.2207 L 285.71094,285.9707 H 281 L 280.49023,287.64062 H 277.81055 C 277.45363,286.60953 276.44833,285.87191 275.25195,285.85938 H 275.17969 C 273.98331,285.87191 272.97606,286.60953 272.61914,287.64062 H 269.93945 L 269.42969,285.9707 H 264.7207 L 264.21094,287.64062 H 261.11914 C 260.75914,286.60064 259.72977,285.85938 258.50977,285.85938 Z M 265.73047,287.64062 H 268.49023 V 289.25 H 265.73047 Z M 281.93945,287.64062 H 284.69922 V 289.25 H 281.93945 Z M 261.11914,289.25 H 264.21094 L 264.7207,290.91992 H 269.42969 L 269.93945,289.25 H 272.61914 C 272.89914,290.05 273.56016,290.66992 274.41016,290.91992 L 274.41992,292.83984 272.66016,293.33984 V 297.80078 L 274.41992,298.2793 274.40039,304.48047 C 274.30039,304.52047 274.20914,304.55961 274.11914,304.59961 L 269.93945,299.96094 270.93945,298.50977 267.88086,295.10938 266.21094,295.82031 260.83008,289.85938 C 260.95008,289.66938 261.03914,289.47 261.11914,289.25 Z M 277.81055,289.25 H 280.49023 L 281,290.91992 H 285.71094 L 286.2207,289.25 H 289.31055 C 289.39055,289.47 289.47961,289.66938 289.59961,289.85938 L 284.2207,295.82031 282.55078,295.10938 279.49023,298.50977 280.49023,299.96094 276.31055,304.59961 C 276.22055,304.55961 276.1293,304.52047 276.0293,304.48047 L 276.00977,298.2793 277.76953,297.80078 V 293.33984 L 276.00977,292.83984 276.01953,290.91992 C 276.86953,290.66992 277.53055,290.05 277.81055,289.25 Z M 259.57031,290.88086 264.91016,296.86914 263.91016,298.33008 266.9707,301.7207 268.64062,301 272.90039,305.74023 C 272.83039,305.87023 272.76094,306.00063 272.71094,306.14062 H 269.98047 L 269.48047,304.4707 H 264.75977 L 264.25,306.14062 261.03906,306.13086 C 260.77906,305.34086 260.14078,304.72094 259.30078,304.46094 L 259.33008,300.38086 261.08008,299.90039 V 295.43945 L 259.33008,294.93945 259.30078,290.91992 C 259.37078,290.89992 259.50031,290.90086 259.57031,290.88086 Z M 290.85938,290.88086 C 290.92937,290.90086 291.06086,290.89992 291.13086,290.91992 L 291.09961,294.93945 289.34961,295.43945 V 299.90039 L 291.09961,300.38086 291.13086,304.46094 C 290.29086,304.72094 289.65062,305.34086 289.39062,306.13086 L 286.17969,306.14062 285.66992,304.4707 H 280.94922 L 280.44922,306.14062 H 277.7207 C 277.6707,306.00063 277.5993,305.87023 277.5293,305.74023 L 281.78906,301 283.46094,301.7207 286.51953,298.33008 285.51953,296.86914 Z M 274.40039,294.23047 H 276.0293 V 296.83984 H 274.40039 Z M 257.60938,296.33008 H 259.30078 V 298.93945 H 257.59961 Z M 291.12891,296.33008 H 292.82031 L 292.83008,298.93945 H 291.12891 Z M 267.16992,296.89062 268.93945,298.85938 267.65039,299.91016 265.88086,297.92969 Z M 283.25977,296.89062 284.55078,297.92969 282.7793,299.91016 281.49023,298.85938 Z M 258.42969,305.80078 C 259.06969,305.80078 259.58984,306.30016 259.58984,306.91016 259.58984,307.52016 259.06969,308.00977 258.42969,308.00977 257.77969,308.00977 257.25977,307.52016 257.25977,306.91016 257.25977,306.30016 257.77969,305.80078 258.42969,305.80078 Z M 292,305.80078 C 292.65,305.80078 293.16992,306.30016 293.16992,306.91016 293.16992,307.52016 292.65,308.00977 292,308.00977 291.36,308.00977 290.83984,307.52016 290.83984,306.91016 290.83984,306.30016 291.36,305.80078 292,305.80078 Z M 265.60938,306.14062 H 268.46094 V 307.74023 H 265.60938 Z M 281.96875,306.14062 H 284.82031 V 307.74023 H 281.96875 Z M 261.00977,307.74023 264.25,307.75 264.75977,309.41992 H 269.48047 L 269.98047,307.75 272.74023,307.74023 C 272.80023,307.91023 272.85922,308.05922 272.94922,308.19922 L 268.96094,312.63086 267.28906,311.91016 264.23047,315.31055 265.23047,316.75977 261.91016,320.43945 C 261.45016,320.26945 260.93922,320.2193 260.44922,320.2793 260.04583,319.34734 259.75209,318.36972 259.55859,317.35742 L 261.31055,316.7793 C 261.07242,314.04234 261.15278,315.03688 261.07031,312.32031 L 259.36523,311.91992 259.32031,309.35938 C 260.11031,309.09937 260.73977,308.50023 261.00977,307.74023 Z M 277.68945,307.74023 280.44922,307.75 280.94922,309.41992 H 285.66992 L 286.17969,307.75 289.41992,307.74023 C 289.68992,308.50023 290.31933,309.09937 291.10938,309.35938 L 291.06641,311.91992 289.35938,312.32031 C 289.30862,314.95047 289.32823,314.12463 289.11914,316.7793 L 290.87109,317.35742 C 290.67759,318.36972 290.38385,319.34734 289.98047,320.2793 289.49047,320.2193 288.97953,320.26945 288.51953,320.43945 L 285.19922,316.75977 286.19922,315.31055 283.14062,311.91016 281.4707,312.63086 277.48047,308.19922 C 277.57047,308.05922 277.62945,307.91023 277.68945,307.74023 Z M 274.24023,309.25977 C 274.31023,309.29977 274.36945,309.32961 274.43945,309.34961 V 316.99023 L 272.67969,317.4707 V 321.92969 L 274.43945,322.41992 274.42969,328.03906 C 273.70969,328.27906 273.15961,328.77945 272.84961,329.43945 271.91921,329.30841 271.06847,329.10107 270.18945,328.82422 269.53744,329.9673 270.39818,327.52172 270.51953,327.14062 268.99953,326.66062 267.58961,325.96078 266.34961,325.05078 L 265.08984,326.16016 C 266.19984,327.02266 267.43875,327.76148 268.76953,328.33008 L 267.93164,329.75781 C 267.09548,329.39645 266.29382,328.97194 265.53125,328.49805 L 266.35938,327.08008 C 265.14936,326.31008 264.05914,325.38008 263.11914,324.33008 263.77914,323.48008 263.80047,322.35047 263.23047,321.48047 L 266.5293,317.81055 268.19922,318.51953 271.25977,315.11914 270.25977,313.67969 Z M 276.18945,309.25977 280.16992,313.67969 279.16992,315.11914 282.23047,318.51953 283.90039,317.81055 287.19922,321.48047 C 286.62922,322.35047 286.65055,323.48008 287.31055,324.33008 286.37055,325.38008 285.28031,326.31008 284.07031,327.08008 L 284.89844,328.49805 C 284.13587,328.97194 283.33421,329.39645 282.49805,329.75781 L 281.66016,328.33008 C 282.99094,327.76148 284.22984,327.02266 285.33984,326.16016 L 284.08008,325.05078 C 282.84008,325.96078 281.43016,326.66062 279.91016,327.14062 L 280.29492,328.82422 C 279.46472,329.05206 278.49848,329.3071 277.58008,329.43945 277.27008,328.77945 276.72,328.27906 276,328.03906 L 275.99023,322.41992 277.75,321.92969 V 317.4707 L 275.99023,316.99023 V 309.34961 C 276.06023,309.32961 276.11945,309.29977 276.18945,309.25977 Z M 259.32617,313.35742 C 259.34832,314.26982 259.37639,315.16023 259.32422,316.00977 L 257.66602,316 C 257.58423,315.07887 257.59961,314.32962 257.59961,313.39062 Z M 292.83008,313.39062 C 292.85333,314.25726 292.81165,315.21848 292.76367,316 L 291.11719,316.00977 C 291.18622,315.13924 291.17499,314.27894 291.14648,313.41406 Z M 267.9707,313.73047 269.25977,314.76953 267.48047,316.75 266.18945,315.70898 Z M 282.45898,313.73047 284.24023,315.70898 282.94922,316.75 281.16992,314.76953 Z M 274.43945,318.42969 H 275.99023 V 321.03906 H 274.43945 Z"
         id="chains_half"
         inkscape:connector-curvature="0" />
      <path
         style="fill:#058e6e;stroke:none"
         inkscape:connector-curvature="0"
         id="path556"
         d="M 272.59,306.94 C 272.59,305.5 273.82,304.34 275.33,304.34 276.84,304.34 278.06,305.5 278.06,306.94 278.06,308.37 276.84,309.52 275.33,309.52 273.82,309.52 272.59,308.37 272.59,306.94" />
    </g>
    <g
       style="fill:#c8b100;stroke-width:0.46000001"
       id="Castile">
      <path
         style="fill:#ad1519;stroke-width:0.51999998"
         inkscape:connector-curvature="0"
         id="path559"
         d="M 200.12,281.25 H 250.3 V 225.53 H 200.12 Z" />
      <path
         inkscape:connector-curvature="0"
         id="path561"
         d="M 217.34,238.41 H 216.42 V 237.49 H 214.8 V 241.18 H 216.42 V 243.73 H 212.95 V 251.12 H 214.8 V 265.91 H 211.1 V 273.54 H 239.52 V 265.91 H 235.83 V 251.12 H 237.68 V 243.73 H 234.21 V 241.18 H 235.83 V 237.49 H 234.21 V 238.41 H 233.28 V 237.49 H 231.67 V 238.41 H 230.51 V 237.49 H 228.89 V 241.18 H 230.51 V 243.73 H 227.05 V 235.64 H 228.89 V 231.94 H 227.05 V 232.87 H 226.12 V 231.94 H 224.5 V 232.87 H 223.58 V 231.94 H 221.73 V 235.64 H 223.58 V 243.73 H 220.11 V 241.18 H 221.73 V 237.49 H 220.11 V 238.41 H 219.19 V 237.49 H 217.34 Z M 211.1,273.54 H 239.52 M 211.1,271.69 H 239.52 M 211.1,269.84 H 239.52 M 211.1,267.99 H 239.52 M 211.1,265.91 H 239.52 M 214.8,264.29 H 235.83 M 214.8,262.44 H 235.83 M 214.8,260.36 H 235.83 M 214.8,258.52 H 235.83 M 214.8,256.67 H 235.83 M 214.8,254.82 H 235.83 M 214.8,252.97 H 235.83 M 212.95,251.12 H 237.68 M 212.95,249.27 H 237.68 M 212.95,247.42 H 237.68 M 212.95,245.58 H 237.68 M 216.42,243.73 H 234.21 M 223.58,241.88 H 227.05 M 223.58,240.03 H 227.05 M 223.58,238.18 H 227.05 M 223.58,236.33 H 227.05 M 221.73,234.02 H 228.89 M 216.42,241.88 H 220.11 M 214.8,239.57 H 221.73 M 214.8,273.54 V 271.69 M 214.8,269.84 V 267.99 M 212.95,269.84 V 271.69 M 216.42,271.69 V 269.84 M 218.26,273.54 V 271.69 M 218.26,269.84 V 267.99 M 218.26,265.91 V 264.29 M 218.26,262.44 V 260.36 M 216.42,267.99 V 265.91 M 212.95,267.99 V 265.91 M 220.11,265.91 V 267.99 M 221.73,265.91 V 264.29 M 216.42,262.44 V 264.29 M 220.11,262.44 V 264.29 M 223.58,262.44 V 264.29 M 221.73,262.44 V 260.36 M 223.58,258.52 V 260.36 M 223.58,254.82 V 256.67 M 221.73,252.97 V 254.82 M 223.58,251.12 V 252.97 M 220.11,251.12 V 252.97 M 216.42,251.12 V 252.97 M 214.8,249.27 V 251.12 M 218.26,249.27 V 251.12 M 221.73,249.27 V 251.12 M 223.58,247.42 V 249.27 M 220.11,247.42 V 249.27 M 216.42,247.42 V 249.27 M 214.8,245.58 V 247.42 M 221.73,245.58 V 247.42 M 218.26,241.88 V 243.73 M 234.21,241.88 H 230.51 M 235.83,239.57 H 228.89 M 235.83,273.54 V 271.69 M 235.83,269.84 V 267.99 M 237.68,269.84 V 271.69 M 234.21,271.69 V 269.84 M 232.36,273.54 V 271.69 M 232.36,269.84 V 267.99 M 232.36,265.91 V 264.29 M 232.36,262.44 V 260.36 M 234.21,267.99 V 265.91 M 237.68,267.99 V 265.91 M 230.51,265.91 V 267.99 M 228.89,265.91 V 264.29 M 234.21,262.44 V 264.29 M 230.51,262.44 V 264.29 M 227.05,262.44 V 264.29 M 228.89,262.44 V 260.36 M 227.05,258.52 V 260.36 M 227.05,254.82 V 256.67 M 228.89,252.97 V 254.82 M 227.05,251.12 V 252.97 M 230.51,251.12 V 252.97 M 234.21,251.12 V 252.97 M 235.83,249.27 V 251.12 M 232.36,249.27 V 251.12 M 228.89,249.27 V 251.12 M 227.05,247.42 V 249.27 M 230.51,247.42 V 249.27 M 234.21,247.42 V 249.27 M 235.83,245.58 V 247.42 M 228.89,245.58 V 247.42 M 232.36,241.88 V 243.73 M 225.2,262.44 V 260.36 M 225.2,254.82 V 252.97 M 225.2,258.52 V 256.67 M 225.2,251.12 V 249.27 M 225.2,247.42 V 245.58 M 225.2,241.88 V 240.03 M 225.2,238.18 V 236.33 M 216.42,241.18 H 220.11 M 223.58,235.64 H 227.05 M 230.51,241.18 H 234.21" />
      <path
         inkscape:connector-curvature="0"
         id="path571"
         d="M 221.73,260.83 V 255.74 C 221.73,254.36 220.81,253.2 219.19,253.2 217.57,253.2 216.65,254.36 216.65,255.74 V 260.83 Z" />
      <path
         inkscape:connector-curvature="0"
         id="path573"
         d="M 228.89,260.83 V 255.74 C 228.89,254.36 229.82,253.2 231.44,253.2 233.05,253.2 233.98,254.36 233.98,255.74 V 260.83 Z" />
      <path
         id="path579"
         d="M 230.51,248.35 230.05,243.73 H 234.67 L 234.21,248.35 Z M 227.05,248.35 227.51,243.73 H 223.12 L 223.35,248.35 Z M 220.11,248.35 220.34,243.73 H 215.95 L 216.42,248.35 Z M 230.05,273.54 V 268.68 C 230.05,267.76 229.59,264.98 225.2,264.98 221.04,264.98 220.58,267.76 220.58,268.68 V 273.54 Z"
         inkscape:connector-curvature="0" />
      <path
         id="path569"
         d="M 228.43,268.91 230.74,268.68 C 230.74,267.76 230.51,266.37 229.82,265.91 L 227.74,267.53 C 227.97,267.76 228.43,268.45 228.43,268.91 Z M 226.12,266.6 227.28,264.52 C 226.82,264.29 225.89,264.06 225.2,264.06 224.74,264.06 223.81,264.29 223.35,264.52 L 224.5,266.6 Z M 222.19,268.91 219.88,268.68 C 219.88,267.76 220.11,266.37 220.81,265.91 L 222.89,267.53 C 222.66,267.76 222.19,268.45 222.19,268.91 Z"
         inkscape:connector-curvature="0" />
      <g
         style="fill:#0039f0;stroke:none"
         id="g587">
        <path
           id="path585"
           d="M 229.36,260.36 V 255.97 C 229.36,254.82 230.05,253.66 231.44,253.66 232.82,253.66 233.52,254.82 233.52,255.97 V 260.36 Z M 221.27,260.36 V 255.97 C 221.27,254.82 220.58,253.66 219.19,253.66 217.8,253.66 217.11,254.82 217.11,255.97 V 260.36 Z M 228.43,273.54 V 269.38 C 228.43,268.68 227.97,266.6 225.2,266.6 222.66,266.6 222.19,268.68 222.19,269.38 V 273.54 Z"
           inkscape:connector-curvature="0" />
      </g>
    </g>
    <g
       id="Leon">
      <path
         style="fill:#cccccc"
         inkscape:connector-curvature="0"
         id="path590"
         d="M 250.28,281.25 H 300.6 V 225.53 H 250.28 Z" />
      <path
         style="fill:#db4446;stroke-width:0.38999999"
         inkscape:connector-curvature="0"
         id="path592"
         d="M 275.93,239.26 275.98,238.64 276.07,238.3 C 276.07,238.3 274.46,238.43 273.61,238.19 272.76,237.95 272,237.6 271.21,236.94 270.42,236.26 270.11,235.84 269.54,235.76 268.18,235.54 267.14,236.16 267.14,236.16 267.14,236.16 268.16,236.53 268.92,237.47 269.68,238.41 270.51,238.88 270.87,239 271.46,239.18 273.53,239.05 274.09,239.07 274.66,239.1 275.93,239.26 275.93,239.26 Z" />
      <g
         style="fill:none;stroke-width:0.38999999"
         id="g602">
        <path
           style="fill:#ed72aa"
           d="M 283.46,237 C 283.58235,238.66901 283.28796,240.29532 283.94,241.88 283.20659,241.33168 282.21989,240.34211 282.7,241.93 282.90321,243.26015 284.98516,244.69941 284.32172,245.82063 283.76227,245.01419 281.3962,243.69961 282.93656,245.41719 283.25797,246.38493 282.83764,248.50684 282.08061,246.63445 281.43756,245.98079 280.31659,244.99893 281.13547,246.55023 281.33485,247.56507 281.62061,251.24482 280.36,249.02 279.19554,248.1227 279.44268,248.24634 279.88,249.4 280.29349,252.07506 281.78638,254.55285 283.73625,256.39 285.37891,257.81247 288.78487,257.47762 289.25205,255.05186 289.88721,251.34631 287.02809,247.96166 287.81011,244.246 288.37731,242.55854 287.91564,240.81683 288.19201,239.10162 288.54053,237.17334 290.00746,235.5388 289.79,233.5 290.40156,234.20352 290.73998,236.00083 290.69078,236.25641 290.86533,234.73657 293.86486,233.42726 294.07906,233.13172 294.28367,234.94235 292.54626,236.55815 291.83187,237.53594 292.89628,237.12682 294.59484,237.01635 292.95359,238.17437 291.66137,239.48056 291.70277,241.7457 289.83229,242.52496 288.27286,244.02849 288.93764,246.72523 289.59109,248.555 290.49495,250.90049 291.86985,253.3533 291.09213,255.93988 290.65726,258.15578 288.40444,259.08017 286.39957,259.30859 284.72192,260.1997 284.42687,262.81254 285.44201,264.30004 286.73417,265.04065 289.1962,266.32328 287.34604,268.03238 286.23195,269.65222 285.40956,271.88306 286.67625,273.60875 286.11637,274.01896 285.02603,273.69804 284.30125,274.06344 284.15798,273.45772 283.91286,271.80078 283.54297,273.36297 283.5413,274.82246 280.228,272.56257 282.34,272.01 283.74024,271.32903 281.88892,271.48402 281.40094,271.4325 281.2261,270.52324 281.04329,268.824 282.53641,269.69203 284.59705,270.00265 284.40761,267.30987 282.84,266.77 282.01046,264.11319 283.18064,269.84884 281.76,267.32 281.25372,266.61664 281.0037,265.26579 281.08469,266.92031 281.27777,267.85699 281.56625,268.65576 280.56844,267.50172 278.90605,266.35847 278.14861,263.89072 279.23,262.11 278.27337,262.20499 277.24241,261.89677 276.35041,262.23154 275.50348,263.92455 276.92791,265.75445 276.92,267.49 276.03145,269.34247 273.8892,267.68367 272.36828,267.96219 271.12448,267.14274 270.81715,268.47911 270.52719,269.16594 269.35101,269.1597 267.74113,268.71485 269.12625,267.3975 268.44781,266.89021 266.93737,268.62346 267.08,266.65 266.13316,264.96559 267.69343,265.77637 268.58,265.61 268.8796,264.77348 266.91622,264.30024 268.46125,263.73 269.02489,262.67012 269.97446,262.67808 269.92662,264.05318 270.66453,265.73245 274.37468,265.58564 273.395,263.30672 273.84351,261.08279 272.1227,265.22411 272.39984,263.23703 272.56794,262.43762 272.42631,260.05868 272,261.97 271.76297,264.37523 271.08472,261.16495 271.3775,260.29875 271.25283,258.08389 273.76427,257.34509 275.56418,257.75611 276.44532,257.77684 279.55876,257.64088 277.38494,256.9348 275.09936,255.86489 272.63797,254.343 272,251.72 270.66731,251.61906 269.44473,253.45531 269.0225,253.89859 269.12338,252.9853 269.1788,251.12844 268.6384,252.95219 268.13132,253.67704 265.98153,255.8721 266.65656,253.76781 267.27091,252.14226 265.3772,254.63433 264.39625,254.02 262.98469,254.09764 264.39932,257.28956 262.39,255.97 260.84996,256.5389 261.96367,254.94583 261.86859,254.57391 260.38977,255.47921 260.21666,254.46555 260.33125,253.195 260.99071,252.88474 262.6588,252.7297 260.95,252.18 259.25244,251.7086 261.99927,248.89257 262.46555,251.17477 264.40396,251.84045 265.98775,250.16156 267.50232,249.22482 268.47749,248.62006 266.11097,247.84973 265.84,247.06 265.032,246.42532 262.31138,246.37593 262.52,245.825 263.35593,245.16563 264.85255,244.96097 263.00937,245.00406 262.32549,244.74663 260.98436,244.25265 260.68844,244.44328 261.25744,243.67941 264.18375,244.10803 262.13297,243.49141 261.35196,242.4054 260.76011,241.15519 259.26438,241.95594 258.46839,240.89091 258.13322,239.28497 260.08,239.79 259.55412,238.92238 257.5368,238.37394 259.37,237.57 259.90316,235.29236 261.43644,239.61929 261.54141,237.20344 261.01014,235.34721 263.09279,236.65292 263.83,236.74 262.32147,238.19974 262.93432,240.67625 265.00625,241.18625 266.76932,241.78417 268.10703,243.92071 270.14,243.19 271.4049,243.66887 275.46929,242.73212 273.1225,241.17875 271.35247,239.22157 276.84289,241.09454 276.00828,238.42656 276.03862,236.44626 272.09375,237.54235 272.85,235 274.36278,234.34738 276.29726,234.9522 277.19984,233.31891 278.97329,232.60493 280.44796,234.44039 281.82157,235.32 282.40836,235.84178 282.95423,236.40957 283.46,237.01"
           id="path594"
           inkscape:connector-curvature="0" />
        <path
           style="fill:none"
           d="M 278.33,257.41 C 279.10693,257.95814 280.02271,258.55491 280.29765,259.52102 280.32691,260.49312 279.71322,261.36643 279.18,262.13 M 282.57,240.9 C 282.31589,240.54625 282.08187,240.17612 281.92,239.77 M 269,243.39 C 268.22503,243.38391 267.28953,244.71948 267.68,245.04609 268.50031,244.43285 269.45661,244.96071 270.3223,245.10557 270.8567,245.18059 272.19423,244.33034 271.36125,245.25375 270.71101,246.0092 271.44629,246.93368 271.16235,247.76594 271.124,248.29231 270.16967,249.33367 271.21375,248.73219 272.40311,248.5084 273.58862,247.95412 274.25422,246.89859 274.36896,246.96689 274.15623,248.17368 274.44766,248.64656 274.60891,249.08692 274.33832,250.31533 274.98406,249.53406 275.8016,249.0974 276.62871,248.52706 276.64,247.49 276.71044,248.53415 277.41216,249.36176 277.66,250.35719 277.84669,250.79232 278.04302,249.3581 278.44826,249.22461 279.12815,248.99089 278.99332,247.51914 279.01829,247.58883 279.12553,247.82256 279.23276,248.05628 279.34,248.29 M 267.93,248.9 C 268.36897,247.98122 269.29919,247.52622 270.11,247 270.42146,246.87119 270.71309,246.6985 271.01,246.54 M 272,251.71 C 272.95022,251.22505 273.97571,250.78069 274.57,249.84"
           id="path600"
           inkscape:connector-curvature="0" />
      </g>
      <path
         style="fill:#000000;stroke-width:0.05"
         d="M 277.06,234.85 C 277.04,234.70667 277.02,234.56333 277,234.42 277.45779,234.43475 277.96121,234.48757 278.30927,234.81809 278.59588,235.06559 278.85261,235.35661 279.03002,235.69268 278.93305,235.82812 278.65389,235.56454 278.50437,235.50825 278.31242,235.35507 278.09089,235.35591 277.86322,235.40539 277.61784,235.46615 277.26934,235.30451 277.37375,235.005 277.46596,234.8555 277.27974,234.89582 277.18935,234.86902 277.14623,234.86268 277.10312,234.85634 277.06,234.85 Z M 273.05,236.24 C 272.93708,235.96116 272.88252,235.66168 272.76006,235.38748 272.71105,235.26321 273.02533,235.36907 273.12571,235.35781 273.33343,235.36553 273.72214,235.48316 273.52687,235.75766 273.33126,235.89583 273.18056,236.03019 273.05,236.24 Z"
         id="path606"
         inkscape:connector-curvature="0" />
      <g
         style="fill:#000000;stroke-width:0.25999999"
         id="g616" />
      <g
         style="fill:#db4446;stroke-width:0.38999999"
         id="g642">
        <path
           id="path640"
           d="M 284.75,274.04 C 284.75,274.04 284.44,274.82 285.03,275.32 285.62,275.84 286.14,275.89 286.14,275.89 286.14,275.89 285.68,275.08 285.82,274.66 285.97,274.21 286.36,273.94 286.36,273.94 286.36,273.94 285.62,273.69 285.51,273.72 285.4,273.74 284.75,274.04 284.75,274.04 Z M 281.64,273.1 C 281.64,273.1 281.02,273.74 281.24,274.28 281.47,274.82 281.86,275.38 281.86,275.38 281.86,275.38 281.84,274.58 282.09,274.36 282.46,274.04 283.14,273.99 283.14,273.99 283.14,273.99 282.6,273.51 282.43,273.45 282.26,273.4 281.64,273.1 281.64,273.1 Z M 281.24,270.11 C 281.24,270.11 280.43,269.92 279.97,270.19 279.52,270.45 279.15,271.58 279.15,271.58 279.15,271.58 279.89,270.96 280.43,271.04 280.96,271.12 281.36,271.34 281.36,271.34 281.36,271.34 281.44,270.88 281.38,270.56 281.35,270.37 281.24,270.11 281.24,270.11 Z M 268.84,268.9 C 268.84,268.9 268.38,269.54 268.72,270.05 269.06,270.56 269.77,270.8 269.77,270.8 269.77,270.8 269.51,270.43 269.63,270 269.72,269.66 270.3,269.2 270.3,269.2 Z M 266.83,265.93 C 266.83,265.93 265.9,265.79 265.44,266.28 264.99,266.76 265.02,267.64 265.02,267.64 265.02,267.64 265.58,267.03 266.09,267.08 266.6,267.13 267.17,267.4 267.17,267.4 267.17,267.4 267.08,266.87 267.02,266.62 266.97,266.38 266.83,265.93 266.83,265.93 Z M 269,263.12 C 269,263.12 268.49,262.48 267.79,262.5 267.08,262.53 266.34,263.19 266.34,263.19 266.34,263.19 267.22,263.12 267.45,263.41 267.68,263.71 267.9,264.08 267.9,264.08 267.9,264.08 268.3,263.87 268.47,263.73 268.64,263.6 269,263.12 269,263.12 Z M 261.66,256.08 C 261.66,256.08 261.61,256.87 261.99,257.36 262.39,257.87 263.12,257.95 263.12,257.95 263.12,257.95 262.88,257.42 262.84,257.15 262.78,256.75 263.18,256.4 263.18,256.4 263.18,256.4 262.81,256.02 262.45,256.02 262.08,256.02 261.66,256.08 261.66,256.08 Z M 260.21,253.34 C 260.21,253.34 259.59,253.24 259.05,253.67 258.52,254.1 258.49,254.92 258.49,254.92 258.49,254.92 259,254.49 259.4,254.55 259.79,254.6 260.27,254.82 260.27,254.82 260.27,254.82 260.35,254.31 260.38,254.18 260.47,253.8 260.21,253.34 260.21,253.34 Z M 261.06,250.37 C 261.06,250.37 260.64,249.92 259.9,250.05 259.16,250.19 258.68,251.02 258.68,251.02 258.68,251.02 259.31,250.85 259.68,250.94 260.04,251.02 260.3,251.39 260.3,251.39 260.3,251.39 260.64,251.1 260.75,250.94 260.86,250.78 261.06,250.37 261.06,250.37 Z M 258.49,240.25 C 258.49,240.25 257.72,240.36 257.3,240.84 256.87,241.33 256.94,242.24 256.94,242.24 256.94,242.24 257.44,241.7 257.89,241.7 258.35,241.7 259.05,241.86 259.05,241.86 259.05,241.86 258.83,241.3 258.83,241.06 258.83,240.82 258.49,240.25 258.49,240.25 Z M 259.59,237.12 C 259.59,237.12 259.16,236.35 258.26,236.45 257.36,236.56 256.76,237.26 256.76,237.26 256.76,237.26 257.76,237.23 258.01,237.39 258.38,237.63 258.49,238.25 258.49,238.25 258.49,238.25 259.03,237.93 259.2,237.71 259.36,237.5 259.59,237.12 259.59,237.12 Z M 261.88,236.08 C 261.88,236.08 262.36,236.42 262.73,236.48 263.1,236.53 263.49,236.53 263.55,236.53 263.6,236.53 263.72,235.99 263.66,235.62 263.46,234.42 262.36,234.15 262.36,234.15 262.36,234.15 262.69,234.88 262.53,235.22 262.3,235.7 261.88,236.08 261.88,236.08 Z"
           inkscape:connector-curvature="0" />
      </g>
      <g
         style="fill:#c8b100;stroke-width:0.25999999"
         id="g700">
        <path
           style="stroke:#000000;stroke-width:0.25999999;stroke-linejoin:round;stroke-miterlimit:4;stroke-dasharray:none;stroke-opacity:1"
           d="M 278.16287,229.90628 C 278.5039,230.77472 278.59483,231.75162 278.30935,232.64874 278.23502,232.91072 278.05009,233.20152 278.4645,233.19998 279.87805,233.75052 281.12511,234.66478 282.23178,235.68998 282.69787,236.14055 283.15096,236.61758 283.48047,237.17969 284.16746,236.8421 284.89236,236.46942 285.6793,236.50196 286.17166,236.53729 286.5482,236.43626 287.03483,236.51135 286.24756,233.34888 277.41245,228.47142 278.16287,229.90628 Z"
           id="path644"
           inkscape:connector-curvature="0"
           sodipodi:nodetypes="cccccccc" />
        <g
           style="fill:#000000;stroke-width:0.05"
           id="g660" />
      </g>
    </g>
    <g
       style="stroke-width:0.61000001"
       id="inescutcheon">
      <ellipse
         style="fill:#ad1519"
         id="ellipse703"
         ry="18.299999"
         rx="16.26"
         cy="281.01001"
         cx="250.42999" />
      <ellipse
         style="fill:#005bbf"
         id="ellipse705"
         ry="13.42"
         rx="11.44"
         cy="280.97"
         cx="250.44" />
      <g
         style="fill:#c8b100;stroke-width:0.34"
         id="fdl" />
      <g
         id="use712"
         style="fill:#c8b100;stroke-width:0.34"
         transform="translate(10.63)" />
      <g
         id="use714"
         style="fill:#c8b100;stroke-width:0.34"
         transform="translate(5.3099999,9.1400003)">
        <path
           id="path5653"
           style="stroke-linejoin:round"
           d="M 245.03,271.74 C 245.03,271.74 243.68,273.22 243.68,274.6 243.68,275.99 244.25,277.14 244.25,277.14 244.04,276.59 243.49,276.2 242.84,276.2 242.01,276.2 241.34,276.83 241.34,277.62 241.34,277.84 241.48,278.2 241.58,278.39 L 242.07,279.38 C 242.23,279.01 242.61,278.81 243.05,278.81 243.64,278.81 244.13,279.26 244.13,279.82 244.13,279.91 244.12,279.99 244.09,280.07 L 242.87,280.08 V 281.11 H 243.96 L 243.15,282.72 244.22,282.3 245.03,283.21 245.87,282.3 246.94,282.72 246.14,281.11 H 247.22 V 280.08 L 246,280.07 C 245.98,279.99 245.98,279.91 245.98,279.82 245.98,279.26 246.45,278.81 247.04,278.81 247.48,278.81 247.86,279.01 248.02,279.38 L 248.51,278.39 C 248.61,278.2 248.75,277.84 248.75,277.62 248.75,276.83 248.08,276.2 247.26,276.2 246.6,276.2 246.05,276.59 245.85,277.14 245.85,277.14 246.42,275.99 246.42,274.6 246.42,273.22 245.03,271.74 245.03,271.74 Z M 250.35,262.6 C 250.35,262.6 249,264.08 249,265.46 249,266.85 249.57,268 249.57,268 249.36,267.45 248.81,267.06 248.16,267.06 247.33,267.06 246.66,267.69 246.66,268.48 246.66,268.7 246.8,269.06 246.9,269.25 L 247.39,270.24 C 247.55,269.87 247.93,269.67 248.37,269.67 248.96,269.67 249.45,270.12 249.45,270.68 249.45,270.77 249.44,270.85 249.41,270.93 L 248.19,270.94 V 271.97 H 249.28 L 248.47,273.58 249.54,273.16 250.35,274.07 251.19,273.16 252.26,273.58 251.46,271.97 H 252.54 V 270.94 L 251.32,270.93 C 251.3,270.85 251.3,270.77 251.3,270.68 251.3,270.12 251.77,269.67 252.36,269.67 252.8,269.67 253.18,269.87 253.34,270.24 L 253.83,269.25 C 253.93,269.06 254.07,268.7 254.07,268.48 254.07,267.69 253.4,267.06 252.58,267.06 251.92,267.06 251.37,267.45 251.17,268 251.17,268 251.74,266.85 251.74,265.46 251.74,264.08 250.35,262.6 250.35,262.6 Z M 239.72,262.6 C 239.72,262.6 238.37,264.08 238.37,265.46 238.37,266.85 238.94,268 238.94,268 238.73,267.45 238.18,267.06 237.53,267.06 236.7,267.06 236.03,267.69 236.03,268.48 236.03,268.7 236.17,269.06 236.27,269.25 L 236.76,270.24 C 236.92,269.87 237.3,269.67 237.74,269.67 238.33,269.67 238.82,270.12 238.82,270.68 238.82,270.77 238.81,270.85 238.78,270.93 L 237.56,270.94 V 271.97 H 238.65 L 237.84,273.58 238.91,273.16 239.72,274.07 240.56,273.16 241.63,273.58 240.83,271.97 H 241.91 V 270.94 L 240.69,270.93 C 240.67,270.85 240.67,270.77 240.67,270.68 240.67,270.12 241.14,269.67 241.73,269.67 242.17,269.67 242.55,269.87 242.71,270.24 L 243.2,269.25 C 243.3,269.06 243.44,268.7 243.44,268.48 243.44,267.69 242.77,267.06 241.95,267.06 241.29,267.06 240.74,267.45 240.54,268 240.54,268 241.11,266.85 241.11,265.46 241.11,264.08 239.72,262.6 239.72,262.6 Z"
           inkscape:connector-curvature="0" />
        <path
           id="path5655"
           d="M 242.87,281.11 H 247.23 V 280.08 H 242.87 Z M 248.19,271.97 H 252.55 V 270.94 H 248.19 Z M 237.56,271.97 H 241.92 V 270.94 H 237.56 Z"
           inkscape:connector-curvature="0" />
      </g>
    </g>
  </g>
</svg>
