<?xml version="1.0" encoding="UTF-8" standalone="no"?>
<!-- Created with Inkscape (http://www.inkscape.org/) -->

<svg
   xmlns:dc="http://purl.org/dc/elements/1.1/"
   xmlns:cc="http://creativecommons.org/ns#"
   xmlns:rdf="http://www.w3.org/1999/02/22-rdf-syntax-ns#"
   xmlns:svg="http://www.w3.org/2000/svg"
   xmlns="http://www.w3.org/2000/svg"
   xmlns:sodipodi="http://sodipodi.sourceforge.net/DTD/sodipodi-0.dtd"
   xmlns:inkscape="http://www.inkscape.org/namespaces/inkscape"
   version="1.0"
   width="750"
   height="500"
   id="svg1"
   sodipodi:docname="ic_flag_us_nv.svg"
   inkscape:version="0.92.1 r15371">
  <sodipodi:namedview
     pagecolor="#ffffff"
     bordercolor="#666666"
     borderopacity="1"
     objecttolerance="10"
     gridtolerance="10"
     guidetolerance="10"
     inkscape:pageopacity="0"
     inkscape:pageshadow="2"
     inkscape:window-width="1839"
     inkscape:window-height="1099"
     id="namedview106"
     showgrid="false"
     inkscape:zoom="1.6906667"
     inkscape:cx="202.10556"
     inkscape:cy="319.20451"
     inkscape:window-x="0"
     inkscape:window-y="0"
     inkscape:window-maximized="0"
     inkscape:current-layer="svg1" />
  <metadata
     id="metadata2479">
    <rdf:RDF>
      <cc:Work
         rdf:about="">
        <dc:title />
        <dc:description />
        <dc:subject>
          <rdf:Bag />
        </dc:subject>
        <dc:publisher>
          <cc:Agent
             rdf:about="http://www.openclipart.org">
            <dc:title />
          </cc:Agent>
        </dc:publisher>
        <dc:creator>
          <cc:Agent>
            <dc:title />
          </cc:Agent>
        </dc:creator>
        <dc:rights>
          <cc:Agent>
            <dc:title />
          </cc:Agent>
        </dc:rights>
        <dc:date />
        <dc:format>image/svg+xml</dc:format>
        <dc:type
           rdf:resource="http://purl.org/dc/dcmitype/StillImage" />
        <cc:license
           rdf:resource="http://creativecommons.org/licenses/publicdomain/" />
        <dc:language />
      </cc:Work>
      <cc:License
         rdf:about="http://creativecommons.org/licenses/publicdomain/">
        <cc:permits
           rdf:resource="http://creativecommons.org/ns#Reproduction" />
        <cc:permits
           rdf:resource="http://creativecommons.org/ns#Distribution" />
        <cc:permits
           rdf:resource="http://creativecommons.org/ns#DerivativeWorks" />
      </cc:License>
    </rdf:RDF>
  </metadata>
  <defs
     id="defs3" />
  <rect
     width="750"
     height="500"
     x="0"
     y="0"
     id="rect1707"
     style="fill:#0033a0;fill-opacity:1;fill-rule:evenodd;stroke:none" />
  <path
     d="M 248.906,189.91217 C 248.98626,189.78233 248.73132,189.55361 248.57373,189.61408 C 248.50133,189.64187 248.44209,189.74088 248.44209,189.83411 C 248.44209,189.9582 248.49667,190.00363 248.64579,190.00363 C 248.75781,190.00363 248.87492,189.96248 248.906,189.91217 z"
     id="path3194"
     style="fill:#121212" />
  <path
     d="M 65.00364,163.89707 C 65.02755,163.82525 64.98743,163.79518 64.8923,163.81362 C 64.81049,163.82948 64.72674,163.89298 64.70618,163.95473 C 64.68226,164.02654 64.72239,164.05662 64.81752,164.03818 C 64.89933,164.02233 64.98308,163.95882 65.00364,163.89707 z"
     id="path3156"
     style="fill:#121212" />
  <path
     style="fill:#00843d;fill-opacity:1;stroke:#000000;stroke-opacity:1;stroke-width:0.5;stroke-miterlimit:4;stroke-dasharray:none"
     d="M 230.7083,154.08907 C 234.6723,151.88554 242.53081,147.83759 242.10753,143.75007 239.64004,143.8681 232.62747,150.60557 233.33285,148.4276 235.49802,145.85569 242.80123,141.11306 241.4011,139.32526 236.88715,140.87271 230.77224,151.49489 231.16042,143.44538 232.4611,141.15797 232.14894,136.04428 230.28367,140.73015 229.88514,144.25093 229.6516,147.38462 227.57345,148.20558 228.9928,153.35746 221.62541,143.33212 224.35403,148.04748 226.06911,151.50798 227.47678,151.59086 230.41276,152.15861 231.39602,152.42722 229.28482,155.60846 230.7083,154.08907 Z M 249.29504,175.52066 C 252.09073,175.5415 258.83071,173.17263 258.01318,170.89212 254.56246,169.40698 247.02654,175.84014 251.10844,169.27334 252.05244,166.60953 252.37015,163.16729 254.29591,167.46449 259.24629,170.48873 248.95697,161.26307 254.94658,159.89746 257.34655,158.69755 266.49449,150.06202 259.14972,153.08412 256.22877,155.08141 252.26765,159.60207 254.14124,152.89645 256.02207,149.39743 252.59631,145.48579 253.02495,151.42345 253.11749,154.45125 251.89341,158.10282 250.92178,152.99999 249.96951,150.00072 246.22603,145.97509 247.60159,151.92267 251.41893,157.88126 252.99028,164.92797 248.77439,171.35501 247.97359,170.70232 243.02463,158.19275 244.07421,166.42936 245.03515,168.80389 244.61865,169.99018 242.43378,168.44095 242.99428,171.58146 246.92107,175.43407 249.29504,175.52066 Z M 248.56593,186.75102 C 253.76704,186.9229 258.15926,181.83127 261.31161,177.35405 256.37491,177.09609 251.93818,183.45445 247.9132,186.70222 247.84639,187.07098 248.52119,187.47848 248.56593,186.75102 Z M 229.69286,247.89301 C 221.70097,244.4047 219.49675,233.47666 210.36755,231.62853 204.99054,230.1067 198.84689,229.38315 193.76944,232.24235 201.07834,233.6688 209.37647,233.7242 215.60859,238.25719 209.25727,238.49501 223.71877,245.98031 216.43004,244.5511 213.87939,244.71206 206.9803,240.65848 211.923,245.40764 214.45927,250.87013 205.05128,243.72504 203.98867,241.81606 200.56446,238.20276 193.23135,234.66856 189.68472,236.30948 193.58627,237.90228 199.2921,242.47606 198.82394,246.29758 191.72107,247.08181 190.12352,237.54179 183.42294,237.50144 176.68092,237.47435 170.79462,241.5222 164.36803,243.10543 156.66086,245.57136 149.05457,248.79908 143.18638,254.55325 138.52562,258.01614 132.89713,265.26035 130.19341,267.78497 131.92135,261.96544 133.52333,255.14608 138.51996,251.58868 146.56901,244.74337 157.13381,242.88797 166.7269,239.25813 173.0216,236.37937 171.17242,227.90352 176.18497,223.83358 182.0828,220.67122 172.24145,239.29386 178.55478,230.191 182.57188,225.85031 181.03289,216.87357 185.78695,214.20403 184.94865,221.80453 191.88081,208.6528 190.90455,216.59265 189.55004,220.82584 190.99191,217.90933 193.29042,217.64941 192.37427,225.50601 183.39012,227.58638 179.50052,233.37874 187.33332,232.866 193.59126,225.74988 195.07436,218.33596 195.93101,213.39835 187.46282,207.46478 191.30557,204.12221 193.02903,208.49493 195.61129,206.28125 194.24062,202.43436 198.04513,204.25521 199.00106,204.97241 199.79995,210.45272 200.71322,218.13086 195.35416,224.46771 190.56826,229.77015 197.70135,229.04049 201.75362,221.39222 202.93829,214.98058 204.16361,209.68209 198.50107,205.1203 200.24941,200.05058 203.2587,204.28612 202.09581,193.05228 205.22347,198.21064 207.01084,202.46863 209.28671,188.93809 209.67847,196.89281 211.08556,201.63937 206.26266,208.15337 207.41852,211.27599 212.46607,206.44021 211.65642,199.54008 210.48036,193.34048 210.57206,184.40322 214.9105,197.03172 214.70759,198.29212 217.18987,194.48812 210.45834,186.04286 213.20066,185.37238 216.06579,186.99605 217.8133,193.82477 218.12508,187.01047 217.95327,184.20421 219.29564,179.29683 219.25167,185.07541 218.91801,187.86528 216.57917,198.13768 220.79951,190.79657 224.23351,185.57817 227.73265,179.45385 222.38869,174.19358 220.49359,171.40217 216.40771,161.0105 221.28993,168.41814 221.96189,170.69975 224.59686,174.22341 226.10458,174.12476 226.52077,167.69291 220.03325,161.3603 218.08148,157.61617 222.37056,157.20083 226.24882,170.42282 227.19902,162.80157 232.46186,160.72848 227.12212,174.41634 231.53388,167.8145 232.36864,163.63769 238.84507,155.42533 241.86665,158.60621 240.88079,165.57557 233.41277,167.72974 230.89597,173.87369 229.29255,176.37177 228.45076,180.21512 231.10452,175.68409 232.61275,170.65675 244.0432,166.85548 237.19544,174.37749 232.74246,179.53381 227.12866,183.77193 224.05806,190.00781 220.55488,194.23817 218.17876,199.16467 215.68962,204.26513 214.0045,208.48054 225.24453,201.21021 221.13485,206.2613 224.90421,204.57117 224.43866,208.543 222.3704,209.35471 227.06034,210.55293 217.94943,213.13214 216.23014,213.90974 208.17729,212.3458 205.71431,221.4236 201.36755,226.17316 209.6493,223.37718 217.10269,217.97254 223.74289,212.28665 229.89667,207.46112 223.04816,199.58898 226.05641,193.45231 230.12941,191.37266 228.04148,202.20407 228.14659,205.31997 229.40933,211.10954 230.50329,199.48542 232.8443,198.63195 239.83975,194.58793 237.03626,187.11703 237.07774,180.69856 238.75738,174.45904 241.01829,186.28571 239.8713,188.55824 241.2574,187.23714 244.43643,179.26076 246.01388,182.64109 244.77227,185.23373 242.14885,188.00186 245.30683,188.89179 246.44498,191.36458 240.86164,191.03577 246.31288,190.53151 248.56235,189.18416 254.31459,189.77813 248.90992,191.85857 242.27454,191.73462 237.32434,195.25903 233.67823,200.66938 230.9394,203.08699 232.04949,206.62285 234.63597,202.75794 237.8845,198.79211 245.69022,198.54802 249.037,199.10816 245.73464,202.0374 237.32622,202.81662 235.76189,205.2587 237.95728,204.08744 250.7985,201.88388 243.43214,205.92249 237.23107,207.37411 230.91035,208.90094 226.31212,213.68789 223.6327,215.40209 221.61994,218.69618 226.48998,216.16078 232.02465,214.08978 236.21553,208.43109 242.73646,209.42857 244.91555,210.83198 237.1256,212.37586 241.30218,213.96327 238.51114,216.17478 236.68951,215.67747 241.17503,217.27651 240.42778,221.01097 230.13741,218.38077 225.70914,219.10782 222.19044,219.40628 216.15587,221.48514 215.18377,223.81492 221.82559,225.22681 228.28527,223.25313 234.66224,221.91432 234.81248,223.28601 232.87134,225.22785 237.15853,224.85434 239.08527,225.9782 233.70988,228.2561 238.95695,228.26441 246.74706,229.80891 233.9055,232.4207 231.2748,231.22829 223.07037,230.28037 215.23566,224.04554 206.79773,227.18036 203.776,228.3624 214.45036,227.9682 216.28286,229.82868 221.74659,232.03063 227.9615,233.75756 231.83711,238.47386 224.31457,239.30977 240.91865,244.96149 231.42022,243.80496 225.32323,242.45428 234.68974,249.64435 229.69286,247.89301 Z"
     id="path3142"
     inkscape:connector-curvature="0" />
  <path
     style="fill:#00843d;fill-opacity:1;stroke:#000000;stroke-opacity:1;stroke-width:0.5;stroke-miterlimit:4;stroke-dasharray:none"
     d="M 89.28991,153.8044 C 87.66511,148.97499 94.407779,153.12085 94.68052,148.04834 98.419545,144.49157 92.547564,147.98944 91.999569,149.37558 92.338008,145.49846 88.831748,147.00964 89.59587,142.14578 90.035877,138.24869 85.640278,136.26807 88.157386,141.65149 89.575301,146.05701 86.748365,147.96673 84.214547,143.35543 82.87241,141.31698 73.933334,135.46204 79.161551,141.12399 80.395377,142.96077 87.938615,148.41211 85.886199,148.30396 83.681328,146.75886 73.96892,139.57767 78.43997,145.93033 80.703164,150.18076 86.378442,151.3073 89.28991,153.8044 Z M 71.4888,174.85769 C 73.059586,173.44758 78.271923,169.62387 76.27604,168.10568 72.609114,170.9134 78.258611,157.54352 73.46084,164.99296 71.996112,167.09099 71.025004,174.67168 69.421988,168.23229 64.873406,161.30934 71.032391,155.70062 71.98786,149.17968 70.74072,143.46886 66.771863,161.20266 66.532505,152.4515 67.385791,149.44433 64.44892,144.49841 64.983349,150.21397 65.618603,153.31262 66.397312,159.5073 62.576231,154.06278 60.517631,151.39672 53.995529,150.19773 58.975821,154.56213 62.645737,157.98618 69.729268,161.53697 63.800339,166.72821 63.026652,171.03559 68.078654,160.13895 67.572022,166.96167 68.80043,170.07271 71.27339,174.16201 66.3063,170.82823 63.559004,169.73583 57.930245,169.91663 63.018405,172.75826 65.35259,174.705 69.194463,174.66277 71.4888,174.85769 Z M 71.30864,186.3174 C 67.978844,182.98738 62.102123,176.05995 58.132981,177.01456 61.507589,182.01331 66.038288,185.998 71.30864,186.3174 Z M 89.08472,247.03341 C 97.330031,244.1727 99.1139,232.83393 108.20216,231.26483 113.82281,229.78631 120.34218,228.80478 125.57352,231.98345 118.41039,233.43485 110.54559,233.63405 104.02312,237.34701 104.14646,238.68804 107.49662,238.75677 103.62087,240.55044 100.87232,242.17166 99.411867,245.76813 104.15283,243.75542 107.12806,242.66968 111.29965,241.18491 107.02121,245.20764 106.07242,249.6058 113.99389,242.74698 115.53545,240.91384 118.59394,237.30254 127.28633,234.05906 129.61112,236.10948 126.09006,237.41086 119.07884,242.95579 121.12972,245.72168 127.68724,245.7455 129.36967,236.81281 136.03149,237.11643 142.89246,237.32351 148.88557,241.8254 155.52462,242.79219 163.09111,240.72612 149.76991,240.4593 149.08759,236.53907 146.5375,232.59506 146.25418,224.01701 141.2675,223.51903 139.92223,226.33281 146.09302,236.78151 141.11612,230.92259 136.7696,226.14528 138.14607,218.37165 133.66033,213.97094 134.19596,221.74629 127.66444,208.98168 128.48239,216.33192 129.6809,220.12501 128.52139,218.9441 126.14826,217.66535 126.99882,225.53725 136.22251,227.40316 139.85315,233.35224 133.87351,233.51546 128.15762,228.2956 125.58583,222.82197 119.90213,216.07129 129.52538,210.58597 128.64156,204.03876 126.68168,206.33157 123.46429,208.48946 124.76116,202.98429 124.24942,200.5753 121.63168,207.16218 121.44363,204.02301 116.8179,211.8187 120.80479,221.31243 126.68153,227.21011 132.0319,232.78301 119.96507,226.50416 119.65136,223.38734 115.18216,217.98142 115.22478,210.47726 118.64634,204.60715 119.17677,202.39879 120.1058,198.27442 116.86769,201.04269 117.43945,197.34967 114.59324,194.88694 112.97442,199.43333 111.73411,196.16009 109.24063,191.49844 109.57078,197.91739 108.57302,202.33181 113.24867,208.5096 111.93311,211.31525 107.26879,206.90418 106.80246,200.65581 108.36442,194.77893 108.96307,192.22568 108.20642,186.59798 106.37261,192.07247 105.26455,195.2748 104.12862,201.74509 104.04831,194.46739 103.86015,191.14026 110.07862,180.6934 103.81441,187.35755 100.60202,195.51228 101.58346,181.21468 100.22397,182.4983 99.251629,185.65859 102.66739,192.24958 100.55906,193.54422 97.586608,188.22078 90.525646,181.37719 96.100647,175.48122 97.216514,173.12993 101.97355,165.23601 99.818813,165.71785 97.298258,168.56513 96.255175,173.70625 92.97713,173.96045 93.942751,167.83086 96.933229,161.79736 101.87629,157.92893 97.727562,154.91361 93.024625,170.45161 92.3972,162.83825 87.360065,160.43851 92.39451,174.69578 87.761963,167.6145 86.991079,163.53748 80.785495,154.79473 77.82175,158.33483 78.173329,165.22275 85.999393,165.32285 87.49248,171.36563 89.767104,173.88376 91.497282,181.41126 87.743532,174.86193 86.913207,171.56752 76.416291,166.30888 81.53608,172.73366 86.037033,178.52696 92.365149,182.83544 95.448555,189.68736 99.563143,192.25316 102.12751,196.54099 102.28845,201.57559 107.01102,206.75721 99.86513,205.3528 97.237636,203.85728 100.73233,207.54094 91.778104,204.77592 96.80922,208.6232 96.680605,209.6345 93.670747,210.12511 97.724825,210.75072 102.3045,215.13139 110.76931,211.47959 112.97012,219.18989 114.72159,221.78235 121.15035,228.65225 114.18439,224.58921 106.83761,220.73895 99.345643,216.3947 93.844117,210.08994 90.052123,204.76818 96.803113,196.96959 92.14887,192.04615 88.53898,196.18186 92.938791,203.81521 90.307921,206.98903 89.708063,199.80661 81.912213,196.4329 81.186573,189.63232 81.366642,187.21695 83.926661,177.04049 80.441363,179.19943 77.966615,181.09296 81.076929,192.96907 77.56744,185.62257 77.074657,181.9185 70.99962,179.63608 74.89273,184.77853 78.48016,187.90151 71.006634,188.50698 75.66219,190.5192 73.351911,190.26983 64.119201,188.56396 71.07467,191.16114 77.610585,191.06492 82.427491,195.15391 85.94046,200.37253 88.443429,202.98238 87.097976,206.4055 84.659865,202.52804 81.789998,198.5803 73.880182,197.81134 70.798122,198.73358 74.067528,200.73998 84.027758,202.93567 83.53395,205.0587 81.365524,203.16061 68.622929,201.78897 76.403278,205.34807 82.729401,206.4388 88.78053,208.45031 93.301783,213.25233 96.091376,215.1486 97.858798,218.38023 92.901519,215.88425 87.17814,214.1447 83.30636,208.02181 76.7507,208.73114 74.672032,209.84067 81.360011,211.62927 78.127575,213.32324 80.190629,215.01677 83.2042,215.60633 78.599106,216.33036 77.477527,219.53103 87.181163,218.01622 90.281716,218.26676 95.012553,218.14358 102.41641,220.04392 104.1312,223.50013 97.353948,224.68106 90.813828,222.81463 84.34456,221.29327 88.341348,225.04669 78.139061,222.93484 82.867019,226.39713 81.219412,227.79442 74.020437,228.41559 80.113817,229.86493 87.55739,232.03512 94.681784,228.36205 101.69491,226.479 105.43838,225.14516 111.25724,225.304 113.74114,227.59866 104.78388,227.84294 96.015978,231.34358 88.671635,236.33004 85.719716,238.21416 92.569186,238.64743 87.476763,240.75615 81.902804,243.03353 87.084644,243.31824 89.88953,242.74322 90.660587,243.8507 86.585016,247.73302 89.08472,247.03341 Z M 188.65777,267.83221 C 187.06259,262.18091 185.26486,255.68638 180.49728,251.92754 175.50295,248.19864 169.6754,244.71728 163.55618,243.66189 156.12133,245.03587 168.58628,247.64085 170.14596,250.05118 177.35508,254.80607 183.28899,261.17244 188.5449,267.94473 Z"
     id="path3140"
     inkscape:connector-curvature="0" />
  <path
     id="path4630"
     style="fill:#ffa300;fill-opacity:1;stroke:#000000;stroke-opacity:1;stroke-width:0.5;stroke-miterlimit:4;stroke-dasharray:none"
     d="M 78.253906,193.09375 C 72.034762,194.9111 88.971166,202.48798 81.697504,196.11359 80.471388,195.19276 79.824542,193.55153 78.253906,193.09375 Z M 96.259766,191.7793 C 96.731091,197.05158 95.736277,199.68312 101.17505,201.17307 102.26854,197.68052 100.32585,192.22396 96.259766,191.7793 Z M 71.847656,191.75586 C 66.308767,195.39765 76.842165,196.44612 71.847656,191.75586 Z M 69.230469,191.24609 C 63.237006,193.88248 70.630537,197.43972 69.230469,191.24609 Z M 66.025391,189.03125 C 58.648562,190.0125 69.121803,192.56073 67.015481,189.49582 Z M 83.306641,187.9707 C 76.111171,191.87041 92.01659,203.42838 88.74901,192.0012 89.454315,187.62741 85.647773,189.15249 83.306641,187.9707 Z M 72.765625,185.97266 C 66.535526,190.7775 77.60702,190.16046 72.765625,185.97266 Z M 69.421875,185.77148 C 62.0984,188.58763 74.741481,190.7792 69.421875,185.77148 Z M 101.43359,173.53125 C 99.501424,174.98684 97.964923,178.90594 97.073447,178.24853 97.207552,182.58145 97.618897,183.54523 101.44253,181.21309 105.26511,185.65001 103.22318,180.19627 103.60886,178.58193 107.74968,177.63625 100.02822,176.76767 102.0332,173.69922 L 101.61716,173.58267 Z M 75.220703,172.60938 C 72.948017,176.01987 67.562798,174.28551 66.8438,176.8695 70.574819,177.74346 70.64798,178.95205 69.716561,181.31999 72.048298,178.78279 80.235192,184.11739 76.06276,178.8246 69.694612,177.6019 82.370466,174.08688 75.220703,172.60938 Z M 82.765625,165.75 C 77.368345,168.50234 91.461266,171.3179 82.765625,165.75 Z M 100.93164,159.98047 C 96.701051,160.67452 96.206897,168.32095 100.2374,162.40512 100.69511,161.88815 102.74567,159.91029 100.93164,159.98047 Z M 61.6875,157.88281 C 57.213305,161.52729 57.445497,165.62261 63.484413,165.26002 67.553646,162.18408 65.598546,159.71847 61.6875,157.88281 Z M 71.609375,155.76562 C 64.349298,155.21049 71.126879,168.28413 72.701172,160.4375 68.196816,159.05274 77.014562,156.32013 71.609375,155.76562 Z M 90.880859,153.38672 C 87.186955,154.46358 84.504596,154.99608 86.004263,158.63675 86.619442,165.58995 97.325316,161.41515 93.952282,155.92701 88.685073,156.54016 94.781558,153.91465 90.880859,153.38672 Z M 90.630859,151.10352 C 88.095888,152.84775 94.965731,157.03183 96.686494,156.85986 96.491478,151.71405 94.513069,152.65349 90.630859,151.10352 Z M 97.376953,139.38672 C 94.828927,143.36629 91.77007,144.30845 97.218765,147.65288 97.771679,154.05577 101.90899,146.09622 103.10797,145.69229 103.16831,140.3133 102.43105,140.47931 98.4295,140.94761 98.922868,139.48935 98.054911,139.54358 97.376953,139.38672 Z M 62.529297,139.13867 C 61.148293,141.46354 61.400216,144.41588 59.119408,145.23898 62.640341,147.38482 61.183726,152.24874 64.928871,147.57121 68.997288,147.19547 69.719452,147.54348 67.750225,143.04398 71.8329,136.20711 63.227887,144.17835 62.529297,139.13867 Z M 85.947266,129.25586 C 81.908377,129.71407 87.785265,136.52103 82.419922,134.21875 77.490319,137.60891 88.612032,136.01146 84.087891,139.20703 85.642253,144.02547 88.122121,133.00756 90.706217,139.41658 97.147536,140.97586 88.971258,134.04081 90.532903,135.13584 96.03807,131.7291 87.801857,131.87746 88.106106,131.76231 87.926312,130.65916 87.274654,129.28169 85.947266,129.25586 Z" />
  <path
     id="path3128"
     style="fill:#ffa300;fill-opacity:1;stroke:#000000;stroke-opacity:1;stroke-width:0.5;stroke-miterlimit:4;stroke-dasharray:none"
     d="M 241.0957,193.70898 C 238.30256,194.28365 232.45997,202.59982 238.75676,198.51788 238.98211,195.69772 246.15791,196.40284 241.0957,193.70898 Z M 247.30664,192.44922 C 242.85298,195.93293 252.45491,196.81989 247.30664,192.44922 Z M 222.55469,192.26953 C 216.24141,192.6386 216.46572,207.01756 222.79586,199.09394 220.16327,197.39446 225.07958,193.43291 222.55469,192.26953 Z M 249.97266,191.94141 C 247.58132,196.35903 256.1961,195.88352 249.97266,191.94141 Z M 252.25195,189.67969 C 250.837,194.3269 259.25245,189.53021 252.68129,189.68748 Z M 235.98242,188.51367 C 229.51163,187.78399 229.5216,194.70673 231.08159,198.16177 234.93498,198.19473 240.53693,191.22356 235.98242,188.51367 Z M 246.50977,186.5918 C 241.41539,190.96845 252.71476,191.10945 246.50977,186.5918 Z M 249.88086,186.33398 C 243.99806,191.80726 257.00928,189.14048 249.88086,186.33398 Z M 218.00195,173.86719 C 216.95547,176.16336 215.78621,178.21877 214.30059,178.5501 219.52558,178.91154 212.35562,183.73103 216.62316,182.9897 219.01478,178.62501 223.13941,186.69111 221.78386,180.37497 224.1757,176.90616 219.43293,177.38685 218.00195,173.86719 Z M 243.75195,173.0625 C 238.8636,174.98851 249.80823,179.42598 241.92861,180.34556 242.20005,183.43051 248.17546,180.93225 249.8874,181.49571 249.05193,177.49566 249.09711,179.66983 252.1806,177.59098 251.42266,173.07949 246.82351,178.18291 245.19397,173.34673 Z M 236.70312,166.23828 C 228.18502,169.31058 240.37369,171.8513 236.70312,166.23828 Z M 218.35156,160.375 C 217.55406,164.08935 225.36613,167.29769 220.7804,161.89546 220.16814,161.16368 219.39053,160.37739 218.35156,160.375 Z M 257.88086,158.58789 C 250.33033,159.27621 255.21817,169.49329 260.67391,164.59865 262.52802,164.33209 258.51539,159.16662 257.88086,158.58789 Z M 247.32617,156.38477 C 245.87645,158.21168 247.96287,161.75162 247.4266,163.24815 252.6557,166.7581 252.23009,155.22169 247.32617,156.38477 Z M 228.41211,153.9668 C 226.6745,156.6921 223.90021,158.32546 225.63465,161.28263 227.96248,162.37957 232.08549,164.52732 233.19444,159.99563 235.07976,153.76616 232.13047,155.91828 228.41211,153.9668 Z M 228.87109,151.62891 C 225.39484,151.16926 219.90763,157.04622 224.64995,157.67879 224.42592,155.0096 233.25761,153.13851 228.87109,151.62891 Z M 256.6582,139.93359 C 254.92352,143.85978 247.91883,138.49513 251.77828,144.69154 250.01309,147.94036 250.29091,149.10691 254.44757,147.86228 256.34336,150.82075 258.01838,151.6137 258.57609,147.21729 263.14635,145.40384 254.82756,143.72468 257.6925,140.23215 257.34773,140.13263 257.00297,140.03311 256.6582,139.93359 Z M 222,139.92188 C 220.6599,144.32737 214.32599,137.9107 217.00816,144.89952 214.64088,147.41704 221.0158,149.95723 221.46426,150.57734 222.39828,147.76432 224.82202,145.36988 226.10895,144.20957 223.63004,142.86072 223.00315,142.15457 222,139.92188 Z M 233.75977,129.95508 C 231.1854,130.23368 231.23685,136.32758 228.6333,131.8568 223.09337,132.83327 234.12981,138.00359 226.93382,137.63609 223.68977,143.80752 234.2614,134.88242 233.76491,141.26493 236.20018,140.49838 234.01895,136.67255 237.86518,137.61226 238.62852,133.43124 231.75602,136.05432 235.42868,132.04329 235.5239,131.05112 234.84123,129.9652 233.75977,129.95508 Z" />
  <path
     style="fill:#ffa300;fill-opacity:1;stroke:#000000;stroke-opacity:1;stroke-width:0.5;stroke-miterlimit:4;stroke-dasharray:none"
     d="M 130.85159,181.64554 C 132.19298,178.28252 133.74361,174.95451 134.99523,171.5863 131.99919,169.08295 131.9341,174.73645 130.6512,176.37142 130.15352,177.37453 129.20578,180.66163 129.11949,177.62723 128.66061,174.55116 128.46042,171.41713 127.79449,168.38394 124.58454,165.97798 124.52991,171.85933 123.13644,173.6204 122.96473,175.55937 119.01745,179.28279 122.62791,179.80799 124.11466,178.06704 124.64272,175.3417 125.76557,173.22879 126.19354,171.695 126.97891,170.87232 126.94301,173.01383 127.42343,175.9897 127.57852,179.02274 128.1369,181.9787 129.06719,182.83612 130.60391,183.54922 130.85159,181.64554 Z M 190.30664,169.14062 C 186.55286,169.37222 188.26729,173.2985 188.25047,175.75309 188.8797,177.95694 187.84069,182.23411 189.55721,183.26297 192.16626,182.66326 189.57993,178.95144 192.90942,178.86117 194.72286,177.41587 196.29333,177.91437 197.54102,179.65625 201.49378,178.69927 195.79992,175.62868 194.9082,173.86765 193.32834,172.34643 192.04506,170.46769 190.30664,169.14062 Z M 190.16797,171.89453 C 191.04817,173.30969 194.79469,175.3372 193.57422,176.62695 191.71103,177.85356 189.94335,178.01129 190.39591,175.22586 190.31707,174.11763 190.08101,173.0073 190.16797,171.89453 Z M 179.87109,172.99609 C 177.86805,173.85459 172.42592,173.06493 174.07617,176.55078 174.91562,179.83567 175.60386,183.16701 176.5595,186.41722 178.76712,186.46097 181.81321,185.8088 183.80078,184.44531 186.23564,181.85081 185.73084,177.46891 183.73417,174.76911 182.80534,173.60962 181.39099,172.83527 179.87109,172.99609 Z M 179.55469,174.92773 C 182.56272,175.05077 183.37975,178.83004 183.16838,181.28197 183.09509,183.61905 177.50148,186.1986 177.8523,182.38781 177.83555,180.20075 175.17857,176.58574 177.23668,175.40526 178.0022,175.2164 178.77122,175.02593 179.55469,174.92773 Z M 144.43196,186.56814 C 145.47484,183.76111 140.4314,184.74438 138.81775,183.72546 137.25581,183.29836 138.38702,178.49944 140.54829,180.17989 142.02478,180.34491 145.91251,182.22457 145.02004,179.40048 143.43056,178.39787 139.52334,179.18024 139.40356,177.1163 139.21871,172.93172 143.45502,175.88591 145.80898,175.97359 148.15808,175.81649 146.1155,173.35677 144.46499,173.82104 142.33713,173.98047 137.89855,170.68416 137.7113,174.38162 137.01628,177.81051 135.95405,181.19204 135.43956,184.6387 138.08152,185.58177 140.99149,186.01167 143.76251,186.61356 L 144.13328,186.64875 Z M 155.66792,187.8131 C 157.4213,183.86136 159.04265,179.81405 160.53096,175.7531 157.64564,174.14723 157.64487,178.79013 156.66717,180.49788 155.97207,181.62233 155.54113,185.28377 154.6958,184.9274 153.81007,181.70597 153.28298,178.3511 152.27124,175.18769 148.57112,173.83673 151.5267,178.72917 151.63854,180.44875 152.4934,182.84581 152.75374,185.66329 153.95195,187.8035 154.5166,187.84827 155.11254,187.98725 155.66792,187.8131 Z M 167.54297,175.01953 C 163.85411,174.02622 164.25319,178.4266 163.30398,180.73651 162.79764,183.1195 161.64323,185.59807 161.55211,187.9311 164.75406,189.2387 163.18991,183.95893 166.42969,185.12305 168.50556,184.57002 170.16207,185.02981 170.62109,187.32812 174.77172,188.10967 170.73929,183.47689 170.46165,181.62604 169.43651,179.45291 168.79463,177.06302 167.54297,175.01953 Z M 166.41016,177.53906 C 166.97656,179.12792 169.12682,181.94177 168.1692,183.17299 166.729,183.18047 163.78034,184.13773 165.36373,181.53326 165.76414,180.21647 165.94395,178.83392 166.41016,177.53906 Z"
     id="path3092"
     inkscape:connector-curvature="0" />
  <path
     style="fill:#ffffff;fill-opacity:1;stroke:#000000;stroke-opacity:1"
     d="M 159.82031 87.875 L 150.76562 115.50781 L 120.45312 115.42773 L 145.02344 133.03711 L 135.71875 161.43359 L 159.99805 143.76953 L 183.96289 160.94531 L 174.74414 133.04102 L 198.66406 115.63672 L 168.9668 115.55664 L 159.82031 87.875 z "
     id="path4616" />
  <path
     id="path3032"
     style="fill:#ffa300;fill-opacity:1;stroke:#000000;stroke-width:0.5;stroke-miterlimit:4;stroke-dasharray:none;stroke-opacity:1"
     d="M 61.553777,69.565715 C 64.770946,64.76039 50.868342,59.044412 51.1276,61.46002 54.523402,61.67889 57.516004,68.303408 58.681549,70.145186 58.645939,70.145186 58.181402,69.116686 61.553777,69.565715 Z M 262.46695,69.35259 C 264.17655,66.223254 265.52764,62.148158 270.05074,61.574004 264.83466,58.065713 251.98806,70.833461 262.46695,69.35259 Z M 77.437,81.77065 C 80.281988,72.701032 68.344694,69.553125 61.553777,69.565715 57.971594,69.164966 58.681549,70.145186 58.681549,70.145186 61.633434,74.25794 66.328641,76.832915 68.151344,76.450105 71.628251,77.020716 75.117768,81.563985 77.437,81.77065 Z M 244.41314,80.804336 C 248.15949,76.55561 258.97212,76.718641 262.46695,69.35259 255.8174,69.723447 243.63639,70.627649 242.16809,79.165967 241.93158,79.477435 242.41705,82.150787 242.94515,83.067726 243.09249,82.348323 244.41314,80.804336 244.41314,80.804336 Z M 69.811016,103.89147 C 75.511788,100.18151 87.093875,90.911992 81.481,83.4605 80.199332,81.758994 77.39272,75.883864 77.059689,76.078132 77.292979,75.946907 78.36434,77.783212 77.437,81.77065 75.185728,88.592477 60.85622,95.257394 68.210141,102.43295 68.210141,102.43295 68.832758,103.24581 69.811016,103.89147 Z M 252.53094,103.89439 C 258.29251,97.342479 247.22019,90.739512 244.03761,85.437888 241.62322,80.528928 242.05978,80.874952 242.16809,79.165967 241.66676,80.46609 240.89028,81.791614 239.10914,82.78937 231.72993,89.510668 244.27937,101.02259 246.79051,103.07141 248.44253,104.37599 250.45489,104.51881 252.53094,103.89439 Z M 228.40861,115.35997 C 233.57211,111.47732 238.50352,106.53661 245.57163,105.87954 247.49051,105.62405 249.53685,104.71946 249.95818,104.26756 248.2971,104.21232 248.28845,104.25292 246.79051,103.07141 238.37241,96.431567 234.97706,85.38209 227.10888,78.091447 210.83483,60.712636 187.58624,50.128225 163.73397,49.723347 137.27697,48.268504 110.38244,58.798017 92.47362,78.43086 83.223574,89.577259 81.920442,96.095897 69.811016,103.89147 69.811016,103.89147 69.931592,104.41163 72.418106,104.70693 78.683267,106.01246 85.354926,107.97752 89.119745,113.57656 95.727427,117.86203 100.87129,109.42846 103.32677,104.36803 115.26097,84.557165 138.58023,73.20035 161.45743,74.106676 182.81195,74.051009 204.07139,84.893907 215.4809,103.13903 218.72904,107.8885 221.17203,116.20305 228.40861,115.35997 Z M 51.77338,140.5192 C 60.646754,137.94178 58.037297,124.11522 69.073772,125.35614 76.276927,123.2204 85.072794,120.24314 89.119745,113.57656 87.412135,110.54241 81.046796,106.26662 74.649385,105.27845 75.423701,107.43254 75.278721,108.51206 74.034304,112.56569 69.370294,119.15402 60.260306,120.8649 56.169816,127.65476 56.872072,132.27205 52.868502,139.03166 51.77338,140.5192 Z M 268.77985,141.46138 C 261.6344,136.56583 266.5419,124.78205 256.66415,122.35598 249.90913,119.26309 245.24669,111.54934 240.45295,107.74886 238.40287,107.39368 235.41058,109.97195 228.40861,115.35997 228.03042,118.02055 234.88181,118.28174 238.52842,120.78736 244.94582,125.19681 254.82033,123.97095 259.1579,129.7643 262.12128,133.72226 263.2235,140.83494 268.77985,141.46138 Z"
     inkscape:connector-curvature="0"
     sodipodi:nodetypes="ccccccccccccccccccscccccccccccccscccccccccccccccccccccssc" />
  <path
     id="path3046"
     style="fill:#121212"
     d="M 155.21699,68.2782 C 155.60305,64.23752 153.58334,57.701869 156.00086,55.182285 158.45888,55.62629 166.03441,53.503838 163.90372,57.299058 161.50941,57.101654 155.27967,56.870173 158.4603,60.319295 160.58189,60.33965 165.42698,59.419972 163.70197,62.5901 161.04244,62.771843 156.16086,61.574714 157.89324,65.9487 159.9695,66.575451 166.89075,64.543914 164.37482,68.23166 161.32607,68.213927 158.24782,68.41429 155.21699,68.2782 Z M 144.07175,69.90006 C 143.27512,65.635032 142.37279,61.328773 141.88125,57.03942 146.8528,55.180356 144.57315,63.924655 146.27307,66.804341 147.68003,67.950596 154.69392,64.440407 152.20358,68.513564 149.50227,68.882385 146.71065,69.72399 144.07175,69.90006 Z M 176.66992,56.613281 C 174.95131,60.419389 174.42753,65.096451 173.17188,69.234375 176.67281,70.492493 183.69405,73.106037 184.40268,67.388437 182.32905,64.238762 188.38651,60.093531 182.75351,58.275395 180.76743,57.583528 178.69387,57.177389 176.66992,56.613281 Z M 178.64648,59.535156 C 182.06345,58.508675 184.76551,63.87857 180.14705,62.96322 177.29605,62.854168 177.37807,61.551852 178.64648,59.535156 Z M 177.55469,64.683594 C 180.90704,63.786666 184.04901,69.052484 179.2207,68.539062 176.09646,68.58089 175.6969,66.694014 177.55469,64.683594 Z M 136.28188,72.11146 C 134.07805,69.146603 135.02375,59.899019 129.56366,63.155764 126.37922,59.65269 135.43577,59.55268 137.77938,57.92395 141.90847,60.552876 132.99763,60.090289 136.19967,63.50124 136.22992,66.094843 141.50069,72.524628 136.28188,72.11146 Z M 192.21875,61.875 C 186.24358,62.433321 183.4194,72.032638 189.20809,74.913781 194.33642,78.10785 200.17653,72.012179 198.91238,66.78565 198.51096,63.651247 195.1117,61.851354 192.21875,61.875 Z M 192.82812,64.371094 C 198.48419,64.32967 196.86685,73.569708 191.92168,73.238365 186.48438,72.88066 188.46926,64.434696 192.82812,64.371094 Z M 126.1619,76.40907 C 123.58067,73.689671 123.22117,64.699215 118.17724,68.616303 114.88281,65.496413 123.52576,64.356087 125.54562,62.403101 128.59701,62.66193 125.87347,65.436147 124.01043,65.86354 124.2131,69.359005 130.96758,74.490159 126.79281,76.530761 L 126.43451,76.68028 Z M 204.15039,67.310547 C 201.80012,70.631739 198.18292,74.675116 197.09572,78.27513 200.17331,81.346425 201.82862,71.686011 205.08801,77.848966 204.80653,80.050082 201.36457,83.484675 205.647,83.853095 207.3101,81.031297 206.97586,77.620092 210.24609,76.609375 214.16702,72.253793 207.40154,69.677569 204.58034,67.516753 Z M 205.08789,70.755859 C 207.88418,71.104001 210.61844,75.921168 206.27064,75.504497 203.77766,74.292974 202.1507,72.776361 205.08789,70.755859 Z M 112.16992,70.171875 C 107.06675,72.074746 112.22131,77.808385 112.32227,81.5625 112.20966,84.226015 114.26165,86.443445 115.50533,83.237825 113.6041,79.584131 119.51135,77.62699 121.53455,79.567027 125.84948,77.205861 117.00677,74.890126 115.62875,72.577632 114.45603,71.80405 113.38475,70.879766 112.16992,70.171875 Z M 113.17969,74.060547 C 115.44812,75.057096 118.57845,77.557858 114.30692,78.34838 113.86536,77.046834 112.95818,75.373416 113.17969,74.060547 Z M 213.98017,91.92964 C 211.41427,89.333186 216.22967,83.338038 214.68623,81.315701 212.72389,83.006209 208.48738,89.950022 207.58574,84.939816 210.80141,82.805064 213.59288,75.721842 217.2202,76.731606 219.62046,79.19947 214.70482,85.637819 216.67997,86.92113 218.68365,85.256824 222.60239,78.707773 223.58328,83.565965 220.50096,85.628174 217.34885,92.706346 213.98017,91.92964 Z M 104.01562,78.03125 C 101.36919,78.410028 96.237724,81.908526 97.064175,84.386368 99.995169,86.871282 102.66854,91.310004 105.79719,92.566648 108.99773,90.330554 114.49112,84.464517 108.61602,81.988597 105.86291,82.134474 107.17863,77.973974 104.01562,78.03125 Z M 103.23047,80.539062 C 107.77191,81.801851 99.874601,88.055646 100.2819,82.903571 101.1861,82.105032 101.91674,80.69151 103.23047,80.539062 Z M 107.05469,84.107422 C 112.67841,86.066149 102.47926,92.293449 104.21055,86.305726 105.12214,85.608234 105.81564,84.221836 107.05469,84.107422 Z" />
</svg>
