<?xml version="1.0" encoding="UTF-8" standalone="no"?>
<svg
   xmlns:dc="http://purl.org/dc/elements/1.1/"
   xmlns:cc="http://creativecommons.org/ns#"
   xmlns:rdf="http://www.w3.org/1999/02/22-rdf-syntax-ns#"
   xmlns:svg="http://www.w3.org/2000/svg"
   xmlns="http://www.w3.org/2000/svg"
   xmlns:sodipodi="http://sodipodi.sourceforge.net/DTD/sodipodi-0.dtd"
   xmlns:inkscape="http://www.inkscape.org/namespaces/inkscape"
   viewBox="0 0 640 320"
   version="1.1"
   id="svg177"
   sodipodi:docname="ic_flag_me_128.svg"
   inkscape:version="0.92.1 r15371">
  <metadata
     id="metadata183">
    <rdf:RDF>
      <cc:Work
         rdf:about="">
        <dc:format>image/svg+xml</dc:format>
        <dc:type
           rdf:resource="http://purl.org/dc/dcmitype/StillImage" />
        <dc:title />
      </cc:Work>
    </rdf:RDF>
  </metadata>
  <defs
     id="defs181" />
  <sodipodi:namedview
     pagecolor="#ffffff"
     bordercolor="#666666"
     borderopacity="1"
     objecttolerance="10"
     gridtolerance="10"
     guidetolerance="10"
     inkscape:pageopacity="0"
     inkscape:pageshadow="2"
     inkscape:window-width="1493"
     inkscape:window-height="863"
     id="namedview179"
     showgrid="false"
     inkscape:zoom="1.4142136"
     inkscape:cx="193.14666"
     inkscape:cy="160.56003"
     inkscape:window-x="684"
     inkscape:window-y="312"
     inkscape:window-maximized="0"
     inkscape:current-layer="svg177"
     showguides="false" />
  <path
     fill="#d3ae3b"
     d="M0 0h640v320H0z"
     id="path2" />
  <path
     fill="#c40308"
     d="M16 16h608v288H16z"
     id="path4" />
  <path
     d="M 350.59,147.42 342.09,137.69 C 334.01,140.82 326.59,141.01 320,137.65 313.4,141.01 306,140.82 297.9,137.69 L 289.4,147.42 C 293.66883,156.71394 292.96727,162.91208 290.45,173.6 289.69,176.89 289.03,183.01 290.78,187.4 296.69157,201.6257 310.63913,198.46507 320,209.72 328.31662,199.76956 343.98866,200.26877 349.22,187.39 350.97,183.01 350.32,176.89 349.55,173.6 347.89465,164.25699 345.23531,156.2422 350.59,147.42 Z"
     id="path8"
     inkscape:connector-curvature="0"
     style="fill:#d4af3a"
     sodipodi:nodetypes="ccccccccccc" />
  <path
     d="M344.8 161.3c-1.06-6.48 2.67-12.19 2.67-12.19l-7.27-8.5c-5.6 3.15-13.4 2.72-20.17-.4-6.78 3.12-14.58 3.55-20.18.4l-7.27 8.5s3.74 5.7 2.67 12.19c-1.07 6.48-3.36 16.74-2.79 20.92.58 4.18 3.53 9.02 6.57 11.57s7.54 4.67 10.74 5.82a30.98 30.98 0 0 1 7.8 4.51c1.47 1.15 2.46 2.14 2.46 2.14s.98-.99 2.46-2.14 4.6-3.36 7.79-4.5c3.2-1.16 7.71-3.3 10.75-5.83 3.03-2.55 5.98-7.39 6.56-11.57.57-4.2-1.73-14.45-2.8-20.93z"
     id="path10"
     fill="#B96B29" />
  <path
     fill="#6D8C3E"
     d="M294.42 185.72a18.27 18.27 0 0 0 7.75 9.55c5.45 3.28 7.8 2.85 12.94 6.2 5.14 3.34 4.83 3.9 4.9 3.9s-.25-.57 4.89-3.9c5.14-3.35 7.5-2.92 12.94-6.2a18.25 18.25 0 0 0 7.75-9.55h-51.16z"
     id="path14" />
  <path
     style="fill:#d4af3a"
     d="M 319.00781,148.12305 C 318.25458,148.05312 317.42868,148.49916 316.71094,148.7793 317.38471,149.80855 318.61094,149.20495 319.44922,148.93945 319.91922,148.87945 319.84047,148.61063 319.73047,148.39062 319.50241,148.22761 319.25889,148.14635 319.00781,148.12305 Z M 315.38477,148.79688 C 314.79283,148.80275 314.19374,148.93739 313.66992,149.03906 312.93992,149.20906 313.07031,149.83984 313.07031,149.83984 313.07031,149.83984 312.51969,149.87922 311.92969,149.94922 311.32969,150.01922 310.63008,150.27016 310.08008,150.41016 309.21718,150.67291 309.30029,150.81435 309.41016,151.63086 310.38884,151.49316 309.91104,152.21526 309.93945,152.25977 309.65945,152.35977 309.55078,152.4 309.55078,152.75 309.55078,153.1 309.6907,153.16992 309.9707,153.16992 313.52177,153.66111 312.46936,155.24438 310.17969,156 310.54031,157.39525 313.11653,156.42373 314.36914,157.28906 313.63672,159.33928 310.74759,159.24032 309.44922,159.74023 307.84922,160.37023 307.28906,162.4707 307.28906,162.4707 308.28606,161.97475 309.64481,161.35491 310.69922,160.68945 311.53922,160.15945 311.53914,160.92992 311.11914,161.66992 310.86946,162.44958 312.40377,161.61359 313.10938,161.21094 313.90938,160.79094 313.63086,161.46094 313.63086,161.46094 312.95234,163.03727 313.65967,164.19639 315.01953,162.43945 315.56953,161.70945 315.82992,162.4393 315.41992,163.2793 314.98992,164.1193 314.19023,164.7793 313.74023,164.7793 312.73419,164.40287 312.85011,163.4256 312.75977,162.67969 312.47977,162.47969 311.67984,162.72031 311.08984,163.07031 310.05016,163.31924 310.30692,162.66663 310.28906,162.18945 309.34046,162.1785 308.33831,162.95328 307.71094,163.2793 306.17041,164.26756 306.68282,165.53618 307.35938,166.94922 307.80937,167.99922 308.95977,166.34953 310.00977,165.01953 310.92693,163.69953 310.74066,164.71906 310.88086,165.78906 311.38738,169.39566 312.01878,169.63269 313.17969,166.42969 313.52969,165.89969 313.88016,166.36055 313.91016,166.81055 315.31294,170.40799 315.89959,168.13295 316.49023,165.61914 316.63023,165.16914 317.11914,165.55078 317.11914,165.55078 319.0431,167.80503 318.98862,165.51681 319.09961,163.80078 321.83022,165.59527 322.21616,164.50541 320.2207,161.35938 319.4907,160.72937 319.39086,159.98969 319.63086,159.67969 320.96878,159.59099 321.92646,160.72971 322.98047,158.86914 322.98047,158.86914 322.66008,158.35031 322.08008,157.82031 320.66412,156.7235 319.17999,156.56154 318.09961,156.5 317.77028,157.04478 317.06079,157.30769 316.69922,157.50977 317.43529,156.52475 317.81965,155.52628 317.75,154.5 317.47,154.18 316.69906,154.5 316.28906,154.5 314.79716,154.37676 317.32288,154.21811 317.53906,152.96094 317.70906,152.44094 317.84992,152.50031 318.16992,152.82031 318.47992,153.13031 318.77008,153.05961 318.83008,152.84961 319.50789,151.82619 320.28683,150.82914 319.69922,149.84961 319.31922,149.34961 318.38,149.43 318,149.75 317.61,150.05 317.36977,150.37039 317.25977,151.15039 317.15977,151.91039 316.94922,151.49 316.94922,151.25 316.833,149.97832 317.00977,149.21094 315.9707,148.83984 315.77775,148.80717 315.58208,148.79492 315.38477,148.79688 Z M 315.03906,149.67969 C 315.58085,149.67944 316.02005,150.10988 316.01953,150.64062 316.01896,151.1706 315.58008,151.59986 315.03906,151.59961 314.49881,151.59881 314.06112,151.16988 314.06055,150.64062 314.06003,150.11063 314.49803,149.6805 315.03906,149.67969 Z M 301.34961,149.92969 C 301.64798,151.23991 301.21801,152.03626 300.7793,152.40234 300.06456,151.88583 300.00375,150.95221 299.08984,150.99023 299.48563,151.64244 299.35573,152.05316 299.23633,152.60938 299.85669,154.41417 301.58651,156.74628 299.15234,156.82227 298.73426,156.5059 297.94101,155.87483 297.71094,155.57031 297.63921,156.28169 297.8721,157.05843 298.30273,157.29492 298.2356,158.40306 299.82367,158.70948 300.78906,158.83984 301.68906,158.73984 301.89078,159.39961 302.05078,160.09961 302.21078,160.80961 302.20961,162.47953 302.84961,164.01953 303.49961,165.55953 305.65039,165.65039 305.65039,165.65039 305.74807,164.77118 305.9672,163.90915 306.30078,163.08984 306.36078,162.94984 306.63914,162.25977 305.86914,162.25977 303.11572,160.08825 302.72152,156.6354 303.5,153.41992 303.78598,152.46998 303.75527,151.5906 303.64062,150.64062 303.45058,151.29456 303.19623,151.7073 302.74219,152.21484 302.72783,152.03544 302.37042,151.79933 302.2793,151.76562 302.36186,150.86552 301.98474,150.49453 301.34961,149.92969 Z M 321.07812,149.97852 C 320.26308,150.17972 320.23226,150.91253 320.05078,151.4707 320.3513,152.58253 321.83364,151.2843 322.53906,150.7207 322.30924,150.01126 321.7539,150.11539 321.07812,149.97852 Z M 334.59766,151.51562 C 333.69159,151.55197 332.80544,151.74887 331.97461,152.25195 330.14591,153.11735 327.26701,153.05134 326.6875,155.4668 326.25944,156.88773 327.68865,157.80118 328.65039,158.44922 331.78796,159.93907 335.44627,159.33174 338.7168,160.33008 341.42096,161.57425 338.97222,164.89963 336.60742,164.39258 335.48533,164.55507 333.94384,164.31937 335.48047,165.53906 337.67398,165.35515 340.3909,165.2745 341.64648,163.16602 342.54749,161.17701 340.52917,159.24902 338.61719,159.10156 335.45478,158.49717 332.09254,158.70923 329.06836,157.51953 326.14734,155.83902 329.36728,152.85191 331.72461,153.3125 333.95883,153.80989 336.30228,154.19129 338.57812,153.54883 339.90702,153.27056 341.56997,151.233 339.15039,152.01953 337.67608,151.84271 336.10777,151.45504 334.59766,151.51562 Z M 306.89062,151.57031 C 306.89062,151.57031 306.30062,152.64961 307.39062,153.84961 308.46637,155.04488 310.23344,155.04951 310.80078,154.99023 312.17408,154.44596 311.23664,153.97716 310.60938,153.75977 308.87937,153.90977 307.20065,153.29031 306.89062,151.57031 Z M 320.42188,152.62891 C 319.73612,152.58314 319.17745,152.99157 318.33984,153.81055 318.0814,154.43996 318.80242,155.43053 318.86523,156.06445 320.10878,155.93923 321.61347,155.19122 322.86914,154.65039 323.48914,154.32039 322.54086,153.75094 321.88086,153.21094 321.29093,152.84772 320.83331,152.65637 320.42188,152.62891 Z M 328.42188,163.89844 C 326.42854,163.93002 324.43572,164.3301 322.43945,164.18359 321.95829,164.26359 322.49686,164.75929 322.49023,164.94922 323.01866,166.45148 320.22482,165.47098 319.60156,166.04883 319.79429,167.44308 318.6711,169.21054 317.26172,168.10547 316.66311,169.01316 316.04107,171.39451 314.66016,170 313.89783,169.6199 313.22356,167.64153 312.76953,169.42969 312.02841,171.40322 310.4175,169.2847 310.12891,168.14648 309.23195,166.52479 308.0195,169.97629 307.01562,168.59961 305.84177,168.88567 305.98359,171.75432 307.52148,170.85156 308.50525,169.81324 310.59246,169.59559 310.33203,171.53516 310.15899,172.62421 311.53232,174.7383 312.26953,172.91016 312.57907,171.84079 313.6098,169.92323 314.54102,171.71094 314.94872,172.6249 316.12576,173.42881 316.34961,171.89648 316.27484,171.23063 318.039,170.00267 317.16211,171.25977 316.53289,172.85675 318.99034,171.31793 319.71484,171.19531 328.64576,169.95216 328.31692,169.05987 329.86133,172.23438 330.21369,173.75977 331.70957,174.46898 333.04883,174.95312 333.85225,175.61285 334.04116,175.05225 334.00586,174.30469 335.06116,174.25911 336.42872,174.9263 337.4082,175.40625 337.53476,176.78384 337.92622,178.37976 336.57227,179.30273 335.83522,180.48402 334.03547,179.72911 333.18359,180.86719 332.96949,181.07232 332.66843,181.40429 332.66602,181.72656 332.32987,181.83601 330.13848,182.30489 332.03124,182.57617 333.48874,182.54299 336.54724,182.62574 336.56836,182.625 342.54674,182.61819 341.24298,173.1182 339.64258,171.29297 338.35809,170.88727 336.78786,170.91355 335.93945,169.65039 335.08175,168.34501 335.64447,166.46474 334.50977,165.26953 333.38176,164.32192 331.80346,164.29481 330.41602,164.02344 329.75126,163.91828 329.08632,163.88791 328.42188,163.89844 Z M 326.28516,171.35547 C 325.16195,171.39627 324.00434,171.88009 323.36914,172.47656 323.01739,173.28352 322.83887,174.20691 323.00195,175.08008 323.22913,175.62487 323.68441,174.86874 323.83203,174.80273 324.29262,175.44525 324.81939,176.05201 325.1875,176.75391 325.29146,178.09511 324.27783,179.27586 323.50977,180.08008 322.75391,180.47434 321.9788,179.82558 321.19531,179.9707 320.74074,180.06237 319.97262,180.43617 320.14062,180.99414 319.72184,181.11487 319.5254,181.27809 319.4375,181.45312 318.8127,181.44289 318.50561,182.22255 318.30078,182.60938 318.5708,182.59525 321.15823,182.65709 321.41406,182.60938 321.41411,182.60606 321.41031,182.60291 321.41016,182.59961 H 321.41406 C 321.41362,182.60373 321.41451,182.60522 321.41406,182.60938 H 324.78906 C 326.03891,181.2791 327.6134,179.20077 327.60352,177.78125 327.44728,176.77677 326.60577,175.96565 326.7793,174.89062 327.58698,173.77659 328.48071,173.64436 328.6875,172.35742 328.22002,171.72439 327.51913,171.42887 326.76367,171.36523 326.60628,171.35198 326.44561,171.34964 326.28516,171.35547 Z M 308.19922,171.60938 C 307.28359,174.41017 307.6872,177.00326 305,179.67969 304.33187,180.2962 303.49676,180.27441 302.71094,180.41016 302.28621,180.86545 302.08301,181.15498 302.15039,181.45312 L 301.54297,182.06836 C 301.18261,182.01965 300.7713,182.31896 300.38086,182.60938 H 307.84961 C 308.30961,182.48937 308.31008,182.0693 308.33008,181.7793 308.78624,179.35984 309.24134,177.44215 310.25,174.96094 310.51,174.25094 309.99078,174.01055 309.80078,173.56055 309.62078,173.12055 309.33,172.32969 309.25,171.92969 309.17,171.52969 308.54922,171.58937 308.19922,171.60938 Z M 345.10156,183.14258 293.75,183.18945 C 293.53839,184.87652 294.74674,184.85038 295.97461,184.74023 H 345.90039 C 346.63432,183.44309 346.10688,183.08552 345.10156,183.14258 Z"
     id="path18"
     inkscape:connector-curvature="0"
     sodipodi:nodetypes="ccccccccccccscccccccccccccccccccccccccccccccccscccccccccccccccccccccccccccccccccccccccccccccccccccccsccccsccccccccccccccccccccccccccccccccccccccccccccccccccccccccccccscccccc" />
  <path
     id="path32"
     style="fill:#1d5e91"
     d="M 322.37068,175.63443 C 321.9856,174.46352 322.35808,173.22655 322.47,172.04 320.71759,172.37108 319.04265,173.01057 317.27599,173.27547 315.3609,173.79458 313.17773,172.94388 311.95914,174.60686 310.56583,176.44589 310.16671,178.8315 309.91512,181.0706 310.00571,181.62464 309.07067,182.83109 310.07854,182.6 H 317.66 C 317.90883,181.86052 318.26811,181.06515 319.08793,180.82223 319.92083,180.37205 320.42193,179.06919 321.6408,179.42321 322.47449,179.68441 323.52899,179.79836 323.83547,178.74479 325.36985,175.80275 322.4758,176.55364 322.37068,175.63443 Z M 335.035,175.76047 C 333.72731,177.97458 330.10253,175.49498 329.13,174.11 328.27852,174.57361 327.7449,175.45561 327.86684,176.44102 328.09657,177.34439 329.08521,178.15787 328.54244,179.15155 328.08063,180.38183 327.14734,181.36089 326.72,182.61 H 330.64 C 330.92735,181.50468 332.34481,181.79128 332.45453,180.65313 333.32975,179.68853 334.72004,179.44208 335.96,179.32 337.22321,177.72563 337.41866,175.98884 335.035,175.76047 Z M 344.1,162.07 C 343.05,155.07 346.2,149.44 346.2,149.44 L 339.64,142.13 C 334.09,144.98 327.35,144.24 320.01,141.69 312.66,144.24 305.92,144.98 300.37,142.13 L 293.81,149.43 C 293.81,149.43 296.97,155.07 295.91,162.07 294.85,169.07 293.25,176.99 293.56,181.64 293.58,181.96 293.62,182.28 293.66,182.61 H 299.64 C 300.25097,182.06396 300.7633,181.88131 301.51,181.45 301.51,181.45 301.63,180.24 302.36,179.99 306.33868,179.43299 306.54806,175.71535 307.21,172.36 307.21,172.36 307.05,171.98 306.45,172.21 304.80506,170.52819 306.11637,168.62041 306.23,167.09 306.23,167.09 302.43,167.85 301.76,164.9 301.1,161.95 300.97,160.52 300.88,160.2 298.25093,159.78374 297.19843,157.38834 297.23,155.15 297.45,154.55 297.87,154.77 297.99,154.96 298.12,155.16 299.13,156.61 299.54,156.2 299.96,155.79 299.74,155.79 299.16,154.64 298.6012,153.35048 298.89794,152.24021 298.65,150.9 299.30653,150.05329 300.28929,151.09495 300.72,151.38 301.04,151.2 300.84,150.13 300.84,149.78 301.96989,148.56718 302.7532,150.63726 302.74,151.4 302.88502,150.82946 303.32657,150.34302 303.79,149.98 304.14,150.45 304.26,151.15 304.14,151.88 303.66596,154.77584 303.17843,159.17307 305.94,161.53 L 307.08,161.57 C 308.09644,159.5256 309.27071,158.87238 311.42,158.62 312.18,158.52 312.49,158.29 312.49,158.1 312.49,157.91 312.24,157.85 311.32,157.72 309.56057,157.48681 309.52347,156.07924 309.17,155.34 308.57,155.31 307.08,154.83 306.54,153.84 305.56513,152.75631 306.68297,149.81822 307.4,151.5 307.84,152.52 308.13,152.64 308.5,152.86 308.89,153.09 309.4,153.15 309.14,152.45 308.66933,151.2394 308.33688,150.36429 309.62,149.97 310.60561,149.72089 311.58276,149.4276 312.56,149.18 312.56,149.18 312.62,148.74 313.45,148.48 315.60683,148.41103 317.17494,147.66082 319.18,147.5 320.66158,147.6104 320.6786,149.0018 321.3,149.47 321.84,149.47 322.31,149.47 322.82,149.66 323.32,149.85 324.02,150.13 323.58,150.67 322.39009,152.2193 322.18027,152.32122 323.33,153.6 323.77,154 324.43,154.45 323.77,155.12 323.11,155.79 321.93,156.32 321.93,156.32 321.48997,157.15873 322.90281,157.442 323.64875,158.45375 325.10181,160.12803 322.97102,160.54644 321.65,160.84 320.63962,161.6105 321.67367,162.38471 321.97,163.48 326.07983,164.25869 327.8885,162.43201 333.71,164.11 333.71,164.11 336.09,164.08 337.39,163.79 338.69,163.51 339,162.68 338.81,162.24 338.62,161.79 338.65,161.12 336.37,160.81 334.09,160.49 333.17,160.61 331.37,160.26 329.57,159.92 326.75,158.99 326.24,156.74 325.74,154.49 327.57,153.54 328.49,153.09 329.41,152.64 331.4,151.95 332.32,151.57 333.24,151.18 334.92,150.8 336.69,151.06 338.46,151.31 339.48,151.79 340.17,151.37 340.87,150.97 341.44,151.27 341.31,151.91 341.19,152.55 340.49,153.85 338.49,154.45 336.5,155.05 334.09,155.12 332.79,154.77 331.49,154.42 330.52,153.91 329.73,154.2 328.93,154.49 328.05,155.47 328.9,156.64 329.76,157.82 334.13,158.17 335.3,158.3 336.47,158.42 340.8,158.1 342.04,160.26 343.28,162.43 342.29,164.84 340.84,165.38 339.13504,166.02324 337.66001,166.34545 335.94,166.58 335.94,166.58 336.44,167.73 336.44,168.21 336.44,168.68 336.37,169.57 336.91,169.91 337.45,170.27 338.21,170.52 339.13,170.43 340.05,170.33 341.16,170.97 341.22,171.79 342.08172,175.87612 341.81764,178.80185 339.98,182.61 H 346.36 C 346.41,182.28 346.44,181.96 346.46,181.64 346.72,176.93 345.11,169.01 344.06,162.01 Z"
     inkscape:connector-curvature="0"
     sodipodi:nodetypes="ccccccccccccccccccccccccccscccccccccccccccccccccccsccccccccccccccsccccccccccscccccsccccccscccccccc" />
  <path
     style="fill:#1d5e91"
     inkscape:connector-curvature="0"
     id="path44"
     d="M 320.08,70.03 C 321.7,70.03 323.08,69.08 323.56,67.76 H 316.59 A 3.67,3.67 0 0 0 320.09,70.03 Z M 321.58,63.65 V 65.25 H 323.38 A 3.5,3.5 0 0 0 321.58,63.65 Z M 318.57,63.65 C 317.77,63.97 317.14,64.54 316.77,65.25 H 318.57 Z" />
  <path
     id="path126"
     style="fill:#d4af3a;stroke:#b96b29;stroke-opacity:1;stroke-linejoin:miter;stroke-width:1;stroke-miterlimit:4;stroke-dasharray:none"
     d="M 323.64844,69.925781 C 323.37714,69.946206 323.14005,70.053629 323.07227,70.353516 323.09946,71.094697 323.1123,71.904087 323.44727,72.578125 326.15996,75.159912 329.76672,76.50085 330.32422,81.226562 330.52722,82.455531 329.95664,83.60762 329.75586,84.789062 329.24022,87.530501 331.90455,87.674771 334.41016,86.390625 335.35518,85.896619 335.86367,84.861363 335.89648,83.824219 336.03887,81.155505 334.88359,78.622799 333.51367,76.400391 332.36935,74.410574 328.53906,71.818359 328.53906,71.818359 327.30699,71.034926 325.82135,70.590171 324.42969,70.019531 324.22477,69.972066 323.91973,69.905356 323.64844,69.925781 Z M 316.06641,69.931641 C 315.89953,69.943359 315.71906,69.972266 315.53906,70.009766 313.47029,70.433792 311.7504,71.733074 310.36914,72.630859 307.59914,74.500859 306.95031,75.400937 305.57031,77.960938 304.21031,80.510936 303.71078,83.310935 304.30078,84.960938 305.6199,87.54693 308.12117,86.939579 309.7793,86.300781 310.67474,84.88114 309.73182,83.335658 309.61914,82.060547 309.9466,77.908303 312.58447,74.924111 315.88086,73.099609 316.60086,72.759609 316.72,72.229922 316.75,71.919922 316.78,71.599922 316.85016,71.389375 316.91016,70.609375 316.95516,70.024375 316.56703,69.896484 316.06641,69.931641 Z M 317.60938,70.310547 C 317.60938,70.310547 317.37984,74.440078 317.08984,76.830078 316.79984,79.230078 316.02016,81.450547 316.66016,83.560547 318.27581,88.363346 322.41212,87.319181 323.30078,83.560547 323.94078,81.450547 323.15914,79.230078 322.86914,76.830078 322.57914,74.430078 322.34961,70.310547 322.34961,70.310547 321.51961,70.790547 320.73047,70.989766 319.98047,71.009766 319.14357,70.983191 318.32641,70.742942 317.60938,70.310547 Z M 310.2207,71.820312 C 309.06173,72.115617 307.90214,72.414508 306.75977,72.769531 301.21629,74.315413 295.73542,80.239599 297.35938,85.671875 297.98775,85.99505 298.71256,86.164234 299.19336,86.732422 299.61737,86.938551 300.15079,88.301879 300.36719,87.3125 300.62178,86.521588 300.58078,85.65716 300.38086,84.859375 299.9587,83.081341 300.27288,81.171255 301.19336,79.597656 302.26918,77.54754 304.21161,76.062869 306.34961,75.25 307.38467,73.850342 308.77867,72.77299 310.2207,71.820312 Z M 329.75,71.820312 C 331.19203,72.77299 332.58408,73.850342 333.61914,75.25 335.75714,76.062869 337.70152,77.54754 338.77734,79.597656 339.69782,81.171255 340.012,83.081341 339.58984,84.859375 339.38992,85.65716 339.34893,86.521588 339.60352,87.3125 339.81992,88.301879 340.35138,86.938551 340.77539,86.732422 341.25619,86.164234 341.98294,85.99505 342.61133,85.671875 343.11455,85.320341 343.17694,84.256044 342.85938,83.919922 342.02412,74.619061 336.93935,73.653416 329.75,71.820312 Z M 297.40039,86.560547 C 297.40039,86.560547 297.00047,87.600234 297.23047,88.240234 297.45047,88.890234 297.92023,89.059068 298.49023,89.039062 299.06023,89.019064 299.91016,88.729062 299.66016,88.289062 299.07531,87.366035 298.38716,86.969308 297.40039,86.560547 Z M 342.57031,86.560547 C 342.57031,86.560547 342.02969,86.679375 341.42969,87.109375 340.96585,87.405653 340.58224,87.810407 340.31055,88.289062 340.74856,88.735557 341.88246,89.618876 342.74023,88.240234 342.97023,87.600234 342.57031,86.560547 342.57031,86.560547 Z M 310.73047,87.529297 C 310.37047,87.579297 310.31055,87.630859 310.31055,87.630859 310.31055,87.630859 310.16094,88.649609 310.96094,89.099609 311.76094,89.539609 312.20023,89.270156 312.49023,88.910156 312.79023,88.560156 312.83008,88.400391 312.83008,88.400391 312.83008,88.400391 312.08094,88.120391 311.71094,87.900391 311.35094,87.700391 311.10047,87.489297 310.73047,87.529297 Z M 329.24023,87.529297 C 328.87023,87.489297 328.61977,87.700391 328.25977,87.900391 327.88977,88.120391 327.14062,88.400391 327.14062,88.400391 327.14062,88.400391 327.18047,88.560156 327.48047,88.910156 327.77047,89.270156 328.20977,89.539609 329.00977,89.099609 329.80977,88.649609 329.66016,87.630859 329.66016,87.630859 329.66016,87.630859 329.60023,87.579297 329.24023,87.529297 Z M 318.04297,87.671875 C 317.79459,87.651032 317.54041,87.700255 317.31055,87.820312 316.92055,88.040313 316.05078,88.660156 316.05078,88.660156 316.05078,88.660156 316.25016,88.98 316.91016,89.25 317.58016,89.52 318.32945,89.370859 318.68945,89.130859 319.03945,88.890859 319.16023,88.289453 318.74023,87.939453 318.53359,87.782767 318.29134,87.692718 318.04297,87.671875 Z M 321.92773,87.671875 C 321.67936,87.692718 321.43711,87.782767 321.23047,87.939453 320.81047,88.289453 320.9293,88.890859 321.2793,89.130859 321.6393,89.370859 322.39055,89.52 323.06055,89.25 323.72055,88.98 323.91992,88.660156 323.91992,88.660156 323.91992,88.660156 323.05016,88.040313 322.66016,87.820312 322.4303,87.700255 322.17611,87.651032 321.92773,87.671875 Z M 307.11523,87.880859 C 306.76414,87.866328 306.63727,88.0775 306.50977,88.25 306.33977,88.48 305.98047,88.849609 305.98047,88.849609 305.98047,88.849609 306.4193,88.869141 306.7793,89.119141 307.1393,89.379141 307.59953,89.600781 308.01953,89.550781 308.44953,89.500781 308.61906,89.100547 308.53906,88.810547 308.43906,88.530547 308.24078,88.240469 307.55078,87.980469 307.37578,87.915469 307.23227,87.885703 307.11523,87.880859 Z M 332.85352,87.880859 C 332.73648,87.885703 332.59492,87.915469 332.41992,87.980469 331.72992,88.240469 331.52969,88.530547 331.42969,88.810547 331.34969,89.100547 331.51922,89.500781 331.94922,89.550781 332.60714,89.374394 333.28923,89.052437 333.99023,88.849609 333.99023,88.849609 333.63094,88.48 333.46094,88.25 333.33344,88.0775 333.20461,87.866328 332.85352,87.880859 Z M 300.75586,88.765625 C 300.4732,88.764687 300.20203,88.840319 300.26953,89.320312 300.96926,90.555364 301.93337,90.334666 303,89.869141 303.38,89.679141 303.30977,89.610391 302.75977,89.400391 302.20977,89.200391 301.3793,88.799297 301.0293,88.779297 300.9443,88.774297 300.85008,88.765938 300.75586,88.765625 Z M 339.21484,88.765625 C 339.12063,88.765938 339.02445,88.774297 338.93945,88.779297 338.58945,88.799297 337.76094,89.200391 337.21094,89.400391 336.66094,89.610391 336.5907,89.679141 336.9707,89.869141 338.03733,90.334666 338.99949,90.555366 339.69922,89.320312 339.76672,88.840313 339.4975,88.764687 339.21484,88.765625 Z M 306.77,100.08 C 315.40467,103.06231 325.09309,103.17811 333.18,100.08 L 330.59,99.51 C 323.66787,101.30757 315.93994,101.49586 309.59444,99.593257 308.69221,99.467521 307.67447,99.880946 306.77,100.08 Z M 331.01125,95.50625 C 331.82511,94.002341 336.32418,93.699982 334.59968,93.061978 325.36144,92.015969 316.63097,91.394049 305.07422,93.21019 305.70262,94.517745 309.09743,94.343919 308.96859,95.805156 308.1412,96.555403 305.58,96.59 306.21062,98.454336 315.82942,96.600576 324.55859,97.065334 333.23594,98.407344 334.39,96.59 331.34215,96.454224 331.01125,95.50625 Z M 319.18,62.89 321.21,62.73 321.02,60.95 323.2,61.25 323.29,59.5 321,59.71 321.4,57.82 318.88,57.8 319.32,59.71 317.1,59.51 V 61.25 L 319.3,61 Z M 323.61,65.76 H 320.88 V 63.43 C 320.38182,63.331314 319.86945,63.327921 319.37,63.42 V 65.76 H 316.55 C 316.41225,66.189026 316.37126,66.643245 316.43,67.09 H 323.73 C 323.78759,66.641814 323.73965,66.186372 323.59,65.76 Z"
     inkscape:connector-curvature="0"
     sodipodi:nodetypes="ccccccccccccccccccccscccccscccccccccccccccccccccccccccccccccccccccccccccccccccccccccccsscccccssccccssccccccccccccccccccccccccccccccccccccccccccccccc" />
  <path
     style="fill:#c52126;stroke:#b96b29;stroke-opacity:1"
     d="M 270.81055 108.49023 C 270.12885 111.52677 269.9692 113.80307 273.69922 114.73047 C 279.1789 115.211 283.07905 111.46392 288.11914 114.71094 C 288.11914 114.71094 288.75992 115.24094 289.66992 114.71094 C 290.56992 114.18094 290.84023 113.7793 289.99023 113.2793 C 286.10164 111.32701 282.00751 111.26826 278.11914 112.30078 C 274.89099 113.26792 271.47923 111.48892 270.81055 108.49023 z M 369.16016 108.49023 C 368.78488 110.35198 367.42881 111.8632 365.61914 112.43945 C 362.36053 113.18887 359.15729 111.01588 355.53906 111.59961 C 353.10906 111.80961 350.83047 112.7793 349.98047 113.2793 C 348.92578 113.92745 350.66565 115.43795 351.84961 114.71094 C 356.8897 111.46392 360.78985 115.211 366.26953 114.73047 C 369.99955 113.80307 369.84186 111.52677 369.16016 108.49023 z "
     id="path80" />
  <path
     sodipodi:nodetypes="ccccccccccccccccccccccc"
     inkscape:connector-curvature="0"
     id="path143"
     d="M 396.62,216.11 C 395.83176,215.82887 394.96042,215.1829 394.55515,216.37384 393.91114,217.21231 392.80562,217.34315 392.06734,218.04203 391.15354,218.80985 391.92779,220.4072 393.09669,219.95461 394.50228,219.71907 396.03088,219.18956 396.72575,217.83381 396.9968,217.20275 397.87817,216.17756 396.62,216.11 Z M 398.97,207.85 C 398.31758,205.12772 396.63393,202.52839 394.07,201.27 393.54593,203.23315 392.88898,205.16885 392.47664,207.15703 394.30498,208.18477 396.56849,208.37675 398.48094,208.89215 399.17509,209.04345 399.07726,208.21764 398.97,207.85 Z M 385.29,205.7 C 386.19135,205.8769 386.01005,204.66087 386.26906,204.08902 386.69938,202.44602 387.12969,200.80301 387.56,199.16 384.4296,199.12982 381.03808,200.05412 379.01875,202.60625 378.62851,203.15171 377.55495,204.14035 378.83378,204.1773 380.96753,204.74424 383.15388,205.19647 385.29,205.7 Z M 378.27,211.96 C 377.60419,211.91291 376.29068,211.19688 377.02131,212.40855 377.68394,214.5017 378.83257,216.78629 381.05816,217.53162 383.14863,218.19038 385.79332,217.96593 387.2926,216.21063 387.58109,215.52264 388.26272,214.29559 388.17662,213.85516 384.50954,213.41195 381.52492,212.644 378.27,211.96 Z"
     style="fill:#1d5e91" />
  <path
     id="path4684"
     style="fill:#d4af3a;stroke:#b96b29;stroke-opacity:1;stroke-width:0.5;stroke-miterlimit:4;stroke-dasharray:none;stroke-linecap:butt;stroke-linejoin:miter"
     d="M 337.97,134.04 C 338.30427,135.05497 339.21872,136.22481 339.52109,136.96188 338.47391,137.77159 337.14329,138.01882 335.89,138.33 336.83805,137.03516 337.61968,135.61822 337.97,134.04 Z M 323.69,133.1 C 323.7716,131.28453 325.41559,131.72438 326.70256,131.48074 328.21396,131.31035 329.55468,130.57446 330.94,130.02 330.71647,132.73277 330.83184,135.49756 331.68709,138.10068 332.48944,139.63476 329.79785,138.83031 328.95369,139.03916 326.45986,138.93096 324.02473,138.20686 321.72609,137.27344 321.78765,135.59942 323.01751,134.48861 323.69,133.1 Z M 353.14,103.69 C 349.41467,102.18748 346.15094,105.09173 342.76935,106.10228 339.22419,107.17967 333.57619,105.35237 333.92656,100.89875 334.98098,100.74096 339.24286,103.10008 340.93375,102.65125 339.35699,103.66521 339.35702,104.86002 341.04656,103.28141 344.18257,100.74569 349.15046,98.847998 352.91348,101.18398 353.74752,101.59541 354.78894,103.70106 353.14,103.69 Z M 322.33,126.8 C 325.41202,125.86207 328.17626,122.91427 329.16625,120.06375 327.47746,119.0421 326.48687,117.76299 329.04109,117.23984 330.47984,115.9363 334.86371,113.78426 333.76,111.99 332.49022,110.5766 337.3526,109.08419 338.15,107.31 341.56027,108.30618 345.31622,107.46924 348.44,105.93 348.72057,109.4502 353.19738,107.66598 352.64078,105.00484 355.64495,103.10202 361.25094,101.76053 362.59883,106.29016 363.58205,107.75091 362.57997,110.84752 361.28625,108.16375 358.52057,105.87686 354.96992,108.12355 352.78266,110.11279 350.89472,111.31867 346.38251,114.58305 351,115.47 352.48773,116.4876 357.3918,113.49563 354.67654,116.41004 351.86791,120.25729 346.54513,114.38573 344.63047,118.84797 343.2258,120.0087 343.77525,125.23094 341.70993,122.21172 340.46894,118.26625 339.23552,124.50436 339.43,126.2 339.48632,127.97268 340.70828,131.22067 337.88,128.91 336.26498,130.07269 336.77977,134.66407 334.84828,136.71828 332.47706,141.25951 331.76177,134.75442 331.85051,132.60551 331.54415,130.75454 332.69285,126.55543 331.94516,126.41844 329.73087,129.16702 325.63059,130.95476 322.35699,128.98588 321.5061,128.4975 320.94975,127.05839 322.33,126.8 Z M 349.44,105.75 A 1.1900001,1.09 0 0 0 350.63,106.84 1.1900001,1.09 0 0 0 351.82,105.75 1.1900001,1.09 0 0 0 350.63,104.66 1.1900001,1.09 0 0 0 349.44,105.75 Z M 256.06055,82.310547 C 251.88401,87.988483 251.57495,95.636685 252.29883,102.42578 252.76834,105.65774 252.96243,109.01883 254.33984,112.0293 255.42155,113.88988 257.36337,118.18949 256.54492,113.32617 256.00094,108.80542 260.53609,105.36275 258.14648,100.88672 256.83833,94.77616 256.55075,88.522515 256.06055,82.310547 Z M 383.91016,82.310547 C 383.43612,89.12379 382.77683,97.453687 381.03906,104.83984 382.34175,108.10988 384.21865,112.29707 383.36914,116.00977 390.22533,103.83713 388.14953,96.98421 383.91016,82.310547 Z M 247.34961,89.599609 C 244.30128,94.097733 244.44627,99.993446 244.62695,105.23242 245.02751,111.49379 246.97881,117.4959 249.55078,123.17969 249.15226,121.61193 251.19101,118.3943 252.31055,121.0293 251.67593,116.77238 253.5058,112.63103 250.78711,108.81836 248.59646,102.65039 247.45743,96.138477 247.34961,89.599609 Z M 392.61914,89.599609 C 393.07494,98.337978 390.74613,105.96298 387.26953,113.40039 387.92934,115.85675 388.04315,118.44699 387.66016,121.0293 388.75205,118.06158 390.31684,121.37441 390.41992,123.17969 395.415,111.46892 397.31408,99.596098 392.61914,89.599609 Z M 399.9707,104.74023 C 398.50086,111.92721 396.02425,118.29073 392.10938,124.18945 391.31493,125.32073 390.6788,126.26781 390.05078,127.51953 393.87725,124.8819 392.57978,129.96665 391.85938,133.16992 399.86716,125.93479 403.16649,113.98846 401.17969,105.33984 400.66854,103.65616 400.42062,103.2352 399.9707,104.74023 Z M 239.39844,103.66016 C 236.52883,110.59727 238.85386,118.59794 241.91016,125.05078 243.1226,127.75874 246.60198,132.31812 247.86523,132.66797 245.38427,129.32043 247.58703,124.46022 249.63086,126.9668 246.605,122.40514 243.49442,117.78997 242.2168,112.37109 241.03243,109.67004 240.73166,105.91059 239.39844,103.66016 Z M 260.20312,105.32031 C 260.06313,105.31531 259.94922,105.44922 259.94922,105.44922 259.94922,105.44922 259.51047,105.6307 258.48047,108.2207 257.61126,110.45052 257.23135,112.8412 257.36914,115.23047 258.50902,120.29757 262.22262,126.23294 257.73047,119.74023 256.2937,117.9732 254.96667,113.60984 253.75,113.66992 253.18,114.10992 252.06039,118.45039 253.40039,121.40039 257.63626,127.45097 259.56412,131.3883 254.01953,124.69922 252.66423,121.47245 249.83289,119.74242 250.23047,124.11914 252.93618,131.24043 259.16511,137.08258 249.4707,127.68945 248.8907,126.98945 248.04984,127.34039 248.08984,130.15039 249.14146,136.11598 259.50008,142.95306 248.40039,136.05078 246.05206,140.18623 252.9761,144.75024 256.25,147.43945 256.12,147.74945 255.18064,147.3507 253.89062,146.7207 248.68449,144.00877 247.20753,146.27607 250.23047,149.80078 252.87347,152.68163 262.61612,153.7889 253.34961,153.83008 249.25546,153.98147 252.16139,157.18347 253.26953,157.93945 255.58975,159.48009 263.44795,160.37225 257.64062,160.98047 254.38311,161.19863 254.19947,163.57025 256.21094,165 257.59094,165.93 259.38078,166.25031 262.05078,166.07031 269.27966,166.08314 261.88207,166.64005 260.2207,167.94922 259.53981,171.58405 264.27808,171.82603 267.17969,171.65039 273.55619,171.03456 268.20549,172.14115 266.28906,174.19922 266.01906,174.77922 266.25063,175.31945 267.89062,175.93945 269.35782,177.46805 281.76856,175.09049 272.35938,177.68945 268.66875,178.77598 271.45686,181.15458 273.60938,181.25977 275.71753,181.96059 285.68279,177.29579 278.68945,181.80078 276.61407,183.34558 278.83975,185.26242 279.75977,185.5 283.50815,185.84824 286.27695,184.98369 288.50977,182.55078 288.31977,180.27078 288.41922,178.7 288.69922,177.25 286.61738,177.06208 285.18563,176.18075 284.2207,174.25 283.9107,173.58 283.45992,173.58 282.91992,173.75 279.50804,174.75818 274.99171,172.51736 276.58984,168.88086 273.22969,168.94861 268.92197,168.47419 269.85938,164.64062 267.52179,163.46564 263.6508,162.12947 265.16992,159.50977 261.97232,158.4383 257.16492,154.63329 261.83008,152 259.36015,150.48836 254.61367,146.63048 259.68945,144.84961 259.68945,144.84961 259.38094,144.72055 258.71094,144.31055 255.69963,142.18624 254.24287,138.51539 259.19922,137.9707 255.21852,132.52185 258.46511,129.86476 263.08008,131.81055 263.35008,131.58055 263.38914,131.41031 263.11914,130.82031 262.20264,126.30679 265.95829,123.91174 269.76953,127.25 270.39953,127.61 270.13086,126.75086 270.13086,126.13086 264.68592,120.065 262.37284,114.34881 260.61914,106.0293 260.50914,105.4693 260.34312,105.32531 260.20312,105.32031 Z M 379.34961,106.0293 C 377.59591,114.34881 375.47405,118.86626 369.83984,126.13086 369.83984,126.75086 369.56922,127.61 370.19922,127.25 375.69801,124.0507 377.37233,127.42377 376.89062,131.81055 381.19321,130.18961 384.31178,134.5588 380.76953,137.9707 385.23862,139.25001 383.75164,142.98499 380.2793,144.84961 380.2793,144.84961 381.93086,145.11914 381.88086,147.61914 381.889,150.02521 379.61146,151.10372 378.14062,152 382.14098,158.03718 373.74026,157.40252 374.80078,159.50977 377.34114,163.2194 370.10888,162.06849 370.10938,164.64062 371.64164,169.64485 362.9967,166.70785 363.38086,168.88086 363.81449,174.97131 358.58258,173.72147 355.75,174.25 354.64663,176.37153 353.41598,176.89019 351.26953,177.25 351.54953,178.7 351.65094,180.27078 351.46094,182.55078 353.69376,184.98369 356.46256,185.84824 360.21094,185.5 363.98643,184.52503 361.36741,181.32061 358.19922,179.96094 356.67836,177.48455 367.55906,184.95717 369.60938,179.16016 368.90217,177.53358 365.25858,177.63938 364.61914,175.41016 370.36314,176.31402 378.02422,176.38963 369.25977,171.42969 369.38977,171.06969 371.44906,171.56039 372.78906,171.65039 380.39968,172.11107 380.93322,168.21883 374.48047,166.28906 374.57047,165.83906 375.23992,165.89031 377.91992,166.07031 384.25559,166.45659 389.33639,161.01706 379.91992,160.5293 382.33874,158.33793 388.99888,158.46162 388.92969,154.84961 387.48026,153.3785 384.42497,154.15369 382.42969,153.33984 386.24921,151.38745 390.84794,151.19557 391.16016,145.69922 389.91212,144.45684 387.66351,146.20416 386.08008,146.7207 382.06886,146.15151 394.11927,142.51061 391.57031,136.05078 388.87323,137.87464 382.74484,141.67645 388.71289,136.14062 390.00289,134.58064 391.37828,132.91537 391.88086,130.15039 392.39162,127.34039 391.08336,126.98945 390.5,127.68945 380.07934,138.58124 389.57742,126.37768 389.74023,124.11914 389.82402,123.24751 389.85347,120.87326 388.50977,120.60938 387.76158,122.03575 386.90522,123.4029 385.94922,124.69922 378.87141,133.28476 385.90343,123.9712 386.57031,121.40039 387.11939,120.08415 387.59943,113.22551 385.32031,113.80078 385.10031,114.16078 383.39023,118.08023 382.24023,119.74023 377.71035,127.08729 380.19321,122.85862 382.59961,115.23047 382.78693,111.64619 381.99844,107.73108 380.01953,105.44922 379.48719,105.3004 379.53091,105.66977 379.34961,106.0293 Z M 234.41016,117.18945 C 233.54182,125.69651 238.4328,134.23694 245.23047,139.07031 247.01868,140.48928 248.06275,141.24538 246.82617,138.67969 245.99763,135.81074 249.35802,134.42234 245.38086,132.82422 240.66635,128.43825 237.09277,123.01367 234.41016,117.18945 Z M 405.56055,117.18945 C 402.51235,123.32768 399.02864,128.88893 393.83008,133.48047 392.12008,134.79047 391.97,134.83922 392.25,135.19922 393.58027,135.67376 392.89085,138.9777 392.36914,140.73047 401.72493,135.43746 406.50816,124.68411 405.56055,117.18945 Z M 272.11914,123.23047 C 270.37355,125.2584 272.65767,130.69907 268.73047,127.14062 263.52949,124.25383 262.43354,131.59056 266.57812,133.67188 266.59643,136.48967 260.56975,128.90508 258.66602,133.32812 256.38986,136.47122 266.5775,139.86315 259.99023,138.625 253.36822,139.61695 260.03965,144.75556 263.26953,144.63086 260.98869,144.54524 256.55918,146.51644 259.79688,149.12891 261.49892,150.70721 268.26723,150.64891 262.55859,152.1543 258.23391,156.07734 265.81211,157.74833 268.00977,157.36328 262.39522,160.11718 269.85209,164.35229 272.78516,161.0957 273.5049,162.19821 268.01946,164.96562 272.06055,166.78906 274.54545,168.6135 280.31789,163.97913 277.37109,169.36523 276.81916,174.41616 283.03573,172.55868 285.2207,170.75977 282.4827,174.11436 290.04208,178.58209 289.42383,173.04688 290.31348,169.1761 291.95898,164.58857 291.52344,160.94727 288.4832,161.02283 288.23325,157.88475 286.51367,157.35156 282.63859,157.01769 284.22358,157.1754 280.32031,156.50195 274.44808,155.90554 275.18159,147.6181 280.47266,146.60156 285.93789,144.1339 283.01839,138.20648 279.3125,135.24805 276.10973,131.87406 274.15185,127.419 272.11914,123.23047 Z M 367.84961,123.23047 C 367.84961,123.23047 365.3807,128.36047 362.2207,131.98047 359.0607,135.60047 355.89953,138.82016 356.01953,141.41016 356.12953,144.00016 357.52055,145.67992 360.56055,147.16992 363.60055,148.65992 364.4607,151.01984 363.7207,153.08984 362.9707,155.16984 361.59961,156.60078 358.59961,156.55078 355.61961,156.49078 353.89,156.89055 352.75,158.56055 351.92319,159.89928 350.51575,160.77226 348.94922,160.91992 L 348.18945,160.96094 C 348.40264,166.72145 349.68744,169.18816 350.91016,175.66016 354.89083,176.02792 354.89119,173.26121 354.75,170.75977 355.1,170.58977 355.50039,170.65078 355.90039,171.05078 361.87464,174.79135 362.38466,171.5269 361.82031,166.44922 362.17031,166.09922 362.74094,166.27969 363.21094,166.67969 371.99755,168.06638 369.45693,164.49939 366.75977,161.32031 367.22977,160.63031 368.14008,161.73094 368.83008,161.96094 377.53944,162.17791 373.21778,159.40216 372.10938,156.94922 372.67937,156.36922 373.36922,157.00914 373.94922,157.11914 381.86975,156.24518 376.81437,153.04411 374.91992,150.90039 375.03992,150.50039 375.55023,150.73 376.99023,150.5 378.43023,150.27 381.01023,148.98961 381.24023,147.84961 381.47023,146.70961 381.01094,145.20039 379.46094,145.15039 377.91094,145.10039 376.64922,145.10086 376.69922,144.63086 376.75922,144.17086 377.04914,144.35047 377.61914,144.23047 383.00296,144.7141 384.07609,137.29773 378.55078,138.82031 378.02078,138.99031 377.73922,139.23023 377.44922,138.99023 377.16922,138.77023 377.61953,138.24969 378.76953,137.67969 384.00062,134.63595 379.94168,130.03024 375.43945,133.58984 374.91945,133.92984 373.38984,134.96055 373.08984,134.56055 372.78984,134.16055 373.65945,133.35977 374.68945,132.25977 377.74431,128.50083 374.82901,125.62202 371.24023,127.14062 369.40023,127.95065 369.22953,128.81094 368.76953,128.46094 368.30953,128.12094 368.76953,126.85062 368.76953,125.64062 368.76953,124.43063 367.84961,123.23047 367.84961,123.23047 Z M 232.83789,130.875 C 232.16112,135.76445 235.92179,140.54258 239.46094,143.5 241.59332,145.00826 246.24921,148.45995 247.78711,147.48828 245.5094,144.2084 251.83602,144.90591 248.47461,143.36523 242.29936,140.54398 237.34154,135.81967 232.83789,130.875 Z M 407.31878,130.72396 C 403.20712,135.95389 397.03179,140.92242 390.85938,143.67969 390.59938,144.08969 390.16016,144.5293 390.16016,144.5293 392.08412,144.66417 392.01196,145.90335 391.63086,147.67969 391.51086,148.02969 391.45031,148.38914 392.07031,148.11914 399.67193,145.59533 407.1926,139.28414 407.31878,130.72396 Z M 395.13086,148.80078 C 392.64086,149.56078 391.10936,149.82031 391.10938,149.82031 390.21873,151.0697 386.69893,152.75287 387.02539,153.13086 389.02867,153.27133 389.65986,154.31791 389.49023,156.18945 397.98149,154.81332 407.96974,147.42063 408.27604,141.39223 406.55488,143.39462 398.19832,147.93682 395.13086,148.80078 Z M 232.23047,142.125 C 231.89831,142.19056 231.99499,142.79882 232.88477,144.36914 234.39116,147.68834 237.19264,149.98457 240.16016,151.94922 243.24433,154.07156 246.80122,155.5123 250.48047,156.18945 246.57652,153.62322 254.67738,153.00652 250.05664,150.71875 245.86397,148.38364 240.4244,148.20922 236.55273,144.93164 235.47035,144.187 233.25004,142.28308 232.39844,142.12891 232.33457,142.11734 232.27792,142.11563 232.23047,142.125 Z M 405.03906,152.53906 C 400.25945,156.28675 395.40568,156.9282 390.01953,158.49023 387.89953,158.72023 387.75906,158.81086 387.28906,159.13086 386.13861,159.74018 384.87193,160.09149 383.55078,160.33984 384.9374,160.75547 387.49183,161.85104 385.55078,163.69922 394.71277,163.72779 402.73881,161.74909 405.53906,153.16016 405.72531,152.14507 405.67322,152.31011 405.03906,152.53906 Z M 234.49805,152.26367 C 234.42443,156.39974 238.67793,160.11742 242.54492,161.53906 246.27636,163.15482 250.37169,163.77614 254.41992,163.69922 252.96656,162.27202 252.21435,160.75932 255.08008,160.70508 258.11058,159.85202 251.1257,158.74107 249.94922,158.49023 244.52767,157.31985 239.15485,155.3198 234.49805,152.26367 Z M 234.125,159.61328 C 232.88148,159.46951 231.09303,161.80739 233.36523,162.72461 234.30802,165.30231 228.45945,163.52956 231.81836,167.11328 234.17292,164.52855 235.05361,167.45194 235.37891,169.18555 238.34744,170.2092 237.68053,166.91357 236.10352,165.77344 235.5136,164.00885 238.59017,164.51187 238.49023,163.51953 238.95035,160.37693 233.77548,164.37201 235.01562,160.72852 234.89308,159.98459 234.53951,159.66121 234.125,159.61328 Z M 400.60156,163.81836 C 395.10563,165.10365 390.24467,166.07783 384.75,165.34961 382.82672,166.52992 380.62427,168.42329 379.90039,170.83008 389.67466,174.38002 402.32374,167.44708 400.60156,163.81836 Z M 240.63281,164.13281 C 240.08336,164.13493 239.6077,164.24704 239.23438,164.52539 241.66372,170.91942 249.4058,171.69717 255.31055,171.83008 257.61438,171.98842 262.11966,171.06305 257.92383,169.38281 258.21157,164.76884 252.74354,165.35589 249.31055,165.5957 246.7556,166.16951 243.01378,164.12362 240.63281,164.13281 Z M 239.71289,167.65039 C 239.66943,167.64392 239.61971,167.64582 239.56641,167.6543 238.85573,167.76732 237.36467,169.15827 237.61914,170.41992 236.17623,169.9101 231.24711,170.62299 234.89844,171.91797 237.70852,172.89344 238.12065,176.36685 238.97852,178.82812 240.36511,184.582 240.34321,190.73813 243.24414,196.05664 244.30581,197.70604 245.68496,200.80196 248.07031,200.25 248.36821,198.08337 249.09405,195.87926 248.18359,193.74609 246.63764,188.2189 242.61246,183.8299 240.89062,178.36133 239.87868,175.43493 238.91865,172.24109 239.45898,169.13477 240.05345,168.12255 240.01712,167.6957 239.71289,167.65039 Z M 377.34961,172.21094 C 375.96337,172.9285 374.40342,175.16335 375.7207,176.59961 381.14014,179.78236 393.37951,181.41327 394.46094,173.19922 388.68246,174.95259 383.43205,174.30997 377.34961,172.21094 Z M 261.29688,172.52344 C 259.03854,172.59787 256.10759,173.5347 254.30859,173.61719 251.63103,174.82504 245.81869,171.82232 245.24414,174.29492 247.04606,178.64771 252.65895,179.32904 256.79688,179.10742 259.42347,178.76972 261.82941,177.59533 264.25,176.59961 265.14163,173.23582 263.55521,172.449 261.29688,172.52344 Z M 266.93359,177.0625 C 266.44953,177.02372 265.83412,177.2461 265.01172,177.84961 261.42853,180.20128 256.30326,181.2548 252.97266,182.58594 255.13187,187.35475 261.62424,185.95667 265.63672,184.81445 267.74195,184.17137 269.80041,183.33883 271.71094,182.24023 268.64071,182.27945 269.03121,177.23053 266.93359,177.0625 Z M 373.90039,177.14062 C 373.90039,177.14062 372.57,177.67094 371.5,177.71094 369.64491,177.78265 372.77831,181.06098 368.25977,182.24023 374.56778,185.73618 383.2891,189.06748 387.09961,182.23047 381.34862,181.26274 377.95399,179.567 373.90039,177.14062 Z M 364.94922,182.85938 C 363.31414,183.44827 363.00701,185.47289 362.65039,186.60938 364.12205,193.03244 375.51386,193.18632 378.91992,188.98047 378.91992,188.98047 376.10078,188.88 371.30078,186 367.09203,183.47125 365.68395,182.81084 364.94922,182.85938 Z M 274.58594,183.4668 C 274.41094,183.45324 274.2307,183.45512 274.04688,183.4707 271.59582,183.67852 268.42117,186.32516 266.18359,187.34375 264.32783,188.65914 258.5109,188.69397 263.35742,190.48633 267.84686,192.07874 275.51303,192.05528 277.32031,186.60938 276.80193,184.41281 275.81091,183.56172 274.58594,183.4668 Z M 288.33984,184.51953 C 285.67878,188.70225 279.19043,185.13871 276.9707,189.63086 275.12029,191.41025 271.55088,195.07748 276.74023,194.78906 282.35097,194.04742 288.16748,190.97419 288.33984,184.51953 Z M 351.63086,184.51953 C 352.55499,192.32262 360.55692,196.17883 366.10938,194.01953 366.10938,194.01953 366.58922,193.78953 365.94922,193.01953 364.32194,191.07888 362.38046,187.78007 360.17969,187.08984 357.97474,187.23701 353.8233,187.01356 351.63086,184.51953 Z M 289.10938,186.68945 C 289.46402,190.02615 284.70825,193.52249 285.77734,195.92578 291.95682,196.82456 292.27035,190.42805 289.10938,186.68945 Z M 350.85938,186.68945 C 350.93326,188.71191 349.54332,190.4023 348.58008,192.10938 349.21067,195.12356 351.99854,196.64959 354.90039,195.58984 355.54752,195.03589 350.98832,188.86509 350.85938,186.68945 Z M 391.4668,192.29297 C 391.72153,194.50458 389.55279,192.74233 388.8125,192.40039 388.85785,193.00357 387.53666,195.04582 388.71094,194.91992 390.34116,194.1718 391.59427,195.11508 390.29297,196.70703 388.57308,198.34167 390.75584,199.27344 392.26172,199.01953 392.71407,198.02318 391.76095,194.62427 393.75195,195.78516 394.91687,196.98247 395.88698,195.17322 395.54688,194.0957 394.47154,194.17517 392.1312,194.32391 393.50586,192.80859 394.10146,192.09755 394.52121,191.01394 393.19727,191.03711 391.29913,190.03042 391.56113,191.46961 391.4668,192.29297 Z M 292.81055,193.83984 C 292.15736,198.96184 288.18845,202.42848 282.55078,202.96094 282.55078,202.96094 280.24234,203.33898 281.65234,203.70898 284.74971,206.28908 288.57281,207.44306 291.99023,206.58008 292.74023,206.43008 293.2207,206.69047 293.2207,206.98047 291.8636,209.87783 293.29175,212.65737 293.56055,216.2793 299.1573,212.7844 301.45674,207.15553 306.74023,202.60938 302.56117,201.46708 295.15268,197.1924 292.81055,193.83984 Z M 347.16016,193.83984 C 344.10577,199.18311 337.24725,200.47161 333.23047,202.60938 342.98303,213.89626 344.95298,218.26883 346.41016,216.2793 348.00389,212.97283 348.1071,209.87783 346.75,206.98047 348.03993,206.85743 352.33716,208.60324 356.2207,205.26953 358.01171,204.3654 359.26096,203.29252 357.41992,202.96094 352.04544,202.21122 348.82281,198.70948 347.16016,193.83984 Z M 388.2793,199.0293 C 387.7613,201.2885 387.29104,203.5608 386.71094,205.80469 386.3384,206.85731 385.03868,206.34169 384.24805,206.20508 381.99779,205.7087 379.75406,205.18271 377.50977,204.66016 376.81446,206.22178 376.18104,207.87373 376.24414,209.61133 376.29605,210.23921 377.1114,210.20279 377.55078,210.32031 381.29216,211.09597 385.05286,211.77474 388.79492,212.54492 389.5565,212.43515 390.38789,211.93806 390.99219,211.42578 391.35988,210.60823 391.23285,209.60533 391.66211,208.82617 392.50609,208.64277 393.08288,209.68169 393.39844,210.34961 393.8069,211.23127 393.73312,212.24058 394.03906,213.14062 394.68957,214.10268 395.97961,214.2597 397.03711,214.41797 398.22576,214.42334 398.62244,213.02796 398.84961,212.08984 398.88984,211.23779 399.79582,209.53575 398.37891,209.44141 396.18334,208.89176 393.95474,208.46888 391.77344,207.87109 390.93422,207.14453 391.87662,205.91663 391.99609,205.00781 392.45017,203.50618 392.91544,202.00792 393.38086,200.50977 391.84581,199.57784 390.03746,199.24421 388.2793,199.0293 Z M 249.44141,202.11133 C 247.7631,202.18463 245.99881,203.9779 248.0293,205.90625 249.32896,206.99321 251.85047,206.09466 251.5293,204.17969 251.42402,202.64278 250.44839,202.06735 249.44141,202.11133 Z M 310.83984,204.55078 C 309.76784,207.82868 307.41571,209.87789 305.46094,212.2207 302.56375,213.839 302.87547,223.35628 306.91992,218.65039 307.59992,217.83039 307.85008,216.55008 308.33008,215.83008 309.80873,213.04691 308.67639,216.72008 308.41992,217.36914 306.37793,222.97551 309.88943,228.04541 312.60938,220.25977 313.18944,218.33034 314.234,217.28985 313.68945,219.76953 312.48552,224.08836 314.13082,232.67701 316.44922,224.39062 317.05627,221.63745 317.83196,220.00224 317.86914,223.56055 318.01778,229.69658 322.15903,231.58051 322.14062,223.56055 322.14062,222.83055 322.13945,221.13086 322.43945,221.13086 324.58733,230.31695 328.71529,229.14282 326.33008,219.76953 325.99008,218.40953 326.47039,218.49977 327.40039,220.25977 328.22976,222.98103 331.33006,225.20097 331.9375,221.91016 332.05718,220.20032 329.97968,215.5043 331.08984,214.94922 L 331.67969,215.83008 C 333.25838,220.44067 337.75046,221.89193 336.16016,215.73047 335.62016,213.30047 333.42914,211.93023 331.86914,209.99023 330.43914,208.20023 329.33992,205.06055 329.16992,204.56055 327.21893,205.47047 325.44695,206.72296 323.93945,208.25977 320.71945,211.60977 320.01953,212.46094 320.01953,212.46094 320.01953,212.46094 319.31935,211.60977 316.10938,208.25977 314.58979,206.71663 312.80507,205.4609 310.83984,204.55078 Z M 281.75977,206.0293 C 280.51413,206.72921 275.67212,207.71764 277.11914,208.46094 279.37746,209.65378 283.87319,210.53903 284.60938,210.99023 282.40368,213.99278 281.56638,217.34066 281.91016,221.25977 284.87737,218.69375 287.62702,216.90694 291.24023,215 291.83023,214.73 292.12953,214.7307 292.01953,213.9707 291.83631,212.34258 291.72912,210.86734 291.05078,209.41016 287.38513,209.59576 285.85208,208.34456 281.75977,206.0293 Z M 358.21094,206.0293 C 355.4251,207.54012 353.44349,208.63 350.70117,208.69727 349.38722,208.78221 349.0184,211.05041 348.12891,214.2832 347.89891,217.1632 355.90742,217.94603 358.06055,221.25977 358.40433,217.34066 357.56505,213.99278 355.35938,210.99023 356.09557,210.53903 360.59129,209.65378 362.84961,208.46094 364.29663,207.71764 359.45658,206.72921 358.21094,206.0293 Z M 375.80078,206.5 C 375.04421,206.95541 373.3939,208.56112 374.48047,209.36914 376.1029,210.35016 375.37799,207.30317 375.80078,206.5 Z M 250.98828,207.02539 C 250.8288,207.04399 250.67009,207.10358 250.51953,207.21094 249.20744,209.59428 249.64743,212.86034 250.7793,215.28906 251.73375,217.46202 254.09764,220.6558 256.11914,217.48047 256.5149,213.83293 254.34699,210.45644 252.26758,207.64648 251.95391,207.26907 251.46671,206.96958 250.98828,207.02539 Z M 391.91016,209.41016 C 391.74329,210.64787 391.07754,212.96552 393.16992,212.25977 393.2075,211.20731 392.63456,210.14406 391.91016,209.41016 Z M 374.23438,210.11914 C 374.14294,210.11108 374.05392,210.11134 373.9668,210.12109 372.45669,210.29025 371.62333,213.01524 372.33008,214.39258 373.28259,216.19394 375.07702,217.51754 375.51367,219.60547 377.26792,222.17829 373.24005,222.69225 371.99023,220.93945 369.34098,218.71759 366.41944,216.84243 363.69922,214.71094 361.66608,215.01964 358.66278,212.84467 357.83398,212.8457 359.07099,214.58363 358.41181,217.57438 360.08984,218.67188 364.96509,221.13742 369.90059,223.54322 374.41797,226.63477 376.99393,228.19311 379.9172,226.70925 382.54297,226.13672 387.10057,224.75955 391.73766,223.62553 396.22852,222.03906 397.96427,221.26657 400.04843,220.42526 400.95312,218.67383 401.37005,217.55115 401.34934,216.18025 400.19922,215.50977 398.01449,213.91854 397.95615,217.4451 397.24414,218.69531 395.90515,220.73477 393.21563,222.46512 390.74023,221.4375 388.77263,219.86498 391.07392,217.41997 392.76172,216.72266 395.38499,215.32804 392.56356,211.33458 390.35352,212.8418 388.29336,214.35863 388.77005,217.72036 386.27734,218.82812 383.84232,220.12401 380.29858,220.36146 378.25,218.25 376.6588,215.90632 376.42688,212.93412 375.10938,210.46094 374.80187,210.25005 374.50864,210.14333 374.23438,210.11914 Z M 277.38281,211.11719 C 277.0944,211.09997 276.81889,211.11723 276.56055,211.18945 276.26055,211.52945 273.81055,212.9707 273.81055,212.9707 276.1816,212.98415 278.43472,213.45201 280.19922,211.66016 279.22696,211.53242 278.24805,211.16883 277.38281,211.11719 Z M 362.58789,211.11719 C 361.72266,211.16883 360.74179,211.53242 359.76953,211.66016 361.53403,213.45201 363.78911,212.98415 366.16016,212.9707 366.16016,212.9707 363.71016,211.52945 363.41016,211.18945 363.15182,211.11723 362.8763,211.09997 362.58789,211.11719 Z M 399.32617,212.24609 C 399.12753,212.79791 398.76784,213.43074 398.92969,214.0293 400.38328,215.94175 400.74296,212.362 399.32617,212.24609 Z M 282.33984,212.66992 C 272.34084,219.17071 271.45854,220.04833 256.97656,218.76172 252.95629,218.39987 250.62602,225.5118 255.46875,225.62305 257.91643,225.66277 257.43847,222.39069 258.00586,221.76758 260.44475,221.38546 264.81195,222.25553 265.64453,223.67578 263.83021,223.54491 258.92971,220.49655 260.58203,224.3418 260.55205,227.95665 261.93791,221.02341 263.13086,224.71875 264.5519,226.01791 263.27899,230.12951 264.63477,230.17578 264.71361,228.37662 266.82623,225.5143 267.49023,228.80078 269.7908,228.00144 271.39029,224.12139 274.08984,222.82227 276.42661,220.3353 281.15075,219.89266 281.36719,215.83008 281.60835,214.75698 281.78401,213.63722 282.33984,212.66992 Z M 307.10938,219.93945 C 306.30329,220.54456 305.54573,220.74504 304.51953,220.88086 302.66422,223.15007 301.39188,225.26159 301.82031,228.89062 303.5901,228.57121 304.10078,227.98971 305.49023,226.7207 305.49023,226.7207 306.17,226.15023 306,227.24023 305.36101,231.50659 305.14824,235.68291 309.2793,230.85938 309.8493,230.25937 310.45055,230.00922 310.31055,230.94922 308.98506,238.59818 311.87039,238.11064 314.65039,231.89062 315.02039,231.09063 315.75977,230.41063 315.75977,231.89062 315.75977,235.09063 316.48977,239.72094 320.00977,240.96094 323.52977,239.72094 324.25977,235.08064 324.25977,231.89062 324.25977,230.41063 324.99914,231.09064 325.36914,231.89062 327.91755,238.76823 330.8765,238.4037 329.71094,230.94922 329.57094,230.00922 330.17023,230.25937 330.74023,230.85938 334.25482,234.65495 335.32451,232.88267 334.0293,227.24023 333.8493,226.15023 334.5293,226.7207 334.5293,226.7207 335.57979,227.84348 336.70967,228.56043 338.19922,228.89062 338.38862,225.25862 337.62748,223.78425 335.5,220.88086 334.48744,220.83161 333.77468,220.48177 332.90039,219.93945 333.20882,222.97782 333.3496,225.24824 328.27344,224.42383 329.04737,228.96761 324.83241,230.64181 323.15039,226.81055 321.76631,232.32697 317.99497,231.49773 316.86914,226.81055 314.92727,231.00411 311.10049,228.8931 311.88086,224.96094 307.31733,227.64983 306.36307,222.1949 307.10938,219.93945 Z M 258.84961,222.57031 C 258.29795,224.34623 257.61412,225.69527 256.4668,227.15625 255.39534,227.34248 254.30954,227.2509 253.22852,227.24414 252.09967,226.31485 252.16459,223.21162 250.79492,222.80078 247.61822,224.14127 250.40225,230.03355 252.4848,228.94651 253.96707,229.75278 256.56936,229.40555 257.97354,228.36707 260.46186,227.47599 260.29555,224.09126 258.84961,222.57031 Z M 262.08398,224.79492 C 261.53071,225.80636 261.00412,226.79854 260.56836,227.93164 259.26723,228.56291 257.72821,229.93385 256.78516,230.69922 255.0312,230.16055 253.14628,229.87558 251.31055,230.02539 250.10535,233.13792 255.10626,233.91852 257.125,233.63672 262.60836,230.91738 264.00265,229.03474 262.08398,224.79492 Z M 304.92969,228.38086 C 303.42924,229.38105 301.49909,231.50634 300.83984,228.89062 298.98429,232.56533 295.14524,236.38464 291.01953,237.89062 289.81953,238.31063 290.51953,238.88086 290.51953,238.88086 295.4591,242.93218 302.80673,239.38135 306.35938,234.34961 303.94639,233.63875 305.23053,230.01549 304.92969,228.38086 Z M 335.03906,228.38086 C 335.09512,230.01549 336.20204,233.46102 333.78906,234.17188 336.07259,237.50486 340.57615,240.96484 345.13086,240.65039 348.25086,240.08039 349.44922,238.88086 349.44922,238.88086 349.44922,238.88086 350.14922,238.31063 348.94922,237.89062 344.82351,236.38462 340.13877,232.25303 339.13086,228.89062 338.4909,231.42982 336.81486,229.3063 335.03906,228.38086 Z M 266.00781,228.90234 C 265.49395,229.76448 265.0758,230.82741 264.52734,231.89844 260.99188,231.58532 257.92862,235.50431 255.3418,235.19141 256.71424,237.77359 259.65434,236.40702 261.33203,235.07031 265.07669,234.73583 267.69608,233.024 266.00781,228.90234 Z M 309.23047,232.65039 C 308.60661,233.3827 308.08784,233.82467 307.07031,234.08984 305.6678,238.89804 298.48857,240.41617 296.16016,244.66992 295.74966,247.91086 299.47323,246.49498 300.67969,246.18945 304.74942,244.41546 308.61408,241.96875 311.03711,238.15625 308.42746,237.33692 309.09915,235.14621 309.23047,232.65039 Z M 330.74023,232.65039 C 330.87618,235.23413 331.51655,237.36284 328.80078,238.19922 331.46016,242.22893 338.40016,247.12992 342.66016,246.66992 343.89016,246.74992 344.17055,246.24992 343.81055,244.66992 342.26928,240.47047 334.60892,239.93095 332.90039,234.08984 331.88286,233.82467 331.36409,233.3827 330.74023,232.65039 Z M 314.64062,234.14062 C 313.95736,235.74789 313.66202,237.16019 311.86914,238.10938 310.9706,242.33173 306.19514,244.35586 302.7793,246.55078 301.7693,247.98078 301.68016,249.46914 302.16016,250.11914 307.93224,249.61053 314.53301,246.16222 316.68945,240.01953 315.45291,238.25004 315.1965,236.36415 314.64062,234.14062 Z M 325.33008,234.14062 C 324.7742,236.36415 324.51584,238.25004 323.2793,240.01953 325.43574,246.16222 332.03847,249.61053 337.81055,250.11914 338.29055,249.46914 338.19945,247.98078 337.18945,246.55078 334.99493,244.51753 329.29051,242.03937 328.09961,238.10938 326.30673,237.1602 326.01336,235.74789 325.33008,234.14062 Z M 264.14453,236.13477 C 261.02888,236.74864 263.70748,240.87962 263.14844,242.60156 264.83999,242.99586 265.06567,238.61999 267.50195,240.26562 270.36697,240.22545 270.19595,239.65819 267.71094,238.55078 266.35062,237.54382 265.6546,236.02832 264.14453,236.13477 Z M 317.16992,240.53906 C 316.18898,244.83029 313.48589,247.37503 309.33984,249.90039 308.53984,251.28039 308.97977,254.0407 309.50977,254.9707 310.04977,255.9007 310.80984,255.58008 311.58984,254.83008 318.39317,249.46698 319.08709,249.02976 319.51953,243.11914 318.54351,242.49807 317.897,241.57915 317.16992,240.53906 Z M 322.80078,240.53906 C 322.0737,241.57915 321.42524,242.49807 320.44922,243.11914 320.44922,243.11914 320.61039,246.88945 321.65039,248.43945 323.28758,250.8056 328.80959,257.63741 330.46094,254.9707 330.99094,254.0407 331.43086,251.28039 330.63086,249.90039 328.47866,247.67999 323.72108,245.98248 322.80078,240.53906 Z M 266.21484,241.32422 C 266.01849,241.29069 265.79713,241.38518 265.48047,241.48047 264.69711,242.74149 265.39794,243.55626 266.28906,243.81055 267.18018,244.06484 267.01646,242.69999 266.80078,241.93945 266.58256,241.51928 266.4112,241.35774 266.21484,241.32422 Z M 320.0293,248.74023 C 318.99391,250.36904 317.58031,251.5945 315.82031,253.01953 316.23872,256.13355 317.58674,258.98444 320.01953,260.61914 322.64301,258.6041 323.83656,256.33928 324.24023,253.01953 322.61059,251.73928 321.21574,250.43225 320.0293,248.74023 Z M 302,134.04 C 301.66573,135.05497 300.75128,136.22481 300.44891,136.96188 301.49609,137.77159 302.82671,138.01882 304.08,138.33 303.13195,137.03516 302.35032,135.61822 302,134.04 Z M 316.28,133.1 C 316.10313,131.36466 314.31948,131.14818 312.98963,130.59427 311.72667,130.21694 310.34512,129.61261 309.03,130.02 309.25353,132.73277 309.13816,135.49756 308.28291,138.10068 307.48056,139.63476 310.17215,138.83031 311.01631,139.03916 313.51014,138.93096 315.94527,138.20686 318.24391,137.27344 318.18235,135.59942 316.95249,134.48861 316.28,133.1 Z M 286.83,103.69 C 290.55533,102.18748 293.81906,105.09173 297.20065,106.10228 300.74581,107.17967 306.39381,105.35237 306.04344,100.89875 304.98902,100.74096 300.72714,103.10008 299.03625,102.65125 300.61301,103.66521 300.61298,104.86002 298.92344,103.28141 295.78743,100.74569 290.81954,98.847998 287.05652,101.18398 286.22248,101.59541 285.18106,103.70106 286.83,103.69 Z M 317.64,126.8 C 314.55798,125.86207 311.79374,122.91427 310.80375,120.06375 312.49254,119.0421 313.48313,117.76299 310.92891,117.23984 309.49016,115.9363 305.10629,113.78426 306.21,111.99 307.47978,110.5766 302.6174,109.08419 301.82,107.31 298.40973,108.30618 294.65378,107.46924 291.53,105.93 291.24943,109.4502 286.77262,107.66598 287.32922,105.00484 284.32505,103.10202 278.71906,101.76053 277.37117,106.29016 276.38795,107.75091 277.39003,110.84752 278.68375,108.16375 281.44943,105.87686 285.00008,108.12355 287.18734,110.11279 289.07528,111.31867 293.58749,114.58305 288.97,115.47 287.48227,116.4876 282.5782,113.49563 285.29346,116.41004 288.10209,120.25729 293.42487,114.38573 295.33953,118.84797 296.7442,120.0087 296.19475,125.23094 298.26007,122.21172 299.50106,118.26625 300.73448,124.50436 300.54,126.2 300.48368,127.97268 299.26172,131.22067 302.09,128.91 303.70502,130.07269 303.19023,134.66407 305.12172,136.71828 307.49294,141.25951 308.20823,134.75442 308.11949,132.60551 308.42585,130.75454 307.27715,126.55543 308.02484,126.41844 310.23913,129.16702 314.33941,130.95476 317.61301,128.98588 318.4639,128.4975 319.02025,127.05839 317.64,126.8 Z M 290.53,105.75 A 1.1900001,1.09 0 0 1 289.34,106.84 1.1900001,1.09 0 0 1 288.15,105.75 1.1900001,1.09 0 0 1 289.34,104.66 1.1900001,1.09 0 0 1 290.53,105.75 Z" />
  <path
     style="fill:#b96b29"
     d="M 335.0625 71.742188 A 1.43593 1.3824999 0 0 0 333.62695 73.125 A 1.43593 1.3824999 0 0 0 335.0625 74.507812 A 1.43593 1.3824999 0 0 0 336.49805 73.125 A 1.43593 1.3824999 0 0 0 335.0625 71.742188 z M 320 71.992188 A 1.7605073 1.6949999 0 0 0 318.24023 73.6875 A 1.7605073 1.6949999 0 0 0 320 75.382812 A 1.7605073 1.6949999 0 0 0 321.75977 73.6875 A 1.7605073 1.6949999 0 0 0 320 71.992188 z M 304.0625 72.429688 A 1.43593 1.3824999 0 0 0 302.62695 73.8125 A 1.43593 1.3824999 0 0 0 304.0625 75.195312 A 1.43593 1.3824999 0 0 0 305.49805 73.8125 A 1.43593 1.3824999 0 0 0 304.0625 72.429688 z M 311.00586 72.429688 A 1.43593 1.3824999 0 0 0 309.57031 73.8125 A 1.43593 1.3824999 0 0 0 311.00586 75.195312 A 1.43593 1.3824999 0 0 0 312.44141 73.8125 A 1.43593 1.3824999 0 0 0 311.00586 72.429688 z M 328.8125 72.617188 A 1.43593 1.3824999 0 0 0 327.37695 74 A 1.43593 1.3824999 0 0 0 328.8125 75.382812 A 1.43593 1.3824999 0 0 0 330.24805 74 A 1.43593 1.3824999 0 0 0 328.8125 72.617188 z M 339.625 74.492188 A 1.43593 1.3824999 0 0 0 338.18945 75.875 A 1.43593 1.3824999 0 0 0 339.625 77.257812 A 1.43593 1.3824999 0 0 0 341.06055 75.875 A 1.43593 1.3824999 0 0 0 339.625 74.492188 z M 299.75 76.117188 A 1.43593 1.3824999 0 0 0 298.31445 77.5 A 1.43593 1.3824999 0 0 0 299.75 78.882812 A 1.43593 1.3824999 0 0 0 301.18555 77.5 A 1.43593 1.3824999 0 0 0 299.75 76.117188 z M 307.64258 76.179688 A 1.43593 1.3824999 0 0 0 306.20703 77.5625 A 1.43593 1.3824999 0 0 0 307.64258 78.945312 A 1.43593 1.3824999 0 0 0 309.07812 77.5625 A 1.43593 1.3824999 0 0 0 307.64258 76.179688 z M 332.36328 76.304688 A 1.43593 1.3824999 0 0 0 330.92773 77.6875 A 1.43593 1.3824999 0 0 0 332.36328 79.070312 A 1.43593 1.3824999 0 0 0 333.79883 77.6875 A 1.43593 1.3824999 0 0 0 332.36328 76.304688 z M 319.875 76.554688 A 1.7605073 1.6949999 0 0 0 318.11523 78.25 A 1.7605073 1.6949999 0 0 0 319.875 79.945312 A 1.7605073 1.6949999 0 0 0 321.63477 78.25 A 1.7605073 1.6949999 0 0 0 319.875 76.554688 z M 342.5 80.867188 A 1.43593 1.3824999 0 0 0 341.06445 82.25 A 1.43593 1.3824999 0 0 0 342.5 83.632812 A 1.43593 1.3824999 0 0 0 343.93555 82.25 A 1.43593 1.3824999 0 0 0 342.5 80.867188 z M 319.98633 81.117188 A 1.7605073 1.6949999 0 0 0 318.22461 82.8125 A 1.7605073 1.6949999 0 0 0 319.98633 84.507812 A 1.7605073 1.6949999 0 0 0 321.74609 82.8125 A 1.7605073 1.6949999 0 0 0 319.98633 81.117188 z M 297.5 81.867188 A 1.43593 1.3824999 0 0 0 296.06445 83.25 A 1.43593 1.3824999 0 0 0 297.5 84.632812 A 1.43593 1.3824999 0 0 0 298.93555 83.25 A 1.43593 1.3824999 0 0 0 297.5 81.867188 z M 306.94336 81.929688 A 1.7605073 1.6949999 0 0 0 305.18359 83.625 A 1.7605073 1.6949999 0 0 0 306.94336 85.320312 A 1.7605073 1.6949999 0 0 0 308.70312 83.625 A 1.7605073 1.6949999 0 0 0 306.94336 81.929688 z M 332.875 82.117188 A 1.7605073 1.6949999 0 0 0 331.11523 83.8125 A 1.7605073 1.6949999 0 0 0 332.875 85.507812 A 1.7605073 1.6949999 0 0 0 334.63477 83.8125 A 1.7605073 1.6949999 0 0 0 332.875 82.117188 z M 319.98047 92.349609 L 317.7793 93.439453 C 317.0093 93.829453 317.10914 93.709297 316.86914 94.279297 C 316.62914 94.849297 316.89047 95.039453 317.23047 95.189453 C 317.57047 95.339453 320.01953 96.589844 320.01953 96.589844 L 323.0293 95.189453 C 323.6293 94.919453 323.50961 94.640938 323.34961 94.210938 C 323.18961 93.790938 322.84969 93.640547 322.17969 93.310547 L 322.16992 93.310547 C 321.47992 92.990547 319.98047 92.349609 319.98047 92.349609 z M 312.7793 92.650391 A 2.1500001 2.0699999 0 0 0 310.63086 94.720703 A 2.1500001 2.0699999 0 0 0 312.7793 96.789062 A 2.1500001 2.0699999 0 0 0 314.92969 94.720703 A 2.1500001 2.0699999 0 0 0 312.7793 92.650391 z M 327.18945 92.650391 A 2.1500001 2.0699999 0 0 0 325.03906 94.720703 A 2.1500001 2.0699999 0 0 0 327.18945 96.789062 A 2.1500001 2.0699999 0 0 0 329.33984 94.720703 A 2.1500001 2.0699999 0 0 0 327.18945 92.650391 z M 390.36719 200.42969 A 1.28 1.28 0 0 0 389.08789 201.70898 A 1.28 1.28 0 0 0 390.36719 202.99023 A 1.28 1.28 0 0 0 391.64844 201.70898 A 1.28 1.28 0 0 0 390.36719 200.42969 z M 389.42578 204.39453 A 1.28 1.28 0 0 0 388.14648 205.67383 A 1.28 1.28 0 0 0 389.42578 206.95312 A 1.28 1.28 0 0 0 390.70703 205.67383 A 1.28 1.28 0 0 0 389.42578 204.39453 z M 379.29883 206.55078 A 1.2479999 1.2479999 0 0 0 378.05078 207.79883 A 1.2479999 1.2479999 0 0 0 379.29883 209.04688 A 1.2479999 1.2479999 0 0 0 380.54688 207.79883 A 1.2479999 1.2479999 0 0 0 379.29883 206.55078 z M 383.94141 207.61328 A 1.2720001 1.2720001 0 0 0 382.66992 208.88477 A 1.2720001 1.2720001 0 0 0 383.94141 210.15625 A 1.2720001 1.2720001 0 0 0 385.21289 208.88477 A 1.2720001 1.2720001 0 0 0 383.94141 207.61328 z M 388.47461 208.64648 A 1.28 1.28 0 0 0 387.19336 209.92773 A 1.28 1.28 0 0 0 388.47461 211.20703 A 1.28 1.28 0 0 0 389.75391 209.92773 A 1.28 1.28 0 0 0 388.47461 208.64648 z M 396.31641 210.25391 A 1.28 1.28 0 0 0 395.03516 211.5332 A 1.28 1.28 0 0 0 396.31641 212.81445 A 1.28 1.28 0 0 0 397.5957 211.5332 A 1.28 1.28 0 0 0 396.31641 210.25391 z "
     id="path46" />
</svg>
