<?xml version="1.0" encoding="UTF-8" standalone="no"?>
<svg
   xmlns:dc="http://purl.org/dc/elements/1.1/"
   xmlns:cc="http://creativecommons.org/ns#"
   xmlns:rdf="http://www.w3.org/1999/02/22-rdf-syntax-ns#"
   xmlns:svg="http://www.w3.org/2000/svg"
   xmlns="http://www.w3.org/2000/svg"
   xmlns:sodipodi="http://sodipodi.sourceforge.net/DTD/sodipodi-0.dtd"
   xmlns:inkscape="http://www.inkscape.org/namespaces/inkscape"
   viewBox="0 0 1440 720"
   version="1.1"
   id="svg107"
   sodipodi:docname="ic_flag_bn.svg"
   inkscape:version="0.92.1 r15371">
  <metadata
     id="metadata113">
    <rdf:RDF>
      <cc:Work
         rdf:about="">
        <dc:format>image/svg+xml</dc:format>
        <dc:type
           rdf:resource="http://purl.org/dc/dcmitype/StillImage" />
        <dc:title></dc:title>
      </cc:Work>
    </rdf:RDF>
  </metadata>
  <defs
     id="defs111" />
  <sodipodi:namedview
     pagecolor="#ffffff"
     bordercolor="#666666"
     borderopacity="1"
     objecttolerance="10"
     gridtolerance="10"
     guidetolerance="10"
     inkscape:pageopacity="0"
     inkscape:pageshadow="2"
     inkscape:window-width="2143"
     inkscape:window-height="1146"
     id="namedview109"
     showgrid="false"
     inkscape:zoom="0.44027778"
     inkscape:cx="476.40983"
     inkscape:cy="45.374607"
     inkscape:window-x="0"
     inkscape:window-y="0"
     inkscape:window-maximized="0"
     inkscape:current-layer="svg107" />
  <rect
     width="1440"
     height="720"
     fill="#f7e017"
     id="rect2" />
  <path
     d="M0,50V370L1440,520V350z"
     fill="#fff"
     id="path4" />
  <path
     d="M0,220V370L1440,670V520z"
     fill="#000"
     id="path6" />
  <g
     id="g49"
     style="fill:#cf1126">
    <g
       id="hand" />
    <g
       id="use27"
       transform="matrix(-1,0,0,1,1440,0)" />
    <path
       id="path43"
       d="M 722.17969,149.08008 C 718.48969,149.08008 715.75977,150.45961 715.75977,152.09961 715.75977,153.1363 716.85519,154.0702 718.58984,154.61914 V 203.40039 L 725.0293,203.42969 724.96875,180.0957 746.80078,190.75977 734.49023,174.30078 751.30078,168.84961 724.9043,155.24609 724.90234,154.84375 C 727.12262,154.35736 728.58008,153.29839 728.58008,152.09961 728.58008,150.45961 725.86969,149.08008 722.17969,149.08008 Z M 716.95,197.56 C 712.49,197.64 707.79,197.7 703.56,198.53 700.63,199.11 697.97,200.06 695.75,201.63 696.11,210.16 736.75,213.72 747.65,201.79 745.36,200.12 742.56,199.13 739.48,198.53 735.41,197.74 730.91,197.66 726.64,197.59 726.64,199.93 726.66,202.28 726.66,204.63 L 716.95,204.6 Z M 694.89,204.25 C 693.87,217.36 690.54,226.51 685.91,236.6 L 697.01,226.31 704.73,235.48 713.09,226.15 721.62,234.03 729.82,225.83 738.34,235.8 745.74,227.6 758.28,236.6 C 753.73,226.51 747.57,217.96 748.34,203.76 736.19,212.79 707.32,214.42 694.89,204.25 Z M 726.66992,233.0293 721.53906,237.08984 716.93945,233.61914 V 256.25781 C 705.42271,245.29556 689.45847,242.40982 676.24219,244.67773 661.0253,246.98656 650.22281,258.85197 636.8418,265.21094 626.184,271.311 613.7069,271.55754 601.8125,270.54297 590.24249,265.75251 598.90365,278.46066 603.02148,281.79492 611.73304,290.56469 625.50922,287.84288 635.11914,282.25 641.67874,279.64469 653.48303,271.548 658.23047,276.29883 646.18884,277.89172 636.2927,285.47613 624.91211,289.10156 614.31487,288.4313 619.62169,298.34556 626.51367,299.32227 639.35372,302.88 647.57387,290.05779 658.58594,286.38086 660.53107,284.54435 674.24699,281.6026 670.2793,285.25 659.03647,287.53808 649.1332,293.63793 640.26953,300.65039 635.20446,307.7359 651.51297,311.22049 656.89258,307.77148 666.11745,303.60466 672.24392,294.58276 681.66992,290.54688 692.72187,287.70753 676.90856,295.63947 674.3418,297.94922 669.69058,302.65274 654.0668,309.68327 664.89062,315.66016 674.84093,319.04161 684.96877,312.21064 691.75,305.38867 694.84974,303.05364 707.11845,288.24837 704.64062,295.4375 696.92684,300.09596 699.51226,313.33473 709.68945,307.99414 709.39126,312.53301 703.44328,322.66397 711.60938,326.89062 716.53001,333.39383 716.29849,320.91714 721.99219,322.86328 725.35674,328.58206 730.65159,329.52603 733.80273,322.86328 739.9513,317.35635 723.85564,304.53238 737.00391,308.79102 748.06191,306.68291 736.63637,296.27221 736.42969,292.07031 745.22748,299.36291 752.02102,309.47292 762.89062,314.02344 768.75558,319.48203 788.143,313.90801 778.48633,306.11719 771.78818,299.43435 763.51599,294.78648 755.62695,289.78125 761.87936,288.07334 770.15144,296.79626 776.21484,300.88281 782.61764,307.77301 794.94899,311.77014 802.07422,303.80469 803.87108,296.61931 789.7563,292.9516 784.52734,288.63086 782.07205,285.53937 767.98474,286.07758 771.85938,282.35352 781.73363,283.87113 791.13017,288.56212 798.89844,294.79688 805.69926,301.18641 822.81352,299.89477 823.0293,289.0957 813.21068,288.08838 804.78785,282.40302 795.75781,278.90039 793.51841,276.46268 779.83611,276.58764 785.1543,273.74023 800.38879,274.4211 812.39952,288.6866 828.18945,285.84375 836.17871,284.2506 845.34044,275.86577 844.96094,268.00977 833.04548,270.8475 820.02604,270.76479 808.62109,265.95312 795.39186,261.49862 785.86365,250.30451 772.5625,246.11133 750.13064,240.83652 740.55201,247.01547 726.66992,255.74219 Z M 721.057,382.6355 C 718.6758,382.6305 717.2062,385.634 715.589,387.2076 714.455,389.3176 713.0772,392.8462 710.2837,390.0872 705.8395,387.4944 705.0531,381.8124 705.0817,377.1292 705.40168,364.20112 713.62568,354.04626 710.82206,341.9082 709.49546,336.8164 705.40836,333.2851 702.26196,329.3132 702.47596,327.7767 706.49696,328.61634 708.01026,328.90842 711.36906,329.75978 713.37666,332.73332 715.88056,334.83432 717.66236,334.29495 716.93506,330.69482 717.76446,329.00132 717.82576,326.61922 720.99746,323.47852 722.30516,326.88922 724.26396,329.05662 722.24256,333.35352 724.77376,334.70362 727.18506,333.81079 728.37466,331.17532 730.64036,329.98362 732.86986,328.46322 736.01796,328.29362 738.41846,329.48715 739.2633,331.69975 735.77826,333.54195 734.76886,335.46425 725.73148,349.12473 733.53788,356.05014 735.68336,368.01025 736.69596,373.66275 736.66239,379.59925 735.19933,385.16925 734.32478,388.55085 731.39723,390.80945 728.37353,392.21405 726.13978,388.94852 723.95807,384.80664 721.057,382.6355 Z M 729.827,452.2851 C 727.704,447.9593 724.7057,444.1188 721.7814,440.3241 719.0241,438.7091 717.4943,443.9823 715.6609,445.4955 712.8043,449.7724 709.2175,454.1517 709.0439,459.5315 707.4368,462.0327 704.4395,457.4904 703.1477,455.9958 700.6804,452.5047 698.8121,448.3752 699.118,444.0088 696.94136,430.20993 707.86803,418.0705 707.4948,406.3228 707.71896,401.7323 706.78735,396.6646 703.0686,393.5778 699.5306,390.802 705.3602,390.2104 707.2118,391.6498 710.3804,391.86237 712.0943,397.0979 714.9889,395.8018 716.1421,393.0672 716.3713,389.805 718.7484,387.6723 721.0822,384.4764 723.5214,389.0285 724.3199,391.1603 725.9666,393.0326 724.2268,397.6669 726.9016,397.7885 730.1078,395.5412 732.3939,391.7658 736.4934,390.9438 738.1557,389.99545 740.9968,390.81716 738.8048,392.7286 735.7709,395.5729 733.1786,399.1288 732.6262,403.3596 731.96867,420.13033 743.99398,433.78984 740.9747,449.2736 739.9315,453.9176 736.7765,457.919 732.9434,460.6146 729.94896,460.67791 731.03997,454.50026 729.827,452.2851 Z M 685.841,451.98 C 686.06523,449.7613 688.8277,453.2213 690.1327,453.4541 692.583,454.8147 695.2325,455.9343 698.0538,456.108 701.6109,457.637 703.8103,461.1426 707.2054,462.9709 708.7818,464.1987 714.3598,466.6119 713.3236,462.70669 712.0166,460.66669 711.1179,458.08249 712.243,455.74539 714.1348,451.59509 717.0448,447.98159 719.9736,444.51939 722.1263,443.79943 723.5675,448.04559 725.1074,449.47619 727.2382,452.75479 729.8078,456.75549 728.5544,460.82819 727.3346,462.33689 726.5328,466.87539 729.7953,465.35009 733.8166,463.58089 737.1111,460.60829 740.4463,457.83259 743.3646,455.79419 747.1002,455.65019 750.1588,453.86269 751.5765,453.50348 754.5294,450.66809 755.1449,452.24019 740.89392,483.93667 695.53449,483.80705 685.841,451.98 Z M 930.84,307.97 C 931.9624,308.1684 932.6454,309.2362 933.2464,310.1073 933.47865,310.98046 932.40864,311.9187 932.2383,312.8669 930.9256,316.1588 930.4299,319.7699 930.8221,323.2929 930.9085,325.7947 930.01329,328.2387 928.7382,330.3578 928.37027,328.795 926.9218,327.6714 925.3517,327.5172 924.78056,327.41677 923.941,327.70555 924.2738,326.83469 924.67261,322.04939 925.4018,317.23689 927.0745,312.71569 927.72283,311.10069 928.4589,309.40099 929.858,308.29539 930.14167,308.09353 930.48104,307.92089 930.84005,307.97027 Z M 940.27,306.62 C 942.3342,307.23274 941.9395,309.7787 941.2858,311.3365 940.29699,315.6521 940.1422,320.1097 940.2228,324.5205 936.4317,327.5208 934.0604,331.8706 931.9012,336.1065 930.5478,338.9369 929.2646,341.8583 928.7456,344.9716 925.6699,345.9904 922.9784,347.9176 920.5746,350.0489 921.52716,347.1665 923.6512,344.936 925.0788,342.3048 926.6304,339.5676 928.1124,336.7135 928.7692,333.6125 931.7273,330.4549 933.3564,325.982 932.71,321.6605 932.57733,316.8843 934.1193,311.9491 937.3159,308.3495 938.1208,307.55674 939.0817,306.6803 940.2699,306.6199 Z M 948.56,304.19 C 951.5229,304.66847 951.4221,308.4438 950.051,310.429 948.5927,314.7171 948.1956,319.3739 948.9851,323.838 943.7176,330.0045 939.6384,337.381 938.4091,345.478 938.3792,348.5217 935.1764,349.5292 933.1001,351.0331 928.2289,354.1347 922.7521,356.3843 918.4141,360.2657 917.50124,361.24172 916.8124,362.2928 917.4575,360.3007 918.13445,357.7544 918.4826,354.9431 920.4782,353.0158 923.2127,350.0768 926.6282,347.453 930.6112,346.5565 930.94319,342.4425 932.9025,338.6634 934.7129,335.0245 936.7195,331.5453 938.8155,327.818 942.2536,325.5619 942.11526,319.4639 942.2151,313.0669 944.8393,307.4399 945.6089,305.9944 946.7425,304.2769 948.559,304.19 Z M 958.47,302.7 C 961.7275,305.9606 959.2401,311.9712 959.41626,316.243 957.72836,329.401 955.63126,342.727 950.71926,355.113 944.70426,367.215 931.92826,373.686 924.18626,384.381 921.41876,389.536 922.40136,395.736 921.81816,401.375 921.36008,416.741 921.50223,432.118 921.77116,447.486 912.74441,452.8227 893.43796,455.54246 884.81916,446.5895 885.20151,420.0895 885.44956,393.5795 885.80205,367.0835 888.49235,358.965 896.75305,354.7635 902.93105,349.5695 908.03025,344.5436 912.77505,339.1345 917.11905,333.4705 919.74085,329.053 929.98705,327.4613 926.28025,335.1469 924.10675,341.8007 918.55985,346.7569 917.17115,353.7489 916.86773,357.5805 912.29355,364.6279 916.19801,366.8629 918.68171,362.6413 922.28031,359.0479 926.88001,356.9055 931.31241,353.6011 938.63901,352.2255 940.23901,346.3885 941.41351,338.1086 945.65421,330.6065 951.12601,324.4025 949.71581,316.9657 951.12101,307.6655 957.54941,302.9125 L 958.47042,302.69996 958.47055,302.69994 Z M 925.0488,453.7516 C 919.81216,465.79681 887.01435,465.9037 883.443,455.043 883.04178,453.7194 882.79067,451.816 884.28401,451.073 898.94639,459.83852 911.62362,458.35635 921.9897,449.60722 923.9108,449.30705 925.4178,451.7788 925.0488,453.7516 Z M 928.8617,464.4276 C 917.80496,476.10229 886.26702,475.62018 880.3165,464.99322 879.42029,463.31642 880.10357,460.87672 882.2162,460.74562 900.36315,469.10909 909.15335,469.06079 925.61235,459.45798 927.7258,459.13943 929.9277,462.0807 928.8617,464.4276 Z M 932.3428,474.5971 C 924.31575,485.15468 883.87637,486.04428 876.2274,475.03852 875.0205,472.86412 877.20748,470.69232 879.4133,471.12772 899.30215,479.6163 911.56453,478.90405 928.36025,469.81282 930.5084,469.50423 933.2961,471.992 932.3428,474.5971 Z M 509.16,307.97 C 508.0376,308.1684 507.3546,309.2362 506.7536,310.1073 506.52135,310.98046 507.59136,311.9187 507.7617,312.8669 509.0744,316.1588 509.5701,319.7699 509.1779,323.2929 509.0915,325.7947 509.98671,328.2387 511.2618,330.3578 511.62973,328.795 513.0782,327.6714 514.6483,327.5172 515.21944,327.41677 516.059,327.70555 515.7262,326.83469 515.32739,322.04939 514.5982,317.23689 512.9255,312.71569 512.27717,311.10069 511.5411,309.40099 510.142,308.29539 509.85833,308.09353 509.51896,307.92089 509.15995,307.97027 Z M 499.73,306.62 C 497.6658,307.23274 498.0605,309.7787 498.7142,311.3365 499.70301,315.6521 499.8578,320.1097 499.7772,324.5205 503.5683,327.5208 505.9396,331.8706 508.0988,336.1065 509.4522,338.9369 510.7354,341.8583 511.2544,344.9716 514.3301,345.9904 517.0216,347.9176 519.4254,350.0489 518.47284,347.1665 516.3488,344.936 514.9212,342.3048 513.3696,339.5676 511.8876,336.7135 511.2308,333.6125 508.2727,330.4549 506.6436,325.982 507.29,321.6605 507.42267,316.8843 505.8807,311.9491 502.6841,308.3495 501.8792,307.55674 500.9183,306.6803 499.7301,306.6199 Z M 491.44,304.19 C 488.4771,304.66847 488.5779,308.4438 489.949,310.429 491.4073,314.7171 491.8044,319.3739 491.0149,323.838 496.2824,330.0045 500.3616,337.381 501.5909,345.478 501.6208,348.5217 504.8236,349.5292 506.8999,351.0331 511.7711,354.1347 517.2479,356.3843 521.5859,360.2657 522.49876,361.24172 523.1876,362.2928 522.5425,360.3007 521.86555,357.7544 521.5174,354.9431 519.5218,353.0158 516.7873,350.0768 513.3718,347.453 509.3888,346.5565 509.05681,342.4425 507.0975,338.6634 505.2871,335.0245 503.2805,331.5453 501.1845,327.818 497.7464,325.5619 497.88474,319.4639 497.7849,313.0669 495.1607,307.4399 494.3911,305.9944 493.2575,304.2769 491.441,304.19 Z M 481.53,302.7 C 478.2725,305.9606 480.7599,311.9712 480.58374,316.243 482.27164,329.401 484.36874,342.727 489.28074,355.113 495.29574,367.215 508.07174,373.686 515.81374,384.381 518.58124,389.536 517.59864,395.736 518.18184,401.375 518.63992,416.741 518.49777,432.118 518.22884,447.486 527.25559,452.8227 546.56204,455.54246 555.18084,446.5895 554.79849,420.0895 554.55044,393.5795 554.19795,367.0835 551.50765,358.965 543.24695,354.7635 537.06895,349.5695 531.96975,344.5436 527.22495,339.1345 522.88095,333.4705 520.25915,329.053 510.01295,327.4613 513.71975,335.1469 515.89325,341.8007 521.44015,346.7569 522.82885,353.7489 523.13227,357.5805 527.70645,364.6279 523.80199,366.8629 521.31829,362.6413 517.71969,359.0479 513.11999,356.9055 508.68759,353.6011 501.36099,352.2255 499.76099,346.3885 498.58649,338.1086 494.34579,330.6065 488.87399,324.4025 490.28419,316.9657 488.87899,307.6655 482.45059,302.9125 L 481.52958,302.69996 481.52945,302.69994 Z M 514.9512,453.7516 C 520.18784,465.79681 552.98565,465.9037 556.557,455.043 556.95822,453.7194 557.20933,451.816 555.71599,451.073 541.05361,459.83852 528.37638,458.35635 518.0103,449.60722 516.0892,449.30705 514.5822,451.7788 514.9512,453.7516 Z M 511.1383,464.4276 C 522.19504,476.10229 553.73298,475.62018 559.6835,464.99322 560.57971,463.31642 559.89643,460.87672 557.7838,460.74562 539.63685,469.10909 530.84665,469.06079 514.38765,459.45798 512.2742,459.13943 510.0723,462.0807 511.1383,464.4276 Z M 507.6572,474.5971 C 515.68425,485.15468 556.12363,486.04428 563.7726,475.03852 564.9795,472.86412 562.79252,470.69232 560.5867,471.12772 540.69785,479.6163 528.43547,478.90405 511.63975,469.81282 509.4916,469.50423 506.7039,471.992 507.6572,474.5971 Z M 608.401,469.513 C 584.031,436.278 576.351,392.396 583.79,352.273 587.7435,334.006 595.719,315.727 609.334,302.719 598.484,325.722 594.818,352.088 600.6041,377.009 609.5931,426.762 651.6401,469.88278 701.9441,477.16878 722.84788,480.52071 742.4311,475.84144 761.4401,469.6716 803.3751,454.8926 835.3191,415.0886 839.2171,370.5926 842.5534,346.5146 838.85687,321.4786 828.0101,299.6766 834.1926,302.9458 841.9971,315.7636 846.5991,324.3836 862.6021,355.3866 863.3331,392.5386 853.9117,425.6236 841.1317,467.7206 808.9467,504.6016 766.4007,518.0056 747.0927,524.3137 726.5587,526.2371 697.15935,523.8519 667.76,521.4667 630.846,501.372 608.401,469.513 Z M 695.74,569.72 C 676.33597,567.32409 657.43907,560.6746 641.31,549.57 643.50037,563.22735 627.97431,569.22894 617.53871,562.65465 605.52901,556.03493 595.47628,545.08227 581.29988,542.85766 571.55481,539.31216 559.83253,546.73658 552.38672,547.16547 546.76561,532.83914 573.68937,534.56972 563.50844,522.30391 562.86549,509.22928 580.33267,506.13018 589.97,510.51 600.92694,514.21106 583.58918,499.6798 588.12,493.62 589.73819,476.21184 611.97756,477.54414 619.62,489.84 648.84789,518.73619 690.4635,535.91629 731.79844,531.30625 767.51717,528.43188 800.64208,510.45826 826.14984,485.85672 834.94945,476.9834 851.90264,484.13594 851.29643,496.65537 852.83256,502.3941 841.02017,514.53493 853.27279,508.69892 862.68341,505.12576 879.33697,510.17614 876.92844,522.43609 872.72171,528.34272 871.4207,533.34212 880.46455,532.88137 889.43671,534.56592 891.18596,554.86903 879.66953,545.43768 862.97284,539.15676 843.66885,543.95394 830.87,556.09 824.08569,564.80948 803.55971,568.04 801.39625,554.17562 804.10439,538.77852 788.09117,558.97043 780.68332,558.87045 753.97769,569.53965 724.25454,572.90453 695.74,569.72 Z"
       inkscape:connector-curvature="0" />
  </g>
  <g
     id="g105"
     style="fill:#f7e017">
    <path
       id="path103"
       d="M 783.79,554.79 C 783.62731,558.00844 778.31627,555.64999 780.90256,553.51145 781.95841,552.69231 783.79305,553.36822 783.79,554.79 Z M 777.5,556.89 C 777.33731,560.10844 772.02627,557.74999 774.61256,555.61145 775.66841,554.79231 777.50305,555.46822 777.5,556.89 Z M 834.93,512.02 C 832.28262,507.1051 830.31626,516.06327 834.93,512.02 Z M 779.66,526.33 C 777.00487,521.42335 775.04558,530.34294 779.66,526.33 Z M 819.74,530.49 C 825.37303,525.27083 825.07713,517.28616 825.01,510.25 829.18807,508.98728 838.59304,502.38551 834.21281,500.07922 828.83563,505.64378 819.25275,507.05191 821.86314,517.06891 823.56618,523.32389 814.15972,529.68762 815.6,533.32 817.25959,532.84154 818.52764,531.6413 819.74,530.49 Z M 780.7,552.27 C 787.18807,550.17951 800.68585,535.89414 788.4825,534.38266 789.07503,530.29381 787.26396,516.92949 783.95906,527.32906 788.88272,532.06199 775.28651,540.0055 782.07094,539.47016 786.00888,534.20189 792.8668,541.56213 787.01317,545.05723 782.05457,549.52787 765.20332,556.94732 766.125,545.22875 768.2968,533.85908 754.9074,555.3119 766.3225,553.8525 771.13762,555.03491 776.28726,554.58018 780.7,552.27 Z M 810.84,505.69 C 802.83529,506.69642 804.34022,525.31941 813.61625,518.44 814.9115,527.02941 805.28667,534.1794 798.8925,539.08375 797.68094,544.48817 810.60494,535.06692 812.27688,531.19016 817.47663,524.47527 818.19433,514.36764 815.0725,506.73203 814.13512,505.32691 812.25772,505.7787 810.84,505.69 Z M 811.06,509.59 C 817.00013,511.76851 807.43233,521.03362 808.75625,511.3 809.0355,510.2725 810.03024,509.56235 811.06,509.59 Z M 596.66,502.09 C 591.12916,503.5012 602.13427,507.29176 601.70188,511.40469 604.41245,516.69443 613.02293,513.26535 615.69973,516.43659 614.48334,526.65493 631.58907,513.8644 625.37375,509.02875 618.10062,506.30152 607.87086,518.60963 602.92814,506.77371 601.38146,504.69327 599.48208,502.27289 596.66,502.09 Z M 621.12,511.84 C 627.03473,516.55025 614.18579,516.70629 621.12,511.84 Z M 634.12,525.57 C 636.0372,521.24002 642.14282,514.97256 640.5475,511.36828 633.90975,512.34135 634.22932,524.4345 631.14,528.11 632.4122,527.63601 633.27459,526.56237 634.12,525.57 Z M 693.88,555.84 C 697.64311,550.92722 700.20188,538.48446 697.29274,534.98833 690.06227,538.52789 699.66778,553.42895 688.99755,554.06417 685.38562,552.6076 687.00741,545.51869 681.035,549.74114 674.60239,554.88204 676.87992,542.93467 669.99902,546.79757 664.98102,548.30395 666.34821,539.75895 659.88627,542.61324 653.30561,542.28243 639.92375,541.89404 641.3582,532.5192 643.14837,527.29079 647.42202,521.28728 648.97848,517.24774 638.53171,516.23809 644.70594,531.53633 635.03162,533.2452 628.88762,535.79253 622.3139,519.37406 620.01997,526.63355 622.27801,536.11167 635.36716,532.97165 639.38617,540.73805 646.19317,544.70649 654.68322,544.07704 661.69977,546.17567 662.12746,552.77964 673.66222,546.2038 671.27171,553.46451 676.49488,554.54624 682.56261,551.29741 685.52974,557.28254 688.25151,558.18841 691.65802,557.69599 693.88,555.84 Z M 708.89,553.43 C 708.68927,547.90269 712.98633,539.33021 710.02328,535.63469 704.07381,536.87034 707.40834,542.81894 706.78844,546.92531 707.26201,551.2682 703.18269,565.77087 708.51094,554.74891 Z M 725.81,557.65 C 726.6953,550.93326 727.81114,541.46442 725.38453,536.02078 719.06762,540.08769 726.33066,549.76149 723.63882,556.55198 723.52554,559.26033 724.18111,563.27042 725.81,557.65 Z M 733.02,562.89 C 743.23082,561.54303 748.58646,549.35509 739.65027,542.50594 734.86133,538.84625 731.44578,549.06151 738.35297,549.1 744.28854,555.53171 737.15816,557.89689 732.09172,558.91281 730.84657,560.51257 728.86625,566.1911 733.02,562.89 Z M 711.05,563.82 C 716.45049,563.3035 723.88672,550.20044 717.5725,549.32734 712.48447,552.31763 717.76778,562.26976 708.56179,561.52628 704.04391,564.28701 692.65006,559.07541 691.69,563.21 697.45613,566.25759 704.88289,564.75024 711.05,563.82 Z M 849.05,418.11 C 845.09707,413.37488 839.87622,405.68556 834.61875,404.535 834.29666,411.55928 845.80618,416.12085 849.2725,419.28125 Z M 840.29,443.18 C 847.34844,437.18211 854.90735,427.10015 844.09625,419.99828 841.00224,416.85345 828.6434,404.53201 832.98,416.02 838.55707,417.2609 852.82445,431.04113 843.6759,432.38496 840.92136,428.61441 830.93963,420.79307 836.00937,430.39062 843.96143,432.89988 837.76428,447.56285 833.86176,437.67777 831.65404,434.49233 819.96271,420.51535 823.00125,431.56391 829.61624,432.76379 834.01161,449.35057 840.29,443.18 Z M 820.66,445.4 C 822.39058,440.9793 827.6,432.58208 819.01,437.98875 817.02553,436.30134 825.91124,432.38754 818.59953,432.13313 810.53089,435.74705 818.77787,442.25991 819.61938,446.11953 Z M 611.82,453.09 C 614.68718,449.47247 609.28233,438.37832 618.5625,443.90125 624.73169,445.9239 622.852,450.63294 621.08156,454.30266 635.07457,452.0344 619.83605,436.67298 610.97742,439.73299 603.77388,439.87788 613.62398,456.99126 603.88081,449.23152 595.01932,443.15041 595.00784,424.87253 608.04,424.66625 597.13559,419.37452 589.44301,435.3621 595.24875,443.73375 598.18352,448.82435 605.51919,457.27807 611.82,453.09 Z M 786.2,466.82 C 783.1975,460.64479 781.70242,472.0411 786.2,466.82 Z M 674.15,476.74 C 671.4035,472.88878 669.63299,481.33279 674.15,476.74 Z M 633.03,455.28 C 628.35655,458.45945 619.69048,472.05398 615.19393,459.77829 610.41095,454.17243 609.27457,466.33605 615.95253,466.04609 619.6929,468.15893 619.6178,472.36484 623.962,473.29395 623.11044,476.92778 621.08243,487.00258 626.38918,478.93665 634.66557,478.02877 646.17749,479.66543 650.86034,469.32727 657.30537,467.01345 653.54581,458.91172 649.63823,466.33063 647.38176,471.13496 637.13207,479.64702 634.98858,474.21609 642.51168,471.14798 638.50625,464.13576 631.8448,468.59731 626.89367,473.28414 620.10127,470.09417 627.31515,464.9009 627.67184,462.49357 640.22909,455.21024 633.03,455.28 Z M 634.8425,470.249 C 635.76433,474.91515 626.78334,471.42857 634.8425,470.24899 Z M 629.1237,474.1552 C 635.52951,475.58599 625.28597,477.2655 629.1237,474.1552 Z M 695.94,485.8 C 693.24946,481.55837 692.91602,490.46066 695.94,485.8 Z M 645.1,491.48 C 642.43025,487.38369 642.30532,496.00476 645.1,491.48 Z M 828.66,443.69 C 827.42512,448.70542 829.02157,456.02807 820.35916,455.6962 811.50401,456.13011 811.4329,474.30666 802.62206,463.82179 795.77556,461.32849 796.83545,476.77966 793.30671,467.12304 783.41539,466.32544 800.46972,481.64512 789.09951,484.02674 781.88449,487.93353 782.91067,470.44897 779.03138,480.78735 776.44185,478.41799 775.65785,467.75111 772.46726,476.60142 775.52005,482.71211 777.06085,490.20531 778.92126,496.5988 779.38867,491.35515 778.85625,485.32356 786.07446,488.27939 795.65255,489.46945 796.90012,477.1261 797.51622,472.88173 812.28614,470.6307 804.04661,488.41343 796.85963,492.94446 789.04699,500.89496 804.96529,492.43211 805.24954,488.07437 810.45325,481.54695 804.41574,466.54295 817.74735,469.5967 822.94204,465.94533 819.74503,457.65541 828.1023,456.0869 831.44247,453.7499 833.02114,445.38259 828.66,443.69 Z M 817.629,462.44 C 823.23247,469.0242 809.30754,467.01264 817.629,462.44 Z M 802.159,467 C 812.3033,471.54985 794.23541,472.0219 802.159,467 Z M 672.1,495.6 C 678.91681,494.49181 676.15281,475.01517 672.57205,486.83348 674.4812,499.99736 651.21065,492.74153 663.06063,483.36141 663.26145,478.66343 655.40864,490.59021 656.9375,482.3525 652.43834,481.04059 650.08596,491.88283 645.87,484.24 648.81194,477.519 657.85383,472.25106 659.40625,466.51 651.57463,467.2561 647.51969,478.72778 642.09375,484.565 642.00127,492.6257 653.729,488.795 656.27,487.00853 654.305,496.45712 665.15782,500.23725 672.1,495.6 Z M 683.94,487.22 C 677.31485,488.09279 673.28911,496.61892 679.4025,500.2075 672.36465,507.71383 661.14058,504.56213 652.98672,500.91641 651.08303,509.67563 670.74606,510.02597 677.28688,505.78734 681.95781,504.49635 683.36167,496.42833 688.79558,498.5035 695.11817,498.3319 694.38726,506.33951 702.25875,503.92625 710.64538,506.87383 719.30406,505.1075 728.25,506.34 739.2762,510.73941 746.68862,498.34194 755.3123,496.13096 749.54735,495.80231 736.54152,487.95192 735.53875,496.55125 743.49737,493.85974 748.19103,501.85417 738.21063,503.09672 731.95343,504.47727 725.16705,502.50708 720.24878,500.98943 713.45881,504.54022 707.79195,499.54523 699.78656,500.995 698.07313,497.58032 699.51734,492.59672 692.95508,495.93539 684.65109,498.79694 690.20803,487.66458 683.94,487.22 Z M 682.5,491.38 C 688.82014,496.45493 675.32029,495.35706 682.5,491.38 Z M 768.41,473.28 C 760.33101,478.51228 773.507,486.3971 771.9201,494.12087 775.54267,508.44146 759.95816,499.39967 753.44006,504.36529 749.48132,505.01688 747.10783,498.40936 747.63485,506.596 748.16366,510.78925 757.5019,505.0408 755.66186,512.58096 763.41446,518.54224 764.31819,504.32216 772.08578,504.68982 780.1019,495.8255 771.19288,482.53161 768.40992,473.28066 Z M 759.34,506 C 766.55322,508.67656 756.83506,514.71003 757.40096,506.99058 L 758.10067,506.21729 759.3399,505.99998 Z"
       inkscape:connector-curvature="0" />
  </g>
</svg>
