<?xml version="1.0" encoding="UTF-8" standalone="no"?>
<svg
   xmlns:dc="http://purl.org/dc/elements/1.1/"
   xmlns:cc="http://creativecommons.org/ns#"
   xmlns:rdf="http://www.w3.org/1999/02/22-rdf-syntax-ns#"
   xmlns:svg="http://www.w3.org/2000/svg"
   xmlns="http://www.w3.org/2000/svg"
   xmlns:sodipodi="http://sodipodi.sourceforge.net/DTD/sodipodi-0.dtd"
   xmlns:inkscape="http://www.inkscape.org/namespaces/inkscape"
   viewBox="0 0 920 460"
   version="1.1"
   id="svg8"
   sodipodi:docname="ic_flag_nf.svg"
   inkscape:version="0.92.1 r15371">
  <metadata
     id="metadata14">
    <rdf:RDF>
      <cc:Work
         rdf:about="">
        <dc:format>image/svg+xml</dc:format>
        <dc:type
           rdf:resource="http://purl.org/dc/dcmitype/StillImage" />
        <dc:title></dc:title>
      </cc:Work>
    </rdf:RDF>
  </metadata>
  <defs
     id="defs12" />
  <sodipodi:namedview
     pagecolor="#ffffff"
     bordercolor="#666666"
     borderopacity="1"
     objecttolerance="10"
     gridtolerance="10"
     guidetolerance="10"
     inkscape:pageopacity="0"
     inkscape:pageshadow="2"
     inkscape:window-width="1413"
     inkscape:window-height="741"
     id="namedview10"
     showgrid="false"
     inkscape:zoom="0.68913043"
     inkscape:cx="99.827104"
     inkscape:cy="321.92163"
     inkscape:window-x="0"
     inkscape:window-y="0"
     inkscape:window-maximized="0"
     inkscape:current-layer="svg8" />
  <rect
     width="920"
     height="460"
     fill="#007934"
     id="rect2" />
  <rect
     width="360"
     height="460"
     x="280"
     fill="#fff"
     id="rect4" />
  <path
     style="fill:#007934"
     d="M 463.32,30.575 C 461.91148,41.135979 463.99365,59.741958 453.04018,58.614319 463.91143,62.860837 456.40576,69.274835 452.87009,68.285916 462.5983,73.235717 459.59836,79.483615 449.64958,78.00589 457.73075,80.572845 464.07001,99.730277 451.89532,88.012032 446.66946,81.314235 424.50531,84.008377 442.52948,88.77857 448.84911,90.358683 463.6984,100.05965 448.52918,95.844417 441.30779,92.372541 421.01543,94.914301 439.52784,98.013894 446.26401,98.65627 468.66019,105.59658 450.67641,103.99232 444.83447,101.99207 419.45922,104.96081 438.10911,107.56142 444.36437,105.65701 468.69102,111.44166 454.13622,114.55484 449.29111,111.48626 427.83782,108.36648 430.3972,113.9708 438.40085,113.13902 466.29346,119.61438 444.70763,118.7646 437.22576,120.22627 416.01168,112.08143 415.45064,119.16764 426.94228,129.82889 445.48722,122.09834 458.23028,131.01842 449.05855,132.08103 423.75165,123.96875 422.67644,132.61894 431.66771,134.64833 459.06312,132.55286 456.69786,140.36157 441.31479,137.85959 422.59367,130.04305 408.48367,139.32425 400.97874,145.23024 416.46608,144.73612 411.86761,149.55607 427.13664,154.30385 444.47299,156.81904 456.91091,167.36273 442.40633,167.41951 427.70909,159.66353 413.49152,155.50371 405.66591,149.03456 390.29317,164.55766 407.61355,162.38275 410.15262,173.25174 431.60133,171.55722 442.82712,177.27476 449.8379,177.41262 461.68708,188.53979 447.57673,184.19476 432.12009,180.69697 417.77048,168.09447 401.29299,174.61516 395.77909,174.96893 389.76617,178.7585 399.55679,179.94518 415.30307,184.89078 381.8567,186.64043 397.26928,190.33178 417.64592,197.25303 440.54204,200.17316 457.84382,213.71991 447.06934,214.60395 431.16452,204.20488 418.9379,199.72434 415.49147,195.82543 420.04904,208.85477 413.08793,202.0258 408.25769,191.28999 374.16629,196.32988 393.01795,203.90719 400.7649,205.78439 406.70442,204.62763 405.71294,213.17506 421.68285,225.12809 386.79545,199.6845 397.93588,217.34665 391.57738,207.70015 367.77034,216.04031 384.78958,223.73825 379.50866,233.88847 415.25065,236.46154 393.03676,234.82368 374.76772,241.56754 409.69711,244.94215 417.63903,245.29041 431.18896,247.99481 450.00218,247.68475 457.00998,261.59575 448.68786,259.51118 438.60478,248.00969 436.79277,257.43042 430.18911,252.32404 421.20422,251.16652 417.86051,253.05087 411.6128,247.33123 399.28952,245.58087 397.05635,249.61259 388.88561,240.22078 362.94753,255.97744 385.97543,254.80445 394.6892,255.50918 420.33812,254.75237 415.06742,267.95845 402.4041,263.09071 387.31451,257.10051 374.36243,263.31483 390.81478,270.58393 409.84391,271.7418 427.2714,276.83898 433.96833,278.67606 459.07932,284.08794 452.59279,290.53262 439.52983,287.93957 420.16034,272.26099 413.57792,281.80013 409.51072,277.85842 393.99356,268.75416 401.13472,281.84141 392.61246,278.18563 373.3259,271.13871 369.58135,279.92525 382.79635,285.09773 397.93801,283.77291 410.79172,289.82381 402.92334,290.93783 385.66472,289.98383 374.28567,287.13292 363.96187,296.65151 392.37633,296.56047 400.26237,298.19907 406.64119,297.58869 434.52397,306.54245 415.52018,306.45914 404.21738,300.8961 396.98696,305.15652 393.55579,306.26742 383.0566,300.18883 377.71784,306.60838 366.34786,299.46296 357.34662,304.73263 385.169,309.92202 392.31824,311.92058 400.8346,313.90485 411.33025,315.03183 396.66774,316.18958 387.15373,326.69875 374.10268,306.96191 365.247,315.60119 358.59827,312.93427 343.92887,313.09153 357.93804,319.68098 363.16883,323.25124 371.47997,325.53346 374.43518,330.92061 368.67943,330.66663 380.5835,343.83145 368.69912,334.58663 361.43664,323.46012 327.09512,330.3789 344.2575,343.52809 360.38617,354.13056 380.37732,351.42911 397.75081,345.96058 405.39182,345.23462 426.46411,344.96393 424.50185,354.72346 414.81974,345.52047 402.75764,350.63881 394.25663,355.3738 387.83601,353.0977 369.74205,351.33167 378.82598,362.56011 372.71749,357.954 342.51245,356.69974 356.3684,367.10561 376.1312,374.13628 398.05601,369.63942 417.6736,364.15827 424.23424,363.26094 431.29721,373.05378 438.75653,363.27879 441.2439,371.93795 447.4087,364.86053 452.06348,366.15494 452.06348,387.1583 452.06348,408.16165 452.06348,429.16501 463.96414,428.22623 484.80314,435.28426 476.2488,416.28498 474.9091,399.7637 470.80345,382.69659 474.28448,366.29131 479.69671,349.48949 499.89514,373.74464 504.61585,359.62119 513.68125,359.2477 513.26643,346.76212 524.57683,354.09503 541.89829,356.86473 561.09727,362.64079 577.85538,354.97282 583.159,342.77635 562.66048,355.95652 556.65243,350.63957 545.64068,352.82552 523.73106,346.84468 517.95291,344.93171 537.9419,343.63893 558.10367,347.02346 578.00278,344.97641 580.8183,333.3989 558.80942,343.91335 552.25393,338.3822 538.90298,338.43865 523.09227,336.88852 509.09898,334.52335 515.44186,327.42249 534.11613,334.83869 545.12278,333.6116 556.25643,332.01798 576.70539,340.34397 581.14311,329.25301 572.87179,321.11175 563.4879,333.72015 555.72633,326.2559 549.12473,331.34523 527.59917,327.9244 542.79106,320.92869 550.79379,321.6084 577.85182,323.16892 571.83807,311.41341 555.34813,309.04893 540.28174,313.78784 523.77887,312.13809 517.64929,312.85845 499.21472,316.17887 514.74097,310.48482 530.28664,304.61032 547.98499,308.06698 562.9185,300.79876 577.03529,288.99317 550.93029,297.3626 547.11357,297.36195 536.32819,295.86377 526.48649,305.67252 515.29376,303.38773 527.41488,288.38727 547.37479,296.22314 562.08577,287.32203 556.80236,283.11233 533.79225,292.812 523.46596,286.17937 536.18233,282.60156 550.04222,283.94135 562.73156,280.22147 557.74516,266.85589 539.29878,277.4127 530.45536,271.13002 524.09543,274.47546 507.5377,274.68608 521.63663,268.82672 531.24787,264.80794 550.90136,268.43492 553.86811,259.22382 542.19651,249.24639 521.43199,267.81331 514.22346,262.31214 523.57318,247.8386 552.85312,255.92668 556.98187,235.54091 548.94909,232.96757 544.34707,249.53029 539.99163,238.45396 531.92991,236.9515 514.39119,252.74954 511.64701,242.03954 523.93791,242.74013 529.79402,232.60821 537.68198,227.09138 543.43933,231.14423 553.23251,227.44828 543.71056,221.88803 549.49252,207.60155 521.64639,216.871 512.87306,212.84788 509.94994,210.66125 530.44656,207.02828 537.48407,207.69091 550.22108,200.7457 524.17725,197.80085 518.36678,197.69092 498.59107,192 538.53652,193.26155 530.04016,181.91933 541.50184,168.30401 512.30688,177.52991 505.30715,177.33271 493.56321,176.89425 479.23606,185.81606 468.96016,179.57685 483.47054,173.34766 501.23824,171.1026 517.38796,170.66921 513.50995,155.87456 492.80891,156.19364 480.45521,159.3404 472.41355,166.51994 462.67165,154.36247 476.52411,154.12252 484.88048,151.76213 505.19966,160.78574 504.49858,149.78446 495.51067,145.43138 481.96358,151.39902 475.57444,149.90112 482.09701,147.85017 510.79099,144.09854 490.03061,142.35915 483.62853,145.44474 459.12412,143.49092 475.84738,138.3857 490.31808,142.22955 507.57954,136.61994 496.99968,122.4161 488.6598,119.92954 470.60462,126.44073 468.96881,122.17056 474.92933,116.38201 499.02182,120.21936 495.712,112.7849 488.55617,110.08281 464.92093,121.9112 470.53138,109.70485 476.41143,109.59524 502.6723,110.32618 489.90359,102.7752 485.61477,103.04418 457.66147,107.36392 471.30956,102.28582 477.38427,102.52549 503.74249,99.43855 484.32107,97.470434 478.08813,98.113989 457.60589,99.205605 475.05794,94.923763 481.91237,95.144918 501.28926,90.789995 483.91837,88.963119 478.02705,92.002968 458.60293,94.51266 470.64644,85.39121 482.82812,81.239069 460.51096,83.345329 468.11698,74.53671 476.11066,70.760244 475.84588,64.545294 466.51678,69.47521 463.66932,63.278298 479.94996,59.731272 465.99288,58.54314 465.10164,49.220943 464.20588,39.894645 463.32,30.575 Z M 458.55,121.907 C 460.70589,127.04782 453.12614,126.17554 451.278,123.8737 453.07146,122.06042 456.36062,122.49563 458.55,121.907 Z M 467.0721,126.7946 C 472.6865,125.77757 488.27056,129.11126 473.36649,131.0202 467.59732,132.19128 466.70073,132.67416 467.0721,126.7946 Z M 466.40312,134.0537 C 466.72385,134.07879 476.03727,134.53091 471.30851,136.37696 469.27788,136.69342 464.66249,139.09741 466.40312,134.0537 Z M 430.54012,143.7133 C 437.35591,144.05985 459.67949,145.75233 455.2386,152.67221 446.08689,149.68509 435.96713,147.80398 427.04896,145.07256 427.15056,143.66012 429.95731,144.05104 430.54012,143.7133 Z M 443.91912,154.6163 C 449.4849,150.37268 465.92422,163.08255 455.34698,161.18145 455.04372,160.71877 436.25894,155.54053 443.91912,154.6163 Z M 484.40612,164.7383 C 501.12056,164.28757 463.85606,178.84055 467.61006,167.4227 469.31582,163.90855 480.20094,165.83728 484.40612,164.7383 Z M 428.91112,183.1323 C 436.42781,184.54888 459.72129,188.80105 455.84969,195.82665 450.92062,192.53335 422.45625,189.35744 428.91112,183.1323 Z M 485.62812,189.466 C 491.71465,193.99528 458.01042,198.46799 474.12383,191.5895 477.92812,190.75138 481.73478,189.78416 485.62812,189.466 Z M 422.16312,189.98657 C 434.04248,192.63555 453.75252,195.36423 458.20012,206.32667 447.22146,200.46917 424.91804,198.52942 419.98162,190.46501 L 422.16292,189.98687 Z M 494.61512,206.61657 C 496.59991,210.49785 476.23918,213.1219 470.00874,214.28067 468.18819,205.34324 489.777,209.90734 494.61512,206.61657 Z M 429.92912,216.30507 C 437.26433,217.69321 460.66072,222.60347 455.74779,228.97614 450.96679,224.37922 425.01804,221.48187 429.92912,216.30507 Z M 488.44912,218.67657 C 500.13532,218.4569 471.09451,224.50854 476.36709,223.3756 456.6727,223.89212 483.75522,217.37055 488.44912,218.67657 Z M 486.93662,230.62057 C 495.63481,231.52333 472.77156,236.26832 473.8613,235.80056 462.26636,231.95414 483.85955,230.81469 486.93662,230.62057 Z M 419.86562,231.57495 C 432.08964,233.6565 449.41909,235.47144 457.13318,244.14046 448.91175,245.70831 430.94048,236.05934 419.32213,233.6887 415.18736,234.2159 418.23837,230.88207 419.86562,231.57495 Z M 471.31762,241.49485 C 474.91576,240.93232 485.58797,243.40821 475.36036,245.03117 470.2432,248.68719 472.22007,243.31823 471.31762,241.49485 Z M 487.16962,250.40245 C 496.23628,256.7025 458.65586,259.72505 475.34314,251.99963 479.2575,251.30464 483.18931,250.56881 487.16962,250.40245 Z M 502.73062,255.08765 C 508.75543,261.24933 479.31696,265.43312 472.36552,269.25917 469.29923,256.66688 494.35034,258.15181 502.73062,255.08765 Z M 483.06862,273.07665 C 497.47779,274.61156 462.21964,280.26154 473.95168,273.89244 476.98844,273.59829 480.01799,273.20642 483.06862,273.07665 Z M 495.72062,278.25345 C 490.74385,286.36389 457.20002,286.69796 484.55282,280.36707 488.24648,279.54408 491.93618,278.55343 495.72062,278.25345 Z M 506.36562,282.21565 C 520.12403,283.23382 498.84587,291.51544 494.43404,290.12793 488.18063,291.18582 460.34414,301.03253 477.71501,289.81712 486.79788,285.93358 496.43347,282.73096 506.36562,282.21565 Z M 438.62562,297.48565 C 449.00336,295.81611 463.51924,310.81582 444.92486,303.46777 444.28543,303.16949 433.42373,298.32804 438.62562,297.48565 Z M 504.21362,298.23761 C 508.78455,302.17908 491.09621,300.3348 504.21358,298.23761 Z M 479.69462,310.61561 C 488.54354,314.99644 460.5032,314.10066 477.41639,310.86734 L 479.69472,310.61571 Z M 433.39062,319.43651 C 438.02872,322.76203 462.35477,321.01607 452.71701,327.40431 449.34963,328.55387 424.95783,323.18008 433.39072,319.43637 Z M 485.30862,321.63451 C 493.1703,330.19789 459.24109,327.97744 476.66979,323.34541 479.54824,322.7674 482.37406,321.91306 485.30862,321.63451 Z M 446.27562,333.17351 C 460.11367,330.64858 457.0486,347.22668 445.11156,339.23167 439.70425,336.98423 439.58273,333.3758 446.27562,333.17351 Z M 402.73462,335.37151 C 418.34388,335.90263 408.22214,347.09557 401.22172,335.63181 L 402.73422,335.37151 Z M 476.29262,335.94993 C 485.50736,333.98944 490.19523,342.52388 478.45961,340.41143 472.89975,341.82945 467.84692,335.50495 476.29262,335.94993 Z"
     id="path6"
     inkscape:connector-curvature="0" />
</svg>
