<?xml version="1.0" encoding="UTF-8" standalone="no"?>
<svg
   xmlns:dc="http://purl.org/dc/elements/1.1/"
   xmlns:cc="http://creativecommons.org/ns#"
   xmlns:rdf="http://www.w3.org/1999/02/22-rdf-syntax-ns#"
   xmlns:svg="http://www.w3.org/2000/svg"
   xmlns="http://www.w3.org/2000/svg"
   xmlns:sodipodi="http://sodipodi.sourceforge.net/DTD/sodipodi-0.dtd"
   xmlns:inkscape="http://www.inkscape.org/namespaces/inkscape"
   width="900"
   height="600"
   version="1.1"
   id="svg170"
   sodipodi:docname="ic_flag_bt.svg"
   inkscape:version="0.92.1 r15371">
  <metadata
     id="metadata176">
    <rdf:RDF>
      <cc:Work
         rdf:about="">
        <dc:format>image/svg+xml</dc:format>
        <dc:type
           rdf:resource="http://purl.org/dc/dcmitype/StillImage" />
      </cc:Work>
    </rdf:RDF>
  </metadata>
  <defs
     id="defs174" />
  <sodipodi:namedview
     pagecolor="#ffffff"
     bordercolor="#666666"
     borderopacity="1"
     objecttolerance="10"
     gridtolerance="10"
     guidetolerance="10"
     inkscape:pageopacity="0"
     inkscape:pageshadow="2"
     inkscape:window-width="1879"
     inkscape:window-height="1160"
     id="namedview172"
     showgrid="false"
     inkscape:zoom="0.49811744"
     inkscape:cx="684.15213"
     inkscape:cy="557.8977"
     inkscape:window-x="0"
     inkscape:window-y="0"
     inkscape:window-maximized="0"
     inkscape:current-layer="g166" />
  <g
     id="g168">
    <path
       d="M 0,0 H 900 V 600 H 0 Z"
       id="path2"
       inkscape:connector-curvature="0"
       style="fill:#ffd520" />
    <path
       d="M 0,600 H 900 V 0 Z"
       id="path4"
       inkscape:connector-curvature="0"
       style="fill:#ff4e12" />
    <g
       id="g166"
       style="stroke:#000000;stroke-width:0.52100003">
      <g
         id="g76"
         style="fill:#ffffff;stroke:#000000;stroke-width:2;stroke-miterlimit:4;stroke-dasharray:none;stroke-opacity:1">
        <path
           d="M 481.74,187.59 C 476.753,185.82 473.532,188.395 473.694,194.834 473.853,201.274 477.236,204.976 482.224,202.561 L 481.74,187.591 Z"
           id="path6"
           inkscape:connector-curvature="0"
           style="stroke:#000000;stroke-width:2;stroke-miterlimit:4;stroke-dasharray:none;stroke-opacity:1" />
        <path
           d="M 486.12,175.53 C 481.966,172.25 478.09,173.656 476.174,179.806 474.258,185.955 476.27,190.548 481.77,189.864 L 486.12,175.531 Z"
           id="path8"
           inkscape:connector-curvature="0"
           style="stroke:#000000;stroke-width:2;stroke-miterlimit:4;stroke-dasharray:none;stroke-opacity:1" />
        <path
           d="M 493.04,163.86 C 489.46,159.955 485.41,160.722 482.532,166.485 479.657,172.248 480.907,177.103 486.449,177.31 Z M 488.5,220.59 C 482.383,222.844 481.737,231.215 485.604,236.366 489.467,241.517 496.55,242.483 500.412,236.366 L 488.502,220.586 Z"
           id="path10"
           inkscape:connector-curvature="0"
           style="stroke:#000000;stroke-width:2;stroke-miterlimit:4;stroke-dasharray:none;stroke-opacity:1" />
        <path
           d="M 481.42,202.88 C 475.624,200.948 470.403,208.733 469.507,215.758 468.382,224.612 455.824,227.509 462.749,240.871 464.194,232.339 469.832,227.671 474.337,227.349 478.845,227.027 485.607,226.061 488.504,220.588 Z M 499.77,237.33 C 493.007,238.94 492.04,247.955 496.87,254.394 501.003,259.907 513.933,258.579 513.612,253.106 Z M 518.93,291.58 C 519.25,285.785 509.918,283.531 505.409,284.658 500.901,285.785 492.288,284.498 490.276,279.668 488.668,283.531 491.001,287.717 497.522,289.809 502.455,291.394 502.351,294.961 500.901,296.571 504.605,297.215 515.551,297.215 518.93,291.581 Z"
           id="path12"
           inkscape:connector-curvature="0"
           style="stroke:#000000;stroke-width:2;stroke-miterlimit:4;stroke-dasharray:none;stroke-opacity:1" />
        <path
           d="M 513.62,254.56 C 507.02,251.663 503.107,256.076 500.582,260.355 496.878,266.633 485.449,258.585 481.586,266.955 486.819,264.702 492.144,269.508 494.624,271.141 501.707,275.809 515.391,274.361 517.324,263.414 Z"
           id="path14"
           inkscape:connector-curvature="0"
           style="stroke:#000000;stroke-width:2;stroke-miterlimit:4;stroke-dasharray:none;stroke-opacity:1" />
        <path
           d="M 517.48,262.28 C 510.88,267.27 508.305,273.226 508.468,277.251 508.63,281.276 514.263,290.129 520.381,290.612 523.922,283.368 525.693,268.075 517.481,262.28 Z M 490.12,293.35 C 490.12,290.935 493.662,289.97 496.074,290.774 498.491,291.579 502.191,293.994 500.904,296.57 Z M 453.73,280.15 C 453.088,277.253 457.755,272.262 464.034,274.999 470.309,277.735 471.117,283.048 468.538,285.141 L 453.73,280.151 Z"
           id="path16"
           inkscape:connector-curvature="0"
           style="stroke:#000000;stroke-width:2;stroke-miterlimit:4;stroke-dasharray:none;stroke-opacity:1" />
        <path
           d="M 469.02,285.46 C 468.537,283.85 473.057,280.635 480.774,282.562 488.499,284.494 490.394,289.469 490.112,293.348 L 469.019,285.46 Z M 452.93,280.15 C 456.955,277.092 455.43,271.295 451.8,269.525 445.2,266.305 447.617,257.935 443.43,256.325 439.247,254.715 435.222,251.817 435.06,248.92 432.968,252.944 434.255,256.647 437.155,259.223 440.051,261.799 434.901,272.262 438.601,274.999 Z M 366.64,277.9 C 363.26,272.588 355.21,273.554 351.83,277.256 348.45,280.959 348.933,286.432 352.152,288.846 Z M 385.96,270.01 C 384.672,262.927 376.14,262.122 371.472,263.893 366.804,265.663 363.584,272.747 366.642,277.898 L 385.961,270.01 Z"
           id="path18"
           inkscape:connector-curvature="0"
           style="stroke:#000000;stroke-width:2;stroke-miterlimit:4;stroke-dasharray:none;stroke-opacity:1" />
        <path
           d="M 398.84,269.04 C 401.898,263.084 395.943,254.23 389.181,252.942 383.537,251.868 376.866,251.896 374.693,246.342 373.325,251.172 376.947,254.23 381.133,256.967 385.318,259.704 380.327,266.787 387.089,270.811 L 398.841,269.041 Z"
           id="path20"
           inkscape:connector-curvature="0"
           style="stroke:#000000;stroke-width:2;stroke-miterlimit:4;stroke-dasharray:none;stroke-opacity:1" />
        <path
           d="M 398.2,269.25 C 396.791,264.983 399.649,259.307 405.432,259.705 411.217,260.103 414.512,264.305 411.962,269.56 L 398.199,269.25 Z"
           id="path22"
           inkscape:connector-curvature="0"
           style="stroke:#000000;stroke-width:2;stroke-miterlimit:4;stroke-dasharray:none;stroke-opacity:1" />
        <path
           d="M 411.07,269.57 C 410.274,265.148 413.9,259.93 419.57,261.135 425.242,262.34 427.913,266.965 424.654,271.81 Z"
           id="path24"
           inkscape:connector-curvature="0"
           style="stroke:#000000;stroke-width:2;stroke-miterlimit:4;stroke-dasharray:none;stroke-opacity:1" />
        <path
           d="M 423.86,271.6 C 423.285,267.143 427.168,262.112 432.772,263.599 438.377,265.086 440.814,269.839 437.314,274.514 Z M 326.72,345.35 C 315.934,345.35 313.3,347.918 311.749,359.033 309.817,372.877 328.652,374.487 326.72,345.35 Z"
           id="path26"
           inkscape:connector-curvature="0"
           style="stroke:#000000;stroke-width:2;stroke-miterlimit:4;stroke-dasharray:none;stroke-opacity:1" />
        <path
           d="M 331.55,330.86 C 314.969,324.582 305.955,350.821 289.535,346.153 295.41,355.49 309.653,346.17 314.969,347.119 323.984,348.729 343.462,345.348 331.55,330.859 Z M 320.76,366.76 C 312.55,363.058 303.696,375.614 305.306,381.087 307.35,388.039 326.072,382.375 320.76,366.76 Z M 282.45,420.85 C 286.958,422.133 292.43,424.712 291.465,433.404 290.499,442.096 274.08,459.804 259.27,460.771 244.46,461.738 239.147,479.604 226.43,474.613 238.342,472.363 238.342,458.838 247.679,454.655 240.917,452.238 237.376,467.534 228.684,467.534 219.991,467.534 215.806,481.376 205.181,480.409 194.556,479.446 193.438,497.263 172.181,497.476 155.921,497.634 135.8,516.63 128.556,508.422 144.332,506.168 150.698,497.426 160.108,487.814 175.24,472.364 192.304,479.284 198.098,465.601 191.176,470.268 183.128,472.521 175.24,472.364 165.338,472.159 154.474,488.139 143.366,481.055 149.805,480.251 153.991,477.514 160.752,470.43 167.675,463.176 177.835,467.864 185.865,460.451 198.421,448.859 209.207,458.518 221.28,444.03 217.899,442.422 210.655,443.547 203.894,447.088 197.132,450.63 188.44,444.672 180.713,448.859 181.678,439.363 199.708,444.797 210.977,438.234 223.695,430.83 234.239,433.001 244.3,433.888 230.295,433.809 224.822,420.525 205.505,424.388 197.08,426.076 190.373,412.8 182.002,419.559 182.242,414.572 191.017,410.546 200.032,415.376 209.046,420.205 212.68,411.15 230.618,422.459 238.023,427.126 250.74,419.559 258.788,424.551 257.742,421.493 253.154,419.559 247.762,419.963 251.142,413.043 272.955,413.926 282.452,420.851 Z"
           id="path28"
           inkscape:connector-curvature="0"
           style="stroke:#000000;stroke-width:2;stroke-miterlimit:4;stroke-dasharray:none;stroke-opacity:1" />
        <path
           d="M 296.78,410.38 C 289.697,404.907 279.877,411.508 273.116,408.931 273.116,413.437 275.37,420.201 282.775,422.775 285.029,421.167 295.17,412.312 296.78,410.38 Z"
           id="path30"
           inkscape:connector-curvature="0"
           style="stroke:#000000;stroke-width:2;stroke-miterlimit:4;stroke-dasharray:none;stroke-opacity:1" />
        <path
           d="M 307.89,394.77 C 296.782,389.136 294.851,403.14 286.158,400.243 286.48,404.268 289.7,409.258 296.783,410.385 L 307.891,394.77 Z"
           id="path32"
           inkscape:connector-curvature="0"
           style="stroke:#000000;stroke-width:2;stroke-miterlimit:4;stroke-dasharray:none;stroke-opacity:1" />
        <path
           d="M 314.49,382.05 C 298.07,375.61 295.977,391.387 286.319,388.328 288.573,393.801 302.417,396.698 309.5,394.768 Z M 337.02,312.99 C 332.673,306.873 323.498,311.863 322.049,319.107 320.6,326.351 324.141,336.493 330.259,334.239 L 337.019,312.99 Z"
           id="path34"
           inkscape:connector-curvature="0"
           style="stroke:#000000;stroke-width:2;stroke-miterlimit:4;stroke-dasharray:none;stroke-opacity:1" />
        <path
           id="path74"
           style="stroke:#000000;stroke-width:2;stroke-miterlimit:4;stroke-dasharray:none;stroke-opacity:1"
           d="M 644.82,448.48 C 660.037,448.48 672.374,436.147 672.374,420.93 672.374,405.712 660.036,393.376 644.82,393.376 629.603,393.376 617.266,405.712 617.266,420.93 617.266,436.147 629.604,448.48 644.82,448.48 Z M 371.48,541.27 C 385.31,541.27 396.522,530.057 396.522,516.228 396.522,502.395 385.31,491.182 371.48,491.182 357.649,491.182 346.437,502.395 346.437,516.228 346.437,530.057 357.649,541.27 371.48,541.27 Z M 421.54,426.32 C 433.453,426.32 443.111,416.662 443.111,404.749 443.111,392.836 433.453,383.179 421.54,383.179 409.627,383.179 399.969,392.837 399.969,404.749 399.969,416.662 409.627,426.32 421.54,426.32 Z M 289.21,432.76 C 287.278,438.556 277.297,439.523 266.029,457.552 254.76,475.581 243.975,468.015 241.238,480.41 254.76,469.464 265.38,476.735 273.433,465.922 285.668,449.501 295.742,451.859 300.478,440.809 307.238,425.034 336.859,425.355 338.469,400.565 328.489,398.633 296.936,425.355 289.21,432.759 Z M 543.24,189.36 C 556.119,193.545 556.44,210.287 571.248,215.76 586.061,221.233 587.511,234.433 599.581,231.214 588.314,228.155 589.118,215.116 577.368,211.896 563.585,208.12 558.372,187.105 547.422,183.886 M 602.32,276.77 C 604.574,281.921 604.253,291.097 596.203,293.512 600.549,296.249 606.986,293.672 610.528,287.717 605.216,299.468 608.758,310.093 617.128,312.186 613.103,303.976 622.12,300.112 619.224,294.8 624.537,297.054 629.204,304.298 629.041,308.805 635.966,301.078 623.891,290.775 626.145,283.532 L 602.32,276.771 Z M 518.93,359.51 C 511.042,352.588 507.676,361.32 503.797,358.302 500.177,355.485 495.347,355.082 493.497,357.9 500.259,358.142 496.955,363.373 510.076,364.661 496.955,365.547 499.372,380.196 490.597,379.471 499.935,388.325 504.764,371.583 512.33,374.321 510.076,374.964 515.872,380.276 511.847,387.359 518.367,387.199 521.022,378.183 521.83,373.515 Z M 345.23,434.69 C 342.332,432.277 333.961,431.148 330.742,433.082 327.522,435.011 328.65,435.494 332.512,435.819 336.377,436.14 341.365,442.39 332.996,442.74 329.132,442.898 330.42,452.236 322.371,452.882 325.671,456.907 335.089,454.249 338.469,449.824 337.825,453.444 342.654,456.744 340.723,461.091 346.679,461.737 343.218,449.02 352.636,449.661 348.772,450.145 350.382,458.837 357.143,456.583 353.118,458.516 355.211,463.183 359.718,462.058 356.821,463.024 355.855,466.724 359.879,468.82 363.743,463.508 359.396,444.512 345.23,434.691 Z M 695.85,257.07 C 708.171,257.07 718.158,247.08 718.158,234.758 718.158,222.438 708.17,212.448 695.85,212.448 683.525,212.448 673.537,222.438 673.537,234.758 673.537,247.08 683.525,257.07 695.85,257.07 Z"
           inkscape:connector-curvature="0" />
        <path
           d="M 348.13,293.67 C 340.564,291.9 331.871,292.704 332.837,300.11 329.939,301.397 329.134,310.895 337.022,312.987 L 348.13,293.669 Z"
           id="path36"
           inkscape:connector-curvature="0"
           style="stroke:#000000;stroke-width:2;stroke-miterlimit:4;stroke-dasharray:none;stroke-opacity:1" />
        <path
           d="M 353.12,288.68 C 345.715,279.987 337.457,280.19 332.837,283.85 324.305,290.612 316.014,286.748 315.773,293.51 320.925,289.565 325.432,294.314 329.617,292.865 333.802,291.417 336.861,299.465 348.452,296.085 Z M 335.25,418.6 C 336.377,420.692 343.299,421.658 346.68,418.117 351.16,413.421 346.197,400.407 339.114,399.442 332.031,398.476 331.387,414.092 335.25,418.6 Z"
           id="path38"
           inkscape:connector-curvature="0"
           style="stroke:#000000;stroke-width:2;stroke-miterlimit:4;stroke-dasharray:none;stroke-opacity:1" />
        <path
           d="M 327.2,418.92 C 337.341,422.62 341.688,414.25 336.215,408.939 334.765,410.709 329.453,417.149 327.2,418.92 Z"
           id="path40"
           inkscape:connector-curvature="0"
           style="stroke:#000000;stroke-width:2;stroke-miterlimit:4;stroke-dasharray:none;stroke-opacity:1" />
        <path
           id="path4673"
           style="stroke:#000000;stroke-width:2;stroke-miterlimit:4;stroke-dasharray:none;stroke-opacity:1"
           d="M 370.02,409.74 C 374.366,415.375 381.771,415.054 384.83,414.57 387.406,421.329 395.615,421.17 399.157,424.87 402.699,428.575 414.77,428.254 418.312,426.158 415.095,425.838 410.909,423.908 406.884,420.525 402.026,416.445 404.308,408.291 400.444,405.394 403.342,402.174 403.825,396.862 403.181,394.769 406.241,392.998 408.494,390.1 408.816,388.651 414.129,388.329 418.796,385.593 420.729,383.501 423.466,386.076 430.387,382.695 434.092,387.041 434.896,376.416 424.754,370.782 417.992,374.324 415.254,372.876 408.012,373.842 406.724,375.774 404.47,374.807 398.192,378.027 395.294,380.12 398.514,378.35 398.996,373.037 397.708,371.105 400.445,369.978 403.504,366.275 403.825,363.539 407.689,364.183 413.483,361.607 416.058,362.251 411.875,356.778 404.953,354.846 397.869,355.329 390.544,355.732 387.406,360.883 386.44,366.437 382.094,369.013 380.645,377.705 382.255,380.764 379.759,380.684 377.425,383.099 376.46,384.467 373.08,383.017 368.25,381.972 364.789,381.972 M 579.3,284.02 C 586.063,277.58 596.367,274.361 603.446,279.19 610.529,284.02 634.034,289.815 645.625,281.766 657.213,273.717 662.688,269.531 667.838,270.497 671.705,276.293 676.371,279.029 682.167,279.512 683.937,281.444 690.217,283.054 693.759,282.57 698.909,283.858 705.188,282.249 710.176,276.775 717.906,277.902 725.147,272.107 727.884,263.415 736.092,262.449 736.576,253.272 731.426,247.155 726.596,246.19 730.301,229.93 712.751,233.15 720.159,237.658 714.521,246.672 720.642,250.858 716.455,250.858 711.063,252.629 709.775,258.908 711.384,254.561 709.534,251.663 708.405,250.698 708.567,246.995 700.359,237.9 692.63,241.2 698.184,242.407 695.046,251.342 699.071,254.722 696.171,254.883 693.113,256.332 691.342,258.907 689.25,255.205 681.846,251.341 677.338,251.019 677.338,249.731 677.096,247.156 676.534,245.869 674.521,242.005 672.83,237.417 673.634,231.541 669.771,235.726 666.551,241.521 664.621,245.707 658.505,241.522 643.371,247.639 636.288,249.248 629.205,250.858 605.38,246.995 599.905,241.199 594.435,235.404 583.809,231.863 573.83,228.965 560.105,224.982 559.984,209.97 544.851,199.667 544.531,218.341 572.864,277.581 579.301,284.02 Z"
           inkscape:connector-curvature="0" />
        <path
           style="stroke:#000000;stroke-width:2;stroke-miterlimit:4;stroke-dasharray:none;stroke-opacity:1"
           d="M 366.32,373.2 C 364.871,369.015 366.79,365.247 367.769,361.932 370.264,353.482 368.735,351.307 361.169,352.434 360.525,356.459 364.389,369.659 366.32,373.2 Z"
           id="path46"
           inkscape:connector-curvature="0" />
        <path
           d="M 360.77,352.91 C 362.702,354.842 369.544,355.727 370.268,349.61 371.1,342.588 368.256,339.87 362.138,342.607 361.656,344.217 361.092,350.817 360.77,352.91 Z"
           id="path48"
           inkscape:connector-curvature="0"
           style="stroke:#000000;stroke-width:2;stroke-miterlimit:4;stroke-dasharray:none;stroke-opacity:1" />
        <path
           d="M 362.22,342.37 C 364.796,343.416 370.35,345.509 373.408,339.553 375.974,334.557 372.603,330.699 367.291,331.02 366.003,332.47 363.428,337.62 362.22,342.37 Z"
           id="path50"
           inkscape:connector-curvature="0"
           style="stroke:#000000;stroke-width:2;stroke-miterlimit:4;stroke-dasharray:none;stroke-opacity:1" />
        <path
           d="M 366.97,330.54 C 367.614,332.472 374.214,338.91 379.043,334.243 383.873,329.574 383.873,322.653 376.628,320.077 374.696,320.398 368.901,327.159 366.97,330.54 Z"
           id="path52"
           inkscape:connector-curvature="0"
           style="stroke:#000000;stroke-width:2;stroke-miterlimit:4;stroke-dasharray:none;stroke-opacity:1" />
        <path
           d="M 376.62,320.08 C 378.069,324.104 382.576,331.026 390.947,327.807 399.318,324.587 395.777,314.124 391.913,312.031 389.659,312.191 380.483,316.377 376.62,320.08 Z"
           id="path54"
           inkscape:connector-curvature="0"
           style="stroke:#000000;stroke-width:2;stroke-miterlimit:4;stroke-dasharray:none;stroke-opacity:1" />
        <path
           d="M 391.92,312.03 C 391.276,315.572 391.92,325.23 403.349,325.069 414.777,324.909 411.56,311.547 408.662,309.615 403.993,309.615 396.106,309.775 391.92,312.03 Z"
           id="path56"
           inkscape:connector-curvature="0"
           style="stroke:#000000;stroke-width:2;stroke-miterlimit:4;stroke-dasharray:none;stroke-opacity:1" />
        <path
           d="M 409.14,310.09 C 407.852,312.827 404.95,330.84 427.331,325.866 430.227,325.222 437.794,308.641 409.14,310.09 Z"
           id="path58"
           inkscape:connector-curvature="0"
           style="stroke:#000000;stroke-width:2;stroke-miterlimit:4;stroke-dasharray:none;stroke-opacity:1" />
        <path
           d="M 421.37,311.7 C 419.12,313.953 424.912,332.144 440.045,329.085 455.178,326.026 442.462,308.802 421.37,311.7 Z"
           id="path60"
           inkscape:connector-curvature="0"
           style="stroke:#000000;stroke-width:2;stroke-miterlimit:4;stroke-dasharray:none;stroke-opacity:1" />
        <path
           d="M 434.25,314.44 C 431.837,319.43 435.462,334.24 454.133,334.24 471.054,334.24 453.246,314.762 434.25,314.44 Z"
           id="path62"
           inkscape:connector-curvature="0"
           style="stroke:#000000;stroke-width:2;stroke-miterlimit:4;stroke-dasharray:none;stroke-opacity:1" />
        <path
           d="M 448.9,318.79 C 447.688,321.556 446.204,337.258 468.217,338.59 484.155,339.556 480.292,317.019 448.9,318.79 Z"
           id="path64"
           inkscape:connector-curvature="0"
           style="stroke:#000000;stroke-width:2;stroke-miterlimit:4;stroke-dasharray:none;stroke-opacity:1" />
        <path
           d="M 472.57,325.39 C 469.837,330.22 466.937,342.293 491.083,343.259 506.554,343.879 497.041,325.712 472.57,325.39 Z"
           id="path66"
           inkscape:connector-curvature="0"
           style="stroke:#000000;stroke-width:2;stroke-miterlimit:4;stroke-dasharray:none;stroke-opacity:1" />
        <path
           d="M 492.69,329.09 C 489.148,333.92 491.757,343.393 500.736,345.188 512.006,347.442 513.615,336.818 505.89,331.666 498.16,326.515 492.69,329.09 492.69,329.09 Z"
           id="path68"
           inkscape:connector-curvature="0"
           style="stroke:#000000;stroke-width:2;stroke-miterlimit:4;stroke-dasharray:none;stroke-opacity:1" />
        <path
           style="stroke:#000000;stroke-width:2;stroke-miterlimit:4;stroke-dasharray:none;stroke-opacity:1"
           d="M 503.64,331.34 C 501.065,335.848 502.66,346.794 519.736,346.794 523.278,346.794 536.803,332.95 503.64,331.34 Z"
           id="path4669"
           inkscape:connector-curvature="0" />
        <path
           d="M 555.15,177.13 C 553.217,179.062 549.196,184.857 548.387,187.11 540.017,212.223 562.362,230.981 575.433,257.94 585.737,279.19 584.45,312.673 568.35,333.922 562.842,341.191 564.488,343.259 557.404,350.664 554.687,353.505 551.608,357.104 552.575,367.406 557.083,365.796 563.521,369.982 564.808,373.524 568.028,371.914 572.538,372.558 574.145,374.489 579.616,371.914 584.125,373.201 588.953,378.353 593.141,377.709 597.649,378.353 601.833,382.86 604.087,378.353 608.595,376.743 611.812,377.709 611.491,371.914 617.287,367.729 622.437,369.982 620.828,362.255 627.912,356.459 634.675,358.713 640.466,354.206 652.058,353.884 657.854,360.645 647.55,357.748 647.874,368.695 639.179,367.728 641.433,374.168 635.637,377.87 629.845,379.962 633.545,378.192 637.57,376.099 638.858,378.352 642.078,375.536 648.516,376.582 650.128,378.031 654.391,376.663 658.5,377.709 660.428,382.86 666.225,386.402 670.088,395.416 665.904,402.178 664.616,395.095 659.787,395.417 657.854,392.519 653.345,394.129 648.837,394.129 647.55,391.231 644.975,393.807 636.283,396.061 632.42,392.197 630.97,397.992 625.98,402.822 620.183,402.822 621.795,407.329 617.287,415.058 613.745,418.92 619.22,421.816 617.608,428.257 616.32,432.12 624.691,433.407 617.608,440.812 632.095,445.641 625.016,447.895 611.17,445.641 609.237,436.949 602.154,436.629 597.324,429.545 597.649,422.136 592.174,416.986 591.37,409.582 598.937,404.431 592.495,406.363 588.953,396.061 579.616,400.246 574.974,402.328 562.716,398.797 562.878,394.45 560.944,397.67 549.195,396.383 547.582,390.91 543.719,393.002 534.702,389.46 534.865,384.148 529.873,386.402 523.115,382.378 523.435,377.226 518.769,376.582 518.285,372.396 518.607,368.856 514.419,366.923 515.548,362.899 517.157,358.07 514.261,354.85 515.548,350.343 517.802,346.157 514.582,342.937 515.227,339.074 516.19,334.567 500.736,333.279 481.377,329.552 436.99,315.894 370.023,295.289 351.993,343.582 366.803,373.846 383.89,408.766 364.871,416.346 370.667,442.426 376.784,443.713 380.003,448.863 379.682,454.338 383.302,454.496 385.878,457.876 384.591,464.318 387.649,463.755 391.594,464.638 394.169,467.213 396.423,463.03 403.829,462.063 407.692,466.893 416.062,466.246 420.248,473.009 419.927,481.38 424.432,489.43 422.823,499.251 417.994,505.526 418.477,502.147 417.994,497.318 417.836,494.422 417.536,489.093 410.106,487.981 410.912,483.634 407.048,483.955 403.345,481.864 402.058,478.968 399.804,480.897 396.584,481.543 393.848,480.576 398.194,482.509 401.575,490.234 400.287,495.384 402.541,499.251 402.057,506.334 399.321,509.392 398.033,515.667 393.204,517.922 386.926,515.184 390.468,512.934 391.756,508.909 391.594,505.525 389.341,503.596 388.214,499.892 388.053,497.638 381.775,498.604 373.082,493.292 371.479,491.192 357.648,491.192 346.436,502.405 346.436,516.238 345.792,511.084 339.276,506.009 340.081,501.663 336.218,489.75 341.691,478.642 357.467,476.392 355.536,471.884 362.297,467.212 359.721,462.063 356.431,455.483 350.385,446.93 341.371,436.95 346.844,427.612 345.234,415.058 342.014,407.33 337.391,396.234 332.999,398.96 316.579,416.988 289.819,446.371 254.119,438.238 222.567,457.555 214.183,462.688 205.826,464.638 214.84,455.625 223.855,446.609 247.68,437.597 263.133,429.868 292.073,415.397 316.578,391.233 326.237,344.228 348.934,233.768 432.477,270.178 485.277,290.783 534.848,310.129 525.844,266.313 500.731,239.913 470.548,208.182 476.585,183.25 490.752,163.288 516.185,159.746 564.965,168.6 555.144,177.133 Z"
           id="path72"
           inkscape:connector-curvature="0"
           style="stroke:#000000;stroke-width:2;stroke-miterlimit:4;stroke-dasharray:none;stroke-opacity:1" />
      </g>
      <g
         id="g112"
         style="fill:none;stroke:#000000;stroke-width:2;stroke-miterlimit:4;stroke-dasharray:none;stroke-opacity:1">
        <path
           d="M 539.7,178.41 C 533.583,205.455 538.733,217.689 547.75,229.601 566.379,254.222 581.233,310.412 559.983,347.111"
           id="path78"
           inkscape:connector-curvature="0"
           style="stroke:#000000;stroke-width:2;stroke-miterlimit:4;stroke-dasharray:none;stroke-opacity:1" />
        <g
           id="g88"
           style="stroke:#000000;stroke-width:2;stroke-linecap:round;stroke-miterlimit:4;stroke-dasharray:none;stroke-opacity:1">
          <path
             d="M 571.89,315.41 C 574.465,314.444 579.294,311.386 580.423,306.073 M 573.82,303.66 C 574.624,298.992 581.866,296.98 582.028,291.99 M 573.98,285.46 C 573.497,280.63 581.226,276.284 580.097,271.455 M 569.8,268.08 C 569.154,265.343 576.238,260.192 574.308,255.846 M 564.49,251.18 C 563.04,248.121 567.87,244.58 565.778,241.36 M 556.76,237.65 C 556.277,235.558 559.256,230.97 557.647,228.234 M 549.03,221.72 C 549.672,220.915 552.25,218.983 551.2,216.569 M 543.72,210.05 C 544.766,209.486 547.903,208.52 547.503,206.187"
             id="path80"
             inkscape:connector-curvature="0"
             style="stroke:#000000;stroke-width:2;stroke-miterlimit:4;stroke-dasharray:none;stroke-opacity:1" />
        </g>
      </g>
      <g
         id="g156"
         style="fill:#ffffff;stroke:#000000;stroke-width:2;stroke-miterlimit:4;stroke-dasharray:none;stroke-opacity:1">
        <path
           d="M 545.97,128.83 C 533.091,122.39 506.37,110.478 498.803,120.137 505.723,117.24 526.007,120.298 542.749,135.752 L 545.969,128.83 Z"
           id="path114"
           inkscape:connector-curvature="0"
           style="stroke:#000000;stroke-width:2;stroke-miterlimit:4;stroke-dasharray:none;stroke-opacity:1" />
        <path
           d="M 553.78,128.15 C 538.888,110.803 530.117,114.686 519.409,108.711 509.351,103.097 493.33,101.95 490.226,110.878 504.922,103.721 518.414,114.727 526.701,116.058 538.084,117.886 544.509,126.687 547.839,130.734 L 553.781,128.15 Z M 609.88,125.93 C 602.15,108.222 585.626,112.847 578.326,105.325 567.705,94.379 540.822,84.237 529.713,91.803 554.18,90.515 564.601,108.668 577.684,114.984 587.022,119.492 597.001,129.15 609.88,125.931 Z"
           id="path116"
           inkscape:connector-curvature="0"
           style="stroke:#000000;stroke-width:2;stroke-miterlimit:4;stroke-dasharray:none;stroke-opacity:1" />
        <path
           d="M 580.91,124 C 567.71,107.58 547.422,93.092 538.089,98.565 550.322,99.209 554.185,107.741 562.881,113.214 571.573,118.687 567.711,126.575 580.91,124 Z M 518.12,152.98 C 504.274,147.829 477.232,145.253 464.674,161.03 485.603,164.57 517.153,162.639 518.12,152.98 Z"
           id="path118"
           inkscape:connector-curvature="0"
           style="stroke:#000000;stroke-width:2;stroke-miterlimit:4;stroke-dasharray:none;stroke-opacity:1" />
        <path
           d="M 515.55,159.1 C 501.704,152.66 490.892,161.655 477.879,160.388 453.091,157.973 435.383,159.422 433.129,171.334 447.296,158.617 471.121,169.081 480.779,166.505 490.437,163.929 526.175,166.183 537.442,171.012 531.646,163.929 522.634,161.998 515.55,159.1 Z M 559.01,122.23 C 555.793,111.605 555.952,100.337 571.889,101.142 567.864,96.152 553.056,93.576 550.639,112.25 533.093,99.372 513.935,97.118 510.397,108.226 519.409,100.499 533.414,106.133 550.155,125.129 551.605,124.324 555.468,122.714 559.009,122.231 Z"
           id="path120"
           inkscape:connector-curvature="0"
           style="stroke:#000000;stroke-width:2;stroke-miterlimit:4;stroke-dasharray:none;stroke-opacity:1" />
        <path
           d="M 534.87,136.88 C 524.89,130.441 511.366,119.977 535.033,115.792 524.891,110.319 510.079,112.733 511.691,131.407 484.645,120.46 465.224,124.155 461.141,134.948 456.632,146.861 473.379,153.461 476.274,145.895 473.215,147.183 462.753,143.642 468.224,136.88 473.699,130.12 501.749,135.195 528.432,149.115 535.836,152.979 561.27,152.335 534.869,136.88 Z"
           id="path122"
           inkscape:connector-curvature="0"
           style="stroke:#000000;stroke-width:2;stroke-miterlimit:4;stroke-dasharray:none;stroke-opacity:1" />
        <path
           d="M 527.78,154.59 C 520.08,138.868 495.101,153.141 490.067,137.912 483.187,160.224 525.588,147.878 527.78,154.59 Z M 686.67,171.65 C 691.907,174.253 696.437,170.161 688.424,166.952 693.666,169.553 698.237,165.56 690.224,162.349 695.466,164.95 700.037,160.957 692.024,157.747 689.887,159.898 686.828,167.787 686.67,171.65 Z M 689.4,141.39 C 700.992,129.156 688.437,124.97 702.6,112.414 714.192,102.141 704.812,95.294 715.804,87.301 719.346,84.726 727.071,79.574 727.717,74.423 732.384,86.013 713.225,87.623 714.513,106.297 715.333,118.187 707.296,117.148 704.213,137.205 703.567,141.39 700.671,150.727 689.4,141.39 Z"
           id="path124"
           inkscape:connector-curvature="0"
           style="stroke:#000000;stroke-width:2;stroke-miterlimit:4;stroke-dasharray:none;stroke-opacity:1" />
        <path
           d="M 694.56,146.86 C 700.998,133.016 708.389,133.282 711.943,127.865 718.706,117.562 733.031,129.635 745.106,120.46 743.014,133.499 726.756,128.83 719.673,137.202 712.59,145.572 706.794,149.437 694.56,146.861 Z"
           id="path126"
           inkscape:connector-curvature="0"
           style="stroke:#000000;stroke-width:2;stroke-miterlimit:4;stroke-dasharray:none;stroke-opacity:1" />
        <path
           d="M 696.17,151.37 C 707.441,142.355 715.745,148.37 723.537,143.643 743.175,131.73 751.066,146.057 768.612,140.423 763.942,151.691 738.024,142.033 726.758,150.404 715.487,158.774 675.887,166.824 696.17,151.37 Z M 663.33,215.6 C 663.167,210.449 658.338,203.848 651.576,203.044 644.818,202.239 641.918,195.156 636.768,194.834 631.618,194.512 628.235,184.209 621.151,184.37 614.068,184.531 611.171,193.707 627.751,202.078 644.334,210.449 662.684,220.108 663.33,215.601 Z M 642.4,219.95 C 635.317,220.272 634.35,230.575 627.592,230.897 636.925,235.887 643.688,228.643 648.517,222.204 Z"
           id="path128"
           inkscape:connector-curvature="0"
           style="stroke:#000000;stroke-width:2;stroke-miterlimit:4;stroke-dasharray:none;stroke-opacity:1" />
        <path
           d="M 648.2,221.23 C 642.083,226.381 640.312,237.167 649.167,240.225 643.854,232.9 658.504,229.6 653.996,222.839 L 648.2,221.229 Z"
           id="path130"
           inkscape:connector-curvature="0"
           style="stroke:#000000;stroke-width:2;stroke-miterlimit:4;stroke-dasharray:none;stroke-opacity:1" />
        <path
           d="M 654.31,221.56 C 649.48,230.897 661.877,232.023 658.656,239.107 665.739,237.497 666.868,224.136 660.426,220.594 Z"
           id="path132"
           inkscape:connector-curvature="0"
           style="stroke:#000000;stroke-width:2;stroke-miterlimit:4;stroke-dasharray:none;stroke-opacity:1" />
        <path
           d="M 606.98,201.59 C 618.572,200.946 629.172,207.217 636.28,217.366 640.788,223.805 655.918,226.381 661.072,221.229 666.222,216.079 663.326,205.131 650.447,208.673 647.227,203.2 637.889,205.132 633.384,200.624 628.876,196.117 611.488,183.239 606.98,201.59 Z"
           id="path134"
           inkscape:connector-curvature="0"
           style="stroke:#000000;stroke-width:2;stroke-miterlimit:4;stroke-dasharray:none;stroke-opacity:1" />
        <path
           d="M 621.4,187.43 C 641.971,192.581 658.292,197.089 668.413,202.884 678.534,208.679 694.205,210.289 707.917,206.426 721.63,202.562 748.071,199.021 746.767,216.085 753.955,207.552 744.809,198.376 726.525,196.766 726.855,188.396 717.895,180.829 711.454,185.819 717.412,185.015 722.554,196.122 710.804,200.629 713.087,192.259 704.762,184.692 696.112,188.395 701.662,190.005 707.275,199.312 694.858,202.883 687.02,205.137 675.595,202.24 667.108,197.088 658.62,191.937 610.954,173.263 621.4,187.43 Z"
           id="path138"
           inkscape:connector-curvature="0"
           style="stroke:#000000;stroke-width:2;stroke-miterlimit:4;stroke-dasharray:none;stroke-opacity:1" />
        <path
           d="M 673.31,179.06 C 666.872,181.957 671.056,188.719 661.077,192.582 651.094,196.445 644.173,205.299 646.427,212.865 653.19,198.055 665.102,198.699 669.285,192.904 673.473,187.109 679.589,178.577 673.31,179.06 Z"
           id="path140"
           inkscape:connector-curvature="0"
           style="stroke:#000000;stroke-width:2;stroke-miterlimit:4;stroke-dasharray:none;stroke-opacity:1" />
        <path
           d="M 675.08,180.02 C 674.76,191.771 665.51,187.49 669.122,204.006 670.251,209.157 672.342,217.528 668.801,225.899 679.184,218.333 672.505,202.439 677.171,196.44 679.426,193.543 682.321,189.035 683.451,185.172 681.034,191.932 681.197,204.49 687.797,207.709 682.484,195.152 702.126,184.85 688.601,170.362 686.671,173.904 680.551,180.182 675.08,180.021 Z M 642.24,168.27 C 643.853,170.685 645.46,176.802 644.01,180.183 647.232,178.251 651.903,173.261 653.348,169.88 659.948,170.846 662.523,179.056 656.248,182.597 660.111,182.597 666.711,182.597 670.411,178.251 665.907,173.261 651.903,165.533 642.241,168.27 Z"
           id="path142"
           inkscape:connector-curvature="0"
           style="stroke:#000000;stroke-width:2;stroke-miterlimit:4;stroke-dasharray:none;stroke-opacity:1" />
        <path
           d="M 542.11,145.18 C 541.068,144.23 539.31,143.328 536.156,142.68 526.41,140.682 531.443,131.896 539.739,131.974 557.443,112.657 567.385,127.548 588.956,121.431 596.506,119.291 601.689,119.924 605.802,121.703 615.46,115.263 626.79,117.063 635.002,124.629 635.915,123.178 637.14,122.07 638.86,121.592 646.423,119.492 652.54,125.94 654.631,134.312 660.527,133.219 667.261,136.137 671.689,140.162 677.823,137.012 682.047,136.872 683.602,140.11 689.077,137.535 696.169,135.92 699.71,144.612 703.252,153.305 691.34,150.73 689.406,169.082 688.215,180.402 675.564,184.857 665.581,178.096 649.614,167.279 634.031,165.539 626.302,181.96 618.577,198.38 612.523,207.92 593.785,202.565 587.027,200.633 578.331,203.209 572.86,210.614 567.385,218.019 559.014,211.096 549.035,211.901 561.589,209.97 556.781,206.811 567.71,206.106 577.69,205.462 575.115,196.126 581.552,194.838 556.439,201.278 557.406,191.94 536.802,198.379 545.815,186.789 559.982,193.228 567.065,186.467 548.39,186.145 540.04,173.945 531.648,179.062 518.448,187.112 524.24,210.027 489.794,208.038 473.052,207.072 462.427,209.326 452.448,219.308 469.836,183.248 493.486,203.058 504.928,191.619 511.69,184.858 516.84,179.706 520.381,173.267 521.627,171.001 523.315,169.705 525.423,169.204 496.769,160.189 514.098,146.146 542.111,145.181 Z"
           id="path144"
           inkscape:connector-curvature="0"
           style="stroke:#000000;stroke-width:2;stroke-miterlimit:4;stroke-dasharray:none;stroke-opacity:1" />
        <path
           d="M 683.59,140.11 C 684.028,141.015 684.252,142.19 684.252,143.643 684.252,150.725 673.628,151.048 672.986,161.512 672.648,166.985 672.019,170.043 668.315,169.399 664.615,168.755 661.394,162.96 664.935,156.199"
           id="path146"
           inkscape:connector-curvature="0"
           style="stroke:#000000;stroke-width:2;stroke-linecap:round;stroke-miterlimit:4;stroke-dasharray:none;stroke-opacity:1" />
        <path
           d="M 547.42,134.63 C 544.753,132.756 542.087,131.995 539.695,131.973 M 605.74,121.65 C 614.265,125.34 618.423,134.196 630.807,134.63 642.728,135.048 650.128,152.338 670.086,141.069 670.628,140.764 671.156,140.479 671.669,140.215 M 635,124.63 C 633.22,127.46 632.817,131.408 633.304,134.874 M 596.04,161.03 C 580.911,161.03 577.044,168.757 577.044,176.162 577.044,183.567 584.127,193.226 596.686,193.226 609.24,193.226 616.003,185.499 616.003,177.128 616.003,168.757 608.273,161.03 596.04,161.03 Z"
           id="path148"
           inkscape:connector-curvature="0"
           style="stroke:#000000;stroke-width:2;stroke-miterlimit:4;stroke-dasharray:none;stroke-opacity:1" />
        <path
           d="M 669.36,169.48 C 681.193,170.446 683.206,157.406 674.352,156.602 M 654.8,134.31 C 650.696,129.079 641.279,127.308 641.117,138.415"
           id="path152"
           inkscape:connector-curvature="0"
           style="fill:none;stroke:#000000;stroke-width:2;stroke-miterlimit:4;stroke-dasharray:none;stroke-opacity:1" />
        <path
           d="M 639.99,151.05 C 635.965,141.07 625.661,139.62 620.186,144.61 615.632,148.764 615.519,159.582 625.34,161.836 628.72,157.812 635.32,152.499 639.99,151.051 Z M 635.56,144.77 C 629.764,139.618 621.231,149.358 628.96,158.292 M 525.31,169.16 C 529.19,168.24 534.86,170.138 543.556,174.227 549.031,176.803 565.452,182.277 575.752,176.803 565.127,180.667 557.081,164.568 549.031,166.5 540.981,168.432 526.252,171.41 520.056,165.534 535.185,166.5 543.323,154.513 560.619,164.89 565.452,167.788 571.569,169.72 577.04,169.398 562.877,152.334 544.202,163.28 542.269,149.437 550.802,158.613 571.648,147.344 582.273,164.569 M 545.33,152.01 C 543.338,149.53 544.238,147.06 542.1,145.105"
           id="path154"
           inkscape:connector-curvature="0"
           style="stroke:#000000;stroke-width:2;stroke-miterlimit:4;stroke-dasharray:none;stroke-opacity:1" />
      </g>
      <path
         d="M 654.8,134.31 C 651.258,130.527 643.533,133.505 645.704,141.152 647.396,137.611 651.017,134.632 654.8,134.31 Z M 632.91,154.93 C 635.348,153.16 637.864,151.707 639.985,151.048 638.827,148.184 637.155,146.022 635.227,144.514 633.385,143.242 628.093,150.358 632.91,154.93 Z"
         id="path158"
         inkscape:connector-curvature="0"
         style="stroke:#000000;stroke-width:2;stroke-miterlimit:4;stroke-dasharray:none;stroke-opacity:1" />
      <g
         id="g162"
         style="fill:none;stroke:#000000;stroke-width:2;stroke-linecap:round;stroke-miterlimit:4;stroke-dasharray:none;stroke-opacity:1"
         transform="translate(0,-500)">
        <path
           id="path160"
           style="stroke:#000000;stroke-width:2;stroke-miterlimit:4;stroke-dasharray:none;stroke-opacity:1"
           d="M 623.4,641.87 C 617.604,638.007 612.292,638.329 610.521,641.548 606.338,641.388 602.875,644.446 602.713,650.563 M 611.65,653.14 C 604.73,648.392 595.229,650.162 595.875,660.787 M 591.69,666.82 C 595.07,664.083 599.898,662.152 603.603,666.981 M 643.37,656.36 C 642.082,658.13 641.116,660.867 643.207,665.053 640.632,661.673 634.195,661.673 627.269,670.687 M 658.66,655.88 C 650.29,656.846 650.452,662.319 657.21,664.734 M 599.1,635.43 C 592.017,633.981 586.867,638.167 596.687,641.708 M 612.62,630.6 C 602.637,628.185 598.612,630.76 603.12,633.015 M 583.8,670.69 C 583.48,674.232 585.408,678.9 591.204,673.588 M 585.74,681.31 C 585.74,682.276 585.577,683.402 584.932,684.207 M 562.55,634.14 C 556.433,632.37 555.308,626.735 562.392,627.218 M 560.46,647.18 C 553.697,644.926 553.697,638.326 559.33,638.97 M 573.02,643.8 C 565.132,641.868 564.812,636.395 570.77,637.2 M 573.98,627.06 C 569.797,626.738 563.355,631.407 574.143,634.143 M 585.74,636.4 C 575.92,634.951 576.082,638.976 581.873,641.552 M 593.14,627.06 C 585.573,625.611 582.998,630.119 588.148,632.05 M 569.32,654.91 C 567.466,653.381 565.94,646.056 574.79,648.23 M 587.67,652.66 C 581.716,651.05 576.082,656.845 581.553,660.226 M 595.55,645.74 C 589.275,644.613 583.962,646.384 587.342,648.637 M 290.66,911.19 C 287.923,913.684 290.579,919.56 294.363,919.56 298.145,919.56 300.48,916.584 299.755,912.8 M 306.03,910.71 C 305.547,914.412 311.02,916.987 314.562,913.529 M 314.73,906.76 C 315.213,905.955 314.811,904.586 314.007,903.942 M 284.79,916.18 C 281.652,918.676 288.413,925.597 292.678,919.238 M 309.01,914.81 C 306.997,916.74 310.217,921.81 313.436,920.28 M 297.99,918.35 C 298.473,921.808 305.234,924.383 309.5,919.075 M 301.69,921.81 C 300.644,923.985 302.737,927.448 305.313,926.964 M 365.76,941.7 C 363.266,946.608 371.233,952.325 377.029,946.367 M 371.55,949.02 C 370.343,951.674 371.792,955.378 373.965,956.745 M 363.99,954.57 C 364.554,952.153 368.014,949.9 371.154,951.028 M 359.8,948.21 C 360.283,946.04 363.18,943.864 365.354,944.43 M 549.35,847.76 C 537.921,847.921 542.75,866.273 552.57,862.57 M 545.65,861.29 C 543.396,864.993 547.742,870.869 552.57,867.407 M 551.29,868.13 C 547.907,873.764 559.982,882.376 564.811,873.522 M 560.95,876.9 C 561.108,882.213 576.563,885.593 574.313,874.968 M 572.86,880.76 C 576.56,887.038 590.406,887.682 588.956,878.345 M 585.9,884.79 C 588.8,888.975 602.321,891.55 601.838,882.858 M 531,831.83 C 532.93,836.82 539.53,838.591 546.775,835.693 M 526.82,835.37 C 531.328,838.267 524.728,851.468 517.808,846.155 M 526.82,843.58 C 531.812,845.995 537.928,844.224 539.699,837.14 M 536.64,842.61 C 537.123,846.313 542.436,849.21 549.357,847.761 M 524.24,846.48 C 530.682,851.953 521.344,863.222 517.157,858.07 M 526.66,850.66 C 529.718,852.914 537.606,851.626 538.41,845.67 M 534.87,850.66 C 535.516,854.523 538.574,855.972 542.92,856.133 M 524.89,855.97 C 528.107,860.478 536.157,861.765 539.698,855.81 M 536.15,859.19 C 535.83,863.537 540.658,867.078 545.65,866.112 M 518.61,868.85 C 522.793,870.942 527.302,863.055 523.76,857.582 M 523.44,877.22 C 528.432,877.542 529.073,869.976 524.407,865.79 M 534.87,884.14 C 539.058,883.174 537.766,873.998 527.624,873.193 M 547.58,890.91 C 551.605,889.783 548.384,879.641 537.28,880.285 M 562.88,894.45 C 565.613,890.265 556.6,883.182 549.197,886.884 M 570.44,900.24 C 575.432,901.689 578.81,888.489 563.036,890.581 M 579.62,900.24 C 583.97,899.113 587.028,891.225 574.312,893.8 M 589.28,900.89 C 593.142,902.822 594.913,891.553 583.16,894.612 M 524.4,865.79 C 529.23,868.527 536.796,865.307 536.15,859.19 M 534.22,864.51 C 535.833,867.407 535.187,873.042 532.128,874.49 M 534.7,871.27 C 537.92,872.558 542.267,871.431 544.842,866.28 M 540.34,871.27 C 541.303,873.524 541.628,878.031 539.532,880.285 M 541.15,875.13 C 544.692,877.062 548.875,874.486 550.646,870.783 M 548.39,874 C 550.965,875.61 553.22,883.176 548.873,886.235 M 551.29,882.7 C 554.348,882.86 558.857,882.86 561.753,878.997 M 559.66,881.09 C 562.397,881.895 565.614,886.403 564.49,890.427 M 564.65,888.97 C 567.713,888.648 573.02,886.555 574.47,882.853 M 573.02,885.27 C 575.6,886.719 577.37,889.777 577.045,893.319 M 577.04,890.74 C 580.098,890.58 582.836,888.97 583.64,885.589 M 582.84,887.85 C 585.094,888.655 587.832,891.23 587.994,894.29 M 587.67,892.35 C 589.924,892.028 591.532,890.58 592.983,888.325 M 599.1,888.01 C 602,890.908 598.137,900.567 592.18,898.796 M 537.28,692.9 C 531.322,696.441 514.417,695.315 522.788,681.31 M 538.89,683.4 C 527.14,688.068 512.648,679.054 527.782,669.234 M 523.76,666.02 C 513.94,666.02 507.339,681.796 520.543,687.269 M 485.61,672.62 C 483.035,677.61 492.21,683.083 498.489,678.093 503.352,674.227 502.993,663.766 500.097,659.741 M 480.62,684.53 C 477.4,695.154 501.066,695.798 497.362,678.895 M 479.33,700.31 C 480.134,708.359 502.03,705.783 494.943,689.524 M 497.52,685.01 C 499.29,687.425 504.12,691.61 512.328,690.805 M 501.38,673.58 C 502.105,676.477 507.013,678.731 513.293,676.559 M 281.73,918.51 C 276.177,922.456 284.709,928.652 287.847,921.81 M 277.38,921.57 C 271.827,925.512 280.359,931.708 283.497,924.866 M 272.79,924.55 C 267.235,928.496 275.768,934.692 278.907,927.85 M 267.96,927.29 C 262.647,930.107 268.845,937.028 274.238,930.91 M 262.73,929.95 C 257.417,932.763 263.616,939.688 269.008,933.57 M 289.7,921.65 C 289.619,925.754 297.427,927.446 300.243,921.325 M 294.61,925.44 C 292.195,928.498 296.623,932.282 299.038,930.91 M 284.22,924.87 C 283.978,928.332 290.739,930.345 294.04,926.562 M 287.93,928.5 C 285.756,931.317 290.022,935.1 292.76,933.97 M 279.72,928.01 C 279.96,930.747 283.824,933.885 288.01,932.114 M 282.21,931.71 C 280.6,933.16 281.405,936.543 283.659,937.59 M 273.84,931.47 C 273.196,933.966 277.463,938.395 281.809,935.495 M 274.72,934.37 C 272.145,936.383 272.466,939.44 275.766,939.84 M 268.53,934.05 C 268.208,935.738 270.382,938.475 273.119,938.154 M 254.76,933.89 C 252.185,935.257 258.785,942.26 262.889,935.74 M 248.4,936.78 C 245.18,938.313 253.15,946.038 256.691,938.15 M 269.25,936.46 C 266.754,937.023 265.145,940.648 267.237,942.093 M 261.12,937.75 C 260.798,939.2 263.857,941.612 266.353,940.73 M 259.03,938.4 C 256.615,939.93 257.903,944.192 260.72,943.55 M 250.42,941.21 C 248.166,942.898 249.695,946.28 252.835,945.477 M 254.52,940.97 C 254.601,941.853 256.613,943.224 258.304,942.662 M 242.61,939.52 C 239.794,940.728 239.955,947.812 249.453,943.95 M 236.25,942.34 C 232.305,944.273 233.593,949.586 242.206,944.515 M 242.93,944.92 C 241.884,945.724 240.758,949.266 244.7,947.895 M 235.69,946.6 C 234.08,948.05 235.127,951.03 238.67,949.9 M 227.4,947.09 C 224.503,948.782 230.86,951.036 235.127,946.527 M 229.33,949.18 C 228.042,950.468 228.042,954.25 231.422,952.884 M 221.12,950.71 C 219.188,952.16 222.488,954.093 228.525,951.435 M 223.53,952.8 C 221.276,954.65 221.517,956.983 224.818,956.258 M 216.85,953.85 C 214.355,956.104 217.977,957.633 222.323,955.78 M 216.93,956.35 C 212.663,958.28 214.515,961.82 217.17,960.454 M 359.4,968.66 C 358.41,970.79 361.654,972.522 364.713,972.04 367.65,971.577 370.461,969.156 368.253,965.764 M 368.41,969.95 C 371.307,972.204 376.459,969.63 376.459,966.246 M 297.18,904.75 C 293.8,908.212 297.985,914.57 303.056,912.638 308.126,910.706 307.644,905.394 306.437,904.026 M 324.79,908.29 C 326.078,905.553 319.96,901.046 315.292,906.036 310.624,911.026 315.936,916.661 318.834,914.728 M 303.38,897.51 C 300.965,901.695 310.302,909.343 315.615,902.26 M 375.58,957.31 C 372.843,955.54 366.887,958.518 369.624,964.314 371.684,968.677 376.868,966.889 377.673,964.635 M 360.2,965.6 C 361.567,968.013 368.409,966.97 369.617,964.312 M 364.87,957.63 C 366.319,956.663 368.974,957.867 369.538,959.076 M 364.39,917.95 C 359.722,921.008 362.62,930.346 369.863,927.93 M 362.94,925.52 C 359.237,928.416 362.618,937.433 369.54,934.053 M 364.07,934.05 C 361.495,936.625 363.99,943.788 370.67,942.42 M 363.1,937.59 C 361.65,936.944 357.868,937.427 356.257,939.84 M 358.92,904.99 C 355.379,908.37 357.068,915.294 363.668,915.856 M 357.63,912.07 C 352.558,914.566 352.558,924.624 362.7,925.028 M 357.23,923.42 C 354.413,925.674 355.781,934.366 363.025,933.237 M 359.56,932.92 C 358.513,933.966 358.352,936.624 359.238,937.75 M 356.34,929.62 C 353.765,929.7 350.384,931.553 349.497,934.208 M 344.83,924.87 C 345.796,922.295 353.765,922.457 354.328,930.024 M 355.13,921.01 C 354.003,921.252 351.83,922.298 351.267,924.472 M 351.67,897.43 C 348.208,900.569 346.519,910.47 357.062,912.4 M 344.67,917.87 C 344.67,915.212 351.834,912.958 354.329,916.903 M 340.08,903.46 C 341.126,905.473 346.116,908.21 349.175,905.956 M 314.16,887.69 C 314,892.358 317.863,896.544 323.175,895.9 328.487,895.256 329.615,890.587 328.005,887.529 M 323.98,896.06 C 320.438,900.406 324.785,906.524 328.81,904.753 M 328.01,893 C 330.103,892.195 337.025,891.23 339.118,894.449 M 305.63,894.29 C 304.02,896.705 314.001,899.12 317.381,894.45 M 314,896.86 C 313.677,900.08 315.288,905.553 323.498,903.3 M 357.15,834.72 C 351.033,838.423 353.448,847.276 356.667,848.564 359.887,849.852 362.462,848.242 362.785,845.506 M 362.3,857.9 C 362.944,862.085 347.409,860.476 355.378,847.437 M 355.29,858.63 C 350.059,866.84 358.59,873.52 363.983,866.518 M 356.02,868.53 C 353.927,875.13 361.895,879.88 367.046,874.728 M 338.63,806.71 C 335.732,812.666 350.22,814.92 351.186,802.685 M 334.61,815.57 C 331.713,827.16 353.605,824.746 347.971,809.775 M 348.45,817.5 C 351.508,819.27 360.685,819.432 362.938,809.612 M 356.34,817.82 C 356.984,820.878 359.72,824.58 362.296,825.708 M 345.88,820.88 C 344.914,827.158 351.192,832.31 358.436,831.827 M 347,827 C 343.459,831.83 342.332,841.166 353.44,841.81 M 330.1,828.61 C 328.33,833.6 338.793,838.752 344.91,830.542 M 326.88,841.32 C 325.994,845.104 335.412,850.174 340.724,834.076 M 336.54,842.29 C 338.794,846.314 346.36,849.534 351.028,841.646 M 343.46,846.48 C 341.528,852.114 346.84,857.426 353.28,855.817 M 331.39,845.19 C 330.102,853.239 339.439,857.907 345.234,853.722 M 325.27,848.73 C 322.534,859.033 335.734,862.896 340.724,855.169 M 337.35,858.23 C 337.833,864.025 346.848,869.015 353.931,864.186 M 321.25,863.06 C 320.606,865.635 331.392,868.211 333.001,859.196 M 327.53,865.31 C 330.105,871.91 338.798,873.52 343.789,865.471 M 340.89,868.69 C 342.017,874.807 349.905,878.188 356.827,874.002 M 359.72,876.42 C 357.95,884.63 366.481,891.23 371.793,886.723 M 346.04,874.97 C 343.465,883.985 354.733,889.136 361.011,884.146 M 332.52,870.46 C 331.876,878.83 338.476,883.821 346.042,880.118 M 318.19,871.27 C 315.936,876.743 327.849,881.25 333.483,876.583 M 310.78,886.24 C 313.839,889.781 324.463,886.24 325.429,878.352 M 322.54,884.14 C 326.403,888.648 335.579,891.062 339.282,881.403 M 336.06,886.4 C 335.899,893.322 348.295,898.313 352.319,885.595 M 366.88,888.09 C 365.753,891.47 368.41,896.863 373.963,897.507 M 356.66,886 C 355.855,889.863 361.49,895.255 367.446,893.083 M 368.58,894.69 C 366.97,898.875 368.338,904.911 373.972,904.831 M 369.14,902.5 C 364.955,906.041 366.725,912.32 372.763,912.562 M 366.97,908.45 C 361.014,912.472 363.107,921.327 370.994,920.848 M 348.94,891.39 C 348.94,900.083 359.725,901.37 361.818,893.322 M 357.63,898.47 C 356.02,903.621 360.205,908.612 366.805,907.163 M 358.92,960.61 C 360.37,962.706 366.325,959.164 364.715,955.623 363.105,952.081 356.796,954.006 357.471,957.714 M 363.26,954.17 C 364.065,947.087 355.694,945.962 353.601,952.078 M 356.66,948.54 C 358.753,944.998 351.67,940.17 348.772,945.32 M 351.35,943.22 C 353.282,938.066 345.233,935.816 344.589,940.483 M 342.82,933.72 C 343.786,931.145 352.8,932.753 348.937,938.066 M 355.86,944.51 C 359.402,941.29 353.446,934.69 349.743,937.106 M 379.68,954.33 C 376.862,954.65 373.964,956.5 376.057,962.46 377.508,966.593 383.704,966.805 384.589,964.31 M 394.17,768.56 C 390.468,772.423 392.721,780.312 401.736,780.473 408.994,780.603 412.682,773.712 410.429,768.883 M 400.45,780.47 C 397.553,786.91 399.323,793.831 410.27,792.704 M 414.94,802.85 C 408.18,799.792 399.164,802.85 403.028,810.9 M 402.06,791.42 C 399.323,795.283 400.29,800.757 403.348,804.137 M 401.58,801.72 C 397.072,802.525 392.726,804.94 395.463,812.023 M 394.81,806.23 C 389.015,804.46 381.61,808.645 386.117,814.6 M 385.16,808.97 C 380.17,808.165 374.214,813.477 379.043,818.79 M 377.11,814.44 C 372.602,815.567 367.29,820.718 371.958,824.743 M 399.81,789.17 C 393.37,792.067 392.727,799.312 395.785,804.624 M 393.04,775.81 C 383.381,779.513 383.542,792.391 394.167,796.415 M 389.66,793.51 C 383.865,796.89 382.738,803.33 386.602,807.515 M 379.52,770.98 C 375.656,772.268 375.978,784.18 386.281,783.858 M 368.9,775 C 361.173,780.151 370.51,793.19 383.066,783.854 M 376.14,787.07 C 375.013,792.383 376.462,798.178 384.994,798.822 M 376.62,794.16 C 370.503,796.413 369.376,808.97 380.483,809.936 M 357.15,782.73 C 349.262,789.974 363.59,796.252 368.902,785.789 M 346.2,794.8 C 342.336,799.468 355.858,811.703 361.815,791.258 M 363.26,790.94 C 363.582,795.77 366.48,798.667 372.435,798.989 M 372.28,803.66 C 362.782,805.109 359.724,817.021 370.348,819.597 M 354.73,802.05 C 354.408,806.557 359.076,810.26 364.389,809.455 M 369.22,819.27 C 360.527,821.202 359.4,832.47 367.128,831.826 M 363.1,842.29 C 355.855,840.117 355.695,831.504 362.134,828.285 M 416.06,769.37 C 410.428,771.785 407.208,778.868 410.267,783.214 413.327,787.56 419.443,786.111 422.823,783.858 M 412.2,785.14 C 407.532,792.223 411.717,797.535 416.708,799.628 M 475.62,787.07 C 469.987,789.485 468.216,797.05 470.307,801.236 472.403,805.421 479.003,805.744 483.028,803.006 M 459.85,781.12 C 454.7,786.915 460.654,798.184 469.833,795.447 M 446.65,776.61 C 441.82,783.37 447.133,794.64 459.529,791.42 M 460.17,822.81 C 458.882,814.76 467.253,809.449 477.558,819.912 M 472.57,803.66 C 469.512,806.397 468.066,810.743 468.545,814.285 M 433.45,772.75 C 428.137,781.765 434.58,789.975 446.008,786.755 M 463.23,795.12 C 455.663,802.686 458.238,810.252 463.872,814.598 M 458.4,803.98 C 446.971,804.14 446.329,817.341 455.667,821.527 M 449.71,790.78 C 445.043,794 443.593,802.853 451.643,806.395 M 449.39,810.58 C 444.56,808.326 438.765,811.063 439.248,816.697 M 442.14,810.74 C 437.794,800.437 425.077,802.208 426.207,812.833 M 445.68,798.02 C 442.947,798.503 437.472,800.112 435.38,804.298 M 436.19,786.43 C 431.04,792.225 435.06,799.147 439.248,800.596 M 420.9,770.17 C 419.933,777.092 422.67,780.473 431.363,779.829 M 423.95,779.03 C 420.567,787.4 425.075,791.103 433.767,790.62 M 425.88,789.33 C 420.73,795.447 424.272,802.048 429.26,804.784 M 423.47,797.06 C 414.295,795.933 412.845,806.558 415.903,811.548 M 498.81,737.98 C 500.098,737.82 502.352,737.336 502.835,735.726 M 333.16,887.85 C 337.99,890.587 341.37,895.255 339.277,902.177 M 554.5,723.17 C 555.95,724.136 561.425,724.136 564.483,723.01 M 568.35,726.39 C 568.187,728.644 568.833,737.175 564.488,738.946 M 566.1,737.82 C 570.125,739.108 578.175,738.625 580.75,731.22 M 575.11,737.49 C 577.202,740.71 577.843,746.988 571.568,750.368 M 576.72,742.81 C 581.387,744.42 592.174,744.58 591.045,735.405 M 587.35,742.81 C 590.57,747.317 604.738,752.63 602.483,743.293 M 574.31,755.84 C 579.78,757.128 587.51,753.425 584.29,743.767 M 599.74,748.6 C 600.544,752.303 618.573,756.166 616.161,747.795 M 612.78,752.63 C 616.163,760.357 634.03,759.713 628.397,749.41 M 625.5,757.45 C 629.042,761.797 644.821,759.22 638.542,748.757 M 638.37,757.29 C 648.19,764.695 659.62,754.07 647.224,746.343 M 652.86,754.88 C 661.556,761.802 672.181,749.245 664.614,745.704 M 584.12,751.98 C 586.857,752.785 592.653,752.463 593.94,747.473 M 591.77,750.85 C 591.45,758.175 603.766,760.992 606.903,752.54 M 602.8,757.13 C 605.054,761.96 615.838,763.89 617.608,756.969 M 615.84,760.19 C 617.61,765.02 626.948,764.537 629.523,759.546 M 626.14,762.77 C 629.036,769.048 640.948,769.048 643.686,759.872 M 641.6,763.89 C 646.267,766.788 656.25,765.66 655.442,756.646 M 653.51,763.09 C 660.43,768.725 670.252,763.251 665.423,753.753 M 664.94,770.49 C 668.644,769.846 670.573,762.441 666.71,760.51 M 579.14,771.78 C 586.865,767.595 588.315,760.512 583.002,753.59 M 585.74,764.7 C 590.57,767.597 599.744,764.54 601.353,757.456 M 592.34,765.5 C 595.073,769.041 595.557,773.388 592.015,777.412 M 594.59,770.01 C 603.12,764.698 613.744,774.518 605.857,780.474 M 604.41,769.53 C 606.343,769.047 609.723,765.506 610.043,761.481 M 608.27,773.23 C 611.812,769.527 635.962,777.094 620.666,784.82 M 619.54,763.09 C 624.207,764.86 626.623,771.461 619.54,773.715 M 625.66,779.19 C 630.81,773.878 646.91,777.258 641.114,784.02 M 637.25,777.09 C 640.146,767.27 657.371,773.387 651.738,777.412 M 633.71,767.27 C 634.193,769.202 634.352,774.031 631.135,776.607 M 648.2,765.34 C 648.842,766.95 648.683,770.008 647.233,771.94 M 659.14,765.5 C 660.107,767.27 661.715,770.651 658.173,773.388 M 521.35,691.45 C 521.508,700.625 524.73,706.743 537.125,700.948 M 525.21,702.4 C 519.093,710.61 526.014,719.464 538.089,710.61 M 506.37,706.42 C 514.74,715.435 529.712,708.835 520.053,695.151 M 530.2,714.15 C 528.587,723.004 535.833,724.775 541.788,720.75 M 498.97,707.87 C 500.495,716.771 509.595,723.807 518.449,718.334 M 509.92,720.11 C 509.92,732.828 527.466,734.276 531.491,721.076 M 525.21,729.12 C 530.843,740.71 543.077,736.042 547.102,728.96 M 512.81,710.61 C 515.064,716.244 519.573,722.523 530.035,717.854 M 480.62,707.87 C 482.07,712.538 490.44,718.173 500.099,711.733 M 486.57,713.83 C 481.416,721.396 491.72,728.479 504.116,717.21 M 492.69,723.17 C 494.782,733.795 498.965,742.327 514.098,728.643 M 506.53,734.11 C 512.005,740.87 520.376,745.056 528.263,733.627 M 499.13,795.12 C 492.53,800.11 494.3,807.193 497.2,810.413 500.097,813.633 505.568,812.183 507.339,807.998 M 485.28,790.78 C 477.876,800.278 485.28,811.546 495.747,808.166 M 524.89,818.95 C 517.323,821.687 511.552,828.557 516.194,834.565 518.932,838.107 530.844,838.59 534.224,824.906 M 511.2,810.09 C 506.854,816.368 508.3,822.325 516.35,825.383 M 510.72,821.85 C 506.05,824.426 502.99,827.485 504.12,833.119 M 500.26,812.03 C 498.49,819.596 500.58,824.265 505.247,826.518 M 500.1,821.04 C 492.854,820.557 489.154,823.615 491.567,830.699 M 492.21,822.81 C 485.127,820.234 483.997,814.117 487.056,807.678 M 486.09,817.18 C 478.36,817.502 474.982,821.365 474.982,826.678 M 534.06,736.04 C 533.577,744.089 535.185,748.113 541.464,747.791 546.414,747.538 551.123,743.606 553.86,739.421 M 540.34,747.8 C 540.177,756.976 547.42,764.22 560.944,754.883 M 545.97,758.58 C 543.395,765.502 551.12,776.77 566.253,770.975 M 513.94,740.23 C 512.977,749.084 521.186,755.04 534.386,743.61 M 520.38,750.05 C 520.863,757.294 529.072,765.987 541.147,753.43 M 526.17,759.23 C 525.203,771.625 536.633,775.167 546.291,765.67 M 508.95,750.05 C 511.525,750.211 513.617,747.958 514.904,746.347 M 514.42,759.06 C 516.674,759.543 520.54,757.45 521.828,754.875 M 520.06,773.71 C 522.635,776.447 531.327,774.515 532.452,770.813 M 529.72,773.55 C 534.55,784.818 547.424,784.335 552.737,771.618 M 550.32,776.13 C 552.733,782.73 558.853,786.915 568.833,784.662 M 555.15,782.89 C 549.517,792.066 556.92,802.851 569.475,792.227 M 558.21,796.57 C 557.568,802.365 562.88,808.965 570.123,809.77 M 534.38,779.67 C 532.447,792.709 541.784,798.988 553.538,792.065 M 520.7,785.95 C 523.758,788.365 529.233,788.687 534.383,786.755 M 540.66,794.32 C 537.76,805.267 549.03,813.155 558.689,800.92 M 525.05,787.72 C 525.213,793.354 530.688,799.471 540.183,797.7 M 566.74,808.97 C 560.298,813.316 559.01,821.043 568.028,826.033 M 550.96,806.71 C 551.285,813.31 554.343,817.013 561.585,817.656 M 541.47,803.33 C 531.812,812.184 541.307,822.487 552.737,813.794 M 548.23,816.53 C 545.01,826.672 557.084,832.789 563.522,822.486 M 528.27,794.96 C 524.728,804.94 529.237,811.541 537.445,810.897 M 515.55,793.03 C 516.033,798.986 521.183,801.079 526.979,799.791 M 519.25,799.31 C 514.904,807.68 521.504,812.188 530.2,808.969 M 556.6,827.64 C 555.15,832.952 555.954,836.816 563.842,838.587 M 557.08,835.21 C 547.58,839.557 546.776,848.733 554.18,854.688 M 549.43,824.99 C 544.443,829.498 545.405,837.304 550.88,840.363 M 507.18,795.61 C 501.705,801.003 506.938,815.893 519.009,807.765 M 538.57,814.44 C 531.162,820.557 534.545,831.665 546.778,828.606 M 526.33,809.77 C 522.468,820.717 526.172,824.58 534.863,824.741 M 384.83,914.57 C 383.542,911.35 388.694,908.13 388.855,905.07 389.015,902.013 394.65,899.598 400.445,905.393 M 397.71,871.11 C 396.583,871.593 395.617,872.237 394.651,872.559 M 408.82,888.65 C 407.451,888.731 404.635,888.57 403.105,887.523 M 403.19,894.77 C 402.063,895.334 399.567,896.3 398.118,896.622 M 347.97,992 C 347.809,994.9 350.707,999.083 352.316,1000.37 M 360.53,985.08 C 358.92,987.493 357.955,991.68 358.92,994.576 M 384.51,994.74 C 381.612,992.807 383.544,987.815 383.222,984.598 382.9,981.378 386.602,976.228 393.847,980.573 M 357.47,976.39 C 360.368,975.907 363.426,976.065 365.358,976.87 M 394.17,967.21 C 392.882,968.98 392.56,970.914 392.4,972.202 M 407.69,966.89 C 405.436,966.89 403.505,968.498 402.539,970.11 M 376.46,884.47 C 379.036,885.356 385.716,889.46 385.958,893.727 M 403.83,863.54 C 395.942,863.379 392.884,855.33 398.84,855.33 M 418,874.32 C 414.942,875.608 416.392,880.92 420.737,883.496 M 399.16,924.87 C 397.63,922.94 399.643,917.307 404.633,918.995 M 410.91,983.63 C 411.23,978.722 417.43,975.822 419.926,981.376 M 388.05,997.63 C 387.647,992.238 390.384,990.468 392.798,990.147 395.213,989.826 398.675,991.834 400.285,995.376 M 340.08,1001.66 C 340.402,998.44 343.139,995.06 346.036,995.543 M 634.67,858.71 C 632.574,860.24 631.208,867.08 639.174,867.725 M 622.44,869.98 C 622.44,870.785 623.486,871.912 624.132,872.395 M 660.43,882.86 C 658.338,881.25 652.943,887.77 657.855,892.519 M 609.24,936.95 C 608.032,932.362 612.298,931.154 616.323,932.12 M 598.94,904.43 C 601.353,902.82 603.77,901.05 606.828,900.245 M 597.65,922.13 C 597.65,918.268 599.58,915.05 601.35,914.084 M 611.81,877.71 C 611.49,882.378 613.423,886.886 614.873,889.3 M 650.13,878.03 C 647.793,878.755 645.7,879.64 644.817,881.572 M 647.55,891.23 C 648.68,890.264 649.967,889.138 650.53,888.333 M 708.4,750.69 C 708.4,755.197 702.767,757.612 699.067,754.714 M 720.64,750.85 C 723.132,752.782 731.744,750.931 729.732,745.94 M 710.17,776.77 C 708.4,776.448 705.34,774.516 704.053,772.907 M 727.88,763.41 C 724.984,764.054 723.05,763.41 721.6,762.766 M 682.16,779.51 C 683.768,779.51 687.63,778.866 690.29,777.498 M 677.33,751.02 C 675.238,750.78 673.705,751.181 672.5,751.986 M 709.77,758.9 C 709.207,760.913 707.757,764.051 705.987,765.42 M 382.58,1013.57 C 376.14,1011.316 368.092,1014.537 366.482,1020.012 M 371.31,1025 C 372.115,1019.53 380.486,1017.112 383.061,1019.687 377.749,1016.792 375.173,1027.092 379.841,1027.417 M 423.15,897.67 C 419.288,899.602 418.163,906.685 423.15,911.999 M 428.94,899.28 C 426.207,901.534 426.365,908.295 430.39,909.905 427.01,907.49 430.39,903.305 432.807,903.144 435.219,902.983 436.827,905.88 433.932,908.778 M 655.12,915.21 C 646.108,912.797 638.862,923.26 647.07,932.598 646.912,923.581 653.35,917.627 661.237,919.235 M 657.61,925.47 C 655.393,925.47 654.148,927.203 654.148,928.89 654.148,930.662 655.677,932.353 658.173,932.353 659.785,932.353 661.073,930.503 661.073,929.053 M 689.4,727.83 C 690.85,733.303 698.417,735.557 704.371,734.27 M 704.37,730.73 C 699.703,730.891 695.84,726.545 696.162,722.842 696.162,725.579 702.441,726.867 704.37,725.096 M 598.77,692.9 C 598.45,688.715 590.882,689.358 591.203,686.139 591.524,682.919 595.391,681.631 595.391,677.124 595.391,672.617 602.149,672.294 604.403,675.836 606.658,679.377 613.42,686.299 614.87,682.758 M 604.41,675.84 C 600.868,679.381 599.26,686.625 603.927,692.26 M 609.24,681.31 C 608.115,683.725 607.794,687.427 609.082,689.68 M 650.45,708.68 C 647.392,709.324 646.425,714.636 648.354,717.373 M 657.05,711.9 C 658.017,713.51 657.37,715.763 656.887,716.89 M 625.34,702.08 C 631.294,702.402 632.423,706.749 638.861,708.358 M 671.86,765.99 C 675.885,764.22 680.877,777.902 690.535,773.073 M 691.34,758.9 C 690.052,760.67 689.248,763.408 689.086,765.822"
           inkscape:connector-curvature="0" />
      </g>
      <path
         d="M 654.46,134.31 C 650.922,134.965 647.752,137.044 645.698,141.15"
         id="path164"
         inkscape:connector-curvature="0"
         style="fill:#ffffff;stroke:#000000;stroke-width:2;stroke-miterlimit:4;stroke-dasharray:none;stroke-opacity:1" />
    </g>
  </g>
</svg>
