<?xml version="1.0" encoding="UTF-8" standalone="no"?>
<svg
   xmlns:dc="http://purl.org/dc/elements/1.1/"
   xmlns:cc="http://creativecommons.org/ns#"
   xmlns:rdf="http://www.w3.org/1999/02/22-rdf-syntax-ns#"
   xmlns:svg="http://www.w3.org/2000/svg"
   xmlns="http://www.w3.org/2000/svg"
   xmlns:sodipodi="http://sodipodi.sourceforge.net/DTD/sodipodi-0.dtd"
   xmlns:inkscape="http://www.inkscape.org/namespaces/inkscape"
   width="1200"
   height="660"
   version="1.1"
   id="svg72"
   sodipodi:docname="ic_flag_py.svg"
   inkscape:version="0.92.1 r15371">
  <metadata
     id="metadata78">
    <rdf:RDF>
      <cc:Work
         rdf:about="">
        <dc:format>image/svg+xml</dc:format>
        <dc:type
           rdf:resource="http://purl.org/dc/dcmitype/StillImage" />
      </cc:Work>
    </rdf:RDF>
  </metadata>
  <defs
     id="defs76" />
  <sodipodi:namedview
     pagecolor="#ffffff"
     bordercolor="#666666"
     borderopacity="1"
     objecttolerance="10"
     gridtolerance="10"
     guidetolerance="10"
     inkscape:pageopacity="0"
     inkscape:pageshadow="2"
     inkscape:window-width="1535"
     inkscape:window-height="927"
     id="namedview74"
     showgrid="false"
     inkscape:zoom="0.18679404"
     inkscape:cx="-100.07323"
     inkscape:cy="1483.5749"
     inkscape:window-x="0"
     inkscape:window-y="0"
     inkscape:window-maximized="0"
     inkscape:current-layer="svg72" />
  <path
     d="M0 0h1200v660H0z"
     fill="#0038a8"
     id="path2" />
  <path
     d="M0 0h1200v440H0z"
     fill="#fff"
     id="path4" />
  <path
     d="M0 0h1200v220H0z"
     fill="#d52b1e"
     id="path6" />
  <path
     d="M683.656 329.978c0 46.218-37.442 83.678-83.658 83.678-46.193 0-83.654-37.46-83.654-83.678 0-46.198 37.462-83.634 83.654-83.634 46.216 0 83.658 37.436 83.658 83.634z"
     stroke-miterlimit="10"
     fill="#fff"
     stroke="#000"
     stroke-width="3.687"
     id="path8" />
  <path
     d="M 547.516,363.468 546.799,362.281 C 546.727,362.149 546.54,361.931 546.241,361.606 546.09917,361.44602 545.90027,361.34801 545.687,361.333 545.46094,361.30031 545.23054,361.34696 545.035,361.465 544.757,361.635 544.575,361.862 544.545,362.14 544.492,362.423 544.624,362.812 544.938,363.337 L 545.663,364.572 Z M 554.596,363.06 545.496,368.472 542.718,363.804 C 542.203,362.928 541.89,362.232 541.768,361.682 541.625,361.123 541.693,360.599 541.924,360.078 542.154,359.552 542.572,359.114 543.154,358.765 543.60171,358.49209 544.11036,358.33503 544.634,358.308 545.144,358.308 545.609,358.434 546.06,358.673 546.338,358.833 546.662,359.081 547.015,359.441 546.931,359.052 546.883,358.745 546.902,358.507 546.932,358.366 546.996,358.133 547.123,357.777 547.246,357.437 547.363,357.199 547.436,357.048 L 549.275,354.12 551.15,357.3 549.275,360.457 C 549.04,360.856 548.897,361.163 548.878,361.377 548.867,361.673 548.932,361.931 549.073,362.184 L 549.229,362.442 552.916,360.248 Z M 538.576,355.65 535.798,347.348 537.94,346.628 539.68,351.832 541.286,351.292 539.65,346.462 541.708,345.791 543.324,350.597 545.294,349.96 543.516,344.605 545.789,343.831 548.611,352.289 Z M 538.872,338.75 538.76,337.973 C 538.687,337.325 538.53,336.907 538.29,336.689 538.0462,336.46979 537.7194,336.36693 537.394,336.407 537.07,336.46 536.806,336.597 536.604,336.824 536.394,337.078 536.324,337.496 536.412,338.104 L 536.501,339.038 Z M 534.756,342.54 534.125,337.146 C 533.998,335.988 534.165,335.064 534.649,334.412 535.149,333.766 535.914,333.377 536.942,333.26 538.001,333.128 538.878,333.356 539.544,333.917 540.202,334.486 540.623,335.434 540.78,336.737 L 540.98,338.513 544.876,338.06 545.258,341.324 Z M 534.389,321.9 534.727,318.65 541.009,319.326 C 541.60128,319.39333 542.17875,319.55611 542.719,319.808 543.25504,320.04752 543.72309,320.41659 544.081,320.882 544.444,321.35 544.699,321.797 544.817,322.279 544.977,322.915 545.022,323.694 544.919,324.589 544.86003,325.14656 544.76179,325.69927 544.625,326.243 544.493,326.84 544.288,327.333 544.032,327.712 543.76054,328.1167 543.41476,328.46621 543.013,328.742 542.6273,329.01486 542.18787,329.20236 541.724,329.292 541.028,329.434 540.431,329.462 539.912,329.404 L 533.659,328.744 533.996,325.489 540.412,326.185 C 540.99,326.243 541.45,326.136 541.807,325.843 542.166,325.556 542.367,325.139 542.435,324.589 542.495,324.009 542.376,323.563 542.096,323.218 541.818,322.862 541.386,322.663 540.803,322.595 Z M 544.912,313.008 545.476,311.442 C 545.647,310.912 545.696,310.502 545.579,310.206 545.46604,309.92432 545.22895,309.71087 544.937,309.628 544.622,309.52 544.363,309.54 544.109,309.696 543.845,309.856 543.618,310.196 543.437,310.726 L 542.879,312.302 Z M 540.988,311.632 541.463,310.303 C 541.623,309.817 541.668,309.448 541.55,309.199 541.463,308.96 541.256,308.771 540.938,308.679 540.68782,308.57446 540.40405,308.58692 540.164,308.713 539.934,308.849 539.742,309.14 539.586,309.608 L 539.09,310.974 Z M 535.993,313.387 538.003,307.595 C 538.351,306.631 538.846,305.989 539.512,305.625 540.13986,305.28795 540.88113,305.23272 541.552,305.473 542.129,305.701 542.569,306.053 542.874,306.568 543.054,306.908 543.168,307.356 543.168,307.876 543.584,307.216 544.064,306.796 544.598,306.616 545.142,306.422 545.735,306.432 546.377,306.656 546.881,306.83 547.303,307.117 547.637,307.496 547.955,307.896 548.165,308.334 548.269,308.83 548.317,309.15 548.293,309.578 548.18,310.109 548.014,310.853 547.916,311.324 547.832,311.544 L 545.97,316.874 Z M 541.385,299.832 543.095,297.041 549.906,301.169 552.558,296.813 554.778,298.169 550.456,305.314 Z M 548.371,289.426 550.474,286.921 558.544,293.744 556.438,296.249 Z M 563.028,283.74 565.778,282.564 C 566.131,283.304 566.332,284.008 566.36,284.699 566.38747,285.36114 566.25363,286.02005 565.97,286.619 565.655,287.227 565.141,287.816 564.436,288.434 563.538,289.164 562.715,289.64 561.936,289.849 561.166,290.049 560.304,290 559.344,289.698 558.418,289.392 557.536,288.726 556.684,287.728 555.576,286.373 555.066,285.044 555.179,283.74 555.287,282.413 556.002,281.221 557.305,280.122 558.34,279.266 559.3,278.819 560.245,278.746 561.167,278.658 562.147,278.936 563.131,279.553 L 561.324,281.897 C 561.049,281.717 560.82,281.597 560.624,281.557 560.33811,281.4711 560.03378,281.46764 559.746,281.547 559.44945,281.61237 559.17341,281.74936 558.942,281.946 558.368,282.426 558.119,283.02 558.202,283.73 558.251,284.26 558.589,284.879 559.177,285.613 559.937,286.513 560.593,287.017 561.133,287.12 561.701,287.237 562.225,287.077 562.715,286.668 563.191,286.26 563.45,285.832 563.46,285.365 563.474,284.868 563.342,284.329 563.028,283.74 M 573.728,277.385 570.965,274.525 571.661,278.449 Z M 575.375,279.121 572.063,280.805 572.401,282.599 569.426,284.111 568.166,272.881 571.346,271.256 579.692,278.879 576.649,280.435 Z M 588.238,268.096 589.051,273.806 589.846,273.689 C 590.526,273.605 591.002,273.455 591.271,273.265 591.531,273.056 591.708,272.789 591.815,272.37 591.932,271.981 591.932,271.374 591.811,270.527 591.655,269.423 591.36,268.684 590.948,268.333 590.528,267.983 589.894,267.857 589.052,267.983 Z M 584.681,266.184 589.483,265.493 C 590.429,265.367 591.198,265.376 591.815,265.552 592.452,265.732 592.976,266.023 593.437,266.452 593.884,266.879 594.241,267.4 594.496,268.008 594.7711,268.64513 594.95557,269.31767 595.044,270.006 595.216,271.115 595.216,272.01 595.034,272.647 594.88321,273.27234 594.59906,273.8577 594.201,274.363 593.799,274.836 593.353,275.191 592.858,275.39 592.25512,275.66792 591.61729,275.8627 590.962,275.969 L 586.15,276.646 Z M 599.072,264.134 607.799,264.781 607.637,267.032 602.173,266.624 602.046,268.302 607.114,268.676 606.931,270.821 601.89,270.461 601.742,272.524 607.363,272.941 607.187,275.324 598.292,274.668 Z M 612.518,265.368 615.66,266.244 613.488,273.929 618.394,275.315 617.678,277.805 609.626,275.525 Z M 630.358,277.1 631.034,277.538 C 631.554,277.883 631.994,278.029 632.314,277.994 632.63844,277.97117 632.93053,277.78917 633.094,277.508 633.269,277.241 633.334,276.94 633.294,276.613 633.23,276.303 632.941,275.987 632.431,275.651 L 631.651,275.125 Z M 630.098,271.531 634.642,274.528 C 635.626,275.174 636.204,275.904 636.382,276.691 636.572,277.489 636.382,278.326 635.797,279.192 635.23,280.072 634.494,280.588 633.622,280.738 632.74,280.879 631.774,280.607 630.672,279.882 L 629.178,278.89 627.031,282.163 624.291,280.349 Z M 641.57,287.653 643.412,284.128 639.914,286.02 Z M 640.453,289.754 637.801,287.148 636.205,288.024 633.829,285.689 638.713,283.433 644.094,280.946 646.622,283.447 642.026,293.782 639.596,291.37 Z M 650.274,294.341 651.019,295.518 C 651.108,295.636 651.269,295.864 651.602,296.174 651.75482,296.32441 651.95781,296.41308 652.172,296.423 652.39272,296.44919 652.61539,296.3937 652.798,296.267 653.078,296.087 653.234,295.864 653.284,295.577 653.322,295.304 653.176,294.895 652.847,294.4 L 652.092,293.194 Z M 643.204,294.968 652.117,289.278 655.043,293.864 C 655.586,294.71 655.93,295.406 656.096,295.946 656.22248,296.48202 656.17413,297.04444 655.958,297.551 655.742,298.086 655.346,298.529 654.788,298.895 654.283,299.215 653.798,299.395 653.298,299.395 652.823,299.424 652.338,299.303 651.862,299.102 651.5132,298.88785 651.18952,298.63527 650.897,298.349 650.99,298.738 651.049,299.054 651.038,299.273 650.99194,299.52012 650.92981,299.76397 650.852,300.003 650.7726,300.26282 650.66601,300.51354 650.534,300.751 L 648.809,303.738 646.809,300.62 648.604,297.42 C 648.844,296.992 648.961,296.686 648.961,296.472 648.971,296.184 648.926,295.912 648.736,295.668 L 648.594,295.426 644.968,297.736 Z M 655.7,309.208 658.87,306.815 654.907,307.035 Z M 653.776,310.624 652.506,307.127 650.702,307.253 649.55,304.116 660.85,304.248 662.071,307.584 653.491,314.938 652.315,311.708 Z M 658.836,321.87 661.012,321.583 661.642,326.623 657.169,327.163 C 656.414,326.287 655.837,325.503 655.528,324.788 655.184,324.079 654.964,323.218 654.838,322.211 654.676,320.966 654.758,319.925 655.106,319.088 655.42,318.252 655.979,317.556 656.762,317.006 657.552,316.486 658.483,316.141 659.566,316.01 660.708,315.86 661.741,315.976 662.642,316.35 663.545,316.71 664.27,317.318 664.834,318.174 665.269,318.851 665.558,319.78 665.695,320.986 665.857,322.138 665.857,323.018 665.705,323.617 665.59122,324.20177 665.3146,324.74253 664.907,325.177 664.47845,325.64658 663.94639,326.00985 663.353,326.238 L 662.403,323.188 C 662.781,322.999 663.059,322.757 663.226,322.41 663.398,322.08 663.442,321.661 663.398,321.204 663.28,320.484 662.986,319.95 662.448,319.59 661.894,319.23 661.079,319.117 660.011,319.25 658.875,319.39 658.106,319.716 657.659,320.188 657.239,320.684 657.082,321.32 657.16,322.08 657.2,322.44 657.306,322.776 657.444,323.087 657.596,323.417 657.816,323.753 658.12,324.172 L 659.116,324.035 Z M 665.53,337.726 665.158,340.964 658.906,340.259 C 658.30692,340.1941 657.72326,340.02773 657.18,339.767 656.65316,339.51706 656.19064,339.14965 655.828,338.693 655.47,338.237 655.225,337.773 655.108,337.307 654.955,336.631 654.916,335.872 655.018,334.982 655.088,334.476 655.187,333.917 655.308,333.319 655.451,332.72 655.661,332.234 655.926,331.855 656.20098,331.45986 656.54276,331.1157 656.936,330.838 657.396,330.551 657.817,330.371 658.238,330.298 658.925,330.167 659.537,330.124 660.052,330.202 L 666.314,330.916 665.942,334.146 659.537,333.41 C 657.18271,333.24283 656.99534,336.77341 659.116,337.015 Z M 655.798,349.76 659.782,349.902 656.566,347.557 Z M 653.435,349.64 654.641,346.133 653.165,345.077 654.263,341.921 662.956,349.144 661.76,352.523 650.495,352.8 651.602,349.561 Z M 659.272,359.374 657.433,362.501 653.269,362.515 655.262,366.173 653.435,369.262 650.221,362.602 646.409,360.356 648.084,357.53 651.892,359.792 Z"
     id="path12"
     inkscape:connector-curvature="0"
     sodipodi:nodetypes="cccccccccccccccccccccccccccccccccccccccccccccccccccccccccccccccccccccccccccccccccccccccccccccccccccccccccccccccccccccccccccccccccccccccccccccccccccccccccccccccccccccccccccccccccccccccccccccccccccccccccccccccccccccccccccccccccccccccccccccccccccccccccccccccccccccccccccccccccccccccccccccccccccccccccccccccccccccccccccccccccccccccccccccccccc" />
  <path
     d="M670.01 330.004c0 38.69-31.352 70.045-70.023 70.045-38.682 0-70.033-31.356-70.033-70.044 0-38.662 31.35-70.012 70.032-70.012 38.672 0 70.023 31.35 70.023 70.01z"
     stroke-miterlimit="10"
     fill="none"
     stroke="#000"
     stroke-width="1.475"
     id="path14" />
  <path
     d="M652.093 329.754c0 28.799-23.323 52.124-52.107 52.124-28.785 0-52.118-23.325-52.118-52.124 0-28.77 23.333-52.102 52.116-52.102 28.786 0 52.11 23.332 52.11 52.102z"
     stroke-miterlimit="10"
     fill="none"
     stroke="#000"
     stroke-width="1.475"
     id="path16" />
  <path
     d="M599.99 311.012l4.377 12.53 13.244.296-10.554 8.026 3.837 12.698-10.904-7.548-10.908 7.548 3.818-12.698-10.57-8.026 13.27-.296z"
     fill="#fedf00"
     stroke="#000"
     stroke-width=".602"
     id="path18" />
  <path
     id="path42"
     style="fill:#009b3a;stroke:#000000;stroke-width:0.75400001"
     d="M 633.026,317.405 633.266,323.345 C 633.14214,328.68519 634.29299,327.89946 635.231,329.924 635.682,330.766 636.508,335.141 636.508,335.141 636.508,335.141 636.206,329.225 636.466,327.551 636.706,325.907 636.785,323.344 636.418,322.06 635.71136,319.92743 635.07197,318.10174 633.026,317.405 Z M 638.214,317.88 C 638.214,317.88 638.591,317.18 639.434,317.063 639.67049,315.0927 639.86062,313.08236 640.453,311.182 640.835,309.928 641.105,307.744 640.498,305.209 640.33,304.524 640.208,302.379 640.208,302.379 640.208,302.379 639.4,303.026 638.92,305.472 638.5542,308.73327 637.40559,313.70617 637.54195,316.26444 637.68402,317.33259 638.214,317.88 638.214,317.88 Z M 635.83215,334.69957 C 635.83215,334.69957 635.497,338.621 634.589,339.206 633.61979,342.45696 633.68966,345.28708 632.52698,347.97063 635.54779,346.08302 635.71376,341.79601 639.096,340.705 635.94051,340.22001 637.6066,336.88064 638.975,335.234" />
  <path
     id="path60"
     style="fill:#009b3a;stroke:#000000;stroke-width:0.602"
     d="M 596.61,366.914 585.926,370.897 C 585.40145,372.79366 590.09335,372.75611 591.30603,371.85638 L 599.501,367.81 C 599.501,367.81 599.477,367.682 599.267,367.531 599.046,367.381 597.63,366.607 596.61,366.914 M 622.95821,300.2775 C 623.59195,299.07353 623.50503,298.60543 623.39,297.343 622.63455,295.54895 620.9259,294.76795 619.73,293.071 617.08762,292.9144 613.99646,291.44013 612.278,290.714 613.10271,296.91997 619.20349,299.84382 622.95821,300.2775 Z M 634.261,316.154 C 633.581,315.352 632.75372,314.16824 630.14672,312.89424 627.30104,311.43421 627.08021,309.04323 623.668,308.484 623.668,308.484 624.85357,309.80883 625.098,310.624 626.3653,315.54896 631.25971,314.8244 634.933,317.2735 634.933,317.2735 634.6,316.533 634.261,316.154 Z M 635.48074,314.15059 C 635.09374,312.45859 634.53704,310.02941 634.00304,309.16341 632.12004,306.12341 626.734,304.87 626.734,304.87 627.64334,309.473 631.06263,312.04431 635.48074,314.15059 Z M 633.7508,301.73024 629.267,297.708 C 629.219,298.232 627.995,298.663 627.995,298.663 627.46115,301.11178 632.98773,307.00588 632.98773,307.00588 633.06982,304.72632 633.7508,301.73024 633.7508,301.73024 Z M 636.204,335.77 C 636.1526,334.03387 636.08337,331.58058 635.224,330.142 634.72,329.326 633.51,328.357 633.034,327.068 632.52872,323.1596 633.97996,323.07755 630.602,321.227 630.74347,322.58464 630.67157,323.58826 630.5,324.836 630.14368,327.58645 633.48669,333.07329 636.204,335.77 Z M 641.382,321.917 C 641.22,322.044 639.47,322.603 637.878,326.907 636.281,331.197 636.972,335.209 636.972,335.209 637.41003,335.32427 638.57261,335.42064 639.535,334.854 645.0555,329.90189 645.9485,317.4915 645.9485,317.4915 644.86967,319.33727 643.00602,320.56687 641.382,321.917 Z M 632.491,336.58 C 632.21376,335.84691 631.35156,335.02362 630.71,334.135 628.51487,336.77832 627.46784,343.25984 628.456,346.226 628.568,346.742 629.104,348.346 629.104,348.346 629.60295,347.95719 630.71911,348.0178 631.32663,348.01715 632.98415,344.44305 632.491,336.578 632.491,336.578 M 613.82,365.044 C 618.23768,361.88506 620.76424,354.97195 621.48646,350.69793 621.33946,350.54793 618.509,352.242 617.76,352.922 616.37457,354.52715 616.22326,356.52937 614.452,357.767 613.384,358.535 612.61,360.967 612.247,362.957 611.88,364.921 607.039,366.01 607.039,366.01 607.039,366.01 605.696,366.511 606.888,366.89 607.093,366.948 607.625,367.847 608.052,367.861 608.644,367.93 611.65,366.643 612.115,366.745 616.87819,368.45007 625.19543,369.77397 628.452,364.9025 623.29978,362.32692 618.41155,364.45445 613.82,365.044 Z"
     inkscape:connector-curvature="0"
     sodipodi:nodetypes="ccccccccccccccccccccccccccccccccccccccccccccccccccscacc" />
  <path
     d="M 603.965,365.195 C 602.07144,364.60235 600.27562,364.93697 598.4,365.406 L 602.37,367.255 C 603.457,367.829 603.506,368.528 603.506,368.528 605.96322,369.66616 608.56087,370.47833 610.765,372.063 611.4513,372.54341 615.50457,373.0639 615.299,370.745 611.45273,369.14339 607.91181,366.4925 603.965,365.195 Z"
     id="path22"
     inkscape:connector-curvature="0"
     style="fill:#009b3a;stroke:#000000;stroke-width:0.602"
     sodipodi:nodetypes="ccccccc" />
  <path
     id="path70"
     style="fill:#009b3a;stroke:#000000;stroke-width:0.75400001"
     d="M 642.397,319.326 C 642.51663,317.76315 642.49266,316.22959 642.06,314.91 641.24456,315.3707 640.7769,316.10849 640.349,316.914 641.77739,316.87967 642.10181,317.8918 642.397,319.326 Z M 624.21039,298.6237 626.084,298.811 C 626.2031,293.3942 623.90235,288.68907 618.856,287.864 618.95925,288.81866 619.5288,291.46625 619.95228,292.86058 621.64856,295.2326 622.8087,296.01347 624.21039,298.6237 Z M 621.29,302.055 C 621.383,301.038 622.486,300.95 622.486,300.95 620.92758,298.52052 618.9093,300.43333 615.23625,296.50641 L 609.85716,296.84759 C 609.85716,296.84759 617.7052,303.58104 621.29,302.055 Z M 624.493,301.038 C 624.95722,302.6475 625.69391,303.97614 627.305,304.86 629.08863,305.45214 631.61797,306.60078 633.643,308.307 633.643,308.307 629.759,303.927 628.27,300.643 L 627.768,298.751 626.36,298.844 Z M 633.23,306.822 C 633.332,307.556 633.568,307.974 634.396,309.57 635.1154,310.76031 635.52866,312.75609 635.602,314.507 632.29997,312.4223 626.83498,309.29842 626.634,305.286 L 625.733,304.469 C 624.60884,309.2133 627.29629,311.53252 632.426,313.889 633.86148,315.3348 634.22805,315.85455 635.236,317.734 636.133,319.679 636.695,320.798 636.808,321.348 636.886,321.936 636.559,330.205 636.559,330.205 L 636.637,330.955 C 636.637,330.955 638.635,323.295 639.595,322.44 638.66563,320.83849 638.00781,320.13837 637.507,317.177 637.10236,314.03291 638.70419,311.16967 638.4,308.296 638.07183,305.33679 637.62138,302.82932 636.797,299.726 636.4364,298.42777 636.00138,297.41371 635.489,296.424 634.25178,299.84895 633.27461,303.89471 633.23,306.822 Z M 627.402,359.259 C 624.29652,359.3894 622.64347,362.01308 620.362,363.81736 624.39142,363.81926 633.7937,363.69024 634.0855,359.696 631.77207,359.51264 629.21671,359.26521 627.402,359.259 Z M 639.08158,348.67765 C 638.20237,349.77667 633.25356,352.58871 632.291,352.859 V 352.859 C 639.0968,349.19606 641.08205,345.18619 641.621,342.826 642.80564,341.17954 643.698,339.874 643.787,338.878 643.806,338.648 642.846,339.407 642.347,339.684 641.371,340.262 641.009,340.262 639.01,340.784 635.24123,341.50843 635.10283,346.57739 632.575,348.07 632.796,344.87794 636.31711,338.6334 633.15,338.638 632.37,338.506 632.334,337.429 632.334,337.429 630.458,339.054 631.506,341.917 631.708,343.614 631.909,345.296 631.321,348.409 631.321,348.409 633.133,349.183 631.708,351.385 631.145,352.097 630.552,352.82 629.429,352.952 628.925,353.59 628.391,354.246 624.594,359.533 624.594,359.533 L 630.08593,357.86968 C 629.55915,357.3247 628.95595,356.02814 629.89,354.757 631.051,353.847 632.62,354.509 632.62,354.509 638.32822,355.82064 643.2042,351.78276 644.7515,344.898 642.00298,345.51629 640.51969,347.0046 639.08158,348.67765 Z M 614.315,365.101 C 622.012,365.36307 630.56175,354.76531 627.215,348.36 627.215,348.36 622.072,351.158 614.315,365.101 Z M 602.785,367.572 C 596.97545,364.90947 590.60372,362.19641 587.21221,356.42694 585.04919,353.59628 582.89096,350.43585 579.83616,348.575 579.81833,351.28904 583.11904,353.8029 584.32083,356.47917 585.51637,357.66309 587.15063,361.25054 584.16588,359.03944 578.99221,356.18807 576.91239,349.94865 577.05273,344.33392 576.64831,340.39887 575.56446,336.3348 573.14759,333.15216 572.37671,333.96758 573.34865,336.26558 573.25912,337.72044 573.38986,340.47754 572.8237,343.26133 573.15437,345.9895 573.45808,348.70805 576.60553,350.8256 577.08669,352.79769 573.27099,349.86941 570.79794,345.4305 570.3441,340.63995 569.78538,337.08347 569.53412,333.26246 571.26712,329.97397 572.33473,326.83044 573.09623,323.21484 571.97237,320.01125 571.15892,322.68771 569.92211,325.31792 568.4665,327.7565 566.81523,331.26234 568.48123,335.1551 569.25473,338.66203 567.53046,337.58009 566.65528,333.46985 566.24786,330.91946 565.32505,324.93909 569.46713,319.86164 573.1397,315.64841 575.17681,313.26261 578.05501,311.6858 580.06112,309.32 577.16395,309.57529 574.05027,311.50463 571.85486,313.61028 569.5021,315.78902 568.21105,318.80963 567.10314,321.71241 566.80208,319.57983 568.86774,316.58051 570.10385,314.52105 573.1387,309.93278 578.85572,308.52037 582.82275,305.02925 584.04677,304.46015 586.53462,298.59348 584.20843,302.03306 582.44346,304.57644 579.3374,304.967 576.51614,305.19283 573.01047,306.56445 571.36625,310.39867 569.489,313.415 567.37432,315.30086 570.84968,309.44862 571.72504,308.21631 573.84232,304.36944 578.48767,303.47493 581.60561,300.70167 584.69237,297.8308 587.59366,294.73101 590.315,291.52 583.62654,293.26731 577.54874,297.55736 573.81587,303.43287 572.72737,304.63695 571.69362,306.74196 573.15344,304.17845 574.27074,302.59193 575.75939,301.21411 575.83841,299.16303 576.6372,295.56592 578.16875,292.00799 580.85956,289.44014 576.52711,292.34619 572.69474,296.89906 572.13326,302.25591 572.17312,305.98455 568.30298,308.28973 568.03367,312.00898 567.46518,313.67407 567.75615,317.04343 566.63314,317.34959 566.79007,313.73213 567.68342,310.09522 568.954,306.689 568.5662,303.2249 569.25102,299.64915 571.45408,296.87655 572.56331,295.75153 574.32931,291.2004 573.55216,291.16778 571.93102,295.22095 567.71573,297.54645 566.45859,301.81641 564.52572,306.29703 565.10415,311.23864 564.48272,315.96809 564.289,318.85718 564.55674,322.17407 565.28827,324.73061 563.40739,320.21766 564.29789,315.22371 564.4998,310.4844 564.39135,307.29473 564.0748,303.77036 561.937,301.226 563.67684,305.20335 562.37324,309.4884 561.228,313.421 559.77879,318.19869 561.64835,323.00401 563.22711,327.47745 563.69835,329.11025 565.85017,332.1756 563.91387,329.10313 561.29963,324.59514 560.37846,318.48895 555.36834,315.83511 552.36337,313.64188 556.13838,318.0036 556.483,319.106 559.29109,323.50795 560.78041,328.52038 562.592,333.368 566.7333,335.4444 568.37281,340.01363 570.26963,343.89749 572.61379,347.26603 568.89115,343.07502 568.80282,341.58722 567.2444,337.57847 564.55513,333.87326 560.454,332.2065 559.19885,331.62958 556.2892,329.79369 558.29519,332.26955 560.19526,335.88395 562.57111,339.1848 565.3652,342.15689 568.6334,345.71621 571.04318,350.15289 575.25875,352.74039 576.45265,353.8173 572.03529,350.41383 571.00746,349.94785 566.717,347.68764 562.57121,344.72388 560.14037,340.42413 558.66676,340.12238 560.89283,344.31394 561.39025,345.51613 563.21431,349.30003 566.17437,352.71542 570.25457,354.07555 573.38429,355.58178 576.7449,356.89216 579.51173,358.95653 576.07834,359.04333 572.47939,358.48133 569.16353,357.41231 568.18808,357.19418 565.30241,355.11061 567.35455,357.35851 570.6447,362.22593 576.78802,363.5742 582.264,364.172 586.07965,364.53663 590.30586,363.62313 593.65792,365.94038 596.82284,366.86453 599.87912,369.42092 603.27476,368.65641 603.78547,368.34298 602.99688,367.7578 602.785,367.572 Z" />
  <path
     id="path54"
     style="fill:#009b3a;fill-opacity:1;stroke:#000000;stroke-opacity:1"
     d="M 624.35321,302.67679 C 624.88178,300.74763 621.82992,299.98471 621.51708,301.87879 621.13217,304.20927 624.06119,303.74262 624.35321,302.67679 Z M 623.283,299.822 C 624.49954,301.85002 626.57825,300.43052 626.114,299.084 625.28766,296.68727 622.38132,298.31887 623.283,299.822 Z M 628.816,297.416 C 629.16882,295.40985 626.34989,294.90647 626.19906,296.74985 626.00281,299.14842 628.54743,298.94311 628.816,297.416 Z M 640.25,321.971 C 643.50351,321.68698 642.21021,316.88174 640.448,317.021 637.15035,317.28159 638.34997,322.13686 640.25,321.971 Z M 640.457,339.131 C 641.71692,335.96885 638.55606,336.2469 637.829,338.346 636.98754,340.77538 639.5519,341.40263 640.457,339.131 Z M 635.881,336.264 C 635.88721,333.68684 633.07939,334.87754 632.70311,336.12977 631.67383,339.55511 635.87301,339.57883 635.881,336.264 Z M 631.339,351.03 C 633.0379,348.72115 630.07866,347.58252 628.918,349.3625 627.02051,352.27248 629.76582,353.168 631.339,351.03 Z M 631.506,354.776 C 628.87102,354.84027 628.14631,357.18131 630.496,357.828 632.83269,358.47111 633.91393,354.71727 631.506,354.776 Z"
     inkscape:connector-curvature="0"
     sodipodi:nodetypes="ccccsccccsssssssssssssss" />
</svg>
