<?xml version="1.0" encoding="UTF-8" standalone="no"?>
<svg
   xmlns:serif="http://www.serif.com/"
   xmlns:dc="http://purl.org/dc/elements/1.1/"
   xmlns:cc="http://creativecommons.org/ns#"
   xmlns:rdf="http://www.w3.org/1999/02/22-rdf-syntax-ns#"
   xmlns:svg="http://www.w3.org/2000/svg"
   xmlns="http://www.w3.org/2000/svg"
   xmlns:sodipodi="http://sodipodi.sourceforge.net/DTD/sodipodi-0.dtd"
   xmlns:inkscape="http://www.inkscape.org/namespaces/inkscape"
   width="100%"
   height="100%"
   viewBox="0 0 826 413"
   version="1.1"
   xml:space="preserve"
   style="fill-rule:evenodd;clip-rule:evenodd;stroke-miterlimit:3.864;"
   id="svg911"
   sodipodi:docname="ic_flag_mp_128.svg"
   inkscape:version="0.92.1 r15371"><metadata
     id="metadata917"><rdf:RDF><cc:Work
         rdf:about=""><dc:format>image/svg+xml</dc:format><dc:type
           rdf:resource="http://purl.org/dc/dcmitype/StillImage" /></cc:Work></rdf:RDF></metadata><defs
     id="defs915" /><sodipodi:namedview
     pagecolor="#ffffff"
     bordercolor="#666666"
     borderopacity="1"
     objecttolerance="10"
     gridtolerance="10"
     guidetolerance="10"
     inkscape:pageopacity="0"
     inkscape:pageshadow="2"
     inkscape:window-width="1579"
     inkscape:window-height="854"
     id="namedview913"
     showgrid="false"
     inkscape:zoom="1.535109"
     inkscape:cx="341.66029"
     inkscape:cy="280.98453"
     inkscape:window-x="0"
     inkscape:window-y="0"
     inkscape:window-maximized="0"
     inkscape:current-layer="Islas-Marianas-del-Norte" /><g
     id="Capa-1"
     serif:id="Capa 1"><g
       id="Islas-Marianas-del-Norte"
       serif:id="Islas Marianas del Norte"><rect
         id="path17092"
         x="0"
         y="0"
         width="825"
         height="412.5"
         style="fill:#0033a1;fill-rule:nonzero" /><g
         id="g17094"><g
           id="g17096"><g
             id="g17102" /><g
             id="g17106" /><g
             id="g17110"><path
               id="path17112"
               d="M 293.544,311.244 C 293.544,311.244 288.014,333.23 305.261,344.946 305.261,344.946 294.07,325.989 303.154,311.244 Z"
               style="fill:#76bc21;fill-rule:nonzero"
               inkscape:connector-curvature="0" /></g><g
             id="g17114"><path
               id="path17116"
               d="M 294.597,311.705 C 294.597,311.705 292.434,325.144 297.722,332.703 297.722,332.703 296.045,319.604 300.916,311.968 Z"
               style="fill:#007935;fill-rule:nonzero"
               inkscape:connector-curvature="0" /></g><g
             id="g17118"><path
               id="path17120"
               d="M 303.417,321.447 C 303.417,321.447 303.615,324.87 303.088,326.91 302.562,328.951 300.916,335.138 308.157,340.405 315.398,345.67 318.03,346.855 319.281,353.174 319.281,353.174 319.939,342.906 313.752,337.311 307.564,331.716 307.696,329.478 311.382,325.857 Z"
               style="fill:#76bc21;fill-rule:nonzero"
               inkscape:connector-curvature="0" /></g><g
             id="g17122"><path
               id="path17124"
               d="M 304.405,322.764 C 304.405,322.764 304.8,325.726 303.944,328.095 303.088,330.465 303.22,336.981 311.777,340.009 311.777,340.009 303.812,331.255 309.605,325.791 Z"
               style="fill:#007935;fill-rule:nonzero"
               inkscape:connector-curvature="0" /></g><g
             id="g17126"><path
               id="path17128"
               d="M 530.731,330.158 C 530.731,330.158 539.332,318.222 533.364,297.684 L 539.684,289.434 C 539.684,289.434 550.567,314.974 530.731,330.158"
               style="fill:#76bc21;fill-rule:nonzero"
               inkscape:connector-curvature="0" /></g><g
             id="g17130"><path
               id="path17132"
               d="M 541.965,288.732 C 541.965,288.732 551.093,301.107 547.758,317.958 547.758,317.958 560.835,303.038 546.09,282.852 L 543.019,284.169 Z"
               style="fill:#76bc21;fill-rule:nonzero"
               inkscape:connector-curvature="0" /></g><g
             id="g17134"><path
               id="path17136"
               d="M 543.019,288.381 C 543.019,288.381 548.987,293.998 550.742,302.424 550.742,302.424 551.883,292.682 545.827,283.73 L 543.545,285.134 Z"
               style="fill:#007935;fill-rule:nonzero"
               inkscape:connector-curvature="0" /></g><g
             id="g17138"><path
               id="path17140"
               d="M 539.245,290.839 C 539.245,290.839 543.37,304.644 538.806,313.219 538.806,313.219 539.771,304.004 535.207,296.192 Z"
               style="fill:#007935;fill-rule:nonzero"
               inkscape:connector-curvature="0" /></g></g></g><g
         id="g17582"><g
           id="g17584"><g
             id="g17590"><path
               id="path17592"
               d="M 449.811,339.9 C 449.811,339.9 452.444,348.852 457.622,349.905 462.8,350.958 471.665,349.167 470.963,336.371 L 468.505,324.19 447.441,331.123 Z"
               style="fill:#bcbcbc;fill-opacity:1;fill-rule:nonzero;stroke:#0033a1;stroke-opacity:1"
               inkscape:connector-curvature="0" /></g><g
             id="g17594" /><g
             id="g17598"><path
               id="path17600"
               d="M 454.953,298.996 440.737,297.489 443.45,323.159 465.352,314.669 Z"
               style="fill:#bcbcbc;fill-opacity:1;fill-rule:nonzero"
               inkscape:connector-curvature="0" /></g><g
             id="g17602" /><g
             id="g17606"><path
               id="path17608"
               d="M 466.306,290.993 C 466.306,290.993 461.433,286.287 455.757,289.653 450.081,293.018 450.683,298.444 454.602,304.07 458.52,309.696 464.347,316.879 464.347,316.879 L 476.554,308.239 Z"
               style="fill:#bcbcbc;fill-opacity:1;fill-rule:nonzero;stroke:#0033a1;stroke-opacity:1"
               inkscape:connector-curvature="0" /></g><g
             id="g17610" /><g
             id="g17614" /><g
             id="g17618"><path
               id="path17620"
               d="M 475.499,283.976 C 475.499,283.976 471.38,282.419 468.114,283.976 464.849,285.533 461.534,289.301 467.009,298.594 472.485,307.888 475.097,312.107 475.097,312.107 L 486.145,302.211 Z"
               style="fill:#bcbcbc;fill-opacity:1;fill-rule:nonzero;stroke:#0033a1;stroke-opacity:1"
               inkscape:connector-curvature="0" /></g><g
             id="g17622" /><g
             id="g17626"><path
               id="path17628"
               d="M 466.632,324.346 C 466.632,324.346 466.489,338.843 473.499,342.372 480.509,345.901 489.618,340.751 488.616,329.591 L 484.038,316.62 Z"
               style="fill:#bcbcbc;fill-opacity:1;fill-rule:nonzero;stroke:#0033a1;stroke-opacity:1"
               inkscape:connector-curvature="0" /></g><g
             id="g17630" /><g
             id="g17634" /><g
             id="g17638"><path
               id="path17640"
               d="M 367.648,319.229 373.897,304.106 C 373.897,304.106 368.836,294.858 368.898,295.045 368.961,295.232 362.711,300.794 362.711,300.794 L 354.213,316.355 Z"
               style="fill:#bcbcbc;fill-opacity:1;fill-rule:nonzero"
               inkscape:connector-curvature="0" /></g><g
             id="g17642"><path
               id="path17644"
               d="M 488.911,277.697 C 488.911,277.697 482.984,273.779 477.207,278.25 471.43,282.721 473.439,288.598 475.248,291.813 477.056,295.028 481.872,301.659 486.572,305.878 L 498.908,293.923 Z"
               style="fill:#bcbcbc;fill-opacity:1;fill-rule:nonzero;stroke:#0033a1;stroke-opacity:1"
               inkscape:connector-curvature="0" /></g><g
             id="g17646" /><g
             id="g17650" /><g
             id="g17654"><path
               id="path17656"
               d="M 346.606,339.557 C 346.606,339.557 346.394,343.78 350.74,347.968 353.554,350.679 357.88,352.15 361.1,350.059 365.435,347.245 367.088,340.784 366.993,331.379 L 351.881,324.254 Z"
               style="fill:#bcbcbc;fill-opacity:1;fill-rule:nonzero;stroke:#0033a1;stroke-opacity:1"
               inkscape:connector-curvature="0" /></g><g
             id="g17658" /><g
             id="g17662"><path
               id="path17664"
               d="M 352.713,292.608 C 352.713,292.608 356.176,288.7 360.649,289.671 365.836,290.795 370.898,296.482 366.997,303.919 363.432,310.716 357.286,315.105 355.624,316.355 L 341.402,308.743 Z"
               style="fill:#bcbcbc;fill-opacity:1;fill-rule:nonzero;stroke:#0033a1;stroke-opacity:1"
               inkscape:connector-curvature="0" /></g><g
             id="g17666" /><g
             id="g17670" /><g
             id="g17674"><path
               id="path17676"
               d="M 331.113,332.286 C 331.113,332.286 331.066,338.321 335.676,341.98 340.285,345.639 345.038,345.212 347.699,342.883 350.36,340.555 354.922,333.236 353.449,325.965 L 336.959,318.076 Z"
               style="fill:#bcbcbc;fill-opacity:1;fill-rule:nonzero;stroke:#0033a1;stroke-opacity:1"
               inkscape:connector-curvature="0" /></g><g
             id="g17678" /><g
             id="g17682"><path
               id="path17684"
               d="M 496.619,266.903 C 496.619,266.903 491.721,267.836 489.273,270.576 486.824,273.316 482.451,280.196 495.686,295.239 L 510.729,283.17 Z"
               style="fill:#c1c1c1;fill-opacity:1;fill-rule:nonzero;stroke:#0033a1;stroke-opacity:1"
               inkscape:connector-curvature="0" /></g><g
             id="g17686" /><g
             id="g17690" /><g
             id="g17694" /><g
             id="g17698" /><g
             id="g17702" /><g
             id="g17706"><path
               id="path17708"
               d="M 314.813,318.361 C 314.813,318.361 313.89,329.637 318.662,333.582 323.13,337.275 327.074,337.323 330.496,336.23 336.055,334.454 339.715,323.589 338.717,318.171 L 321.824,305.851 Z"
               style="fill:#bcbcbc;fill-opacity:1;fill-rule:nonzero;stroke:#0033a1;stroke-opacity:1"
               inkscape:connector-curvature="0" /></g><g
             id="g17710" /><g
             id="g17714"><path
               id="path17716"
               d="M 344.887,283.664 C 344.887,283.664 348.478,282.802 352.062,285.639 355.472,288.337 360.882,296.499 343.504,308.743 L 331.985,302.292 Z"
               style="fill:#bcbcbc;fill-opacity:1;fill-rule:nonzero;stroke:#0033a1;stroke-opacity:1"
               inkscape:connector-curvature="0" /></g><g
             id="g17718" /><g
             id="g17722" /><g
             id="g17726"><path
               id="path17728"
               d="M 301.731,310.755 C 301.731,310.755 300.127,320.499 305.421,324.047 310.715,327.595 314.658,325.961 316.347,324.272 318.037,322.582 322.092,317.57 321.81,307.883 L 310.152,297.577 Z"
               style="fill:#bcbcbc;fill-opacity:1;fill-rule:nonzero;stroke:#0033a1;stroke-opacity:1"
               inkscape:connector-curvature="0" /></g><g
             id="g17730" /><g
             id="g17734" /><g
             id="g17738"><path
               id="path17740"
               d="M 483.132,316.879 C 483.132,316.879 481.511,327.159 487.996,333.454 494.482,339.749 505.26,335.791 504.402,322.199 L 499.919,304.698 Z"
               style="fill:#bcbcbc;fill-opacity:1;fill-rule:nonzero;stroke:#0033a1;stroke-opacity:1"
               inkscape:connector-curvature="0" /></g><g
             id="g17742" /><g
             id="g17746" /><g
             id="g17750"><path
               id="path17752"
               d="M 333.565,277.081 C 333.565,277.081 335.342,275.962 337.185,275.633 339.029,275.304 343.444,275.957 345.545,279.912 347.783,284.125 350.087,292.023 334.948,304.925 L 320.137,294.854 Z"
               style="fill:#bcbcbc;fill-opacity:1;fill-rule:nonzero;stroke:#0033a1;stroke-opacity:1"
               inkscape:connector-curvature="0" /></g><g
             id="g17754" /><g
             id="g17758" /><g
             id="g17762" /><g
             id="g17766"><path
               id="path17768"
               d="M 291,299.81 C 291,299.81 290.437,306.625 292.803,309.328 295.168,312.031 296.97,312.651 300.8,312.595 304.63,312.539 306.995,311.187 308.966,308.878 310.937,306.569 312.007,302.458 312.064,298.966 L 302.152,288.053 Z"
               style="fill:#c1c1c1;fill-opacity:1;fill-rule:nonzero;stroke:#0033a1;stroke-opacity:1"
               inkscape:connector-curvature="0" /></g><g
             id="g17770" /><g
             id="g17774" /><g
             id="g17778"><path
               id="path17780"
               d="M 282.443,286.989 C 282.443,286.989 280.753,293.409 283.063,296.732 285.276,299.918 287.122,300.404 289.764,301.463 291.467,302.144 293.65,302.476 297.03,299.829 300.409,297.182 302.821,294.477 303.361,290.902 L 295.636,278.718 Z"
               style="fill:#c1c1c1;fill-opacity:1;fill-rule:nonzero;stroke:#0033a1;stroke-opacity:1"
               inkscape:connector-curvature="0" /></g><g
             id="g17782" /><g
             id="g17786"><path
               id="path17788"
               d="M 325.271,267.405 C 325.271,267.405 330.406,267.668 333.433,273.066 336.461,278.464 334.026,286.231 322.506,295.381 L 310.263,284.98 Z"
               style="fill:#c1c1c1;fill-opacity:1;fill-rule:nonzero;stroke:#0033a1;stroke-opacity:1"
               inkscape:connector-curvature="0" /></g><g
             id="g17790" /><g
             id="g17794" /><g
             id="g17798"><path
               id="path17800"
               d="M 498.908,303.839 C 498.908,303.839 498.106,314.474 499.203,318.384 500.304,322.31 502.126,326.703 508.598,326.73 515.799,326.76 520.139,316.763 518.374,309.848 L 509.123,295.827 Z"
               style="fill:#bcbcbc;fill-opacity:1;fill-rule:nonzero;stroke:#0033a1;stroke-opacity:1"
               inkscape:connector-curvature="0" /></g><g
             id="g17802" /><g
             id="g17806" /><g
             id="g17810"><path
               id="path17812"
               d="M 277.374,279.273 C 277.374,279.273 275.516,283.497 278.557,286.257 281.598,289.016 285.259,291.382 288.751,290.818 292.243,290.255 295.227,284.792 296.129,279.723 L 289.662,266.535 Z"
               style="fill:#cbcbcb;fill-opacity:1;fill-rule:nonzero;stroke:#0033a1;stroke-opacity:1"
               inkscape:connector-curvature="0" /></g><g
             id="g17814" /><g
             id="g17818" /><g
             id="g17822" /><g
             id="g17826"><path
               id="path17828"
               d="M 311.448,259.572 C 311.448,259.572 314.773,257.357 318.162,257.992 320.945,258.514 322.687,259.826 324.679,262.139 326.719,264.509 327.509,268.261 326.588,271.355 325.377,275.418 319.571,281.578 311.663,285.639 L 299.995,268.787 Z"
               style="fill:#c1c1c1;fill-opacity:1;fill-rule:nonzero;stroke:#0033a1;stroke-opacity:1"
               inkscape:connector-curvature="0" /></g><g
             id="g17830" /><g
             id="g17834"><path
               id="path17836"
               d="M 508.222,257.399 C 508.222,257.399 503.033,256.058 499.476,259.206 495.525,262.704 494.578,266.203 495.57,270.226 496.875,275.526 504.548,281.188 508.805,283.52 L 521.573,269.06 Z"
               style="fill:#c1c1c1;fill-opacity:1;fill-rule:nonzero;stroke:#0033a1;stroke-opacity:1"
               inkscape:connector-curvature="0" /></g><g
             id="g17838" /><g
             id="g17842" /><g
             id="g17846" /><g
             id="g17850"><path
               id="path17852"
               d="M 271.111,269.058 C 271.111,269.058 268.52,277.225 274.546,280.942 280.572,284.659 285.472,284.039 287.499,280.041 289.527,276.042 290.146,272.663 290.372,267.932 L 285.979,256.725 Z"
               style="fill:#cbcbcb;fill-opacity:1;fill-rule:nonzero;stroke:#0033a1;stroke-opacity:1"
               inkscape:connector-curvature="0" /></g><g
             id="g17854" /><g
             id="g17858"><path
               id="path17860"
               d="M 304.537,242.589 C 304.537,242.589 309.078,239.562 312.764,243.05 316.451,246.539 319.347,250.949 314.608,257.597 309.868,264.246 303.812,269.182 301.179,272.079 L 292.604,255.754 Z"
               style="fill:#cbcbcb;fill-opacity:1;fill-rule:nonzero;stroke:#0033a1;stroke-opacity:1"
               inkscape:connector-curvature="0" /></g><g
             id="g17862" /><g
             id="g17866" /><g
             id="g17870"><path
               id="path17872"
               d="M 508.169,296.161 C 508.169,296.161 507.978,302.91 509.743,305.878 511.507,308.847 513.939,311.851 518.422,312.662 522.905,313.472 530.631,310.993 529.2,300.31 L 518.231,285.717 Z"
               style="fill:#c1c1c1;fill-opacity:1;fill-rule:nonzero;stroke:#0033a1;stroke-opacity:1"
               inkscape:connector-curvature="0" /></g><g
             id="g17874" /><g
             id="g17878" /><g
             id="g17882" /><g
             id="g17886"><path
               id="path17888"
               d="M 516.753,286.814 C 516.753,286.814 518.136,293.586 521.236,297.926 524.335,302.266 529.211,304.411 534.022,300.835 538.833,297.258 538.785,293.777 537.641,289.342 L 524.669,277.61 Z"
               style="fill:#c1c1c1;fill-opacity:1;fill-rule:nonzero;stroke:#0033a1;stroke-opacity:1"
               inkscape:connector-curvature="0" /></g><g
             id="g17890" /><g
             id="g17894" /><g
             id="g17898"><path
               id="path17900"
               d="M 514.927,243.489 C 514.927,243.489 511.137,242.181 508.222,246.146 505.307,250.111 504.432,254.251 507.289,258.365 510.826,263.46 519.533,269.76 519.533,269.76 L 527.637,257.574 Z"
               style="fill:#cbcbcb;fill-opacity:1;fill-rule:nonzero;stroke:#0033a1;stroke-opacity:1"
               inkscape:connector-curvature="0" /></g><g
             id="g17902" /><g
             id="g17906"><path
               id="path17908"
               d="M 523.239,278.469 C 523.239,278.469 525.432,285.622 530.774,289.342 535.549,292.668 546.416,293.157 544.603,281.569 L 528.484,267.405 Z"
               style="fill:#cbcbcb;fill-opacity:1;fill-rule:nonzero;stroke:#0033a1;stroke-opacity:1"
               inkscape:connector-curvature="0" /></g><g
             id="g17910" /><g
             id="g17914" /><g
             id="g17918" /><g
             id="g17922"><path
               id="path17924"
               d="M 287.685,237.323 C 287.685,237.323 291.701,231.136 296.901,227.976 302.101,224.817 305.195,228.898 307.235,232.65 309.276,236.402 310.395,243.248 306.051,248.316 301.706,253.385 297.121,257.955 292.886,260.954 Z"
               style="fill:#cbcbcb;fill-opacity:1;fill-rule:nonzero;stroke:#0033a1;stroke-opacity:1"
               inkscape:connector-curvature="0" /></g><g
             id="g17926" /><g
             id="g17930"><path
               id="path17932"
               d="M 524.5,258.365 C 524.5,258.365 518.532,251.168 515.109,246.956 511.686,242.743 508.878,235.634 517.654,228.612 L 528.537,229.403 535.646,244.849 Z"
               style="fill:#cbcbcb;fill-opacity:1;fill-rule:nonzero;stroke:#0033a1;stroke-opacity:1"
               inkscape:connector-curvature="0" /></g><g
             id="g17934" /><g
             id="g17938"><path
               id="path17940"
               d="M 527.197,269.76 C 527.197,269.76 529.295,276.275 533.54,280.281 537.784,284.287 542.744,284.859 546.893,283.19 551.042,281.521 552.329,274.327 548.943,270.317 L 536.687,260.681 531.012,259.107 Z"
               style="fill:#cbcbcb;fill-opacity:1;fill-rule:nonzero;stroke:#0033a1;stroke-opacity:1"
               inkscape:connector-curvature="0" /></g><g
             id="g17942" /><g
             id="g17946" /><g
             id="g17950" /><g
             id="g17954" /></g></g><g
         id="g17958"><g
           id="g17960"><g
             id="g17966"><path
               id="path17968"
               d="M 369.242,317.607 C 369.242,317.607 310,304.793 288.673,242.392 L 283.582,253.011 C 283.582,253.011 293.939,312.605 369.81,333.582 Z"
               style="fill:#c16b13;fill-rule:nonzero"
               inkscape:connector-curvature="0" /></g><g
             id="g17970"><path
               id="path17972"
               d="M 369.242,317.607 C 369.242,317.607 310,304.793 288.673,242.392 L 283.582,253.011 C 283.582,253.011 293.939,312.605 369.81,333.582 Z"
               style="fill:none;fill-rule:nonzero;stroke:#0033a1;stroke-width:0.98000002px"
               inkscape:connector-curvature="0" /></g><g
             id="g17974"><g
               id="g17988"><g
                 id="g17986"><clipPath
                   id="_clip1"><rect
                     x="356.62701"
                     y="313.47101"
                     width="2.5380001"
                     height="16.448999"
                     id="rect237" /></clipPath><g
                   clip-path="url(#_clip1)"
                   id="g244"><g
                     id="g242"
                     style="opacity:0.8"><g
                       id="g17984"><path
                         id="path17982"
                         d="M 357.083,313.644 C 357.083,313.644 360.027,321.414 357.914,329.8"
                         style="fill:#c16b13;fill-rule:nonzero;stroke:#0033a1;stroke-width:0.98000002px"
                         inkscape:connector-curvature="0" /></g></g></g></g></g></g><g
             id="g17990"><path
               id="path17992"
               d="M 341.08,322.481 C 341.08,322.481 345.117,315.358 342.089,306.462"
               style="fill:#c16b13;fill-rule:nonzero;stroke:#0033a1;stroke-width:0.98000002px"
               inkscape:connector-curvature="0" /></g><g
             id="g17994"><path
               id="path17996"
               d="M 329.039,297.971 C 329.039,297.971 330.833,306.307 326.546,313.731"
               style="fill:#c16b13;fill-rule:nonzero;stroke:#0033a1;stroke-width:0.98000002px"
               inkscape:connector-curvature="0" /></g><g
             id="g17998"><path
               id="path18000"
               d="M 314.005,303.622 C 314.005,303.622 318.063,297.322 317.524,288.185"
               style="fill:#c16b13;fill-rule:nonzero;stroke:#0033a1;stroke-width:0.98000002px"
               inkscape:connector-curvature="0" /></g><g
             id="g18002"><path
               id="path18004"
               d="M 303.361,292.261 C 303.361,292.261 307.268,285.638 306.951,276.425"
               style="fill:#c16b13;fill-rule:nonzero;stroke:#0033a1;stroke-width:0.98000002px"
               inkscape:connector-curvature="0" /></g><g
             id="g18006"><path
               id="path18008"
               d="M 293.93,278.634 C 293.93,278.634 298.645,273.79 298.928,264.681"
               style="fill:#c16b13;fill-rule:nonzero;stroke:#0033a1;stroke-width:0.98000002px"
               inkscape:connector-curvature="0" /></g><g
             id="g18010"><path
               id="path18012"
               d="M 292.516,252.236 C 292.516,252.236 292.161,259.243 286.807,263.781"
               style="fill:#c16b13;fill-rule:nonzero;stroke:#0033a1;stroke-width:0.98000002px"
               inkscape:connector-curvature="0" /></g><g
             id="g18014"><path
               id="path18016"
               d="M 438.226,336.214 C 446.827,334.283 449.001,333.582 449.001,333.582 524.872,312.604 535.228,253.011 535.228,253.011 L 530.138,242.391 C 508.811,304.793 449.569,317.607 449.569,317.607 449.569,317.607 445.335,318.748 438.84,319.977 Z"
               style="fill:#c16b13;fill-rule:nonzero"
               inkscape:connector-curvature="0" /></g><g
             id="g18018"><path
               id="path18020"
               d="M 438.226,336.214 C 446.827,334.283 449.001,333.582 449.001,333.582 524.872,312.604 535.228,253.011 535.228,253.011 L 530.138,242.391 C 508.811,304.793 449.569,317.607 449.569,317.607 449.569,317.607 445.335,318.748 438.84,319.977 Z"
               style="fill:none;fill-rule:nonzero;stroke:#0033a1;stroke-width:0.98000002px"
               inkscape:connector-curvature="0" /></g><g
             id="g18022"><g
               id="g18036"><g
                 id="g18034"><clipPath
                   id="_clip2"><rect
                     x="459.64401"
                     y="313.47"
                     width="2.54"
                     height="16.448999"
                     id="rect265" /></clipPath><g
                   clip-path="url(#_clip2)"
                   id="g272"><g
                     id="g270"
                     style="opacity:0.8"><g
                       id="g18032"><path
                         id="path18030"
                         d="M 461.728,313.643 C 461.728,313.643 458.784,321.413 460.897,329.799"
                         style="fill:#c16b13;fill-rule:nonzero;stroke:#0033a1;stroke-width:0.98000002px"
                         inkscape:connector-curvature="0" /></g></g></g></g></g></g><g
             id="g18038"><path
               id="path18040"
               d="M 477.73,322.48 C 477.73,322.48 473.693,315.358 476.721,306.462"
               style="fill:#c16b13;fill-rule:nonzero;stroke:#0033a1;stroke-width:0.98000002px"
               inkscape:connector-curvature="0" /></g><g
             id="g18042"><path
               id="path18044"
               d="M 489.772,297.97 C 489.772,297.97 487.977,306.307 492.265,313.73"
               style="fill:#c16b13;fill-rule:nonzero;stroke:#0033a1;stroke-width:0.98000002px"
               inkscape:connector-curvature="0" /></g><g
             id="g18046"><path
               id="path18048"
               d="M 504.806,303.621 C 504.806,303.621 500.747,297.322 501.286,288.184"
               style="fill:#c16b13;fill-rule:nonzero;stroke:#0033a1;stroke-width:0.98000002px"
               inkscape:connector-curvature="0" /></g><g
             id="g18050"><path
               id="path18052"
               d="M 515.45,292.26 C 515.45,292.26 511.542,285.638 511.86,276.424"
               style="fill:#c16b13;fill-rule:nonzero;stroke:#0033a1;stroke-width:0.98000002px"
               inkscape:connector-curvature="0" /></g><g
             id="g18054"><path
               id="path18056"
               d="M 524.881,278.633 C 524.881,278.633 520.165,273.789 519.882,264.681"
               style="fill:#c16b13;fill-rule:nonzero;stroke:#0033a1;stroke-width:0.98000002px"
               inkscape:connector-curvature="0" /></g><g
             id="g18058"><path
               id="path18060"
               d="M 526.294,252.235 C 526.294,252.235 526.649,259.242 532.004,263.78"
               style="fill:#c16b13;fill-rule:nonzero;stroke:#0033a1;stroke-width:0.98000002px"
               inkscape:connector-curvature="0" /></g></g></g><g
         id="g18062"><g
           id="g18064"><g
             id="g18070"><path
               id="path18072"
               d="M 267.237,260.406 C 267.237,260.406 267.501,265.51 268.926,269.98 270.166,273.866 273.883,275.049 275.685,275.274 277.487,275.5 280.753,275.331 283.063,272.064 285.372,268.798 284.921,266.32 284.696,260.856 Z"
               style="fill:#cbcbcb;fill-opacity:1;fill-rule:nonzero;stroke:#0033a1;stroke-opacity:1"
               inkscape:connector-curvature="0" /></g><g
             id="g18074" /><g
             id="g18078"><path
               id="path18080"
               d="M 271.734,255.842 C 271.734,255.842 271.273,264.399 278.185,265.584 285.096,266.769 288.388,261.174 286.149,251.695 L 282.924,244.323 269.693,247.877 Z"
               style="fill:#d3d3d3;fill-opacity:1;fill-rule:nonzero"
               inkscape:connector-curvature="0" /></g><g
             id="g18082" /><g
             id="g18086"><path
               id="path18088"
               d="M 259.842,255.359 C 259.842,255.359 261.192,265.013 268.267,264.114 274.999,263.258 275.771,258.256 274.257,249.369 L 272.019,242.194 Z"
               style="fill:#d3d3d3;fill-opacity:1;fill-rule:nonzero;stroke:#0033a1;stroke-opacity:1"
               inkscape:connector-curvature="0" /></g><g
             id="g18090" /><g
             id="g18094"><path
               id="path18096"
               d="M 288.87,229.161 C 300.85,246.934 295.124,252.595 291.898,254.109 288.673,255.623 284.526,255.491 282.025,252.66 279.523,249.83 277.156,241.536 277.156,241.536 Z"
               style="fill:#f3f3f3;fill-opacity:1;fill-rule:nonzero;stroke:#0033a1;stroke-opacity:1"
               inkscape:connector-curvature="0" /></g><g
             id="g18098" /><g
             id="g18102"><path
               id="path18104"
               d="M 258.833,234.908 264.449,248.842 C 264.449,248.842 270.231,254.109 276.062,250.225 281.893,246.341 275.705,235.744 275.705,235.744 L 263.791,223.895 Z"
               style="fill:#f3f3f3;fill-opacity:1;fill-rule:nonzero;stroke:#0033a1;stroke-opacity:1"
               inkscape:connector-curvature="0" /></g><g
             id="g18106" /><g
             id="g18110"><path
               id="path18112"
               d="M 251.482,238.179 C 251.482,238.179 249.376,251.541 255.234,255.952 260.266,259.74 267.457,256.873 267.237,249.172 267.017,241.47 260.895,232.452 260.895,232.452 Z"
               style="fill:#f3f3f3;fill-opacity:1;fill-rule:nonzero;stroke:#0033a1;stroke-opacity:1"
               inkscape:connector-curvature="0" /></g><g
             id="g18114" /><g
             id="g18118"><path
               id="path18120"
               d="M 264.054,226.857 C 264.054,226.857 269.006,235.659 273.731,241.009 278.456,246.36 291.569,243.774 284.131,229.951 L 267.377,215.47 Z"
               style="fill:#ffffff;fill-rule:nonzero;stroke:#0033a1;stroke-opacity:1"
               inkscape:connector-curvature="0" /></g><g
             id="g18122" /><g
             id="g18126" /><g
             id="g18130" /><g
             id="g18134"><path
               id="path18136"
               d="M 528.471,244.301 C 528.471,244.301 524.489,242.556 523.535,239.331 522.58,236.106 524.127,233.209 526.003,231.103 L 535.251,225.705 541.932,232.716 Z"
               style="fill:#d3d3d3;fill-opacity:1;fill-rule:nonzero;stroke:#0033a1;stroke-opacity:1"
               inkscape:connector-curvature="0" /></g><g
             id="g18138" /><g
             id="g18142"><path
               id="path18144"
               d="M 533.101,248.053 C 533.101,248.053 530.969,257.276 533.364,261.481 535.339,264.948 545.169,271.179 548.987,257.926 L 540.342,248.667 Z"
               style="fill:#f3f3f3;fill-opacity:1;fill-rule:nonzero;stroke:#0033a1;stroke-opacity:1"
               inkscape:connector-curvature="0" /></g><g
             id="g18146" /><g
             id="g18150"><path
               id="path18152"
               d="M 539.684,250.817 C 539.684,250.817 538.245,253.805 535.251,254.472 531.96,255.206 527.794,254.968 525.948,250.247 524.061,245.42 527.659,241.427 533.803,237.302 Z"
               style="fill:#ffffff;fill-rule:nonzero;stroke:#0033a1;stroke-opacity:1"
               inkscape:connector-curvature="0" /></g><g
             id="g18154" /><g
             id="g18158"><path
               id="path18160"
               d="M 540.342,246.429 C 540.342,246.429 540.034,252.573 541.702,255.118 543.37,257.663 545.783,258.464 548.723,257.032 551.664,255.601 553.594,247.833 553.594,247.833 L 545.476,241.646 Z"
               style="fill:#d3d3d3;fill-opacity:1;fill-rule:nonzero;stroke:#0033a1;stroke-opacity:1"
               inkscape:connector-curvature="0" /></g><g
             id="g18162" /><g
             id="g18166"><path
               id="path18168"
               d="M 550.128,244.016 C 550.128,244.016 545.739,251.651 546.398,258.19 547.056,264.728 552.936,266.264 556.315,263.851 559.694,261.437 560.747,256.303 559.343,251.3 Z"
               style="fill:#f3f3f3;fill-opacity:1;fill-rule:nonzero;stroke:#0033a1;stroke-opacity:1"
               inkscape:connector-curvature="0" /></g><g
             id="g18170" /><g
             id="g18174"><path
               id="path18176"
               d="M 548.328,244.805 C 548.328,244.805 546.573,248.799 542.843,250.73 539.113,252.66 534.286,253.626 530.907,248.272 527.238,242.459 532.706,235.941 536.699,232.343 Z"
               style="fill:#f3f3f3;fill-opacity:1;fill-rule:nonzero;stroke:#0033a1;stroke-opacity:1"
               inkscape:connector-curvature="0" /></g><g
             id="g18178" /><g
             id="g18182" /><g
             id="g18186" /></g></g><g
         id="g18190"><g
           id="g18192"><g
             id="g18198"><path
               id="path18200"
               d="M 428.056,197.364 C 436.535,197.366 433.557,200.392 435.447,212.494 437.188,223.63 437.623,271.535 446.103,297.378 446.7,304.944 445.45,309.357 445.45,316.921 447.839,324.064 447.839,327.216 448.492,335.2 452.405,342.135 452.188,347.492 452.188,354.531 454.364,367.137 452.188,364.406 440.013,366.507 434.359,370.5 434.09,367.295 433.923,365.037 433.923,366.666 434.09,367.769 433.493,369.241 427.403,373.022 426.315,373.653 421.531,374.703 410.444,373.653 409.575,372.497 409.575,367.137 409.575,368.872 409.357,370.709 407.618,371.131 H 393.702 C 392.126,371.131 385.441,370.081 386.745,367.559 383.646,367.559 382.08,366.796 379.134,365.878 372.395,363.776 371.09,362.936 364.134,361.466 359.785,360.205 361.74,353.955 361.74,349.278 361.74,342.766 362.534,339.203 364.134,332.889 366.741,322.594 366.088,310.513 366.088,298.432 374.352,276.788 375.212,230.765 375.656,220.058 376.302,204.45 375.56,197.277 383.049,196.734 378.101,196.734 375.873,193.372 372.395,190.011 368.371,186.124 366.524,188.33 360.219,179.926 354.353,172.108 353.913,168.79 353.261,158.704 357.609,152.401 347.391,143.996 359.35,143.785 363.916,141.948 365.764,139.006 370.654,137.903 377.397,136.379 382.016,138.585 388.266,135.592 388.701,132.86 399.79,132.02 403.705,134.751 408.566,138.144 412.454,132.649 418.488,133.281 423.49,133.806 425.879,137.273 430.881,137.273 433.923,135.592 437.406,137.693 440.666,140.424 442.727,142.151 445.992,139.059 447.839,141.054 450.396,143.838 450.016,154.974 450.016,158.704 449.581,173.202 443.491,166.479 444.579,177.194 441.754,191.482 434.576,191.693 428.056,197.364"
               style="fill:#b1b4b3"
               inkscape:connector-curvature="0" /></g><g
             id="g18202"><path
               style="fill:#2d2a26"
               d="M 398.269,371.131 C 401.70109,370.82283 405.45333,371.78766 408.65742,370.57289 410.18497,362.9335 408.87062,375.27244 414.98555,373.83159 421.50588,375.77442 434.15183,373.30216 433.923,365.038 435.11104,372.44867 444.64137,363.14526 449.78934,365.11852 455.83877,360.04224 451.19525,348.86481 451.08314,341.33875 447.25098,334.58081 448.6299,326.67155 446.23983,319.43007 443.88108,311.05914 448.42117,301.91078 444.96257,293.60446 437.0503,263.1592 438.07942,231.40636 434.22237,200.3915 432.78086,195.96973 424.46529,198.48885 431.75987,194.62105 440.03302,190.70199 445.36515,181.87217 444.63946,172.75114 450.42323,166.56445 450.57544,157.8331 449.85316,149.74659 449.87136,143.74228 447.44157,143.23212 448.492,149.10649 448.10713,153.14099 443.45461,156.01395 442.7667,159.10625 453.10561,161.80033 442.6087,169.24602 439.05952,173.09423 436.37445,178.06608 426.1796,181.97771 435.20028,184.54836 429.52098,185.13495 425.8552,192.67344 419.87848,192.81409 413.55033,194.24214 404.44854,192.05789 397.40125,196.85828 389.66605,199.79809 387.62841,192.21764 380.41704,194.43682 373.77775,190.56184 368.63606,184.29137 361.307,181.398 366.75271,186.94703 379.13202,195.46585 381.52757,196.96666 375.98578,196.59543 376.18505,210.57751 378.14542,201.44413 378.92493,195.11114 383.87743,202.30955 386.527,198.941 389.10922,205.26007 387.85066,204.15555 389.60318,199.49079 396.80406,201.07806 404.40899,204.6632 412.32098,202.63665 417.20966,202.86694 426.04442,197.56118 424.01074,205.90425 425.94506,209.7727 423.34663,197.35972 427.77938,202.08562 432.94267,200.94214 430.01145,207.54849 430.774,210.64088 430.88506,220.70206 432.79696,199.45202 432.95054,208.3291 433.81979,230.61092 433.4864,252.91998 433.817,275.214 438.26156,281.7138 442.46175,288.41594 443.29831,296.50789 443.97691,301.88729 444.19758,312.3243 438.57213,303.38875 433.91721,299.80865 440.2391,309.79927 441.425,311.0561 443.22986,317.71218 435.68069,314.20406 436.41895,314.6173 435.44709,319.43671 438.78803,329.86662 437.35553,331.06899 434.33513,327.49 432.94979,322.49141 432.8655,329.98462 431.70651,335.99069 439.39469,338.82979 435.40591,345.16242 435.57235,348.57383 440.3829,339.76212 438.272,336.988 449.39434,336.21827 441.89089,349.99278 443.32184,356.18647 437.71954,354.81429 435.59335,356.35961 436.424,362.097 432.3138,366.55165 435.91547,348.60761 432.89579,351.02902 434.58931,359.07578 430.84774,374.70952 420.7795,366.931 420.15224,359.78625 412.22604,375.10942 410.76614,365.54074 410.39961,362.24639 409.50334,354.69075 408.47116,361.87333 410.49247,370.35727 404.98532,370.88886 398.269,371.131 Z"
               id="path18204"
               inkscape:connector-curvature="0" /></g><g
             id="g18206"><path
               style="fill:#ffffff"
               d="M 359.777,179.332 C 357.09749,175.76519 354.78348,171.76904 354.11023,167.29308 353.61685,164.45506 353.45685,161.57384 353.261,158.704 354.99986,156.2694 354.41465,153.0804 353.74547,150.37751 353.40457,148.69203 352.74995,146.55706 354.12293,145.15113 355.5887,143.83728 357.69448,143.9334 359.51033,143.72015 360.18371,143.34132 360.89251,143.06742 360.37976,144.10362 359.61249,146.02839 357.10317,146.92743 356.94445,149.13524 356.88651,150.63789 358.18615,151.61263 359.45601,152.08051 360.91412,152.55994 361.61696,153.91867 362.22214,155.20177 363.04755,156.24101 364.31675,157.07842 364.40618,158.5357 364.7689,160.39845 363.93096,162.14412 363.40019,163.87639 362.7773,165.35907 364.33418,166.32581 364.38874,167.70969 364.74978,169.46332 364.08512,171.57209 365.35239,173.04389 366.60216,174.33011 368.7813,173.24101 369.97478,174.56252 371.00251,176.00065 369.77753,177.64128 368.71512,178.64707 367.22313,179.21568 367.09652,176.53597 365.96165,175.93482 364.90914,175.04464 363.66031,174.28095 363.046,172.991 362.26792,174.41897 362.36827,176.19399 361.40645,177.55794 360.9832,178.24678 360.41974,178.84384 359.777,179.332 Z"
               id="path18208"
               inkscape:connector-curvature="0" /></g><g
             id="g18210"><path
               style="fill:#ffffff"
               d="M 371.09,363.237 C 368.62715,362.40755 366.04944,361.97243 363.56313,361.25646 361.3969,360.28316 361.22114,357.60819 361.31628,355.5445 361.50411,352.68508 361.8289,349.83401 361.77724,346.9631 361.85428,341.71987 363.19832,336.6264 364.43698,331.56766 364.79336,330.39043 364.79801,328.31529 365.23743,327.67328 366.09339,328.08701 365.95438,331.00988 366.38853,329.09139 366.39165,327.32888 366.8078,325.61617 368.17073,324.39251 369.46711,322.79977 370.48989,320.95073 370.872,318.916 371.5207,321.37648 370.52207,324.06123 371.72813,326.41858 372.79571,328.04176 372.31391,329.88733 371.93638,331.624 371.72543,334.04969 371.68615,336.65917 372.77835,338.89156 374.44926,339.70539 372.99092,342.04952 373.76073,343.59202 374.59247,344.75998 373.79919,345.49067 372.60189,345.71844 371.55336,346.73131 372.4791,348.69114 371.198,349.699 370.06571,350.21644 368.37408,350.13038 368.3375,351.91839 368.82986,353.44938 368.65553,355.20695 368.30644,356.82905 367.91275,358.76975 367.94273,361.18477 369.731,362.45063 370.14609,362.77234 370.60939,363.02758 371.09,363.237 Z"
               id="path18212"
               inkscape:connector-curvature="0" /></g><g
             id="g18214"><path
               style="fill:#ffffff"
               d="M 433.381,146.832 C 436.14887,146.80593 440.25268,146.58879 441.4207,143.69944 439.81038,141.25188 446.43786,140.61867 442.83052,140.98503 440.18002,141.08257 438.71712,138.24512 436.3148,137.46527 433.36296,135.53748 430.17204,138.29813 427.16438,136.59285 423.40821,134.99935 419.59791,132.33899 415.29965,133.47273 411.77872,134.1282 408.24722,137.06652 404.6058,135.2867 400.59774,132.56982 395.30325,132.67659 390.76465,133.77321 387.96812,135.39488 385.3369,137.43427 381.72481,137.23666 376.42706,137.42707 370.60168,136.71871 365.981,139.9 367.99608,140.88761 368.56633,144.44583 371.62982,143.38687 375.50886,144.2104 376.91807,140.45988 379.14892,138.25147 382.14715,137.07789 383.37389,143.50456 387.17066,141.14936 390.70451,139.04864 387.33113,144.71622 385.5537,145.33721 382.94381,146.50453 380.90167,149.18837 384.20489,151.09402 387.51709,151.93729 389.7482,155.86499 393.376,156.393 393.35017,159.10457 391.79772,162.905 394.86181,164.53792 396.9825,165.72938 397.35709,159.98633 398.28682,163.59121 398.30168,165.14561 397.8845,166.63465 399.98065,165.69638 402.52421,164.64623 405.52356,160.36591 408.14288,162.61086 407.73117,164.38128 407.63937,166.70442 409.60223,164.45703 412.30912,162.8441 412.92739,157.88515 416.19759,157.95241 418.97105,158.79165 420.73558,162.00864 421.47799,163.7698 424.54919,162.30642 423.38182,157.58947 426.49747,155.96623 429.28041,155.12405 429.0576,151.87957 431.76512,151.58317 432.80199,150.24077 437.64879,148.35188 433.88904,147.83272 433.47543,147.72263 433.23299,147.23516 433.381,146.832 Z"
               id="path18216"
               inkscape:connector-curvature="0" /></g><g
             id="g18218"><path
               id="path18220"
               d="M 383.267,201.043 C 388.919,202.724 386.311,204.299 387.18,205.297 L 390.984,206.296 C 390.984,211.758 389.653,213.964 390.875,219.324 391.475,222.002 392.725,225.968 389.898,226.256 387.071,226.544 385.547,225.546 382.723,225.204 382.723,220.74 383.892,218.035 382.614,213.755 382.016,211.758 380.331,211.207 379.569,209.238 379.053,207.873 379.705,205.244 379.462,203.774 380.819,203.774 381.417,207.083 382.505,206.296 382.505,204.484 381.963,202.933 383.267,201.043"
               style="fill:#ffffff"
               inkscape:connector-curvature="0" /></g><g
             id="g18222" /><g
             id="g18226"><path
               style="fill:#ffffff"
               d="M 387.83,363.356 C 388.1278,353.42487 386.06704,343.54816 386.962,333.625 385.81806,335.92996 386.32014,338.99747 384.71068,340.82365 386.71688,344.95953 382.48312,347.77203 382.83104,351.6233 383.54012,356.11992 377.87527,357.46736 376.20434,360.89352 375.67678,362.76237 375.74871,363.31439 375.3431,361.07995 374.23501,357.15737 376.21254,353.2096 375.18385,349.29469 374.175,345.67194 379.16914,344.39562 377.82345,340.4547 377.32071,336.18689 374.59709,331.77637 376.744,327.532 375.40287,324.20322 379.62107,325.57705 379.96881,322.59663 382.40058,316.52161 378.91958,309.76971 381.69938,303.75612 382.87599,301.75097 381.71574,300.02334 379.87661,302.00727 378.3986,303.72061 375.89721,310.50736 373.77969,306.37298 372.91019,301.60383 379.25873,299.28447 378.70876,294.5951 377.88907,291.09834 377.64903,287.50759 379.40419,284.23728 381.82395,277.63778 387.33493,271.8406 394.48743,270.69475 398.22334,269.122 397.37518,275.17631 400.24375,276.66049 402.70094,279.08034 403.02841,283.76671 399.08486,284.82034 396.90777,286.39957 395.81711,288.81988 393.42399,290.24014 392.88238,293.40115 393.01947,296.42771 393.01485,299.45945 392.26409,302.38064 393.42234,306.12954 393.13417,309.36191 392.94679,313.11289 393.54671,316.80638 394.01992,320.5092 394.89074,323.47809 391.61878,325.49766 392.26558,328.17672 393.28548,330.88781 392.92383,333.81882 391.53512,336.33456 389.72157,340.22875 390.93063,344.63761 390.62816,348.75983 390.67178,353.75808 389.88105,358.77096 387.83,363.356 Z"
               id="path18228"
               inkscape:connector-curvature="0" /></g><g
             id="g18230"><path
               id="path18232"
               d="M 407.597,162.649 425.367,217.346 482.879,217.344 436.352,251.148 454.125,305.845 407.597,272.037 361.07,305.845 378.845,251.148 332.316,217.344 389.828,217.346 Z"
               style="fill:#ffffff"
               inkscape:connector-curvature="0" /></g><g
             id="g18234"><path
               id="path18236"
               d="M 407.597,162.649 425.367,217.346 482.879,217.344 436.352,251.148 454.125,305.845 407.597,272.037 361.07,305.845 378.845,251.148 332.316,217.344 389.828,217.346 Z"
               style="fill:none;fill-rule:nonzero;stroke:#000000;stroke-width:2.18000007px"
               inkscape:connector-curvature="0" /></g></g></g><g
         id="g18238"><g
           id="g18240"><g
             id="g18246"><path
               id="path18248"
               d="M 256.269,192.234 C 256.269,192.234 252.943,191.859 250.729,194.503 248.327,197.373 248.594,204.048 255.268,209.988 259.729,213.958 260.738,214.182 264.145,216.662 268.065,219.515 270.753,221.735 272.221,222.802 273.689,223.87 279.763,229.477 281.632,230.945 283.5,232.413 289.026,233.815 292.604,230.144 296.182,226.473 295.047,222.269 289.908,218.931 Z"
               style="fill:#ffffff;fill-rule:nonzero;stroke:#0033a1;stroke-opacity:1"
               inkscape:connector-curvature="0" /></g><g
             id="g18250" /><g
             id="g18254"><path
               id="path18256"
               d="M 260.674,176.749 C 260.674,176.749 255.935,176.416 253.866,178.084 253.866,178.084 250.062,180.888 251.53,187.095 252.999,193.302 257.471,199.175 269.151,205.716 L 273.355,210.321 C 273.355,210.321 276.693,212.257 280.364,216.795 284.034,221.334 289.574,222.135 293.712,220.466 297.85,218.798 299.586,213.258 296.649,208.72 Z"
               style="fill:#ffffff;fill-rule:nonzero;stroke:#0033a1;stroke-opacity:1"
               inkscape:connector-curvature="0" /></g><g
             id="g18258" /><g
             id="g18262"><path
               id="path18264"
               d="M 258.272,173.813 C 258.272,173.813 257.404,175.882 259.807,180.02 262.209,184.158 270.285,191.366 270.285,191.366 L 273.088,196.639 C 273.088,196.639 278.294,203.38 286.704,208.519 295.114,213.659 302.789,213.125 301.722,201.044 L 290.242,193.168 265.48,171.677 Z"
               style="fill:#ffffff;fill-rule:nonzero;stroke:#0033a1;stroke-opacity:1"
               inkscape:connector-curvature="0" /></g><g
             id="g18266" /><g
             id="g18270"><path
               id="path18272"
               d="M 283.901,191.166 C 283.901,191.166 287.305,199.976 293.312,202.579 299.319,205.182 309.33,204.181 305.125,188.963 L 288.773,181.154 Z"
               style="fill:#ffffff;fill-rule:nonzero;stroke:#0033a1;stroke-opacity:1"
               inkscape:connector-curvature="0" /></g><g
             id="g18274" /><g
             id="g18278"><path
               id="path18280"
               d="M 288.706,183.891 C 288.706,183.891 291.576,190.574 300.92,191.638 310.264,192.701 318.34,184.625 309.864,175.815 L 279.97,156.059 278.561,156.526 C 278.561,156.526 272.555,153.456 265.279,155.258 L 261.809,164.135 Z"
               style="fill:#ffffff;fill-rule:nonzero;stroke:#0033a1;stroke-opacity:1"
               inkscape:connector-curvature="0" /></g><g
             id="g18282" /><g
             id="g18286"><path
               id="path18288"
               d="M 281.832,135.035 C 281.832,135.035 276.893,133.7 274.223,136.503 271.553,139.306 267.415,149.985 276.359,157.594 285.302,165.203 289.374,163.735 289.374,163.735 L 289.641,165.737 C 289.641,165.737 290.976,165.336 296.115,171.677 301.254,178.018 309.13,180.287 314.136,177.217 319.141,174.146 321.01,169.141 315.671,162.6 L 295.781,139.306 Z"
               style="fill:#ffffff;fill-rule:nonzero;stroke:#0033a1;stroke-opacity:1"
               inkscape:connector-curvature="0" /></g><g
             id="g18290" /><g
             id="g18294"><path
               id="path18296"
               d="M 294.179,119.017 C 294.179,119.017 288.373,117.615 284.769,120.351 281.164,123.088 278.028,129.228 280.831,137.705 283.634,146.181 291.109,151.053 292.711,151.988 L 298.384,152.588 C 298.384,152.588 300.452,150.853 301.821,154.124 303.19,157.394 308.196,164.869 314.936,164.869 321.678,164.869 328.152,159.396 324.948,151.654 L 313.437,142.577 299.919,125.624 Z"
               style="fill:#ffffff;fill-rule:nonzero;stroke:#0033a1;stroke-opacity:1"
               inkscape:connector-curvature="0" /></g><g
             id="g18298" /><g
             id="g18302"><path
               id="path18304"
               d="M 302.122,104.733 C 302.122,104.733 296.916,101.863 292.711,106.202 288.506,110.54 289.107,116.347 292.177,120.418 295.247,124.49 299.217,129.562 302.772,132.832 306.327,136.103 308.596,142.977 309.597,145.247 310.598,147.516 312.667,154.858 321.01,154.691 329.353,154.524 331.956,151.295 333.224,141.763 L 326.216,132.699 317.072,119.751 Z"
               style="fill:#ffffff;fill-rule:nonzero;stroke:#0033a1;stroke-opacity:1"
               inkscape:connector-curvature="0" /></g><g
             id="g18306" /><g
             id="g18310"><path
               id="path18312"
               d="M 319.542,94.388 C 319.542,94.388 311.866,86.78 305.125,91.385 298.384,95.99 299.052,102.731 300.653,106.402 302.255,110.073 307.461,117.081 312.534,121.219 L 318.073,125.557 C 318.073,125.557 319.809,130.363 320.944,132.899 322.078,135.435 324.147,138.439 328.018,140.441 331.889,142.443 333.158,146.915 337.83,144.779 342.502,142.644 343.569,143.311 343.569,143.311 343.569,143.311 345.772,142.844 345.972,139.306 Z"
               style="fill:#ffffff;fill-rule:nonzero;stroke:#0033a1;stroke-opacity:1"
               inkscape:connector-curvature="0" /></g><g
             id="g18314" /><g
             id="g18318"><path
               id="path18320"
               d="M 331.155,81.774 C 331.155,81.774 326.083,79.705 322.212,82.508 318.34,85.311 315.204,90.05 319.342,104.199 323.48,118.349 341.834,139.64 341.834,139.64 341.834,139.64 345.772,142.31 350.044,140.641 354.315,138.973 355.65,135.168 354.916,131.164 L 346.306,103.802 Z"
               style="fill:#ffffff;fill-rule:nonzero;stroke:#0033a1;stroke-opacity:1"
               inkscape:connector-curvature="0" /></g><g
             id="g18322" /><g
             id="g18326"><path
               id="path18328"
               d="M 349.643,77.168 C 349.643,77.168 344.504,73.431 339.765,74.432 335.026,75.433 325.816,80.506 329.286,86.379 332.757,92.253 342.101,107.603 342.101,107.603 342.101,107.603 343.569,112.147 343.836,117.624 344.103,123.088 347.084,129.368 351.579,132.899 356.251,136.57 369.065,135.102 368.131,124.289 L 362.258,97.925 Z"
               style="fill:#ffffff;fill-rule:nonzero;stroke:#0033a1;stroke-opacity:1"
               inkscape:connector-curvature="0" /></g><g
             id="g18330" /><g
             id="g18334"><path
               id="path18336"
               d="M 365.662,71.815 C 365.662,71.815 360.736,65.73 354.382,67.943 348.976,69.827 345.972,74.017 347.441,82.493 348.909,90.97 353.848,95.842 357.786,100.247 361.724,104.652 361.123,106.721 361.323,110.058 361.523,113.396 362.591,123.073 369.466,127.278 376.34,131.483 386.085,126.763 384.483,117.543 L 373.404,80.172 Z"
               style="fill:#ffffff;fill-rule:nonzero;stroke:#0033a1;stroke-opacity:1"
               inkscape:connector-curvature="0" /></g><g
             id="g18338" /><g
             id="g18342"><path
               id="path18344"
               d="M 382.614,67.958 C 382.614,67.958 378.343,59.548 369.733,63.086 361.123,66.623 360.255,80.372 373.404,92.786 L 377.075,98.593 C 377.075,98.593 379.077,98.793 378.543,106.869 378.009,114.945 381.88,121.553 387.086,122.687 392.292,123.822 397.632,123.688 400.301,114.211 L 399.434,92.696 389.355,86.579 Z"
               style="fill:#ffffff;fill-rule:nonzero;stroke:#0033a1;stroke-opacity:1"
               inkscape:connector-curvature="0" /></g><g
             id="g18346" /><g
             id="g18350"><path
               id="path18352"
               d="M 516.82,221.789 C 516.82,221.789 513.463,224.751 515.636,228.634 517.808,232.518 520.507,235.283 526.365,232.913 532.223,230.543 539.201,223.961 542.163,222.052 545.125,220.143 556.315,210.599 556.315,210.599 556.315,210.599 570.336,197.236 556.315,190.588 Z"
               style="fill:#ffffff;fill-rule:nonzero;stroke:#0033a1;stroke-opacity:1"
               inkscape:connector-curvature="0" /></g><g
             id="g18354" /><g
             id="g18358"><path
               id="path18360"
               d="M 515.372,209.414 C 515.372,209.414 510.435,213.692 512.739,218.432 515.043,223.171 516.557,224.751 521.033,223.829 525.509,222.908 531.631,217.444 534.922,214.614 538.213,211.783 547.429,204.148 547.429,204.148 547.429,204.148 553.156,200.396 556.776,193.945 560.396,187.494 562.042,180.056 552.102,175.843 L 535.185,189.666 Z"
               style="fill:#ffffff;fill-rule:nonzero;stroke:#0033a1;stroke-opacity:1"
               inkscape:connector-curvature="0" /></g><g
             id="g18362" /><g
             id="g18366"><path
               id="path18368"
               d="M 509.646,201.647 C 509.646,201.647 506.815,204.872 510.37,208.953 513.924,213.034 520.177,211.52 522.284,210.269 524.39,209.019 534.659,202.436 534.988,198.882 L 539.53,189.403 C 539.53,189.403 547.56,184.795 552.497,178.345 557.434,171.894 556.973,163.6 547.824,161.428 L 537.621,176.436 522.284,190.588 Z"
               style="fill:#ffffff;fill-rule:nonzero;stroke:#0033a1;stroke-opacity:1"
               inkscape:connector-curvature="0" /></g><g
             id="g18370" /><g
             id="g18374"><path
               id="path18376"
               d="M 505.564,191.246 C 505.564,191.246 502.493,195.311 505.564,199.672 508.636,204.032 512.213,205.728 515.833,203.555 519.453,201.383 523.798,196.446 526.562,192.299 529.327,188.152 530.183,186.507 532.948,183.808 535.712,181.109 541.044,176.897 543.479,173.737 545.915,170.577 549.864,164.456 549.14,159.058 548.416,153.661 543.413,148.329 536.568,150.764 L 522.284,169.919 Z"
               style="fill:#ffffff;fill-rule:nonzero;stroke:#0033a1;stroke-opacity:1"
               inkscape:connector-curvature="0" /></g><g
             id="g18378" /><g
             id="g18382"><path
               id="path18384"
               d="M 498.85,177.328 C 498.85,177.328 498.82,177.441 498.771,177.648 498.352,179.447 496.612,188.355 502.339,191.839 508.724,195.722 517.018,189.337 518.532,185.783 520.046,182.228 523.535,174.658 525.18,171.696 526.826,168.734 533.963,159.256 535.858,156.096 537.753,152.936 545.454,138.587 529.854,133.189 Z"
               style="fill:#ffffff;fill-rule:nonzero;stroke:#0033a1;stroke-opacity:1"
               inkscape:connector-curvature="0" /></g><g
             id="g18386" /><g
             id="g18390"><path
               id="path18392"
               d="M 495.296,162.744 V 175.843 C 495.296,175.843 496.581,182.294 504.199,178.739 511.818,175.185 514.517,171.894 515.965,166.43 517.413,160.967 520.638,152.805 524.193,147.736 527.747,142.668 531.894,135.954 531.828,131.675 531.762,127.396 529.788,121.999 524.324,121.406 L 501.593,138.916 Z"
               style="fill:#ffffff;fill-rule:nonzero;stroke:#0033a1;stroke-opacity:1"
               inkscape:connector-curvature="0" /></g><g
             id="g18394" /><g
             id="g18398"><path
               id="path18400"
               d="M 505.918,136.91 C 505.918,136.91 511.116,139.099 510.227,147.1 509.69,151.928 507.833,157.462 501.063,163.12 494.293,168.777 486.566,162.965 484.241,153.186 L 488.412,145.937 498.195,137.389 Z"
               style="fill:#ffffff;fill-rule:nonzero;stroke:#0033a1;stroke-opacity:1"
               inkscape:connector-curvature="0" /></g><g
             id="g18402" /><g
             id="g18406"><path
               id="path18408"
               d="M 501.815,135.338 C 501.815,135.338 503.901,145.595 497.285,151.75 490.669,157.904 475.966,160.571 477.607,144.091 L 488.959,135.338 Z"
               style="fill:#ffffff;fill-rule:nonzero;stroke:#0033a1;stroke-opacity:1"
               inkscape:connector-curvature="0" /></g><g
             id="g18410" /><g
             id="g18414" /><g
             id="g18418" /><g
             id="g18422"><path
               id="path18424"
               d="M 502.866,116.865 C 502.866,116.865 509.909,109.492 511.028,103.436 512.147,97.381 506.881,93.036 503.985,92.115 501.088,91.193 496.229,91.785 493.985,92.773 L 477.655,122.723 485.159,128.409 Z"
               style="fill:#ffffff;fill-rule:nonzero;stroke:#0033a1;stroke-opacity:1"
               inkscape:connector-curvature="0" /></g><g
             id="g18426" /><g
             id="g18430"><path
               id="path18432"
               d="M 455.246,130.072 C 455.246,130.072 455.724,136.842 459.622,138.62 463.52,140.398 473.709,141.834 478.975,128.362 484.241,114.891 488.138,112.497 488.138,112.497 488.138,112.497 496.14,103.265 497.576,99.436 499.012,95.606 500.721,90.888 495.114,86.032 489.506,81.177 484.241,85.007 482.736,86.032 L 466.666,108.326 Z"
               style="fill:#ffffff;fill-rule:nonzero;stroke:#0033a1;stroke-opacity:1"
               inkscape:connector-curvature="0" /></g><g
             id="g18434" /><g
             id="g18438"><path
               id="path18440"
               d="M 442.526,123.644 C 442.526,123.644 443.552,129.867 447.313,132.123 451.074,134.38 455.998,135.269 460.443,130.482 464.888,125.695 465.982,121.319 467.076,118.105 468.17,114.891 468.376,110.514 471.384,106.958 474.393,103.402 481.027,95.675 482.941,92.803 484.856,89.931 488.412,83.092 480.206,77.006 472,70.92 466.666,76.459 465.161,78.168 L 450.185,97.248 Z"
               style="fill:#ffffff;fill-rule:nonzero;stroke:#0033a1;stroke-opacity:1"
               inkscape:connector-curvature="0" /></g><g
             id="g18442" /><g
             id="g18446"><path
               id="path18448"
               d="M 426.388,117.9 C 426.388,117.9 425.909,124.533 431.79,127.268 437.671,130.004 444.646,127.815 447.997,120.772 451.348,113.728 451.074,105.522 453.126,101.009 455.177,96.495 456.203,95.401 462.153,89.999 468.102,84.596 468.581,76.459 465.64,72.219 462.7,67.979 459.144,64.902 452.715,65.517 L 427.892,86.99 Z"
               style="fill:#ffffff;fill-rule:nonzero;stroke:#0033a1;stroke-opacity:1"
               inkscape:connector-curvature="0" /></g><g
             id="g18450" /><g
             id="g18454"><path
               id="path18456"
               d="M 412.476,115.087 C 412.476,115.087 413.015,119.498 419.137,121.538 425.259,123.579 428.681,120.09 430.327,115.548 431.973,111.006 431.117,98.894 431.051,95.537 430.985,92.18 438.16,80.266 438.16,80.266 L 443.229,65.439 C 443.229,65.439 440.267,57.03 430.919,64.008 L 420.322,91.259 Z"
               style="fill:#ffffff;fill-rule:nonzero;stroke:#0033a1;stroke-opacity:1"
               inkscape:connector-curvature="0" /></g><g
             id="g18458" /><g
             id="g18462"><path
               id="path18464"
               d="M 396.296,92.97 C 396.296,92.97 394.058,123.842 407.486,119.958 L 414.661,96.459 Z"
               style="fill:#ffffff;fill-rule:nonzero;stroke:#0033a1;stroke-opacity:1"
               inkscape:connector-curvature="0" /></g><g
             id="g18466" /><g
             id="g18470"><path
               id="path18472"
               d="M 432.434,75.461 434.211,70.261 C 434.211,70.261 434.869,51.698 418.15,57.162 L 415.802,84.611 Z"
               style="fill:#ffffff;fill-rule:nonzero;stroke:#0033a1;stroke-opacity:1"
               inkscape:connector-curvature="0" /></g><g
             id="g18474" /><g
             id="g18478"><path
               id="path18480"
               d="M 418.61,80.332 C 418.61,80.332 421.375,70.129 420.783,63.942 420.19,57.754 418.544,51.172 408.868,52.159 399.192,53.147 399.324,66.196 399.324,66.196 L 404.787,88.626 Z"
               style="fill:#ffffff;fill-rule:nonzero;stroke:#0033a1;stroke-opacity:1"
               inkscape:connector-curvature="0" /></g><g
             id="g18482" /><g
             id="g18486"><path
               id="path18488"
               d="M 403.076,88.626 C 403.076,88.626 406.959,81.846 403.339,70.656 399.719,59.466 396.362,56.005 390.701,56.155 385.04,56.306 379.51,61.572 381.024,71.841 382.538,82.109 385.303,85.73 388.989,91.193 L 393.86,96.459 C 393.86,96.459 398.6,100.343 402.466,95.1 Z"
               style="fill:#ffffff;fill-rule:nonzero;stroke:#0033a1;stroke-opacity:1"
               inkscape:connector-curvature="0" /></g><g
             id="g18490" /><g
             id="g18494" /><g
             id="g18498" /><g
             id="g18502" /><g
             id="g18506" /><g
             id="g18510" /><g
             id="g18514" /><g
             id="g18518" /><g
             id="g18522" /><g
             id="g18526" /><g
             id="g18530" /><g
             id="g18534" /><g
             id="g18538" /><g
             id="g18542" /><g
             id="g18546" /><g
             id="g18550" /><g
             id="g18554" /><g
             id="g18558" /><g
             id="g18562" /><g
             id="g18566" /><g
             id="g18570" /><g
             id="g18574" /><g
             id="g18578" /><g
             id="g18582" /><g
             id="g18586" /><g
             id="g18590" /><g
             id="g18594" /><g
             id="g18598" /><g
             id="g18602" /><g
             id="g18606" /><g
             id="g18610" /><g
             id="g18614" /><g
             id="g18618" /><g
             id="g18622" /><g
             id="g18626" /><g
             id="g18630" /><g
             id="g18634" /><g
             id="g18638" /><g
             id="g18642" /><g
             id="g18646" /><g
             id="g18650" /><g
             id="g18654" /><g
             id="g18682" /><g
             id="g18718" /><g
             id="g18726" /><g
             id="g18730" /><g
             id="g18742" /><g
             id="g18746" /><g
             id="g18750" /><g
             id="g18754" /><g
             id="g18758" /><g
             id="g18762" /><g
             id="g18766" /><g
             id="g18770" /><g
             id="g18774" /><g
             id="g18778" /><g
             id="g18782" /><g
             id="g18786" /><g
             id="g18790" /><g
             id="g18794" /><g
             id="g18798" /><g
             id="g18802" /></g></g><g
         id="g18806"><g
           id="g18808"><g
             id="g18814" /><g
             id="g18818" /><g
             id="g18822" /><g
             id="g18826" /><g
             id="g18830" /><g
             id="g18834" /><g
             id="g18838"><path
               id="path18840"
               d="M 477.711,127.87 C 477.711,127.87 477.515,129.57 477.972,140.225 478.43,150.881 479.915,171.126 483.777,189.469 483.777,189.469 486.497,168.506 486.848,158.669 487.199,148.833 486.322,136.546 486.322,136.546 Z"
               style="fill:#62a70f;fill-rule:nonzero"
               inkscape:connector-curvature="0" /></g><g
             id="g18842" /><g
             id="g18846" /><g
             id="g18850"><path
               id="path18852"
               d="M 478.728,130.133 C 478.728,130.133 477.828,147.439 480.957,163.578 480.957,163.578 483.892,144.51 483,133.199 Z"
               style="fill:#007935;fill-rule:nonzero"
               inkscape:connector-curvature="0" /></g><g
             id="g18854"><path
               id="path18856"
               d="M 488.779,138.038 C 488.779,138.038 491.741,148.263 492.268,157.61 492.584,163.219 493.92,178.542 492.114,193.067 492.114,193.067 498.133,179.62 498.785,169.195 499.443,158.669 499.925,150.589 497.995,142.69 Z"
               style="fill:#62a70f;fill-rule:nonzero"
               inkscape:connector-curvature="0" /></g><g
             id="g18858"><path
               id="path18860"
               d="M 493.058,140.759 C 493.058,140.759 494.799,147.904 495.756,153.331 496.62,158.228 497.797,168.005 497.797,168.005 497.797,168.005 499.114,152.41 497.468,143.326 Z"
               style="fill:#007935;fill-rule:nonzero"
               inkscape:connector-curvature="0" /></g><g
             id="g18862" /><g
             id="g18898" /><g
             id="g18902" /><g
             id="g18906" /><g
             id="g18910" /><g
             id="g18914" /><g
             id="g18918" /><g
             id="g18922" /><g
             id="g18926"><path
               id="path18928"
               d="M 394.01,165.167 C 394.01,165.167 388.749,150.094 399.675,129.052 403.622,121.45 405.866,117.175 407.146,114.175 408.495,111.013 408.96,106.503 409.033,103.765 409.082,101.911 408.852,102.365 408.982,98.853 L 420.514,99.476 C 420.514,99.476 420.453,104.029 421.507,109.163 422.56,114.297 423.942,119.629 419.466,131.741 414.99,143.853 414.661,153.792 414.858,159.124 414.858,159.124 408.803,150.007 410.975,139.459 413.147,128.91 416.284,123.579 415.802,115.943 415.802,115.943 407.354,130.424 402.615,138.455 397.876,146.486 395.738,152.78 394.01,165.167"
               style="fill:#62a70f;fill-rule:nonzero"
               inkscape:connector-curvature="0" /></g><g
             id="g18930"><path
               id="path18932"
               d="M 409.395,100.277 C 409.395,100.277 410.185,105.827 408.359,112.375 407.725,114.647 406.81,116.18 405.215,119.201 396.46,135.789 392.61,146.815 393.334,158.466 393.334,158.466 393.86,146.486 400.574,134.374 407.289,122.262 411.464,116.058 414.031,107.517 414.031,107.517 415.802,109.866 416.307,116.272 416.782,122.312 414.332,129.305 413.147,133.321 411.962,137.336 408.803,145.366 413.673,155.503 413.673,155.503 411.83,148.065 414.661,137.994 417.491,127.923 423.021,122.855 418.215,101.001 Z"
               style="fill:#007935;fill-rule:nonzero"
               inkscape:connector-curvature="0" /></g><g
             id="g18934" /><g
             id="g18954" /><g
             id="g18958" /><g
             id="g18962" /><g
             id="g18966" /><g
             id="g18970" /><g
             id="g18974" /><g
             id="g18978" /><g
             id="g18982" /><g
             id="g18986"><path
               id="path18988"
               d="M 319.868,125.093 C 319.868,125.093 331.722,143.392 327.378,160.243 323.033,177.094 319.023,189.969 328.335,197.947 328.335,197.947 323.093,186.786 330.428,169.899 336.769,155.299 335.809,145.219 335.809,145.219 335.809,145.219 339.569,150.35 340.782,153.523 342.741,158.646 343.834,168.537 340.411,180.78 340.411,180.78 356.275,160.885 344.229,140.784 337.174,129.014 334.229,117.543 334.229,117.543 Z"
               style="fill:#76bc21;fill-rule:nonzero"
               inkscape:connector-curvature="0" /></g><g
             id="g18990"><path
               id="path18992"
               d="M 324.108,183.525 C 324.108,183.525 323.713,178.292 327.465,165.597 332.384,148.954 328.858,138.389 319.868,125.093 L 333.203,118.982 C 333.203,118.982 334.517,126.185 337.12,132.662 340.894,142.055 350.625,149.14 343.955,167.571 343.955,167.571 345.232,157.884 341.091,150.25 335.957,140.784 332.761,137.989 332.761,137.989 332.761,137.989 335.109,145.692 332.358,157.215 329.886,167.571 326.391,173.972 324.108,183.525"
               style="fill:#007935;fill-rule:nonzero"
               inkscape:connector-curvature="0" /></g><g
             id="g18994" /><circle
             cx="412.29901"
             cy="92.636002"
             r="2.862"
             style="fill:#ff008a"
             id="circle767" /><g
             id="g19030" /><g
             id="g19034" /><g
             id="g19038" /><g
             id="g19042" /><g
             id="g19046" /><g
             id="g19050" /><g
             id="g19054" /><g
             id="g19058" /><g
             id="g19062" /><g
             id="g19090" /><g
             id="g19094" /><g
             id="g19098"><path
               id="path19100"
               d="M 266.061,279.975 C 266.061,279.975 255.366,242.239 271.097,216.345 L 266.061,208.038 C 266.061,208.038 251.105,218.997 248.3,241.815 246.019,260.384 250.758,273.235 254.269,279.975 254.269,279.975 250.143,258.175 257.253,237.777 257.253,237.777 255.123,267.443 266.061,279.975"
               style="fill:#76bc21;fill-rule:nonzero"
               inkscape:connector-curvature="0" /></g><g
             id="g19102"><path
               id="path19104"
               d="M 264.285,276.006 C 264.285,276.006 256.085,243.006 268.736,218.081 L 266.622,211.323 C 266.622,211.323 242.625,232.804 252.601,274.251 252.601,274.251 250.231,249.238 257.867,235.678 257.867,235.678 256.837,262.069 264.285,276.006"
               style="fill:#007935;fill-rule:nonzero"
               inkscape:connector-curvature="0" /></g><g
             id="g19106" /><g
             id="g19118" /><g
             id="g19122" /><g
             id="g19126"><path
               id="path19128"
               style="fill:#e1261c;fill-rule:nonzero"
               d="M 274.955,236.419 C 278.65526,232.02039 274.75771,225.82228 277.738,221.952 272.158,221.13027 267.90909,221.44939 262.789,224.753 267.33451,228.09573 265.45911,234.3312 270.622,237.231 M 278.916,252.109 C 282.03909,247.5119 277.6773,241.94019 280.16,237.921 274.71255,237.68288 270.65789,238.41009 266.061,242.094 270.76326,244.85808 269.57797,251.04093 274.829,253.319 M 273.482,220.31 C 278.23395,216.2284 275.12863,208.8792 279.013,205.238 273.15551,203.37549 268.52919,202.97265 262.443,205.629 266.74538,210.02133 263.63552,216.3993 268.679,220.424 M 273.489,202.042 C 278.1547,198.67056 274.70916,192.67271 278.753,189.145 273.73226,187.34816 269.73365,186.85558 264.374,188.969 267.95635,192.91939 265.07588,198.34628 269.321,201.991 M 286.126,172.611 C 291.72679,171.09296 292.05947,163.71296 296.76,162.218 292.60646,158.32521 288.89967,156.14379 282.753,155.938 284.59898,161.32494 279.45435,165.41601 282.067,170.791 M 293.125,157.652 C 298.83254,156.75478 299.95767,149.48507 304.771,148.51 301.07905,144.20979 297.64596,141.65036 291.584,140.784 292.82942,146.31558 287.29701,149.81048 289.303,155.413 M 301.465,143.7 C 308.37263,143.7412 311.10439,135.3762 316.97,135.155 313.44216,129.36779 309.88325,125.68762 302.896,123.497 303.30088,130.26473 296.09844,133.32328 297.386,140.321 M 313.795,128.97 C 320.68335,129.51359 324.01676,121.37042 329.886,121.576 326.78861,115.5456 323.50626,111.61439 316.696,108.919 316.6061,115.6997 309.19811,118.2266 309.972,125.301 M 347.002,110.449 C 353.30387,113.56773 359.53213,107.13586 364.998,109.552 364.35278,102.68434 362.74018,97.728143 357.326,92.607 354.6767,98.978089 346.72342,98.562571 344.779,105.538 M 366.167,102.527 C 372.6583,106.83242 380.40311,100.63165 386.073,104.048 386.32105,96.409023 385.2391,90.737181 380.002,84.353 376.20114,90.98695 367.51749,89.421557 364.407,96.818 M 387.217,96.883 C 393.50312,101.23223 401.21668,95.296921 406.715,98.758 406.715,98.758 407.533,93.574 406.057,88.428 404.58,83.282 401.137,79.322 401.137,79.322 397.28077,85.756034 388.79298,84.054114 385.6,91.25 M 431.487,94.261 C 433.91096,100.86086 442.85626,100.48299 445.158,105.997 449.41733,100.57183 451.65807,95.867035 451.257,88.426 444.94958,91.222638 439.46706,85.447693 433.255,89.168 M 450.747,102.369 C 452.34947,109.8432 462.03431,110.79929 463.672,117.087 469.08362,111.89662 472.21336,107.17458 472.917,99.104 465.7012,101.15216 460.68097,94.099501 453.427,97.157 M 469.867,112.111 C 471.29938,119.79096 481.1691,121.0329 482.671,127.501 488.34237,122.34606 491.66826,117.60661 492.608,109.38 485.17925,111.27619 480.24227,103.93241 472.747,106.859 M 500.606,142.361 C 499.54253,148.05765 506.21783,150.04145 505.717,155.42 510.62535,153.24618 513.88368,150.83104 516.325,145.57 510.97142,145.17391 509.30661,139.21819 503.681,139.506 M 510.978,154.499 C 509.55585,160.10156 515.7985,164.00383 514.797,168.813 520.20736,167.11169 523.91387,164.96185 527.1,159.728 521.5216,158.69484 520.48687,152.22837 514.544,151.866 M 520.902,167.185 C 518.40139,173.31992 524.87226,178.73197 522.977,184.034 529.38557,182.95694 533.93223,181.10228 538.374,175.665 532.206,173.61078 532.05262,166.10965 525.365,164.759 M 529.474,183.741 C 526.61344,189.7652 532.80923,195.57218 530.602,200.793 537.10576,200.07603 541.78,198.46903 546.554,193.256 540.47072,190.84157 540.74248,183.29272 534.097,181.556"
               inkscape:connector-curvature="0" /></g><g
             id="g19130" /><g
             id="g19134" /><g
             id="g19498" /><g
             id="g19502"><path
               id="path19504"
               style="fill:#cacaca;fill-opacity:1;fill-rule:nonzero"
               d="M 584.233,261.689 C 576.82534,260.19751 564.71768,243.84951 566.97,260.023 571.06065,262.18926 582.8033,268.66357 584.233,261.689 Z M 559.662,239.16 C 558.04104,231.17282 549.739,224.17246 552.76075,217.14562 552.18925,206.4813 538.45627,191.81156 530.03425,205.384 524.25505,212.40687 527.67553,224.16709 532.88716,230.11648 536.44145,240.90055 547.26713,243.91302 554.0685,252.8795 565.96926,263.55585 560.57984,245.64922 559.662,239.16 Z M 287.804,173.604 C 283.58127,165.47702 278.48246,156.8401 268.633,153.447 263.01312,146.85058 254.99357,148.734 247.49,147.028 233.06839,146.02123 248.44863,153.90272 252.734,157.096 260.82669,163.65847 250.96221,174.43567 261.354,181.197 262.62954,187.18148 266.91029,191.41721 272.44816,194.84825 277.53771,200.09698 289.45878,198.43723 290.581,190.628 296.60725,182.56556 294.25367,180.38692 287.804,173.604 Z M 326.434,121.275 C 335.78589,126.74466 349.84173,117.24063 346.941,106.89475 349.55169,99.729104 352.18197,91.603146 344.689,85.949 339.70037,79.423283 345.54219,69.104381 334.399,68.483625 332.19907,61.913041 313.71312,54.548323 325.42775,67.150625 330.0914,72.772692 328.29503,80.630854 323.933,85.269 324.24394,94.459018 323.10227,100.78962 316.056,106.289 317.74682,112.15922 323.03674,116.27356 326.434,121.275 Z M 404.841,99.54 C 410.32208,106.2398 417.64657,97.452095 421.67347,105.25716 431.37289,104.05216 435.46216,94.507273 440.473,87.377 448.76351,85.604716 448.72835,72.463222 457.249,68.615 460.6488,63.647805 461.4381,55.462203 462.976,49.296 465.49935,41.646052 457.54615,32.457629 457.085,45.247 452.24604,49.552384 449.59364,54.330366 443.969,59.811 438.73407,68.578858 429.07409,67.903672 421.572,74.77 418.88268,81.509179 407.97652,75.289297 405.07937,81.18575 401.18838,86.363365 401.11119,94.007631 404.841,99.54 Z M 478.976,130.975 C 482.85025,138.28603 491.15246,138.42649 496.434,143.888 504.93629,141.97375 519.01641,138.19755 520.72113,128.04888 528.64718,122.41871 530.15196,117.03782 531.047,108.432 534.83368,101.99427 529.87851,94.772378 524.532,106.158 517.7561,114.59612 506.23943,111.80575 496.083,115.204 488.91354,115.2756 471.1628,121.32324 478.976,130.975 Z M 517.479,311.771 C 513.75419,316.30577 511.13726,321.99024 505.649,324.695 505.14573,331.19591 501.88045,337.23939 508.474,342.471 515.5289,345.69174 520.30291,355.72282 528.75887,352.87213 521.36351,344.71799 516.80786,335.75403 525.0295,326.28612 527.78367,320.11703 527.60369,307.10598 517.77225,311.7285 Z M 283.314,292.355 C 275.2388,287.08304 261.0056,301.6018 261.21987,304.04075 257.22383,310.85869 257.65544,316.00983 265.195,311.534 272.86381,306.06425 285.38941,309.00199 295.16188,312.92512 299.34049,310.88011 298.75578,300.13486 293.34067,298.31244 290.06998,296.17105 287.23556,293.25234 283.314,292.355 Z"
               inkscape:connector-curvature="0" /><path
               style="fill:#ff008a"
               d="M 577.08301,259.66199 C 577.13055,264.37824 569.41389,262.3822 571.70937,258.28987 573.03036,255.70559 577.15735,256.75468 577.08301,259.66199 Z M 547.383,205.14 C 547.43054,209.85625 539.71388,207.86021 542.00936,203.76788 543.33035,201.1836 547.45734,202.23269 547.383,205.14 Z M 560.15698,250.89999 C 560.20452,255.61624 552.48786,253.6202 554.78334,249.52787 556.10433,246.94359 560.23132,247.99268 560.15698,250.89999 Z M 558.86298,240.552 C 558.91052,245.26825 551.19386,243.27221 553.48934,239.17988 554.81033,236.5956 558.93732,237.64469 558.86298,240.552 Z M 551.42499,240.067 C 551.47253,244.78325 543.75587,242.78721 546.05135,238.69488 547.37234,236.1106 551.49933,237.15969 551.42499,240.067 Z M 554.49701,230.52699 C 554.54455,235.24324 546.82789,233.2472 549.12337,229.15487 550.44436,226.57059 554.57135,227.61968 554.49701,230.52699 Z M 545.604,231.49699 C 545.65154,236.21324 537.93488,234.2172 540.23036,230.12487 541.55135,227.54059 545.67834,228.58968 545.604,231.49699 Z M 539.46002,226.646 C 539.50756,231.36225 531.7909,229.36621 534.08638,225.27388 535.40737,222.6896 539.53436,223.73869 539.46002,226.646 Z M 546.41303,221.795 C 546.46057,226.51125 538.74391,224.51521 541.03939,220.42288 542.36038,217.8386 546.48737,218.88769 546.41303,221.795 Z M 538.81299,218.23801 C 538.86053,222.95426 531.14387,220.95822 533.43935,216.86589 534.76034,214.28161 538.88733,215.3307 538.81299,218.23801 Z M 551.263,215.974 C 551.31054,220.69025 543.59388,218.69421 545.88936,214.60188 547.21035,212.0176 551.33734,213.06669 551.263,215.974 Z M 544.79602,211.93201 C 544.84356,216.64826 537.1269,214.65222 539.42238,210.55989 540.74337,207.97561 544.87036,209.0247 544.79602,211.93201 Z M 535.41699,211.285 C 535.46453,216.00125 527.74787,214.00521 530.04335,209.91288 531.36434,207.3286 535.49133,208.37769 535.41699,211.285 Z M 540.42999,204.655 C 540.47753,209.37125 532.76087,207.37521 535.05635,203.28288 536.37734,200.6986 540.50433,201.74769 540.42999,204.655 Z M 457.83203,50.552734 C 453.11662,50.505739 455.11224,58.222341 459.20406,55.926664 461.78738,54.605358 460.73888,50.479055 457.83203,50.552734 Z M 451.62305,58.210938 C 446.90764,58.163943 448.90326,65.880543 452.99508,63.584867 455.5784,62.263561 454.5299,58.137259 451.62305,58.210938 Z M 442.92969,64.523438 C 438.21438,64.476994 440.20984,72.191879 444.30196,69.898302 446.888,68.577823 445.83855,64.447753 442.92969,64.523438 Z M 448.82812,68.455078 C 444.11282,68.408647 446.10828,76.123505 450.20039,73.829948 452.78644,72.509473 451.73699,68.379383 448.82812,68.455078 Z M 439.20508,71.146484 C 434.48962,71.099544 436.48553,78.815993 440.57711,76.520414 443.16046,75.199169 442.1119,71.072771 439.20508,71.146484 Z M 430.30469,71.767578 C 425.58938,71.721134 427.58484,79.43602 431.67696,77.142443 434.263,75.821964 433.21355,71.691893 430.30469,71.767578 Z M 333.81836,72.388672 C 329.10305,72.342228 331.09851,80.057113 335.19063,77.763536 337.77667,76.443057 336.72722,72.312987 333.81836,72.388672 Z M 425.02734,76.113281 C 420.30935,76.064183 422.30566,83.784559 426.39937,81.487211 428.98272,80.165966 427.93416,76.039568 425.02734,76.113281 Z M 440.0332,78.597656 C 435.31776,78.550727 437.31366,86.267156 441.40523,83.971586 443.98858,82.650341 442.94002,78.523943 440.0332,78.597656 Z M 431.85742,79.529297 C 427.13948,79.480144 429.1355,87.200672 433.22945,84.903226 435.81277,83.58192 434.76427,79.455618 431.85742,79.529297 Z M 333.00977,81.080078 C 328.29436,81.03308 330.28998,88.74969 334.3818,86.454003 336.96511,85.132693 335.91661,81.006409 333.00977,81.080078 Z M 410.53906,81.908203 C 405.8236,81.861263 407.81951,89.577711 411.91109,87.282132 414.49444,85.960887 413.44588,81.83449 410.53906,81.908203 Z M 419.12891,82.841797 C 414.41349,82.794809 416.41017,90.509179 420.50094,88.213768 423.08434,86.892566 422.035,82.768215 419.12891,82.841797 Z M 426.47656,85.220703 C 421.75862,85.17155 423.75464,92.892078 427.84859,90.594632 430.43191,89.273326 429.38341,85.147024 426.47656,85.220703 Z M 340.69141,86.335938 C 335.97344,86.286782 337.97053,94.005098 342.06344,91.707909 344.64684,90.386707 343.5975,86.262356 340.69141,86.335938 Z M 434.13477,86.980469 C 429.4168,86.931313 431.41389,94.649629 435.5068,92.35244 438.0902,91.031238 437.04086,86.906887 434.13477,86.980469 Z M 329.77539,89.367188 C 325.06012,89.320689 327.0553,97.035726 331.14766,94.742052 333.73366,93.421511 332.68428,89.291537 329.77539,89.367188 Z M 420.06055,92.775391 C 415.34259,92.726249 417.33968,100.44454 421.43258,98.147367 424.016,96.826169 422.96665,92.701798 420.06055,92.775391 Z M 337.05273,94.015625 C 332.33474,93.966527 334.33105,101.6869 338.42476,99.389554 341.00811,98.068309 339.95955,93.941912 337.05273,94.015625 Z M 426.68359,95.568359 C 421.9656,95.519261 423.96191,103.23964 428.05562,100.94229 430.63897,99.621045 429.59041,95.494646 426.68359,95.568359 Z M 343.51953,98.664062 C 338.80426,98.617563 340.79945,106.3326 344.8918,104.03893 347.4778,102.71838 346.42842,98.588411 343.51953,98.664062 Z M 327.95703,99.271484 C 323.24161,99.224499 325.23829,106.93886 329.32906,104.64346 331.91248,103.32226 330.86313,99.197892 327.95703,99.271484 Z M 335.83984,104.72852 C 331.12443,104.68155 333.12111,112.39588 337.21187,110.10049 339.79529,108.77929 338.74594,104.65493 335.83984,104.72852 Z M 344.12695,108.16406 C 339.41154,108.11706 341.40716,115.83367 345.49898,113.53799 348.0823,112.21668 347.0338,108.09038 344.12695,108.16406 Z M 327.55273,108.36523 C 322.83729,108.3183 324.83319,116.03473 328.92476,113.73916 331.50811,112.41792 330.45955,108.29152 327.55273,108.36523 Z M 526.08789,108.45312 C 521.36995,108.40397 523.36597,116.1245 527.45992,113.82705 530.04324,112.50574 528.99474,108.37944 526.08789,108.45312 Z M 510.24023,113.14258 C 505.52493,113.09615 507.52039,120.81101 511.6125,118.51745 514.19855,117.19697 513.1491,113.06689 510.24023,113.14258 Z M 519.29688,113.62891 C 514.57891,113.57975 516.576,121.29806 520.66891,119.00088 523.25231,117.67967 522.20297,113.55533 519.29688,113.62891 Z M 337.25586,114.63281 C 332.5379,114.58367 334.53499,122.30196 338.62789,120.00479 341.21131,118.68359 340.16196,114.55922 337.25586,114.63281 Z M 496.82031,116.86133 C 492.10232,116.81223 494.09863,124.53261 498.19234,122.23526 500.77569,120.91402 499.72713,116.78762 496.82031,116.86133 Z M 504.09766,118.96484 C 499.3797,118.9157 501.37679,126.634 505.46969,124.33682 508.05309,123.01561 507.00375,118.89126 504.09766,118.96484 Z M 513.15234,121.22656 C 508.43435,121.17746 510.43066,128.89784 514.52437,126.60049 517.10772,125.27925 516.05916,121.15285 513.15234,121.22656 Z M 490.51367,122.03516 C 485.79836,121.98872 487.79382,129.7036 491.88594,127.41003 494.47198,126.08955 493.42253,121.95948 490.51367,122.03516 Z M 482.42969,125.10742 C 477.7117,125.05832 479.70801,132.7787 483.80172,130.48135 486.38507,129.16011 485.33651,125.03371 482.42969,125.10742 Z M 497.14453,125.59375 C 492.42657,125.54461 494.42366,133.2629 498.51656,130.96573 501.09998,129.64453 500.05063,125.52016 497.14453,125.59375 Z M 506.03711,127.37109 C 501.32165,127.32415 503.31756,135.0406 507.40914,132.74502 509.99249,131.42378 508.94393,127.29738 506.03711,127.37109 Z M 514.2832,128.82617 C 509.5679,128.77974 511.56336,136.4946 515.65547,134.20104 518.24151,132.88056 517.19206,128.75049 514.2832,128.82617 Z M 488.41211,129.79688 C 483.6967,129.74988 485.69232,137.46648 489.78414,135.1708 492.36746,133.84949 491.31896,129.7232 488.41211,129.79688 Z M 495.20312,133.35547 C 490.48771,133.3085 492.4844,141.02283 496.57515,138.72744 499.15857,137.40624 498.10922,133.28188 495.20312,133.35547 Z M 502.15625,134.9707 C 497.44084,134.9237 499.43646,142.64031 503.52828,140.34463 506.1116,139.02332 505.0631,134.89702 502.15625,134.9707 Z M 253.57617,149.19336 C 248.86086,149.14692 250.85632,156.8618 254.94844,154.56823 257.53448,153.24775 256.48503,149.11768 253.57617,149.19336 Z M 260.70117,152.15234 C 255.98586,152.1059 257.98132,159.82078 262.07344,157.52721 264.65948,156.20673 263.61003,152.07666 260.70117,152.15234 Z M 268.73633,155.76758 C 264.01834,155.71848 266.01465,163.43886 270.10836,161.14151 272.69171,159.82027 271.64315,155.69387 268.73633,155.76758 Z M 261.66211,160.31055 C 256.94665,160.26361 258.94256,167.98006 263.03414,165.68448 265.61749,164.36324 264.56893,160.23684 261.66211,160.31055 Z M 270.35352,163.94922 C 265.63556,163.90005 267.63159,171.62061 271.72555,169.32315 274.30886,168.00183 273.26036,163.87555 270.35352,163.94922 Z M 278.64062,163.94922 C 273.92268,163.90007 275.9187,171.6206 280.01265,169.32315 282.59597,168.00184 281.54747,163.87554 278.64062,163.94922 Z M 262.87305,169.81055 C 258.15774,169.76411 260.1532,177.47899 264.24532,175.18542 266.83136,173.86494 265.78191,169.73487 262.87305,169.81055 Z M 271.36328,173.65039 C 266.64782,173.60345 268.64373,181.3199 272.73531,179.02432 275.31866,177.70308 274.2701,173.57668 271.36328,173.65039 Z M 280.45898,174.25781 C 275.74357,174.21084 277.74025,181.92518 281.83101,179.62979 284.41443,178.30859 283.36508,174.18422 280.45898,174.25781 Z M 287.5332,178.30078 C 282.81779,178.25381 284.81447,185.96815 288.90523,183.67276 291.48865,182.35156 290.4393,178.22719 287.5332,178.30078 Z M 267.72461,180.72461 C 263.0093,180.67817 265.00476,188.39305 269.09688,186.09948 271.68292,184.779 270.63347,180.64893 267.72461,180.72461 Z M 278.64062,182.94727 C 273.92263,182.89817 275.91894,190.61855 280.01265,188.3212 282.596,186.99996 281.54744,182.87356 278.64062,182.94727 Z M 284.50195,189.21484 C 279.78399,189.1657 281.78108,196.88399 285.87398,194.58682 288.4574,193.26562 287.40805,189.14125 284.50195,189.21484 Z M 520.91699,327.95099 C 520.96453,332.66724 513.24787,330.6712 515.54335,326.57887 516.86434,323.99459 520.99133,325.04368 520.91699,327.95099 Z M 520.14099,334.80701 C 520.18853,339.52326 512.47187,337.52722 514.76735,333.43489 516.08834,330.85061 520.21533,331.8997 520.14099,334.80701 Z M 520.52899,344.76801 C 520.57653,349.48426 512.85987,347.48822 515.15535,343.39589 516.47634,340.81161 520.60333,341.8607 520.52899,344.76801 Z M 513.802,337.65302 C 513.84954,342.36927 506.13288,340.37323 508.42836,336.2809 509.74935,333.69662 513.87634,334.74571 513.802,337.65302 Z M 512.121,330.021 C 512.16854,334.73725 504.45188,332.74121 506.74736,328.64888 508.06835,326.0646 512.19534,327.11369 512.121,330.021 Z M 525.57398,320.707 C 525.62152,325.42325 517.90486,323.42721 520.20034,319.33488 521.52133,316.7506 525.64832,317.79969 525.57398,320.707 Z M 275.18601,305.08899 C 275.23355,309.80524 267.51689,307.8092 269.81237,303.71687 271.13336,301.13259 275.26035,302.18168 275.18601,305.08899 Z M 291.35501,307.10999 C 291.40255,311.82624 283.68589,309.8302 285.98137,305.73787 287.30236,303.15359 291.42935,304.20268 291.35501,307.10999 Z M 267.60599,306.35199 C 267.65353,311.06824 259.93687,309.0722 262.23235,304.97987 263.55334,302.39559 267.68033,303.44468 267.60599,306.35199 Z M 283.776,302.815 C 283.82354,307.53125 276.10688,305.53521 278.40236,301.44288 279.72335,298.8586 283.85034,299.90769 283.776,302.815 Z M 277.207,297.76199 C 277.25454,302.47824 269.53788,300.4822 271.83336,296.38987 273.15435,293.80559 277.28134,294.85468 277.207,297.76199 Z"
               id="circle900"
               inkscape:connector-curvature="0" /></g><g
             id="g19978"><path
               id="path19980"
               d="M 567.154,213.254 C 559.288,207.821 549.06,203.856 546.034,202.741 546.202,202.952 546.366,203.149 546.554,203.419 548.799,206.66 548.132,206.508 548.678,208.114 549.223,209.719 550.071,210.597 551.07,211.506 552.07,212.414 552.463,212.081 552.615,214.777 552.727,216.776 552.936,217.807 552.482,218.64 554.953,222.798 558.537,229.622 560.879,237.609 561.485,239.675 561.949,241.919 562.312,244.209 563.008,248.598 563.312,253.147 563.428,256.998 563.592,262.482 563.38,266.527 563.38,266.527 564.268,263.946 564.937,261.373 565.441,258.831 566.069,255.664 566.427,252.551 566.577,249.539 567.465,231.782 561.206,217.598 561.206,217.598 564.278,219.178 570.445,223.303 573.113,226.239 575.706,229.095 574.088,245.815 574.088,245.815 580.495,221.767 576.81,219.922 567.154,213.254"
               style="fill:#007935;fill-rule:nonzero"
               inkscape:connector-curvature="0" /></g><g
             id="g20022"><path
               id="path20024"
               d="M 568.207,212.551 C 553.902,203.248 544.082,201.145 544.082,201.145 L 544.084,201.15 C 544.64,201.345 545.247,201.756 546.034,202.741 549.06,203.856 559.288,207.821 567.154,213.254 576.81,219.922 580.495,221.767 574.088,245.815 574.088,245.815 575.706,229.095 573.113,226.239 570.445,223.303 564.278,219.178 561.206,217.598 561.206,217.598 567.465,231.782 566.577,249.539 566.427,252.551 566.069,255.664 565.441,258.831 564.937,261.373 564.268,263.946 563.38,266.527 563.38,266.527 563.592,262.482 563.428,256.998 563.312,253.147 563.008,248.598 562.312,244.209 561.949,241.919 561.485,239.675 560.879,237.609 558.537,229.622 554.953,222.798 552.482,218.64 552.324,218.93 552.088,219.197 551.736,219.471 551.595,219.581 551.473,219.681 551.357,219.779 552.692,221.825 553.894,224.077 555.115,226.846 556.252,227.177 556.108,228.097 556.048,229.054 556.999,231.385 557.984,234.05 559.08,237.213 559.29,237.82 559.481,238.476 559.662,239.161 560.863,243.715 561.437,249.853 561.683,255.767 562.094,265.687 561.587,274.953 561.587,274.953 564.069,269.161 565.644,264.17 566.641,259.783 567.364,256.599 567.789,253.728 567.992,251.143 568.483,244.877 567.772,240.191 567.417,236.248 566.715,228.437 563.38,219.924 563.38,219.924 L 568.559,223.61 C 573.737,227.296 573.122,228.788 573.386,232.199 573.649,235.61 573.21,252.309 573.21,252.309 581.109,226.331 582.513,221.855 568.207,212.551"
               style="fill:#62a70f;fill-rule:nonzero"
               inkscape:connector-curvature="0" /></g></g></g></g></g></svg>