<?xml version="1.0" encoding="UTF-8" standalone="no"?>
<svg
   xmlns:dc="http://purl.org/dc/elements/1.1/"
   xmlns:cc="http://creativecommons.org/ns#"
   xmlns:rdf="http://www.w3.org/1999/02/22-rdf-syntax-ns#"
   xmlns:svg="http://www.w3.org/2000/svg"
   xmlns="http://www.w3.org/2000/svg"
   xmlns:sodipodi="http://sodipodi.sourceforge.net/DTD/sodipodi-0.dtd"
   xmlns:inkscape="http://www.inkscape.org/namespaces/inkscape"
   viewBox="0 0 1440 960"
   version="1.1"
   id="svg945"
   sodipodi:docname="ic_flag_ec_128.svg"
   inkscape:version="0.92.1 r15371">
  <metadata
     id="metadata949">
    <rdf:RDF>
      <cc:Work
         rdf:about="">
        <dc:format>image/svg+xml</dc:format>
        <dc:type
           rdf:resource="http://purl.org/dc/dcmitype/StillImage" />
        <dc:title></dc:title>
      </cc:Work>
    </rdf:RDF>
  </metadata>
  <sodipodi:namedview
     pagecolor="#ffffff"
     bordercolor="#666666"
     borderopacity="1"
     objecttolerance="10"
     gridtolerance="10"
     guidetolerance="10"
     inkscape:pageopacity="0"
     inkscape:pageshadow="2"
     inkscape:window-width="1418"
     inkscape:window-height="1132"
     id="namedview947"
     showgrid="false"
     inkscape:zoom="0.35"
     inkscape:cx="238.80992"
     inkscape:cy="275.58135"
     inkscape:window-x="120"
     inkscape:window-y="129"
     inkscape:window-maximized="0"
     inkscape:current-layer="svg945"
     inkscape:pagecheckerboard="true" />
  <defs
     id="defs24">
    <linearGradient
       id="d"
       y2="277.58"
       gradientUnits="userSpaceOnUse"
       x2="601.38"
       gradientTransform="matrix(1.14637,0,0,1.17117,333.18,882.14)"
       y1="342.3"
       x1="597.92">
      <stop
         stop-color="#fff"
         offset="0"
         id="stop2" />
      <stop
         stop-color="#1ea8d1"
         offset="1"
         id="stop4" />
    </linearGradient>
    <linearGradient
       id="e"
       y2="399.5"
       gradientUnits="userSpaceOnUse"
       x2="600.31"
       gradientTransform="matrix(1.14637,0,0,1.17117,333.18,882.14)"
       y1="326.43"
       x1="599.96">
      <stop
         stop-color="#FFF"
         offset="0"
         id="stop7" />
      <stop
         stop-color="#c1d3e8"
         offset=".13"
         id="stop9" />
      <stop
         stop-color="#88b0d5"
         offset=".3"
         id="stop11" />
      <stop
         stop-color="#5998c6"
         offset=".46"
         id="stop13" />
      <stop
         stop-color="#2c87bc"
         offset=".62"
         id="stop15" />
      <stop
         stop-color="#007db5"
         offset=".76"
         id="stop17" />
      <stop
         stop-color="#0077b0"
         offset=".9"
         id="stop19" />
      <stop
         stop-color="#0075af"
         offset="1"
         id="stop21" />
    </linearGradient>
  </defs>
  <path
     d="M0 0h1440v960H0z"
     id="path26"
     fill="#ed1c24" />
  <path
     fill="#034ea2"
     d="M0 0h1440v720H0z"
     id="path28" />
  <path
     fill="#fd0"
     d="M0 0h1440v480H0z"
     id="path30" />
  <g
     style="fill:#99afca"
     id="g445" />
  <g
     style="fill:#4f91c5"
     id="g459" />
  <g
     id="g739"
     style="fill:#000000;stroke:none" />
  <g
     id="g5398"
     transform="translate(0,-800)">
    <g
       id="g5074">
      <path
         id="path5652"
         style="fill:#ebc900;stroke:#000000;stroke-width:0.99999994;stroke-miterlimit:4;stroke-dasharray:none"
         d="m 742.98628,1476.4854 c 0.48147,-0.3514 0.13756,-2.2476 8.50606,0.165 1.86859,8.5613 4.06962,22.0755 4.06962,22.0755 -0.0344,-4.3568 -8.94169,-13.3279 -11.53249,-17.3919 -1.29539,-2.0496 -1.65077,-3.818 -1.04319,-4.8486 z m -50.79256,0 c -0.48147,-0.3514 0.11498,-2.6265 -8.25352,-0.2139 -1.86859,8.5613 -4.32216,22.4544 -4.32216,22.4544 0.0344,-4.3568 8.94169,-13.3279 11.53249,-17.3919 1.29539,-2.0496 1.65077,-3.818 1.04319,-4.8486 z"
         inkscape:connector-curvature="0" />
      <path
         id="path5654"
         style="fill:#023f88;stroke:#000000;stroke-width:1;stroke-miterlimit:4;stroke-dasharray:none"
         d="m 730.57109,1502.5907 -0.58465,-2.354 c 1.08905,-2.4946 2.9691,-2.1081 6.83237,-1.1595 0.20634,5.1766 0.45855,10.927 0.77953,14.8505 -0.40123,-1.6982 -1.66224,-3.8298 -4.25303,-6.3712 0,0 -1.94883,-1.6748 -2.77422,-4.9658 z m -25.96218,0 0.58465,-2.354 c -1.08905,-2.4946 -2.9691,-2.1081 -6.83237,-1.1595 -0.20634,5.1766 -0.45855,10.927 -0.77953,14.8505 0.40123,-1.6982 1.66224,-3.8298 4.25303,-6.3712 0,0 1.94883,-1.6748 2.77422,-4.9658 z"
         inkscape:connector-curvature="0" />
      <path
         id="path5646"
         style="fill:#ffdd00;stroke:#000000;stroke-width:0.99999994;stroke-miterlimit:4;stroke-dasharray:none"
         d="m 755.18365,1432.0277 c 0,0 22.89301,31.0126 23.45474,37.4892 0.55025,6.4766 0.55025,11.8288 -14.62769,9.5802 -5.40517,-0.039 -17.87493,-4.8575 -21.5059,-2.0145 -0.53879,-2.3657 -1.83419,-8.0342 -3.39325,-14.6396 -3.0952,-13.0468 -7.19921,-29.7243 -8.42582,-31.4693 5.66496,-2.7762 17.43833,0.1821 24.49792,1.054 z m -98.64204,37.4892 c -0.55025,6.4766 -0.55025,11.8288 14.62769,9.5802 5.40517,-0.039 17.87493,-4.8575 21.5059,-2.0145 0.53879,-2.3657 1.83419,-8.0342 3.39325,-14.6396 3.0952,-13.0468 7.19921,-29.7243 8.42582,-31.4693 -23.14397,-2.1287 -44.1346,20.6697 -47.95266,38.5432 z"
         inkscape:connector-curvature="0"
         sodipodi:nodetypes="ccccccccccccc" />
      <path
         id="path5648"
         style="fill:#ed1c24;stroke:#000000;stroke-width:0.99999994;stroke-miterlimit:4;stroke-dasharray:none"
         d="m 724.57558,1440.0067 c 0.18342,3.5369 2.52201,29.721 4.104,45.8129 l 1.21515,12.3675 c -0.32098,4.9424 3.50789,9.3694 3.50789,9.3694 2.55641,2.5531 3.81742,4.6495 4.21865,6.3477 l 0.1261,1.4523 c -0.0115,0.1991 -0.0459,0.3982 -0.0803,0.5856 -0.65343,2.9747 -4.63133,4.0756 -7.30238,3.7477 -4.41352,-0.5739 -12.69031,-5.973 -12.69031,-5.973 l 0.0252,-74.5125 z m -13.84489,0.2525 c -0.18342,3.5369 -2.64828,29.4685 -4.23027,45.5604 l -1.21515,12.3675 c 0.32098,4.9424 -3.50789,9.3694 -3.50789,9.3694 -2.55641,2.5531 -3.81742,4.6495 -4.21865,6.3477 l -0.1261,1.4523 c 0.0115,0.1991 0.0459,0.3982 0.0802,0.5856 0.65343,2.9747 4.63133,4.0756 7.30238,3.7477 4.41352,-0.5739 12.69031,-5.973 12.69031,-5.973 l 0.19404,-74.5125 z"
         inkscape:connector-curvature="0"
         sodipodi:nodetypes="cccccccccccccccccccccc" />
      <path
         id="path5650"
         style="fill:#034ea2;stroke:#000000;stroke-width:0.99999994;stroke-linecap:round;stroke-miterlimit:4;stroke-dasharray:none"
         d="m 733.28573,1439.3703 c 0,0 2.7421,10.0139 5.82584,23.0841 1.55906,6.5937 3.46203,14.464 4.00083,16.8297 0.65343,1.464 12.23177,15.0379 12.44958,19.4415 0.0917,1.7919 -1.32979,2.881 -5.33062,2.6351 -6.11016,-0.3748 -10.37465,-1.5225 -13.40107,-2.2838 -3.80595,-0.9603 -5.66307,-1.3351 -6.74065,1.1595 l -0.20635,-2.0496 c -0.22928,-2.4594 -0.68782,-6.945 -1.20369,-12.3675 -1.58199,-16.0919 -3.9206,-42.2757 -4.10402,-45.8126 z m -31.95967,0.063 c 0,0 -2.17389,9.9508 -5.25763,23.021 -1.55906,6.5937 -3.46203,14.464 -4.00083,16.8297 -0.65343,1.464 -12.23177,15.0379 -12.44958,19.4415 -0.0917,1.7919 1.32979,2.881 5.33062,2.6351 6.11016,-0.3748 10.37465,-1.5225 13.40107,-2.2838 3.80595,-0.9603 5.66307,-1.3351 6.74065,1.1595 l 0.20635,-2.0496 c 0.22927,-2.4594 0.68782,-6.945 1.20369,-12.3675 1.58199,-16.0919 4.04687,-42.0232 4.23029,-45.5601 z"
         inkscape:connector-curvature="0"
         sodipodi:nodetypes="cccccccccccccccccccccc" />
    </g>
    <path
       d="m 805.46876,1437.8359 -3.67969,4.4278 42.96485,41.7519 1.99609,0.1055 c 0,0 2.22274,4.2634 2.31445,7.0273 1.75395,0.1874 8.72379,2.8455 12.98828,5.7618 -3.65692,-3.0217 -6.75195,-12.8829 -6.75195,-12.8829 -3.41618,-0.2342 -6.54492,-1.8964 -6.54492,-1.8964 l -0.0566,-2.4121 z m -170.93751,0 -43.23047,41.8829 c -0.11091,0.8133 -0.12903,1.6054 -0.0566,2.4121 0,0 -3.12874,1.6622 -6.54492,1.8964 0,0 -3.09503,9.8612 -6.75195,12.8829 4.26449,-2.9163 11.23433,-5.5744 12.98828,-5.7618 0.0917,-2.7639 0.58343,-6.0084 2.31445,-7.0273 0.6528,-0.1669 1.32828,-0.1055 1.99609,-0.1055 l 42.96485,-41.7519 z m 229.36128,-22.1465 -3.66797,4.4278 23.24805,22.2871 c 0.67501,-0.051 1.33341,0.01 1.99414,0.094 1.73102,1.0189 2.22469,4.2751 2.3164,7.0273 1.75395,0.1874 8.72379,2.8455 12.98828,5.7618 -3.65692,-3.0217 -6.75195,-12.8828 -6.75195,-12.8828 -3.41618,-0.2343 -6.54687,-1.8965 -6.54687,-1.8965 0.0975,-0.7384 0.004,-1.5639 -0.0566,-2.3907 z m -288.75386,0 -23.52344,22.4278 c -0.1084,0.8063 -0.13243,1.5915 -0.0586,2.3906 0,0 -3.12874,1.6623 -6.54492,1.8965 0,0 -3.09503,9.8612 -6.75195,12.8828 4.26449,-2.9162 11.23433,-5.5743 12.98828,-5.7617 0.0917,-2.7523 0.58343,-6.0084 2.31445,-7.0273 0.6552,-0.1489 1.32901,-0.094 1.99609,-0.094 l 23.24805,-22.2871 z"
       style="fill:#b1babf;stroke:#000000;stroke-width:1;stroke-miterlimit:4;stroke-dasharray:none"
       id="path5426"
       inkscape:connector-curvature="0" />
    <path
       style="fill:#b1babf;stroke:#000000;stroke-width:1;stroke-miterlimit:4;stroke-dasharray:none"
       d="m 562.40234,1115.4258 c 3.39326,5.5045 6.41815,14.4994 6.60157,16.748 3.27861,0.1757 7.13199,0.8783 8.32421,3.1153 l 0.19532,0.5371 c -3.95146,3.0628 -9.39717,3.7759 -14.59375,1.6406 l 0.28515,0.1992 c 0.43562,0.2928 0.88325,0.5861 1.3418,0.8438 5.81196,3.3528 12.07605,3.4304 16.34766,0.75 l 10.54297,10.6445 0.53125,-3.4902 -9.07227,-8.7657 c 0.8695,-0.8937 1.60092,-1.9409 2.13672,-3.1562 1.83419,-4.1577 1.08952,-9.2292 -1.55859,-13.6445 a 2.29274,2.34234 0 0 0 -0.49415,-0.5391 c 0.55026,3.3495 0.22916,6.8046 -1.14648,9.9082 a 14.558899,14.873859 0 0 1 -1.67773,2.8574 c -0.18554,-0.1394 -0.42729,-0.303 -0.43164,-0.3164 0,0 -1.92452,-4.0397 -2.13086,-8.4316 0,0 -11.67036,-4.1572 -15.20118,-8.9004 z"
       id="path40"
       inkscape:connector-curvature="0" />
    <path
       d="m 646.46502,1201.2136 -58.32057,-59.5837"
       id="path48"
       inkscape:connector-curvature="0"
       style="fill:none;stroke:#000000;stroke-width:1.99999988;stroke-miterlimit:4;stroke-dasharray:none"
       sodipodi:nodetypes="cc" />
    <path
       d="m 820.78861,1172.5433 -8.39143,8.4324 c 15.28111,-15.6351 33.16448,-33.9639 42.24373,-43.3567 1.6737,-1.7333 2.06347,37.3603 1.88005,80.9513 l -35.29673,35.6504 c -0.27513,-27.4288 -0.43562,-81.6774 -0.43562,-81.6774 z m -202.54722,0 8.39143,8.4324 c -15.28111,-15.6351 -33.16448,-33.9639 -42.24373,-43.3567 -1.6737,-1.7333 -2.06347,37.3603 -1.88005,80.9513 l 35.29673,35.6504 c 0.27513,-27.4288 0.43562,-81.6774 0.43562,-81.6774 z"
       style="fill:#ffdd00;stroke:#000000;stroke-width:0.99999994;stroke-miterlimit:4;stroke-dasharray:none"
       id="path5494"
       inkscape:connector-curvature="0" />
    <path
       d="m 589.11213,1143.8731 -2.98056,-3.1036 c -0.22927,0.7027 -0.57319,1.8973 -1.14637,3.9937 0.50331,13.3879 -2.21836,26.5524 -2.91178,39.8197 l -0.0229,0.1874 c -0.0344,3.5721 1.28394,7.964 1.28394,7.964 0,0 2.09785,1.1009 2.45323,0.1405 1.82015,-16.6393 1.27299,-34.801 3.32447,-49.0017 z"
       id="path52"
       inkscape:connector-curvature="0"
       style="fill:#ed1c24;stroke:#000000;stroke-width:1;stroke-miterlimit:4;stroke-dasharray:none"
       sodipodi:nodetypes="cccccccc" />
    <path
       d="m 583.50638,1137.5019 c -2.74902,13.8181 -5.17496,31.216 -5.68599,45.5351 -0.0459,1.5225 0.33244,1.3586 0.67636,2.2604 0,0 2.26981,1.4522 3.55374,-0.5271 l 0.0229,-0.1874 c 3.55078,-12.173 0.29509,-28.4642 2.91178,-39.808 0.57318,-2.1081 0.9171,-3.3144 1.14637,-4.0054 0.22927,-0.7847 0.30952,-0.9253 0.30952,-0.9253 z"
       id="path54"
       inkscape:connector-curvature="0"
       style="fill:#034ea2;stroke:#000000;stroke-width:1;stroke-miterlimit:4;stroke-dasharray:none"
       sodipodi:nodetypes="ccccccccc" />
    <path
       style="fill:#ed1c24;stroke:#000000;stroke-width:1;stroke-miterlimit:4;stroke-dasharray:none"
       d="m 594.17578,1135.6641 c -0.64143,0 -1.27763,0.098 -1.77344,0.2675 -2.96553,0.7817 -5.96482,1.423 -8.98828,1.9219 0.004,10e-5 0.008,-10e-5 0.0117,0 l 0.19531,0.3867 c 0.88271,1.6397 4.51693,7.7877 8.70118,5.5391 1.73187,-1.0913 2.77581,-2.7444 4.05859,-4.3223 1.68516,-2.8459 -0.28079,-3.7863 -2.20508,-3.7929 z"
       id="path56"
       inkscape:connector-curvature="0"
       sodipodi:nodetypes="cccccccc" />
    <path
       style="fill:#034ea2;stroke:#000000;stroke-width:1;stroke-miterlimit:4;stroke-dasharray:none"
       d="m 589.35352,1128.9648 c -5.07842,0.8667 -5.72054,7.1671 -5.80079,8.8301 l -0.0117,0.3985 c 4.67855,-4.0708 7.27046,-4.9188 8.69921,-4.4473 -1.45891,0.2871 -8.19531,4.1074 -8.19531,4.1074 3.55375,0.2694 2.4888,0.6798 6.11133,0.7735 4.31857,-0.2849 4.58231,-1.2227 5.45508,-5.5879 -0.82459,-2.9981 -3.41792,-4.3771 -6.25781,-4.0743 z"
       id="path60"
       inkscape:connector-curvature="0"
       sodipodi:nodetypes="ccccccccc" />
    <ellipse
       ry="2.4477451"
       rx="2.3959131"
       cx="580.02142"
       cy="1183.7865"
       id="circle68"
       style="fill:#e8b909;stroke:#000000;stroke-width:1;stroke-miterlimit:4;stroke-dasharray:none" />
    <path
       d="m 583.01344,1198.0045 c -3.39325,-0.1288 -5.2733,-0.3279 -7.48579,-0.4684 0.28659,-4.7784 0.68782,-11.4189 4.42499,-11.1847 3.70277,0.2342 3.3474,6.8631 3.0608,11.6531 z"
       id="path70"
       inkscape:connector-curvature="0"
       style="fill:#e8b909;stroke:#000000;stroke-width:1;stroke-miterlimit:4;stroke-dasharray:none" />
    <ellipse
       ry="2.4477451"
       rx="2.3959131"
       cx="584.24005"
       cy="1190.6964"
       id="circle74"
       style="fill:#e8b909;stroke:#000000;stroke-width:0.53300369" />
    <path
       d="m 588.06893,1204.7036 c -3.40471,0.082 -5.29622,0 -7.49726,0 0,-4.8018 0,-11.4423 3.74863,-11.4423 3.71424,0 3.74863,6.6523 3.74863,11.4423 z"
       id="path76"
       inkscape:connector-curvature="0"
       style="fill:#e8b909;stroke:#000000;stroke-width:1;stroke-miterlimit:4;stroke-dasharray:none" />
    <path
       style="fill:#b1babf;stroke:#000000;stroke-width:1;stroke-miterlimit:4;stroke-dasharray:none"
       d="m 876.62886,1115.4258 c -3.53082,4.7432 -15.20118,8.9004 -15.20118,8.9004 -0.20634,4.3919 -2.13281,8.4316 -2.13281,8.4316 -0.004,0.012 -0.26707,0.1597 -0.46094,0.2774 -0.64959,-0.8745 -1.20244,-1.8197 -1.64843,-2.8184 -1.37565,-3.1036 -1.69675,-6.5587 -1.14649,-9.9082 -0.19088,0.152 -0.357,0.334 -0.49218,0.5391 -2.64812,4.4153 -3.39279,9.4868 -1.5586,13.6445 0.53594,1.2156 1.2669,2.2624 2.13672,3.1562 l -5.1437,4.9264 2.49805,1.0781 4.61831,-4.4107 c 4.27216,2.6984 10.55034,2.6278 16.375,-0.7324 0.45854,-0.2577 0.90617,-0.551 1.34179,-0.8438 l 0.28711,-0.1992 c -5.19942,2.1364 -10.64958,1.4206 -14.60156,-1.6465 l 0.20312,-0.5312 c 1.19223,-2.237 5.04365,-2.9396 8.32227,-3.1153 0.18342,-2.2486 3.21026,-11.2435 6.60352,-16.748 z"
       id="path5488"
       inkscape:connector-curvature="0"
       sodipodi:nodetypes="ccccccccccccccccccc" />
    <path
       d="m 821.23569,1254.2207 -12.70178,12.8243 -5.96112,-14.6747 -1.13491,-9.0063 c 0.89417,-25.7892 0.43562,-51.1333 0.43562,-51.1333 l -3.73716,3.3261 14.26084,-14.5811 8.40289,-8.4324 c 0,0 0.16049,54.2486 0.43562,81.6774 z m -203.44138,0 12.70178,12.8243 5.96112,-14.6747 1.13491,-9.0063 c -0.89417,-25.7892 -0.43562,-51.1333 -0.43562,-51.1333 l 3.73716,3.3261 -14.26084,-14.5811 -8.40289,-8.4324 c 0,0 -0.16049,54.2486 -0.43562,81.6774 z"
       style="fill:#034ea2;stroke:#000000;stroke-width:0.99999994;stroke-miterlimit:4;stroke-dasharray:none"
       id="path5490"
       inkscape:connector-curvature="0" />
    <path
       d="m 801.43788,1243.364 -12.61007,-38.2973 13.04569,-12.836 c 0,0 0.45855,25.3441 -0.43562,51.1333 z m -163.84576,0 12.61007,-38.2973 -13.04569,-12.836 c 0,0 -0.45855,25.3441 0.43562,51.1333 z"
       style="fill:#ed1c24;stroke:#000000;stroke-width:0.99999994;stroke-miterlimit:4;stroke-dasharray:none"
       id="path5492"
       inkscape:connector-curvature="0" />
    <path
       id="path5496"
       d="m 792.56498,1201.2136 56.40093,-57.664"
       inkscape:connector-curvature="0"
       style="fill:none;stroke:#000000;stroke-width:1.99999988;stroke-miterlimit:4;stroke-dasharray:none"
       sodipodi:nodetypes="cc" />
    <g
       id="g5144">
      <path
         style="fill:#009c4f;stroke:#000000;stroke-width:1;stroke-miterlimit:4;stroke-dasharray:none"
         d="m 843.30822,1232.6595 c -0.87125,-13.3865 -6.92408,-66.4405 -18.73169,-83.5279 0,0 11.4637,16.5604 12.72471,89.9459 z"
         id="path255"
         inkscape:connector-curvature="0" />
      <path
         style="fill:#009c4f;stroke:#000000;stroke-width:1;stroke-miterlimit:4;stroke-dasharray:none"
         d="m 841.55427,1224.7541 c -6.4426,-41.8694 -28.75096,-78.4918 -28.75096,-78.4918 8.42582,17.7198 23.21399,63.0558 27.10019,90.7071 l 2.67104,-2.6117 z"
         id="path257"
         inkscape:connector-curvature="0" />
      <path
         style="fill:#009c4f;stroke:#000000;stroke-width:1;stroke-miterlimit:4;stroke-dasharray:none"
         d="m 806.37217,1148.3938 c 18.88072,34.9477 26.6875,85.7999 27.87972,94.2206 l 6.63748,-6.5117 c -6.13307,-39.3981 -34.5172,-87.7089 -34.5172,-87.7089"
         id="path259"
         inkscape:connector-curvature="0" />
      <path
         style="fill:#009c4f;stroke:#000000;stroke-width:1;stroke-miterlimit:4;stroke-dasharray:none"
         d="m 795.28678,1144.9271 c 3.2213,5.5514 17.65409,34.6432 23.51204,51.4612 4.75744,13.6207 9.57219,38.4027 11.70444,50.0441 l 8.17362,-8.0225 c -7.52019,-36.2126 -38.80462,-86.3035 -43.37864,-93.4828"
         id="path261"
         inkscape:connector-curvature="0" />
      <path
         style="fill:#009c4f;stroke:#000000;stroke-width:1;stroke-miterlimit:4;stroke-dasharray:none"
         d="m 783.55941,1141.4253 c 0,0 24.08523,37.8991 31.49078,63.7585 2.3386,8.1865 9.34292,32.8162 11.99104,44.4225 l 9.42316,-7.6712 c -7.46287,-22.2873 -30.83736,-78.7026 -52.90498,-100.5098"
         id="path263"
         inkscape:connector-curvature="0" />
      <path
         style="fill:#009c4f;stroke:#000000;stroke-width:1;stroke-miterlimit:4;stroke-dasharray:none"
         d="m 783.83454,1163.2559 c 12.52982,17.1577 33.93255,57.727 39.73318,90.1099 l 10.8332,-10.646 c -9.34292,-25.9414 -39.43513,-65.3864 -50.56638,-79.4639"
         id="path265"
         inkscape:connector-curvature="0" />
      <path
         style="fill:#009c4f;stroke:#000000;stroke-width:1;stroke-miterlimit:4;stroke-dasharray:none"
         d="m 792.04255,1187.3703 c 14.94866,20.0387 26.38944,53.5576 27.22629,69.1225 l 9.26267,-7.6595 c -9.43463,-25.7891 -36.48896,-61.463 -36.48896,-61.463"
         id="path267"
         inkscape:connector-curvature="0" />
    </g>
    <path
       id="path5500"
       d="m 849.91787,1143.8731 2.98056,-3.1036 c 0.22927,0.7027 0.57319,1.8973 1.14637,3.9937 -2.26131,17.9586 6.13892,31.4452 1.65077,47.9711 0,0 -2.09785,1.1009 -2.45323,0.1405 -2.94146,-16.7202 -1.45512,-35.5622 -3.32447,-49.0017 z"
       inkscape:connector-curvature="0"
       style="fill:#ed1c24;stroke:#000000;stroke-width:1;stroke-miterlimit:4;stroke-dasharray:none"
       sodipodi:nodetypes="cccccc" />
    <path
       id="path5502"
       d="m 855.52362,1137.5019 c 2.74902,13.8181 4.66988,31.3423 5.18091,45.6614 0.0459,1.5225 -0.33244,1.3586 -0.67636,2.2604 -3.89483,0.018 -7.19578,-36.8439 -5.98337,-40.6488 -0.57318,-2.1081 -0.9171,-3.3144 -1.14637,-4.0054 -0.22927,-0.7847 -0.30952,-0.9253 -0.30952,-0.9253 z"
       inkscape:connector-curvature="0"
       style="fill:#034ea2;stroke:#000000;stroke-width:1;stroke-miterlimit:4;stroke-dasharray:none"
       sodipodi:nodetypes="ccccccc" />
    <path
       style="fill:#ed1c24;stroke:#000000;stroke-width:1;stroke-miterlimit:4;stroke-dasharray:none"
       d="m 844.85347,1135.6641 c -0.99166,-0.028 -2.1414,0.2497 -2.68204,1.1819 -0.43195,1.2121 0.25229,2.4864 1.07467,3.338 1.18886,1.4638 2.31823,3.1501 4.11046,3.8877 1.55661,0.5451 3.26384,-0.1282 4.46048,-1.1773 1.5593,-1.2991 2.69177,-3.0353 3.67729,-4.8059 -0.30356,-0.6866 -1.2072,-0.3144 -1.75332,-0.6316 -2.8001,-0.5928 -5.59048,-1.2348 -8.40107,-1.775 -0.16188,-0.012 -0.32424,-0.018 -0.48647,-0.018 z"
       id="path5504"
       inkscape:connector-curvature="0" />
    <path
       style="fill:#034ea2;stroke:#000000;stroke-width:1;stroke-miterlimit:4;stroke-dasharray:none"
       d="m 848.85151,1128.877 c -1.50515,-0.062 -4.6168,0.2972 -5.43359,4.1621 1.81932,3.195 0.70615,5.6639 5.45703,5.5879 3.62253,-0.094 2.55563,-0.5041 6.10938,-0.7735 0,0 -6.74074,-3.8235 -8.19532,-4.1074 1.42856,-0.4722 4.0197,0.3756 8.69922,4.4473 l -0.01,-0.3985 c -0.0802,-1.663 -0.72237,-7.9634 -5.80079,-8.8301 0,0 -0.32445,-0.067 -0.82617,-0.088 z"
       id="path5508"
       inkscape:connector-curvature="0"
       sodipodi:nodetypes="ccccccccc" />
    <path
       id="path5518"
       d="m 856.2691,1197.0575 c 3.39325,-0.1288 5.2733,-0.3279 7.48579,-0.4684 -0.28659,-4.7784 -0.68782,-11.4189 -4.42499,-11.1847 -3.70277,0.2342 -3.3474,6.8631 -3.0608,11.6531 z"
       inkscape:connector-curvature="0"
       style="fill:#e8b909;stroke:#000000;stroke-width:1;stroke-miterlimit:4;stroke-dasharray:none" />
    <ellipse
       ry="2.4477451"
       rx="2.3959131"
       transform="scale(-1,1)"
       id="circle5516"
       cy="1183.7865"
       cx="-859.00861"
       style="fill:#e8b909;stroke:#000000;stroke-width:1;stroke-miterlimit:4;stroke-dasharray:none" />
    <path
       id="path5524"
       d="m 850.96107,1203.6934 c 3.40471,0.082 5.29622,0 7.49725,0 0,-4.8018 0,-11.4423 -3.74862,-11.4423 -3.71424,0 -3.74863,6.6523 -3.74863,11.4423 z"
       inkscape:connector-curvature="0"
       style="fill:#e8b909;stroke:#000000;stroke-width:1;stroke-miterlimit:4;stroke-dasharray:none" />
    <path
       id="path5440"
       d="m 810.31783,1266.354 68.72489,-70.4341"
       inkscape:connector-curvature="0"
       style="fill:none;stroke:#000000;stroke-width:1.99999988;stroke-miterlimit:4;stroke-dasharray:none;stroke-opacity:1"
       sodipodi:nodetypes="cc" />
    <ellipse
       ry="2.4477451"
       rx="2.3959131"
       transform="scale(-1,1)"
       id="circle5522"
       cy="1190.6964"
       cx="-854.78992"
       style="fill:#e8b909;stroke:#000000;stroke-width:1;stroke-miterlimit:4;stroke-dasharray:none" />
    <g
       id="g5207">
      <path
         style="fill:#39b54a;stroke:#000000;stroke-width:1;stroke-miterlimit:4;stroke-dasharray:none"
         inkscape:connector-curvature="0"
         id="path105"
         d="m 600.89682,1229.0171 c 1.16929,-1.4405 1.47881,-3.9937 2.48762,-5.6919 1.27247,-2.1081 3.41618,-4.2162 5.69746,-5.036 a 28.154847,28.763935 0 0 1 8.47167,-1.6865 c 2.78568,-0.1171 6.01844,1.1244 8.39143,0.8901 -4.88354,1.827 -10.87905,2.0496 -15.37282,4.9072 -2.93471,1.8505 -5.88088,4.9658 -8.20801,7.5541 -1.94883,2.1549 -2.44177,4.5675 -3.51936,7.1441" />
      <path
         style="fill:#39b54a;stroke:#000000;stroke-width:1;stroke-miterlimit:4;stroke-dasharray:none"
         inkscape:connector-curvature="0"
         id="path115"
         d="m 634.70327,1179.664 c 2.00614,-2.7874 4.37913,-4.7901 7.0731,-6.945 1.78834,-1.4523 3.17544,-3.4081 5.34208,-4.3099 5.74332,-2.4009 12.09421,2.2252 17.98655,2.1198 -2.55641,1.136 -4.80329,2.7757 -7.56604,3.4901 -2.75129,0.7144 -5.46819,1.136 -8.33411,1.1594 -5.05549,0.047 -11.7503,0.1172 -14.65061,5.2352" />
      <path
         style="fill:#39b54a;stroke:#000000;stroke-width:1;stroke-miterlimit:4;stroke-dasharray:none"
         inkscape:connector-curvature="0"
         id="path137"
         d="m 622.60906,1175.1433 c 0,0 3.70278,-8.5964 4.49377,-9.3459 0.77953,-0.7496 10.86759,-2.6117 15.65942,-18.0243 0,0 0.91709,-5.528 2.23542,-6.3126 0,0 -12.24323,8.7603 -14.53597,12.0864 -2.29274,3.3262 -4.28743,9.6622 -4.63134,11.2784 -0.34391,1.6045 -1.6737,5.7504 -1.6737,5.7504" />
      <path
         style="fill:#39b54a;stroke:#000000;stroke-width:1;stroke-miterlimit:4;stroke-dasharray:none"
         inkscape:connector-curvature="0"
         id="path143"
         d="m 602.85711,1180.8001 c 0,0 0.57318,-5.3406 0.33245,-5.9262 -0.25221,-0.5855 -6.07577,-4.2162 -3.85181,-13.2927 0,0 1.30686,-3.0451 0.73368,-3.7946 0,0 4.83768,7.6828 5.15866,9.9901 0.32099,2.3072 -0.57318,6.0315 -0.89416,6.9333 -0.33245,0.9135 -0.90564,3.3612 -0.90564,3.3612" />
      <path
         style="fill:#39b54a;stroke:#000000;stroke-width:1;stroke-miterlimit:4;stroke-dasharray:none"
         inkscape:connector-curvature="0"
         id="path149"
         d="m 602.28392,1204.4811 c 0,0 0.57319,-10.9856 1.03174,-12.145 0.47001,-1.1595 8.8729,-7.5775 8.25386,-26.4685 0,0 -0.94002,-6.418 -0.0115,-7.8468 0,0 -8.13923,14.8622 -9.12511,19.4883 -0.98588,4.6261 -0.74514,12.4027 -0.55026,14.3117 0.19489,1.909 0.33245,7.0036 0.33245,7.0036" />
      <path
         style="fill:#39b54a;stroke:#000000;stroke-width:1;stroke-miterlimit:4;stroke-dasharray:none"
         inkscape:connector-curvature="0"
         id="path173"
         d="m 622.11612,1177.4271 c 4.27596,-2.1432 5.39941,-7.1207 9.40024,-9.5333 2.60226,-1.5577 5.67453,-2.0027 8.59777,-2.5766 2.06347,-0.3982 4.84915,-0.773 6.07576,-2.7757 -1.83419,2.2838 -3.9779,4.0523 -6.04137,6.0667 -2.1781,2.1081 -4.01229,3.8883 -7.01578,4.7901 -2.29274,0.6792 -4.66573,0.4333 -6.91261,1.2297 -1.86858,0.6559 -2.9691,2.2135 -4.53963,3.3964 z" />
      <path
         style="fill:#39b54a;stroke:#000000;stroke-width:1;stroke-miterlimit:4;stroke-dasharray:none"
         inkscape:connector-curvature="0"
         id="path235"
         d="m 597.93918,1244.2189 c 0.7566,-1.6865 0.97441,-3.5252 2.22396,-4.8955 1.38711,-1.5225 3.78302,-3.127 5.61721,-4.0054 5.11281,-2.4594 12.0025,-1.4991 16.30138,-5.563 -1.83419,5.2819 -8.33411,9.8964 -13.14886,12.2153 -2.00615,0.972 -4.1384,1.8856 -6.33943,2.2486 -1.71955,0.2928 -3.89766,-0.094 -5.53696,0.4451" />
      <path
         style="fill:#39b54a;stroke:#000000;stroke-width:1;stroke-miterlimit:4;stroke-dasharray:none"
         inkscape:connector-curvature="0"
         id="path85"
         d="m 619.34191,1191.7388 c 0,0 -0.45855,-9.4865 -0.0802,-10.5405 0.36684,-1.0307 8.46021,-7.4721 6.00698,-23.5991 0,0 -1.59345,-5.4108 -0.76807,-6.746 0,0 -7.01578,13.6559 -7.58897,17.7316 -0.58464,4.0756 0.4127,10.7162 0.80246,12.3324 0.38977,1.6162 1.02027,5.9729 1.02027,5.9729" />
      <path
         style="fill:#39b54a;stroke:#000000;stroke-width:1;stroke-miterlimit:4;stroke-dasharray:none"
         inkscape:connector-curvature="0"
         id="path93"
         d="m 615.53596,1191.9262 c 1.86858,-4.3919 4.895,-7.9406 9.25121,-9.9081 3.33593,-1.4991 6.91261,-2.0144 10.50075,-2.2018 2.1781,-0.1171 4.20717,-0.1406 6.32796,-0.855 1.53613,-0.5153 4.20718,-1.2297 5.19305,-2.5765 -6.11015,3.5017 -9.64097,10.3999 -16.27845,13.1873 -5.22745,2.1901 -12.15152,1.1009 -16.74847,4.7433" />
      <path
         style="fill:#39b54a;stroke:#000000;stroke-width:1;stroke-miterlimit:4;stroke-dasharray:none"
         inkscape:connector-curvature="0"
         id="path159"
         d="m 602.19221,1210.1613 c 0,0 0.85978,-11.3838 5.88088,-14.382 0,0 4.895,-2.5063 6.96993,-4.4973 0,0 2.94617,-4.1342 1.10052,-1.4991 -1.8342,2.6235 -3.06081,17.2514 -3.17545,18.1297 -0.11464,0.8667 -1.96029,6.5 -5.38794,10.7514 -3.42764,4.2513 -5.0211,6.8748 -5.75478,8.3856 -0.73367,1.4991 -1.35271,5.5045 -1.35271,5.5045" />
      <path
         style="fill:#39b54a;stroke:#000000;stroke-width:1;stroke-miterlimit:4;stroke-dasharray:none"
         inkscape:connector-curvature="0"
         id="path241"
         d="m 598.64993,1239.8036 c 0,0 0.85978,-12.5081 0.49294,-13.8784 -0.36684,-1.3819 -9.05632,-9.8846 -5.75478,-31.1531 0,0 1.94883,-7.1207 1.10052,-8.8657 0,0 7.22213,18.0008 7.71507,23.3765 0.48147,5.3874 -0.85978,14.136 -1.35272,16.2676 -0.48148,2.1198 -1.34125,7.8702 -1.34125,7.8702" />
      <path
         d="m 608.49135,1164.8085 a 2.6523576,2.6523576 0 0 1 -2.65236,2.6523 2.6523576,2.6523576 0 0 1 -2.65236,-2.6523 2.6523576,2.6523576 0 0 1 2.65236,-2.6524 2.6523576,2.6523576 0 0 1 2.65236,2.6524 z m -4.05329,38.6737 a 2.6523576,2.6523576 0 0 1 -2.65235,2.6523 2.6523576,2.6523576 0 0 1 -2.65236,-2.6523 2.6523576,2.6523576 0 0 1 2.65236,-2.6524 2.6523576,2.6523576 0 0 1 2.65235,2.6524 z m 1.875,-7.768 a 2.6523576,2.6523576 0 0 1 -2.65235,2.6524 2.6523576,2.6523576 0 0 1 -2.65236,-2.6524 2.6523576,2.6523576 0 0 1 2.65236,-2.6523 2.6523576,2.6523576 0 0 1 2.65235,2.6523 z m 21.25006,-18.5714 a 2.6523576,2.6523576 0 0 1 -2.65235,2.6524 2.6523576,2.6523576 0 0 1 -2.65236,-2.6524 2.6523576,2.6523576 0 0 1 2.65236,-2.6523 2.6523576,2.6523576 0 0 1 2.65235,2.6523 z m -3.88403,5.0447 a 2.6523576,2.6523576 0 0 1 -2.65236,2.6524 2.6523576,2.6523576 0 0 1 -2.65235,-2.6524 2.6523576,2.6523576 0 0 1 2.65235,-2.6524 2.6523576,2.6523576 0 0 1 2.65236,2.6524 z"
         style="opacity:1;fill:#ed1c24;fill-opacity:1;fill-rule:nonzero;stroke:#000000;stroke-width:1;stroke-linecap:butt;stroke-linejoin:miter;stroke-miterlimit:4;stroke-dasharray:none;stroke-opacity:1;paint-order:normal"
         id="path5209-2"
         inkscape:connector-curvature="0" />
    </g>
    <path
       d="m 559.31798,1195.5685 -0.19489,-0.3865 z m 10.23708,4.3216 -1.5476,1.2063 c 0.5044,-0.2693 1.03173,-0.6558 1.5476,-1.2063 z"
       id="path295"
       inkscape:connector-curvature="0"
       style="fill:none;stroke:#000000;stroke-width:0.53300369" />
    <path
       id="path5444"
       d="m 880.68202,1195.5685 0.19489,-0.3865 z m -10.23708,4.3216 1.5476,1.2063 c -0.5044,-0.2693 -1.03173,-0.6558 -1.5476,-1.2063 z"
       inkscape:connector-curvature="0"
       style="fill:none;stroke:#000000;stroke-width:0.53300369" />
    <g
       transform="translate(-300)"
       id="g5268">
      <path
         inkscape:connector-curvature="0"
         style="fill:url(#d);stroke:#000000;stroke-width:0;stroke-miterlimit:4;stroke-dasharray:none;stroke-opacity:1"
         id="path423"
         d="m 931.37,1276.35 c 0,62.57 39.41,113.29 88.03,113.29 48.62,0 88.04,-50.72 88.04,-113.29 0,-62.57 -39.42,-113.3 -88.04,-113.3 -48.62,0 -88.03,50.72 -88.03,113.3" />
      <path
         inkscape:connector-curvature="0"
         style="fill:#395054;stroke:#000000;stroke-width:0.99999994;stroke-miterlimit:4;stroke-dasharray:none"
         id="path425"
         d="m 1051.6192,1266.0619 c 7.3826,-3.8438 23.5755,-14.0145 31.2531,-15.8036 2.8315,-0.6793 15.8944,24.6402 18.7603,25.5185 v 0 c 0,0 -10.4269,1.27 -15.4939,-0.6976 -5.0669,-1.9558 -30.0746,-7.7583 -30.0746,-7.7583"
         sodipodi:nodetypes="cccccc" />
      <path
         sodipodi:nodetypes="cccccccc"
         style="fill:url(#e)"
         inkscape:connector-curvature="0"
         id="path447"
         d="m 952.34,1338.67 c -0.93,0.13 0.43,1.1402 0.43,1.1402 0,0 3.06,9.76 10.76,19.52 7.7,9.77 25.48,28.61 43.8,30.5 18.3,1.9 31.31,1.23 41.27,-4.46 23.6303,-10.63 34.3401,-29.5696 43.9228,-45.45 -25.4147,-35.3494 -68.8498,-56.9662 -108.2728,-76.52 l -0.06,-0.4" />
      <path
         sodipodi:nodetypes="cccccccccccccccccccccccccccccc"
         inkscape:connector-curvature="0"
         id="path429"
         d="M 942.21484,1281.2598 935.57,1284.14 c 1.50379,14.0896 9.43448,42.2608 16.76984,54.5299 6.15078,-0.6432 12.12063,-2.1669 17.77611,-4.5225 2.93491,-0.2349 6.53341,-2.3453 6.53768,-4.296 2.93531,0.4957 12.48946,2.3123 7.95852,-3.3046 -5.67589,-2.1854 -11.49093,-4.6362 -17.53325,-5.3532 -2.65571,0.2295 -7.06242,-0.024 -2.16427,-1.6547 6.98998,-2.6286 31.32662,-1.0844 22.38004,-6.053 -3.68504,-3.2493 -13.72244,-2.972 -15.23302,-3.5753 5.96818,-1.0457 12.12561,0.2435 17.78776,-2.4483 3.32261,-0.8881 6.41903,-1.3742 1.79673,-3.466 -4.42067,-3.9048 -12.00865,-5.3239 -14.1807,-10.9728 1.60303,-2.0548 5.19119,-1.3625 1.72681,-4.0919 -7.16749,-2.4602 -10.72202,-3.9234 -16.34342,-4.9664 -6.8677,-0.9806 -13.79357,-1.5306 -20.63399,-2.7054 z m 52.15946,5.7898 c -4.12483,-0.6205 -15.8597,-1.4699 -10.22538,5.4037 6.38473,3.1059 11.82395,8.3404 18.91788,9.6821 7.6195,1.1368 15.0737,3.299 22.8782,2.6182 2.5087,0.091 11.3437,-0.4237 4.6035,0.5351 -5.3426,3.4112 -12.6924,0.3103 -16.956,4.3039 3.5833,4.3355 12.3902,4.2871 18.3197,5.2965 9.4916,1.5971 19.2364,0.7708 28.7203,2.4275 3.3276,2.0285 -5.8362,-0.586 -7.7699,0.729 -6.2194,0.2398 -10.0395,7.6932 -1.9681,8.6674 6.4369,1.7992 12.9926,2.7261 19.404,4.6044 4.9572,2.5132 12.768,2.9389 18.1101,3.7492 10.4978,-7.9066 18.5664,-60.7376 13.224,-59.2898 z"
         style="fill:#6dbe45;stroke:#0f0f0f;stroke-width:1;stroke-miterlimit:4;stroke-dasharray:none;stroke-opacity:1" />
      <path
         sodipodi:nodetypes="cccscccccccccccccccc"
         inkscape:connector-curvature="0"
         id="path437"
         d="m 935.57,1284.14 c 6.0831,-5.1025 13.84842,0.2698 20.73764,-0.2248 6.88174,0.4368 14.17888,0.5382 20.30567,4.1222 -4.81851,-3.2431 2.68935,-4.7911 4.30897,-5.1185 2.29408,-0.4638 -0.97701,-7.8849 1.41744,-9.0844 9.09206,1.9819 5.15516,13.114 1.3662,13.7488 3.5715,0.2645 8.69075,1.7567 15.31382,0.4718 7.65736,-0.3844 14.81126,-3.6567 22.36996,-4.0003 6.9645,1.1886 13.9242,0.2344 20.9231,0.5153 6.8673,0.3817 13.8427,0.3509 20.6478,0.7528 7.2953,2.3568 21.3077,-6.8965 28.7186,-5.4812 0,0 16.7543,-5.1577 9.9534,-4.0649 -8.8381,-1.0656 -24.0026,-8.6332 -30.9438,-11.1925 -11.2356,-2.3167 -22.0718,-6.7546 -33.5855,-7.5375 -8.5836,-0.041 -17.1588,0.8394 -25.7592,0.3765 -7.178,-0.6268 -14.75233,0.6143 -21.64068,-1.4995 -6.47093,-2.8169 -13.64487,-4.1567 -20.59152,-2.5389 -10.2373,0.8568 -21.14047,-2.4832 -30.81014,2.1647 -4.15096,3.4385 -1.02042,9.4618 -2.19838,14.1388 -0.1776,4.8172 -0.35528,9.6346 -0.53338,14.4516 z"
         style="fill:#557176;stroke:#000000;stroke-opacity:1" />
      <path
         inkscape:connector-curvature="0"
         id="path461"
         d="m 935.70707,1256.1746 c 5.93108,-0.7414 22.61105,1.8296 28.40716,-0.066 4.07894,0.023 10.45455,-3.8312 11.14334,1.8936 4.28164,1.7824 8.28606,6.2264 13.14941,5.2238 4.67906,-2.3534 9.56779,-3.7493 14.76402,-1.9963 6.8279,1.523 13.8254,4.7279 20.8875,2.354 5.8582,-0.6643 5.9206,3.5923 11.1055,-0.4911 5.544,0.8946 10.5416,4.1102 16.4552,2.9688 5.624,0.8799 13.4402,0.3654 19.0696,-1.4776 -4.2092,-1.5256 -13.0031,-4.6071 -17.2072,-6.1706 -5.937,0.228 -7.1515,-1.0518 -12.1629,-2.4283 -5.085,1.4345 -6.6476,-3.8888 -10.2781,-5.9878 -5.6686,-3.8061 -5.1846,-8.853 -10.4886,-13.1689 -4.6096,-3.8854 -11.1143,0.099 -15.5905,-4.294 -5.48981,-2.2112 -11.35193,-3.29 -16.85034,-5.717 -7.37305,-0.055 -12.558,6.3345 -18.83433,9.3093 -8.03586,4.5997 -24.16631,11.9065 -33.07193,15.0139"
         style="fill:#ffffff;stroke:#000000;stroke-width:1;stroke-miterlimit:4;stroke-dasharray:none"
         sodipodi:nodetypes="ccccccccccccccccc" />
      <path
         d="m 1089.8415,1220.4793 c 0.8942,1.6396 4.6428,14.1126 4.6428,14.1126 -12.4266,-13.9721 -41.5215,-23.7747 -75.4311,-23.7747 -33.43964,0 -62.40841,9.5567 -75.12166,23.2243 -0.20634,0.2225 1.93737,-6.2541 4.47085,-12.4379 2.47616,-6.0432 5.35355,-11.8054 5.53696,-11.9225 14.96013,-9.3225 38.56389,-15.3306 65.11385,-15.3306 26.7448,0 50.4976,6.0901 65.4348,15.5297 0,0 4.6084,7.4604 5.3535,10.5991 z"
         id="path481"
         style="fill:#949699;stroke:#000000;stroke-width:0.99999994;stroke-miterlimit:4;stroke-dasharray:none"
         inkscape:connector-curvature="0" />
      <path
         style="opacity:1;fill:#ffdd00;fill-opacity:1;fill-rule:nonzero;stroke:#000000;stroke-width:1;stroke-linecap:butt;stroke-linejoin:miter;stroke-miterlimit:4;stroke-dasharray:none;stroke-opacity:1;paint-order:normal"
         d="m 1035.051,1219.183 -8.5409,-5.4209 1.5595,9.995 -5.8162,-8.2766 -2.3842,9.8309 -2.2062,-9.8723 -5.9649,8.1701 1.7398,-9.9651 -8.6374,5.2656 5.421,-8.5409 -9.9951,1.5595 8.2767,-5.8162 -9.831,-2.3842 9.8724,-2.2062 -8.1701,-5.9648 9.9651,1.7398 -5.2657,-8.6374 8.541,5.4208 -1.5595,-9.995 5.8162,8.2767 2.3842,-9.831 2.2061,9.8725 5.9649,-8.1702 -1.7398,9.9651 8.6374,-5.2656 -5.4209,8.5408 9.995,-1.5594 -8.2766,5.8162 9.8309,2.3842 -9.8724,2.2061 8.1702,5.965 -9.9651,-1.7399 z"
         id="path4803"
         inkscape:connector-curvature="0"
         sodipodi:nodetypes="ccccccccccccccccccccccccccccccccc" />
      <path
         id="ellipse517"
         style="fill:#000000;fill-opacity:1;stroke:none;stroke-width:0.78791851"
         d="m 1022.5377,1208.1586 c 10e-5,0.2135 -1.1563,0.8776 -2.6379,0.8776 -1.4815,0 -2.7272,-0.6641 -2.7271,-0.8776 -10e-5,-0.2135 1.201,-0.3865 2.6825,-0.3865 1.4815,0 2.6826,0.173 2.6825,0.3865 z m 3.3822,-7.882 c 0,0.5739 -0.4815,1.0306 -1.0776,1.0306 -0.5961,0 -1.0776,-0.4684 -1.0776,-1.0306 0,-0.5738 0.4815,-1.0306 1.0776,-1.0306 0.5961,0 1.0776,0.4685 1.0776,1.0306 m -9.9391,-0.1405 c 0,0.5739 -0.4814,1.0423 -1.0776,1.0423 -0.5961,0 -1.0775,-0.4684 -1.0775,-1.0423 0,-0.5739 0.4814,-1.0306 1.0775,-1.0306 0.5962,0 1.0776,0.4684 1.0776,1.0306"
         inkscape:connector-curvature="0"
         sodipodi:nodetypes="cscsccsssccsssc" />
      <path
         inkscape:connector-curvature="0"
         id="path519"
         style="fill:none;stroke:#000000;stroke-width:0.93854994"
         d="m 1018.7104,1211.0174 2.0393,-0.048 m 1.903,-10.7279 c 1.1693,-1.7802 3.1067,-1.6982 4.4479,0 m -9.1022,4.345 c 0.6993,0.059 1.1923,0.3865 1.9145,0.4216 0.7451,0.035 1.1807,-0.3045 1.8112,-0.4918 m -9.0104,-4.4036 c 1.1693,-1.7802 3.1066,-1.6982 4.4479,0" />
      <path
         style="fill:none;fill-opacity:1;stroke:#000000;stroke-width:1.5;stroke-miterlimit:4;stroke-dasharray:none;stroke-opacity:1"
         d="m 1050.9223,1204.1181 c 0.1208,-1.3911 -0.6898,-2.8695 -2.0182,-3.3599 -1.4926,-0.058 -0.7754,2.0421 0.1562,2.4267 2.3042,1.543 5.2983,1.568 7.5318,3.2532 1.186,0.8721 3.222,0.6987 3.8591,-0.7495 0.2792,-1.2894 -1.5058,-1.4492 -2.367,-1.098 -0.7643,0.347 -2.2444,0.6524 -2.2758,1.5254 0.086,1.4963 -1.1936,2.9647 -0.4774,4.4501 0.4914,1.5728 2.0428,0.5986 1.6677,-0.7003 0.043,-1.3831 -1.3662,-1.9187 -2.4556,-2.2688 -1.5114,-0.4805 -3.038,-0.9178 -4.5052,-1.5224 -1.1896,-0.5635 -2.9769,0.124 -2.7446,1.6342 1.0469,1.4114 3.253,-0.4068 3.3971,-1.8024 0.151,-0.5838 0.2057,-1.1875 0.2319,-1.7883 z"
         id="path533"
         inkscape:connector-curvature="0" />
      <path
         inkscape:connector-curvature="0"
         id="path537"
         style="fill:#000000;fill-opacity:1;stroke:none;stroke-width:0.92000002"
         d="m 1071.66,1211.95 c 1.2847,0.5459 1.9554,-1.0069 2.7079,-1.3402 1.6299,0.1146 2.4966,1.8198 2.4936,3.2967 0.2184,0.7532 -0.4167,2.439 -0.06,2.6332 1.7338,-1.7446 1.403,-4.7923 -0.1157,-6.5697 -1.0673,-1.2708 -2.6553,-2.2208 -4.3275,-2.3163 -1.1269,0.02 -2.3411,0.8657 -2.2283,2.1011 0.011,0.8978 0.5144,2.0897 1.5298,2.1952 z m 0.36,-2.76 c 1.4523,-0.1441 0.5222,2.2742 -0.4134,1.0777 -0.2736,-0.3806 -0.054,-0.9873 0.4134,-1.0777 z m 1.68,3.86 c -1.1475,-0.7967 -2.1109,0.5926 -2.9091,0.7716 -1.5756,-0.436 -2.1005,-2.2744 -1.8174,-3.7275 -0.072,-0.7814 0.8741,-2.3103 0.5581,-2.5723 -1.9837,1.3329 -2.2626,4.2743 -1.2283,6.2891 0.7871,1.5443 2.2066,2.8633 3.8965,3.312 1.1085,0.2069 2.4715,-0.3823 2.5957,-1.62 0.1628,-0.886 -0.1181,-2.1446 -1.0855,-2.4529 m -0.88,2.63 c -1.4722,-0.1245 -0.082,-2.327 0.6075,-0.9739 0.1875,0.4223 -0.1267,0.9828 -0.6075,0.9739 z m -100.52,-6.83 c -0.5826,-0.6933 -0.56449,-2.5227 -1.65577,-2.2606 -1.80777,0.3592 -3.52314,1.4596 -4.38423,3.1206 -1.45193,-1.6119 -3.96607,-1.9723 -5.91,-1.11 -0.04,1.15 -0.08,2.3 -0.12,3.45 0.95188,-1.3395 2.82265,-2.5588 4.44959,-1.6434 1.52923,0.9516 -0.17755,3.0128 0.72724,4.374 0.64735,1.7311 3.59501,1.3273 3.43617,-0.6374 -0.0843,-1.3066 -0.56083,-2.7677 -1.76594,-3.416 0.41144,-0.8471 1.4054,-1.485 2.31181,-1.8256 0.9332,-0.321 1.9672,-0.3402 2.91113,-0.052 z m -4.97,4.18 c 0.6746,0.8795 -0.71696,2.0971 -0.97329,0.6468 -0.59528,-0.9437 0.25418,-3.0498 0.97329,-0.6468 z m 25,-12.9 c -0.3627,-0.4994 -2.31042,-0.6534 -1.18486,0.1884 0.35456,1.7549 -2.26573,0.7079 -3.23461,1.2105 -1.2097,0.2188 -2.93319,1.8114 -3.92688,0.76 -0.0189,-1.6634 -2.01796,0.634 -0.71294,1.2691 0.80117,0.9519 2.40282,-0.032 2.49667,1.4591 0.73393,1.4584 1.5047,2.9866 2.83599,3.995 1.76207,0.589 2.09369,-1.9562 2.27563,-3.181 0.31804,-1.0193 0.0407,-2.4664 0.20176,-3.2382 1.00937,-0.2036 2.82256,-1.6023 1.24924,-2.4629 z m -3.29,7.1 c -1.43313,-0.3752 -1.91095,-2.0923 -2.33419,-3.312 0.30357,-0.9676 2.53161,-1.8628 3.03192,-0.8285 0.012,1.2487 0.2665,2.5992 -0.27019,3.7724 l -0.18133,0.2061 -0.24621,0.152" />
      <path
         style="opacity:1;fill:#161e20;fill-opacity:1;fill-rule:nonzero;stroke:none;stroke-width:0.13;stroke-linecap:round;stroke-linejoin:round;stroke-miterlimit:4;stroke-dasharray:none;stroke-opacity:1;paint-order:normal"
         d="m 1007.9567,1323.0535 v 1.8184 c -1.1972,-0.5994 -2.4725,-1.2584 -3.375,-1.6368 -3.4842,0.4477 -6.69168,1.3824 -8.83989,4.168 3.61986,0.8344 7.23949,0.6745 10.85939,1.4981 -1.5588,0.9532 -2.6094,2.6414 -2.6094,4.5742 0,1.5331 0.6647,2.9104 1.7149,3.8925 l -4.3946,14.9434 h -0.3554 v -16.5976 h -4.94535 v 16.5976 h -3.12696 v 2.5684 l -16.08789,-4.3106 -0.49219,1.8379 10.95899,2.9375 c 2.62011,3.3993 4.24458,4.7217 7.86523,6.7871 22.43887,1.003 29.45057,-0.014 49.53127,-0.3105 0,-0.29 -0.4707,-2.5606 -0.4707,-2.5606 -0.9427,-0.013 0.034,-0.5664 0.3906,-0.8691 1.0422,-1.0955 1.2373,-1.9468 1.6602,-3.2305 l 0.029,-0.1191 -1.0899,0.018 v -2.7481 h -3.6816 l -6.6153,-23.8554 c -1.1268,0.2787 -2.3504,0.2071 -3.4765,-0.01 l -4.9434,16.5371 c -1.292,-0.4844 -2.6853,-0.7617 -4.1465,-0.7617 -2.4616,0 -4.7415,0.7593 -6.6328,2.0468 l -2.5781,-8.7402 c 1.1605,-0.9891 1.9141,-2.4289 1.9141,-4.0527 0,-1.8956 -1.0083,-3.5589 -2.5176,-4.5215 1.8761,-0.4206 4.963,-0.76 10.1367,-0.416 -0.9216,-2.0075 -4.9452,-3.9641 -6.1172,-4.1133 -2.1035,-0.1892 -3.6943,0.7427 -5.5293,1.207 v -2.5781 z m 23.9297,7.2793 v 18.7832 c -1.1576,-1.5944 -2.7008,-2.8831 -4.4961,-3.7383 z m 2.5136,0.1289 6.0625,21.8496 H 1034.4 Z m -27.5761,10.3477 c 0.1178,0.7218 0.5057,1.3514 1.0566,1.7773 -0.4201,0.4299 -0.6797,1.0233 -0.6797,1.6719 0,0.6845 0.294,1.3025 0.7559,1.7363 v 6.3164 h -4.4786 z m 5.3066,0.2168 1.8066,6.6835 c -1.2719,1.2803 -2.2538,2.85 -2.8379,4.6016 h -0.1074 v -6.293 c 0.4772,-0.4346 0.7832,-1.0622 0.7832,-1.7597 0,-0.6426 -0.2547,-1.2313 -0.6679,-1.6602 0.5013,-0.3828 0.8675,-0.9355 1.0234,-1.5722 z"
         id="rect5589"
         inkscape:connector-curvature="0"
         sodipodi:nodetypes="cccccscccccccccccccccccccccccsccsccccccccccccccccscccccccccscc" />
    </g>
    <path
       style="fill:none;stroke-width:0"
       inkscape:connector-curvature="0"
       id="path911"
       d="m 681.62,1087.87 c 0.1,0 0.79,-0.27 1.45,-1.5 -0.19,-0.33 2.49,-1.38 2.77,-1.04 0,-0.01 0.73,0 1.14,0.07" />
    <path
       style="fill:none;stroke-width:0"
       inkscape:connector-curvature="0"
       id="path913"
       d="m 684.27,1085.55 c -0.27,-0.04 -1.63,1.1 -1.5,1.17 -0.3,0.7 -1.07,1.17 -1.15,1.15 m 2.76,-2.15 c 0,-0.09 1.84,-0.26 2.2,-0.13 m -2.54,0.62 c -0.05,-0.2 1.91,-0.46 2.1,-0.33" />
    <path
       style="fill:none;stroke-width:0"
       inkscape:connector-curvature="0"
       id="path917"
       d="m 685.84,1087.12 c 0,-0.02 -0.59,0.58 -1.2,1 0,0.1 -1.24,0.84 -1.57,0.75 -0.02,-0.04 -0.53,0.22 -0.74,0.48" />
    <path
       style="fill:none;stroke-width:0"
       inkscape:connector-curvature="0"
       id="path919"
       d="m 683.99,1088.6 c 0.1,-0.1 0.88,-0.63 0.88,-0.64 0.28,-0.3 0.97,-0.85 0.98,-0.85 m -1.83,1.63 c 0.07,0.06 -1.17,0.23 -1.37,0.53 m 1.72,-0.56 c 0.08,0.16 -1.32,0.53 -1.38,0.58" />
    <g
       id="g5133">
      <path
         id="path5434"
         style="fill:#ffdd00;stroke:#000000;stroke-width:0.99999994;stroke-miterlimit:4;stroke-dasharray:none"
         d="m 813.71109,1409.1548 c 28.38412,-18.2586 33.01546,-74.018 32.5913,-81.6188 -0.42416,-7.6009 -0.69929,-96.645 -0.69929,-96.645 l -8.40289,8.4324 c 15.28111,-15.6351 33.16448,-33.9639 42.24374,-43.3567 2.91177,-3.0099 0.82538,116.6603 0.82538,169.7962 0,24.9225 -15.21233,112.8188 -104.43431,68.5838 -14.28704,1.7644 -44.28427,-34.5613 -44.2728,-34.5613 51.46054,35.4279 82.14887,9.3694 82.14887,9.3694 z m -187.42218,0 c -28.38412,-18.2586 -33.01546,-74.018 -32.5913,-81.6188 0.42416,-7.6009 0.69929,-96.645 0.69929,-96.645 l 8.40289,8.4324 c -15.28111,-15.6351 -33.16448,-33.9639 -42.24374,-43.3567 -2.91178,-3.0099 -0.82538,116.6603 -0.82538,169.7962 0,24.9225 15.21233,112.8188 104.43431,68.5838 14.28704,1.7644 44.28424,-34.5496 44.2728,-34.5613 -51.46054,35.4279 -82.14887,9.3694 -82.14887,9.3694 z"
         inkscape:connector-curvature="0"
         sodipodi:nodetypes="cscccsccccscccsccc" />
      <path
         id="path5436"
         style="fill:#034ea2;stroke:#000000;stroke-width:0.99999994;stroke-miterlimit:4;stroke-dasharray:none"
         d="m 846.29092,1327.536 c 0.43563,7.6126 -4.20717,63.3602 -32.59129,81.6188 0,0 -30.68833,26.0585 -82.14888,-9.3694 15.55624,6.5586 28.25802,7.9406 36.58067,5.4225 24.87623,-7.5072 51.18542,-36.8684 55.38113,-66.5693 4.20718,-29.7125 3.15252,-88.0719 3.15252,-88.0719 l 18.92657,-19.6757 c 0,0 0.26366,89.0323 0.69928,96.645 z m -252.58184,0 c -0.43563,7.6126 4.20717,63.3602 32.59129,81.6188 0,0 30.68833,26.0585 82.14888,-9.3694 -15.55624,6.5586 -28.25802,7.9406 -36.58067,5.4225 -24.87623,-7.5072 -51.18542,-36.8684 -55.38113,-66.5693 -4.20718,-29.7125 -3.15252,-88.0719 -3.15252,-88.0719 l -18.92657,-19.6757 c 0,0 -0.26366,89.0323 -0.69928,96.645 z"
         inkscape:connector-curvature="0" />
      <path
         id="path5438"
         style="fill:#ed1c24;stroke:#000000;stroke-width:0.99999994;stroke-miterlimit:4;stroke-dasharray:none"
         d="m 809.85929,1289.0747 c 0.2522,-2.6937 0.43562,-12.2738 0.45854,-22.7207 l 16.3587,-16.6072 c -0.218,30.0109 0.66822,59.7969 -3.15248,88.8918 -4.20718,29.7126 -29.79416,59.0739 -54.67039,66.5811 -8.32264,2.518 -21.73517,1.136 -37.30288,-5.4226 39.75163,-24.657 73.54884,-67.3192 78.30854,-110.7224 z m -179.71858,0 c -0.2522,-2.6937 -0.43562,-12.2738 -0.45854,-22.7207 l -16.3587,-16.6072 c 0,0 -0.66822,59.7969 3.15248,88.8918 4.20718,29.7126 29.79416,59.0739 54.67039,66.5811 8.32264,2.518 21.73517,1.136 37.30288,-5.4226 -39.75163,-24.657 -73.54884,-67.3192 -78.30854,-110.7224 z"
         inkscape:connector-curvature="0"
         sodipodi:nodetypes="cccccccccccccccc" />
      <path
         sodipodi:nodetypes="ccccc"
         style="fill:#034ea2;stroke:#000000;stroke-width:1;stroke-miterlimit:4;stroke-dasharray:none"
         inkscape:connector-curvature="0"
         id="path299"
         d="m 559.21899,1198.4155 c -0.72256,11.3749 -4.44074,48.01 -1.61395,58.5389 l 2.92127,0.599 c 0.87048,-19.9791 1.31525,-35.8847 1.5586,-56.3974 0.82889,-1.8344 -1.44636,-2.0154 -2.86592,-2.7405 z" />
      <path
         d="m 919.79689,1157.1426 c -5.73186,7.0036 -23.87891,12.5078 -23.87891,12.5078 a 36.569203,37.360323 0 0 1 -3.57813,12.1797 c -0.51586,-0.4334 -0.93869,-0.7246 -1.16796,-0.7481 l -0.84961,0.3731 c -1.75395,-1.5342 -6.92354,-5.8196 -8.66602,-4.6719 -2.02907,1.3703 2.51143,6.8275 4.51758,9.0527 l -0.23047,0.586 c 0.0115,0.2459 0.42486,0.8539 0.99805,1.5918 l 0.0176,0.018 c -0.98568,-0.3685 -1.89287,-0.3394 -2.42578,0.2051 -0.44708,0.445 -0.56207,1.1723 -0.36718,1.9921 -1.21516,0.2226 -2.46462,0.8776 -3.50782,1.9317 -2.23542,2.2603 -2.68151,5.4932 -1.00781,7.2265 1.68516,1.7334 4.83684,1.2995 7.07227,-0.9609 a 6.763583,6.909903 0 0 0 1.92578,-3.584 c 0.80246,0.1991 1.49067,0.1052 1.94922,-0.3515 0.5297,-0.5347 0.56994,-1.4531 0.22461,-2.459 l 0.15429,0.164 0.69922,0.4219 c 0.22928,-0.012 0.68777,-0.2463 1.22656,-0.6328 1.15784,1.2532 3.01469,3.7009 2.79688,6.418 -0.32098,3.8883 -3.53125,5.7617 -3.53125,5.7617 l -0.13672,0.1406 c 1.47882,0.6676 3.10662,1.0195 4.82617,1.0195 6.83237,0 12.38086,-5.809 12.38086,-13 a 12.965445,13.245933 0 0 0 -0.5957,-3.9824 h -0.0586 c 0,0 -3.14096,3.818 -6.58007,3.1856 a 11.406381,11.653141 0 0 1 -5.70899,-3.2793 c 0.22928,-0.4919 0.36812,-0.9827 0.32227,-1.4278 -0.0115,-0.1873 -0.24177,-0.5744 -0.57422,-1.0195 2.31567,-2.7874 7.79547,-3.5137 12.47265,-3.5254 0.45855,-3.4081 5.73282,-16.9463 11.28126,-25.1328 z m -399.59377,0 c 5.54844,8.1865 10.82271,21.7247 11.28126,25.1328 4.67718,0.012 10.15698,0.738 12.47265,3.5254 -0.33245,0.445 -0.56275,0.8321 -0.57422,1.0195 -0.0458,0.4451 0.093,0.9359 0.32227,1.4278 a 11.406381,11.653141 0 0 1 -5.70899,3.2792 c -3.43911,0.6325 -6.58007,-3.1855 -6.58007,-3.1855 h -0.0586 a 12.965445,13.245933 0 0 0 -0.5957,3.9824 c 0,7.191 5.54849,13 12.38086,13 1.71955,0 3.34735,-0.3519 4.82617,-1.0195 l -0.13672,-0.1406 c 0,0 -3.21027,-1.8735 -3.53125,-5.7618 -0.21781,-2.7171 1.63904,-5.1648 2.79688,-6.4179 0.53879,0.3865 0.99728,0.6211 1.22656,0.6328 l 0.69922,-0.4219 0.15429,-0.164 c -0.34533,1.0059 -0.30509,1.9243 0.22461,2.4589 0.45855,0.4568 1.14676,0.5507 1.94922,0.3516 a 6.763583,6.909903 0 0 0 1.92578,3.584 c 2.23543,2.2603 5.38711,2.6943 7.07227,0.9609 1.6737,-1.7333 1.22761,-4.9662 -1.00781,-7.2265 -1.0432,-1.0541 -2.29266,-1.7092 -3.50782,-1.9317 0.19489,-0.8198 0.0799,-1.5471 -0.36718,-1.9922 -0.53291,-0.5444 -1.4401,-0.5735 -2.42578,-0.205 l 0.0176,-0.018 c 0.57319,-0.7378 0.98659,-1.3458 0.99805,-1.5917 l -0.23047,-0.586 c 2.00615,-2.2252 6.54665,-7.6824 4.51758,-9.0527 -1.74248,-1.1478 -6.91207,3.1376 -8.66602,4.6719 l -0.84961,-0.3731 c -0.22927,0.023 -0.6521,0.3147 -1.16796,0.7481 a 36.569203,37.360323 0 0 1 -3.57813,-12.1797 c 0,0 -18.14705,-5.5042 -23.87891,-12.5078 z"
         style="fill:#b1babf;stroke:#000000;stroke-width:1;stroke-miterlimit:4;stroke-dasharray:none"
         id="path5442"
         inkscape:connector-curvature="0" />
      <path
         sodipodi:nodetypes="cccc"
         inkscape:connector-curvature="0"
         id="path5446"
         d="m 878.52685,1261.6576 c -3.26596,-20.7167 -0.9457,-41.2081 -3.5996,-60.6549 l 3.26715,-2.436 c 1.3756,19.243 5.37544,45.1326 2.79714,62.9153"
         style="fill:#ed1c24;stroke:#000000;stroke-width:1;stroke-miterlimit:4;stroke-dasharray:none" />
      <path
         sodipodi:nodetypes="ccccc"
         inkscape:connector-curvature="0"
         id="path5448"
         d="m 881.04886,1195.8262 c 1.82976,16.6309 6.91164,42.4337 5.24125,57.626 -0.16243,1.2563 -1.18254,2.1188 -1.79067,3.1694 -8.28464,-17.3301 -1.45205,-41.4274 -6.63749,-59.1675 1.06231,-0.5426 2.12461,-1.0853 3.18691,-1.6279 z"
         style="fill:#034ea2;stroke:#000000;stroke-width:1;stroke-miterlimit:4;stroke-dasharray:none" />
      <path
         sodipodi:nodetypes="cccccccccc"
         inkscape:connector-curvature="0"
         id="path5450"
         d="m 870.12696,1192.9922 c -0.94955,0.014 -2.0793,0.2047 -2.6284,1.0716 -0.45062,3.0339 2.50614,5.5009 4.59161,7.0831 1.2251,0.6704 2.75841,0.5236 3.93263,-0.1847 1.8651,-1.1003 3.18265,-2.9003 4.28506,-4.7226 0.20498,-0.3419 0.41273,-0.7268 0.58082,-1.0697 h -0.043 l -8.94531,-1.9102 c -0.56962,-0.1911 -1.17409,-0.269 -1.77343,-0.2695 z"
         style="fill:#ed1c24;stroke:#000000;stroke-width:1;stroke-miterlimit:4;stroke-dasharray:none" />
      <path
         sodipodi:nodetypes="ccccccccc"
         inkscape:connector-curvature="0"
         id="path5454"
         d="m 875.23048,1184.291 c -1.47309,-0.069 -3.26048,0.4389 -4.52149,2.7403 -0.45845,4.8461 1.19139,6.2308 3.61133,6.9804 3.50789,0.9838 2.60072,0.2798 6.07422,1.0762 0,0 -5.41209,-5.7218 -6.69141,-6.3731 1.49919,-0.042 3.74074,1.528 7.07032,6.8418 l 0.11523,-0.375 c 0.38977,-1.6162 1.5696,-7.8353 -3.02734,-10.1777 0,0 -1.15778,-0.6441 -2.63086,-0.7129 z"
         style="fill:#034ea2;stroke:#000000;stroke-width:1;stroke-miterlimit:4;stroke-dasharray:none" />
      <path
         style="fill:#e8b909;stroke:#000000;stroke-width:1;stroke-miterlimit:4;stroke-dasharray:none"
         inkscape:connector-curvature="0"
         d="m 881.42879,1268.9262 c -0.28,-4.79 -0.64,-11.43 3.06001,-11.66 3.74,-0.23 4.14,6.4 4.42,11.23 -2.2,0.16 -4.08,0.36 -7.48001,0.49"
         id="path5458" />
      <ellipse
         style="fill:#e8b909;stroke:#000000;stroke-width:1;stroke-miterlimit:4;stroke-dasharray:none"
         cx="-884.62555"
         cy="1255.5325"
         id="circle5460"
         transform="scale(-1,1)"
         rx="2.3959131"
         ry="2.4477451" />
      <path
         sodipodi:nodetypes="ccsc"
         style="fill:#e8b909;stroke:#000000;stroke-width:1;stroke-miterlimit:4;stroke-dasharray:none"
         inkscape:connector-curvature="0"
         d="m 876.50505,1270.9975 c 3.40001,0.08 5.30001,0 7.50002,0 0,-4.8 0,-11.45 -3.75001,-11.45 -3.70001,0 -3.75001,6.65 -3.75001,11.45 z"
         id="path5464" />
      <ellipse
         style="fill:#e8b909;stroke:#000000;stroke-width:1;stroke-miterlimit:4;stroke-dasharray:none"
         cx="-880.32666"
         cy="1258.8351"
         id="circle5466"
         transform="scale(-1,1)"
         rx="2.3959131"
         ry="2.4477451" />
      <path
         inkscape:connector-curvature="0"
         style="fill:none;stroke:#000000;stroke-width:1.99999988;stroke-miterlimit:4;stroke-dasharray:none"
         id="path291"
         d="m 628.74214,1265.5928 -67.78486,-69.6729" />
      <path
         sodipodi:nodetypes="cccc"
         style="fill:#ed1c24;stroke:#000000;stroke-width:1;stroke-miterlimit:4;stroke-dasharray:none"
         inkscape:connector-curvature="0"
         id="path297"
         d="m 563.43744,1255.229 c 2.75912,-20.2746 1.33865,-36.197 1.63531,-54.2263 l -3.26715,-2.436 c -0.43259,20.2847 -0.71068,37.6941 -1.54714,56.3974" />
      <path
         style="fill:#e8b909;stroke:#000000;stroke-width:1;stroke-miterlimit:4;stroke-dasharray:none"
         inkscape:connector-curvature="0"
         id="path309"
         d="m 560.85561,1268.3968 c 0.28,-4.79 0.64,-11.43 -3.06,-11.66 -3.74001,-0.23 -4.14001,6.4 -4.42001,11.23 2.2,0.16 4.08,0.36 7.48001,0.49" />
      <ellipse
         style="fill:#e8b909;stroke:#000000;stroke-width:1;stroke-miterlimit:4;stroke-dasharray:none"
         id="circle311"
         cy="1255.3539"
         cx="557.69586"
         rx="2.3959131"
         ry="2.4477451" />
      <path
         sodipodi:nodetypes="ccsc"
         style="fill:#e8b909;stroke:#000000;stroke-width:1;stroke-miterlimit:4;stroke-dasharray:none"
         inkscape:connector-curvature="0"
         id="path315"
         d="m 565.72704,1268.5868 c -3.40001,0.08 -5.30001,0 -7.50001,0 0,-4.8 0,-11.45 3.75,-11.45 3.70001,0 3.75001,6.65 3.75001,11.45 z" />
      <ellipse
         style="fill:#e8b909;stroke:#000000;stroke-width:1;stroke-miterlimit:4;stroke-dasharray:none"
         id="circle317"
         cy="1256.4243"
         cx="561.90546"
         rx="2.3959131"
         ry="2.4477451" />
      <path
         sodipodi:nodetypes="cccccccccc"
         inkscape:connector-curvature="0"
         id="path301"
         d="m 568.09961,1193.2617 c -2.95154,0.7764 -5.93646,1.4138 -8.94531,1.9102 -0.0148,-4e-4 -0.0281,0 -0.043,0 l 0.006,0.01 h -0.006 c 0.002,0 0.004,-10e-5 0.006,0 l 0.18945,0.375 c 0.88271,1.6396 4.51692,7.7877 8.70117,5.539 1.69983,-1.095 2.81165,-2.7617 4.06836,-4.3085 1.44483,-3.55 -1.549,-4.0603 -3.97667,-3.5257 z"
         style="fill:#ed1c24;stroke:#000000;stroke-width:1;stroke-miterlimit:4;stroke-dasharray:none" />
      <path
         sodipodi:nodetypes="cccccccccc"
         inkscape:connector-curvature="0"
         id="path305"
         d="m 564.76953,1184.291 c -1.47308,0.069 -2.63086,0.7129 -2.63086,0.7129 -4.59694,2.3424 -3.41711,8.5615 -3.02734,10.1777 l 0.11523,0.375 c 3.32958,-5.3138 5.57113,-6.8842 7.07032,-6.8418 -1.27932,0.6513 -6.69141,6.3731 -6.69141,6.3731 3.4735,-0.7964 2.56633,-0.092 6.07422,-1.0762 4.40065,-1.1273 1.9923,-0.6216 3.47461,-1.289 0.53879,-2.4478 0.13672,-5.6914 0.13672,-5.6914 -1.26101,-2.3014 -3.0484,-2.8091 -4.52149,-2.7403 z"
         style="fill:#034ea2;stroke:#000000;stroke-width:1;stroke-miterlimit:4;stroke-dasharray:none" />
    </g>
    <path
       style="fill:#452c25;stroke:#000000;stroke-width:2;stroke-miterlimit:4;stroke-dasharray:none"
       d="m 696.53906,1117.3926 c -4.41998,5.9245 -9.05806,11.8358 -12.08756,18.6234 -0.97713,3.4223 -3.73565,6.007 -5.2991,9.1954 -1.74595,2.584 -2.03803,5.7369 -4.20686,8.0462 -1.71319,2.377 -0.44907,4.4102 -2.33027,6.8219 -0.69291,3.6856 -3.00041,6.8465 -4.16708,10.4369 -1.3803,1.9313 -1.09002,6.821 1.70177,3.2033 1.60198,-1.2019 2.05594,-4.5878 3.71387,-3.0748 2.9358,-1.5439 4.15888,-4.6789 7.39293,-5.2059 2.1931,-1.2559 5.37389,-5.0215 6.35264,-5.3015 -1.51736,3.0697 1.75456,1.251 2.81247,-0.087 -0.74479,1.7448 -0.73646,7.8642 1.6147,4.0325 3.03872,-3.6519 5.89261,-7.4644 8.43803,-11.4778 -0.86707,3.3228 -2.35825,6.8194 -1.57174,10.2814 1.76946,0.4688 3.57418,-3.9396 5.22624,-5.3507 1.28817,-1.3669 3.42649,-5.8067 2.62054,-1.6882 0.21697,4.5632 2.3576,-1.0987 3.46613,-2.4894 4.86359,-7.4969 9.88822,-15.2755 17.21769,-20.5978 2.00967,-1.5044 7.80814,0.4623 5.60865,-3.8716 -2.98157,-5.0028 -8.90067,-7.0075 -14.17423,-8.6779 -7.22432,-1.975 -14.82713,-3.293 -22.32882,-2.8189 z"
       id="path345"
       inkscape:connector-curvature="0" />
    <path
       inkscape:connector-curvature="0"
       id="path4747"
       d="m 719.62891,1155.7832 c -26.74004,0 -50.77833,14.1353 -67.78711,36.2148 -17.00878,22.0796 -27.30273,52.1852 -27.30274,85.3028 -10e-6,33.1176 10.292,63.2212 27.30078,85.3008 17.00879,22.0796 41.04902,36.2148 67.78907,36.2148 26.74004,0 50.78028,-14.1352 67.78906,-36.2148 17.00878,-22.0796 27.30275,-52.1832 27.30273,-85.3008 0,-33.1176 -10.29395,-63.2232 -27.30273,-85.3028 -17.00878,-22.0795 -41.04903,-36.2148 -67.78906,-36.2148 z m 0,12.9004 c 22.21496,0 42.49545,11.6209 57.56836,31.1875 15.0729,19.5666 24.62304,46.9974 24.62304,77.4297 2e-5,30.4323 -9.55013,57.8611 -24.62304,77.4277 -15.07291,19.5666 -35.35338,31.1895 -57.56836,31.1895 -22.21499,0 -42.49545,-11.6229 -57.56836,-31.1895 -15.07292,-19.5666 -24.62306,-46.9954 -24.62305,-77.4277 10e-6,-30.4323 9.55014,-57.8631 24.62305,-77.4297 15.07291,-19.5666 35.35339,-31.1875 57.56836,-31.1875 z"
       style="color:#000000;font-style:normal;font-variant:normal;font-weight:normal;font-stretch:normal;font-size:medium;line-height:normal;font-family:sans-serif;font-variant-ligatures:normal;font-variant-position:normal;font-variant-caps:normal;font-variant-numeric:normal;font-variant-alternates:normal;font-feature-settings:normal;text-indent:0;text-align:start;text-decoration:none;text-decoration-line:none;text-decoration-style:solid;text-decoration-color:#000000;letter-spacing:normal;word-spacing:normal;text-transform:none;writing-mode:lr-tb;direction:ltr;text-orientation:mixed;dominant-baseline:auto;baseline-shift:baseline;text-anchor:start;white-space:normal;shape-padding:0;clip-rule:nonzero;display:inline;overflow:visible;visibility:visible;opacity:1;isolation:auto;mix-blend-mode:normal;color-interpolation:sRGB;color-interpolation-filters:linearRGB;solid-color:#000000;solid-opacity:1;vector-effect:none;fill:#c69024;fill-opacity:1;fill-rule:nonzero;stroke:#0a0802;stroke-width:1;stroke-linecap:round;stroke-linejoin:round;stroke-miterlimit:4;stroke-dasharray:none;stroke-dashoffset:0;stroke-opacity:1;paint-order:normal;color-rendering:auto;image-rendering:auto;shape-rendering:auto;text-rendering:auto;enable-background:accumulate" />
    <path
       sodipodi:nodetypes="cccccccccc"
       d="m 756.69996,1163.9586 0.27513,0.1991 -5.6009,13.3326 -0.18342,-0.1055 c -4.40206,-2.7756 -17.47972,-8.2819 -33.48305,-8.0594 -12.7247,0.1757 -26.91918,6.0333 -30.24366,7.9072 1.05466,-2.6468 -5.64499,-13.2857 -5.64499,-13.2857 l 1.50175,-0.8783 c 0,0 18.38777,-10.728 34.50574,-10.9388 21.99884,-0.2928 38.8734,11.8288 38.8734,11.8288"
       id="path725"
       inkscape:connector-curvature="0"
       style="fill:#c69024;stroke:#080101;stroke-width:1;stroke-miterlimit:4;stroke-dasharray:none" />
    <g
       id="g5105">
      <path
         sodipodi:nodetypes="ccccccccccccccsccccccccccccc"
         inkscape:connector-curvature="0"
         id="path379"
         d="m 636.39258,1386.9375 c -9.26114,0.251 -15.76817,10.4288 -14.90235,10.0625 1.31,-0.55 7.01993,1.6607 11.41993,9.2207 1.21232,2.0802 1.86761,4.6084 2.19922,7.1797 h -3.91016 v 4.6602 c -2.55956,-0.2752 -5.50877,-2.6446 -7.8086,-4.9805 -1.89999,1.48 -10.62998,5.2897 -17.75,6.9297 -0.57,0.13 -1.15117,0.1793 -1.70117,0.2793 0.53,-0.04 1.12071,0.052 1.72071,0.1015 7.01,0.59 17.85937,6.5098 17.85937,6.5098 2.31301,-1.8441 4.90551,-3.3071 7.67969,-4.334 v 4.4727 l 3.7207,0.1211 c 0.19913,4.1946 1.37599,7.4296 2.80078,7.4296 1.42,0 2.59883,-3.1991 2.79883,-7.3691 l 3.73047,-0.1816 v -2.916 h 169.75781 c 0,0 1.11133,-0.6564 1.11133,-4.0645 h 0.0117 c 0,-3.4081 -1.11328,-3.7129 -1.11328,-3.7129 H 644.25 v -2.9453 h -3.9043 c 1.90953,-15.6568 11.47461,-16.7695 11.47461,-16.7695 -5.09687,-6.9688 -10.09692,-9.4929 -14.52343,-9.6856 -0.30433,-0.013 -0.60556,-0.016 -0.9043,-0.01 z"
         style="fill:#b1babf;stroke:#000000;stroke-width:1;stroke-miterlimit:4;stroke-dasharray:none" />
      <g
         id="g5090">
        <path
           d="m 655.42,1420.46 c 0,1.17 0.02,2.32 0.07,3.48 h 126.56 a 90.35,90.35 0 0 0 -0.02,-7.55 H 655.5 c -0.06,1.35 -0.1,2.7 -0.1,4.07 z"
           id="path381"
           inkscape:connector-curvature="0"
           style="fill:#b87510;stroke:#000000;stroke-width:1;stroke-miterlimit:4;stroke-dasharray:none" />
        <path
           d="m 655.51,1416.38 h 126.52 c -0.08,-1.91 -0.22,-3.8 -0.42,-5.68 H 655.93 c -0.2,1.87 -0.34,3.77 -0.42,5.68 z"
           id="path383"
           inkscape:connector-curvature="0"
           style="fill:#b76e11;stroke:#000000;stroke-width:1;stroke-miterlimit:4;stroke-dasharray:none" />
        <path
           d="m 655.94,1410.69 h 125.68 c -0.2,-1.88 -0.45,-3.74 -0.76,-5.58 H 656.7 c -0.31,1.84 -0.57,3.7 -0.77,5.58 z"
           id="path385"
           inkscape:connector-curvature="0"
           style="fill:#ac620e;stroke:#000000;stroke-width:1;stroke-miterlimit:4;stroke-dasharray:none" />
        <path
           d="m 776.82,1399.51 h -116.1 c -2.33,0 -3.7,3.7 -4.02,5.58 h 124.15 c -0.32,-1.88 -1.81,-5.58 -4.02,-5.58 z"
           id="path387"
           inkscape:connector-curvature="0"
           style="fill:#a2550b;stroke:#000000;stroke-width:1;stroke-miterlimit:4;stroke-dasharray:none" />
        <path
           d="m 655.91,1430.01 h 125.72 c 0.2,-2 0.35,-4.02 0.42,-6.07 H 655.5 c 0.08,2.05 0.22,4.07 0.42,6.07 z"
           id="path389"
           inkscape:connector-curvature="0"
           style="fill:#b76e11;stroke:#000000;stroke-width:1;stroke-miterlimit:4;stroke-dasharray:none" />
        <path
           d="m 656.56,1434.94 h 124.43 c 0.26,-1.62 0.47,-3.27 0.65,-4.93 H 655.92 c 0.17,1.66 0.38,3.3 0.64,4.93 z"
           id="path391"
           inkscape:connector-curvature="0"
           style="fill:#ac620e;stroke:#000000;stroke-width:1;stroke-miterlimit:4;stroke-dasharray:none" />
        <path
           d="M 660.71,1440.2 H 776.8 c 2.28,0 3.9,-3.48 4.18,-5.25 H 656.55 c 0.28,1.78 1.72,5.25 4.15,5.25 z"
           id="path393"
           inkscape:connector-curvature="0"
           style="fill:#a2550b;stroke:#000000;stroke-width:1;stroke-miterlimit:4;stroke-dasharray:none" />
      </g>
      <g
         id="g5081">
        <path
           d="m 671.4,1440.34 c -1.14,-3.61 -1.95,-12.01 -2.09,-20.9 -0.13,-8.9 2.56,-20.28 2.56,-20.28 h -6.27 c 0,0 -2.7,11.39 -2.56,20.28 0.14,8.89 0.95,17.29 2.1,20.9 z m 95.03,0.06 c 1.15,-3.61 1.95,-12.01 2.09,-20.9 0.13,-8.9 -2.56,-20.28 -2.56,-20.28 h 6.27 c 0,0 2.7,11.39 2.56,20.28 -0.14,8.89 -0.95,17.29 -2.1,20.9 z m -57.57,-0.06 c -0.94,-5.4 -1.05,-12.53 -1.05,-20.9 0,-8.37 0.89,-17.9 1.52,-20.28 h -6.27 c -1.1,3.55 -1.51,13.04 -1.51,20.28 0,7.24 0.2,15.68 1.04,20.9 z m 19.58,0 c 0.94,-5.4 1.05,-12.53 1.05,-20.9 0,-8.37 -0.89,-17.9 -1.52,-20.28 h 6.27 c 1.1,3.55 1.51,13.04 1.51,20.28 0,7.24 -0.2,15.68 -1.04,20.9 z"
           id="path395"
           inkscape:connector-curvature="0"
           style="fill:#c69024;stroke:#000000;stroke-width:1;stroke-miterlimit:4;stroke-dasharray:none" />
        <path
           d="m 686.12,1420.17 c 3.7,6.65 11.28,20.39 11.28,20.39 l 5.3,-0.16 c 0,0 -3.09,-6.54 -11.43,-20.63 -8.35,-14.1 -13.94,-20.82 -13.94,-20.82 l -5.3,0.15 c 0,0 10.39,14.42 14.09,21.07 z m 65.59,0 c -3.7,6.65 -11.28,20.39 -11.28,20.39 l -5.3,-0.16 c 0,0 3.09,-6.54 11.43,-20.63 8.34,-14.1 13.94,-20.82 13.94,-20.82 l 5.3,0.15 c 0,0 -10.39,14.42 -14.09,21.07 z"
           id="path397"
           inkscape:connector-curvature="0"
           style="fill:#c69024;stroke:#000000;stroke-width:1;stroke-miterlimit:4;stroke-dasharray:none" />
        <path
           d="m 688.61,1420.17 c -3.7,6.65 -11.28,20.39 -11.28,20.39 l -5.3,-0.16 c 0,0 3.09,-6.54 11.43,-20.63 8.35,-14.1 13.94,-20.82 13.94,-20.82 l 5.3,0.15 c 0,0 -10.39,14.42 -14.09,21.07 z m 60.62,0 a 8113.7,8113.7 0 0 1 11.28,20.39 l 5.3,-0.16 c 0,0 -3.09,-6.54 -11.43,-20.63 -8.35,-14.1 -13.95,-20.82 -13.95,-20.82 l -5.3,0.15 c 0,0 10.4,14.42 14.1,21.07 z"
           style="fill:#c69024;stroke:#000000;stroke-width:1;stroke-miterlimit:4;stroke-dasharray:none"
           id="path419"
           inkscape:connector-curvature="0" />
      </g>
    </g>
    <g
       id="g5156">
      <path
         d="m 700.09221,1395.1476 a 68.392434,69.872002 0 0 0 38.97658,-0.1523"
         id="path715"
         inkscape:connector-curvature="0"
         style="fill:none;stroke:#000000;stroke-width:1.50631464" />
      <path
         style="fill:#c69024;stroke:#080101;stroke-width:1;stroke-miterlimit:4;stroke-dasharray:none"
         inkscape:connector-curvature="0"
         id="path731"
         d="m 733.91,1384.17 c -5.21429,1.2652 -10.56459,1.8832 -15.93,1.84 -4.65313,-0.1379 -9.27142,-0.85 -13.75,-2.12 l -3.48,11.49 c -0.0824,8.498 35.78535,8.4804 36.95857,0.5364 z"
         sodipodi:nodetypes="cccccc" />
      <path
         style="fill:#c69024;stroke:#080101;stroke-width:1;stroke-miterlimit:4;stroke-dasharray:none"
         inkscape:connector-curvature="0"
         id="path733"
         d="m 741.48976,1395.3393 c -3.45479,-2.9747 -4.44824,-7.6601 -4.03806,-11.7858 l -4.36678,-0.1886 c -0.84152,4.3368 1.1572,12.5969 5.07687,14.1829 z m -44.91449,0.1215 c 3.13276,-3.0913 4.70827,-8.2222 4.2906,-12.2909 l 4.39294,-0.1777 c 0.65656,4.2851 -1.64142,12.2561 -5.01373,14.5616 z"
         sodipodi:nodetypes="cccccccccc" />
    </g>
    <path
       sodipodi:nodetypes="cccccccccccc"
       d="m 760.88286,1166.9857 -0.08,0.04 c -4.14362,3.0979 -6.29513,7.1451 -6.14786,11.9593 0,0 -5.01286,-1.2921 -5.01286,-1.5321 0.0955,-4.4465 3.92415,-12.4693 7.79143,-13.8229 0.04,0 3.44929,3.3557 3.44929,3.3557 z m -83.69881,-0.2249 0.08,0.04 c 4.14362,3.098 5.83788,8.1922 5.6906,13.0064 0,0 5.23475,-1.8738 5.23475,-2.1138 -0.0856,-4.4369 -3.27426,-13.0985 -7.12194,-14.4279 -0.72622,0.4999 -3.17643,2.9686 -3.88341,3.4953 z"
       id="path729"
       inkscape:connector-curvature="0"
       style="fill:#c69024;stroke:#080101;stroke-width:1;stroke-miterlimit:4;stroke-dasharray:none" />
    <path
       style="fill:#452c25;stroke:#000000;stroke-width:2;stroke-miterlimit:4;stroke-dasharray:none;stroke-opacity:1"
       sodipodi:nodetypes="cccccccccccccccccccccccccccccccccccccccccccccccccccccccccccccccccccccccccccccc"
       inkscape:connector-curvature="0"
       id="path745"
       d="m 766.55078,1042.7031 c -14.87164,0.456 -12.62109,15.836 -12.62109,15.836 -7.46665,7.2465 -17.69426,8.1617 -27.00977,12.1718 -1.69312,5.6663 -31.85869,2.4979 -35.85937,0.4493 -3.23258,6.2926 -21.04012,-12.8483 -19.98047,-17.0704 -39.77341,-21.8286 -106.95697,10.3684 -135.46094,29.1309 0.29718,-0.1008 3.30194,-1.3005 5.00781,-1.9727 0.58125,-0.066 3.63947,-0.4382 7.86133,-1.2207 -0.033,0.7122 0.8139,1.5741 5.02149,1.6836 1.82939,0.045 4.14987,-0.048 7.01171,-0.4472 -1.12035,0.8713 -1.94853,1.6737 -2.20117,2.2968 -0.56365,1.3857 8.59637,0.4524 20.85742,-2.6152 -3.94546,2.3693 -5.60966,4.7713 3.38282,4.9551 0,0 5.75063,-1.2098 13.82812,-3.5664 -2.31263,2.0729 -4.73868,4.5263 -3.60937,4.8554 1.38217,0.4189 5.59952,3.1457 19.54687,-2.7558 -2.44104,2.2467 -4.96196,4.7846 -4.36523,5.2773 0.60428,0.4944 6.71781,-0.2141 14.59179,-2.9004 l -4.30273,5.9786 c 0,0 1.42761,6.6115 18.10352,-4.0489 -2.41056,3.1715 -5.11107,7.0647 -4.61329,8.0489 0.60484,1.1821 6.50405,1.2779 13.375,-2.1836 -2.35412,3.3737 -4.82767,7.4282 -3.73437,8.2949 1.32749,1.0455 6.71225,1.2799 12.50976,-2.2735 -1.716,2.8571 -4.02159,7.054 -3.2207,7.8028 0.86001,0.8036 4.86915,2.7978 10.2207,-0.2891 -0.98802,2.8892 -1.9471,6.5804 -0.58984,7.1485 1.71204,0.7208 5.39635,0.038 9.20508,-4.0645 -0.18324,3.6528 -0.10792,7.4126 0.95508,7.6758 7.69435,-4.4977 8.03005,-5.7381 7.43545,-4.8977 -0.5946,0.8404 -2.11951,3.7617 1.85361,7.5871 1.29558,0.8792 4.39088,1.2663 8.18164,-5.1855 -0.12046,3.659 -0.17814,7.8871 0.21875,8.4258 0.6555,0.8989 6.37805,0.955 7.39063,-6.875 0.46271,3.9852 1.38115,9.5643 2.94921,9.9355 l 39.73633,-10.748 c 0.30544,8.9242 6.48948,9.1865 7.20313,8.2773 0.41994,-0.5221 0.5095,-4.7565 0.51562,-8.4199 3.56409,6.6073 6.67029,6.3625 7.99414,5.5293 0.9924,-0.6177 0.95129,-5.4966 0.83789,-8.4902 2.70888,4.2182 6.83216,6.443 8.53321,6.2011 1.41292,-0.1932 1.25959,-4.8238 1.00195,-7.9179 3.73927,4.4833 7.51696,5.3758 9.28711,4.7168 1.37503,-0.506 0.55678,-4.2026 -0.32813,-7.125 5.23269,3.2774 9.29539,1.4333 10.18946,0.666 0.82748,-0.7159 -1.37621,-5.0692 -2.9961,-7.9961 5.68451,3.8223 11.09675,3.8357 12.45508,2.8359 1.16374,-0.8421 -1.38886,-5.1458 -3.71289,-8.5937 6.85908,3.8889 12.91464,4.0648 13.5625,2.8945 0.53912,-0.9635 -2.03823,-4.9812 -4.3418,-8.2539 16.31062,11.3554 17.96295,4.8027 17.96289,4.8027 l -3.85351,-5.4961 c 7.74443,2.5338 13.70802,3.175 14.29297,2.6875 0.42662,-0.3561 -0.78745,-1.7792 -2.41016,-3.373 12.71288,4.3068 16.44364,1.586 17.75,1.1328 1.16896,-0.4076 -1.74336,-2.8974 -4.26758,-4.834 7.26214,2.533 12.3086,3.8926 12.3086,3.8926 9.69309,0.3697 7.17042,-2.4695 2.75781,-5.1856 10.65309,3.4171 18.35213,4.7317 17.92187,3.4063 -0.54804,-1.7057 -4.89316,-4.9336 -8.63867,-7.4707 7.95811,3.597 13.42025,5.272 16.94727,6.0605 7.38,1.64 4.02148,-1.1504 4.02148,-1.1504 l -9.55468,-5.4218 c 4.37078,1.6819 7.68018,2.6344 10.08398,3.1718 7.38,1.64 4.01953,-1.1503 4.01953,-1.1503 l -13.27148,-7.5313 c 0.005,-0.1029 -0.0371,-0.1973 -0.0371,-0.1973 6,4.38 22.44922,7.4395 22.44922,7.4395 h 0.01 c 0,0 -1.64366,-1.0951 -3.75195,-2.4824 1.60301,0.8357 4.10156,2.1328 4.10156,2.1328 0,0 3.83133,1.7305 0.11133,-0.6895 -5.41,-3.53 -12.71172,-8.091 -16.01172,-9.291 -5.59,-2.03 -32.89984,-14.3899 -37.08984,-16.4199 -4.2,-2.03 -22.11953,-7.0994 -27.01953,-7.8594 -4.89,-0.76 -29.1,-3.0403 -47.5,-4.8203 -1.14938,-0.1112 -2.21755,-0.1476 -3.20899,-0.1172 z" />
    <path
       id="path5179"
       style="fill:none;stroke:#000000;stroke-width:2;stroke-linecap:butt;stroke-linejoin:miter;stroke-miterlimit:4;stroke-dasharray:none;stroke-opacity:1"
       d="m 696.68197,1157.5847 8.90958,-19.7979 m -17.98215,22.3507 12.93139,-26.1387 m -23.35674,32.762 17.29583,-34.7823 m -16.62274,-17.7821 6.33929,-19.6428 m -123.67495,-13.2899 43.76423,-23.4066 m 269.38031,22.6605 -25.09459,-16.2319 m 13.68052,16.7436 -19.39481,-13.8864 m 10.11161,17.9509 -20.82589,-17.2367 m 5.75948,18.5296 -20.0452,-19.2438 m 6.56278,22.945 -20.84849,-21.8736 m 8.96568,22.5591 -21.46568,-21.8448 m 7.3563,22.5382 -18.78487,-22.5382 m 9.56417,27.8976 L 772.85714,1075 m 7.6077,27.584 -12.6077,-22.2269 m 5.41434,29.557 -12.91434,-27.4141 m 3.95536,29.8223 -8.24107,-24.4652 m -1.29409,26.182 -5.49162,-25.4677 m -61.35408,27.8329 0.23478,-19.2863 m -18.66056,14.1066 9.13414,-19.2846 m -17.74938,16.2006 10.95393,-20.9682 m -17.95393,13.4545 9.52706,-15.3782 m -18.30245,9.3568 12.24154,-16.4279 m -21.00325,10.5626 17.01648,-22.4603 m -30.81727,20.5307 20.54986,-20.1989 m -30.77642,17.8219 17.50394,-15.8524 m -33.44144,13.7528 22.32976,-14.763 m -39.5407,13.3743 31.69408,-18.4863"
       inkscape:connector-curvature="0" />
    <path
       style="fill:#d9c0b9;stroke:#000000;stroke-width:1;stroke-miterlimit:4;stroke-dasharray:none;stroke-opacity:1"
       inkscape:connector-curvature="0"
       id="path863"
       d="m 741.9,1157.31 c 0,0 2.49,3.1 2.18,4.1 0,0 2.56,-2.58 -0.74,-6.24 z m -20.58,-5.88 h 1.5 l 0.56,1.4 -0.21,1.28 -1.3,0.6 c 0,0 -2.11,-0.55 -1.6,1.98 0,0 -0.99,-4.64 1.05,-5.26 z m 10.54,10.39 1.54,-1.7 1.66,0.87 c 0,0 -0.69,4.5 -0.95,4.83 -0.26,0.33 -0.3,0.38 -0.3,0.51 0,0.13 -0.27,-0.85 -0.77,-1.42 -0.5,-0.56 -1.01,-3.04 -1.18,-3.09 z m -16.11,-5.59 -0.76,-2.27 0.88,-1.2 1.79,-0.01 0.75,0.36 c 0,0 1.44,3.27 0.18,4.98 0,0 -0.53,-1.84 -1.14,-2.1 0,0 -1.33,-0.2 -1.7,0.24 z m -16.68,3.91 c 0,0 -2.51,4.2 0.75,6.3 0,0 -0.2,-3.92 2.35,-4.76 z m -8.64,-1.7 2.27,-0.59 0.22,0.1 c 0,0 -1.49,2.87 -1.09,3.57 0.41,0.7 -2.03,-1.27 -1.4,-3.08 z" />
    <path
       style="fill:#bd8759;stroke:#000000;stroke-width:1;stroke-miterlimit:4;stroke-dasharray:none"
       d="m 730.39,1133.74 c -0.0592,3.8601 0.29621,7.7426 -0.1,11.5875 -0.23941,2.0872 -1.8294,4.5115 -4.20396,4.1676 -2.3422,-0.2322 -5.01472,0.2058 -5.7126,2.8268 0.53336,-0.5488 3.27719,-0.6 2.18406,1.3717 -1.75612,2.0567 2.72381,0.7725 3.60252,-0.034 1.59356,-1.2531 4.90382,-1.2833 4.52998,1.4956 0.51325,2.2578 -0.61134,4.6841 0.41078,6.8332 1.33404,1.83 1.6132,-2.6832 3.24981,-0.7719 1.02534,0.5483 1.16595,2.5817 1.11691,0.4894 0.31713,-2.7874 -0.96263,-5.3416 -1.3375,-8.0457 1.98661,0.7921 4.12384,1.3658 5.89,2.6 0.76152,1.4352 2.89276,2.6224 2.6925,0.1032 0.55455,-1.567 2.79227,1.1055 1.47579,-0.8043 -1.12967,-2.2666 -3.03897,-4.1759 -5.54499,-4.8242 -2.2061,-0.3816 -4.13511,-2.0229 -4.13463,-4.4112 -0.28084,-4.0375 -0.024,-8.0982 -0.0187,-12.1435 -1.36667,-0.1466 -2.73333,-0.2933 -4.1,-0.44 z m -27.02,19.83 c -1.90255,1.6855 -4.5178,3.2649 -4.78127,6.0458 -1.19153,2.3945 3.40484,0.4442 3.11955,2.8709 2.13964,-0.9035 2.53121,-3.6157 3.62095,-5.4434 0.9968,-1.6716 2.15103,-4.4717 4.51239,-4.0445 2.30162,0.4821 3.34052,3.1653 5.67744,3.4326 2.38871,0.4396 -1.57662,-3.1324 1.24828,-3.2148 3.35263,0.4744 -0.23269,-3.0601 -1.6962,-3.3203 -2.31281,-0.093 -5.82131,-1.3218 -3.52968,-4.0441 1.10995,-2.7314 2.1602,-5.4867 3.20854,-8.2422 -1.46667,-2.1567 -2.93333,-4.3133 -4.4,-6.47 -0.55777,1.9264 -1.30243,3.8403 -1.74504,5.7743 0.33375,2.1098 1.04988,4.3639 -0.24251,6.3085 -0.97632,2.1235 -1.89937,4.297 -3.16245,6.2672 -3.72299,1.8138 -7.69509,3.0921 -11.51066,4.6787 -1.13143,1.0979 -3.02034,2.0681 -3.1131,3.7961 -0.74631,2.1233 1.19698,0.075 2.12095,0.4861 1.3622,-2.0553 2.8278,1.2334 3.98478,-0.8662 0.68976,-1.0438 1.56712,-1.5595 2.82063,-1.5766 0.38247,-0.066 0.76493,-0.1321 1.1474,-0.1981"
       id="path867"
       inkscape:connector-curvature="0" />
    <path
       style="fill:#452c25;stroke:#000000;stroke-width:2;stroke-miterlimit:4;stroke-dasharray:none"
       d="m 747.46,1101.88 c 0.23788,-2.7285 -3.07674,-5.708 -1.75,-7.84 -0.76722,-2.8429 -3.19025,-5.3573 -4.12,-7.7112 1.10285,-2.2211 -3.55966,-4.5751 -4.24625,-6.5701 1.18937,-1.739 -2.28302,-5.1544 -3.95568,-6.7226 -2.8022,-1.9361 -5.22373,-4.845 -8.8649,-5.1728 -6.42098,-0.9997 -12.99016,-1.3466 -19.47063,-0.8462 -4.14021,0.6287 -8.39052,2.8297 -10.56742,6.4678 -0.19171,2.3817 -0.38341,4.7634 -0.57512,7.1451 1.38665,-1.2988 1.41496,-0.5699 0.93673,0.9151 -0.48107,2.7304 -1.34456,5.4207 -1.56261,8.1788 0.72458,3.7599 2.02004,7.4478 1.84713,11.3386 0.3341,6.1645 1.9076,12.6347 5.22584,17.2213 1.3057,2.1978 0.86307,4.5326 2.6327,5.3756 1.46148,2.4449 2.08027,5.3466 3.5809,7.7241 0.45502,-2.5652 1.11165,3.0271 1.40197,4.0204 -0.008,2.1424 0.47127,1.7634 1.29704,0.3065 0.67955,-1.2401 1.28623,-2.0063 1.48356,-0.111 0.32731,1.0946 0.4005,2.5768 1.90692,1.8731 0.98888,0.011 -0.12856,2.0371 -0.008,2.8786 1.53326,-0.8244 5.5928,-3.9808 5.26629,-7.1261 0.0559,-1.4341 1.83271,-1.9157 2.29216,-3.2319 0.61636,-0.9611 1.23273,-1.9221 1.84909,-2.8831 2.94635,2.5486 6.65482,4.7911 7.7925,8.7613 0.26435,2.6212 1.93649,-1.8176 2.29722,0.136 0.43939,0.5845 0.80115,2.965 1.28927,2.4224 0.57172,-1.8134 0.97647,-1.1106 1.33033,0.359 0.342,1.0034 1.32481,3.6157 2.88287,1.3344 2.47332,-2.9422 3.52818,-6.7887 3.95234,-10.5037 1.78209,3.5251 2.65541,-2.6582 3.07303,-4.3143 -0.37552,-1.4933 0.13348,-3.2144 1.3968,-3.0923 0.37883,-3.1876 -0.19456,-6.6171 0.22101,-9.6651 2.23769,-0.8805 0.04,-5.3297 0.32385,-7.6502 -0.0227,-1.215 -1.32559,-3.0035 0.84078,-3.0175 z"
       id="path873"
       inkscape:connector-curvature="0" />
    <path
       style="fill:#dcddde;stroke:#000000;stroke-width:1;stroke-miterlimit:4;stroke-dasharray:none;stroke-opacity:1"
       d="m 697.1,1085.19 c -0.13032,-2.0927 -0.35172,-4.4348 0.95792,-6.2318 0.69882,-2.4083 3.2237,-4.2565 5.75763,-3.7612 2.09511,-0.2657 3.30606,-2.9354 5.6667,-2.2379 1.90276,0.6628 3.55683,-0.6327 5.39662,-0.5295 2.22079,0.2621 3.68052,2.1993 5.65817,2.9861 1.55127,0.3054 3.72572,-0.2187 4.60316,1.4865 0.44669,1.8722 -0.16841,4.2485 1.87467,5.3964 1.79287,1.4757 2.29231,4.1867 1.52059,6.3202 1.1738,1.7491 1.25058,4.2335 -0.34601,5.7372 -1.22327,2.0975 -0.32875,4.8615 -1.84702,6.8192 -1.37372,1.4978 -3.69282,1.6872 -4.87374,3.4041 -1.16375,1.2473 -3.3967,1.6743 -4.50979,0.1375 -1.00297,-1.0765 -1.41908,-2.8935 -3.00306,-3.2718 -1.33915,0.045 -2.08066,1.3936 -3.1331,2.0491 -1.73086,1.4507 -4.26563,2.4331 -6.4037,1.2483 -2.24334,-1.1636 -3.86493,-3.4661 -4.17162,-5.9773 -0.12177,-1.7582 -2.04675,-2.1083 -2.84614,-3.4189 -1.43442,-1.7652 -0.0655,-3.7066 0.63892,-5.3843 0.59182,-1.7246 -0.60681,-3.1571 -0.9402,-4.7719 z"
       id="path877"
       inkscape:connector-curvature="0" />
    <path
       style="fill:#d9c0b9;stroke:#000000;stroke-width:1;stroke-miterlimit:4;stroke-dasharray:none"
       inkscape:connector-curvature="0"
       id="path901"
       d="m 670.35,1097.23 c 0,0 -2.95,-5.08 5.24,-7.57 0,0 2.48,1.35 3.05,2.28 0,0 -1.43,2.39 -6.1,3 0,0 -2.1,0.63 -2.19,2.29 z" />
    <path
       style="fill:#d9c0b9;stroke:#000000;stroke-width:0.55000001"
       inkscape:connector-curvature="0"
       id="path905"
       d="m 671.21,1096.4 c 0,0 3.3,0.7 5.52,-0.93 1.83,-1.34 2.48,-0.73 2.96,-0.63 0,0 0.1,-1.65 -1.05,-2.9 0,0 -2.32,1.91 -4.03,2.43 -1.71,0.52 -2.87,0.35 -3.4,2.03 z" />
    <path
       inkscape:connector-curvature="0"
       id="path907"
       d="m 711.3,1080.57 c -5.64111,0.8309 -11.2183,2.4328 -16.94774,2.4384 -2.51223,-0.5098 -4.85133,-1.8787 -7.4828,-1.7404 -2.27633,-0.121 -4.93385,0.077 -6.46162,2.0094 -1.65007,1.475 -3.40714,2.8445 -4.92075,4.4584 -1.70677,1.1864 -1.20237,4.1457 1.05507,4.1617 1.99263,0.5571 2.68309,2.6122 4.15315,3.7359 3.87555,1.6786 8.23787,0.9039 12.15886,-0.2018 3.52966,-1.0791 7.26506,-0.903 10.89087,-0.6136 4.22464,-0.2574 8.33091,-1.8131 11.85621,-4.1137 1.9984,-1.6322 3.36595,-4.5698 2.35737,-7.0976 -0.70067,-1.8221 -2.61922,-2.7317 -4.46421,-2.8817 -0.7273,-0.099 -1.46151,-0.1304 -2.19441,-0.155 z"
       style="fill:#dba05f;stroke:#000000;stroke-width:1;stroke-miterlimit:4;stroke-dasharray:none" />
    <path
       inkscape:connector-curvature="0"
       id="path921"
       d="m 688.04,1081.76 c -0.0938,-1.6365 -1.41996,-3.0617 -3.01743,-3.3618 -1.59311,-0.4689 -3.28506,-0.745 -4.94135,-0.5316 -0.90382,0.2973 -1.78438,0.6912 -2.73589,0.811 -0.81641,0.1888 -1.76774,0.5555 -2.015,1.4487 -0.33862,0.8012 -1.36256,1.3426 -1.17261,2.3248 0.25804,0.5404 0.23365,1.5238 1.02108,1.5555 -0.7718,-0.6524 -1.62185,0.3041 -2.31589,0.6399 -0.78124,0.5418 -1.4495,1.563 -1.01836,2.5259 0.24084,0.7243 0.68546,1.6613 1.58227,1.6282 0.96429,-0.2577 1.86215,-0.7429 2.71891,-1.2412 1.02804,-0.8517 1.92335,-1.8559 2.95859,-2.7001 0.73444,-0.4205 1.57754,-0.6428 2.35358,-0.9891 0.94003,-0.3251 1.89776,-0.8427 2.92259,-0.6232 0.74283,0.1867 1.39064,-0.2265 2.00282,-0.5785 0.55223,-0.3028 1.10446,-0.6057 1.65669,-0.9085 z"
       style="fill:#c6262c;stroke:#000000;stroke-width:1;stroke-miterlimit:4;stroke-dasharray:none" />
    <path
       inkscape:connector-curvature="0"
       id="path923"
       d="m 685.31,1087.01 c 0,0.56 -1.04351,1.8798 -1.74351,2.1998 -0.7,0.34 -1.26,0.15 -1.26,-0.4 0,-0.56 0.4653,-2.1639 1.1653,-2.4939 0.7,-0.33 1.83821,0.1341 1.83821,0.6941"
       style="stroke-width:0"
       sodipodi:nodetypes="ccssc" />
    <path
       style="fill:#dcddde;stroke:#000000;stroke-width:1;stroke-miterlimit:4;stroke-dasharray:none"
       d="m 694.56,1075.41 c -13.08123,-0.1584 -22.73947,-8.7007 -27.8925,-19.6025 -1.69879,-7.1597 -12.05129,-2.2873 -18.28412,-5.0122 -6.93468,0.071 -12.32128,-2.3763 -20.00496,-0.7006 12.32349,-5.9289 -8.67378,-1.18 -13.88592,-0.3522 -13.80161,3.4154 -26.60851,9.4671 -39.63453,15.061 -7.79604,3.1213 -20.92645,8.2398 -25.74828,9.9804 24.7158,-14.5676 51.29952,-26.2587 79.0265,-33.6681 11.65409,-2.7312 22.68295,3.7799 34.37682,1.7021 14.21313,-5.1723 20.69217,13.7673 17.17324,22.5034 8.117,1.9155 15.31642,11.4855 23.4525,3.2712 11.62458,-3.9486 23.85319,5.4429 34.6075,-1.5225 12.53056,-0.3931 16.40537,-9.6212 18.91666,-19.7877 9.43323,-8.9228 23.51332,-1.8447 34.96992,-2.2601 21.02483,1.4573 42.29705,4.723 61.18564,14.6231 15.10708,7.623 32.01505,11.9355 45.47153,22.4747 -11.47875,-6.4613 -24.20396,-9.86 -35.90922,-15.7839 -6.36184,-2.0608 -23.10468,-13.7969 -24.75328,-7.3686 5.79933,5.3226 -12.90705,-4.5272 -17.34281,-5.4456 -11.42423,-1.6188 -22.88521,-3.2265 -34.51084,-3.826 -5.0748,0.2087 -6.49489,-0.666 -11.90667,0.8183 -3.89796,4.7017 -11.28494,-2.9458 -10.89886,7.3601 -2.62963,10.4591 -16.58922,11.6502 -25.36832,14.3057 -12.05718,2.1886 -25.01015,-6.7213 -36.86406,0.047 l -1.56844,0.9081 -1.7475,1.415"
       id="path937"
       inkscape:connector-curvature="0" />
  </g>
</svg>
