<?xml version="1.0" encoding="UTF-8" standalone="no"?>
<svg
   xmlns:dc="http://purl.org/dc/elements/1.1/"
   xmlns:cc="http://creativecommons.org/ns#"
   xmlns:rdf="http://www.w3.org/1999/02/22-rdf-syntax-ns#"
   xmlns:svg="http://www.w3.org/2000/svg"
   xmlns="http://www.w3.org/2000/svg"
   xmlns:sodipodi="http://sodipodi.sourceforge.net/DTD/sodipodi-0.dtd"
   xmlns:inkscape="http://www.inkscape.org/namespaces/inkscape"
   width="1000"
   height="500"
   version="1.1"
   id="svg50"
   sodipodi:docname="ic_flag_kz.svg"
   inkscape:version="0.92.1 r15371">
  <metadata
     id="metadata56">
    <rdf:RDF>
      <cc:Work
         rdf:about="">
        <dc:format>image/svg+xml</dc:format>
        <dc:type
           rdf:resource="http://purl.org/dc/dcmitype/StillImage" />
        <dc:title></dc:title>
      </cc:Work>
    </rdf:RDF>
  </metadata>
  <defs
     id="defs54" />
  <sodipodi:namedview
     pagecolor="#ffffff"
     bordercolor="#666666"
     borderopacity="1"
     objecttolerance="10"
     gridtolerance="10"
     guidetolerance="10"
     inkscape:pageopacity="0"
     inkscape:pageshadow="2"
     inkscape:window-width="2075"
     inkscape:window-height="1153"
     id="namedview52"
     showgrid="false"
     inkscape:zoom="1"
     inkscape:cx="409.12798"
     inkscape:cy="162.53884"
     inkscape:window-x="0"
     inkscape:window-y="0"
     inkscape:window-maximized="0"
     inkscape:current-layer="svg50" />
  <path
     fill="#00afca"
     d="M0 0h1000v500H0z"
     id="path2" />
  <circle
     style="fill:#fec50c;stroke-width:0.5"
     cy="210"
     cx="540.23602"
     id="circle4"
     r="67.275002" />
  <path
     style="fill:#fec50c;stroke-width:0.5"
     d="M 525.32135,135.01897 C 537.24459,132.56613 521.32807,112.62085 519.67119,107.82511 520.8575,115.71822 513.26976,137.49821 525.32135,135.01897 Z M 465.25496,224.91467 C 462.80213,212.99141 442.85683,228.90793 438.06109,230.56482 445.95421,229.37851 467.73419,236.96626 465.25496,224.91467 Z M 555.15066,284.98105 C 543.2274,287.43388 559.14392,307.37918 560.80081,312.17492 559.6145,304.2818 567.20225,282.50182 555.15066,284.98105 Z M 497.76266,146.43418 C 507.83966,139.60524 485.50198,127.26917 482.13597,123.47255 486.25254,130.31085 487.57721,153.33662 497.76266,146.43418 Z M 476.67016,252.47337 C 469.84121,242.39637 457.50514,264.73406 453.70852,268.10007 460.54682,263.9835 483.57261,262.65883 476.67016,252.47337 Z M 476.67017,167.52666 C 483.36678,157.36124 458.00864,154.51246 453.44594,152.29295 459.86607,157.03538 469.90149,177.80149 476.67017,167.52666 Z M 497.76267,273.56586 C 487.59725,266.86927 484.74848,292.2274 482.52897,296.79009 487.2714,290.36996 508.0375,280.33454 497.76267,273.56586 Z M 465.25498,195.08534 C 467.5517,183.13104 443.03365,190.20324 437.9689,189.89875 445.71517,191.82331 462.93354,207.16831 465.25498,195.08534 Z M 525.32134,284.98103 C 513.36703,282.68432 520.43925,307.20236 520.13476,312.26711 522.05932,304.52084 537.40432,287.30246 525.32134,284.98103 Z M 555.15066,135.01897 C 567.10497,137.3157 560.03276,112.79764 560.33725,107.73289 558.41269,115.47916 543.06769,132.69753 555.15066,135.01897 Z M 510.97984,139.36942 C 522.25583,134.61215 502.69364,118.18071 500.133,113.80036 502.83639,121.31037 499.70385,144.12669 510.97984,139.36942 Z M 469.6054,239.25616 C 464.87359,228.04054 448.4167,247.54236 444.03635,250.10301 451.54636,247.39962 474.38814,250.59251 469.6054,239.25616 Z M 569.49213,280.63059 C 558.27649,285.36239 577.77833,301.8193 580.33898,306.19965 577.63559,298.68963 580.82848,275.84786 569.49213,280.63059 Z M 486.1777,155.94171 C 494.7288,147.27805 470.41368,139.53689 466.37166,136.4699 471.74323,142.3737 477.53456,164.69862 486.1777,155.94171 Z M 486.1777,264.05834 C 477.51404,255.50722 469.77288,279.82235 466.70588,283.86437 472.60968,278.4928 494.9346,272.70149 486.1777,264.05834 Z M 469.60542,180.74385 C 474.19018,169.46731 448.76351,171.62039 443.85549,170.33368 451.07745,173.73247 464.97131,192.14176 469.60542,180.74385 Z M 510.97985,280.63059 C 499.70331,276.04584 501.85641,301.47249 500.56969,306.38052 503.96848,299.15855 522.37777,285.26469 510.97985,280.63059 Z M 463.786,210 C 463.70642,197.82732 441.0392,209.54688 436.01237,210.23633 443.98526,210.61268 463.86644,222.30369 463.786,210 Z M 540.236,286.45 C 528.06332,286.52958 539.78288,309.1968 540.47233,314.22363 540.84868,306.25074 552.53969,286.36956 540.236,286.45 Z M 540.236,133.55 C 552.40868,133.47042 540.68912,110.8032 539.99967,105.77637 539.62332,113.74926 527.93231,133.63044 540.236,133.55 Z M 615.21703,195.08536 C 617.66986,207.00861 637.61515,191.09209 642.4109,189.4352 634.51778,190.62152 612.7378,183.03378 615.21703,195.08536 Z M 582.70936,273.56589 C 572.63236,280.39483 594.97004,292.7309 598.33605,296.52752 594.21948,289.68922 592.89481,266.66345 582.70936,273.56589 Z M 603.80186,167.52669 C 610.63081,177.60368 622.96687,155.266 626.76349,151.89999 619.92519,156.01656 596.8994,157.34123 603.80186,167.52669 Z M 603.80188,252.47335 C 597.10528,262.63877 622.46341,265.48755 627.02611,267.70706 620.60598,262.96463 610.57056,242.19852 603.80188,252.47335 Z M 582.70936,146.43415 C 592.87478,153.13076 595.72356,127.77262 597.94307,123.20992 593.20064,129.63005 572.43452,139.66547 582.70936,146.43415 Z M 615.21705,224.91465 C 612.92034,236.86896 637.43838,229.79674 642.50313,230.10123 634.75686,228.17668 617.53848,212.83168 615.21705,224.91465 Z M 610.86658,180.74386 C 615.59838,191.95949 632.05529,172.45766 636.43564,169.89702 628.92563,172.60041 606.08385,169.40751 610.86658,180.74386 Z M 594.29433,264.05835 C 585.74322,272.722 610.05834,280.46316 614.10036,283.53016 608.72879,277.62636 602.93748,255.30144 594.29433,264.05835 Z M 594.29432,155.94172 C 603.18371,164.25788 610.69914,140.17767 613.76614,136.13564 608.16959,141.21527 585.42772,147.64688 594.29432,155.94172 Z M 610.86659,239.25615 C 606.28184,250.53269 631.70849,248.37959 636.61652,249.66631 629.39455,246.26752 615.50069,227.85823 610.86659,239.25615 Z M 569.49216,139.36941 C 580.7687,143.95416 578.6156,118.5275 579.90232,113.61948 576.50353,120.84144 558.09424,134.73531 569.49216,139.36941 Z M 616.686,210 C 616.76558,222.17268 639.4328,210.45312 644.45963,209.76367 636.48674,209.38732 616.60556,197.69631 616.686,210 Z"
     id="use4596"
     inkscape:connector-curvature="0"
     sodipodi:nodetypes="scsscsscsscsscsscsscsscsscsscsscsscsscsscsscsscsscsscsscsscsscsscsscsscsscsscsscsscsscsscsscsscs" />
  <path
     style="fill:#fec50c;stroke-width:0.5"
     d="M 676.0293,219.99023 C 675.81868,219.98809 675.59633,220.00284 675.36133,220.03516 672.38033,220.56966 673.08838,225.03061 671.85938,227.28711 669.15387,236.47561 667.88348,246.42716 662.33398,254.47266 663.58248,247.00616 665.76684,239.22359 664.08984,231.68359 663.30634,228.31409 657.86541,229.76266 658.56641,233.09766 652.06541,266.02766 629.96831,294.82828 601.07031,311.48828 587.83831,318.97478 573.05994,323.80028 558.02344,325.98828 553.97844,326.87378 549.60233,326.35538 545.73633,327.73438 536.36833,334.91788 530.69694,346.93717 518.83594,350.70117 513.51994,353.34317 506.58811,353.87986 502.78711,358.81836 502.45811,359.44986 502.38739,360.18231 502.40039,360.88281 504.96456,363.22978 506.83765,360.92133 509.13672,359.63672 508.93165,359.85534 508.81718,360.14362 508.81641,360.44336 508.81636,361.09706 509.3463,361.627 510,361.62695 510.6537,361.627 511.18364,361.09706 511.18359,360.44336 511.18364,359.78966 510.6537,359.25972 510,359.25977 509.94637,359.26069 509.89286,359.26526 509.83984,359.27344 518.68512,356.23084 526.40126,350.91371 534.00977,345.60156 538.61977,341.78656 542.61709,336.83906 548.80859,335.60156 560.88609,331.95006 573.72561,332.39344 585.84961,329.02344 595.08211,316.38344 610.76294,311.87487 623.89844,304.60938 626.84794,303.69288 627.98573,301.26398 628.92773,298.58398 633.94173,290.66898 640.77356,283.65623 648.85156,278.86523 652.67356,276.77673 657.23355,275.5743 661.56055,276.5293 661.25055,281.6828 658.29411,286.25045 654.72461,289.81445 657.64561,289.75045 660.15542,287.90381 663.10742,288.00781 664.11892,293.29681 658.40814,296.06638 655.36914,299.35938 657.06164,299.75288 663.54522,300.242 660.01172,301.9375 655.50922,305.0625 650.36744,307.20889 646.21094,310.83789 650.04594,311.52689 650.48153,312.34152 646.58203,313.72852 644.47103,315.15952 640.41203,315.65977 640.01953,318.44727 642.91653,320.22777 638.68473,321.99522 637.05273,322.57422 633.93173,323.30122 630.65528,324.65634 634.80078,327.02734 633.23278,329.39634 629.86659,329.90247 627.12109,329.66797 627.95409,332.35297 629.16078,335.35847 625.67578,336.54297 617.86378,342.44797 608.69695,346.74211 598.87695,347.72461 611.14445,348.66761 623.77872,346.3922 634.26172,339.7207 635.64572,338.0842 642.90275,336.32522 638.84375,334.94922 636.93275,334.15422 632.83559,333.27145 632.55859,331.81445 638.23609,328.31145 645.39005,329.55561 651.49805,327.47461 651.65605,325.49711 646.8535,326.04766 645.0625,325.59766 640.791,325.24766 641.04166,324.15791 645.16016,323.75391 650.37116,322.37391 656.27275,322.10258 660.65625,318.70508 657.08725,317.05158 652.59706,318.50625 648.78906,317.15625 655.24456,314.33125 662.86034,314.04819 668.65234,309.80469 671.29084,306.86969 665.27303,307.78787 663.51953,307.85938 659.94453,308.48188 658.29152,306.7687 662.35352,305.2832 669.28852,300.1697 678.06991,296.84905 682.94141,289.43555 684.09541,287.77605 685.65706,282.77572 681.97656,284.57422 677.13656,286.18372 672.87828,291.62441 667.36328,289.94141 678.22978,281.51941 688.56909,271.93234 695.99609,260.27734 696.38009,256.91584 691.10397,256.55241 689.73047,259.19141 682.74897,265.91841 676.43069,273.85867 667.49219,278.07617 676.05269,269.81367 683.12969,260.03062 689.30469,249.89062 690.62869,246.87463 694.18686,243.24694 692.25586,239.89844 689.14336,237.32194 685.25031,239.68067 683.63281,242.76367 678.20581,249.84867 674.08447,258.11817 667.10547,263.88867 673.21547,252.22817 679.54081,239.81473 679.69531,226.36523 679.6775,223.7693 679.18859,220.0224 676.0293,219.99023 Z M 404.80664,220.12891 C 391.79664,225.04224 409.72176,257.55909 413.04688,264.01758 405.53382,259.95255 397.34427,235.55105 388.92578,239.40234 380.38331,241.88686 413.62484,278.62651 411.37109,277.56055 407.62272,275.07343 383.59309,252.29515 384.15625,260.40625 390.29875,270.25725 398.80436,278.41895 407.56836,285.93945 408.63936,287.47795 412.93131,289.24186 412.13281,290.31836 406.81223,291.30019 390.1697,277.88068 397.69922,289.42773 404.91922,297.11573 415.06034,301.00561 424.52734,305.16211 421.20734,306.56761 417.45916,305.46094 413.97266,305.46094 412.60066,305.82544 407.78353,304.064 408.95703,306.25 413.42484,311.69865 438.8838,312.06701 423.25391,314.73633 408.37651,316.8382 426.97787,318.69807 430.28711,319.54688 435.71101,320.80551 425.41164,322.03274 424.50391,323.45312 434.35305,329.47614 444.89921,324.72903 432.78125,330.83008 430.80919,332.47225 444.46725,335.44039 450.21875,337.96289 461.31575,342.89989 473.09139,346.50548 485.27539,347.20898 481.08239,346.41548 476.99031,345.15619 472.94531,343.80469 462.78531,340.36019 452.50547,336.7842 443.23047,331.3457 445.30647,329.7492 447.78964,328.78489 449.80664,327.08789 445.78764,326.94889 441.77536,325.68247 438.25586,323.73047 434.48836,322.37447 438.91344,320.65844 440.33594,319.21094 440.05394,317.79144 436.4507,317.58953 434.8457,316.76953 432.3072,316.83953 431.57164,313.72227 433.55664,312.38477 436.44914,310.93727 432.24906,310.06687 430.97656,309.54688 428.78156,308.35387 431.39203,305.65677 430.33203,304.25977 425.15353,303.43177 420.91153,300.13706 416.95703,296.91406 417.68953,296.14406 421.45619,296.31091 423.36719,296.00391 419.38319,293.10891 415.87613,289.47305 413.14062,285.37305 414.16162,284.60605 417.82477,285.25202 419.88477,285.04102 419.46627,279.95052 416.44237,275.40578 413.42188,271.42578 413.72287,270.09878 417.06148,270.19063 418.39648,271.14062 420.84998,273.34612 419.94227,269.01975 421.94727,268.53125 424.05727,270.10425 426.27861,271.54053 428.16211,273.39453 438.04111,281.89253 443.83141,294.12033 453.94141,302.36133 458.67241,306.39483 464.60378,308.39609 470.48828,309.99609 484.70001,320.78475 489.13125,329.75153 507.69727,330.78125 516.28527,331.19125 526.09864,330.98794 532.86914,337.14844 535.11914,334.30394 536.15039,330.65161 537.90039,327.47461 L 537.90136,327.47363 537.90234,327.47266 C 473.85247,321.31769 436.38091,291.73633 420.72656,230.58203 410.98698,226.75161 417.058,250.34624 417.82031,254.60156 412.83435,248.4053 407.73631,220.35344 404.80664,220.12891 Z M 528.23438,355.73438 C 526.43437,355.83438 524.6838,356.06719 522.9668,356.61719 520.6168,356.93419 518.3662,357.74931 516.0332,358.13281 L 515.09961,358.2832 513.5332,358.43359 C 514.44039,362.18718 510.81928,364.38833 507.86719,362.30078 505.84599,362.91034 504.15454,362.35999 502.44922,361.40039 498.43493,363.65219 495.64536,366.7048 497.69922,371.25 497.88272,371.5665 498.03311,370.10039 498.59961,369.90039 499.54961,369.11689 500.73359,368.55087 501.93359,368.23438 502.95009,367.71738 502.81689,368.26641 502.40039,369.06641 502.30039,369.48341 501.7335,371.06563 502.5,370.26562 505.8835,368.76562 509.6332,368.46659 513.2832,368.18359 518.5832,367.63359 523.9003,367.51572 529.2168,367.44922 536.93821,366.49906 544.4099,369.04717 551.34961,367.9668 551.91611,367.8168 552.79931,367.78272 553.13281,367.44922 552.06581,366.83272 550.81581,366.81602 549.63281,366.66602 543.99191,366.46161 537.05149,367.23817 532.18359,365.36719 531.51659,365.10069 530.89913,364.46689 530.26562,365.15039 527.58905,366.08882 524.58481,365.84651 522.18359,364.90039 523.35009,363.28389 524.7497,361.86719 526.0332,360.36719 524.9997,360.20069 524.0003,359.98438 522.9668,359.73438 524.7838,358.48438 526.46737,357.06738 528.23438,355.73438 Z M 590.83594,356.40625 C 590.07528,356.41624 589.31253,356.43588 588.55078,356.46875 585.83228,356.75025 583.04964,356.30844 583.36914,359.52344 582.85314,362.06194 577.48656,361.21127 578.97656,363.38477 580.65906,366.13677 575.93437,367.82131 573.98438,369.00781 561.91437,373.53581 548.71637,370.70019 536.17188,372.24219 528.88038,372.86119 520.21172,375.64553 518.13672,383.58203 523.46122,384.99903 527.92666,380.47455 532.16016,377.93555 533.43366,378.62155 531.36147,383.25509 533.35547,384.87109 537.48147,384.54809 540.12867,380.06541 542.51367,377.00391 544.53467,379.29941 541.57352,382.80309 543.41602,384.87109 548.16052,385.31809 550.13711,379.73773 553.53711,377.49023 555.81161,377.10573 552.59191,382.50775 554.37891,383.96875 557.64341,385.35325 561.01736,383.02578 562.06836,379.86328 563.59986,375.39228 565.01061,378.70258 565.59961,381.51758 567.50261,384.70558 571.17859,381.7028 572.55859,379.5918 574.25109,375.2733 575.89633,379.06555 578.11133,380.87305 582.78683,381.61105 584.24963,376.08739 587.14062,373.65039 586.92012,376.36439 589.88133,379.88381 592.29883,377.13281 594.31933,375.27181 594.52109,371.34247 596.68359,370.16797 599.71159,371.32447 602.47711,375.18086 606.09961,373.00586 608.26861,371.42036 607.91287,368.28611 608.42188,365.91211 607.67937,361.38961 611.46619,367.60677 613.99219,367.19727 619.28019,369.02577 625.84769,364.86827 624.92969,358.94727 613.53766,358.53852 602.24574,356.25646 590.83594,356.40625 Z"
     id="path25"
     inkscape:connector-curvature="0"
     sodipodi:nodetypes="cccccccccccccccccccccccccccccccccccccccccccccccccccccccccccccccccccccccccccccccccccccccccccccccccccccccccccccccccccccccccccccccccccccccccccccccccccccccc" />
  <circle
     style="fill:#fec50c;stroke:#00afca;stroke-width:0.19050001"
     id="circle33"
     r="0.48249999"
     cy="360.25351"
     cx="509.89999" />
  <path
     style="fill:#fec50c;stroke-width:0.5"
     d="M 32.484375,27.5 C 40.633185,40.39673 33.454593,49.186106 33.300781,59.460938 33.300781,64.692937 36.337812,68.055016 39.320312,69.603516 36.691825,69.95976 35.098385,71.11389 34.019682,72.580087 35.316994,74.302622 36.924324,75.329813 38.515625,75.792969 35.120548,78.298564 33.400391,81.933969 33.400391,85.308594 33.863708,98.386696 41.095336,107.3869 32.378906,117.83789 40.239406,116.22739 43.329453,109.4197 40.814453,104.4707 42.416453,103.8047 43.578125,104.85728 44.828125,105.42578 44.875125,102.69578 43.780687,101.49742 42.992188,100.10742 42.992187,100.10742 44.351172,100.17534 45.576172,100.65234 45.411172,98.897348 44.596186,97.327547 42.992188,96.560547 49.735686,97.651047 53.332031,93.287969 53.332031,88.105469 53.332031,82.885469 48.701188,81.517453 45.679688,82.376953 45.551188,81.644453 45.563672,80.868891 45.951172,80.025391 44.031672,80.476391 43.144094,81.548186 43.808594,83.742188 42.686594,83.935688 41.813234,84.504688 41.052734,85.242188 41.772277,86.068924 42.738346,86.642677 43.808594,86.878906 43.146594,88.676906 44.303891,90.115328 45.712891,90.423828 45.712891,90.423828 44.916906,86.605469 47.753906,86.605469 48.877406,86.605469 49.658203,87.305328 49.658203,88.923828 49.658203,91.246328 48.285512,93.211862 45.033203,92.607422 35.694348,90.871801 40.520575,76.859925 47.685547,77.603516 55.259857,78.389589 57.71752,85.081727 54.828125,91.242188 48.641625,104.02319 32.751953,137.06836 32.751953,137.06836 30.781453,141.15886 29.998047,143.84123 29.998047,148.11523 29.998047,154.99734 34.285395,160.38037 42.357422,161.26953 34.285247,162.15861 29.998047,167.54361 29.998047,174.42578 29.998047,178.69978 30.781453,181.3802 32.751953,185.4707 32.751953,185.4707 48.641625,218.51586 54.828125,231.29688 57.471752,237.27499 53.723446,244.98443 47.685547,244.93555 38.184427,244.85863 37.730532,230.16934 45.033203,229.93359 48.341203,229.93359 49.658203,231.29273 49.658203,233.61523 49.658203,235.23373 48.877406,235.93359 47.753906,235.93359 44.916906,235.93359 45.712891,232.11523 45.712891,232.11523 44.303891,232.42373 43.146594,233.86411 43.808594,235.66211 42.738346,235.89834 41.772277,236.47209 41.052734,237.29883 41.813234,238.03633 42.686594,238.60533 43.808594,238.79883 43.144094,240.99283 44.031672,242.06462 45.951172,242.51562 45.563672,241.67212 45.551188,240.89461 45.679688,240.16211 48.701188,241.02161 53.332031,239.65359 53.332031,234.43359 53.332031,229.25109 49.735686,224.88802 42.992188,225.97852 44.596187,225.21152 45.411172,223.64172 45.576172,221.88672 44.351172,222.36372 42.992187,222.43164 42.992188,222.43164 43.780687,221.04164 44.875125,219.84328 44.828125,217.11328 43.578125,217.68178 42.416453,218.73436 40.814453,218.06836 43.329453,213.11936 40.239406,206.31167 32.378906,204.70117 41.357896,215.73568 33.531021,228.29642 33.400391,237.23047 33.400391,240.60547 35.121744,244.24047 38.517578,246.74609 36.288507,247.36985 34.847578,248.48679 34.015625,249.99805 34.018111,249.99875 34.020951,249.9993 34.023438,250 34.020951,250.0007 34.018111,250.00125 34.015625,250.00195 34.847578,251.51321 36.288507,252.63015 38.517578,253.25391 35.121744,255.75953 33.400391,259.39453 33.400391,262.76953 33.863708,275.84763 41.095336,284.84784 32.378906,295.29883 40.239406,293.68833 43.329453,286.88064 40.814453,281.93164 42.416453,281.26564 43.578125,282.31822 44.828125,282.88672 44.875125,280.15672 43.780687,278.95836 42.992188,277.56836 42.992187,277.56836 44.351172,277.63628 45.576172,278.11328 45.411172,276.35828 44.596186,274.78848 42.992188,274.02148 49.735686,275.11198 53.332031,270.74891 53.332031,265.56641 53.332031,260.34641 48.701188,258.97839 45.679688,259.83789 45.551188,259.10539 45.563672,258.32788 45.951172,257.48438 44.031672,257.93538 43.144094,259.00717 43.808594,261.20117 42.686594,261.39467 41.813234,261.96367 41.052734,262.70117 41.772277,263.52791 42.738346,264.10166 43.808594,264.33789 43.146594,266.13589 44.303891,267.57627 45.712891,267.88477 45.712891,267.88477 44.916906,264.06641 47.753906,264.06641 48.877406,264.06641 49.658203,264.76627 49.658203,266.38477 49.658203,268.70727 48.28549,270.67097 45.033203,270.06641 35.694727,268.3305 40.519953,254.32107 47.685547,255.06445 55.26052,255.8503 57.717867,262.54173 54.828125,268.70312 48.641625,281.48413 32.751953,314.5293 32.751953,314.5293 30.781453,318.6198 29.998047,321.30022 29.998047,325.57422 29.998047,332.45639 34.285247,337.84139 42.357422,338.73047 34.285395,339.61963 29.998047,345.00266 29.998047,351.88477 29.998047,356.15877 30.781453,358.84114 32.751953,362.93164 32.751953,362.93164 48.641625,395.97681 54.828125,408.75781 57.471888,414.73497 53.722368,422.44572 47.685547,422.39648 38.185236,422.31899 37.727903,407.5549 45.033203,407.39258 48.340387,407.3191 49.658203,408.75367 49.658203,411.07617 49.658203,412.69467 48.877406,413.39453 47.753906,413.39453 44.916906,413.39453 45.712891,409.57617 45.712891,409.57617 44.303891,409.88467 43.146594,411.32309 43.808594,413.12109 42.738346,413.35732 41.772277,413.93107 41.052734,414.75781 41.813234,415.49531 42.686594,416.06431 43.808594,416.25781 43.144094,418.45181 44.031672,419.52361 45.951172,419.97461 45.563672,419.13111 45.551188,418.35555 45.679688,417.62305 48.701188,418.48255 53.332031,417.11453 53.332031,411.89453 53.332031,406.71203 49.735686,402.34895 42.992188,403.43945 44.596187,402.67245 45.411172,401.10266 45.576172,399.34766 44.351172,399.82466 42.992187,399.89258 42.992188,399.89258 43.780687,398.50258 44.875125,397.30422 44.828125,394.57422 43.578125,395.14272 42.416453,396.1953 40.814453,395.5293 43.329453,390.5803 40.239406,383.77261 32.378906,382.16211 41.357896,393.19662 33.531021,405.75736 33.400391,414.69141 33.400391,418.06603 35.120548,421.70144 38.515625,424.20703 36.287653,424.83089 34.847338,425.94816 34.015625,427.45898 34.017524,427.45952 34.019585,427.4604 34.021484,427.46094 H 34.017578 C 35.607578,429.59744 36.641312,430.22598 39.320312,430.39648 36.337812,431.94498 33.300781,435.30706 33.300781,440.53906 33.876923,454.83975 40.773247,458.8498 32.484375,472.5 39.798875,471.768 43.423828,464.99648 41.361328,459.58398 42.525328,459.41648 43.582234,459.67906 44.490234,460.53906 45.025234,459.03906 44.180328,457.29737 43.048828,455.79688 43.960328,455.30987 44.630031,455.60234 46.082031,455.90234 45.944031,454.35634 45.017953,452.71397 42.751953,451.16797 49.327453,452.87547 53.373047,448.29214 53.373047,443.49414 53.373047,439.87014 50.834063,437.27344 48.351562,437.27344 47.549563,437.27344 46.369578,437.60311 45.705078,438.09961 45.236078,437.10211 45.478436,435.76703 45.960938,434.76953 44.141936,435.25053 42.986594,436.33108 43.808594,438.58008 42.411094,438.70858 41.300922,439.18058 40.544922,440.08008 41.310922,441.06158 42.472094,441.62608 43.808594,441.58008 42.791094,443.68008 43.925625,444.85559 45.578125,445.80859 45.578125,445.80859 44.527437,441.58008 47.210938,441.58008 48.417437,441.58008 49.515625,441.97345 49.515625,443.75195 49.515625,445.30045 48.057864,448.12335 45.033203,447.30859 34.823637,444.55842 39.615508,432.454 47.982422,433.10742 65.932314,434.50923 47.198055,455.92345 46.978516,465.21094 46.817396,472.02702 55.310574,472.67365 60,469.36523 65.412162,473.15676 73.180894,470.62568 73.021484,465.21094 72.781284,457.05196 55.39111,433.04344 72.017578,433.10742 82.60417,433.14816 82.821001,446.8314 74.966797,447.30859 71.840087,447.49856 70.484375,445.30045 70.484375,443.75195 70.484375,441.97345 71.582562,441.58008 72.789062,441.58008 75.472562,441.58008 74.421875,445.80859 74.421875,445.80859 76.074375,444.85559 77.208906,443.68008 76.191406,441.58008 77.527906,441.62608 78.689078,441.06158 79.455078,440.08008 78.699078,439.18058 77.588906,438.70858 76.191406,438.58008 77.013406,436.33108 75.858064,435.25053 74.039062,434.76953 74.521563,435.76703 74.763922,437.10211 74.294922,438.09961 73.630422,437.60311 72.450438,437.27344 71.648438,437.27344 69.165937,437.27344 66.626953,439.87014 66.626953,443.49414 66.626953,448.29214 70.672547,452.87547 77.248047,451.16797 74.982047,452.71397 74.055969,454.35634 73.917969,455.90234 75.369969,455.60234 76.039672,455.30986 76.951172,455.79688 75.819672,457.29737 74.974766,459.03906 75.509766,460.53906 76.417766,459.67906 77.474672,459.41648 78.638672,459.58398 76.576172,464.99648 80.201125,471.768 87.515625,472.5 79.366814,459.60327 86.545407,450.8139 86.699219,440.53906 86.699219,435.30706 83.662188,431.94498 80.679688,430.39648 83.358687,430.22598 84.392422,429.59744 85.982422,427.46094 H 85.978516 C 85.980415,427.4604 85.982476,427.45952 85.984375,427.45898 85.152662,425.94816 83.712347,424.83089 81.484375,424.20703 84.879452,421.70144 86.599609,418.06603 86.599609,414.69141 86.136292,401.61331 78.904665,392.6131 87.621094,382.16211 79.760594,383.77261 76.670547,390.5803 79.185547,395.5293 77.583547,396.1953 76.421875,395.14272 75.171875,394.57422 75.124875,397.30422 76.219313,398.50258 77.007812,399.89258 77.007813,399.89258 75.648828,399.82466 74.423828,399.34766 74.588828,401.10266 75.403813,402.67245 77.007812,403.43945 70.264313,402.34895 66.667969,406.71203 66.667969,411.89453 66.667969,417.11453 71.298812,418.48255 74.320312,417.62305 74.448813,418.35555 74.436328,419.13111 74.048828,419.97461 75.968328,419.52361 76.855906,418.45181 76.191406,416.25781 77.313406,416.06431 78.186766,415.49531 78.947266,414.75781 78.227723,413.93107 77.261654,413.35732 76.191406,413.12109 76.853406,411.32309 75.696109,409.88467 74.287109,409.57617 74.287109,409.57617 75.083094,413.39453 72.246094,413.39453 71.122594,413.39453 70.341797,412.69467 70.341797,411.07617 70.341797,408.75367 71.714487,406.78814 74.966797,407.39258 84.305653,409.1282 79.479423,423.14007 72.314453,422.39648 64.740145,421.61041 62.282479,414.91827 65.171875,408.75781 71.358375,395.97681 87.248047,362.93164 87.248047,362.93164 89.218547,358.84114 90.001953,356.15877 90.001953,351.88477 90.001953,345.00266 85.714605,339.61963 77.642578,338.73047 85.714753,337.84139 90.001953,332.45639 90.001953,325.57422 90.001953,321.30022 89.218547,318.6198 87.248047,314.5293 87.248047,314.5293 71.358375,281.48414 65.171875,268.70312 62.528248,262.72501 66.276554,255.01557 72.314453,255.06445 81.815573,255.14137 82.271469,269.90411 74.966797,270.06641 71.659613,270.13989 70.341797,268.70727 70.341797,266.38477 70.341797,264.76627 71.122594,264.06641 72.246094,264.06641 75.083094,264.06641 74.287109,267.88477 74.287109,267.88477 75.696109,267.57627 76.853406,266.13589 76.191406,264.33789 77.261654,264.10166 78.227723,263.52791 78.947266,262.70117 78.186766,261.96367 77.313406,261.39467 76.191406,261.20117 76.855906,259.00717 75.968328,257.93537 74.048828,257.48438 74.436328,258.32788 74.448813,259.10539 74.320312,259.83789 71.298812,258.97839 66.667969,260.34641 66.667969,265.56641 66.667969,270.74891 70.264313,275.11198 77.007812,274.02148 75.403813,274.78848 74.588828,276.35828 74.423828,278.11328 75.648828,277.63628 77.007813,277.56836 77.007812,277.56836 76.219313,278.95836 75.124875,280.15672 75.171875,282.88672 76.421875,282.31822 77.583547,281.26564 79.185547,281.93164 76.670547,286.88064 79.760594,293.68833 87.621094,295.29883 78.642105,284.26432 86.468979,271.70358 86.599609,262.76953 86.599609,259.39453 84.878256,255.75953 81.482422,253.25391 83.711493,252.63015 85.152422,251.51321 85.984375,250.00195 85.981889,250.00125 85.979049,250.0007 85.976562,250 85.979049,249.9993 85.981889,249.99875 85.984375,249.99805 85.152422,248.48679 83.711493,247.36985 81.482422,246.74609 84.878256,244.24047 86.599609,240.60547 86.599609,237.23047 86.136292,224.15237 78.904665,215.15216 87.621094,204.70117 79.760594,206.31167 76.670547,213.11936 79.185547,218.06836 77.583547,218.73436 76.421875,217.68178 75.171875,217.11328 75.124875,219.84328 76.219313,221.04164 77.007812,222.43164 77.007813,222.43164 75.648828,222.36372 74.423828,221.88672 74.588828,223.64172 75.403813,225.21152 77.007812,225.97852 70.264313,224.88802 66.667969,229.25109 66.667969,234.43359 66.667969,239.65359 71.298812,241.02161 74.320312,240.16211 74.448813,240.89461 74.436328,241.67213 74.048828,242.51562 75.968328,242.06462 76.855906,240.99283 76.191406,238.79883 77.313406,238.60533 78.186766,238.03633 78.947266,237.29883 78.227723,236.47209 77.261654,235.89834 76.191406,235.66211 76.853406,233.86411 75.696109,232.42373 74.287109,232.11523 74.287109,232.11523 75.083094,235.93359 72.246094,235.93359 71.122594,235.93359 70.341797,235.23373 70.341797,233.61523 70.341797,231.29273 71.658797,229.93359 74.966797,229.93359 84.175851,232.26035 79.480047,245.67893 72.314453,244.93555 64.73948,244.1497 62.282133,237.45827 65.171875,231.29688 71.358375,218.51587 87.248047,185.4707 87.248047,185.4707 89.218547,181.3802 90.001953,178.69978 90.001953,174.42578 90.001953,167.54361 85.714753,162.15861 77.642578,161.26953 85.714605,160.38037 90.001953,154.99734 90.001953,148.11523 90.001953,143.84123 89.218547,141.15886 87.248047,137.06836 87.248047,137.06836 71.358375,104.02319 65.171875,91.242188 62.528112,85.265024 66.277632,77.554274 72.314453,77.603516 81.814767,77.681009 82.272093,92.445106 74.966797,92.607422 71.659613,92.680904 70.341797,91.246328 70.341797,88.923828 70.341797,87.305328 71.122594,86.605469 72.246094,86.605469 75.083094,86.605469 74.287109,90.423828 74.287109,90.423828 75.696109,90.115328 76.853406,88.676906 76.191406,86.878906 77.261654,86.642677 78.227723,86.068924 78.947266,85.242188 78.186766,84.504688 77.313406,83.935688 76.191406,83.742188 76.855906,81.548186 75.968328,80.476391 74.048828,80.025391 74.436328,80.868891 74.448813,81.644453 74.320312,82.376953 71.298812,81.517453 66.667969,82.885469 66.667969,88.105469 66.667969,93.287969 70.264313,97.651047 77.007812,96.560547 75.403813,97.327547 74.588828,98.897348 74.423828,100.65234 75.648828,100.17534 77.007813,100.10742 77.007812,100.10742 76.219313,101.49742 75.124875,102.69578 75.171875,105.42578 76.421875,104.85728 77.583547,103.8047 79.185547,104.4707 76.670547,109.4197 79.760594,116.22739 87.621094,117.83789 78.642105,106.80338 86.468979,94.242638 86.599609,85.308594 86.599609,81.933969 84.879452,78.298564 81.484375,75.792969 83.378216,75.092522 85.193034,74.028046 85.988281,72.550782 84.38516,70.510158 82.439053,69.729335 80.679688,69.603516 83.662188,68.055016 86.699219,64.692936 86.699219,59.460938 86.123076,45.160244 79.226754,41.150206 87.515625,27.5 80.201125,28.232 76.576172,35.003516 78.638672,40.416016 77.474672,40.583516 76.417766,40.320937 75.509766,39.460938 74.974766,40.960938 75.819672,42.702625 76.951172,44.203125 76.039672,44.690125 75.369969,44.397656 73.917969,44.097656 74.055969,45.643656 74.982047,47.286031 77.248047,48.832031 70.672547,47.124531 66.626953,51.707859 66.626953,56.505859 66.626953,60.129859 69.165937,62.726564 71.648438,62.726562 72.450438,62.726562 73.630422,62.396891 74.294922,61.900391 74.763922,62.897891 74.521563,64.232969 74.039062,65.230469 75.858064,64.749469 77.013406,63.668922 76.191406,61.419922 77.588906,61.291422 78.699078,60.819422 79.455078,59.919922 78.689078,58.938422 77.527906,58.373922 76.191406,58.419922 77.208906,56.319922 76.074375,55.144406 74.421875,54.191406 74.421875,54.191406 75.472563,58.419922 72.789062,58.419922 71.582562,58.419922 70.484375,58.026547 70.484375,56.248047 70.484375,54.699547 71.942137,51.876647 74.966797,52.691406 85.176361,55.441578 80.384496,67.546 72.017578,66.892578 54.067686,65.490765 72.514368,44.065288 73.021484,34.789062 71.644776,27.847253 64.689433,27.326359 60,30.634766 54.587836,26.843246 47.161065,29.375051 46.978516,34.789062 47.560146,42.930833 64.60889,66.956558 47.982422,66.892578 37.395827,66.85184 37.179002,53.168601 45.033203,52.691406 48.159913,52.501438 49.515625,54.699547 49.515625,56.248047 49.515625,58.026547 48.417437,58.419922 47.210938,58.419922 44.527437,58.419922 45.578125,54.191406 45.578125,54.191406 43.925625,55.144406 42.791094,56.319922 43.808594,58.419922 42.472094,58.373922 41.310922,58.938422 40.544922,59.919922 41.300922,60.819422 42.411094,61.291422 43.808594,61.419922 42.986594,63.668922 44.141936,64.749469 45.960938,65.230469 45.478437,64.232969 45.236078,62.897891 45.705078,61.900391 46.369578,62.396891 47.549563,62.726562 48.351562,62.726562 50.834063,62.726562 53.373047,60.129859 53.373047,56.505859 53.373047,51.707859 49.327453,47.124531 42.751953,48.832031 45.017953,47.286031 45.944031,45.643656 46.082031,44.097656 44.630031,44.397656 43.960328,44.690125 43.048828,44.203125 44.180328,42.702625 45.025234,40.960938 44.490234,39.460938 43.582234,40.320937 42.525328,40.583516 41.361328,40.416016 43.423828,35.003516 39.798875,28.232 32.484375,27.5 Z M 59.994141,36.457031 59.996094,36.458984 C 59.996105,36.458994 60,36.460938 60,36.460938 L 60.003906,36.458984 60.005859,36.457031 C 75.231845,26.960111 62.462396,47.777404 60,53.751953 57.881303,47.84176 45.138278,26.865889 59.994141,36.457031 Z M 60,66.507812 C 61.968749,69.830155 65.560542,71.423975 69.822266,72.402344 66.126301,73.455438 61.953491,75.191303 60.001953,78.695312 60.001417,78.696328 60.000537,78.698201 60,78.699219 59.999463,78.698201 59.998583,78.696328 59.998047,78.695312 56.185579,74.204734 54.452391,73.866277 50.177734,72.402344 54.439458,71.423975 58.031251,69.830155 60,66.507812 Z M 60,93.146484 C 60.000634,93.147814 60.001319,93.149062 60.001953,93.150391 63.126953,99.694391 77.858172,130.931 82.451172,140.75 85.691763,146.83251 82.852932,155.13374 75.375,155.54688 69.14175,155.89125 64.815217,145.69952 70.818359,145.52344 75.047359,145.52344 74.790266,149.12167 73.947266,151.38867 76.579266,150.20517 78.109953,148.09273 77.689453,145.86523 79.179453,145.66073 80.59725,144.95256 81.90625,143.47656 80.87625,142.17656 79.620953,141.1932 77.689453,141.1582 78.532953,137.7022 76.218766,136.24214 73.947266,135.43164 74.665766,137.96814 75.137359,140.88672 70.818359,140.88672 67.668359,140.88672 65.188188,141.43252 63.742188,143.47852 63.657187,140.75052 63.402344,129.97461 63.402344,129.97461 63.220344,125.92561 68.822813,126.04255 72.382812,127.24805 71.039312,122.58455 68.28325,120.06267 61.90625,120.70117 63.45425,120.05367 65.103516,118.59702 65.103516,115.79102 65.102516,111.99452 62.022,107.78842 60,106.54492 57.978,107.78842 54.897484,111.99452 54.896484,115.79102 54.896484,118.59702 56.54575,120.05367 58.09375,120.70117 51.71675,120.06267 48.960686,122.58455 47.617188,127.24805 51.177188,126.04255 56.779656,125.92561 56.597656,129.97461 56.597656,129.97461 56.342813,140.75052 56.257812,143.47852 54.811813,141.43252 52.331641,140.88672 49.181641,140.88672 44.862641,140.88672 45.334234,137.96814 46.052734,135.43164 43.781234,136.24214 41.467047,137.7022 42.310547,141.1582 40.379047,141.1932 39.12375,142.17656 38.09375,143.47656 39.40275,144.95256 40.820547,145.66073 42.310547,145.86523 41.890047,148.09273 43.420734,150.20517 46.052734,151.38867 45.209734,149.12167 44.952641,145.52344 49.181641,145.52344 56.313954,148.17034 49.047453,156.31523 44.625,155.54688 35.559415,153.97184 34.116762,148.21944 37.548828,140.75 42.141828,130.931 56.873047,99.694391 59.998047,93.150391 59.998681,93.149062 59.999366,93.147814 60,93.146484 Z M 60,151.53516 C 62.251575,157.29448 67.928716,160.57341 73.164062,161.26953 67.928659,161.96559 62.251605,165.24646 60,171.00586 57.748395,165.24646 52.071341,161.96559 46.835938,161.26953 52.071284,160.57341 57.748425,157.29448 60,151.53516 Z M 44.625,166.99219 C 50.858279,166.64782 55.184752,176.83961 49.181641,177.01562 44.952641,177.01562 45.209734,173.41934 46.052734,171.15234 43.420734,172.33584 41.890047,174.44828 42.310547,176.67578 40.820547,176.88028 39.40275,177.5865 38.09375,179.0625 39.12375,180.3625 40.379047,181.34586 42.310547,181.38086 41.467047,184.83686 43.781234,186.29887 46.052734,187.10938 45.334234,184.57288 44.862641,181.6543 49.181641,181.6543 52.331641,181.6543 54.811813,181.1085 56.257812,179.0625 56.342813,181.7905 56.597656,192.56445 56.597656,192.56445 56.779656,196.61345 51.177188,196.49847 47.617188,195.29297 48.960687,199.95647 51.71675,202.47834 58.09375,201.83984 56.54575,202.48734 54.896484,203.94205 54.896484,206.74805 54.897484,210.54455 57.978,214.75064 60,215.99414 62.022,214.75064 65.102516,210.54455 65.103516,206.74805 65.103516,203.94205 63.45425,202.48734 61.90625,201.83984 68.28325,202.47834 71.039312,199.95647 72.382812,195.29297 68.822813,196.49847 63.220344,196.61345 63.402344,192.56445 63.402344,192.56445 63.657187,181.7905 63.742188,179.0625 65.188187,181.1085 67.668359,181.6543 70.818359,181.6543 75.137359,181.6543 74.665766,184.57287 73.947266,187.10938 76.218766,186.29887 78.532953,184.83686 77.689453,181.38086 79.620953,181.34586 80.87625,180.3625 81.90625,179.0625 80.59725,177.5865 79.179453,176.88028 77.689453,176.67578 78.109953,174.44828 76.579266,172.33584 73.947266,171.15234 74.790266,173.41934 75.047359,177.01563 70.818359,177.01562 63.686044,174.36873 70.952524,166.22395 75.375,166.99219 84.440675,168.56701 85.883407,174.32096 82.451172,181.79102 77.858172,191.61002 63.126953,222.84467 60.001953,229.38867 60.00132,229.39 60.000633,229.39125 60,229.39258 59.999367,229.39125 59.99868,229.39 59.998047,229.38867 56.873047,222.84467 42.141828,191.61002 37.548828,181.79102 34.308509,175.70789 37.146176,167.40537 44.625,166.99219 Z M 60,243.8418 C 60.000537,243.84281 60.001417,243.84469 60.001953,243.8457 63.162539,247.36195 65.711152,249.39491 69.417969,250 65.852495,250.87642 61.834167,252.86454 60.001953,256.1543 60.001417,256.15531 60.000537,256.15719 60,256.1582 59.999463,256.15719 59.998583,256.15531 59.998047,256.1543 56.837461,252.63805 54.288847,250.60509 50.582031,250 54.147505,249.12358 58.165833,247.13546 59.998047,243.8457 59.998583,243.84469 59.999463,243.84281 60,243.8418 Z M 60,270.60742 C 60.000633,270.60875 60.00132,270.61 60.001953,270.61133 63.126953,277.15533 77.858172,308.38998 82.451172,318.20898 85.691491,324.29211 82.853825,332.59464 75.375,333.00781 69.141733,333.35217 64.815234,323.16042 70.818359,322.98438 75.047359,322.98438 74.790266,326.58066 73.947266,328.84766 76.579266,327.66416 78.109953,325.55172 77.689453,323.32422 79.179453,323.11972 80.59725,322.4135 81.90625,320.9375 80.87625,319.6375 79.620953,318.65414 77.689453,318.61914 78.532953,315.16314 76.218766,313.70113 73.947266,312.89062 74.665766,315.42712 75.137359,318.3457 70.818359,318.3457 67.668359,318.3457 65.188188,318.8915 63.742188,320.9375 63.657187,318.2095 63.402344,307.43555 63.402344,307.43555 63.220344,303.38655 68.822813,303.50153 72.382812,304.70703 71.039312,300.04353 68.28325,297.52166 61.90625,298.16016 63.45425,297.51266 65.103516,296.05795 65.103516,293.25195 65.102516,289.45545 62.022,285.24936 60,284.00586 57.978,285.24936 54.897484,289.45545 54.896484,293.25195 54.896484,296.05795 56.54575,297.51266 58.09375,298.16016 51.71675,297.52166 48.960686,300.04353 47.617188,304.70703 51.177188,303.50153 56.779656,303.38655 56.597656,307.43555 56.597656,307.43555 56.342813,318.2095 56.257812,320.9375 54.811813,318.8915 52.331641,318.3457 49.181641,318.3457 44.862641,318.3457 45.334234,315.42713 46.052734,312.89062 43.781234,313.70113 41.467047,315.16314 42.310547,318.61914 40.379047,318.65414 39.12375,319.6375 38.09375,320.9375 39.40275,322.4135 40.820547,323.11972 42.310547,323.32422 41.890047,325.55172 43.420734,327.66416 46.052734,328.84766 45.209734,326.58066 44.952641,322.98438 49.181641,322.98438 56.313956,325.63127 49.047476,333.77605 44.625,333.00781 35.559325,331.43299 34.116593,325.67904 37.548828,318.20898 42.141828,308.38998 56.873047,277.15533 59.998047,270.61133 59.99868,270.61 59.999367,270.60875 60,270.60742 Z M 60,328.99414 C 62.251605,334.75354 67.928659,338.03441 73.164062,338.73047 67.928716,339.42659 62.251575,342.70552 60,348.46484 57.748425,342.70552 52.071284,339.42659 46.835938,338.73047 52.071341,338.03441 57.748395,334.75354 60,328.99414 Z M 44.625,344.45312 C 50.85825,344.10875 55.184783,354.30048 49.181641,354.47656 44.952641,354.47656 45.209734,350.87833 46.052734,348.61133 43.420734,349.79483 41.890047,351.90727 42.310547,354.13477 40.820547,354.33927 39.40275,355.04744 38.09375,356.52344 39.12375,357.82344 40.379047,358.8068 42.310547,358.8418 41.467047,362.2978 43.781234,363.75786 46.052734,364.56836 45.334234,362.03186 44.862641,359.11328 49.181641,359.11328 52.331641,359.11328 54.811813,358.56748 56.257812,356.52148 56.342813,359.24948 56.597656,370.02539 56.597656,370.02539 56.779656,374.07439 51.177188,373.95745 47.617188,372.75195 48.960687,377.41545 51.71675,379.93733 58.09375,379.29883 56.54575,379.94633 54.896484,381.40298 54.896484,384.20898 54.897484,388.00548 57.978,392.21158 60,393.45508 62.022,392.21158 65.102516,388.00548 65.103516,384.20898 65.103516,381.40298 63.45425,379.94633 61.90625,379.29883 68.28325,379.93733 71.039312,377.41545 72.382812,372.75195 68.822813,373.95745 63.220344,374.07439 63.402344,370.02539 63.402344,370.02539 63.657187,359.24948 63.742188,356.52148 65.188187,358.56748 67.668359,359.11328 70.818359,359.11328 75.137359,359.11328 74.665766,362.03186 73.947266,364.56836 76.218766,363.75786 78.532953,362.2978 77.689453,358.8418 79.620953,358.8068 80.87625,357.82344 81.90625,356.52344 80.59725,355.04744 79.179453,354.33927 77.689453,354.13477 78.109953,351.90727 76.579266,349.79483 73.947266,348.61133 74.790266,350.87833 75.047359,354.47656 70.818359,354.47656 63.686046,351.82966 70.952547,343.68477 75.375,344.45312 84.440585,346.02816 85.883238,351.78056 82.451172,359.25 77.858172,369.069 63.126953,400.30561 60.001953,406.84961 60.001319,406.85094 60.000634,406.85219 60,406.85352 59.999366,406.85219 59.998681,406.85094 59.998047,406.84961 56.873047,400.30561 42.141828,369.069 37.548828,359.25 34.308237,353.16749 37.147068,344.86626 44.625,344.45312 Z M 60,421.30078 C 60.000537,421.3018 60.001417,421.30367 60.001953,421.30469 63.814419,425.79528 65.547625,426.1337 69.822266,427.59766 65.560542,428.57603 61.968749,430.16984 60,433.49219 58.031251,430.16984 54.439458,428.57603 50.177734,427.59766 53.873696,426.54455 58.046507,424.8087 59.998047,421.30469 59.998583,421.30367 59.999463,421.3018 60,421.30078 Z M 60,446.24805 C 61.055793,450.45859 74.559886,474.4083 60,463.55738 45.268542,474.34318 57.51628,452.27434 60,446.24805 Z"
     id="path37"
     inkscape:connector-curvature="0"
     sodipodi:nodetypes="ccccccccccccsccccccssssccscsccscssccccccscccccccccccccccccccsccccccssssccscsccssssccccccscccccccccccccccccccssccccccssssscsssssccccccsscccccccccccccccccccsccccccssssccscsccssssccccccscccccccccccccccccccsccccccsscsccscsccssssccccccscccccccccccccccccssccccccsssscccssssccccccsscccccccccccccccccccccccsccccccscccccccccccsccccccsccccccccsccccccscccccccccccsccccccscccccsccccccccccccsccccccscccccccccccsccccccsccccccccsccccccscccccccccccsccccccscccccscccccccccc" />
</svg>
