<?xml version="1.0" encoding="UTF-8" standalone="no"?>
<svg
   xmlns:dc="http://purl.org/dc/elements/1.1/"
   xmlns:cc="http://creativecommons.org/ns#"
   xmlns:rdf="http://www.w3.org/1999/02/22-rdf-syntax-ns#"
   xmlns:svg="http://www.w3.org/2000/svg"
   xmlns="http://www.w3.org/2000/svg"
   xmlns:sodipodi="http://sodipodi.sourceforge.net/DTD/sodipodi-0.dtd"
   xmlns:inkscape="http://www.inkscape.org/namespaces/inkscape"
   version="1.0"
   width="1200"
   height="600"
   stroke-width=".40014pt"
   id="svg172"
   sodipodi:docname="ic_flag_hr.svg"
   inkscape:version="0.92.1 r15371">
  <metadata
     id="metadata178">
    <rdf:RDF>
      <cc:Work
         rdf:about="">
        <dc:format>image/svg+xml</dc:format>
        <dc:type
           rdf:resource="http://purl.org/dc/dcmitype/StillImage" />
      </cc:Work>
    </rdf:RDF>
  </metadata>
  <defs
     id="defs176" />
  <sodipodi:namedview
     pagecolor="#ffffff"
     bordercolor="#666666"
     borderopacity="1"
     objecttolerance="10"
     gridtolerance="10"
     guidetolerance="10"
     inkscape:pageopacity="0"
     inkscape:pageshadow="2"
     inkscape:window-width="1798"
     inkscape:window-height="1212"
     id="namedview174"
     showgrid="false"
     inkscape:zoom="0.70710678"
     inkscape:cx="667.70944"
     inkscape:cy="394.7813"
     inkscape:window-x="0"
     inkscape:window-y="0"
     inkscape:window-maximized="0"
     inkscape:current-layer="svg172" />
  <rect
     width="1200"
     height="200"
     fill="#de1818"
     id="rect2" />
  <rect
     y="200"
     width="1200"
     height="200"
     fill="#fff"
     id="rect4" />
  <rect
     y="400"
     width="1200"
     height="200"
     fill="#00298c"
     id="rect6" />
  <path
     d="M 480.77763,197.11385 C 517.60965,184.01097 558.44759,176.94112 598.36159,176.84044 C 638.27563,176.73979 678.98108,183.00269 719.20324,197.41625 L 749.14298,137.0146 L 728.09896,100.35655 C 728.09896,100.35655 690.55351,115.77811 690.24529,115.77811 C 689.937,115.77811 663.77222,86.981941 663.77222,86.981941 L 630.17206,107.28339 L 598.62021,83.153369 L 568.94148,106.91116 L 534.29337,86.884283 L 509.01973,116.91758 L 471.13765,100.71935 L 450.85703,137.04234 z"
     fill="#fff"
     stroke="#de1818"
     stroke-width="1.60056734"
     id="path8" />
  <path
     d="M 599.42969 87.833984 L 570.25195 111.02734 L 576.04102 173.79688 C 595.73338 172.99173 607.72911 172.9633 624.52539 173.85156 L 629.91211 110.97266 L 599.42969 87.833984 z M 473.19922 104.81055 L 455.02344 136.57031 L 482.2207 194.09961 C 500.48481 187.02779 509.59402 184.12196 526.79688 180.56445 L 510.87695 121.21094 L 473.19922 104.81055 z M 726.57227 104.85156 L 689.85742 119.75195 L 672.71289 180.35938 C 693.62637 185.02468 702.1788 187.75633 718.14258 194.13477 L 745.91406 137.33008 L 726.57227 104.85156 z "
     id="path10"
     style="fill:#087ba5;fill-opacity:1;stroke:#3477d9;stroke-opacity:1" />
  <path
     d="M 535.64453 91.347656 L 511.29102 120.84961 L 527.25195 180.33008 C 546.8699 176.83936 558.15734 175.16247 575.58203 173.87109 L 569.79492 110.8418 L 535.64453 91.347656 z M 663.71875 91.632812 L 630.38281 110.8125 L 624.95898 173.76758 C 646.17015 175.35821 655.66626 176.8134 672.3125 180.21289 L 689.48633 119.5625 L 663.71875 91.632812 z "
     id="path12"
     style="fill:#00298c;fill-opacity:1;stroke:#000082;stroke-opacity:1" />
  <g
     id="croatia">
    <path
       d="M 476.43049,165.22549 C 484.77992,166.03007 490.63561,165.59212 497.83018,163.1586 C 506.3252,159.1816 509.02686,154.56151 511.56543,150.81615 C 513.58502,158.10549 512.81633,164.92958 503.2099,170.50607 C 494.53924,175.00008 482.15627,173.67375 476.43049,165.22549 z"
       fill="#fff"
       stroke="#fff"
       stroke-width=".36516166pt"
       id="path20" />
    <path
       d="M 470.13845,130.76003 L 475.98177,135.30379 L 474.88729,143.2504 L 482.41131,140.12175 L 488.38049,144.6578 L 489.19782,137.34876 L 495.37336,134.92291 L 490.26712,130.0239 L 491.40318,122.75769 C 491.40318,122.75769 483.97887,125.44545 483.97507,125.38374 C 483.9713,125.32203 478.63995,120.87119 478.58044,120.9368 C 478.52131,121.00237 477.35859,127.83621 477.35859,127.83621 L 470.13845,130.76003 z"
       fill="#fffa00"
       stroke="#ffc700"
       stroke-width=".5"
       id="path22" />
    <path
       d="m 478.55664,120.95703 -1.27734,7.02735 5.78125,4.90039 -12.79297,-2.07032 5.90039,4.41602 c 0,0 -1.16591,7.82657 -1.16211,7.88867 0.004,0.0617 8.0644,-10.24819 8.0644,-10.24819 l -0.59956,7.18569 c 0.20045,0.17357 5.82783,4.29567 5.89453,4.35352 0.0667,0.0579 -5.29497,-11.53921 -5.29497,-11.53921 l 6.00591,4.54702 6.23047,-2.55274 -12.23638,-1.99428 0.004,0.01 c 0.59417,-0.79943 8.30463,-9.96675 8.24219,-9.96289 -0.0633,0.004 -7.29426,2.76941 -7.42383,2.71484 0.0665,0.0583 -0.88007,7.2072 -0.82227,7.23828 z"
       id="path24"
       style="fill:#ffc600;fill-opacity:1"
       inkscape:connector-curvature="0"
       sodipodi:nodetypes="cccccccccccccccccc" />
  </g>
  <g
     id="dubrovnik">
    <path
       d="M 569.92188 110.78516 C 559.79482 110.76348 549.92565 110.88466 540.06445 112.29492 C 529.8045 113.70458 520.07606 116.93671 511.4082 121.08008 L 515.10938 135.00781 C 523.6003 131.75386 529.3512 130.09473 543.31445 128.1582 C 557.35645 126.34177 563.28794 126.48884 571.24805 126.42383 C 571.24805 126.29346 569.92188 110.78516 569.92188 110.78516 z M 562.59375 141.31445 C 556.813 141.29024 550.87411 141.56489 545.30469 142.29688 C 536.39361 143.46843 527.74117 145.54361 518.83008 148.53711 C 518.69717 148.53711 523.21484 164.94531 523.21484 164.94531 C 531.55105 162.84116 540.0215 161.25742 548.49023 160.06445 C 556.95889 158.87149 565.96469 158.19062 574.16797 157.64844 L 572.71484 141.64648 C 569.47271 141.45119 566.0622 141.32898 562.59375 141.31445 z "
       id="path31"
       style="stroke:#e61717;stroke-opacity:1;fill:#de1818;fill-opacity:1" />
  </g>
  <g
     id="use71"
     style="fill:#cca300;stroke:#cca300"
     transform="translate(-13.05,-155.6)" />
  <g
     id="istria">
    <path
       d="M 633.22266 162.49219 L 631.55078 164.44531 L 631.67969 166.08594 L 635.15039 166.02148 C 636.2642 165.75872 636.54142 165.36978 636.75586 164.91797 C 637.09847 164.36112 636.8635 164.05645 636.94922 163.31055 L 633.22266 162.49219 z M 655.13477 163.18555 L 653.5293 164.82422 L 653.59375 166.08594 L 656.87109 166.21094 C 657.9849 165.94817 657.81329 166.00169 658.15625 165.42383 C 658.49886 164.86697 658.39084 164.74982 658.47656 164.00391 L 655.13477 163.18555 z M 664.71094 166.14844 L 662.84766 167.72461 L 662.84766 169.30078 L 666.31641 169.61523 C 667.43021 169.35246 667.51626 169.02749 667.79492 168.63867 C 668.13744 168.08183 667.9671 168.02911 668.05273 167.2832 L 664.71094 166.14844 z M 641.46094 167.11719 L 639.92969 168.30273 L 639.78711 169.81055 L 642.86523 170.03711 C 643.99867 169.88 644.16594 169.69492 644.42188 169.26562 C 644.81525 168.74295 644.70796 168.7424 644.86328 168.00781 L 641.46094 167.11719 z "
       id="path73"
       style="fill:#de1818;fill-opacity:1;stroke:#cc0000;stroke-opacity:1" />
    <path
       d="M 641.38303,124.91603 L 647.9377,129.26623 C 649.16989,128.24408 651.73315,128.86354 652.73699,129.14693 C 654.53957,129.61738 655.81008,130.68471 657.38451,130.96849 C 660.26403,131.6922 663.71404,132.19198 666.32698,131.90819 C 668.94046,131.62481 671.13523,130.25905 673.06424,129.26623 L 673.06424,128.63604 L 671.77918,128.63604 C 669.693,129.3867 666.76984,129.42793 664.53134,129.13385 C 662.29285,128.83977 661.6897,127.83626 658.34837,126.87078 L 658.0914,126.2402 C 662.14748,126.43281 662.9711,126.32779 664.66912,125.58745 C 666.32907,125.14671 667.07695,124.18321 668.0141,123.51776 L 667.98785,122.77267 L 666.76664,122.70963 C 665.1935,123.75755 664.19075,123.94699 661.78055,123.72624 C 659.58742,123.50427 657.61194,122.25582 656.14052,122.22967 C 654.58001,122.24156 654.65355,121.49606 653.14427,121.42274 C 650.74495,121.21268 648.15186,121.53252 645.88143,122.07907 C 643.16101,122.89868 642.75372,123.59188 641.38303,124.91603 z"
       fill="#de1818"
       stroke="#c00"
       id="path81" />
    <g
       fill="#8e3737"
       stroke="#8f3636"
       id="g103">
      <path
         d="M 649.91992 121.67578 L 649.38672 121.75 C 649.53896 122.14198 649.83894 122.4118 650.0918 123.24805 C 650.31044 124.00785 650.41406 125.07031 650.41406 125.07031 C 650.33164 124.50433 650.47695 123.86479 650.39453 123.29883 C 650.3121 122.73324 650.00225 122.24175 649.91992 121.67578 z M 654.71094 122.08594 L 654.97852 125.2207 L 655.2832 122.27344 L 654.71094 122.08594 z M 643.60742 123.24219 L 642.65625 123.95117 C 643.28364 124.09385 643.98697 124.27431 644.5 124.56641 C 645.0135 124.85851 644.88018 124.85394 645.43164 125.25781 C 645.34318 124.73584 645.36844 124.77153 645.01367 124.36133 C 644.65852 123.95072 644.07608 123.57831 643.60742 123.24219 z M 659.32227 123.87305 C 659.28105 123.87733 659.24043 123.89227 659.19922 123.91406 C 659.42738 124.67266 659.5027 126.25167 659.88281 126.18945 C 659.81951 125.53035 659.87065 124.42454 659.69336 124.21289 C 659.56979 123.9424 659.4459 123.86019 659.32227 123.87305 z M 664.21875 124.21289 L 663.80078 124.25 L 663.64844 125.55469 C 663.68686 125.59194 664.21875 125.36966 664.21875 125.33203 L 664.21875 124.21289 z M 653.03906 125.51758 C 653.21636 126.10216 653.39372 126.53914 653.45703 127.04883 C 653.5206 127.55892 653.54486 128.06843 653.41797 128.57812 C 653.87456 128.17981 654.02734 127.67013 654.02734 127.08594 C 653.74859 126.50137 653.54606 125.95274 653.03906 125.51758 z M 646.83984 125.70508 C 647.24539 126.19614 647.42332 126.61245 647.63867 127.10352 C 647.85429 127.59458 648.14525 128.08678 648.13281 128.65234 L 648.55078 128.35352 C 648.46232 127.61397 648.48726 127.09847 648.05664 126.58203 C 647.62558 126.06602 647.34675 125.84777 646.83984 125.70508 z M 658.93359 127.19727 C 658.95253 127.19727 659.09595 128.26045 658.85352 129.02539 C 658.61118 129.79031 658.43901 129.84722 657.98242 130.25781 C 658.59077 129.81036 659.12426 129.6609 659.31445 129.17578 C 659.50474 128.42948 659.00953 127.30944 658.93359 127.19727 z M 663.34375 129.0625 C 663.5849 129.4604 664.01554 129.93396 664.06641 130.36914 C 664.11728 130.80432 663.97778 131.01472 663.64844 131.67383 L 664.25781 131.71094 C 664.58706 131.18261 664.68917 130.80326 664.63867 130.38672 C 664.58772 129.96978 664.38374 129.55493 663.95312 129.21289 L 663.34375 129.0625 z M 667.87109 129.39844 L 668.02148 131.22656 L 668.51758 130.96484 L 668.40234 129.39844 L 667.87109 129.39844 z "
         id="path83" />
    </g>
    <path
       d="M 640.97657,125.23866 C 639.49327,125.66789 638.95672,126.4875 638.23081,127.19577 L 634.05112,125.07892 C 633.37333,125.64133 633.11224,126.44471 633.43829,127.2671 C 633.76433,128.08911 635.07555,129.37602 636.00813,130.01214 C 635.77457,131.14763 635.43042,132.00452 635.02276,133.00051 C 634.56828,134.12016 633.59262,135.53467 633.56435,135.98888 C 633.50864,136.50888 633.33894,137.62296 634.11654,137.91983 C 634.89469,138.21668 637.39611,137.71414 638.23081,137.76923 C 638.09505,138.21589 637.77018,138.99708 637.88088,139.33236 C 637.99157,139.66768 638.2158,139.77945 638.89497,139.79887 C 638.69929,140.21382 638.27727,140.73976 638.47964,140.98748 C 639.00402,141.38422 639.60478,141.31563 640.11014,141.28473 C 639.8128,141.62947 639.34933,142.09308 638.85153,142.58018 C 638.0147,143.399 637.0808,144.28414 636.67577,144.78239 C 635.99231,145.70666 635.93366,146.70503 637.25843,146.60713 C 636.76552,147.15328 636.29164,147.68081 636.3672,148.15242 C 636.48119,148.71722 636.76515,149.09611 637.712,148.76874 C 637.15176,150.03582 637.5198,151.17292 637.71731,152.49549 C 637.23895,153.49624 637.44213,154.42288 637.32339,155.57226 C 636.34899,156.12396 636.22778,156.84291 635.59435,157.95225 C 635.02313,159.15317 633.95983,159.48092 633.37003,162.05751 L 637.19375,163.0111 C 637.33426,162.48118 637.83441,162.13717 637.97511,161.60766 C 638.11526,161.07776 638.10428,160.41786 638.03603,159.83208 C 638.7948,158.73343 640.32988,156.46401 640.82316,155.254 C 641.65812,154.80812 642.26539,154.52908 642.89196,154.52908 C 643.51852,154.52908 643.91721,154.90087 644.58174,155.254 C 644.28771,156.27377 643.46317,157.38588 643.41551,158.81467 L 643.41551,162.75704 C 643.24901,163.73639 642.1353,163.74945 641.66544,166.699 L 645.10053,167.58917 C 645.68383,166.59713 646.60772,166.46042 646.85015,166.06327 L 647.09825,161.96755 C 647.53536,160.0342 650.246,158.4358 650.28525,156.33521 C 651.25808,156.32213 651.62529,156.42121 652.01098,156.22224 C 652.52942,156.04192 652.70707,155.75021 653.11197,155.38399 C 653.26786,156.01615 653.76517,156.07165 654.18654,156.07165 C 654.60755,156.07165 655.44534,155.47713 655.79115,155.23537 C 656.03441,155.57819 656.16321,155.90239 656.6714,156.0221 C 657.17968,156.1418 658.61578,155.92697 659.19999,155.78627 L 656.37728,160.40439 C 656.27189,160.84946 656.41287,161.1273 656.19395,161.6469 C 655.98867,162.11339 655.57506,162.33811 655.38871,162.76775 L 658.5887,163.53226 L 659.09936,162.18472 C 659.7777,161.89896 660.32386,161.7432 660.68019,161.30882 C 661.03642,160.87445 661.03331,160.04926 661.23805,159.57764 C 662.33127,158.78416 664.04942,157.06129 665.25608,155.63567 C 666.07531,155.77398 667.23558,156.45132 667.67598,157.46358 C 667.73782,158.54954 667.81778,160.54668 667.33008,161.93028 L 665.25608,165.17309 L 665.02097,165.70497 L 668.286,166.86824 L 670.36,165.27853 L 670.44087,163.0111 C 671.48268,161.17131 672.97339,160.16579 674.39422,159.0057 C 674.39422,158.94191 674.54571,156.57062 674.48873,156.47788 C 674.1377,156.21075 673.90058,156.37128 673.77653,155.88101 C 673.65294,155.39114 673.73728,154.04598 673.80315,153.51883 C 674.00834,153.26438 674.44106,152.97228 674.41883,152.75508 C 673.85374,152.13482 674.02664,150.52926 674.19982,149.27725 C 674.15738,147.85162 676.10477,146.16602 676.40327,145.33528 L 676.52486,143.83873 C 676.3257,143.47092 676.0324,143.25174 676.02271,142.93943 C 676.01338,142.6275 676.40118,142.11071 676.63839,141.77976 L 677.05116,141.07546 L 676.98658,137.38756 C 676.87094,136.98923 676.52806,136.36817 676.20403,136.30437 C 675.87963,136.24096 675.40419,136.6052 675.04219,137.00588 L 673.16579,138.39108 C 672.26605,138.66613 671.47985,138.77433 669.89829,138.38037 L 667.48569,138.42833 C 666.21885,138.78225 665.55787,138.83933 664.36649,138.31974 L 662.93799,138.34271 C 662.49283,138.58529 661.87669,138.97567 661.39366,139.06922 C 660.91091,139.16233 660.25726,139.18138 659.77405,139.03314 C 656.08637,139.28126 657.00229,139.5476 655.94823,139.77707 C 655.10192,139.61654 655.37344,139.19603 652.0838,139.16514 L 650.77971,138.78346 C 649.1343,137.69312 647.86744,135.95242 646.77139,133.95132 C 650.19888,132.96959 651.637,131.95023 652.67688,129.61183 L 647.83029,129.79296 L 640.97657,125.23866 z"
       fill="#fffa00"
       stroke="#efd608"
       id="path105" />
    <path
       d="M 639.26127,131.21997 L 640.63351,131.80139 C 640.8012,132.00075 641.12597,132.23062 641.34095,132.24411 C 641.55539,132.25718 641.73835,132.03839 641.92178,131.88145 L 643.18516,131.21997 C 642.43655,131.11178 642.2083,130.64726 641.41249,130.64726 C 640.61659,130.64726 640.05708,131.065 639.26127,131.21997 z"
       fill="#664c00"
       stroke="#664c00"
       id="path107" />
    <g
       fill="#cca300"
       stroke="#cca300"
       id="g127">
      <path
         d="M 644.05273 141.06445 C 644.43683 142.53181 644.76677 143.64901 644.92578 144.2832 C 645.04792 144.67449 645.41081 147.03255 645.56445 146.84766 C 645.80222 145.02303 645.21058 142.82946 644.05273 141.06445 z M 658.85547 142.16992 C 658.68055 142.18537 660.5844 145.33304 660.72656 145.20898 C 660.85546 144.95572 660.764 144.6877 660.67188 144.51172 C 660.45086 144.14036 658.90442 142.0304 658.85547 142.16992 z M 664.25391 142.7832 C 664.2085 142.79536 664.17262 142.8216 664.15039 142.86133 C 664.05542 143.16334 664.53492 144.22629 664.81641 145.33008 C 665.09845 146.43389 665.04143 147.43947 665.18359 147.54688 C 665.34552 147.63446 665.50724 147.53567 665.51172 147.39062 C 665.18887 145.89205 664.91247 143.58872 664.79492 142.98828 C 664.60981 142.82895 664.39013 142.74673 664.25391 142.7832 z M 652.75977 143.07031 C 652.61183 143.19237 653.50593 146.34965 653.51562 146.78125 C 653.62761 147.00361 654.29014 147.2872 654.25977 147.0918 C 654.15236 146.11365 653.76091 144.9666 653.7168 144.6543 C 653.52899 144.12637 652.94767 142.97836 652.75977 143.07031 z M 640.52734 143.47852 C 641.02337 144.73095 641.37853 145.86043 641.49609 147.46875 C 641.5915 147.60312 641.7807 147.51962 641.78125 147.40625 C 641.55254 145.97312 641.08713 144.43131 640.52734 143.47852 z M 649.04102 143.93359 C 648.96678 143.94697 648.92497 144.00315 648.94922 144.10938 C 649.2147 144.91553 649.66941 147.26935 649.83984 147.58008 C 650.12106 147.65738 650.5138 147.65855 650.60547 147.47266 C 650.72459 147.12785 650.36916 146.75217 650.23633 146.33008 C 649.77378 145.42366 649.51779 144.43974 649.32422 144.01367 C 649.22249 143.94947 649.11525 143.92022 649.04102 143.93359 z M 668.29688 144.75 C 668.14457 144.58789 668.71092 145.82989 669.12305 147.30664 C 669.5351 148.78378 669.74553 151.39448 669.8457 151.20898 C 670.12884 151.02112 670.0823 150.78654 670.52344 150.69141 C 670.96429 150.59669 672.60313 150.74883 672.50781 150.63867 C 671.49299 149.7346 670.55867 148.98522 669.85938 148.00391 C 669.16046 147.02258 668.69637 145.73131 668.29688 144.75 z M 659.09961 146.34766 C 658.83852 147.84183 658.67194 148.99387 658.55273 149.63672 C 658.50105 150.04337 657.84978 152.34056 658.06641 152.23633 C 659.04162 150.67596 659.41835 148.43436 659.09961 146.34766 z M 656.47461 148.2793 C 656.4037 148.20597 655.83669 149.53657 655.10547 150.84961 C 654.3447 152.18686 653.62663 153.46965 653.63477 153.59766 C 653.61903 153.81841 654.13855 153.63675 654.34375 153.4707 C 654.93876 152.54049 655.67595 151.56396 655.89258 151.19141 C 656.02304 150.79308 656.67551 148.25909 656.47461 148.2793 z "
         id="path109" />
    </g>
  </g>
  <g
     id="slavonia">
    <path
       d="M 684.1443,140.0545 C 693.55442,142.04252 702.26544,144.3048 710.97663,147.11523 C 719.68728,149.92563 727.97902,153.2846 736.41065,156.91782 L 722.29582,185.4354 C 714.41731,182.43713 706.63814,180.02026 698.85861,177.50708 C 691.07953,174.99352 683.49797,172.77048 675.61991,170.35401 L 684.1443,140.0545 z"
       fill="#fff"
       stroke="#fff"
       id="path130" />
    <path
       d="M 682.2699,146.79102 C 682.2699,146.79102 695.41235,149.72352 708.14743,153.81966 C 720.88268,157.91539 733.30882,163.17437 733.25942,163.17437 C 733.16053,163.17437 725.25493,179.46182 725.25493,179.46182 C 717.58043,176.40803 709.51007,173.54768 701.53906,170.97864 C 693.56769,168.40958 685.59659,165.93765 677.42771,164.0471 L 682.2699,146.79102 z"
       fill="#de1818"
       stroke="#e61717"
       id="path132" />
    <path
       d="M 683.36184,154.7562 C 684.65459,154.03408 685.53008,153.83908 686.22608,152.64889 L 690.88001,152.64929 L 690.94012,154.34639 C 692.08374,154.89293 692.75001,155.49815 693.89364,156.04429 C 695.03736,156.59083 696.65863,157.07834 697.80225,157.62489 L 707.82669,158.50315 C 709.16911,158.71758 711.10864,159.28354 712.27212,159.96642 C 713.43561,160.64971 714.18174,161.50819 714.8084,162.60087 C 716.86667,163.32301 718.92577,163.75224 721.04379,164.06455 C 723.16244,164.37647 725.81737,164.51319 727.87601,164.59129 C 728.89038,164.94283 728.89038,165.46956 728.41292,165.9963 C 728.41292,165.9963 727.27891,167.53289 724.18358,167.54755 C 721.08834,167.56221 717.58252,165.82072 716.06107,166.05495 C 716.12099,166.99149 717.7321,168.92364 719.5818,169.68459 L 719.52243,174.13308 L 718.68664,174.89443 L 717.79175,174.30905 C 718.50806,173.25558 718.26883,172.02576 717.97069,170.9723 C 717.28438,169.97709 717.1951,169.56727 715.9125,169.50902 C 714.3906,169.21573 713.28648,168.80593 711.34741,167.45957 L 710.63119,167.57689 C 710.21348,168.31845 709.79568,168.82575 708.84114,169.27439 L 706.87206,169.15748 C 706.87206,169.15748 702.33688,168.16227 702.33688,168.10361 C 702.33688,168.04535 702.27723,167.4013 702.39681,167.34265 C 702.51601,167.284 703.94808,167.28441 704.0672,167.28441 C 705.02227,167.57689 707.05118,167.57689 707.05118,167.57689 L 706.99118,165.87896 L 710.03445,165.7034 C 709.41794,163.59608 709.21879,162.24935 706.39452,161.78126 L 697.56312,162.0155 L 697.68259,163.24491 C 695.47484,162.95203 691.47702,162.89972 689.43504,163.57626 C 688.24155,163.6936 686.52423,164.2984 685.74864,164.2984 L 684.85339,164.06455 C 684.25673,163.88898 684.25673,163.7134 684.49541,163.18627 C 688.31427,162.89338 688.9113,162.60087 690.04495,162.07416 C 690.10478,161.723 689.62715,160.96163 689.4483,160.90298 C 687.0616,160.78607 685.15198,160.96163 684.49587,160.84471 C 683.48141,160.55182 682.10871,160.02507 682.10871,159.96642 C 682.10871,159.90779 681.92977,159.02989 681.9895,159.02989 C 682.04878,159.02989 683.54124,159.4397 683.60016,159.4397 C 685.21163,159.7322 688.01613,159.61528 688.67262,159.26413 L 688.73245,157.97603 C 688.67262,157.39063 688.2549,156.8639 688.13533,156.80524 C 688.01613,156.74661 685.50977,156.4541 684.61461,156.4541 C 683.16259,156.20044 683.3816,155.47833 683.36184,154.7562 z"
       fill="#000"
       stroke="#000"
       id="path134" />
    <path
       d="M 702.63503,165.17666 C 703.98761,165.60591 704.98221,165.74225 706.99118,165.87896 L 710.03445,165.7034 C 709.41794,163.59608 709.21879,162.24935 706.39452,161.78126 L 697.56312,162.0155 L 697.68259,163.24491 C 700.36799,164.23973 701.68049,164.78628 702.63503,165.17666 z"
       fill="#fff"
       stroke="#000"
       id="path136" />
    <path
       d="M 708.72706,120.65856 L 710.19847,127.83632 L 704.14111,133.22496 L 711.93693,135.59515 L 713.50943,142.84667 L 718.93647,137.7705 L 725.24167,139.82464 L 724.56606,132.8418 L 730.208,128.00022 C 730.208,128.00022 722.77794,125.35573 722.81554,125.30613 C 722.85322,125.25647 721.71134,118.47409 721.62278,118.48657 C 721.53451,118.49932 716.1564,122.99309 716.1564,122.99309 L 708.72706,120.65856 z"
       fill="#fffa00"
       stroke="#ffc700"
       id="path138" />
    <path
       d="M 721.69727 118.38672 L 716.10547 122.95703 L 717.30078 130.39453 L 721.69727 118.38672 z M 708.79102 120.78125 L 710.38867 127.89844 C 710.38867 127.89844 704.35633 133.14928 704.31836 133.19922 C 704.28076 133.24884 716.97266 130.61914 716.97266 130.61914 L 712.02539 135.58203 C 712.06426 135.84181 713.64736 142.56193 713.66016 142.64844 C 713.67297 142.73494 717.02344 130.65625 717.02344 130.65625 L 718.79688 137.74609 L 725.22852 139.73828 L 708.79102 120.78125 z M 722.72656 125.32031 C 722.73946 125.40682 717.32441 130.25802 717.375 130.29492 C 718.33355 130.06782 730.20843 127.99954 730.1582 127.96289 C 730.10734 127.92576 722.79005 125.44371 722.72656 125.32031 z "
       id="path140"
       style="stroke:none;stroke-opacity:1;fill:#ffc700;fill-opacity:1" />
  </g>
  <path
     d="M 479.04034,199.20216 L 720.97509,199.20216 L 720.97509,354.33648 C 714.82569,414.7528 656.75785,459.91373 603.69743,459.56931 C 546.42014,462.06821 483.08114,415.18363 478.51323,353.81928 L 479.04034,199.20216 z"
     fill="#fff"
     stroke="#de1818"
     stroke-width="1.60056734"
     id="path147" />
  <path
     d="M 484.07144,204.63068 L 715.92193,204.63068 L 715.92193,353.29917 C 710.02869,411.19739 654.3814,454.47605 603.53249,454.146 C 548.64276,456.54073 487.94383,411.61025 483.5663,352.8035 L 484.07144,204.63068 z"
     id="path149"
     stroke-width="1.53385484"
     stroke="#de1818"
     fill="#de1818" />
  <path
     style="fill:#ffffff"
     d="m 530.76367,205.42188 v 49.55664 h 46.10742 v -49.55664 z m 46.10742,49.55664 v 49.55664 h 46.10547 v -49.55664 z m 46.10547,0 h 46.10742 v -49.55664 h -46.10742 z m 46.10742,0 v 49.55664 h 46.10547 v -49.55664 z m 0,49.55664 h -46.10742 v 49.55664 h 46.10742 z m -46.10742,49.55664 h -46.10547 v 49.55664 h 46.10547 z m -46.10547,0 V 304.53516 H 530.76367 V 354.0918 Z M 530.76367,304.53516 V 254.97852 H 484.6582 v 49.55664 z m -0.25195,49.8125 -45.60156,0.0215 c 1.46469,19.18815 10.09266,36.37878 18.70898,48.41602 l 26.90346,0.66405 z m 138.6543,0 0.006,48.99804 26.84685,-0.10047 c 8.61632,-12.03724 17.28611,-29.68794 18.7508,-48.87609 z m -138.64342,49.10157 -0.34844,26.00115 c 15.70657,11.08711 34.65128,18.5293 46.59731,21.02423 l 0.0996,-46.82617 z m 138.64928,-0.10353 -46.19532,0.30274 0.25,46.82617 c 11.94603,-2.49493 29.88328,-9.22734 45.58985,-20.31445 z"
     id="rect3711"
     inkscape:connector-curvature="0"
     sodipodi:nodetypes="cccccccccccccccccccccccccccccccccccccccccccccccccccccccccccc" />
  <g
     id="g4777"
     transform="translate(60,180)">
    <path
       d="m 553.24609,-66.00781 c 0,0 -2.30468,1.54917 -2.30468,1.58008 0,0.0309 -0.12696,1.79492 -0.12696,1.79492 l -1.10351,0.31054 -1.13672,-1.67187 -1.98828,-0.74414 -1.07422,-0.0625 -0.0312,1.30078 2.08398,2.69531 -0.18945,1.57813 -1.64062,0.40234 0.0625,2.97266 -2.01954,0.43359 -1.41406,2.62109 0.87305,0.81055 c 0.0448,0.0876 -0.68776,1.93946 -0.65625,1.93945 0.0315,0 0.5332,0.69727 0.5332,0.69727 l 0.53711,1.61133 1.35742,0.18555 0.34766,1.88867 2.14648,0.33984 1.98828,1.39453 0.125,0.86719 2.27344,0.0606 1.54688,0.49609 5.39648,-0.61914 0.72461,-1.11523 0.0644,-1.51758 2.9043,-0.0918 0.26367,-2.41992 h 1.53906 l -0.1914,-2.72461 1.2832,0.11328 -0.33008,-1.30664 -0.79882,-1.0625 -0.15625,-1.67188 -2.27344,-2.23046 -0.50391,-2.91016 c 0,0 -1.45312,-0.65072 -1.45312,-0.68164 0,-0.0309 -0.0937,-1.95117 -0.0937,-1.95117 l 1.64062,-2.25977 -0.1582,-0.89844 -1.51367,-0.0312 -1.13672,0.92969 c 0,0 -1.51563,0.15464 -1.51563,0.18555 v 0.68164 c 0,0 0.37891,1.26986 0.37891,1.30078 0,0.0309 -1.73633,0 -1.73633,0 l -0.0625,-2.01367 z m -27.10156,0.84961 c 0,0 -2.30273,1.54917 -2.30273,1.58008 0,0.0309 -0.12696,1.79492 -0.12696,1.79492 l -1.10351,0.31054 -1.13672,-1.67187 -1.98828,-0.74414 -1.07422,-0.0605 -0.0312,1.29883 2.08398,2.69531 -0.18945,1.57813 -1.64258,0.40234 0.0645,2.97266 -2.02149,0.43359 -1.41211,2.62109 0.87305,0.81055 c 0.0448,0.0876 -0.68776,1.93945 -0.65625,1.93945 0.0315,0 0.5332,0.69727 0.5332,0.69727 l 0.53711,1.61133 1.35742,0.18555 0.34766,1.88867 2.14453,0.33984 1.98828,1.39453 0.12695,0.86719 2.27149,0.0605 1.54687,0.49609 5.39844,-0.61914 0.72461,-1.11523 0.0644,-1.51563 2.90235,-0.0937 0.26562,-2.41992 h 1.53907 l -0.19141,-2.72461 1.2832,0.11328 -0.33008,-1.30664 -0.79882,-1.0625 -0.15821,-1.67188 -2.27148,-2.23046 -0.50586,-2.91016 c 0,0 -1.45117,-0.65072 -1.45117,-0.68164 0,-0.0309 -0.0937,-1.94922 -0.0937,-1.94922 l 1.64062,-2.26172 -0.1582,-0.89648 -1.51563,-0.0312 -1.13476,0.92773 c 0,0 -1.51563,0.15659 -1.51563,0.1875 v 0.67969 c 0,0 0.37891,1.26986 0.37891,1.30078 0,0.0309 -1.73633,0 -1.73633,0 l -0.0625,-2.01172 z m 14.05078,23.55078 c 0,0 -2.30468,1.54721 -2.30469,1.57812 0,0.0309 -0.125,1.79688 -0.125,1.79688 l -1.10546,0.31054 -1.13672,-1.67382 -1.98828,-0.74219 -1.07227,-0.0625 -0.0312,1.30078 2.08203,2.69336 -0.18945,1.58008 -1.64063,0.40234 0.0625,2.97266 -2.01953,0.43359 -1.41211,2.6211 0.8711,0.81054 c 0.0448,0.0876 -0.68776,1.9375 -0.65625,1.9375 0.0315,0 0.53515,0.69922 0.53515,0.69922 l 0.53711,1.61133 1.35547,0.18359 0.34766,1.89063 2.14648,0.33984 1.98828,1.39258 0.12696,0.86719 2.27148,0.0625 1.54688,0.49609 5.39648,-0.61914 0.72656,-1.11523 0.0625,-1.51758 2.9043,-0.0937 0.26562,-2.41797 h 1.53907 l -0.19141,-2.72461 1.2832,0.11328 -0.33203,-1.30664 -0.79687,-1.06445 -0.15821,-1.66992 -2.27343,-2.23047 -0.50391,-2.91016 c 0,0 -1.45117,-0.65072 -1.45117,-0.68164 0,-0.0309 -0.0957,-1.95117 -0.0957,-1.95117 l 1.64062,-2.25977 -0.15625,-0.89843 -1.51562,-0.0313 -1.13672,0.92969 c 0,0 -1.51368,0.15464 -1.51368,0.18555 v 0.68164 c 0,0 0.37891,1.26986 0.37891,1.30078 0,0.0309 -1.73633,0 -1.73633,0 l -0.0644,-2.01367 z"
       id="path36"
       inkscape:connector-curvature="0"
       style="fill:#fffa00;fill-opacity:1;stroke:#cca300" />
    <path
       d="m 555.52539,-51.27148 -0.53516,0.26171 -1.60742,0.13282 -1.29492,-0.21875 0.44727,0.4375 1.16015,0.26172 0.0449,1.35742 -1.20507,0.70117 -0.26758,0.65625 1.74023,-1.05078 c 0,0 2.76814,0.61328 2.85742,0.61328 0.0893,0 0.045,-0.52539 0.0898,-0.52539 0.0444,0 -2.72266,-0.34961 -2.72266,-0.34961 l -0.0449,-1.31445 c 0,0 0.84814,-0.4375 0.89258,-0.4375 0.0448,0 0.22231,0.0441 0.44531,-0.52539 z m -27.09961,0.8496 -0.53516,0.26368 -1.60742,0.13086 -1.29492,-0.21875 0.44727,0.4375 1.16015,0.26367 0.0449,1.35742 -1.20507,0.69922 -0.26758,0.6582 1.74023,-1.05273 c 0,0 2.76813,0.61328 2.85742,0.61328 0.0893,0 0.0431,-0.52539 0.0879,-0.52539 0.0444,0 -2.72266,-0.34961 -2.72266,-0.34961 l -0.043,-1.31445 c 0,0 0.84623,-0.4375 0.89063,-0.4375 0.0448,0 0.22426,0.0441 0.44726,-0.5254 z m 14.05078,23.55079 -0.53711,0.26171 -1.60547,0.13282 -1.29492,-0.22071 0.44727,0.43946 1.16015,0.26172 0.0449,1.35742 -1.20508,0.70117 -0.26953,0.65625 1.74218,-1.05078 c 0,0 2.76617,0.61328 2.85547,0.61328 0.0893,0 0.0451,-0.52539 0.0899,-0.52539 0.0444,0 -2.72266,-0.34961 -2.72266,-0.34961 l -0.0449,-1.31445 c 0,0 0.84818,-0.4375 0.89258,-0.4375 0.0448,0 0.22426,0.0441 0.44726,-0.52539 z"
       id="path44"
       inkscape:connector-curvature="0"
       style="fill:#663d19;fill-opacity:1;stroke:#cca300;stroke-width:0.2;stroke-miterlimit:4;stroke-dasharray:none" />
    <path
       inkscape:connector-curvature="0"
       id="path64"
       d="m 559.81055,-65.765625 -1.16016,1.050781 -1.38477,0.21875 0.44727,1.226563 3.125,-2.365235 z m -6.02539,0.21875 0.13476,0.919922 1.69531,-0.04492 z m -1.02735,0.04297 -1.78515,1.183594 1.65234,-0.263672 z m -20.04687,0.58789 -1.16016,1.050782 -1.38476,0.21875 0.44726,1.226562 3.125,-2.363281 z m -6.02539,0.21875 0.13281,0.919922 1.69726,-0.04297 z m -1.02735,0.04492 -1.78515,1.181641 1.65039,-0.263672 z m 20.35938,0.113282 1.96484,2.05664 h 1.38477 l -0.9375,-1.357422 -1.29492,-0.568359 z m 7.27734,0.464843 c -0.13392,0.005 -0.26758,0.01563 -0.26758,0.01563 l -0.22461,0.701172 -1.78515,0.175781 -0.0449,0.525391 4.89843,-0.179688 -0.16601,-0.259765 -1.74219,-0.304688 c 0,0 -0.40039,-0.614213 -0.40039,-0.658203 0,-0.0218 -0.13366,-0.02112 -0.26758,-0.01563 z m -34.37695,0.384766 1.96484,2.058594 h 1.38281 l -0.9375,-1.357422 -1.29296,-0.570313 z m 7.27539,0.464844 c -0.13392,0.005 -0.26758,0.01758 -0.26758,0.01758 l -0.22266,0.699219 -1.78515,0.175781 -0.0449,0.52539 4.89843,-0.179687 -0.16796,-0.257813 -1.74024,-0.30664 c 0,0 -0.40039,-0.61225 -0.40039,-0.65625 0,-0.0218 -0.13561,-0.02298 -0.26953,-0.01758 z m 33.57226,2.625 -0.35742,0.394531 -1.47265,0.132812 1.47265,2.144532 v 1.40039 l 0.0879,0.04492 -1.38086,0.34961 -4.0625,-0.04297 v -1.882813 l 0.98243,-0.65625 c 0,0 -2.27709,-0.002 -2.54493,0.08594 0.35712,0.21878 1.07227,0.439453 1.07227,0.439453 L 553.60742,-56 c 0,0 -4.59822,-0.04492 -4.6875,-0.04492 -0.0893,0 0.49024,1.007813 0.49024,1.007813 l 1.875,2.013671 c 0,0 0.71484,0.131481 0.71484,0.08789 0,-0.044 0.98242,-2.453125 0.98242,-2.453125 l 1.78516,-0.04297 1.5625,2.058594 0.53515,-0.08789 1.02539,-1.794921 1.60547,-1.22461 0.58203,0.304688 -0.13281,3.853515 c 0,0 -1.65234,0.217729 -1.65234,0.261719 0,0.0436 -0.13281,2.146485 -0.13281,2.146485 l -1.02735,1.007812 c 0,0 -0.58056,2.013672 -0.625,2.013672 -0.0448,0 -0.98242,1.226562 -0.98242,1.226562 l -1.83008,0.04297 c 0,0 -1.07031,-1.006781 -1.07031,-1.050781 0,-0.0436 -0.17969,-1.488281 -0.17969,-1.488281 0,0 -0.71297,-0.21875 -0.75781,-0.21875 -0.0444,0 -0.40234,-1.621094 -0.40234,-1.621094 l -1.25,-0.701172 -0.0879,-0.962891 -1.20508,-0.52539 c 0,0 -0.13485,-0.876322 -0.17969,-0.919922 -0.0444,-0.044 -0.58056,-0.392578 -0.625,-0.392578 -0.0448,0 -0.0449,-2.410156 -0.0449,-2.410156 l 1.07226,-0.173829 -0.59961,-0.769531 -0.20312,-0.675781 v -0.701172 l 0.89258,-0.875 c 0,0 -1.60742,-0.219381 -1.60742,-0.175781 0,0.044 -1.5625,0.69985 -1.5625,0.65625 0.0444,0 -0.0449,2.847656 -0.0449,2.847656 l -1.83007,0.568359 -1.47266,2.320313 0.75977,0.658203 0.16601,-0.0098 -0.74609,2.111329 0.66797,1.40039 0.84765,-2.101562 -0.74023,-1.41211 2.16992,-0.121094 0.44531,2.101563 0.80469,0.701172 0.13281,3.853515 0.75977,0.306641 0.22265,-1.533203 1.83008,-0.130859 0.35742,3.109375 -0.44726,0.394531 0.17969,0.480469 2.18554,-0.04297 c 0,0 0.49267,-0.832031 0.53711,-0.832031 0.0448,0 1.25,-0.131481 1.25,-0.08789 0,0.044 0.49024,0.919922 0.49024,0.919922 l 0.35742,-1.181641 c 0,0 1.16015,-0.48149 1.16015,-0.4375 0,0.0436 0.9375,1.488282 0.9375,1.488282 l 1.60547,-0.21875 -0.98047,-0.919922 -0.40234,-2.013672 2.23242,-1.183594 0.89258,1.490234 c 0,0 0.84718,0.0436 0.80273,0 -0.0448,-0.044 -0.98242,-1.708984 -0.98242,-1.708984 v -3.501953 l 1.69727,-2.277344 2.36523,-0.263672 v -0.96289 l -2.36523,-2.146485 -0.625,-2.976562 z m -27.0996,0.851562 -0.35743,0.392578 -1.47265,0.132813 1.47265,2.144531 v 1.402344 l 0.084,0.04492 h 0.002 l 0.58399,0.304687 -0.13477,3.853516 c 0,0 -1.65039,0.219682 -1.65039,0.263672 0,0.0436 -0.13477,2.144531 -0.13477,2.144531 l -1.02539,1.007812 c 0,0 -0.58056,2.013672 -0.625,2.013672 -0.0448,0 -0.98242,1.226563 -0.98242,1.226563 l -1.83008,0.04297 c 0,0 -1.07031,-1.006781 -1.07031,-1.050781 0,-0.0436 -0.17969,-1.488281 -0.17969,-1.488281 0,0 -0.71297,-0.21875 -0.75781,-0.21875 -0.0444,0 -0.40234,-1.621094 -0.40234,-1.621094 l -1.25,-0.699218 -0.0879,-0.964844 -1.20704,-0.525391 c 0,0 -0.13289,-0.876322 -0.17773,-0.919922 -0.0444,-0.044 -0.58056,-0.392578 -0.625,-0.392578 -0.0448,0 -0.0449,-2.408203 -0.0449,-2.408203 l 1.07226,-0.175781 -0.59961,-0.769531 -0.20507,-0.675782 v -0.701172 l 0.89257,-0.875 c 0,0 -1.60546,-0.219381 -1.60546,-0.175781 0,0.044 -1.5625,0.701803 -1.5625,0.658203 0.0444,0 -0.0449,2.845703 -0.0449,2.845703 l -1.83007,0.56836 -1.47266,2.322265 0.75781,0.65625 0.16797,-0.0098 -0.74805,2.111328 0.66993,1.400391 0.84765,-2.101563 -0.74023,-1.412109 2.16992,-0.119141 0.44531,2.101563 0.80274,0.699218 0.13476,3.853516 0.75781,0.30664 0.22461,-1.53125 1.83008,-0.132812 0.35547,3.109375 -0.44531,0.394531 0.17969,0.482422 2.18554,-0.04492 c 0,0 0.49072,-0.832031 0.53516,-0.832031 0.0448,0 1.25,-0.131471 1.25,-0.08789 0,0.044 0.49219,0.919922 0.49219,0.919922 l 0.35742,-1.18164 c 0,0 1.16016,-0.48149 1.16015,-0.4375 0,0.0436 0.9375,1.488281 0.9375,1.488281 l 1.60547,-0.21875 -0.98047,-0.919922 -0.40234,-2.013672 2.23047,-1.183594 0.89453,1.490235 c 0,0 0.84718,0.0436 0.80274,0 -0.0448,-0.044 -0.98243,-1.708985 -0.98243,-1.708985 v -3.501953 l 1.69727,-2.277344 2.36523,-0.263671 v -0.962891 l -2.36523,-2.146484 -0.625,-2.976563 z m -0.27344,4.117188 -1.37891,0.347656 -4.06055,-0.04297 v -1.882812 l 0.98243,-0.65625 c 0,0 -2.27709,2.8e-4 -2.54493,0.08789 0.35713,0.21878 1.07227,0.4375 1.07227,0.4375 l 0.043,2.189453 c 0,0 -4.59625,-0.04492 -4.68555,-0.04492 -0.0893,0 0.49024,1.007812 0.49024,1.007812 l 1.875,2.013672 c 0,0 0.71484,0.131481 0.71484,0.08789 0,-0.044 0.98242,-2.451171 0.98242,-2.451171 l 1.78516,-0.04492 1.56055,2.058593 0.5371,-0.08789 1.0254,-1.794922 z m 13.71484,5.541015 -1.96289,2.015625 0.9375,0.480469 z m -27.09961,0.84961 -1.96289,2.015625 0.93555,0.480468 z m 27.75391,7.875 -1.16211,1.050781 -1.38281,0.21875 0.44531,1.226562 3.125,-2.365234 z m -6.02734,0.21875 0.13476,0.919922 1.69531,-0.04492 z m -1.0254,0.04297 -1.78515,1.181641 1.65039,-0.261719 z m -6.74023,0.962891 1.96484,2.058594 h 1.38282 l -0.9375,-1.357422 -1.29493,-0.568359 z m 7.27539,0.466797 c -0.13392,0.005 -0.26758,0.01563 -0.26758,0.01563 l -0.22265,0.701172 -1.78711,0.173828 -0.043,0.525391 4.89648,-0.177735 -0.16601,-0.259765 -1.74024,-0.306641 c 0,0 -0.40234,-0.61225 -0.40234,-0.65625 0,-0.0218 -0.13366,-0.02112 -0.26758,-0.01563 z m 6.47266,3.474609 -0.35742,0.394531 -1.47266,0.13086 1.47266,2.146484 v 1.400391 l 0.0859,0.04492 h 0.002 l 0.58203,0.30664 -0.13477,3.853516 c 0,0 -1.65234,0.217729 -1.65234,0.261719 0,0.0436 -0.13282,2.146484 -0.13281,2.146484 l -1.02735,1.00586 c 0,0 -0.58056,2.015624 -0.625,2.015624 -0.0448,0 -0.98047,1.22461 -0.98047,1.22461 l -1.83008,0.04492 c 0,0 -1.07226,-1.006782 -1.07226,-1.050782 0,-0.0436 -0.17774,-1.488281 -0.17774,-1.488281 0,0 -0.71492,-0.220703 -0.75976,-0.220703 -0.0444,0 -0.40039,-1.61914 -0.40039,-1.61914 l -1.25,-0.701172 -0.0898,-0.962891 -1.20507,-0.525391 c 0,0 -0.1329,-0.876321 -0.17774,-0.919922 -0.0444,-0.044 -0.58056,-0.394531 -0.625,-0.394531 -0.0448,0 -0.0449,-2.408203 -0.0449,-2.408203 l 1.07031,-0.173828 -0.59961,-0.769531 -0.20312,-0.675781 v -0.701172 l 0.89258,-0.876954 c 0,0 -1.60743,-0.217428 -1.60743,-0.173828 0,0.044 -1.56054,0.69985 -1.56054,0.65625 0.0444,0 -0.0449,2.845704 -0.0449,2.845704 l -1.83008,0.570312 -1.47266,2.320312 0.75781,0.658204 0.16602,-0.0098 -0.74609,2.111328 0.66992,1.400391 0.84765,-2.101563 -0.74218,-1.412109 2.16992,-0.121094 0.44726,2.101563 0.80274,0.701172 0.13476,3.853515 0.75782,0.306641 0.22265,-1.533203 1.83008,-0.13086 0.35742,3.109375 -0.44531,0.394532 0.17773,0.480468 2.1875,-0.04297 c 0,0 0.49072,-0.832032 0.53516,-0.832032 0.0448,0 1.25,-0.13147 1.25,-0.08789 0,0.044 0.49023,0.919922 0.49024,0.919922 l 0.35742,-1.183594 c 0,0 1.16015,-0.48149 1.16015,-0.4375 0,0.0436 0.9375,1.490234 0.9375,1.490234 l 1.60743,-0.21875 -0.98243,-0.919922 -0.40234,-2.015625 2.23242,-1.18164 0.89258,1.488281 c 0,0 0.84913,0.0436 0.80469,0 -0.0448,-0.044 -0.98242,-1.707031 -0.98242,-1.707031 v -3.503907 l 1.69531,-2.27539 2.36523,-0.263672 v -0.962891 l -2.36523,-2.146484 -0.625,-2.978516 z m -0.27149,4.117188 -1.38086,0.349609 -4.06054,-0.04297 v -1.882812 l 0.98047,-0.658203 c -10e-6,0 -2.27513,2.8e-4 -2.54297,0.08789 0.35712,0.21878 1.07031,0.4375 1.07031,0.4375 l 0.0449,2.189454 c 0,0 -4.5982,-0.04297 -4.6875,-0.04297 -0.0893,0 0.49219,1.007812 0.49219,1.007812 l 1.875,2.013672 c 0,0 0.71289,0.131481 0.71289,0.08789 0,-0.044 0.98242,-2.453125 0.98242,-2.453125 l 1.78516,-0.04297 1.5625,2.058594 0.53515,-0.08789 1.02735,-1.796875 z m -13.38672,6.392578 -1.96484,2.013672 0.9375,0.482422 z"
       style="fill:#cca300;stroke:#cca300" />
    <path
       inkscape:connector-curvature="0"
       id="rect48"
       d="m 556.26562,-55.650391 c -0.18724,0 -0.33789,0.148339 -0.33789,0.332032 v 0.386718 c 0,0.183693 0.15065,0.332032 0.33789,0.332032 h 0.39454 c 0.18724,0 0.33789,-0.148339 0.33789,-0.332032 v -0.386718 c 0,-0.183693 -0.15065,-0.332032 -0.33789,-0.332032 z m -5.08789,0.21875 c -0.18724,0 -0.33789,0.148339 -0.33789,0.332032 v 0.386718 c 0,0.183693 0.15065,0.332032 0.33789,0.332032 h 0.39454 c 0.18724,0 0.33789,-0.148339 0.33789,-0.332032 v -0.386718 c 0,-0.183693 -0.15065,-0.332032 -0.33789,-0.332032 z m -22.01171,0.63086 c -0.18725,0 -0.3379,0.148341 -0.3379,0.332031 v 0.386719 c 0,0.18369 0.15065,0.332031 0.3379,0.332031 h 0.39453 c 0.18724,0 0.33789,-0.148341 0.33789,-0.332031 v -0.386719 c 0,-0.18369 -0.15065,-0.332031 -0.33789,-0.332031 z m -5.0879,0.21875 c -0.18723,0 -0.33789,0.148341 -0.33789,0.332031 v 0.386719 c 0,0.18369 0.15066,0.332031 0.33789,0.332031 h 0.39454 c 0.18724,0 0.33789,-0.148341 0.33789,-0.332031 V -54.25 c 0,-0.18369 -0.15065,-0.332031 -0.33789,-0.332031 z M 543.21484,-31.25 c -0.18724,0 -0.33789,0.146388 -0.33789,0.330078 v 0.388672 c 0,0.18369 0.15065,0.332031 0.33789,0.332031 h 0.39649 c 0.18725,0 0.33789,-0.148341 0.33789,-0.332031 v -0.388672 c 0,-0.18369 -0.15064,-0.330078 -0.33789,-0.330078 z m -5.08789,0.21875 c -0.18724,0 -0.33789,0.148341 -0.33789,0.332031 v 0.386719 c 0,0.18369 0.15065,0.332031 0.33789,0.332031 h 0.39649 c 0.18725,0 0.33789,-0.148341 0.33789,-0.332031 v -0.386719 c 0,-0.18369 -0.15064,-0.332031 -0.33789,-0.332031 z"
       style="fill:#663d19;stroke:none" />
    <g
       transform="translate(-27.1,-179.15)"
       style="fill:#cca300;stroke:#cca300"
       id="use69">
      <path
         inkscape:connector-curvature="0"
         d="m 548.42904,121.0651 c 1.69592,-0.67139 2.901,-1.2112 4.99889,-1.40105 1.97871,-0.20451 3.51143,0.0729 5.26674,0.39396 m 5.40086,8.933 -0.75869,-1.09468 m -0.49084,3.76598 -0.4464,-1.62022 m 0.0794,14.57301 c 1.69592,-0.67139 2.901,-1.2112 4.99889,-1.40105 1.97871,-0.20451 3.51143,0.0729 5.26674,0.39396 m 5.40086,8.933 -0.75869,-1.09468 m -0.49084,3.76598 -0.4464,-1.62022 M 575.529,120.2151 c 1.69592,-0.67139 2.901,-1.2112 4.99889,-1.40105 1.97871,-0.20451 3.51143,0.0729 5.26674,0.39396 m 5.40086,8.933 -0.75869,-1.09468 m -0.49084,3.76598 -0.4464,-1.62022"
         style="fill:none"
         id="path4735" />
    </g>
  </g>
</svg>
