<?xml version="1.0" encoding="UTF-8"?>
<svg width="1200" height="720" version="1.1" viewBox="0 0 36000 21600" xmlns="http://www.w3.org/2000/svg">
 <path d="m0 0h36000v21600h-36000z" fill="#ba0c2f"/>
 <path d="m7500 0h21000v21600h-21000z" fill="#d69a2d"/>
 <path d="m9e3 0h18000v21600h-18000z" fill="#041e42"/>
 <path d="m17136 4073.5h590.9l183.1 250.9-295 97.1-479-348m1699.2 0h-590.9l-183.1 250.9 295 97.1 479-348m-848.8-616.8 179.2 559.2-180.9 250.8-179.1-249.1 180.8-560.9m520 1612.8-474-342.3v-309.3l293.1 96.6 180.9 555m-1040.4 0 474-342.3v-309.3l-293.1 96.6-180.9 555" fill="#d69a2d"/>
 <path transform="scale(30)" d="m582.63 256.31c-6.8618 0.0262-11.899 2.5859-15.986 8.9434-13.57 13.615-23.733 30.551-27.654 49.479-5.0157 14.893-1.9202 32.157 9.4121 43.393 4.9123 4.8096 10.794 8.4393 16.818 11.906-1e-3 -0.0652-9e-3 -0.12971-6e-3 -0.19531 0.66666-8.5833 14.452-23.667 21.988-24.5 6.4488-0.71654 18.142 12.289 23.258 19.213 2e-3 -9e-3 4e-3 -0.0179 6e-3 -0.0274 7.0206-16.693 9.9046-36.607 3.623-53.592 10.26 9.1459 7.321 24.658 5.5312 36.703-1.887 9.7708-5.494 19.18-10.551 27.748 16.215-2.6955 18.241-23.88 23.568-36.988 2.7138-10.588 3.1574-21.923-4e-3 -32.467-4.0639-15.229-17.272-25.061-28.965-34.33-5.2956-8.2844-14.177-15.311-21.039-15.285zm110.75 26.941c-20.589-0.34187-39.878 14.008-50.246 31.518-5.1027 12.541-3.1484 28.151-10.232 40.824-1.3669 5.3144-12.095 20.613-1.5606 10.744 12.751-11.013 23.324-24.266 36.059-35.262-0.45677 5.0975-10.071 15.048-8.9688 13.66-8.1082 8.9284-16.437 17.717-25.744 25.414 4.5438-1.2681 15.24-4.065 20.193-6.0996-6.3708 4.859-21.495 8.5217-7.9102 9.8223 10.545 1.3889 9.373 13.88 20.102 5.3105 18.266-8.7792 34.234-26.054 35.639-46.994-0.3576-5.1291 5.4539-20.316 4.4609-6.7031 1.046 11.713-0.45243 24.07-8.1641 33.447-1.9695 6.3238-22.64 19.933-7.2949 13.658 12.484-2.0413 25.444-2.8943 25.521-18.826 2.1651-9.2011 2.6911-18.724 2.3203-28.146 1.1631-6.3777-5.5656-23.279-11.035-12.91 0.81563-8.8575 9.5962-21.998-1.6152-27.682-3.8535-1.1442-7.7107-1.7121-11.523-1.7754zm-130.47 0.6875c-4.0523 9.6389-11.506 20.79-14.145 31.527-1.231 1.461-3.3378 0.73486-3.6797-0.9336 4.1006-12.686 8.4033-24.142 17.824-30.594zm-63.188 23.535c-5.1539 0.0166-10.239 0.95058-15.09 3.2461-12.007 9.6043-7.3021 28.758 1.5742 38.959 12.404 17.018 32.59 25.97 53.02 28.486 15.75-7.2406-63.249-19.214-23.576-14.541-8.6007-4.5125-18.834-8.7269-24.877-16.225 16.685 6.6166 31.822 17.171 49.307 22.039 7.5057 12.067 15.034 24.263 23.816 35.469 14.305 17.819 42.097 16.912 59.066 3.5274 10.008-7.17 19.094-16.797 26.607-26.85-15.209-7.8621-32.717-3.4615-47.943 1.9531-10.435 2.7034-22.359 4.371-31.213-3.4375-3.3269-1.8176-17.411-11.584-26.225-17.121 0.17259-8.378-10.876-25.752-10.639-18.402-3.543-9.1278-2.9901-19.266-0.56446-28.611-10.252-4.1243-21.925-8.5286-33.264-8.4922zm167.77 45.252c0.50454 2.8667-4.568 6.7093-6.7598 5.6074 0.50591-2.0385 4.3542-6.1233 6.7598-5.6074zm-174.56 19.648c-15.266-0.16239-31.47 4.5678-41.592 16.199-8.3398 12.474 4.7792 28.14 17.34 30.875 11.039 3.6956 22.382 3.3174 33.826 3.7129 1.7344 0.0301 8.0895 1.8416 3.1309 2.7617-4.7371 1.3669-15.692-0.28826-4.084 2.8691 20.242 9.6478 43.811 0.21661 59.584-13.68-13.603 6.2407-28.922 10.96-43.984 9.041 12.658-4.6154 27.729-4.8703 40.229-11.375 4.8429-6.3345-3.2424-13.435-10.225-9.6856-7.0489 1.1584-18.968-2.709-20.242-4.6074 5.2521-0.85449 18.713-5.21 22.908-3.3555-3.9137-6.3737-6.1828-13.915-15.791-12.078-12.329-0.85156-22.817-8.5395-34.635-10.314-2.1221-0.21708-4.284-0.34008-6.4648-0.36328zm56.891 22.756c0.40512 0.65977 0.82101 1.3106 1.2715 1.9336 0.0443-0.94799-0.43144-1.5622-1.2715-1.9336zm164.13-20.76c-13.782-0.0927-28.016 5.1409-40.836 9.3555-12.482 3.8793-25.835 4.9655-33.033 17.344-14.086 8.519 25.098 19.983 17.832 17.574 15.752 3.1388 32.208 1.0633 47.713 5.418-11.474 2.5228-24.327 0.18745-36.316-0.17578-10.676-0.6755-21.38-3.0924-30.367-9.1836 11.377 20.151 37.813 24.848 58.588 18.881 4.5367-1.7757 27.798-7.0823 21.725-6.7168-1.2787-0.12587-5.4328-2.2009-1.3144-2.6211 10.694-0.3111 23.102-0.46359 29.455-10.746 9.3041-12.069-1.3359-27.331-12.428-33.688-6.7025-3.883-13.799-5.3929-21.018-5.4414zm-84.443 36.133c-7.6415 8.4027-24.509 7.2376-19.947 21.213-6.1984 9.7543 0.32315-16.26-9.6367-8.0059 0.17324 10.22-1.0729 23.501-9.7734 29.682 2.1938-8.8348 5.0988-17.695 6.0098-26.746-3.0694-12.451-12.919 18.029-13.369 6.2695 11.979-12.614-7.7055-9.2912-14.59-16.609-9.2482 8.7338-20.303 15.772-32.527 19.477-2.4094 11.883 7.8321 19.443 17.84 22.463 4.7801 3.1661 16.7 9.9241 23.385 12.676-8.7423-1.3398-21.137-6.0584-26.314-8.5957 14.145 11.495 32.255 21.391 50.918 16.748 12.479-2.3213 24.824-6.4373 35.432-13.541-14.498 3.9141-29.835 7.9198-44.881 5.4492 13.147-4.1873 28.335-3.8191 41.84-8.3867 7.7421-1.5706 15.776-5.4959 16.557-14.447 2.8884-11.505-3.2734-16.701-11.238-23.438-3.8156-4.3171-6.383-9.5292-9.7031-14.207zm-78.924 51.822c-0.66939-0.54396-1.341-1.087-1.9922-1.6367-1.0454-0.075-0.12349 0.59993 1.9922 1.6367z" fill="#fff" stroke-width=".033"/>
 <path transform="scale(30)" d="m465.91 535.77c-0.0867 0.10667-0.1832 0.23409-0.2832 0.35742 0.23333 0.41667 0.31759 0.80006 0.26757 1.1367-0.0667 0.35-0.39632 0.90235-0.98632 1.6524-2.639 3.7097-6.3216 8.6939-10.297 12.377-0.80666 0.58-1.6407 0.79279-2.4707 0.68945-0.0967 0.12334-0.19596 0.25076-0.2793 0.35742 2.6606 1.883 5.127 3.8389 7.5332 5.9238 0.0833-0.10666 0.18264-0.23075 0.2793-0.35742-0.29666-0.78-0.28693-1.6401 0.0664-2.5801 2.7146-4.6186 6.438-8.8502 9.627-12.902 0.59-0.75 1.0464-1.201 1.373-1.3477 0.31333-0.13 0.70786-0.13872 1.1445-0.0254 0.0967-0.12667 0.19596-0.25466 0.2793-0.36133-2.2746-1.5339-4.4045-3.3368-6.2539-4.9199zm268.14 0.23438c-4.56 3.3933-9.0962 6.7659-13.633 10.143 0.87333 1.8733 1.7271 3.7594 2.5938 5.666 0.17-0.0967 0.31622-0.17643 0.46289-0.25977 0.0465-2.6626 0.21788-5.3047 1.8398-7.3223 0.58199-0.21927 0.70338 0.11077 1.043 0.47265 2.3871 3.216 4.518 6.0647 6.623 8.9043 1.67 2.2467 2.6741 3.8221 2.9941 4.7188 0.32666 0.95 0.31023 1.8112-0.01 2.5879 0.0967 0.12667 0.19011 0.25524 0.27344 0.36524 2.5146-2.081 5.0764-3.9695 7.7363-5.7598-0.08-0.11-0.1762-0.23661-0.26953-0.36328-0.83667 0.0833-1.6676-0.15-2.4609-0.75-0.78667-0.55-2.0097-1.9637-3.6797-4.207-2.4018-3.2177-4.4839-6.0423-6.627-8.9023-0.56836-0.5576-0.22741-0.73146-0.12891-1.1543 2.4398-1.0254 5.2662-0.32863 7.5234 0.36133 0.12-0.12 0.2388-0.23685 0.35547-0.35352-1.5533-1.3933-3.0967-2.7698-4.6367-4.1465zm-260.34 6.0703c-0.0633 0.0933-0.13955 0.20893-0.21289 0.32226 0.58 0.73334 0.88913 1.4264 0.86915 2.0664-0.0333 0.65667-0.40636 1.5837-1.1797 2.7637-2.9895 3.7404-4.4805 8.514-8.3457 11.543-1.0067 0.72667-2.1416 0.94073-3.3516 0.66406-0.0867 0.13334-0.17666 0.26615-0.25 0.38282 2.2372 1.2589 4.3247 2.6516 6.3574 4.1562 0.0767-0.11334 0.16334-0.24558 0.25-0.37891-0.7-1.0567-0.92349-2.1832-0.66015-3.3965 1.8298-4.6481 4.4599-8.0742 7.084-12.098 0.62667 7.4533 1.4606 14.937 2.0606 22.377 0.18667 0.12 0.37341 0.2442 0.58008 0.38086 2.22-3.39 4.4497-6.8048 6.6797-10.215 1.9833-3.0267 3.4898-4.9252 4.5098-5.6719 1.02-0.74666 2.15-0.95992 3.3867-0.66992l0.25976-0.40039c-2.2241-1.341-4.2499-2.6491-6.3808-4.1738-0.0867 0.13334-0.17368 0.26706-0.26368 0.40039 0.69 1.0233 0.95116 2.1465 0.70118 3.3398-0.27667 1.18-1.3762 3.3161-3.3828 6.3828-0.39666 0.61-0.8107 1.2411-1.2207 1.8711-0.44667-5.2433-1.0375-10.474-1.4941-15.697-2.0945-1.2114-3.9703-2.5892-5.9961-3.9492zm242.13 8.4434c-6.2144 0.69323-14.2 7.1226-9.9258 13.299 3.4309 6.8072 11.194-2.9846 14.83 2 1.32 2.0956 0.87512 4.4505-0.91992 5.7734-3.2214 1.7626-6.5311 0.0569-8.6641-2.1074-0.18333 0.0767-0.33219 0.1568-0.49219 0.2168 0.72334 1.9667 1.4 3.9133 2.1133 5.8633 3.0498-0.24161 5.8431-1.4279 8.1426-3.0566 3.9365-2.8519 5.7612-7.7594 3.1602-11.51-3.8419-5.1619-8.117-0.71091-12.807-0.65039-2.7347-0.9526-3.5907-4.5346-1.2871-6.2324 2.7234-1.5566 5.4926-0.16169 7.1934 1.8125 0.13666-0.0967 0.28325-0.17286 0.41992-0.26953-0.6-1.6967-1.167-3.442-1.7637-5.1387zm-15.785 8.543c-2.2909 1.173-4.4915 2.145-6.9004 3.1758 0.0567 0.12333 0.12279 0.27073 0.18945 0.41406 1.2333-0.04 2.3242 0.3368 3.1875 1.2168 0.88667 0.87 2.1151 2.9356 3.6484 6.2656 1.8766 3.7497 4.3455 8.5987 0.0352 11.344-6.0107 2.7616-10.706-10.597-11.404-14.557-0.13-0.94333 0.0527-1.8031 0.55274-2.5098-0.0667-0.14667-0.13279-0.29073-0.18946-0.41407-0.0533 0.0233-0.0769 0.033-0.10351 0.043-2.8565 1.5522-6.0222 2.8874-8.6621 3.9902 0.06 0.12333 0.0993 0.28106 0.16601 0.42773 0.86 0.08 1.6598 0.4894 2.3398 1.3027 2.2753 3.45 3.4624 6.4708 5.1191 10.053 2.2254 5.0839 6.7147 6.0615 10.896 4.1836 7.0639-3.2479 5.644-8.4019 2.5684-14.443-1.5233-3.31-2.324-5.5762-2.3906-6.8496-0.09-1.26 0.30671-2.3205 1.1367-3.2305-0.0667-0.14334-0.13278-0.28878-0.18945-0.41211zm-202.63 10.916c-2.1641 5.7851-0.0838 11.985 5.5156 14.307 3.072 1.1714 6.3588 1.4007 9.3106 0.70703 0.26293-0.65135 0.51573-1.2646 0.76758-1.873 0.96-2.3567 1.7384-3.8298 2.2617-4.4531 0.53-0.64333 1.1799-0.91682 1.9199-0.91015 0.0433-0.10334 0.0869-0.21146 0.10351-0.32813-3.0467-1.102-6.0253-2.3581-8.8887-3.625-0.0367 0.0833-0.0811 0.1863-0.12109 0.29297 0.74667 0.57667 1.1475 1.2024 1.1875 1.9824-0.53077 2.4928-0.93845 5.4464-3.1602 6.9336-0.75 0.53-1.6308 0.56416-2.5508 0.1875-1.3533-0.55-2.1261-1.8014-2.2461-3.6914 0.40576-4.9668 1.9921-10.334 5.8633-13.492 2.9386-2.0026 6.6029-1.3266 7.5332 1.9199 0.37 1.43 0.30401 3.2706-0.22265 5.584 0.13666 0.10333 0.24614 0.19607 0.38281 0.30273 1.2167-1.59 2.4572-3.1737 3.6738-4.7637-1.8168-2.4435-4.154-4.5275-6.748-5.5996-6.089-2.1864-12.214 0.79888-14.582 6.5195zm162.61 4.2166c0.0433 0.13 0.0965 0.27969 0.14649 0.42969 0.48 0.0267 0.85018 0.16338 1.1035 0.38672 0.23334 0.25333 0.52261 0.83046 0.83594 1.7305 1.2529 3.5843 2.3542 6.7698 3.4648 9.9395 0.92 2.64 1.4028 4.4445 1.4395 5.3945 0.0533 0.99333-0.21987 1.8096-0.78321 2.4629 0.0533 0.15 0.10707 0.29969 0.15039 0.42969 3.0158-1.2245 6.0663-2.273 9.1152-3.1777-0.0467-0.12666-0.0984-0.27969-0.14844-0.42968-0.84666-0.16001-1.5445-0.64003-2.1445-1.4434-1.5221-2.7617-2.1553-4.8286-3.1094-7.5801 0.0167-0.0333 0.0436-0.0388 0.0703-0.0488 4.5319 0.17318 7.117 4.6566 9.377 8 2.5237-0.9698 5.1678-1.7786 7.5527-2.6113-0.0367-0.10667-0.0803-0.23661-0.12696-0.36328-1.0767 0.18333-2.59-0.87943-4.5-3.2461-1.1516-1.5384-2.6344-3.1347-4.2871-3.7305-1.06-0.35334-2.3052-0.39914-3.7285-0.11914 1.9833-1.03 3.3298-2.1227 4.0898-3.3027 1.5051-2.8782-0.24283-6.2121-2.998-6.7578-5.5107 0.066-10.517 2.4519-15.52 4.0371zm-140.02 5.6467c-1.899 6.027 0.7455 12.285 6.623 14.32 6.1897 1.7371 11.925-1.6732 13.902-7.3809 1.9049-6.0564-0.87376-12.137-6.6836-14.148-5.9624-1.993-11.894 1.5788-13.842 7.209zm151.44-7.0529c1.6032 1.4259 2.9062 3.9097 2.0527 5.9766-1.0828 1.4902-2.259 1.8773-3.8535 2.3066l-2.6895-7.7305c1.5299-0.75367 2.9673-1.0734 4.4902-0.55273zm-135.32 4.4102c-0.43111 5.1643-1.3298 10.693-4.9668 14.637-2.8818 2.6221-6.4403 0.92226-6.8262-2.2676 0.48211-5.2086 1.3778-10.696 4.9961-14.727 2.9408-2.4108 6.3714-0.81973 6.7969 2.3574zm119.92-1.5039c-5.4867 1.2367-10.976 2.4743-16.463 3.7109 0.0133 2.0733 0.0276 4.1424 0.0742 6.2324 0.16667-0.0167 0.33334-0.0296 0.5-0.043 0.72334-1.68 1.5463-3.0544 2.3496-4.1211 0.83334-1.0733 1.6021-1.665 2.2754-1.8184 0.61951 0.0356 0.59751 0.39103 0.76172 0.85544 0 0 3.1299 11.044 3.2598 16.354-0.0867 1-0.42136 1.7727-1.0547 2.3594 0.0367 0.15333 0.0716 0.31002 0.10156 0.44336 3.1219-0.87468 6.2562-1.5675 9.3887-2.1152-0.03-0.13333-0.0629-0.28669-0.0996-0.44336-0.82-0.25666-1.4823-0.81164-1.959-1.6816-1.9064-4.9087-3.9004-15.299-3.9004-15.299-0.31644-0.85291-0.20807-1.3843 0.1504-1.9707 0.67333-0.15 1.5953 0.0605 2.8086 0.67383 1.21 0.61333 2.5173 1.5062 3.8906 2.7129 0.15667-0.0567 0.31404-0.11578 0.4707-0.17578-0.82666-1.91-1.7047-3.7905-2.5547-5.6738zm-109.84 0.72266c-0.0267 0.13333-0.0604 0.29002-0.0937 0.44336 0.39667 0.26999 0.66701 0.60645 0.76367 0.95312 0.0967 0.34667 0.048 0.98833-0.13867 1.875l-3.7539 15.586c-0.5 0.89-1.1636 1.4698-1.9902 1.7598-0.0333 0.15667-0.0671 0.31394-0.0937 0.44727 6.0782 0.71435 13.528 4.4743 18.684 0.93359 4.3322-3.8768 6.3862-10.989 3.2676-15.711-4.4858-4.7712-10.652-4.7513-16.645-6.2871zm7.6035 2.8398c2.0173 0.2938 3.9069 1.7032 4.3965 3.2539 0.50282 4.8645 0.1336 10.372-3.0488 14.27-1.2167 1.46-2.6668 2.0149-4.3535 1.6582-0.84334-0.18-1.3298-0.56164-1.5098-1.1816-0.18333-0.62-0.0748-1.9431 0.36524-4.0098 0.99-4.6933 1.9832-9.3828 2.7049-11.716s1.0855-2.3041 1.4455-2.2741zm38.873 1.9707c-1.8467 4.5233-3.7686 9.021-5.6152 13.541-0.9252-3.5421-2.0321-6.5899-2.7402-9.7676-0.06-0.39333-0.0967-0.73643-0.0801-1.0098 0.03-0.5 0.16635-0.90349 0.42968-1.1602 0.26667-0.28 0.68737-0.41667 1.2207-0.5 7e-3 -0.15667 0.0154-0.31646 0.0254-0.45313-3.3122 7e-3 -6.9949-0.3465-10.006-0.59379-0.01 0.13667-0.0207 0.29703-0.0273 0.45703 0.65334 0.13 1.1877 0.47883 1.5977 1.0488l6.8887 21.904c0.11 7e-3 0.19401 0.0142 0.27735 0.0176 1.8833-4.7267 3.8764-9.4002 5.7598-14.104 1.4233 4.9 2.9602 9.7818 4.4102 14.705 0.0833 3e-3 0.16666 0.0103 0.25 0.0137 3.7498-6.8499 4.5486-13.969 8.9492-19.865 0.81-1.0467 1.6515-1.6849 2.5215-1.9082 0.01-0.15666 0.0187-0.31645 0.0254-0.45312-2.5651-0.0154-5.1486-0.22573-7.5527-0.44526-7e-3 0.13666-0.0174 0.29312-0.0274 0.45312 0.57334 0.10334 0.99998 0.38008 1.3066 0.83008 0.27667 0.47333 0.40662 1.0727 0.36329 1.8027-0.53052 3.4174-1.9331 6.7542-3.0527 9.9492-1.5133-4.8133-3.1358-9.6086-4.6758-14.445-0.08-7e-3 -0.16471-0.0109-0.24805-0.0176zm31.537 0.54102c-5.4433 0.43521-10.273 0.85908-15.363 1.0996 0.01 0.13333 0.0238 0.29312 0.0371 0.45312 0.45667 0.14334 0.78003 0.36901 0.94336 0.65235 0.19 0.30333 0.32372 0.93143 0.40039 1.8848l0.93945 11.689c0.16667 2.04 0.14545 3.5236-0.0879 4.4336-0.20333 0.92667-0.67213 1.65-1.3555 2.1367 0.0133 0.16 0.0271 0.31646 0.0371 0.45312 5.7135-0.62321 12.112-1.0905 17.439-1.5176 0.38333-2.47 0.79625-4.922 1.1562-7.3887-0.17-0.0333-0.31381-0.0682-0.48047-0.10156-1.794 2.789-4.1906 6.4178-7.5723 6.7441-1.0767 0.0867-1.877-0.19008-2.4004-0.83008-0.52333-0.64333-0.83289-1.7356-0.96289-3.3223-0.13333-1.6767-0.26763-3.3312-0.4043-5.0078 3.0168-0.44107 5.6756 0.20787 6.7363 2.9043 0.16667-0.0133 0.33138-0.0277 0.49805-0.041-0.21667-2.72-0.43763-5.4401-0.6543-8.1367-0.16666 0.0133-0.33276 0.0277-0.49609 0.041-0.72291 3.049-3.671 3.9409-6.1875 3.9199-0.22667-2.81-0.45636-5.6431-0.67969-8.4531 3.6708-0.52575 7.5347 1.8503 9.6914 4.0801 0.16666-0.0133 0.33276-0.0277 0.49609-0.041-0.56667-1.8933-1.1638-3.7823-1.7305-5.6523z" fill="#fff" stroke-width=".033333"/>
 <path transform="scale(30)" d="m534.56 132.32-0.70312 14.326-13.873 3.7305 13.416 5.0488-0.58984 14.277 8.9258-11.207 13.471 5.0527-7.8789-11.85 8.9785-11.203-13.869 3.7305zm130.89 0-7.877 11.906-13.869-3.7305 8.9785 11.203-7.8789 11.85 13.471-5.0527 8.9258 11.207-0.58984-14.277 13.416-5.0488-13.873-3.7305zm-182.03 20.156 2.5644 14.184-12.697 6.7402 14.178 1.9648 2.5684 14.07 6.248-12.949 14.176 1.9629-10.35-9.8828 6.2422-12.896-12.582 6.7461zm233.17 0-10.348 9.9394-12.582-6.7461 6.2422 12.896-10.35 9.8828 14.176-1.9629 6.248 12.949 2.5684-14.07 14.178-1.9648-12.697-6.7402zm-254.82 29.459-10.988 9.293-12.129-7.5684 5.3965 13.26-10.99 9.293 14.307-1.0898 5.3965 13.264 3.4726-13.895 14.248-1.0918-12.188-7.5176zm276.46 0 3.4766 13.947-12.188 7.5176 14.248 1.0918 3.4726 13.895 5.3965-13.264 14.307 1.0898-10.99-9.293 5.3965-13.26-12.129 7.5684zm-314.82 35.24-8.541 11.494-13.582-4.5234 8.3125 11.639-8.4863 11.551 13.609-4.3691 8.3144 11.639 0.14648-14.242 13.662-4.3633-13.529-4.5781zm353.18 0 0.0899 14.246-13.525 4.5781 13.662 4.3633 0.14648 14.242 8.3144-11.639 13.609 4.3691-8.4863-11.551 8.3125-11.639-13.582 4.5234zm-382.56 43.094-5.7168 13.08-14.246-1.3633 10.787 9.5156-5.8242 13.074 12.418-7.1895 10.793 9.4024-3.1934-13.93 12.363-7.1934-14.24-1.4707zm411.94 0-3.1406 13.926-14.24 1.4707 12.363 7.1934-3.1934 13.93 10.793-9.4024 12.418 7.1895-5.8242-13.074 10.787-9.5156-14.246 1.3633zm-431.27 48.463-2.5684 14.121-14.121 1.9551 12.617 6.7734-2.5098 14.01 10.377-9.9199 12.615 6.7734-6.252-12.812 10.266-9.9258-14.176 1.9492zm450.6 0-6.248 12.924-14.176-1.9492 10.266 9.9258-6.252 12.812 12.615-6.7734 10.377 9.9199-2.5098-14.01 12.617-6.7734-14.121-1.9551zm-458.29 50.928 0.69336 14.303-13.396 5.1289 13.855 3.707 0.69336 14.305 7.8535-11.961 13.914 3.7109-9.0644-11.182 7.8008-11.963-13.344 5.1309zm465.97 0-9.0059 11.18-13.344-5.1309 7.8008 11.963-9.0644 11.182 13.914-3.7109 7.8535 11.961 0.69336-14.305 13.855-3.707-13.396-5.1289zm-462.45 52.156 3.9863 13.764-11.92 7.9922 14.34 0.55469 3.9902 13.652 4.8906-13.357 14.342 0.44336-11.299-8.7852 4.9434-13.41-11.92 7.9902zm458.93 0-11.354 8.8438-11.92-7.9902 4.9434 13.41-11.299 8.7852 14.342-0.44336 4.8906 13.357 3.9902-13.652 14.34-0.55469-11.92-7.9922zm-420.57 45.959-9.9336 10.301-12.963-6.1562 6.8027 12.566-9.8789 10.355 14.16-2.5293 6.6895 12.566 1.9941-14.18 14.1-2.584-12.906-6.2129zm382.21 0 1.9355 14.127-12.906 6.2129 14.1 2.584 1.9941 14.18 6.6895-12.566 14.16 2.5293-9.8789-10.355 6.8027-12.566-12.963 6.1562zm-357.46 40.4-7.4531 12.225-13.873-3.3242 9.3496 10.91-7.4531 12.17 13.174-5.5801 9.4062 10.914-1.2031-14.291 13.178-5.5234-13.924-3.2656zm332.71 0-1.2012 14.234-13.924 3.2656 13.178 5.5234-1.2031 14.291 9.4062-10.914 13.174 5.5801-7.4531-12.17 9.3496-10.91-13.873 3.3242z" fill="#fff" stroke-width=".033333"/>
 <path d="m17037 11136c7.5-27.5 374.8-646.2 575.9-671.2s587.1 542.5 667.1 566.2c-177.79 587.9-1230.2 377.17-1243 105z" fill="#d69a2d"/>
</svg>
